G04*
G04 #@! TF.GenerationSoftware,Altium Limited,Altium Designer,22.11.1 (43)*
G04*
G04 Layer_Physical_Order=2*
G04 Layer_Color=16711680*
%FSLAX25Y25*%
%MOIN*%
G70*
G04*
G04 #@! TF.SameCoordinates,C3DCF227-2B7A-40B4-8179-D348CCFE8E73*
G04*
G04*
G04 #@! TF.FilePolarity,Positive*
G04*
G01*
G75*
%ADD10C,0.01000*%
%ADD31R,0.05906X0.05906*%
%ADD55C,0.06063*%
%ADD56R,0.06063X0.06063*%
G04:AMPARAMS|DCode=58|XSize=94.49mil|YSize=196.85mil|CornerRadius=47.24mil|HoleSize=0mil|Usage=FLASHONLY|Rotation=0.000|XOffset=0mil|YOffset=0mil|HoleType=Round|Shape=RoundedRectangle|*
%AMROUNDEDRECTD58*
21,1,0.09449,0.10236,0,0,0.0*
21,1,0.00000,0.19685,0,0,0.0*
1,1,0.09449,0.00000,-0.05118*
1,1,0.09449,0.00000,-0.05118*
1,1,0.09449,0.00000,0.05118*
1,1,0.09449,0.00000,0.05118*
%
%ADD58ROUNDEDRECTD58*%
%ADD59C,0.06102*%
%ADD60R,0.06102X0.06102*%
%ADD64C,0.05906*%
%ADD65C,0.02756*%
%ADD66C,0.07913*%
%ADD67R,0.05906X0.05906*%
%ADD68R,0.39370X0.39370*%
%ADD69R,0.04724X0.04724*%
%ADD70C,0.04724*%
%ADD71C,0.05000*%
G36*
X700000Y100000D02*
X100000D01*
Y500000D01*
X700000D01*
Y100000D01*
D02*
G37*
%LPC*%
G36*
X395964Y492996D02*
X394659D01*
X393398Y492658D01*
X392268Y492006D01*
X391345Y491083D01*
X390692Y489953D01*
X390354Y488692D01*
Y487387D01*
X390692Y486126D01*
X391345Y484996D01*
X392268Y484073D01*
X393398Y483421D01*
X394659Y483083D01*
X395964D01*
X397224Y483421D01*
X398355Y484073D01*
X399277Y484996D01*
X399930Y486126D01*
X400268Y487387D01*
Y488692D01*
X399930Y489953D01*
X399277Y491083D01*
X398355Y492006D01*
X397224Y492658D01*
X395964Y492996D01*
D02*
G37*
G36*
X362342D02*
X361036D01*
X359776Y492658D01*
X358646Y492006D01*
X357723Y491083D01*
X357070Y489953D01*
X356732Y488692D01*
Y487387D01*
X357070Y486126D01*
X357723Y484996D01*
X358646Y484073D01*
X359776Y483421D01*
X361036Y483083D01*
X362342D01*
X363602Y483421D01*
X364733Y484073D01*
X365655Y484996D01*
X366308Y486126D01*
X366646Y487387D01*
Y488692D01*
X366308Y489953D01*
X365655Y491083D01*
X364733Y492006D01*
X363602Y492658D01*
X362342Y492996D01*
D02*
G37*
G36*
X597361Y494200D02*
X596439D01*
X595549Y493961D01*
X594751Y493501D01*
X594099Y492849D01*
X593639Y492051D01*
X593521Y491611D01*
X430468D01*
X430119Y491542D01*
X429824Y491344D01*
X401695Y463216D01*
X385567D01*
X385312Y463716D01*
X385602Y464417D01*
Y465363D01*
X385588Y465398D01*
X386146Y465630D01*
X386374Y465858D01*
X386602Y465630D01*
X387476Y465268D01*
X388422D01*
X389296Y465630D01*
X389965Y466299D01*
X390318Y467152D01*
X390416Y467190D01*
X390827Y467271D01*
X391345Y466374D01*
X392268Y465451D01*
X393398Y464798D01*
X394659Y464461D01*
X395964D01*
X397224Y464798D01*
X398355Y465451D01*
X399277Y466374D01*
X399930Y467504D01*
X400268Y468765D01*
Y470070D01*
X399930Y471330D01*
X399277Y472461D01*
X398355Y473384D01*
X397224Y474036D01*
X395964Y474374D01*
X394659D01*
X393398Y474036D01*
X392268Y473384D01*
X391345Y472461D01*
X390692Y471330D01*
X390354Y470070D01*
Y469259D01*
X389855Y469103D01*
X389296Y469662D01*
X388422Y470023D01*
X387476D01*
X386602Y469662D01*
X386374Y469434D01*
X386146Y469662D01*
X385272Y470023D01*
X384326D01*
X383452Y469662D01*
X383224Y469434D01*
X382997Y469662D01*
X382123Y470023D01*
X381177D01*
X380303Y469662D01*
X379634Y468993D01*
X379272Y468119D01*
Y467173D01*
X379286Y467137D01*
X378728Y466906D01*
X378500Y466678D01*
X378272Y466906D01*
X377714Y467137D01*
X377728Y467173D01*
Y468119D01*
X377366Y468993D01*
X376697Y469662D01*
X375823Y470023D01*
X374877D01*
X374003Y469662D01*
X373776Y469434D01*
X373548Y469662D01*
X372674Y470023D01*
X371728D01*
X370854Y469662D01*
X370626Y469434D01*
X370398Y469662D01*
X369524Y470023D01*
X368578D01*
X367704Y469662D01*
X367146Y469103D01*
X366646Y469259D01*
Y470070D01*
X366308Y471330D01*
X365655Y472461D01*
X364733Y473384D01*
X363602Y474036D01*
X362342Y474374D01*
X361036D01*
X359776Y474036D01*
X358646Y473384D01*
X357723Y472461D01*
X357070Y471330D01*
X356732Y470070D01*
Y468765D01*
X357070Y467504D01*
X357723Y466374D01*
X358646Y465451D01*
X359776Y464798D01*
X361036Y464461D01*
X362342D01*
X363602Y464798D01*
X364733Y465451D01*
X365655Y466374D01*
X366173Y467271D01*
X366584Y467190D01*
X366682Y467152D01*
X367035Y466299D01*
X367704Y465630D01*
X368578Y465268D01*
X369524D01*
X370398Y465630D01*
X370626Y465858D01*
X370854Y465630D01*
X371412Y465398D01*
X371398Y465363D01*
Y464417D01*
X371760Y463543D01*
X372429Y462874D01*
X372931Y462666D01*
X372934Y462651D01*
X373131Y462356D01*
X373827Y461660D01*
X374122Y461463D01*
X374471Y461394D01*
X399690D01*
X399909Y460894D01*
X399538Y460251D01*
X399300Y459361D01*
Y458439D01*
X399538Y457549D01*
X399999Y456751D01*
X400651Y456099D01*
X401449Y455639D01*
X402339Y455400D01*
X403261D01*
X404151Y455639D01*
X404949Y456099D01*
X405601Y456751D01*
X406062Y457549D01*
X406300Y458439D01*
Y459361D01*
X406062Y460251D01*
X405834Y460645D01*
X418877Y473689D01*
X430421D01*
X430539Y473249D01*
X430999Y472451D01*
X431651Y471799D01*
X432449Y471339D01*
X433339Y471100D01*
X434261D01*
X435151Y471339D01*
X435949Y471799D01*
X436601Y472451D01*
X437062Y473249D01*
X437300Y474139D01*
Y475061D01*
X437062Y475951D01*
X436601Y476749D01*
X435949Y477401D01*
X435151Y477861D01*
X434261Y478100D01*
X433339D01*
X432449Y477861D01*
X431651Y477401D01*
X430999Y476749D01*
X430539Y475951D01*
X430421Y475511D01*
X418500D01*
X418151Y475442D01*
X417856Y475244D01*
X404545Y461934D01*
X404151Y462161D01*
X403898Y462229D01*
X403769Y462712D01*
X430845Y489789D01*
X534315D01*
Y470411D01*
X422900D01*
X422551Y470342D01*
X422256Y470144D01*
X404823Y452711D01*
X168077D01*
X167685Y453104D01*
Y493185D01*
X126315D01*
Y451815D01*
X166396D01*
X167056Y451156D01*
X167351Y450958D01*
X167700Y450889D01*
X405200D01*
X405549Y450958D01*
X405844Y451156D01*
X423277Y468589D01*
X534315D01*
Y448815D01*
X575685D01*
Y489789D01*
X593521D01*
X593639Y489349D01*
X594099Y488551D01*
X594751Y487899D01*
X595549Y487438D01*
X596439Y487200D01*
X597361D01*
X598251Y487438D01*
X599049Y487899D01*
X599701Y488551D01*
X600162Y489349D01*
X600400Y490239D01*
Y491161D01*
X600162Y492051D01*
X599701Y492849D01*
X599049Y493501D01*
X598251Y493961D01*
X597361Y494200D01*
D02*
G37*
G36*
X458520Y431453D02*
X457480D01*
X456474Y431183D01*
X455573Y430663D01*
X454837Y429927D01*
X454317Y429026D01*
X454047Y428020D01*
Y426980D01*
X454317Y425974D01*
X454837Y425073D01*
X455573Y424337D01*
X456474Y423817D01*
X457480Y423547D01*
X458520D01*
X459526Y423817D01*
X460427Y424337D01*
X461163Y425073D01*
X461683Y425974D01*
X461953Y426980D01*
Y428020D01*
X461683Y429026D01*
X461163Y429927D01*
X460427Y430663D01*
X459526Y431183D01*
X458520Y431453D01*
D02*
G37*
G36*
X660259Y414857D02*
X657964D01*
X657898Y414844D01*
X657831Y414849D01*
X655555Y414549D01*
X655492Y414528D01*
X655424Y414523D01*
X653208Y413929D01*
X653147Y413900D01*
X653082Y413886D01*
X650961Y413008D01*
X650905Y412971D01*
X650842Y412949D01*
X648854Y411802D01*
X648804Y411757D01*
X648743Y411728D01*
X646922Y410330D01*
X646878Y410280D01*
X646822Y410243D01*
X645199Y408620D01*
X645162Y408564D01*
X645112Y408520D01*
X643714Y406699D01*
X643685Y406638D01*
X643640Y406588D01*
X642493Y404600D01*
X642471Y404537D01*
X642434Y404481D01*
X641556Y402360D01*
X641542Y402294D01*
X641513Y402234D01*
X640919Y400017D01*
X640914Y399950D01*
X640893Y399887D01*
X640593Y397611D01*
X640598Y397544D01*
X640585Y397478D01*
Y395183D01*
X640598Y395117D01*
X640593Y395050D01*
X640893Y392775D01*
X640914Y392711D01*
X640919Y392644D01*
X641513Y390427D01*
X641542Y390367D01*
X641556Y390301D01*
X642434Y388181D01*
X642471Y388125D01*
X642493Y388061D01*
X643640Y386074D01*
X643685Y386023D01*
X643714Y385963D01*
X645112Y384142D01*
X645162Y384098D01*
X645199Y384042D01*
X646822Y382419D01*
X646878Y382382D01*
X646922Y382331D01*
X648743Y380934D01*
X648804Y380904D01*
X648854Y380860D01*
X650842Y379712D01*
X650905Y379691D01*
X650961Y379653D01*
X653082Y378775D01*
X653147Y378762D01*
X653208Y378732D01*
X655424Y378138D01*
X655492Y378134D01*
X655555Y378112D01*
X657831Y377813D01*
X657898Y377817D01*
X657964Y377804D01*
X660259D01*
X660325Y377817D01*
X660392Y377813D01*
X662667Y378112D01*
X662731Y378134D01*
X662798Y378138D01*
X665015Y378732D01*
X665075Y378762D01*
X665141Y378775D01*
X667261Y379653D01*
X667317Y379691D01*
X667381Y379712D01*
X669368Y380860D01*
X669419Y380904D01*
X669479Y380934D01*
X671300Y382331D01*
X671344Y382382D01*
X671400Y382419D01*
X673023Y384042D01*
X673060Y384098D01*
X673111Y384142D01*
X674508Y385963D01*
X674538Y386023D01*
X674582Y386074D01*
X675730Y388061D01*
X675751Y388125D01*
X675788Y388181D01*
X676667Y390301D01*
X676680Y390367D01*
X676710Y390427D01*
X677304Y392644D01*
X677308Y392711D01*
X677330Y392775D01*
X677629Y395050D01*
X677625Y395117D01*
X677638Y395183D01*
Y397478D01*
X677625Y397544D01*
X677629Y397611D01*
X677330Y399887D01*
X677308Y399950D01*
X677304Y400017D01*
X676710Y402234D01*
X676680Y402294D01*
X676667Y402360D01*
X675788Y404481D01*
X675751Y404537D01*
X675730Y404600D01*
X674582Y406588D01*
X674538Y406638D01*
X674508Y406699D01*
X673111Y408520D01*
X673060Y408564D01*
X673023Y408620D01*
X671400Y410243D01*
X671344Y410280D01*
X671300Y410330D01*
X669479Y411728D01*
X669419Y411757D01*
X669368Y411802D01*
X667381Y412949D01*
X667317Y412971D01*
X667261Y413008D01*
X665141Y413886D01*
X665075Y413900D01*
X665015Y413929D01*
X662798Y414523D01*
X662731Y414528D01*
X662667Y414549D01*
X660392Y414849D01*
X660325Y414844D01*
X660259Y414857D01*
D02*
G37*
G36*
X417161Y447500D02*
X416239D01*
X415349Y447261D01*
X414551Y446801D01*
X413899Y446149D01*
X413439Y445351D01*
X413200Y444461D01*
Y443539D01*
X413439Y442649D01*
X413899Y441851D01*
X414551Y441199D01*
X415349Y440738D01*
X416239Y440500D01*
X417161D01*
X418051Y440738D01*
X418445Y440966D01*
X442556Y416856D01*
X442851Y416658D01*
X443200Y416589D01*
X454047D01*
Y413547D01*
X461953D01*
Y421453D01*
X454047D01*
Y418411D01*
X443577D01*
X419734Y442255D01*
X419962Y442649D01*
X420200Y443539D01*
Y444461D01*
X419962Y445351D01*
X419501Y446149D01*
X418849Y446801D01*
X418051Y447261D01*
X417161Y447500D01*
D02*
G37*
G36*
X128566Y402701D02*
X126271D01*
X126205Y402688D01*
X126138Y402692D01*
X123863Y402392D01*
X123799Y402371D01*
X123732Y402366D01*
X121515Y401772D01*
X121455Y401743D01*
X121389Y401729D01*
X119269Y400851D01*
X119212Y400814D01*
X119149Y400792D01*
X117161Y399645D01*
X117111Y399601D01*
X117051Y399571D01*
X115230Y398174D01*
X115185Y398123D01*
X115129Y398086D01*
X113507Y396463D01*
X113469Y396407D01*
X113419Y396363D01*
X112022Y394542D01*
X111992Y394482D01*
X111948Y394431D01*
X110800Y392444D01*
X110778Y392380D01*
X110741Y392324D01*
X109863Y390204D01*
X109850Y390138D01*
X109820Y390077D01*
X109226Y387861D01*
X109222Y387793D01*
X109200Y387730D01*
X108900Y385455D01*
X108905Y385387D01*
X108892Y385321D01*
Y383027D01*
X108905Y382961D01*
X108900Y382893D01*
X109200Y380618D01*
X109222Y380554D01*
X109226Y380487D01*
X109820Y378271D01*
X109850Y378210D01*
X109863Y378144D01*
X110741Y376024D01*
X110778Y375968D01*
X110800Y375904D01*
X111948Y373917D01*
X111992Y373866D01*
X112022Y373806D01*
X113419Y371985D01*
X113469Y371941D01*
X113507Y371885D01*
X115129Y370262D01*
X115185Y370225D01*
X115230Y370174D01*
X117051Y368777D01*
X117111Y368747D01*
X117161Y368703D01*
X119149Y367556D01*
X119212Y367534D01*
X119269Y367497D01*
X121389Y366618D01*
X121455Y366605D01*
X121515Y366576D01*
X123732Y365982D01*
X123799Y365977D01*
X123863Y365955D01*
X126138Y365656D01*
X126205Y365660D01*
X126271Y365647D01*
X128566D01*
X128632Y365660D01*
X128699Y365656D01*
X130974Y365955D01*
X131038Y365977D01*
X131105Y365982D01*
X133322Y366576D01*
X133382Y366605D01*
X133448Y366618D01*
X135568Y367497D01*
X135624Y367534D01*
X135688Y367556D01*
X137676Y368703D01*
X137726Y368747D01*
X137786Y368777D01*
X139607Y370174D01*
X139652Y370225D01*
X139707Y370262D01*
X141330Y371885D01*
X141368Y371941D01*
X141418Y371985D01*
X142815Y373806D01*
X142845Y373866D01*
X142889Y373917D01*
X144037Y375904D01*
X144058Y375968D01*
X144096Y376024D01*
X144974Y378144D01*
X144987Y378210D01*
X145017Y378271D01*
X145611Y380487D01*
X145615Y380554D01*
X145637Y380618D01*
X145937Y382893D01*
X145932Y382961D01*
X145945Y383027D01*
Y385321D01*
X145932Y385387D01*
X145937Y385455D01*
X145637Y387730D01*
X145615Y387793D01*
X145611Y387861D01*
X145017Y390077D01*
X144987Y390138D01*
X144974Y390204D01*
X144096Y392324D01*
X144058Y392380D01*
X144037Y392444D01*
X142889Y394431D01*
X142845Y394482D01*
X142815Y394542D01*
X141418Y396363D01*
X141368Y396407D01*
X141330Y396463D01*
X139707Y398086D01*
X139652Y398123D01*
X139607Y398174D01*
X137786Y399571D01*
X137726Y399601D01*
X137676Y399645D01*
X135688Y400792D01*
X135624Y400814D01*
X135568Y400851D01*
X133448Y401729D01*
X133382Y401743D01*
X133322Y401772D01*
X131105Y402366D01*
X131038Y402371D01*
X130974Y402392D01*
X128699Y402692D01*
X128632Y402688D01*
X128566Y402701D01*
D02*
G37*
G36*
X426843Y458500D02*
X425921D01*
X425031Y458261D01*
X424233Y457801D01*
X423581Y457149D01*
X423120Y456351D01*
X422882Y455461D01*
Y454539D01*
X423120Y453649D01*
X423581Y452851D01*
X424233Y452199D01*
X425031Y451739D01*
X425921Y451500D01*
X426843D01*
X427733Y451739D01*
X428531Y452199D01*
X429183Y452851D01*
X429643Y453649D01*
X429761Y454089D01*
X513323D01*
X572566Y394845D01*
X572338Y394451D01*
X572100Y393561D01*
Y392639D01*
X572338Y391749D01*
X572799Y390951D01*
X573451Y390299D01*
X574249Y389839D01*
X575139Y389600D01*
X576061D01*
X576951Y389839D01*
X577749Y390299D01*
X578401Y390951D01*
X578862Y391749D01*
X579100Y392639D01*
Y393561D01*
X578862Y394451D01*
X578401Y395249D01*
X577749Y395901D01*
X576951Y396361D01*
X576061Y396600D01*
X575139D01*
X574249Y396361D01*
X573855Y396134D01*
X514344Y455644D01*
X514049Y455842D01*
X513700Y455911D01*
X429761D01*
X429643Y456351D01*
X429183Y457149D01*
X428531Y457801D01*
X427733Y458261D01*
X426843Y458500D01*
D02*
G37*
G36*
X390861Y447900D02*
X389939D01*
X389049Y447661D01*
X388251Y447201D01*
X387599Y446549D01*
X387139Y445751D01*
X386900Y444861D01*
Y443939D01*
X387139Y443049D01*
X387599Y442251D01*
X388251Y441599D01*
X389049Y441139D01*
X389489Y441021D01*
Y340777D01*
X384077Y335365D01*
X383526Y335683D01*
X382520Y335953D01*
X381480D01*
X380474Y335683D01*
X379923Y335365D01*
X375144Y340144D01*
X374849Y340342D01*
X374500Y340411D01*
X256700D01*
X256351Y340342D01*
X256056Y340144D01*
X242745Y326834D01*
X242351Y327062D01*
X241461Y327300D01*
X240539D01*
X239649Y327062D01*
X238851Y326601D01*
X238199Y325949D01*
X237738Y325151D01*
X237500Y324261D01*
Y323339D01*
X237738Y322449D01*
X238199Y321651D01*
X238851Y320999D01*
X239649Y320538D01*
X240539Y320300D01*
X241461D01*
X242351Y320538D01*
X243149Y320999D01*
X243801Y321651D01*
X244262Y322449D01*
X244500Y323339D01*
Y324261D01*
X244262Y325151D01*
X244034Y325545D01*
X257077Y338589D01*
X374123D01*
X378635Y334077D01*
X378317Y333526D01*
X378047Y332520D01*
Y331480D01*
X378317Y330474D01*
X378837Y329573D01*
X378937Y329473D01*
X378746Y329011D01*
X376277D01*
X375365Y329923D01*
X375683Y330474D01*
X375953Y331480D01*
Y332520D01*
X375683Y333526D01*
X375163Y334427D01*
X374427Y335163D01*
X373526Y335683D01*
X372520Y335953D01*
X371480D01*
X370474Y335683D01*
X369573Y335163D01*
X368837Y334427D01*
X368317Y333526D01*
X368047Y332520D01*
Y331480D01*
X368317Y330474D01*
X368635Y329923D01*
X366623Y327911D01*
X363824D01*
X363690Y328411D01*
X364427Y328837D01*
X365163Y329573D01*
X365683Y330474D01*
X365953Y331480D01*
Y332520D01*
X365683Y333526D01*
X365163Y334427D01*
X364427Y335163D01*
X363526Y335683D01*
X362520Y335953D01*
X361480D01*
X360474Y335683D01*
X359573Y335163D01*
X358837Y334427D01*
X358317Y333526D01*
X358047Y332520D01*
Y331480D01*
X358317Y330474D01*
X358837Y329573D01*
X359573Y328837D01*
X360310Y328411D01*
X360176Y327911D01*
X254879D01*
X254762Y328351D01*
X254301Y329149D01*
X253649Y329801D01*
X252851Y330261D01*
X251961Y330500D01*
X251039D01*
X250149Y330261D01*
X249351Y329801D01*
X248699Y329149D01*
X248238Y328351D01*
X248000Y327461D01*
Y326539D01*
X248238Y325649D01*
X248699Y324851D01*
X249351Y324199D01*
X250149Y323739D01*
X251039Y323500D01*
X251961D01*
X252851Y323739D01*
X253649Y324199D01*
X254301Y324851D01*
X254762Y325649D01*
X254879Y326089D01*
X367000D01*
X367349Y326158D01*
X367644Y326356D01*
X369923Y328635D01*
X370474Y328317D01*
X371480Y328047D01*
X372520D01*
X373526Y328317D01*
X374077Y328635D01*
X375256Y327456D01*
X375551Y327258D01*
X375900Y327189D01*
X393000D01*
X393349Y327258D01*
X393644Y327456D01*
X398644Y332456D01*
X398842Y332751D01*
X398911Y333100D01*
Y440821D01*
X399351Y440939D01*
X400149Y441399D01*
X400801Y442051D01*
X401262Y442849D01*
X401500Y443739D01*
Y444661D01*
X401262Y445551D01*
X400801Y446349D01*
X400149Y447001D01*
X399351Y447462D01*
X398461Y447700D01*
X397539D01*
X396649Y447462D01*
X395851Y447001D01*
X395199Y446349D01*
X394739Y445551D01*
X394500Y444661D01*
Y443739D01*
X394739Y442849D01*
X395199Y442051D01*
X395851Y441399D01*
X396649Y440939D01*
X397089Y440821D01*
Y333477D01*
X392623Y329011D01*
X385255D01*
X385063Y329473D01*
X385163Y329573D01*
X385683Y330474D01*
X385953Y331480D01*
Y332520D01*
X385683Y333526D01*
X385365Y334077D01*
X391044Y339756D01*
X391242Y340051D01*
X391311Y340400D01*
Y441021D01*
X391751Y441139D01*
X392549Y441599D01*
X393201Y442251D01*
X393661Y443049D01*
X393900Y443939D01*
Y444861D01*
X393661Y445751D01*
X393201Y446549D01*
X392549Y447201D01*
X391751Y447661D01*
X390861Y447900D01*
D02*
G37*
G36*
X473662Y336599D02*
X472740D01*
X471850Y336361D01*
X471052Y335900D01*
X470400Y335248D01*
X469939Y334450D01*
X469701Y333560D01*
Y332638D01*
X469859Y332048D01*
X429423Y291611D01*
X299779D01*
X299661Y292051D01*
X299201Y292849D01*
X298549Y293501D01*
X297751Y293962D01*
X296861Y294200D01*
X295939D01*
X295049Y293962D01*
X294251Y293501D01*
X293599Y292849D01*
X293139Y292051D01*
X292900Y291161D01*
Y290239D01*
X293139Y289349D01*
X293599Y288551D01*
X294251Y287899D01*
X295049Y287439D01*
X295939Y287200D01*
X296861D01*
X297751Y287439D01*
X298549Y287899D01*
X299201Y288551D01*
X299661Y289349D01*
X299779Y289789D01*
X429800D01*
X430149Y289858D01*
X430444Y290056D01*
X470869Y330481D01*
X471052Y330298D01*
X471850Y329838D01*
X472740Y329599D01*
X473662D01*
X474552Y329838D01*
X475350Y330298D01*
X476002Y330950D01*
X476462Y331748D01*
X476701Y332638D01*
Y333560D01*
X476462Y334450D01*
X476002Y335248D01*
X475350Y335900D01*
X474552Y336361D01*
X473662Y336599D01*
D02*
G37*
G36*
X588461Y320600D02*
X587539D01*
X586649Y320361D01*
X585851Y319901D01*
X585199Y319249D01*
X584738Y318451D01*
X584500Y317561D01*
Y316639D01*
X584738Y315749D01*
X584966Y315355D01*
X504627Y235016D01*
X504233Y235243D01*
X503343Y235482D01*
X502421D01*
X501531Y235243D01*
X500733Y234783D01*
X500081Y234131D01*
X499620Y233333D01*
X499382Y232443D01*
Y231521D01*
X499620Y230631D01*
X500081Y229833D01*
X500733Y229181D01*
X501531Y228720D01*
X502421Y228482D01*
X503343D01*
X504233Y228720D01*
X505031Y229181D01*
X505683Y229833D01*
X506143Y230631D01*
X506382Y231521D01*
Y232443D01*
X506143Y233333D01*
X505916Y233727D01*
X586255Y314066D01*
X586649Y313839D01*
X587539Y313600D01*
X588461D01*
X589351Y313839D01*
X590149Y314299D01*
X590801Y314951D01*
X591261Y315749D01*
X591500Y316639D01*
Y317561D01*
X591261Y318451D01*
X590801Y319249D01*
X590149Y319901D01*
X589351Y320361D01*
X588461Y320600D01*
D02*
G37*
G36*
X632691Y217610D02*
X631624D01*
X630594Y217334D01*
X629670Y216801D01*
X628916Y216047D01*
X628382Y215123D01*
X628208Y214470D01*
X438459D01*
X438110Y214401D01*
X437815Y214204D01*
X388645Y165034D01*
X388251Y165261D01*
X387361Y165500D01*
X386439D01*
X385549Y165261D01*
X384751Y164801D01*
X384099Y164149D01*
X383639Y163351D01*
X383400Y162461D01*
Y161539D01*
X383639Y160649D01*
X384099Y159851D01*
X384131Y159819D01*
X383824Y159419D01*
X383404Y159661D01*
X382514Y159900D01*
X381593D01*
X380702Y159661D01*
X379904Y159201D01*
X379253Y158549D01*
X378792Y157751D01*
X378553Y156861D01*
Y155939D01*
X378792Y155049D01*
X379253Y154251D01*
X379904Y153599D01*
X380403Y153311D01*
X380269Y152811D01*
X327553D01*
X327205Y152742D01*
X326909Y152544D01*
X323435Y149070D01*
X322884Y149388D01*
X321879Y149657D01*
X320838D01*
X319832Y149388D01*
X318931Y148868D01*
X318311Y148248D01*
X317811Y148412D01*
Y149800D01*
X317742Y150149D01*
X317544Y150444D01*
X312872Y155117D01*
X312576Y155314D01*
X312228Y155384D01*
X177292D01*
X177118Y156036D01*
X176584Y156960D01*
X175830Y157714D01*
X174906Y158247D01*
X173876Y158524D01*
X172809D01*
X171779Y158247D01*
X170855Y157714D01*
X170101Y156960D01*
X169567Y156036D01*
X169291Y155006D01*
Y153939D01*
X169567Y152909D01*
X170101Y151985D01*
X170855Y151231D01*
X171779Y150697D01*
X172809Y150421D01*
X173876D01*
X174906Y150697D01*
X175830Y151231D01*
X176584Y151985D01*
X177118Y152909D01*
X177292Y153561D01*
X311850D01*
X315989Y149423D01*
Y143300D01*
X316058Y142951D01*
X316256Y142656D01*
X318248Y140663D01*
X318212Y140435D01*
X318069Y140163D01*
X317231D01*
X314658Y142736D01*
X314524Y143268D01*
X314565Y143354D01*
X315042Y144179D01*
X315311Y145184D01*
Y146225D01*
X315042Y147231D01*
X314521Y148132D01*
X313785Y148868D01*
X312884Y149388D01*
X311879Y149657D01*
X310838D01*
X309833Y149388D01*
X309007Y148912D01*
X308921Y148870D01*
X308390Y149004D01*
X307750Y149644D01*
X307454Y149842D01*
X307105Y149911D01*
X303880D01*
X303596Y150196D01*
X303300Y150393D01*
X302952Y150462D01*
X289765D01*
X289416Y150393D01*
X289121Y150196D01*
X288836Y149911D01*
X159507D01*
X157709Y151710D01*
Y158524D01*
X149606D01*
Y150421D01*
X156420D01*
X158485Y148356D01*
X158781Y148158D01*
X159130Y148089D01*
X287670D01*
X287920Y147656D01*
X287675Y147231D01*
X287405Y146225D01*
Y145184D01*
X287675Y144179D01*
X288195Y143278D01*
X288931Y142542D01*
X289832Y142021D01*
X290838Y141752D01*
X291879D01*
X292884Y142021D01*
X293785Y142542D01*
X294521Y143278D01*
X295042Y144179D01*
X295311Y145184D01*
Y146225D01*
X295042Y147231D01*
X294521Y148132D01*
X294475Y148178D01*
X294666Y148640D01*
X298050D01*
X298241Y148178D01*
X298195Y148132D01*
X297675Y147231D01*
X297406Y146225D01*
Y145184D01*
X297675Y144179D01*
X298195Y143278D01*
X298931Y142542D01*
X299833Y142021D01*
X300838Y141752D01*
X301879D01*
X302884Y142021D01*
X303785Y142542D01*
X304521Y143278D01*
X305042Y144179D01*
X305311Y145184D01*
Y146225D01*
X305042Y147231D01*
X304796Y147656D01*
X305046Y148089D01*
X306364D01*
X306626Y147711D01*
X306658Y147589D01*
X306600Y147298D01*
Y144112D01*
X306670Y143763D01*
X306867Y143467D01*
X309121Y141214D01*
X309416Y141016D01*
X309765Y140947D01*
X312951D01*
X313300Y141016D01*
X313546Y141181D01*
X313636D01*
X316209Y138608D01*
X316505Y138410D01*
X316853Y138341D01*
X384905D01*
X385254Y138410D01*
X385550Y138608D01*
X389282Y142340D01*
X389832Y142021D01*
X390838Y141752D01*
X391879D01*
X392884Y142021D01*
X393785Y142542D01*
X394521Y143278D01*
X395042Y144179D01*
X395311Y145184D01*
Y146225D01*
X395042Y147231D01*
X394521Y148132D01*
X393785Y148868D01*
X392884Y149388D01*
X391879Y149657D01*
X390838D01*
X389832Y149388D01*
X388931Y148868D01*
X388195Y148132D01*
X387675Y147231D01*
X387405Y146225D01*
Y145184D01*
X387675Y144179D01*
X387993Y143628D01*
X384528Y140163D01*
X377784D01*
X377641Y140435D01*
X377605Y140663D01*
X379282Y142340D01*
X379833Y142021D01*
X380838Y141752D01*
X381879D01*
X382884Y142021D01*
X383785Y142542D01*
X384521Y143278D01*
X385042Y144179D01*
X385311Y145184D01*
Y146225D01*
X385042Y147231D01*
X384521Y148132D01*
X383785Y148868D01*
X382884Y149388D01*
X381879Y149657D01*
X380838D01*
X379833Y149388D01*
X378931Y148868D01*
X378195Y148132D01*
X377675Y147231D01*
X377406Y146225D01*
Y145184D01*
X377675Y144179D01*
X377993Y143628D01*
X376528Y142163D01*
X374078D01*
X373907Y142663D01*
X374521Y143278D01*
X375042Y144179D01*
X375311Y145184D01*
Y146225D01*
X375042Y147231D01*
X374521Y148132D01*
X373785Y148868D01*
X372884Y149388D01*
X371879Y149657D01*
X370838D01*
X369832Y149388D01*
X368931Y148868D01*
X368195Y148132D01*
X367675Y147231D01*
X367406Y146225D01*
Y145184D01*
X367675Y144179D01*
X368195Y143278D01*
X368810Y142663D01*
X368638Y142163D01*
X364078D01*
X363907Y142663D01*
X364521Y143278D01*
X365042Y144179D01*
X365311Y145184D01*
Y146225D01*
X365042Y147231D01*
X364521Y148132D01*
X363785Y148868D01*
X362884Y149388D01*
X361879Y149657D01*
X360838D01*
X359833Y149388D01*
X358931Y148868D01*
X358195Y148132D01*
X357675Y147231D01*
X357405Y146225D01*
Y145184D01*
X357675Y144179D01*
X358195Y143278D01*
X358810Y142663D01*
X358638Y142163D01*
X344078D01*
X343907Y142663D01*
X344521Y143278D01*
X345042Y144179D01*
X345311Y145184D01*
Y146225D01*
X345042Y147231D01*
X344521Y148132D01*
X343785Y148868D01*
X342884Y149388D01*
X341879Y149657D01*
X340838D01*
X339832Y149388D01*
X338931Y148868D01*
X338195Y148132D01*
X337675Y147231D01*
X337405Y146225D01*
Y145184D01*
X337675Y144179D01*
X338195Y143278D01*
X338810Y142663D01*
X338638Y142163D01*
X334078D01*
X333907Y142663D01*
X334521Y143278D01*
X335042Y144179D01*
X335311Y145184D01*
Y146225D01*
X335042Y147231D01*
X334521Y148132D01*
X333785Y148868D01*
X332884Y149388D01*
X331879Y149657D01*
X330838D01*
X329833Y149388D01*
X328931Y148868D01*
X328195Y148132D01*
X327675Y147231D01*
X327406Y146225D01*
Y145184D01*
X327675Y144179D01*
X328195Y143278D01*
X328810Y142663D01*
X328638Y142163D01*
X324078D01*
X323907Y142663D01*
X324521Y143278D01*
X325042Y144179D01*
X325311Y145184D01*
Y146225D01*
X325042Y147231D01*
X324724Y147781D01*
X327931Y150989D01*
X414646D01*
X414853Y150489D01*
X413435Y149070D01*
X412884Y149388D01*
X411879Y149657D01*
X410838D01*
X409832Y149388D01*
X408931Y148868D01*
X408195Y148132D01*
X407675Y147231D01*
X407406Y146225D01*
Y145184D01*
X407675Y144179D01*
X408195Y143278D01*
X408931Y142542D01*
X409832Y142021D01*
X410838Y141752D01*
X411879D01*
X412884Y142021D01*
X413785Y142542D01*
X414521Y143278D01*
X415042Y144179D01*
X415311Y145184D01*
Y146225D01*
X415042Y147231D01*
X414723Y147781D01*
X416188Y149246D01*
X417406D01*
Y143041D01*
X410776Y136411D01*
X244848D01*
X244683Y137026D01*
X244163Y137927D01*
X243427Y138663D01*
X242526Y139183D01*
X241520Y139453D01*
X240480D01*
X239474Y139183D01*
X238573Y138663D01*
X237837Y137927D01*
X237317Y137026D01*
X237047Y136020D01*
Y134980D01*
X237317Y133974D01*
X237837Y133073D01*
X238573Y132337D01*
X239474Y131817D01*
X240480Y131547D01*
X241520D01*
X242526Y131817D01*
X243427Y132337D01*
X244163Y133073D01*
X244683Y133974D01*
X244848Y134589D01*
X399574D01*
X399708Y134089D01*
X399209Y133801D01*
X398557Y133149D01*
X398097Y132351D01*
X397858Y131461D01*
Y130539D01*
X398097Y129649D01*
X398557Y128851D01*
X399209Y128199D01*
X400007Y127738D01*
X400897Y127500D01*
X401819D01*
X402709Y127738D01*
X403507Y128199D01*
X404159Y128851D01*
X404620Y129649D01*
X404738Y130089D01*
X446652D01*
X446817Y129474D01*
X447337Y128573D01*
X448073Y127837D01*
X448974Y127317D01*
X449980Y127047D01*
X451020D01*
X452026Y127317D01*
X452927Y127837D01*
X453663Y128573D01*
X454183Y129474D01*
X454453Y130480D01*
Y131520D01*
X454183Y132526D01*
X453663Y133427D01*
X452927Y134163D01*
X452026Y134683D01*
X451020Y134953D01*
X449980D01*
X448974Y134683D01*
X448073Y134163D01*
X447337Y133427D01*
X446817Y132526D01*
X446652Y131911D01*
X404738D01*
X404620Y132351D01*
X404159Y133149D01*
X403507Y133801D01*
X403008Y134089D01*
X403142Y134589D01*
X411153D01*
X411502Y134658D01*
X411798Y134856D01*
X418694Y141752D01*
X424022D01*
X430019Y135756D01*
X430314Y135558D01*
X430663Y135489D01*
X543247D01*
X543595Y135558D01*
X543891Y135756D01*
X546007Y137872D01*
X546586Y137538D01*
X547611Y137264D01*
X548673D01*
X549698Y137538D01*
X550617Y138069D01*
X551368Y138820D01*
X551898Y139739D01*
X552173Y140764D01*
Y141826D01*
X551898Y142851D01*
X551368Y143771D01*
X550617Y144521D01*
X549698Y145052D01*
X548673Y145327D01*
X547611D01*
X546586Y145052D01*
X545666Y144521D01*
X544916Y143771D01*
X544385Y142851D01*
X544110Y141826D01*
Y140764D01*
X544385Y139739D01*
X544719Y139161D01*
X542869Y137311D01*
X453016D01*
X452882Y137811D01*
X452927Y137837D01*
X453663Y138573D01*
X454183Y139474D01*
X454453Y140480D01*
Y141520D01*
X454183Y142526D01*
X453663Y143427D01*
X452927Y144163D01*
X452026Y144683D01*
X451020Y144953D01*
X449980D01*
X448974Y144683D01*
X448423Y144365D01*
X442300Y150489D01*
X442507Y150989D01*
X647270D01*
X647619Y151058D01*
X647914Y151256D01*
X649694Y153035D01*
X650279Y152698D01*
X651309Y152421D01*
X652376D01*
X653406Y152698D01*
X654330Y153231D01*
X655084Y153985D01*
X655618Y154909D01*
X655894Y155939D01*
Y157006D01*
X655618Y158036D01*
X655084Y158960D01*
X654330Y159714D01*
X653406Y160248D01*
X652376Y160524D01*
X651309D01*
X650279Y160248D01*
X649355Y159714D01*
X648601Y158960D01*
X648068Y158036D01*
X647791Y157006D01*
Y155939D01*
X648068Y154909D01*
X648405Y154324D01*
X646893Y152811D01*
X636209D01*
Y160524D01*
X628106D01*
Y157384D01*
X627473D01*
X627472Y157384D01*
X627472Y157384D01*
X385432Y157312D01*
X385315Y157751D01*
X384854Y158549D01*
X384823Y158581D01*
X385129Y158981D01*
X385549Y158739D01*
X386439Y158500D01*
X387361D01*
X388251Y158739D01*
X389049Y159199D01*
X389701Y159851D01*
X390161Y160649D01*
X390400Y161539D01*
Y162461D01*
X390161Y163351D01*
X389934Y163745D01*
X438837Y212648D01*
X628208D01*
X628382Y211996D01*
X628916Y211072D01*
X629670Y210317D01*
X630594Y209784D01*
X631624Y209508D01*
X632691D01*
X633721Y209784D01*
X634645Y210317D01*
X635399Y211072D01*
X635933Y211996D01*
X636209Y213026D01*
Y214092D01*
X635933Y215123D01*
X635399Y216047D01*
X634645Y216801D01*
X633721Y217334D01*
X632691Y217610D01*
D02*
G37*
G36*
X154191Y215610D02*
X153124D01*
X152094Y215334D01*
X151170Y214801D01*
X150416Y214047D01*
X149882Y213123D01*
X149606Y212092D01*
Y211026D01*
X149882Y209995D01*
X150416Y209071D01*
X151170Y208317D01*
X152094Y207784D01*
X153124Y207508D01*
X154191D01*
X155221Y207784D01*
X156145Y208317D01*
X156899Y209071D01*
X157432Y209995D01*
X157709Y211026D01*
Y212092D01*
X157432Y213123D01*
X156899Y214047D01*
X156145Y214801D01*
X155221Y215334D01*
X154191Y215610D01*
D02*
G37*
G36*
X343549Y183862D02*
X342664D01*
X341809Y183633D01*
X341042Y183190D01*
X340416Y182564D01*
X339973Y181798D01*
X339744Y180943D01*
Y180057D01*
X339973Y179202D01*
X340416Y178436D01*
X341042Y177810D01*
X341809Y177367D01*
X342664Y177138D01*
X343549D01*
X344404Y177367D01*
X345171Y177810D01*
X345797Y178436D01*
X346239Y179202D01*
X346469Y180057D01*
Y180943D01*
X346239Y181798D01*
X345797Y182564D01*
X345171Y183190D01*
X344404Y183633D01*
X343549Y183862D01*
D02*
G37*
G36*
X327256D02*
X320532D01*
Y177138D01*
X327256D01*
Y183862D01*
D02*
G37*
G36*
X172648Y147027D02*
X170352D01*
X170287Y147014D01*
X170219Y147018D01*
X167944Y146719D01*
X167880Y146697D01*
X167813Y146692D01*
X165596Y146098D01*
X165536Y146069D01*
X165470Y146056D01*
X163350Y145177D01*
X163294Y145140D01*
X163230Y145118D01*
X161243Y143971D01*
X161192Y143927D01*
X161132Y143897D01*
X159311Y142500D01*
X159267Y142449D01*
X159211Y142412D01*
X157588Y140789D01*
X157551Y140733D01*
X157500Y140689D01*
X156103Y138868D01*
X156073Y138808D01*
X156029Y138757D01*
X154882Y136770D01*
X154860Y136706D01*
X154823Y136650D01*
X153944Y134530D01*
X153931Y134464D01*
X153902Y134403D01*
X153308Y132187D01*
X153303Y132120D01*
X153281Y132056D01*
X152982Y129780D01*
X152986Y129713D01*
X152973Y129648D01*
Y127352D01*
X152986Y127287D01*
X152982Y127219D01*
X153281Y124944D01*
X153303Y124880D01*
X153308Y124813D01*
X153902Y122597D01*
X153931Y122536D01*
X153944Y122470D01*
X154823Y120350D01*
X154860Y120294D01*
X154882Y120230D01*
X156029Y118243D01*
X156073Y118192D01*
X156103Y118132D01*
X157500Y116311D01*
X157551Y116267D01*
X157588Y116211D01*
X159211Y114588D01*
X159267Y114551D01*
X159311Y114500D01*
X161132Y113103D01*
X161192Y113074D01*
X161243Y113029D01*
X163230Y111882D01*
X163294Y111860D01*
X163350Y111823D01*
X165470Y110944D01*
X165536Y110931D01*
X165596Y110901D01*
X167813Y110308D01*
X167880Y110303D01*
X167944Y110282D01*
X170219Y109982D01*
X170287Y109986D01*
X170352Y109973D01*
X172648D01*
X172713Y109986D01*
X172781Y109982D01*
X175056Y110282D01*
X175120Y110303D01*
X175187Y110308D01*
X177403Y110901D01*
X177464Y110931D01*
X177530Y110944D01*
X179650Y111823D01*
X179706Y111860D01*
X179770Y111882D01*
X181757Y113029D01*
X181808Y113074D01*
X181868Y113103D01*
X183689Y114500D01*
X183733Y114551D01*
X183789Y114588D01*
X185412Y116211D01*
X185449Y116267D01*
X185500Y116311D01*
X186897Y118132D01*
X186926Y118192D01*
X186971Y118243D01*
X188118Y120230D01*
X188140Y120294D01*
X188177Y120350D01*
X189056Y122470D01*
X189069Y122536D01*
X189099Y122597D01*
X189692Y124813D01*
X189697Y124880D01*
X189718Y124944D01*
X190018Y127219D01*
X190014Y127287D01*
X190027Y127352D01*
Y129648D01*
X190014Y129713D01*
X190018Y129781D01*
X189718Y132056D01*
X189697Y132120D01*
X189692Y132187D01*
X189099Y134403D01*
X189069Y134464D01*
X189056Y134530D01*
X188177Y136650D01*
X188140Y136706D01*
X188118Y136770D01*
X186971Y138757D01*
X186926Y138808D01*
X186897Y138868D01*
X185500Y140689D01*
X185449Y140733D01*
X185412Y140789D01*
X183789Y142412D01*
X183733Y142449D01*
X183689Y142500D01*
X181868Y143897D01*
X181808Y143927D01*
X181757Y143971D01*
X179770Y145118D01*
X179706Y145140D01*
X179650Y145177D01*
X177530Y146056D01*
X177464Y146069D01*
X177403Y146098D01*
X175187Y146692D01*
X175120Y146697D01*
X175056Y146719D01*
X172781Y147018D01*
X172713Y147014D01*
X172648Y147027D01*
D02*
G37*
G36*
X666550Y145052D02*
X664255D01*
X664189Y145039D01*
X664122Y145044D01*
X661847Y144744D01*
X661783Y144722D01*
X661716Y144718D01*
X659499Y144124D01*
X659439Y144094D01*
X659373Y144081D01*
X657253Y143203D01*
X657197Y143166D01*
X657133Y143144D01*
X655145Y141996D01*
X655095Y141952D01*
X655034Y141922D01*
X653214Y140525D01*
X653169Y140475D01*
X653114Y140437D01*
X651491Y138814D01*
X651453Y138759D01*
X651403Y138714D01*
X650006Y136893D01*
X649976Y136833D01*
X649932Y136783D01*
X648784Y134795D01*
X648763Y134731D01*
X648725Y134676D01*
X647847Y132555D01*
X647834Y132489D01*
X647804Y132429D01*
X647210Y130212D01*
X647206Y130145D01*
X647184Y130081D01*
X646884Y127806D01*
X646889Y127739D01*
X646876Y127673D01*
Y125378D01*
X646889Y125312D01*
X646884Y125245D01*
X647184Y122970D01*
X647206Y122906D01*
X647210Y122839D01*
X647804Y120622D01*
X647834Y120562D01*
X647847Y120496D01*
X648725Y118376D01*
X648763Y118320D01*
X648784Y118256D01*
X649932Y116268D01*
X649976Y116218D01*
X650006Y116157D01*
X651403Y114337D01*
X651453Y114292D01*
X651491Y114236D01*
X653114Y112614D01*
X653169Y112576D01*
X653214Y112526D01*
X655034Y111129D01*
X655095Y111099D01*
X655145Y111055D01*
X657133Y109907D01*
X657197Y109886D01*
X657253Y109848D01*
X659373Y108970D01*
X659439Y108957D01*
X659499Y108927D01*
X661716Y108333D01*
X661783Y108329D01*
X661847Y108307D01*
X664122Y108008D01*
X664189Y108012D01*
X664255Y107999D01*
X666550D01*
X666616Y108012D01*
X666683Y108008D01*
X668958Y108307D01*
X669022Y108329D01*
X669089Y108333D01*
X671306Y108927D01*
X671366Y108957D01*
X671432Y108970D01*
X673553Y109848D01*
X673608Y109886D01*
X673672Y109907D01*
X675660Y111055D01*
X675710Y111099D01*
X675771Y111129D01*
X677591Y112526D01*
X677636Y112576D01*
X677692Y112614D01*
X679314Y114236D01*
X679352Y114293D01*
X679402Y114337D01*
X680799Y116157D01*
X680829Y116218D01*
X680873Y116268D01*
X682021Y118256D01*
X682043Y118320D01*
X682080Y118376D01*
X682958Y120496D01*
X682971Y120562D01*
X683001Y120622D01*
X683595Y122839D01*
X683599Y122906D01*
X683621Y122970D01*
X683921Y125245D01*
X683916Y125312D01*
X683929Y125378D01*
Y127673D01*
X683916Y127739D01*
X683921Y127806D01*
X683621Y130081D01*
X683599Y130145D01*
X683595Y130212D01*
X683001Y132429D01*
X682971Y132489D01*
X682958Y132555D01*
X682080Y134676D01*
X682043Y134731D01*
X682021Y134795D01*
X680873Y136783D01*
X680829Y136833D01*
X680799Y136893D01*
X679402Y138714D01*
X679352Y138759D01*
X679314Y138814D01*
X677692Y140437D01*
X677636Y140475D01*
X677591Y140525D01*
X675771Y141922D01*
X675710Y141952D01*
X675660Y141996D01*
X673672Y143144D01*
X673608Y143166D01*
X673553Y143203D01*
X671432Y144081D01*
X671366Y144094D01*
X671306Y144124D01*
X669089Y144718D01*
X669022Y144722D01*
X668958Y144744D01*
X666683Y145044D01*
X666616Y145039D01*
X666550Y145052D01*
D02*
G37*
G36*
X401879Y149657D02*
X400838D01*
X399833Y149388D01*
X398931Y148868D01*
X398195Y148132D01*
X397675Y147231D01*
X397406Y146225D01*
Y145184D01*
X397675Y144179D01*
X398195Y143278D01*
X398931Y142542D01*
X399833Y142021D01*
X400838Y141752D01*
X401879D01*
X402884Y142021D01*
X403785Y142542D01*
X404521Y143278D01*
X405042Y144179D01*
X405311Y145184D01*
Y146225D01*
X405042Y147231D01*
X404521Y148132D01*
X403785Y148868D01*
X402884Y149388D01*
X401879Y149657D01*
D02*
G37*
G36*
X569890Y145327D02*
X561827D01*
Y137264D01*
X569890D01*
Y145327D01*
D02*
G37*
G36*
X241520Y129453D02*
X240480D01*
X239474Y129183D01*
X238573Y128663D01*
X237837Y127927D01*
X237317Y127026D01*
X237047Y126020D01*
Y124980D01*
X237317Y123974D01*
X237837Y123073D01*
X238499Y122411D01*
X238394Y121911D01*
X235877D01*
X234365Y123423D01*
X234683Y123974D01*
X234953Y124980D01*
Y126020D01*
X234683Y127026D01*
X234163Y127927D01*
X233427Y128663D01*
X232526Y129183D01*
X231520Y129453D01*
X230480D01*
X229474Y129183D01*
X228573Y128663D01*
X227837Y127927D01*
X227317Y127026D01*
X227047Y126020D01*
Y124980D01*
X227317Y123974D01*
X227837Y123073D01*
X228573Y122337D01*
X229474Y121817D01*
X230480Y121547D01*
X231520D01*
X232526Y121817D01*
X233077Y122135D01*
X234856Y120356D01*
X235151Y120158D01*
X235500Y120089D01*
X290515D01*
X290581Y119589D01*
X289832Y119388D01*
X288931Y118868D01*
X288195Y118132D01*
X287675Y117230D01*
X287405Y116225D01*
Y115184D01*
X287675Y114179D01*
X288195Y113278D01*
X288862Y112611D01*
X288764Y112111D01*
X245677D01*
X244953Y112836D01*
Y119453D01*
X237047D01*
Y111547D01*
X243664D01*
X244656Y110556D01*
X244951Y110358D01*
X245300Y110289D01*
X316853D01*
X317202Y110358D01*
X317498Y110556D01*
X319282Y112339D01*
X319832Y112021D01*
X320838Y111752D01*
X321879D01*
X322884Y112021D01*
X323785Y112542D01*
X324521Y113278D01*
X325042Y114179D01*
X325311Y115184D01*
Y116225D01*
X325042Y117230D01*
X324521Y118132D01*
X323785Y118868D01*
X322884Y119388D01*
X321879Y119658D01*
X320838D01*
X319832Y119388D01*
X318931Y118868D01*
X318195Y118132D01*
X317675Y117230D01*
X317406Y116225D01*
Y115184D01*
X317675Y114179D01*
X317993Y113628D01*
X316476Y112111D01*
X313953D01*
X313855Y112611D01*
X314521Y113278D01*
X315042Y114179D01*
X315311Y115184D01*
Y116225D01*
X315042Y117230D01*
X314521Y118132D01*
X313785Y118868D01*
X312884Y119388D01*
X311879Y119658D01*
X310838D01*
X309833Y119388D01*
X309282Y119070D01*
X306707Y121644D01*
X306412Y121842D01*
X306063Y121911D01*
X243606D01*
X243501Y122411D01*
X244163Y123073D01*
X244683Y123974D01*
X244848Y124589D01*
X321186D01*
X327993Y117781D01*
X327675Y117230D01*
X327406Y116225D01*
Y115184D01*
X327675Y114179D01*
X328195Y113278D01*
X328931Y112542D01*
X329833Y112021D01*
X330838Y111752D01*
X331879D01*
X332884Y112021D01*
X333785Y112542D01*
X334521Y113278D01*
X335042Y114179D01*
X335311Y115184D01*
Y116225D01*
X335042Y117230D01*
X334521Y118132D01*
X333785Y118868D01*
X332884Y119388D01*
X331879Y119658D01*
X330838D01*
X329833Y119388D01*
X329282Y119070D01*
X322207Y126144D01*
X321912Y126342D01*
X321563Y126411D01*
X244848D01*
X244683Y127026D01*
X244163Y127927D01*
X243427Y128663D01*
X242526Y129183D01*
X241520Y129453D01*
D02*
G37*
G36*
X421879Y119658D02*
X420838D01*
X419833Y119388D01*
X418931Y118868D01*
X418195Y118132D01*
X417675Y117230D01*
X417406Y116225D01*
Y115184D01*
X417675Y114179D01*
X418195Y113278D01*
X418931Y112542D01*
X419157Y112411D01*
X419023Y111911D01*
X413693D01*
X413559Y112411D01*
X413785Y112542D01*
X414521Y113278D01*
X415042Y114179D01*
X415311Y115184D01*
Y116225D01*
X415042Y117230D01*
X414521Y118132D01*
X413785Y118868D01*
X412884Y119388D01*
X411879Y119658D01*
X410838D01*
X409832Y119388D01*
X408931Y118868D01*
X408195Y118132D01*
X407675Y117230D01*
X407406Y116225D01*
Y115184D01*
X407675Y114179D01*
X408195Y113278D01*
X408931Y112542D01*
X409157Y112411D01*
X409023Y111911D01*
X403693D01*
X403559Y112411D01*
X403785Y112542D01*
X404521Y113278D01*
X405042Y114179D01*
X405311Y115184D01*
Y116225D01*
X405042Y117230D01*
X404521Y118132D01*
X403785Y118868D01*
X402884Y119388D01*
X401879Y119658D01*
X400838D01*
X399833Y119388D01*
X398931Y118868D01*
X398195Y118132D01*
X397675Y117230D01*
X397406Y116225D01*
Y115184D01*
X397675Y114179D01*
X398195Y113278D01*
X398931Y112542D01*
X399157Y112411D01*
X399023Y111911D01*
X393693D01*
X393559Y112411D01*
X393785Y112542D01*
X394521Y113278D01*
X395042Y114179D01*
X395311Y115184D01*
Y116225D01*
X395042Y117230D01*
X394521Y118132D01*
X393785Y118868D01*
X392884Y119388D01*
X391879Y119658D01*
X390838D01*
X389832Y119388D01*
X388931Y118868D01*
X388195Y118132D01*
X387675Y117230D01*
X387405Y116225D01*
Y115184D01*
X387675Y114179D01*
X388195Y113278D01*
X388931Y112542D01*
X389157Y112411D01*
X389023Y111911D01*
X383693D01*
X383559Y112411D01*
X383785Y112542D01*
X384521Y113278D01*
X385042Y114179D01*
X385311Y115184D01*
Y116225D01*
X385042Y117230D01*
X384521Y118132D01*
X383785Y118868D01*
X382884Y119388D01*
X381879Y119658D01*
X380838D01*
X379833Y119388D01*
X378931Y118868D01*
X378195Y118132D01*
X377675Y117230D01*
X377406Y116225D01*
Y115184D01*
X377675Y114179D01*
X378195Y113278D01*
X378931Y112542D01*
X379157Y112411D01*
X379023Y111911D01*
X373693D01*
X373559Y112411D01*
X373785Y112542D01*
X374521Y113278D01*
X375042Y114179D01*
X375311Y115184D01*
Y116225D01*
X375042Y117230D01*
X374521Y118132D01*
X373785Y118868D01*
X372884Y119388D01*
X371879Y119658D01*
X370838D01*
X369832Y119388D01*
X368931Y118868D01*
X368195Y118132D01*
X367675Y117230D01*
X367406Y116225D01*
Y115184D01*
X367675Y114179D01*
X368195Y113278D01*
X368931Y112542D01*
X369157Y112411D01*
X369023Y111911D01*
X353693D01*
X353559Y112411D01*
X353785Y112542D01*
X354521Y113278D01*
X355042Y114179D01*
X355311Y115184D01*
Y116225D01*
X355042Y117230D01*
X354521Y118132D01*
X353785Y118868D01*
X352884Y119388D01*
X351879Y119658D01*
X350838D01*
X349833Y119388D01*
X348931Y118868D01*
X348195Y118132D01*
X347675Y117230D01*
X347510Y116616D01*
X345206D01*
X345042Y117230D01*
X344521Y118132D01*
X343785Y118868D01*
X342884Y119388D01*
X341879Y119658D01*
X340838D01*
X339832Y119388D01*
X338931Y118868D01*
X338195Y118132D01*
X337675Y117230D01*
X337405Y116225D01*
Y115184D01*
X337675Y114179D01*
X337993Y113628D01*
X333176Y108811D01*
X238977D01*
X234365Y113423D01*
X234683Y113974D01*
X234953Y114980D01*
Y116020D01*
X234683Y117026D01*
X234163Y117927D01*
X233427Y118663D01*
X232526Y119183D01*
X231520Y119453D01*
X230480D01*
X229474Y119183D01*
X228573Y118663D01*
X227837Y117927D01*
X227317Y117026D01*
X227047Y116020D01*
Y114980D01*
X227317Y113974D01*
X227837Y113073D01*
X228573Y112337D01*
X229474Y111817D01*
X230480Y111547D01*
X231520D01*
X232526Y111817D01*
X233077Y112135D01*
X237956Y107256D01*
X238251Y107058D01*
X238600Y106989D01*
X333553D01*
X333902Y107058D01*
X334198Y107256D01*
X339282Y112339D01*
X339832Y112021D01*
X340838Y111752D01*
X341879D01*
X342884Y112021D01*
X343435Y112339D01*
X345419Y110356D01*
X345714Y110158D01*
X346063Y110089D01*
X446547D01*
Y107047D01*
X454453D01*
Y114953D01*
X446547D01*
Y111911D01*
X423693D01*
X423559Y112411D01*
X423785Y112542D01*
X424521Y113278D01*
X425042Y114179D01*
X425311Y115184D01*
Y116225D01*
X425042Y117230D01*
X424521Y118132D01*
X423785Y118868D01*
X422884Y119388D01*
X421879Y119658D01*
D02*
G37*
G36*
X548673Y119736D02*
X547611D01*
X546586Y119461D01*
X545666Y118931D01*
X544916Y118180D01*
X544385Y117261D01*
X544110Y116235D01*
Y115174D01*
X544385Y114148D01*
X544916Y113229D01*
X545666Y112479D01*
X546586Y111948D01*
X547611Y111673D01*
X548673D01*
X549698Y111948D01*
X550617Y112479D01*
X551368Y113229D01*
X551898Y114148D01*
X552173Y115174D01*
Y116235D01*
X551898Y117261D01*
X551368Y118180D01*
X550617Y118931D01*
X549698Y119461D01*
X548673Y119736D01*
D02*
G37*
%LPD*%
D10*
X153657Y154472D02*
X159130Y149000D01*
X149100Y141586D02*
Y158000D01*
Y141586D02*
X149686Y141000D01*
X157977D01*
X179421Y146601D02*
X185023Y141000D01*
X178698Y146901D02*
X178998Y146601D01*
X225500Y141000D02*
X231000Y135500D01*
X160959Y143982D02*
X161382D01*
X178998Y146601D02*
X179421D01*
X164302Y146901D02*
X178698D01*
X313185Y142092D02*
X314014D01*
X289765Y149551D02*
X302952D01*
X314014Y142092D02*
X316853Y139252D01*
X307745Y147532D02*
Y148360D01*
X307512Y147298D02*
X307745Y147532D01*
X302952Y149551D02*
X303503Y149000D01*
X159130D02*
X289214D01*
X289765Y149551D01*
X307512Y144112D02*
X309765Y141858D01*
X307105Y149000D02*
X307745Y148360D01*
X312951Y141858D02*
X313185Y142092D01*
X303503Y149000D02*
X307105D01*
X309765Y141858D02*
X312951D01*
X307512Y144112D02*
Y147298D01*
X357200Y473000D02*
X359100Y474900D01*
X356200Y472000D02*
X357200Y473000D01*
X374471Y462305D02*
X383920D01*
X418500Y474600D02*
X433800D01*
X402800Y458900D02*
X418500Y474600D01*
X149100Y158000D02*
X150500Y159400D01*
X158572D01*
X163500Y154472D01*
X255000Y473000D02*
X357200D01*
X398000Y474900D02*
X400768Y472132D01*
Y466000D02*
Y472132D01*
X398728Y463960D02*
X400768Y466000D01*
X390453Y463960D02*
X398728D01*
X296400Y290700D02*
X429800D01*
X472199Y333099D01*
X473201D01*
X173342Y154472D02*
X312228D01*
X316900Y149800D01*
Y143300D02*
Y149800D01*
Y143300D02*
X318948Y141252D01*
X376905D01*
X381358Y145705D01*
X321358D02*
X327553Y151900D01*
X647270D01*
X651843Y156473D01*
X411358Y145705D02*
X415811Y150158D01*
X441342D01*
X450500Y141000D01*
X251500Y327000D02*
X367000D01*
X147000Y472500D02*
X167700Y451800D01*
X405200D01*
X422900Y469500D01*
X555000D01*
X373776Y463000D02*
Y464890D01*
Y463000D02*
X374471Y462305D01*
X430468Y490700D02*
X596900D01*
X383224Y463000D02*
Y464890D01*
Y463000D02*
X383920Y462305D01*
X402073D01*
X430468Y490700D01*
X443200Y417500D02*
X458000D01*
X416700Y444000D02*
X443200Y417500D01*
X390400Y340400D02*
Y444400D01*
X382000Y332000D02*
X390400Y340400D01*
X398000Y333100D02*
Y444200D01*
X393000Y328100D02*
X398000Y333100D01*
X375900Y328100D02*
X393000D01*
X372000Y332000D02*
X375900Y328100D01*
X426382Y455000D02*
X513700D01*
X575600Y393100D01*
X231000Y115500D02*
X238600Y107900D01*
X333553D01*
X341358Y115705D01*
X351358D01*
X341358D02*
X346063Y111000D01*
X450500D01*
X231000Y135500D02*
X236000Y130500D01*
X346563D01*
X361358Y115705D01*
X366653Y121000D01*
X450500D01*
X141059Y184000D02*
X185941D01*
X450500Y121000D02*
X463600Y107900D01*
X558054D01*
X565858Y115705D01*
X619559Y186000D02*
X664441D01*
X367476Y464890D02*
X367666Y464700D01*
X370436D01*
X370626Y464890D01*
X366487Y463900D02*
X367476Y464890D01*
X358300Y463900D02*
X366487D01*
X356200Y466000D02*
X358300Y463900D01*
X356200Y466000D02*
Y472000D01*
X359100Y474900D02*
X398000D01*
X389524Y464890D02*
X390453Y463960D01*
X389334Y464700D02*
X389524Y464890D01*
X386564Y464700D02*
X389334D01*
X386374Y464890D02*
X386564Y464700D01*
X502882Y231982D02*
X588000Y317100D01*
X386900Y162000D02*
X438459Y213559D01*
X632158D01*
X316853Y139252D02*
X384905D01*
X391358Y145705D01*
X241000Y115500D02*
X245300Y111200D01*
X316853D01*
X321358Y115705D01*
X231000Y125500D02*
X235500Y121000D01*
X306063D01*
X311358Y115705D01*
X382053Y156400D02*
X627473Y156473D01*
X632158D01*
X241000Y135500D02*
X411153D01*
X421358Y145705D01*
X430663Y136400D01*
X543247D01*
X548142Y141295D01*
X241000Y125500D02*
X321563D01*
X331358Y115705D01*
X367000Y327000D02*
X372000Y332000D01*
X241000Y323800D02*
X256700Y339500D01*
X374500D01*
X382000Y332000D01*
X401358Y131000D02*
X450500D01*
D31*
X352000Y332000D02*
D03*
D55*
X548142Y115705D02*
D03*
Y141295D02*
D03*
X565858Y115705D02*
D03*
D56*
Y141295D02*
D03*
D58*
X185941Y184000D02*
D03*
X141059D02*
D03*
X664441Y186000D02*
D03*
X619559D02*
D03*
D59*
X163500Y154472D02*
D03*
X173342D02*
D03*
Y211559D02*
D03*
X153657D02*
D03*
X642000Y156473D02*
D03*
X651843D02*
D03*
Y213559D02*
D03*
X632158D02*
D03*
D60*
X153657Y154472D02*
D03*
X632158Y156473D02*
D03*
D64*
X382000Y332000D02*
D03*
X372000D02*
D03*
X362000D02*
D03*
X458000Y427500D02*
D03*
X231000Y115500D02*
D03*
X241000Y125500D02*
D03*
X231000D02*
D03*
X241000Y135500D02*
D03*
X231000D02*
D03*
X291358Y115705D02*
D03*
X301358D02*
D03*
X311358D02*
D03*
X321358D02*
D03*
X331358D02*
D03*
X341358D02*
D03*
X351358D02*
D03*
X361358D02*
D03*
X371358D02*
D03*
X381358D02*
D03*
X391358D02*
D03*
X401358D02*
D03*
X411358D02*
D03*
X421358D02*
D03*
X291358Y145705D02*
D03*
X301358D02*
D03*
X311358D02*
D03*
X321358D02*
D03*
X331358D02*
D03*
X341358D02*
D03*
X351358D02*
D03*
X361358D02*
D03*
X371358D02*
D03*
X381358D02*
D03*
X391358D02*
D03*
X401358D02*
D03*
X411358D02*
D03*
X450500Y141000D02*
D03*
Y131000D02*
D03*
Y121000D02*
D03*
D65*
X367476Y464890D02*
D03*
X369051Y467646D02*
D03*
X372201D02*
D03*
X373776Y464890D02*
D03*
X375350Y467646D02*
D03*
X376925Y464890D02*
D03*
X380075D02*
D03*
X381650Y467646D02*
D03*
X383224Y464890D02*
D03*
X384799Y467646D02*
D03*
X387949D02*
D03*
X389524Y464890D02*
D03*
X386374D02*
D03*
X370626D02*
D03*
D66*
X395311Y469417D02*
D03*
X361689D02*
D03*
X395311Y488039D02*
D03*
X361689D02*
D03*
D67*
X458000Y417500D02*
D03*
X241000Y115500D02*
D03*
X421358Y145705D02*
D03*
X450500Y111000D02*
D03*
D68*
X648500Y468000D02*
D03*
X255000Y473000D02*
D03*
X147000Y472500D02*
D03*
X555000Y469500D02*
D03*
D69*
X323894Y180500D02*
D03*
D70*
X343106D02*
D03*
D71*
X473201Y333099D02*
D03*
X433800Y474600D02*
D03*
X402800Y458900D02*
D03*
X296400Y290700D02*
D03*
X596900Y490700D02*
D03*
X416700Y444000D02*
D03*
X390400Y444400D02*
D03*
X398000Y444200D02*
D03*
X426382Y455000D02*
D03*
X575600Y393100D02*
D03*
X588000Y317100D02*
D03*
X502882Y231982D02*
D03*
X386900Y162000D02*
D03*
X382053Y156400D02*
D03*
X251500Y327000D02*
D03*
X241000Y323800D02*
D03*
X401358Y131000D02*
D03*
M02*
