M48
;Layer_Color=9474304
;FILE_FORMAT=2:5
INCH,TZ
;TYPE=PLATED
T1F00S00C0.01575
T2F00S00C0.02756
T3F00S00C0.02800
T4F00S00C0.03543
T5F00S00C0.03898
T6F00S00C0.03937
T7F00S00C0.05276
T9F00S00C0.19685
%
T01
X367476Y464890
X370626
X373776
X376925
X380075
X383224
X386374
X389524
X387949Y467646
X384799
X381650
X375350
X372201
X369051
T02
X323894Y180500
X343106
T03
X401358Y131000
X502882Y231982
X386900Y162000
X382053Y156400
X296400Y290700
X251500Y327000
X241000Y323800
X390400Y444400
X398000Y444200
X416700Y444000
X426382Y455000
X402800Y458900
X473201Y333099
X588000Y317100
X575600Y393100
X596900Y490700
X433800Y474600
T04
X231000Y115500
X241000
Y125500
X231000
Y135500
X241000
X291358Y145705
X301358
X311358
Y115705
X301358
X291358
X321358
X331358
X341358
X351358
X361358
X371358
X381358
X391358
X401358
X411358
X421358
Y145705
X411358
X401358
X391358
X381358
X371358
X361358
X351358
X341358
X331358
X321358
X450500Y141000
Y131000
Y121000
Y111000
X382000Y332000
X372000
X362000
X352000
X458000Y417500
Y427500
T05
X548142Y115705
X565858
Y141295
X548142
T06
X153657Y154472
X163500
X173342
X632158Y156473
X642000
X651843
Y213559
X632158
X173342Y211559
X153657
T07
X361689Y469417
Y488039
X395311
Y469417
T09
X648500Y468000
X555000Y469500
X255000Y473000
X147000Y472500
M30
