G04*
G04 #@! TF.GenerationSoftware,Altium Limited,Altium Designer,22.11.1 (43)*
G04*
G04 Layer_Color=16711935*
%FSLAX25Y25*%
%MOIN*%
G70*
G04*
G04 #@! TF.SameCoordinates,C3DCF227-2B7A-40B4-8179-D348CCFE8E73*
G04*
G04*
G04 #@! TF.FilePolarity,Positive*
G04*
G01*
G75*
%ADD14C,0.00787*%
%ADD15C,0.00394*%
%ADD72C,0.00394*%
D14*
X361295Y460638D02*
X395705D01*
X361295D02*
Y505362D01*
X395705D01*
Y460638D02*
Y505362D01*
X581027Y398803D02*
X596972D01*
X581027Y377346D02*
Y398803D01*
Y377346D02*
X596972D01*
Y398803D01*
X557587Y212500D02*
Y238500D01*
X533587Y212500D02*
X557587D01*
X533587D02*
Y238500D01*
X557587D01*
D15*
X424272Y141335D02*
G03*
X424272Y141335I-1969J0D01*
G01*
X314406Y189654D02*
G03*
X311158Y186406I0J-3248D01*
G01*
X311158Y174595D02*
G03*
X314406Y171347I3248J0D01*
G01*
X352595D02*
G03*
X355843Y174595I0J3248D01*
G01*
X355843Y186406D02*
G03*
X352595Y189654I-3248J0D01*
G01*
X315489Y187784D02*
G03*
X313717Y186012I0J-1772D01*
G01*
Y174988D02*
G03*
X315489Y173217I1772J0D01*
G01*
X351512D02*
G03*
X353284Y174988I0J1772D01*
G01*
Y186012D02*
G03*
X351512Y187784I-1772J0D01*
G01*
X504795Y115110D02*
Y128890D01*
X479205Y115110D02*
X504795D01*
X479205D02*
Y128890D01*
X504795D01*
X495740D02*
X504795Y119835D01*
X435307Y186457D02*
Y193543D01*
X448693Y186457D02*
Y193543D01*
X435307D02*
X448693D01*
X435307Y186457D02*
X448693D01*
X514693Y174457D02*
Y181543D01*
X501307Y174457D02*
Y181543D01*
Y174457D02*
X514693D01*
X501307Y181543D02*
X514693D01*
X286870Y116531D02*
Y144878D01*
X425846Y116531D02*
Y144878D01*
X286870Y116531D02*
X425846D01*
X286870Y144878D02*
X425846D01*
X477323Y280354D02*
X492677D01*
X477323D02*
Y299646D01*
X492677D01*
Y280354D02*
Y299646D01*
X487677Y280354D02*
X492677Y285354D01*
X489193Y386457D02*
Y393543D01*
X475807Y386457D02*
Y393543D01*
Y386457D02*
X489193D01*
X475807Y393543D02*
X489193D01*
X553945Y286520D02*
X622055D01*
Y351480D01*
X553945D02*
X622055D01*
X553945Y286520D02*
Y351480D01*
X431303Y436595D02*
Y446437D01*
X421461Y436595D02*
X431303D01*
X421461D02*
Y446437D01*
X431303D01*
X429335D02*
X431303Y444469D01*
X211354Y331323D02*
Y346677D01*
X230646D01*
Y331323D02*
Y346677D01*
X211354Y331323D02*
X230646D01*
X211354Y336323D02*
X216354Y331323D01*
X314406Y171347D02*
X352595D01*
X314406Y189654D02*
X352595D01*
X315488Y173217D02*
X351512D01*
X315488Y187784D02*
X351512D01*
X353284Y174988D02*
Y186012D01*
X355843Y174595D02*
Y186406D01*
X313717Y174988D02*
Y186012D01*
X311158Y174595D02*
Y186406D01*
X160354Y331323D02*
Y346677D01*
X179646D01*
Y331323D02*
Y346677D01*
X160354Y331323D02*
X179646D01*
X160354Y336323D02*
X165354Y331323D01*
D72*
X311158Y174595D02*
D03*
M02*
