G04*
G04 #@! TF.GenerationSoftware,Altium Limited,Altium Designer,22.11.1 (43)*
G04*
G04 Layer_Color=255*
%FSLAX25Y25*%
%MOIN*%
G70*
G04*
G04 #@! TF.SameCoordinates,C3DCF227-2B7A-40B4-8179-D348CCFE8E73*
G04*
G04*
G04 #@! TF.FilePolarity,Positive*
G04*
G01*
G75*
%ADD18R,0.03740X0.04921*%
%ADD19R,0.12598X0.04921*%
%ADD20R,0.01181X0.04724*%
%ADD21R,0.00787X0.03937*%
%ADD22R,0.03937X0.05906*%
%ADD23R,0.04331X0.06693*%
%ADD24R,0.05472X0.05512*%
%ADD25R,0.13228X0.19134*%
%ADD26R,0.06004X0.02559*%
%ADD27R,0.17323X0.17717*%
%ADD28R,0.16929X0.16929*%
%ADD29R,0.01181X0.02756*%
%ADD30R,0.02756X0.01181*%
%ADD31R,0.05906X0.05906*%
%ADD32R,0.11811X0.05906*%
%ADD33R,0.26772X0.24606*%
%ADD34R,0.02559X0.06004*%
%ADD55C,0.06063*%
%ADD56R,0.06063X0.06063*%
G04:AMPARAMS|DCode=58|XSize=94.49mil|YSize=196.85mil|CornerRadius=47.24mil|HoleSize=0mil|Usage=FLASHONLY|Rotation=0.000|XOffset=0mil|YOffset=0mil|HoleType=Round|Shape=RoundedRectangle|*
%AMROUNDEDRECTD58*
21,1,0.09449,0.10236,0,0,0.0*
21,1,0.00000,0.19685,0,0,0.0*
1,1,0.09449,0.00000,-0.05118*
1,1,0.09449,0.00000,-0.05118*
1,1,0.09449,0.00000,0.05118*
1,1,0.09449,0.00000,0.05118*
%
%ADD58ROUNDEDRECTD58*%
%ADD59C,0.06102*%
%ADD60R,0.06102X0.06102*%
%ADD64C,0.05906*%
%ADD65C,0.02756*%
%ADD66C,0.07913*%
%ADD67R,0.05906X0.05906*%
%ADD68R,0.39370X0.39370*%
%ADD69R,0.04724X0.04724*%
%ADD70C,0.04724*%
D18*
X501055Y135386D02*
D03*
X492000D02*
D03*
X482945D02*
D03*
D19*
X492000Y108614D02*
D03*
D20*
X389327Y459968D02*
D03*
X387358D02*
D03*
X385390D02*
D03*
X383421D02*
D03*
X381453D02*
D03*
X379484D02*
D03*
X377516D02*
D03*
X375547D02*
D03*
X373579D02*
D03*
X371610D02*
D03*
X369642D02*
D03*
X367673D02*
D03*
D21*
X378500Y478000D02*
D03*
Y490205D02*
D03*
D22*
X435098Y413000D02*
D03*
X422500D02*
D03*
X401299Y213000D02*
D03*
X388701D02*
D03*
X479098Y166500D02*
D03*
X466500D02*
D03*
X161500Y371000D02*
D03*
X174098D02*
D03*
X515701Y148500D02*
D03*
X528299D02*
D03*
X433799Y350000D02*
D03*
X421201D02*
D03*
X484799Y349000D02*
D03*
X472201D02*
D03*
X533299D02*
D03*
X520701D02*
D03*
X432799Y326500D02*
D03*
X420201D02*
D03*
X485799Y325000D02*
D03*
X473201D02*
D03*
X531799Y324000D02*
D03*
X519201D02*
D03*
X213701Y373500D02*
D03*
X226299D02*
D03*
D23*
X436882Y190000D02*
D03*
X447118D02*
D03*
X513118Y178000D02*
D03*
X502882D02*
D03*
X487618Y390000D02*
D03*
X477382D02*
D03*
D24*
X585378Y400177D02*
D03*
X592622D02*
D03*
D25*
X589000Y384500D02*
D03*
D26*
X495677Y282500D02*
D03*
Y287500D02*
D03*
Y292500D02*
D03*
Y297500D02*
D03*
X474323D02*
D03*
Y292500D02*
D03*
Y287500D02*
D03*
Y282500D02*
D03*
D27*
X567134Y292032D02*
D03*
X608866D02*
D03*
D28*
X588000Y346362D02*
D03*
D29*
X428350Y446634D02*
D03*
X426382D02*
D03*
X424413D02*
D03*
Y436398D02*
D03*
X426382D02*
D03*
X428350D02*
D03*
D30*
X421264Y444469D02*
D03*
Y442500D02*
D03*
Y440532D02*
D03*
Y438563D02*
D03*
X431500D02*
D03*
Y440532D02*
D03*
Y442500D02*
D03*
Y444469D02*
D03*
D31*
X426382Y441516D02*
D03*
X352000Y332000D02*
D03*
D32*
X524516Y234500D02*
D03*
Y216500D02*
D03*
D33*
X550500Y225500D02*
D03*
D34*
X213500Y328323D02*
D03*
X218500D02*
D03*
X223500D02*
D03*
X228500D02*
D03*
Y349677D02*
D03*
X223500D02*
D03*
X218500D02*
D03*
X213500D02*
D03*
X162500Y328323D02*
D03*
X167500D02*
D03*
X172500D02*
D03*
X177500D02*
D03*
Y349677D02*
D03*
X172500D02*
D03*
X167500D02*
D03*
X162500D02*
D03*
D55*
X548142Y115705D02*
D03*
Y141295D02*
D03*
X565858Y115705D02*
D03*
D56*
Y141295D02*
D03*
D58*
X185941Y184000D02*
D03*
X141059D02*
D03*
X664441Y186000D02*
D03*
X619559D02*
D03*
D59*
X163500Y154472D02*
D03*
X173342D02*
D03*
Y211559D02*
D03*
X153657D02*
D03*
X642000Y156473D02*
D03*
X651843D02*
D03*
Y213559D02*
D03*
X632158D02*
D03*
D60*
X153657Y154472D02*
D03*
X632158Y156473D02*
D03*
D64*
X382000Y332000D02*
D03*
X372000D02*
D03*
X362000D02*
D03*
X458000Y427500D02*
D03*
X231000Y115500D02*
D03*
X241000Y125500D02*
D03*
X231000D02*
D03*
X241000Y135500D02*
D03*
X231000D02*
D03*
X291358Y115705D02*
D03*
X301358D02*
D03*
X311358D02*
D03*
X321358D02*
D03*
X331358D02*
D03*
X341358D02*
D03*
X351358D02*
D03*
X361358D02*
D03*
X371358D02*
D03*
X381358D02*
D03*
X391358D02*
D03*
X401358D02*
D03*
X411358D02*
D03*
X421358D02*
D03*
X291358Y145705D02*
D03*
X301358D02*
D03*
X311358D02*
D03*
X321358D02*
D03*
X331358D02*
D03*
X341358D02*
D03*
X351358D02*
D03*
X361358D02*
D03*
X371358D02*
D03*
X381358D02*
D03*
X391358D02*
D03*
X401358D02*
D03*
X411358D02*
D03*
X450500Y141000D02*
D03*
Y131000D02*
D03*
Y121000D02*
D03*
D65*
X367476Y464890D02*
D03*
X369051Y467646D02*
D03*
X372201D02*
D03*
X373776Y464890D02*
D03*
X375350Y467646D02*
D03*
X376925Y464890D02*
D03*
X380075D02*
D03*
X381650Y467646D02*
D03*
X383224Y464890D02*
D03*
X384799Y467646D02*
D03*
X387949D02*
D03*
X389524Y464890D02*
D03*
X386374D02*
D03*
X370626D02*
D03*
D66*
X395311Y469417D02*
D03*
X361689D02*
D03*
X395311Y488039D02*
D03*
X361689D02*
D03*
D67*
X458000Y417500D02*
D03*
X241000Y115500D02*
D03*
X421358Y145705D02*
D03*
X450500Y111000D02*
D03*
D68*
X648500Y468000D02*
D03*
X255000Y473000D02*
D03*
X147000Y472500D02*
D03*
X555000Y469500D02*
D03*
D69*
X323894Y180500D02*
D03*
D70*
X343106D02*
D03*
M02*
