G04*
G04 #@! TF.GenerationSoftware,Altium Limited,Altium Designer,22.11.1 (43)*
G04*
G04 Layer_Color=8421504*
%FSLAX25Y25*%
%MOIN*%
G70*
G04*
G04 #@! TF.SameCoordinates,C3DCF227-2B7A-40B4-8179-D348CCFE8E73*
G04*
G04*
G04 #@! TF.FilePolarity,Positive*
G04*
G01*
G75*
%ADD18R,0.03740X0.04921*%
%ADD19R,0.12598X0.04921*%
%ADD20R,0.01181X0.04724*%
%ADD21R,0.00787X0.03937*%
%ADD22R,0.03937X0.05906*%
%ADD23R,0.04331X0.06693*%
%ADD24R,0.05472X0.05512*%
%ADD25R,0.13228X0.19134*%
%ADD26R,0.06004X0.02559*%
%ADD27R,0.17323X0.17717*%
%ADD28R,0.16929X0.16929*%
%ADD29R,0.01181X0.02756*%
%ADD30R,0.02756X0.01181*%
%ADD31R,0.05906X0.05906*%
%ADD32R,0.11811X0.05906*%
%ADD33R,0.26772X0.24606*%
%ADD34R,0.02559X0.06004*%
D18*
X501055Y135386D02*
D03*
X492000D02*
D03*
X482945D02*
D03*
D19*
X492000Y108614D02*
D03*
D20*
X389327Y459968D02*
D03*
X387358D02*
D03*
X385390D02*
D03*
X383421D02*
D03*
X381453D02*
D03*
X379484D02*
D03*
X377516D02*
D03*
X375547D02*
D03*
X373579D02*
D03*
X371610D02*
D03*
X369642D02*
D03*
X367673D02*
D03*
D21*
X378500Y478000D02*
D03*
Y490205D02*
D03*
D22*
X435098Y413000D02*
D03*
X422500D02*
D03*
X401299Y213000D02*
D03*
X388701D02*
D03*
X479098Y166500D02*
D03*
X466500D02*
D03*
X161500Y371000D02*
D03*
X174098D02*
D03*
X515701Y148500D02*
D03*
X528299D02*
D03*
X433799Y350000D02*
D03*
X421201D02*
D03*
X484799Y349000D02*
D03*
X472201D02*
D03*
X533299D02*
D03*
X520701D02*
D03*
X432799Y326500D02*
D03*
X420201D02*
D03*
X485799Y325000D02*
D03*
X473201D02*
D03*
X531799Y324000D02*
D03*
X519201D02*
D03*
X213701Y373500D02*
D03*
X226299D02*
D03*
D23*
X436882Y190000D02*
D03*
X447118D02*
D03*
X513118Y178000D02*
D03*
X502882D02*
D03*
X487618Y390000D02*
D03*
X477382D02*
D03*
D24*
X585378Y400177D02*
D03*
X592622D02*
D03*
D25*
X589000Y384500D02*
D03*
D26*
X495677Y282500D02*
D03*
Y287500D02*
D03*
Y292500D02*
D03*
Y297500D02*
D03*
X474323D02*
D03*
Y292500D02*
D03*
Y287500D02*
D03*
Y282500D02*
D03*
D27*
X567134Y292032D02*
D03*
X608866D02*
D03*
D28*
X588000Y346362D02*
D03*
D29*
X428350Y446634D02*
D03*
X426382D02*
D03*
X424413D02*
D03*
Y436398D02*
D03*
X426382D02*
D03*
X428350D02*
D03*
D30*
X421264Y444469D02*
D03*
Y442500D02*
D03*
Y440532D02*
D03*
Y438563D02*
D03*
X431500D02*
D03*
Y440532D02*
D03*
Y442500D02*
D03*
Y444469D02*
D03*
D31*
X426382Y441516D02*
D03*
D32*
X524516Y234500D02*
D03*
Y216500D02*
D03*
D33*
X550500Y225500D02*
D03*
D34*
X213500Y328323D02*
D03*
X218500D02*
D03*
X223500D02*
D03*
X228500D02*
D03*
Y349677D02*
D03*
X223500D02*
D03*
X218500D02*
D03*
X213500D02*
D03*
X162500Y328323D02*
D03*
X167500D02*
D03*
X172500D02*
D03*
X177500D02*
D03*
Y349677D02*
D03*
X172500D02*
D03*
X167500D02*
D03*
X162500D02*
D03*
M02*
