G04*
G04 #@! TF.GenerationSoftware,Altium Limited,Altium Designer,22.11.1 (43)*
G04*
G04 Layer_Color=255*
%FSLAX25Y25*%
%MOIN*%
G70*
G04*
G04 #@! TF.SameCoordinates,C3DCF227-2B7A-40B4-8179-D348CCFE8E73*
G04*
G04*
G04 #@! TF.FilePolarity,Positive*
G04*
G01*
G75*
%ADD31R,0.05906X0.05906*%
%ADD55C,0.06063*%
%ADD56R,0.06063X0.06063*%
G04:AMPARAMS|DCode=58|XSize=94.49mil|YSize=196.85mil|CornerRadius=47.24mil|HoleSize=0mil|Usage=FLASHONLY|Rotation=0.000|XOffset=0mil|YOffset=0mil|HoleType=Round|Shape=RoundedRectangle|*
%AMROUNDEDRECTD58*
21,1,0.09449,0.10236,0,0,0.0*
21,1,0.00000,0.19685,0,0,0.0*
1,1,0.09449,0.00000,-0.05118*
1,1,0.09449,0.00000,-0.05118*
1,1,0.09449,0.00000,0.05118*
1,1,0.09449,0.00000,0.05118*
%
%ADD58ROUNDEDRECTD58*%
%ADD59C,0.06102*%
%ADD60R,0.06102X0.06102*%
%ADD64C,0.05906*%
%ADD65C,0.02756*%
%ADD66C,0.07913*%
%ADD67R,0.05906X0.05906*%
%ADD68R,0.39370X0.39370*%
%ADD69R,0.04724X0.04724*%
%ADD70C,0.04724*%
D31*
X352000Y332000D02*
D03*
D55*
X548142Y115705D02*
D03*
Y141295D02*
D03*
X565858Y115705D02*
D03*
D56*
Y141295D02*
D03*
D58*
X185941Y184000D02*
D03*
X141059D02*
D03*
X664441Y186000D02*
D03*
X619559D02*
D03*
D59*
X163500Y154472D02*
D03*
X173342D02*
D03*
Y211559D02*
D03*
X153657D02*
D03*
X642000Y156473D02*
D03*
X651843D02*
D03*
Y213559D02*
D03*
X632158D02*
D03*
D60*
X153657Y154472D02*
D03*
X632158Y156473D02*
D03*
D64*
X382000Y332000D02*
D03*
X372000D02*
D03*
X362000D02*
D03*
X458000Y427500D02*
D03*
X231000Y115500D02*
D03*
X241000Y125500D02*
D03*
X231000D02*
D03*
X241000Y135500D02*
D03*
X231000D02*
D03*
X291358Y115705D02*
D03*
X301358D02*
D03*
X311358D02*
D03*
X321358D02*
D03*
X331358D02*
D03*
X341358D02*
D03*
X351358D02*
D03*
X361358D02*
D03*
X371358D02*
D03*
X381358D02*
D03*
X391358D02*
D03*
X401358D02*
D03*
X411358D02*
D03*
X421358D02*
D03*
X291358Y145705D02*
D03*
X301358D02*
D03*
X311358D02*
D03*
X321358D02*
D03*
X331358D02*
D03*
X341358D02*
D03*
X351358D02*
D03*
X361358D02*
D03*
X371358D02*
D03*
X381358D02*
D03*
X391358D02*
D03*
X401358D02*
D03*
X411358D02*
D03*
X450500Y141000D02*
D03*
Y131000D02*
D03*
Y121000D02*
D03*
D65*
X367476Y464890D02*
D03*
X369051Y467646D02*
D03*
X372201D02*
D03*
X373776Y464890D02*
D03*
X375350Y467646D02*
D03*
X376925Y464890D02*
D03*
X380075D02*
D03*
X381650Y467646D02*
D03*
X383224Y464890D02*
D03*
X384799Y467646D02*
D03*
X387949D02*
D03*
X389524Y464890D02*
D03*
X386374D02*
D03*
X370626D02*
D03*
D66*
X395311Y469417D02*
D03*
X361689D02*
D03*
X395311Y488039D02*
D03*
X361689D02*
D03*
D67*
X458000Y417500D02*
D03*
X241000Y115500D02*
D03*
X421358Y145705D02*
D03*
X450500Y111000D02*
D03*
D68*
X648500Y468000D02*
D03*
X255000Y473000D02*
D03*
X147000Y472500D02*
D03*
X555000Y469500D02*
D03*
D69*
X323894Y180500D02*
D03*
D70*
X343106D02*
D03*
M02*
