  0
SECTION
  2
HEADER
  9
$ACADVER
  1
AC1015
  9
$ACADMAINTVER
 70
     6
  9
$DWGCODEPAGE
  3
ANSI_1252
  9
$INSBASE
 10
0.0
 20
0.0
 30
0.0
  9
$EXTMIN
 10
-179.0272349017
 20
-88.7008355729
 30
0.0
  9
$EXTMAX
 10
139.9727650983
 20
70.2991644271
 30
0.0
  9
$LIMMIN
 10
0.0
 20
0.0
  9
$LIMMAX
 10
420.0
 20
297.0
  9
$ORTHOMODE
 70
     0
  9
$REGENMODE
 70
     1
  9
$FILLMODE
 70
     1
  9
$QTEXTMODE
 70
     0
  9
$MIRRTEXT
 70
     1
  9
$LTSCALE
 40
1.0
  9
$ATTMODE
 70
     1
  9
$TEXTSIZE
 40
3.175
  9
$TRACEWID
 40
1.0
  9
$TEXTSTYLE
  7
Standard
  9
$CLAYER
  8
0
  9
$CELTYPE
  6
ByLayer
  9
$CECOLOR
 62
   256
  9
$CELTSCALE
 40
1.0
  9
$DISPSILH
 70
     0
  9
$DIMSCALE
 40
1.0
  9
$DIMASZ
 40
3.302
  9
$DIMEXO
 40
0.0
  9
$DIMDLI
 40
3.75
  9
$DIMRND
 40
0.0
  9
$DIMDLE
 40
0.0
  9
$DIMEXE
 40
3.175
  9
$DIMTP
 40
0.0
  9
$DIMTM
 40
0.0
  9
$DIMTXT
 40
3.175
  9
$DIMCEN
 40
2.5
  9
$DIMTSZ
 40
0.0
  9
$DIMTOL
 70
     0
  9
$DIMLIM
 70
     0
  9
$DIMTIH
 70
     1
  9
$DIMTOH
 70
     1
  9
$DIMSE1
 70
     0
  9
$DIMSE2
 70
     0
  9
$DIMTAD
 70
     0
  9
$DIMZIN
 70
     0
  9
$DIMBLK
  1

  9
$DIMASO
 70
     1
  9
$DIMSHO
 70
     1
  9
$DIMPOST
  1

  9
$DIMAPOST
  1

  9
$DIMALT
 70
     0
  9
$DIMALTD
 70
     3
  9
$DIMALTF
 40
0.0393700787
  9
$DIMLFAC
 40
1.0
  9
$DIMTOFL
 70
     1
  9
$DIMTVP
 40
0.0
  9
$DIMTIX
 70
     0
  9
$DIMSOXD
 70
     0
  9
$DIMSAH
 70
     0
  9
$DIMBLK1
  1

  9
$DIMBLK2
  1

  9
$DIMSTYLE
  2
ISO-25
  9
$DIMCLRD
 70
     0
  9
$DIMCLRE
 70
     0
  9
$DIMCLRT
 70
     0
  9
$DIMTFAC
 40
1.0
  9
$DIMGAP
 40
1.524
  9
$DIMJUST
 70
     0
  9
$DIMSD1
 70
     0
  9
$DIMSD2
 70
     0
  9
$DIMTOLJ
 70
     0
  9
$DIMTZIN
 70
     0
  9
$DIMALTZ
 70
     0
  9
$DIMALTTZ
 70
     0
  9
$DIMUPT
 70
     0
  9
$DIMDEC
 70
     2
  9
$DIMTDEC
 70
     2
  9
$DIMALTU
 70
     2
  9
$DIMALTTD
 70
     3
  9
$DIMTXSTY
  7
Standard
  9
$DIMAUNIT
 70
     0
  9
$DIMADEC
 70
     2
  9
$DIMALTRND
 40
0.0
  9
$DIMAZIN
 70
     0
  9
$DIMDSEP
 70
    44
  9
$DIMATFIT
 70
     3
  9
$DIMFRAC
 70
     0
  9
$DIMLDRBLK
  1

  9
$DIMLUNIT
 70
     2
  9
$DIMLWD
 70
    -2
  9
$DIMLWE
 70
    -2
  9
$DIMTMOVE
 70
     0
  9
$LUNITS
 70
     2
  9
$LUPREC
 70
     2
  9
$SKETCHINC
 40
1.0
  9
$FILLETRAD
 40
0.0
  9
$AUNITS
 70
     0
  9
$AUPREC
 70
     2
  9
$MENU
  1
.
  9
$ELEVATION
 40
0.0
  9
$PELEVATION
 40
0.0
  9
$THICKNESS
 40
0.0
  9
$LIMCHECK
 70
     0
  9
$CHAMFERA
 40
0.0
  9
$CHAMFERB
 40
0.0
  9
$CHAMFERC
 40
0.0
  9
$CHAMFERD
 40
0.0
  9
$SKPOLY
 70
     0
  9
$TDCREATE
 40
2459912.668706817
  9
$TDUCREATE
 40
2459912.627040151
  9
$TDUPDATE
 40
2459912.669334456
  9
$TDUUPDATE
 40
2459912.627667789
  9
$TDINDWG
 40
0.0000000116
  9
$TDUSRTIMER
 40
0.0000000116
  9
$USRTIMER
 70
     1
  9
$ANGBASE
 50
0.0
  9
$ANGDIR
 70
     0
  9
$PDMODE
 70
     0
  9
$PDSIZE
 40
-1.0
  9
$PLINEWID
 40
0.0
  9
$SPLFRAME
 70
     0
  9
$SPLINETYPE
 70
     6
  9
$SPLINESEGS
 70
     8
  9
$HANDSEED
  5
11B
  9
$SURFTAB1
 70
     6
  9
$SURFTAB2
 70
     6
  9
$SURFTYPE
 70
     6
  9
$SURFU
 70
     6
  9
$SURFV
 70
     6
  9
$UCSBASE
  2

  9
$UCSNAME
  2

  9
$UCSORG
 10
0.0
 20
0.0
 30
0.0
  9
$UCSXDIR
 10
1.0
 20
0.0
 30
0.0
  9
$UCSYDIR
 10
0.0
 20
1.0
 30
0.0
  9
$UCSORTHOREF
  2

  9
$UCSORTHOVIEW
 70
     0
  9
$UCSORGTOP
 10
0.0
 20
0.0
 30
0.0
  9
$UCSORGBOTTOM
 10
0.0
 20
0.0
 30
0.0
  9
$UCSORGLEFT
 10
0.0
 20
0.0
 30
0.0
  9
$UCSORGRIGHT
 10
0.0
 20
0.0
 30
0.0
  9
$UCSORGFRONT
 10
0.0
 20
0.0
 30
0.0
  9
$UCSORGBACK
 10
0.0
 20
0.0
 30
0.0
  9
$PUCSBASE
  2

  9
$PUCSNAME
  2

  9
$PUCSORG
 10
0.0
 20
0.0
 30
0.0
  9
$PUCSXDIR
 10
1.0
 20
0.0
 30
0.0
  9
$PUCSYDIR
 10
0.0
 20
1.0
 30
0.0
  9
$PUCSORTHOREF
  2

  9
$PUCSORTHOVIEW
 70
     0
  9
$PUCSORGTOP
 10
0.0
 20
0.0
 30
0.0
  9
$PUCSORGBOTTOM
 10
0.0
 20
0.0
 30
0.0
  9
$PUCSORGLEFT
 10
0.0
 20
0.0
 30
0.0
  9
$PUCSORGRIGHT
 10
0.0
 20
0.0
 30
0.0
  9
$PUCSORGFRONT
 10
0.0
 20
0.0
 30
0.0
  9
$PUCSORGBACK
 10
0.0
 20
0.0
 30
0.0
  9
$USERI1
 70
     0
  9
$USERI2
 70
     0
  9
$USERI3
 70
     0
  9
$USERI4
 70
     0
  9
$USERI5
 70
     0
  9
$USERR1
 40
0.0
  9
$USERR2
 40
0.0
  9
$USERR3
 40
0.0
  9
$USERR4
 40
0.0
  9
$USERR5
 40
0.0
  9
$WORLDVIEW
 70
     1
  9
$SHADEDGE
 70
     3
  9
$SHADEDIF
 70
    70
  9
$TILEMODE
 70
     1
  9
$MAXACTVP
 70
    64
  9
$PINSBASE
 10
0.0
 20
0.0
 30
0.0
  9
$PLIMCHECK
 70
     0
  9
$PEXTMIN
 10
1.0000000000E+20
 20
1.0000000000E+20
 30
1.0000000000E+20
  9
$PEXTMAX
 10
-1.0000000000E+20
 20
-1.0000000000E+20
 30
-1.0000000000E+20
  9
$PLIMMIN
 10
0.0
 20
0.0
  9
$PLIMMAX
 10
420.0
 20
297.0
  9
$UNITMODE
 70
     0
  9
$VISRETAIN
 70
     1
  9
$PLINEGEN
 70
     0
  9
$PSLTSCALE
 70
     1
  9
$TREEDEPTH
 70
  3020
  9
$CMLSTYLE
  2
Standard
  9
$CMLJUST
 70
     0
  9
$CMLSCALE
 40
20.0
  9
$PROXYGRAPHICS
 70
     1
  9
$MEASUREMENT
 70
     1
  9
$CELWEIGHT
370
    -1
  9
$ENDCAPS
280
     0
  9
$JOINSTYLE
280
     0
  9
$LWDISPLAY
290
     1
  9
$INSUNITS
 70
     4
  9
$HYPERLINKBASE
  1

  9
$STYLESHEET
  1

  9
$XEDIT
290
     1
  9
$CEPSNTYPE
380
     0
  9
$PSTYLEMODE
290
     1
  9
$FINGERPRINTGUID
  2
{6eda6761-85e9-49f5-b02d-8101c484e717}
  9
$VERSIONGUID
  2
{FAEB1C32-E019-11D5-929B-00C0DF256EC4}
  9
$EXTNAMES
290
     1
  9
$PSVPSCALE
 40
0.0
  9
$OLESTARTUP
290
     0
  0
ENDSEC
  0
SECTION
  2
CLASSES
  0
CLASS
  1
ACDBDICTIONARYWDFLT
  2
AcDbDictionaryWithDefault
  3
ObjectDBX Classes
 90
        0
280
     0
281
     0
  0
CLASS
  1
VISUALSTYLE
  2
AcDbVisualStyle
  3
ObjectDBX Classes
 90
     4095
280
     0
281
     0
  0
CLASS
  1
MATERIAL
  2
AcDbMaterial
  3
ObjectDBX Classes
 90
     1153
280
     0
281
     0
  0
CLASS
  1
SCALE
  2
AcDbScale
  3
ObjectDBX Classes
 90
     1153
280
     0
281
     0
  0
CLASS
  1
TABLESTYLE
  2
AcDbTableStyle
  3
ObjectDBX Classes
 90
     4095
280
     0
281
     0
  0
CLASS
  1
MLEADERSTYLE
  2
AcDbMLeaderStyle
  3
ACDB_MLEADERSTYLE_CLASS
 90
     4095
280
     0
281
     0
  0
CLASS
  1
SUN
  2
AcDbSun
  3
SCENEOE
 90
     1153
280
     0
281
     0
  0
CLASS
  1
ACDBPLACEHOLDER
  2
AcDbPlaceHolder
  3
ObjectDBX Classes
 90
        0
280
     0
281
     0
  0
CLASS
  1
LAYOUT
  2
AcDbLayout
  3
ObjectDBX Classes
 90
        0
280
     0
281
     0
  0
ENDSEC
  0
SECTION
  2
TABLES
  0
TABLE
  2
VPORT
  5
8
330
0
100
AcDbSymbolTable
 70
     1
  0
VPORT
  5
29
330
8
100
AcDbSymbolTableRecord
100
AcDbViewportTableRecord
  2
*Active
 70
     0
 10
0.0
 20
0.0
 11
1.0
 21
1.0
 12
-19.5272349017
 22
-9.2008355729
 13
0.0
 23
0.0
 14
10.0
 24
10.0
 15
10.0
 25
10.0
 16
0.0
 26
0.0
 36
1.0
 17
0.0
 27
0.0
 37
0.0
 40
162.18
 41
2.0062893082
 42
50.0
 43
0.0
 44
0.0
 50
0.0
 51
0.0
 71
     0
 72
   100
 73
     1
 74
     3
 75
     0
 76
     0
 77
     0
 78
     0
281
     0
 65
     1
110
0.0
120
0.0
130
0.0
111
1.0
121
0.0
131
0.0
112
0.0
122
1.0
132
0.0
 79
     0
146
0.0
  0
ENDTAB
  0
TABLE
  2
LTYPE
  5
5
330
0
100
AcDbSymbolTable
 70
     6
  0
LTYPE
  5
14
330
5
100
AcDbSymbolTableRecord
100
AcDbLinetypeTableRecord
  2
ByBlock
 70
     0
  3

 72
    65
 73
     0
 40
0.0
  0
LTYPE
  5
15
330
5
100
AcDbSymbolTableRecord
100
AcDbLinetypeTableRecord
  2
ByLayer
 70
     0
  3

 72
    65
 73
     0
 40
0.0
  0
LTYPE
  5
16
330
5
100
AcDbSymbolTableRecord
100
AcDbLinetypeTableRecord
  2
Continuous
 70
     0
  3
Solid line
 72
    65
 73
     0
 40
0.0
  0
LTYPE
  5
5E
330
5
100
AcDbSymbolTableRecord
100
AcDbLinetypeTableRecord
  2
HIDDEN
 70
     0
  3
Hidden __ __ __ __ __ __ __ __ __ __ __ __ __ __
 72
    65
 73
     2
 40
1.905
 49
1.27
 74
     0
 49
-0.635
 74
     0
  0
LTYPE
  5
5F
330
5
100
AcDbSymbolTableRecord
100
AcDbLinetypeTableRecord
  2
PHANTOM
 70
     0
  3
Phantom ______  __  __  ______  __  __  ______
 72
    65
 73
     6
 40
12.7
 49
6.35
 74
     0
 49
-1.27
 74
     0
 49
1.27
 74
     0
 49
-1.27
 74
     0
 49
1.27
 74
     0
 49
-1.27
 74
     0
  0
LTYPE
  5
60
330
5
100
AcDbSymbolTableRecord
100
AcDbLinetypeTableRecord
  2
CENTER
 70
     0
  3
Center ____ _ ____ _ ____ _ ____ _ ____ _ ____
 72
    65
 73
     4
 40
10.16
 49
6.35
 74
     0
 49
-1.27
 74
     0
 49
1.27
 74
     0
 49
-1.27
 74
     0
  0
LTYPE
  5
61
330
5
100
AcDbSymbolTableRecord
100
AcDbLinetypeTableRecord
  2
CENTERX2
 70
     0
  3
Center (2x) ________  __  ________  __  _____
 72
    65
 73
     4
 40
20.32
 49
12.7
 74
     0
 49
-2.54
 74
     0
 49
2.54
 74
     0
 49
-2.54
 74
     0
  0
LTYPE
  5
62
330
5
100
AcDbSymbolTableRecord
100
AcDbLinetypeTableRecord
  2
DOT2
 70
     0
  3
Dot (.5x) ........................................
 72
    65
 73
     2
 40
0.635
 49
0.0
 74
     0
 49
-0.635
 74
     0
  0
ENDTAB
  0
TABLE
  2
LAYER
  5
2
330
0
100
AcDbSymbolTable
 70
     1
  0
LAYER
  5
10
330
2
100
AcDbSymbolTableRecord
100
AcDbLayerTableRecord
  2
0
 70
     0
 62
     7
  6
Continuous
370
    -3
390
F
  0
ENDTAB
  0
TABLE
  2
STYLE
  5
3
330
0
100
AcDbSymbolTable
 70
     2
  0
STYLE
  5
11
330
3
100
AcDbSymbolTableRecord
100
AcDbTextStyleTableRecord
  2
Standard
 70
     0
 40
0.0
 41
1.0
 50
0.0
 71
     0
 42
3.175
  3
txt
  4

  0
STYLE
  5
117
330
3
100
AcDbSymbolTableRecord
100
AcDbTextStyleTableRecord
  2
SLDTEXTSTYLE0
 70
     0
 40
0.0
 41
0.7
 50
0.0
 71
     0
 42
3.175
  3
TXT
  4

  0
ENDTAB
  0
TABLE
  2
VIEW
  5
6
330
0
100
AcDbSymbolTable
 70
     0
  0
ENDTAB
  0
TABLE
  2
UCS
  5
7
330
0
100
AcDbSymbolTable
 70
     0
  0
ENDTAB
  0
TABLE
  2
APPID
  5
9
330
0
100
AcDbSymbolTable
 70
     1
  0
APPID
  5
12
330
9
100
AcDbSymbolTableRecord
100
AcDbRegAppTableRecord
  2
ACAD
 70
     0
  0
ENDTAB
  0
TABLE
  2
DIMSTYLE
  5
A
330
0
100
AcDbSymbolTable
 70
     1
100
AcDbDimStyleTable
  0
DIMSTYLE
105
27
330
A
100
AcDbSymbolTableRecord
100
AcDbDimStyleTableRecord
  2
ISO-25
 70
     0
 41
2.5
 42
0.625
 43
3.75
 44
1.25
 73
     0
 74
     0
 77
     1
 78
     8
140
2.5
141
2.5
143
0.0393700787
147
0.625
171
     3
172
     1
178
     0
271
     2
272
     2
274
     3
278
    44
283
     0
284
     8
340
11
  0
ENDTAB
  0
TABLE
  2
BLOCK_RECORD
  5
1
330
0
100
AcDbSymbolTable
 70
     1
  0
BLOCK_RECORD
  5
1F
330
1
100
AcDbSymbolTableRecord
100
AcDbBlockTableRecord
  2
*Model_Space
340
22
  0
BLOCK_RECORD
  5
1B
330
1
100
AcDbSymbolTableRecord
100
AcDbBlockTableRecord
  2
*Paper_Space
340
1E
  0
BLOCK_RECORD
  5
23
330
1
100
AcDbSymbolTableRecord
100
AcDbBlockTableRecord
  2
*Paper_Space0
340
26
  0
ENDTAB
  0
ENDSEC
  0
SECTION
  2
BLOCKS
  0
BLOCK
  5
20
330
1F
100
AcDbEntity
  8
0
100
AcDbBlockBegin
  2
*Model_Space
 70
     0
 10
0.0
 20
0.0
 30
0.0
  3
*Model_Space
  1

  0
ENDBLK
  5
21
330
1F
100
AcDbEntity
  8
0
100
AcDbBlockEnd
  0
BLOCK
  5
1C
330
1B
100
AcDbEntity
 67
     1
  8
0
100
AcDbBlockBegin
  2
*Paper_Space
 70
     0
 10
0.0
 20
0.0
 30
0.0
  3
*Paper_Space
  1

  0
ENDBLK
  5
1D
330
1B
100
AcDbEntity
 67
     1
  8
0
100
AcDbBlockEnd
  0
BLOCK
  5
24
330
23
100
AcDbEntity
  8
0
100
AcDbBlockBegin
  2
*Paper_Space0
 70
     0
 10
0.0
 20
0.0
 30
0.0
  3
*Paper_Space0
  1

  0
ENDBLK
  5
25
330
23
100
AcDbEntity
  8
0
100
AcDbBlockEnd
  0
ENDSEC
  0
SECTION
  2
ENTITIES
  0
LINE
  5
63
330
1F
100
AcDbEntity
  8
0
  6
CENTERX2
 62
     7
100
AcDbLine
 10
-169.0272349017
 20
-9.2008355729
 30
0.0
 11
-136.5272349017
 21
-9.2008355729
 31
0.0
  0
LINE
  5
64
330
1F
100
AcDbEntity
  8
0
  6
Continuous
 62
     7
100
AcDbLine
 10
-169.0272349017
 20
60.2991644271
 30
0.0
 11
129.9727650983
 21
60.2991644271
 31
0.0
  0
LINE
  5
65
330
1F
100
AcDbEntity
  8
0
  6
Continuous
 62
     7
100
AcDbLine
 10
-169.0272349017
 20
60.2991644271
 30
0.0
 11
-169.0272349017
 21
-78.7008355729
 31
0.0
  0
LINE
  5
66
330
1F
100
AcDbEntity
  8
0
  6
Continuous
 62
     7
100
AcDbLine
 10
-169.0272349017
 20
-78.7008355729
 30
0.0
 11
129.9727650983
 21
-78.7008355729
 31
0.0
  0
LINE
  5
67
330
1F
100
AcDbEntity
  8
0
  6
Continuous
 62
     7
100
AcDbLine
 10
129.9727650983
 20
60.2991644271
 30
0.0
 11
129.9727650983
 21
-78.7008355729
 31
0.0
  0
LINE
  5
68
330
1F
100
AcDbEntity
  8
0
  6
CENTERX2
 62
     7
100
AcDbLine
 10
-169.0272349017
 20
-9.2008355729
 30
0.0
 11
129.9727650983
 21
-9.2008355729
 31
0.0
  0
LINE
  5
69
330
1F
100
AcDbEntity
  8
0
  6
CENTERX2
 62
     7
100
AcDbLine
 10
-19.5272349017
 20
60.2991644271
 30
0.0
 11
-19.5272349017
 21
-78.7008355729
 31
0.0
  0
LINE
  5
6A
330
1F
100
AcDbEntity
  8
0
  6
CENTERX2
 62
     7
100
AcDbLine
 10
-136.5272349017
 20
60.2991644271
 30
0.0
 11
-136.5272349017
 21
-78.7008355729
 31
0.0
  0
LINE
  5
6B
330
1F
100
AcDbEntity
  8
0
  6
CENTERX2
 62
     7
100
AcDbLine
 10
97.4727650983
 20
60.2991644271
 30
0.0
 11
97.4727650983
 21
-78.7008355729
 31
0.0
  0
LINE
  5
6C
330
1F
100
AcDbEntity
  8
0
  6
CENTERX2
 62
     7
100
AcDbLine
 10
129.9727650983
 20
-9.2008355729
 30
0.0
 11
97.4727650983
 21
-9.2008355729
 31
0.0
  0
LINE
  5
6D
330
1F
100
AcDbEntity
  8
0
  6
CENTERX2
 62
     7
100
AcDbLine
 10
-136.5272349017
 20
60.2991644271
 30
0.0
 11
-136.5272349017
 21
5.7991644271
 31
0.0
  0
LINE
  5
6E
330
1F
100
AcDbEntity
  8
0
  6
CENTERX2
 62
     7
100
AcDbLine
 10
97.4727650983
 20
60.2991644271
 30
0.0
 11
97.4727650983
 21
5.7991644271
 31
0.0
  0
LINE
  5
6F
330
1F
100
AcDbEntity
  8
0
  6
CENTERX2
 62
     7
100
AcDbLine
 10
-169.0272349017
 20
60.2991644271
 30
0.0
 11
-169.0272349017
 21
23.6991644271
 31
0.0
  0
LINE
  5
70
330
1F
100
AcDbEntity
  8
0
  6
CENTERX2
 62
     7
100
AcDbLine
 10
129.9727650983
 20
60.2991644271
 30
0.0
 11
129.9727650983
 21
23.6991644271
 31
0.0
  0
LINE
  5
71
330
1F
100
AcDbEntity
  8
0
  6
CENTERX2
 62
     7
100
AcDbLine
 10
129.9727650983
 20
-78.7008355729
 30
0.0
 11
129.9727650983
 21
-42.1008355729
 31
0.0
  0
LINE
  5
72
330
1F
100
AcDbEntity
  8
0
  6
CENTERX2
 62
     7
100
AcDbLine
 10
-169.0272349017
 20
-78.7008355729
 30
0.0
 11
-169.0272349017
 21
-42.1008355729
 31
0.0
  0
LINE
  5
73
330
1F
100
AcDbEntity
  8
0
  6
CENTERX2
 62
     7
100
AcDbLine
 10
-169.0272349017
 20
-78.7008355729
 30
0.0
 11
-52.4272349017
 21
-78.7008355729
 31
0.0
  0
LINE
  5
74
330
1F
100
AcDbEntity
  8
0
  6
CENTERX2
 62
     7
100
AcDbLine
 10
129.9727650983
 20
-78.7008355729
 30
0.0
 11
13.3727650983
 21
-78.7008355729
 31
0.0
  0
LINE
  5
75
330
1F
100
AcDbEntity
  8
0
  6
CENTERX2
 62
     7
100
AcDbLine
 10
129.9727650983
 20
60.2991644271
 30
0.0
 11
13.3727650983
 21
60.2991644271
 31
0.0
  0
LINE
  5
76
330
1F
100
AcDbEntity
  8
0
  6
CENTERX2
 62
     7
100
AcDbLine
 10
-169.0272349017
 20
60.2991644271
 30
0.0
 11
-52.4272349017
 21
60.2991644271
 31
0.0
  0
LINE
  5
77
330
1F
100
AcDbEntity
  8
0
  6
CENTERX2
 62
     7
100
AcDbLine
 10
-169.0272349017
 20
-9.2008355729
 30
0.0
 11
129.9727650983
 21
-9.2008355729
 31
0.0
  0
LINE
  5
78
330
1F
100
AcDbEntity
  8
0
  6
CENTERX2
 62
     7
100
AcDbLine
 10
-19.5272349017
 20
60.2991644271
 30
0.0
 11
-19.5272349017
 21
-78.7008355729
 31
0.0
  0
LINE
  5
79
330
1F
100
AcDbEntity
  8
0
  6
Continuous
 62
     7
100
AcDbLine
 10
-171.5272349017
 20
24.6991644271
 30
0.0
 11
-171.5272349017
 21
62.7991644271
 31
0.0
  0
LINE
  5
7A
330
1F
100
AcDbEntity
  8
0
  6
Continuous
 62
     7
100
AcDbLine
 10
-171.5272349017
 20
62.7991644271
 30
0.0
 11
-53.4272349017
 21
62.7991644271
 31
0.0
  0
LINE
  5
7B
330
1F
100
AcDbEntity
  8
0
  6
Continuous
 62
     7
100
AcDbLine
 10
-171.5272349017
 20
-81.2008355729
 30
0.0
 11
-53.4272349017
 21
-81.2008355729
 31
0.0
  0
LINE
  5
7C
330
1F
100
AcDbEntity
  8
0
  6
Continuous
 62
     7
100
AcDbLine
 10
-171.5272349017
 20
-43.1008355729
 30
0.0
 11
-171.5272349017
 21
-81.2008355729
 31
0.0
  0
LINE
  5
7D
330
1F
100
AcDbEntity
  8
0
  6
Continuous
 62
     7
100
AcDbLine
 10
132.4727650983
 20
-81.2008355729
 30
0.0
 11
14.3727650983
 21
-81.2008355729
 31
0.0
  0
LINE
  5
7E
330
1F
100
AcDbEntity
  8
0
  6
Continuous
 62
     7
100
AcDbLine
 10
132.4727650983
 20
-43.1008355729
 30
0.0
 11
132.4727650983
 21
-81.2008355729
 31
0.0
  0
LINE
  5
7F
330
1F
100
AcDbEntity
  8
0
  6
Continuous
 62
     7
100
AcDbLine
 10
132.4727650983
 20
24.6991644271
 30
0.0
 11
132.4727650983
 21
62.7991644271
 31
0.0
  0
LINE
  5
80
330
1F
100
AcDbEntity
  8
0
  6
Continuous
 62
     7
100
AcDbLine
 10
132.4727650983
 20
62.7991644271
 30
0.0
 11
14.3727650983
 21
62.7991644271
 31
0.0
  0
LINE
  5
81
330
1F
100
AcDbEntity
  8
0
  6
Continuous
 62
     7
100
AcDbLine
 10
-174.5272349017
 20
65.7991644271
 30
0.0
 11
-129.0272349017
 21
65.7991644271
 31
0.0
  0
LINE
  5
82
330
1F
100
AcDbEntity
  8
0
  6
CENTERX2
 62
     7
100
AcDbLine
 10
-169.0272349017
 20
-9.2008355729
 30
0.0
 11
129.9727650983
 21
-9.2008355729
 31
0.0
  0
LINE
  5
83
330
1F
100
AcDbEntity
  8
0
  6
CENTERX2
 62
     7
100
AcDbLine
 10
-174.5272349017
 20
24.6991644271
 30
0.0
 11
-174.5272349017
 21
65.7991644271
 31
0.0
  0
LINE
  5
84
330
1F
100
AcDbEntity
  8
0
  6
CENTERX2
 62
     7
100
AcDbLine
 10
-174.5272349017
 20
65.7991644271
 30
0.0
 11
-53.4272349017
 21
65.7991644271
 31
0.0
  0
LINE
  5
85
330
1F
100
AcDbEntity
  8
0
  6
CENTERX2
 62
     7
100
AcDbLine
 10
-19.5272349017
 20
60.2991644271
 30
0.0
 11
-19.5272349017
 21
-78.7008355729
 31
0.0
  0
LINE
  5
86
330
1F
100
AcDbEntity
  8
0
  6
CENTERX2
 62
     7
100
AcDbLine
 10
-174.5272349017
 20
-43.1008355729
 30
0.0
 11
-174.5272349017
 21
-84.2008355729
 31
0.0
  0
LINE
  5
87
330
1F
100
AcDbEntity
  8
0
  6
CENTERX2
 62
     7
100
AcDbLine
 10
-174.5272349017
 20
-84.2008355729
 30
0.0
 11
-53.4272349017
 21
-84.2008355729
 31
0.0
  0
LINE
  5
88
330
1F
100
AcDbEntity
  8
0
  6
Continuous
 62
     7
100
AcDbLine
 10
-174.5272349017
 20
-84.2008355729
 30
0.0
 11
-129.0272349017
 21
-84.2008355729
 31
0.0
  0
LINE
  5
89
330
1F
100
AcDbEntity
  8
0
  6
Continuous
 62
     7
100
AcDbLine
 10
135.4727650983
 20
-84.2008355729
 30
0.0
 11
89.9727650983
 21
-84.2008355729
 31
0.0
  0
LINE
  5
8A
330
1F
100
AcDbEntity
  8
0
  6
CENTERX2
 62
     7
100
AcDbLine
 10
135.4727650983
 20
-84.2008355729
 30
0.0
 11
14.3727650983
 21
-84.2008355729
 31
0.0
  0
LINE
  5
8B
330
1F
100
AcDbEntity
  8
0
  6
CENTERX2
 62
     7
100
AcDbLine
 10
135.4727650983
 20
-43.1008355729
 30
0.0
 11
135.4727650983
 21
-84.2008355729
 31
0.0
  0
LINE
  5
8C
330
1F
100
AcDbEntity
  8
0
  6
CENTERX2
 62
     7
100
AcDbLine
 10
135.4727650983
 20
24.6991644271
 30
0.0
 11
135.4727650983
 21
65.7991644271
 31
0.0
  0
LINE
  5
8D
330
1F
100
AcDbEntity
  8
0
  6
CENTERX2
 62
     7
100
AcDbLine
 10
135.4727650983
 20
65.7991644271
 30
0.0
 11
14.3727650983
 21
65.7991644271
 31
0.0
  0
LINE
  5
8E
330
1F
100
AcDbEntity
  8
0
  6
Continuous
 62
     7
100
AcDbLine
 10
135.4727650983
 20
65.7991644271
 30
0.0
 11
89.9727650983
 21
65.7991644271
 31
0.0
  0
CIRCLE
  5
BB
330
1F
100
AcDbEntity
  8
0
  6
Continuous
 62
     7
370
    25
100
AcDbCircle
 10
-171.5272349017
 20
-81.2008355729
 30
0.0
 40
1.825000000000031
  0
CIRCLE
  5
BC
330
1F
100
AcDbEntity
  8
0
  6
Continuous
 62
     7
370
    25
100
AcDbCircle
 10
132.4727650983
 20
-81.2008355729
 30
0.0
 40
1.824999999999989
  0
CIRCLE
  5
BD
330
1F
100
AcDbEntity
  8
0
  6
Continuous
 62
     7
370
    25
100
AcDbCircle
 10
132.4727650983
 20
62.7991644271
 30
0.0
 40
1.824999999999989
  0
CIRCLE
  5
BE
330
1F
100
AcDbEntity
  8
0
  6
Continuous
 62
     7
370
    25
100
AcDbCircle
 10
-171.5272349017
 20
62.7991644271
 30
0.0
 40
1.825000000000017
  0
CIRCLE
  5
BF
330
1F
100
AcDbEntity
  8
0
  6
Continuous
 62
     7
370
    25
100
AcDbCircle
 10
-129.0272349017
 20
-84.2008355729
 30
0.0
 40
1.825000000000003
  0
CIRCLE
  5
C0
330
1F
100
AcDbEntity
  8
0
  6
Continuous
 62
     7
370
    25
100
AcDbCircle
 10
89.9727650983
 20
-84.2008355729
 30
0.0
 40
1.825000000000017
  0
CIRCLE
  5
C1
330
1F
100
AcDbEntity
  8
0
  6
Continuous
 62
     7
370
    25
100
AcDbCircle
 10
89.9727650983
 20
65.7991644271
 30
0.0
 40
1.824999999999996
  0
CIRCLE
  5
C2
330
1F
100
AcDbEntity
  8
0
  6
Continuous
 62
     7
370
    25
100
AcDbCircle
 10
-129.0272349017
 20
65.7991644271
 30
0.0
 40
1.82500000000001
  0
SPLINE
  5
C3
330
1F
100
AcDbEntity
  8
0
  6
Continuous
 62
     7
370
    25
100
AcDbSpline
210
0.0
220
0.0
230
1.0
 70
    11
 71
     3
 72
    26
 73
    22
 74
     0
 42
0.00000001
 43
0.00000001
 40
0.0
 40
0.0
 40
0.0
 40
0.0
 40
0.0536887269338661
 40
0.1073774538676574
 40
0.1610661808015643
 40
0.2147549077354088
 40
0.2684436346692587
 40
0.3221323616030995
 40
0.3758210885369562
 40
0.4295098154708015
 40
0.4831985424046584
 40
0.5368872693384827
 40
0.5905759962718188
 40
0.6442647232059959
 40
0.697953450140052
 40
0.7516421770739085
 40
0.8053309040077578
 40
0.8590196309415481
 40
0.9127083578754367
 40
0.9663970848092953
 40
1.0
 40
1.0
 40
1.0
 40
1.0
 10
94.24276509830679
 20
-10.1708355729707
 30
0.0
 10
94.32147879829306
 20
-10.16309609434506
 30
0.0
 10
94.47890619826549
 20
-10.14761713709381
 30
0.0
 10
94.68842418051369
 20
-10.02695024657313
 30
0.0
 10
94.84769748190473
 20
-9.849251823951873
 30
0.0
 10
94.93876924592027
 20
-9.627371591614311
 30
0.0
 10
94.95137182199893
 20
-9.388249923794449
 30
0.0
 10
94.8840843653518
 20
-9.158330156736703
 30
0.0
 10
94.74449302605129
 20
-8.963672210423754
 30
0.0
 10
94.54833566958551
 20
-8.826185268105098
 30
0.0
 10
94.31772754657833
 20
-8.761379823496771
 30
0.0
 10
94.07866798593462
 20
-8.776559686799091
 30
0.0
 10
93.85810909349057
 20
-8.870013607985175
 30
0.0
 10
93.68091738359745
 20
-9.03120722080123
 30
0.0
 10
93.5670692342492
 20
-9.241959586007612
 30
0.0
 10
93.52940256097902
 20
-9.4785384473878
 30
0.0
 10
93.57215503735746
 20
-9.714165018142893
 30
0.0
 10
93.69054007810425
 20
-9.92267097481654
 30
0.0
 10
93.87108589753859
 20
-10.07906802732116
 30
0.0
 10
94.06611649578757
 20
-10.15975451264936
 30
0.0
 10
94.19366522035673
 20
-10.16775556723289
 30
0.0
 10
94.24276509830679
 20
-10.1708355729707
 30
0.0
  0
SPLINE
  5
C4
330
1F
100
AcDbEntity
  8
0
  6
Continuous
 62
     7
370
    25
100
AcDbSpline
210
0.0
220
0.0
230
1.0
 70
    11
 71
     3
 72
    26
 73
    22
 74
     0
 42
0.00000001
 43
0.00000001
 40
0.0
 40
0.0
 40
0.0
 40
0.0
 40
0.0536887269338406
 40
0.107377453867616
 40
0.161066180801532
 40
0.214754907735399
 40
0.2684436346692376
 40
0.3221323616030741
 40
0.3758210885369365
 40
0.4295098154707869
 40
0.4831985424046334
 40
0.5368872693384642
 40
0.5905759962717914
 40
0.6442647232060056
 40
0.6979534501400402
 40
0.7516421770738845
 40
0.8053309040077313
 40
0.8590196309415378
 40
0.9127083578754236
 40
0.9663970848092881
 40
1.0
 40
1.0
 40
1.0
 40
1.0
 10
91.70276509830681
 20
-12.7108355729707
 30
0.0
 10
91.78147879829305
 20
-12.70309609434508
 30
0.0
 10
91.93890619826541
 20
-12.68761713709384
 30
0.0
 10
92.14842418051359
 20
-12.56695024657316
 30
0.0
 10
92.30769748190477
 20
-12.38925182395202
 30
0.0
 10
92.3987692459202
 20
-12.16737159161437
 30
0.0
 10
92.41137182199896
 20
-11.92824992379452
 30
0.0
 10
92.3440843653518
 20
-11.69833015673678
 30
0.0
 10
92.20449302605127
 20
-11.50367221042382
 30
0.0
 10
92.0083356695856
 20
-11.36618526810514
 30
0.0
 10
91.77772754657838
 20
-11.30137982349677
 30
0.0
 10
91.53866798593471
 20
-11.31655968679906
 30
0.0
 10
91.31810909349068
 20
-11.41001360798517
 30
0.0
 10
91.14091738359735
 20
-11.57120722080112
 30
0.0
 10
91.02706923424934
 20
-11.78195958600761
 30
0.0
 10
90.989402560979
 20
-12.01853844738769
 30
0.0
 10
91.03215503735746
 20
-12.2541650181428
 30
0.0
 10
91.15054007810427
 20
-12.46267097481644
 30
0.0
 10
91.33108589753854
 20
-12.61906802732118
 30
0.0
 10
91.52611649578753
 20
-12.69975451264931
 30
0.0
 10
91.6536652203567
 20
-12.70775556723287
 30
0.0
 10
91.7027650983068
 20
-12.7108355729707
 30
0.0
  0
SPLINE
  5
C5
330
1F
100
AcDbEntity
  8
0
  6
Continuous
 62
     7
370
    25
100
AcDbSpline
210
0.0
220
0.0
230
1.0
 70
    11
 71
     3
 72
    26
 73
    22
 74
     0
 42
0.00000001
 43
0.00000001
 40
0.0
 40
0.0
 40
0.0
 40
0.0
 40
0.0536887269338343
 40
0.1073774538676181
 40
0.1610661808015468
 40
0.2147549077353915
 40
0.2684436346692341
 40
0.3221323616030888
 40
0.3758210885369432
 40
0.4295098154707897
 40
0.4831985424046232
 40
0.5368872693384729
 40
0.5905759962718213
 40
0.644264723206004
 40
0.697953450140035
 40
0.7516421770738937
 40
0.8053309040077352
 40
0.8590196309415462
 40
0.9127083578754295
 40
0.966397084809276
 40
1.0
 40
1.0
 40
1.0
 40
1.0
 10
94.24276509830679
 20
-17.79083557297069
 30
0.0
 10
94.32147879829301
 20
-17.78309609434506
 30
0.0
 10
94.47890619826542
 20
-17.7676171370938
 30
0.0
 10
94.68842418051355
 20
-17.64695024657318
 30
0.0
 10
94.84769748190476
 20
-17.46925182395197
 30
0.0
 10
94.93876924592021
 20
-17.24737159161438
 30
0.0
 10
94.95137182199895
 20
-17.00824992379451
 30
0.0
 10
94.88408436535182
 20
-16.77833015673676
 30
0.0
 10
94.74449302605122
 20
-16.58367221042375
 30
0.0
 10
94.5483356695856
 20
-16.44618526810515
 30
0.0
 10
94.31772754657837
 20
-16.38137982349675
 30
0.0
 10
94.0786679859347
 20
-16.39655968679907
 30
0.0
 10
93.85810909349053
 20
-16.49001360798515
 30
0.0
 10
93.68091738359747
 20
-16.65120722080123
 30
0.0
 10
93.56706923424916
 20
-16.86195958600756
 30
0.0
 10
93.52940256097914
 20
-17.09853844738771
 30
0.0
 10
93.57215503735732
 20
-17.33416501814285
 30
0.0
 10
93.69054007810432
 20
-17.54267097481644
 30
0.0
 10
93.87108589753853
 20
-17.69906802732116
 30
0.0
 10
94.06611649578753
 20
-17.77975451264935
 30
0.0
 10
94.19366522035669
 20
-17.78775556723289
 30
0.0
 10
94.24276509830679
 20
-17.79083557297069
 30
0.0
  0
SPLINE
  5
C6
330
1F
100
AcDbEntity
  8
0
  6
Continuous
 62
     7
370
    25
100
AcDbSpline
210
0.0
220
0.0
230
1.0
 70
    11
 71
     3
 72
    26
 73
    22
 74
     0
 42
0.00000001
 43
0.00000001
 40
0.0
 40
0.0
 40
0.0
 40
0.0
 40
0.0536887269338465
 40
0.1073774538676352
 40
0.1610661808015511
 40
0.2147549077353945
 40
0.268443634669239
 40
0.3221323616030957
 40
0.3758210885369467
 40
0.4295098154707934
 40
0.4831985424046517
 40
0.5368872693384699
 40
0.590575996271798
 40
0.6442647232060008
 40
0.6979534501400457
 40
0.7516421770738959
 40
0.8053309040077414
 40
0.8590196309415437
 40
0.9127083578754415
 40
0.9663970848092883
 40
1.0
 40
1.0
 40
1.0
 40
1.0
 10
-130.757234901703
 20
-3.690835572833069
 30
0.0
 10
-130.8359486016892
 20
-3.698575051458691
 30
0.0
 10
-130.9933760016616
 20
-3.714054008709927
 30
0.0
 10
-131.2028939839099
 20
-3.834720899230585
 30
0.0
 10
-131.362167285301
 20
-4.012419321851811
 30
0.0
 10
-131.4532390493164
 20
-4.234299554189374
 30
0.0
 10
-131.4658416253952
 20
-4.473421222009254
 30
0.0
 10
-131.3985541687479
 20
-4.703340989066986
 30
0.0
 10
-131.2589628294475
 20
-4.897998935380004
 30
0.0
 10
-131.0628054729818
 20
-5.035485877698639
 30
0.0
 10
-130.8321973499745
 20
-5.100291322306988
 30
0.0
 10
-130.593137789331
 20
-5.085111459004692
 30
0.0
 10
-130.3725788968868
 20
-4.991657537818591
 30
0.0
 10
-130.1953871869937
 20
-4.830463925002598
 30
0.0
 10
-130.0815390376454
 20
-4.619711559796162
 30
0.0
 10
-130.0438723643753
 20
-4.383132698416029
 30
0.0
 10
-130.0866248407536
 20
-4.147506127660923
 30
0.0
 10
-130.2050098815005
 20
-3.93900017098726
 30
0.0
 10
-130.3855557009348
 20
-3.782603118482632
 30
0.0
 10
-130.5805862991838
 20
-3.701916633154419
 30
0.0
 10
-130.7081350237529
 20
-3.693915578570883
 30
0.0
 10
-130.757234901703
 20
-3.690835572833069
 30
0.0
  0
SPLINE
  5
C7
330
1F
100
AcDbEntity
  8
0
  6
Continuous
 62
     7
370
    25
100
AcDbSpline
210
0.0
220
0.0
230
1.0
 70
    11
 71
     3
 72
    26
 73
    22
 74
     0
 42
0.00000001
 43
0.00000001
 40
0.0
 40
0.0
 40
0.0
 40
0.0
 40
0.0536887269338531
 40
0.107377453867633
 40
0.1610661808015755
 40
0.2147549077354082
 40
0.2684436346692521
 40
0.3221323616031026
 40
0.3758210885369485
 40
0.429509815470795
 40
0.48319854240464
 40
0.536887269338477
 40
0.5905759962717908
 40
0.6442647232060127
 40
0.6979534501400472
 40
0.7516421770739029
 40
0.8053309040077551
 40
0.8590196309415513
 40
0.912708357875457
 40
0.9663970848093012
 40
1.0
 40
1.0
 40
1.0
 40
1.0
 10
94.24276509830679
 20
-15.2508355729707
 30
0.0
 10
94.32147879829304
 20
-15.24309609434507
 30
0.0
 10
94.47890619826542
 20
-15.22761713709383
 30
0.0
 10
94.68842418051369
 20
-15.10695024657316
 30
0.0
 10
94.8476974819048
 20
-14.92925182395194
 30
0.0
 10
94.93876924592026
 20
-14.70737159161433
 30
0.0
 10
94.95137182199899
 20
-14.46824992379449
 30
0.0
 10
94.88408436535171
 20
-14.23833015673676
 30
0.0
 10
94.74449302605134
 20
-14.04367221042375
 30
0.0
 10
94.54833566958563
 20
-13.90618526810513
 30
0.0
 10
94.31772754657837
 20
-13.84137982349679
 30
0.0
 10
94.07866798593474
 20
-13.85655968679906
 30
0.0
 10
93.85810909349063
 20
-13.95001360798518
 30
0.0
 10
93.68091738359742
 20
-14.11120722080113
 30
0.0
 10
93.56706923424926
 20
-14.32195958600762
 30
0.0
 10
93.52940256097904
 20
-14.55853844738775
 30
0.0
 10
93.57215503735746
 20
-14.79416501814285
 30
0.0
 10
93.69054007810432
 20
-15.00267097481653
 30
0.0
 10
93.87108589753862
 20
-15.15906802732117
 30
0.0
 10
94.06611649578761
 20
-15.23975451264935
 30
0.0
 10
94.1936652203567
 20
-15.24775556723288
 30
0.0
 10
94.24276509830679
 20
-15.2508355729707
 30
0.0
  0
SPLINE
  5
C8
330
1F
100
AcDbEntity
  8
0
  6
Continuous
 62
     7
370
    25
100
AcDbSpline
210
0.0
220
0.0
230
1.0
 70
    11
 71
     3
 72
    26
 73
    22
 74
     0
 42
0.00000001
 43
0.00000001
 40
0.0
 40
0.0
 40
0.0
 40
0.0
 40
0.053688726933853
 40
0.107377453867643
 40
0.1610661808015418
 40
0.2147549077353874
 40
0.268443634669228
 40
0.3221323616030807
 40
0.3758210885369263
 40
0.4295098154707895
 40
0.4831985424046235
 40
0.5368872693384539
 40
0.590575996271794
 40
0.6442647232059849
 40
0.69795345014003
 40
0.7516421770738808
 40
0.8053309040077354
 40
0.8590196309415364
 40
0.9127083578754238
 40
0.9663970848092692
 40
1.0
 40
1.0
 40
1.0
 40
1.0
 10
91.7027650983068
 20
-15.25083557297069
 30
0.0
 10
91.78147879829304
 20
-15.24309609434506
 30
0.0
 10
91.93890619826544
 20
-15.22761713709382
 30
0.0
 10
92.1484241805137
 20
-15.10695024657316
 30
0.0
 10
92.3076974819047
 20
-14.92925182395194
 30
0.0
 10
92.39876924592029
 20
-14.70737159161442
 30
0.0
 10
92.41137182199887
 20
-14.46824992379454
 30
0.0
 10
92.34408436535185
 20
-14.23833015673679
 30
0.0
 10
92.20449302605131
 20
-14.04367221042379
 30
0.0
 10
92.00833566958563
 20
-13.90618526810516
 30
0.0
 10
91.77772754657839
 20
-13.84137982349676
 30
0.0
 10
91.53866798593475
 20
-13.85655968679905
 30
0.0
 10
91.31810909349065
 20
-13.95001360798513
 30
0.0
 10
91.14091738359751
 20
-14.11120722080117
 30
0.0
 10
91.02706923424925
 20
-14.32195958600754
 30
0.0
 10
90.98940256097906
 20
-14.5585384473877
 30
0.0
 10
91.03215503735736
 20
-14.79416501814282
 30
0.0
 10
91.15054007810436
 20
-15.00267097481644
 30
0.0
 10
91.3310858975385
 20
-15.15906802732115
 30
0.0
 10
91.52611649578753
 20
-15.23975451264933
 30
0.0
 10
91.65366522035666
 20
-15.24775556723287
 30
0.0
 10
91.7027650983068
 20
-15.25083557297069
 30
0.0
  0
SPLINE
  5
C9
330
1F
100
AcDbEntity
  8
0
  6
Continuous
 62
     7
370
    25
100
AcDbSpline
210
0.0
220
0.0
230
1.0
 70
    11
 71
     3
 72
    26
 73
    22
 74
     0
 42
0.00000001
 43
0.00000001
 40
0.0
 40
0.0
 40
0.0
 40
0.0
 40
0.0536887269338529
 40
0.1073774538676494
 40
0.1610661808015573
 40
0.2147549077353904
 40
0.2684436346692423
 40
0.3221323616030943
 40
0.3758210885369403
 40
0.4295098154707863
 40
0.483198542404644
 40
0.5368872693384745
 40
0.5905759962718026
 40
0.6442647232059919
 40
0.697953450140038
 40
0.7516421770738858
 40
0.8053309040077254
 40
0.8590196309415459
 40
0.9127083578754364
 40
0.9663970848092759
 40
1.0
 40
1.0
 40
1.0
 40
1.0
 10
94.24276509830679
 20
-12.7108355729707
 30
0.0
 10
94.32147879829303
 20
-12.70309609434507
 30
0.0
 10
94.47890619826543
 20
-12.68761713709383
 30
0.0
 10
94.68842418051368
 20
-12.56695024657317
 30
0.0
 10
94.84769748190476
 20
-12.38925182395195
 30
0.0
 10
94.93876924592027
 20
-12.16737159161441
 30
0.0
 10
94.95137182199898
 20
-11.92824992379454
 30
0.0
 10
94.88408436535174
 20
-11.69833015673681
 30
0.0
 10
94.74449302605129
 20
-11.5036722104238
 30
0.0
 10
94.54833566958561
 20
-11.36618526810511
 30
0.0
 10
94.31772754657841
 20
-11.3013798234968
 30
0.0
 10
94.07866798593466
 20
-11.31655968679905
 30
0.0
 10
93.85810909349064
 20
-11.41001360798516
 30
0.0
 10
93.68091738359743
 20
-11.57120722080111
 30
0.0
 10
93.56706923424935
 20
-11.78195958600756
 30
0.0
 10
93.52940256097908
 20
-12.01853844738767
 30
0.0
 10
93.57215503735743
 20
-12.2541650181428
 30
0.0
 10
93.69054007810429
 20
-12.46267097481646
 30
0.0
 10
93.87108589753856
 20
-12.61906802732116
 30
0.0
 10
94.06611649578751
 20
-12.69975451264935
 30
0.0
 10
94.19366522035668
 20
-12.70775556723288
 30
0.0
 10
94.24276509830679
 20
-12.7108355729707
 30
0.0
  0
SPLINE
  5
CA
330
1F
100
AcDbEntity
  8
0
  6
Continuous
 62
     7
370
    25
100
AcDbSpline
210
0.0
220
0.0
230
1.0
 70
    11
 71
     3
 72
    26
 73
    22
 74
     0
 42
0.00000001
 43
0.00000001
 40
0.0
 40
0.0
 40
0.0
 40
0.0
 40
0.0536887269338534
 40
0.1073774538676497
 40
0.1610661808015588
 40
0.2147549077354118
 40
0.2684436346692444
 40
0.3221323616031085
 40
0.3758210885369542
 40
0.429509815470805
 40
0.4831985424046505
 40
0.5368872693384878
 40
0.59057599627181
 40
0.6442647232060088
 40
0.6979534501400522
 40
0.7516421770739037
 40
0.8053309040077516
 40
0.8590196309415582
 40
0.9127083578754432
 40
0.9663970848093012
 40
0.9999999999999999
 40
0.9999999999999999
 40
0.9999999999999999
 40
0.9999999999999999
 10
-133.297234901703
 20
-16.39083557283304
 30
0.0
 10
-133.3759486016893
 20
-16.39857505145867
 30
0.0
 10
-133.5333760016617
 20
-16.41405400870993
 30
0.0
 10
-133.7428939839099
 20
-16.53472089923059
 30
0.0
 10
-133.9021672853009
 20
-16.71241932185184
 30
0.0
 10
-133.9932390493165
 20
-16.93429955418937
 30
0.0
 10
-134.0058416253951
 20
-17.17342122200927
 30
0.0
 10
-133.938554168748
 20
-17.40334098906699
 30
0.0
 10
-133.7989628294475
 20
-17.59799893538002
 30
0.0
 10
-133.6028054729817
 20
-17.73548587769861
 30
0.0
 10
-133.3721973499744
 20
-17.80029132230698
 30
0.0
 10
-133.1331377893309
 20
-17.78511145900466
 30
0.0
 10
-132.9125788968868
 20
-17.69165753781856
 30
0.0
 10
-132.7353871869936
 20
-17.53046392500254
 30
0.0
 10
-132.6215390376454
 20
-17.31971155979612
 30
0.0
 10
-132.5838723643753
 20
-17.08313269841598
 30
0.0
 10
-132.6266248407536
 20
-16.84750612766086
 30
0.0
 10
-132.7450098815006
 20
-16.63900017098723
 30
0.0
 10
-132.9255557009348
 20
-16.48260311848256
 30
0.0
 10
-133.1205862991838
 20
-16.4019166331544
 30
0.0
 10
-133.2481350237529
 20
-16.39391557857086
 30
0.0
 10
-133.297234901703
 20
-16.39083557283304
 30
0.0
  0
SPLINE
  5
CB
330
1F
100
AcDbEntity
  8
0
  6
Continuous
 62
     7
370
    25
100
AcDbSpline
210
0.0
220
0.0
230
1.0
 70
    11
 71
     3
 72
    26
 73
    22
 74
     0
 42
0.00000001
 43
0.00000001
 40
0.0
 40
0.0
 40
0.0
 40
0.0
 40
0.0536887269338528
 40
0.1073774538676359
 40
0.1610661808015494
 40
0.2147549077353988
 40
0.2684436346692479
 40
0.3221323616030956
 40
0.3758210885369479
 40
0.4295098154707998
 40
0.4831985424046523
 40
0.5368872693384771
 40
0.5905759962717988
 40
0.6442647232060026
 40
0.6979534501400418
 40
0.751642177073892
 40
0.8053309040077407
 40
0.8590196309415474
 40
0.9127083578754428
 40
0.9663970848092819
 40
1.0
 40
1.0
 40
1.0
 40
1.0
 10
-130.757234901703
 20
-13.85083557283306
 30
0.0
 10
-130.8359486016892
 20
-13.85857505145868
 30
0.0
 10
-130.9933760016616
 20
-13.87405400870991
 30
0.0
 10
-131.2028939839099
 20
-13.9947208992306
 30
0.0
 10
-131.362167285301
 20
-14.1724193218518
 30
0.0
 10
-131.4532390493164
 20
-14.39429955418938
 30
0.0
 10
-131.4658416253952
 20
-14.63342122200927
 30
0.0
 10
-131.3985541687479
 20
-14.86334098906699
 30
0.0
 10
-131.2589628294475
 20
-15.05799893538001
 30
0.0
 10
-131.0628054729818
 20
-15.19548587769862
 30
0.0
 10
-130.8321973499745
 20
-15.260291322307
 30
0.0
 10
-130.5931377893309
 20
-15.24511145900468
 30
0.0
 10
-130.3725788968868
 20
-15.15165753781859
 30
0.0
 10
-130.1953871869936
 20
-14.99046392500259
 30
0.0
 10
-130.0815390376455
 20
-14.77971155979618
 30
0.0
 10
-130.0438723643752
 20
-14.54313269841603
 30
0.0
 10
-130.0866248407537
 20
-14.30750612766093
 30
0.0
 10
-130.2050098815005
 20
-14.09900017098727
 30
0.0
 10
-130.3855557009348
 20
-13.94260311848261
 30
0.0
 10
-130.5805862991838
 20
-13.86191663315442
 30
0.0
 10
-130.7081350237529
 20
-13.85391557857088
 30
0.0
 10
-130.757234901703
 20
-13.85083557283306
 30
0.0
  0
SPLINE
  5
CC
330
1F
100
AcDbEntity
  8
0
  6
Continuous
 62
     7
370
    25
100
AcDbSpline
210
0.0
220
0.0
230
1.0
 70
    11
 71
     3
 72
    26
 73
    22
 74
     0
 42
0.00000001
 43
0.00000001
 40
0.0
 40
0.0
 40
0.0
 40
0.0
 40
0.0536887269338465
 40
0.1073774538676413
 40
0.1610661808015545
 40
0.2147549077354021
 40
0.2684436346692412
 40
0.3221323616031022
 40
0.3758210885369517
 40
0.4295098154707973
 40
0.4831985424046492
 40
0.5368872693384799
 40
0.590575996271809
 40
0.6442647232059998
 40
0.6979534501400405
 40
0.7516421770738935
 40
0.8053309040077388
 40
0.859019630941548
 40
0.912708357875443
 40
0.9663970848092884
 40
1.0
 40
1.0
 40
1.0
 40
1.0
 10
-133.297234901703
 20
-13.85083557283307
 30
0.0
 10
-133.3759486016893
 20
-13.85857505145869
 30
0.0
 10
-133.5333760016617
 20
-13.87405400870994
 30
0.0
 10
-133.7428939839099
 20
-13.99472089923058
 30
0.0
 10
-133.9021672853009
 20
-14.17241932185181
 30
0.0
 10
-133.9932390493165
 20
-14.39429955418938
 30
0.0
 10
-134.0058416253951
 20
-14.63342122200926
 30
0.0
 10
-133.938554168748
 20
-14.86334098906699
 30
0.0
 10
-133.7989628294474
 20
-15.05799893538001
 30
0.0
 10
-133.6028054729818
 20
-15.19548587769864
 30
0.0
 10
-133.3721973499745
 20
-15.260291322307
 30
0.0
 10
-133.1331377893309
 20
-15.24511145900469
 30
0.0
 10
-132.9125788968867
 20
-15.15165753781859
 30
0.0
 10
-132.7353871869937
 20
-14.99046392500257
 30
0.0
 10
-132.6215390376454
 20
-14.77971155979619
 30
0.0
 10
-132.5838723643752
 20
-14.54313269841604
 30
0.0
 10
-132.6266248407536
 20
-14.30750612766093
 30
0.0
 10
-132.7450098815006
 20
-14.09900017098728
 30
0.0
 10
-132.9255557009347
 20
-13.94260311848259
 30
0.0
 10
-133.1205862991837
 20
-13.86191663315442
 30
0.0
 10
-133.2481350237529
 20
-13.85391557857088
 30
0.0
 10
-133.297234901703
 20
-13.85083557283306
 30
0.0
  0
SPLINE
  5
CD
330
1F
100
AcDbEntity
  8
0
  6
Continuous
 62
     7
370
    25
100
AcDbSpline
210
0.0
220
0.0
230
1.0
 70
    11
 71
     3
 72
    26
 73
    22
 74
     0
 42
0.00000001
 43
0.00000001
 40
0.0
 40
0.0
 40
0.0
 40
0.0
 40
0.0536887269338466
 40
0.1073774538676359
 40
0.1610661808015479
 40
0.2147549077353927
 40
0.2684436346692417
 40
0.3221323616030952
 40
0.3758210885369435
 40
0.4295098154707918
 40
0.4831985424046433
 40
0.5368872693384675
 40
0.5905759962717949
 40
0.6442647232059938
 40
0.697953450140036
 40
0.7516421770738859
 40
0.8053309040077348
 40
0.85901963094154
 40
0.912708357875435
 40
0.9663970848092822
 40
1.0
 40
1.0
 40
1.0
 40
1.0
 10
-130.757234901703
 20
-11.31083557283306
 30
0.0
 10
-130.8359486016892
 20
-11.31857505145869
 30
0.0
 10
-130.9933760016616
 20
-11.33405400870992
 30
0.0
 10
-131.2028939839099
 20
-11.4547208992306
 30
0.0
 10
-131.3621672853009
 20
-11.6324193218518
 30
0.0
 10
-131.4532390493164
 20
-11.85429955418937
 30
0.0
 10
-131.4658416253951
 20
-12.09342122200925
 30
0.0
 10
-131.3985541687479
 20
-12.32334098906699
 30
0.0
 10
-131.2589628294475
 20
-12.51799893537999
 30
0.0
 10
-131.0628054729818
 20
-12.65548587769864
 30
0.0
 10
-130.8321973499745
 20
-12.72029132230698
 30
0.0
 10
-130.5931377893309
 20
-12.7051114590047
 30
0.0
 10
-130.3725788968868
 20
-12.61165753781862
 30
0.0
 10
-130.1953871869937
 20
-12.45046392500259
 30
0.0
 10
-130.0815390376454
 20
-12.23971155979619
 30
0.0
 10
-130.0438723643753
 20
-12.00313269841606
 30
0.0
 10
-130.0866248407535
 20
-11.76750612766092
 30
0.0
 10
-130.2050098815006
 20
-11.55900017098729
 30
0.0
 10
-130.3855557009347
 20
-11.40260311848262
 30
0.0
 10
-130.5805862991838
 20
-11.3219166331544
 30
0.0
 10
-130.7081350237529
 20
-11.31391557857087
 30
0.0
 10
-130.757234901703
 20
-11.31083557283306
 30
0.0
  0
SPLINE
  5
CE
330
1F
100
AcDbEntity
  8
0
  6
Continuous
 62
     7
370
    25
100
AcDbSpline
210
0.0
220
0.0
230
1.0
 70
    11
 71
     3
 72
    26
 73
    22
 74
     0
 42
0.00000001
 43
0.00000001
 40
0.0
 40
0.0
 40
0.0
 40
0.0
 40
0.0536887269338536
 40
0.1073774538676476
 40
0.1610661808015578
 40
0.2147549077354055
 40
0.2684436346692525
 40
0.3221323616031014
 40
0.375821088536951
 40
0.4295098154708045
 40
0.4831985424046616
 40
0.5368872693384863
 40
0.5905759962718079
 40
0.6442647232060078
 40
0.6979534501400538
 40
0.7516421770739006
 40
0.8053309040077518
 40
0.859019630941561
 40
0.9127083578754508
 40
0.9663970848093015
 40
1.0
 40
1.0
 40
1.0
 40
1.0
 10
-133.297234901703
 20
-11.31083557283306
 30
0.0
 10
-133.3759486016892
 20
-11.3185750514587
 30
0.0
 10
-133.5333760016616
 20
-11.33405400870996
 30
0.0
 10
-133.7428939839099
 20
-11.45472089923059
 30
0.0
 10
-133.9021672853009
 20
-11.63241932185184
 30
0.0
 10
-133.9932390493164
 20
-11.8542995541894
 30
0.0
 10
-134.0058416253951
 20
-12.09342122200929
 30
0.0
 10
-133.938554168748
 20
-12.32334098906701
 30
0.0
 10
-133.7989628294474
 20
-12.51799893538002
 30
0.0
 10
-133.6028054729818
 20
-12.65548587769866
 30
0.0
 10
-133.3721973499745
 20
-12.72029132230701
 30
0.0
 10
-133.1331377893309
 20
-12.70511145900467
 30
0.0
 10
-132.9125788968868
 20
-12.61165753781859
 30
0.0
 10
-132.7353871869936
 20
-12.45046392500256
 30
0.0
 10
-132.6215390376455
 20
-12.23971155979614
 30
0.0
 10
-132.5838723643752
 20
-12.00313269841599
 30
0.0
 10
-132.6266248407537
 20
-11.76750612766088
 30
0.0
 10
-132.7450098815005
 20
-11.55900017098722
 30
0.0
 10
-132.9255557009348
 20
-11.40260311848258
 30
0.0
 10
-133.1205862991839
 20
-11.32191663315441
 30
0.0
 10
-133.2481350237529
 20
-11.31391557857088
 30
0.0
 10
-133.297234901703
 20
-11.31083557283306
 30
0.0
  0
SPLINE
  5
CF
330
1F
100
AcDbEntity
  8
0
  6
Continuous
 62
     7
370
    25
100
AcDbSpline
210
0.0
220
0.0
230
1.0
 70
    11
 71
     3
 72
    26
 73
    22
 74
     0
 42
0.00000001
 43
0.00000001
 40
0.0
 40
0.0
 40
0.0
 40
0.0
 40
0.0536887269338472
 40
0.1073774538676345
 40
0.1610661808015474
 40
0.2147549077353934
 40
0.2684436346692395
 40
0.3221323616030888
 40
0.3758210885369475
 40
0.4295098154707952
 40
0.4831985424046413
 40
0.5368872693384661
 40
0.5905759962717938
 40
0.6442647232059977
 40
0.6979534501400356
 40
0.7516421770738906
 40
0.8053309040077336
 40
0.859019630941545
 40
0.9127083578754435
 40
0.9663970848092821
 40
1.0
 40
1.0
 40
1.0
 40
1.0
 10
-130.757234901703
 20
-1.150835572833069
 30
0.0
 10
-130.8359486016892
 20
-1.158575051458697
 30
0.0
 10
-130.9933760016616
 20
-1.174054008709947
 30
0.0
 10
-131.2028939839099
 20
-1.294720899230571
 30
0.0
 10
-131.3621672853009
 20
-1.472419321851834
 30
0.0
 10
-131.4532390493165
 20
-1.694299554189374
 30
0.0
 10
-131.4658416253952
 20
-1.933421222009256
 30
0.0
 10
-131.3985541687479
 20
-2.163340989066986
 30
0.0
 10
-131.2589628294475
 20
-2.357998935379993
 30
0.0
 10
-131.0628054729818
 20
-2.495485877698635
 30
0.0
 10
-130.8321973499746
 20
-2.560291322307004
 30
0.0
 10
-130.5931377893309
 20
-2.545111459004686
 30
0.0
 10
-130.3725788968868
 20
-2.451657537818605
 30
0.0
 10
-130.1953871869937
 20
-2.2904639250026
 30
0.0
 10
-130.0815390376454
 20
-2.079711559796183
 30
0.0
 10
-130.0438723643753
 20
-1.843132698416053
 30
0.0
 10
-130.0866248407536
 20
-1.607506127660915
 30
0.0
 10
-130.2050098815005
 20
-1.399000170987297
 30
0.0
 10
-130.3855557009348
 20
-1.24260311848259
 30
0.0
 10
-130.5805862991837
 20
-1.161916633154418
 30
0.0
 10
-130.7081350237529
 20
-1.153915578570882
 30
0.0
 10
-130.757234901703
 20
-1.150835572833069
 30
0.0
  0
SPLINE
  5
D0
330
1F
100
AcDbEntity
  8
0
  6
Continuous
 62
     7
370
    25
100
AcDbSpline
210
0.0
220
0.0
230
1.0
 70
    11
 71
     3
 72
    26
 73
    22
 74
     0
 42
0.00000001
 43
0.00000001
 40
0.0
 40
0.0
 40
0.0
 40
0.0
 40
0.0536887269338409
 40
0.1073774538676147
 40
0.161066180801532
 40
0.2147549077353887
 40
0.2684436346692241
 40
0.3221323616030803
 40
0.375821088536939
 40
0.4295098154707805
 40
0.4831985424046211
 40
0.5368872693384387
 40
0.5905759962717916
 40
0.6442647232060111
 40
0.6979534501400462
 40
0.7516421770738912
 40
0.8053309040077319
 40
0.8590196309415346
 40
0.9127083578754382
 40
0.9663970848092881
 40
1.0
 40
1.0
 40
1.0
 40
1.0
 10
94.24276509830679
 20
-5.0908355729707
 30
0.0
 10
94.32147879829301
 20
-5.083096094345073
 30
0.0
 10
94.47890619826539
 20
-5.067617137093829
 30
0.0
 10
94.68842418051358
 20
-4.946950246573175
 30
0.0
 10
94.84769748190472
 20
-4.769251823952029
 30
0.0
 10
94.93876924592023
 20
-4.547371591614418
 30
0.0
 10
94.95137182199889
 20
-4.308249923794554
 30
0.0
 10
94.8840843653519
 20
-4.078330156736794
 30
0.0
 10
94.74449302605127
 20
-3.883672210423792
 30
0.0
 10
94.54833566958567
 20
-3.74618526810515
 30
0.0
 10
94.31772754657842
 20
-3.681379823496783
 30
0.0
 10
94.0786679859348
 20
-3.696559686799043
 30
0.0
 10
93.85810909349065
 20
-3.790013607985132
 30
0.0
 10
93.68091738359745
 20
-3.951207220801164
 30
0.0
 10
93.56706923424919
 20
-4.161959586007599
 30
0.0
 10
93.52940256097918
 20
-4.39853844738771
 30
0.0
 10
93.57215503735732
 20
-4.634165018142835
 30
0.0
 10
93.69054007810435
 20
-4.842670974816437
 30
0.0
 10
93.87108589753852
 20
-4.999068027321196
 30
0.0
 10
94.06611649578754
 20
-5.07975451264932
 30
0.0
 10
94.19366522035668
 20
-5.087755567232879
 30
0.0
 10
94.24276509830679
 20
-5.0908355729707
 30
0.0
  0
SPLINE
  5
D1
330
1F
100
AcDbEntity
  8
0
  6
Continuous
 62
     7
370
    25
100
AcDbSpline
210
0.0
220
0.0
230
1.0
 70
    11
 71
     3
 72
    26
 73
    22
 74
     0
 42
0.00000001
 43
0.00000001
 40
0.0
 40
0.0
 40
0.0
 40
0.0
 40
0.0536887269338528
 40
0.1073774538676381
 40
0.1610661808015454
 40
0.214754907735396
 40
0.2684436346692371
 40
0.3221323616030952
 40
0.3758210885369409
 40
0.42950981547079
 40
0.483198542404642
 40
0.5368872693384726
 40
0.5905759962718077
 40
0.6442647232059997
 40
0.6979534501400416
 40
0.7516421770738978
 40
0.8053309040077358
 40
0.8590196309415482
 40
0.9127083578754444
 40
0.9663970848092951
 40
1.0
 40
1.0
 40
1.0
 40
1.0
 10
-130.757234901703
 20
1.389164427166932
 30
0.0
 10
-130.8359486016892
 20
1.381424948541312
 30
0.0
 10
-130.9933760016616
 20
1.365945991290083
 30
0.0
 10
-131.2028939839098
 20
1.245279100769374
 30
0.0
 10
-131.3621672853009
 20
1.067580678148204
 30
0.0
 10
-131.4532390493164
 20
0.8457004458106223
 30
0.0
 10
-131.4658416253952
 20
0.6065787779907448
 30
0.0
 10
-131.398554168748
 20
0.3766590109330111
 30
0.0
 10
-131.2589628294475
 20
0.1820010646200205
 30
0.0
 10
-131.0628054729818
 20
0.0445141223013642
 30
0.0
 10
-130.8321973499745
 20
-0.0202913223069905
 30
0.0
 10
-130.5931377893309
 20
-0.0051114590046905
 30
0.0
 10
-130.3725788968868
 20
0.088342462181399
 30
0.0
 10
-130.1953871869936
 20
0.24953607499743
 30
0.0
 10
-130.0815390376455
 20
0.4602884402038418
 30
0.0
 10
-130.0438723643753
 20
0.6968673015839734
 30
0.0
 10
-130.0866248407535
 20
0.9324938723391067
 30
0.0
 10
-130.2050098815006
 20
1.140999829012723
 30
0.0
 10
-130.3855557009348
 20
1.297396881517429
 30
0.0
 10
-130.5805862991838
 20
1.378083366845591
 30
0.0
 10
-130.708135023753
 20
1.386084421429122
 30
0.0
 10
-130.757234901703
 20
1.389164427166932
 30
0.0
  0
SPLINE
  5
D2
330
1F
100
AcDbEntity
  8
0
  6
Continuous
 62
     7
370
    25
100
AcDbSpline
210
0.0
220
0.0
230
1.0
 70
    11
 71
     3
 72
    26
 73
    22
 74
     0
 42
0.00000001
 43
0.00000001
 40
0.0
 40
0.0
 40
0.0
 40
0.0
 40
0.0536887269338338
 40
0.1073774538676124
 40
0.1610661808015296
 40
0.2147549077353888
 40
0.2684436346692278
 40
0.3221323616030778
 40
0.3758210885369189
 40
0.4295098154707694
 40
0.4831985424046246
 40
0.5368872693384491
 40
0.5905759962717794
 40
0.6442647232059822
 40
0.6979534501400246
 40
0.7516421770738774
 40
0.8053309040077343
 40
0.8590196309415339
 40
0.912708357875428
 40
0.9663970848092749
 40
1.0
 40
1.0
 40
1.0
 40
1.0
 10
94.24276509830682
 20
-2.550835572970693
 30
0.0
 10
94.32147879829304
 20
-2.543096094345071
 30
0.0
 10
94.47890619826543
 20
-2.527617137093836
 30
0.0
 10
94.68842418051358
 20
-2.406950246573204
 30
0.0
 10
94.84769748190473
 20
-2.22925182395204
 30
0.0
 10
94.93876924592028
 20
-2.007371591614442
 30
0.0
 10
94.95137182199888
 20
-1.768249923794566
 30
0.0
 10
94.88408436535185
 20
-1.538330156736835
 30
0.0
 10
94.74449302605136
 20
-1.343672210423811
 30
0.0
 10
94.54833566958568
 20
-1.206185268105182
 30
0.0
 10
94.31772754657842
 20
-1.141379823496746
 30
0.0
 10
94.07866798593483
 20
-1.156559686799076
 30
0.0
 10
93.85810909349065
 20
-1.250013607985091
 30
0.0
 10
93.68091738359756
 20
-1.411207220801118
 30
0.0
 10
93.56706923424932
 20
-1.621959586007518
 30
0.0
 10
93.52940256097907
 20
-1.858538447387669
 30
0.0
 10
93.57215503735742
 20
-2.094165018142805
 30
0.0
 10
93.69054007810432
 20
-2.302670974816456
 30
0.0
 10
93.87108589753856
 20
-2.459068027321116
 30
0.0
 10
94.06611649578754
 20
-2.539754512649311
 30
0.0
 10
94.19366522035672
 20
-2.54775556723287
 30
0.0
 10
94.24276509830682
 20
-2.550835572970693
 30
0.0
  0
SPLINE
  5
D3
330
1F
100
AcDbEntity
  8
0
  6
Continuous
 62
     7
370
    25
100
AcDbSpline
210
0.0
220
0.0
230
1.0
 70
    11
 71
     3
 72
    26
 73
    22
 74
     0
 42
0.00000001
 43
0.00000001
 40
0.0
 40
0.0
 40
0.0
 40
0.0
 40
0.0536887269338599
 40
0.1073774538676492
 40
0.1610661808015559
 40
0.2147549077354109
 40
0.2684436346692597
 40
0.3221323616031134
 40
0.3758210885369628
 40
0.4295098154708085
 40
0.4831985424046531
 40
0.5368872693384841
 40
0.5905759962718132
 40
0.6442647232060085
 40
0.6979534501400563
 40
0.7516421770739037
 40
0.8053309040077611
 40
0.859019630941558
 40
0.9127083578754578
 40
0.9663970848093145
 40
1.0
 40
1.0
 40
1.0
 40
1.0
 10
-133.297234901703
 20
-1.150835572833069
 30
0.0
 10
-133.3759486016893
 20
-1.158575051458699
 30
0.0
 10
-133.5333760016617
 20
-1.174054008709948
 30
0.0
 10
-133.7428939839099
 20
-1.294720899230611
 30
0.0
 10
-133.902167285301
 20
-1.472419321851839
 30
0.0
 10
-133.9932390493165
 20
-1.694299554189428
 30
0.0
 10
-134.0058416253951
 20
-1.933421222009325
 30
0.0
 10
-133.938554168748
 20
-2.163340989067055
 30
0.0
 10
-133.7989628294474
 20
-2.357998935380031
 30
0.0
 10
-133.6028054729817
 20
-2.495485877698659
 30
0.0
 10
-133.3721973499745
 20
-2.560291322307003
 30
0.0
 10
-133.1331377893308
 20
-2.545111459004674
 30
0.0
 10
-132.9125788968867
 20
-2.451657537818584
 30
0.0
 10
-132.7353871869937
 20
-2.290463925002526
 30
0.0
 10
-132.6215390376454
 20
-2.079711559796138
 30
0.0
 10
-132.5838723643753
 20
-1.843132698415967
 30
0.0
 10
-132.6266248407536
 20
-1.607506127660855
 30
0.0
 10
-132.7450098815006
 20
-1.399000170987224
 30
0.0
 10
-132.9255557009348
 20
-1.242603118482554
 30
0.0
 10
-133.1205862991838
 20
-1.161916633154394
 30
0.0
 10
-133.2481350237529
 20
-1.153915578570874
 30
0.0
 10
-133.297234901703
 20
-1.150835572833069
 30
0.0
  0
SPLINE
  5
D4
330
1F
100
AcDbEntity
  8
0
  6
Continuous
 62
     7
370
    25
100
AcDbSpline
210
0.0
220
0.0
230
1.0
 70
    11
 71
     3
 72
    26
 73
    22
 74
     0
 42
0.00000001
 43
0.00000001
 40
0.0
 40
0.0
 40
0.0
 40
0.0
 40
0.0536887269338526
 40
0.10737745386764
 40
0.1610661808015441
 40
0.2147549077353998
 40
0.2684436346692418
 40
0.3221323616030994
 40
0.3758210885369372
 40
0.4295098154707975
 40
0.4831985424046492
 40
0.5368872693384795
 40
0.5905759962718008
 40
0.6442647232060005
 40
0.6979534501400368
 40
0.7516421770738896
 40
0.8053309040077367
 40
0.8590196309415388
 40
0.9127083578754357
 40
0.9663970848092885
 40
1.0
 40
1.0
 40
1.0
 40
1.0
 10
-133.297234901703
 20
-3.690835572833069
 30
0.0
 10
-133.3759486016893
 20
-3.698575051458694
 30
0.0
 10
-133.5333760016617
 20
-3.714054008709932
 30
0.0
 10
-133.7428939839098
 20
-3.834720899230573
 30
0.0
 10
-133.9021672853009
 20
-4.012419321851797
 30
0.0
 10
-133.9932390493165
 20
-4.23429955418936
 30
0.0
 10
-134.0058416253951
 20
-4.473421222009255
 30
0.0
 10
-133.938554168748
 20
-4.703340989066986
 30
0.0
 10
-133.7989628294475
 20
-4.897998935379995
 30
0.0
 10
-133.6028054729818
 20
-5.035485877698619
 30
0.0
 10
-133.3721973499745
 20
-5.100291322306984
 30
0.0
 10
-133.1331377893309
 20
-5.085111459004699
 30
0.0
 10
-132.9125788968868
 20
-4.991657537818606
 30
0.0
 10
-132.7353871869936
 20
-4.830463925002578
 30
0.0
 10
-132.6215390376454
 20
-4.619711559796207
 30
0.0
 10
-132.5838723643753
 20
-4.383132698416064
 30
0.0
 10
-132.6266248407535
 20
-4.147506127660936
 30
0.0
 10
-132.7450098815005
 20
-3.939000170987313
 30
0.0
 10
-132.9255557009348
 20
-3.782603118482619
 30
0.0
 10
-133.1205862991837
 20
-3.701916633154422
 30
0.0
 10
-133.2481350237529
 20
-3.693915578570884
 30
0.0
 10
-133.297234901703
 20
-3.690835572833069
 30
0.0
  0
SPLINE
  5
D5
330
1F
100
AcDbEntity
  8
0
  6
Continuous
 62
     7
370
    25
100
AcDbSpline
210
0.0
220
0.0
230
1.0
 70
    11
 71
     3
 72
    26
 73
    22
 74
     0
 42
0.00000001
 43
0.00000001
 40
0.0
 40
0.0
 40
0.0
 40
0.0
 40
0.0536887269338529
 40
0.107377453867647
 40
0.1610661808015542
 40
0.2147549077354044
 40
0.2684436346692451
 40
0.3221323616030954
 40
0.3758210885369525
 40
0.4295098154708061
 40
0.4831985424046511
 40
0.5368872693384755
 40
0.590575996271803
 40
0.6442647232060019
 40
0.6979534501400481
 40
0.7516421770738975
 40
0.8053309040077398
 40
0.8590196309415591
 40
0.9127083578754432
 40
0.9663970848092881
 40
1.0
 40
1.0
 40
1.0
 40
1.0
 10
-133.297234901703
 20
1.389164427166932
 30
0.0
 10
-133.3759486016893
 20
1.381424948541307
 30
0.0
 10
-133.5333760016617
 20
1.365945991290064
 30
0.0
 10
-133.7428939839099
 20
1.245279100769436
 30
0.0
 10
-133.9021672853009
 20
1.067580678148152
 30
0.0
 10
-133.9932390493165
 20
0.8457004458106189
 30
0.0
 10
-134.0058416253951
 20
0.6065787779907396
 30
0.0
 10
-133.938554168748
 20
0.3766590109330007
 30
0.0
 10
-133.7989628294474
 20
0.1820010646199927
 30
0.0
 10
-133.6028054729818
 20
0.0445141223013555
 30
0.0
 10
-133.3721973499745
 20
-0.0202913223069992
 30
0.0
 10
-133.1331377893309
 20
-0.0051114590046836
 30
0.0
 10
-132.9125788968868
 20
0.0883424621813886
 30
0.0
 10
-132.7353871869936
 20
0.2495360749974179
 30
0.0
 10
-132.6215390376455
 20
0.4602884402038435
 30
0.0
 10
-132.5838723643752
 20
0.6968673015839699
 30
0.0
 10
-132.6266248407536
 20
0.9324938723390981
 30
0.0
 10
-132.7450098815006
 20
1.140999829012737
 30
0.0
 10
-132.9255557009348
 20
1.297396881517405
 30
0.0
 10
-133.1205862991837
 20
1.378083366845568
 30
0.0
 10
-133.2481350237529
 20
1.386084421429115
 30
0.0
 10
-133.297234901703
 20
1.389164427166932
 30
0.0
  0
SPLINE
  5
D6
330
1F
100
AcDbEntity
  8
0
  6
Continuous
 62
     7
370
    25
100
AcDbSpline
210
0.0
220
0.0
230
1.0
 70
    11
 71
     3
 72
    26
 73
    22
 74
     0
 42
0.00000001
 43
0.00000001
 40
0.0
 40
0.0
 40
0.0
 40
0.0
 40
0.0536887269338474
 40
0.1073774538676416
 40
0.1610661808015486
 40
0.214754907735398
 40
0.2684436346692393
 40
0.3221323616030961
 40
0.3758210885369432
 40
0.4295098154707989
 40
0.483198542404651
 40
0.5368872693384757
 40
0.590575996271804
 40
0.6442647232059996
 40
0.6979534501400447
 40
0.7516421770738996
 40
0.8053309040077421
 40
0.8590196309415575
 40
0.9127083578754428
 40
0.9663970848092884
 40
1.0
 40
1.0
 40
1.0
 40
1.0
 10
-130.757234901703
 20
-16.39083557283304
 30
0.0
 10
-130.8359486016892
 20
-16.39857505145867
 30
0.0
 10
-130.9933760016617
 20
-16.41405400870994
 30
0.0
 10
-131.2028939839098
 20
-16.53472089923056
 30
0.0
 10
-131.3621672853009
 20
-16.7124193218518
 30
0.0
 10
-131.4532390493164
 20
-16.93429955418936
 30
0.0
 10
-131.4658416253951
 20
-17.17342122200924
 30
0.0
 10
-131.398554168748
 20
-17.40334098906697
 30
0.0
 10
-131.2589628294475
 20
-17.59799893537997
 30
0.0
 10
-131.0628054729818
 20
-17.73548587769862
 30
0.0
 10
-130.8321973499745
 20
-17.80029132230699
 30
0.0
 10
-130.5931377893309
 20
-17.78511145900466
 30
0.0
 10
-130.3725788968868
 20
-17.69165753781859
 30
0.0
 10
-130.1953871869937
 20
-17.53046392500253
 30
0.0
 10
-130.0815390376454
 20
-17.31971155979614
 30
0.0
 10
-130.0438723643753
 20
-17.08313269841599
 30
0.0
 10
-130.0866248407536
 20
-16.84750612766086
 30
0.0
 10
-130.2050098815006
 20
-16.63900017098723
 30
0.0
 10
-130.3855557009348
 20
-16.48260311848257
 30
0.0
 10
-130.5805862991838
 20
-16.40191663315439
 30
0.0
 10
-130.7081350237529
 20
-16.39391557857085
 30
0.0
 10
-130.757234901703
 20
-16.39083557283304
 30
0.0
  0
SPLINE
  5
D7
330
1F
100
AcDbEntity
  8
0
  6
Continuous
 62
     7
370
    25
100
AcDbSpline
210
0.0
220
0.0
230
1.0
 70
    11
 71
     3
 72
    26
 73
    22
 74
     0
 42
0.00000001
 43
0.00000001
 40
0.0
 40
0.0
 40
0.0
 40
0.0
 40
0.0536887269338401
 40
0.1073774538676177
 40
0.1610661808015375
 40
0.2147549077353983
 40
0.268443634669228
 40
0.3221323616030937
 40
0.3758210885369294
 40
0.4295098154707875
 40
0.4831985424046342
 40
0.5368872693384648
 40
0.590575996271805
 40
0.6442647232059828
 40
0.6979534501400321
 40
0.7516421770738789
 40
0.8053309040077399
 40
0.8590196309415474
 40
0.9127083578754415
 40
0.9663970848092693
 40
0.9999999999999999
 40
0.9999999999999999
 40
0.9999999999999999
 40
0.9999999999999999
 10
94.24276509830679
 20
-7.630835572970694
 30
0.0
 10
94.321478798293
 20
-7.623096094345067
 30
0.0
 10
94.47890619826538
 20
-7.607617137093827
 30
0.0
 10
94.68842418051364
 20
-7.486950246573219
 30
0.0
 10
94.84769748190467
 20
-7.309251823951982
 30
0.0
 10
94.93876924592033
 20
-7.087371591614444
 30
0.0
 10
94.95137182199892
 20
-6.848249923794536
 30
0.0
 10
94.88408436535182
 20
-6.618330156736831
 30
0.0
 10
94.74449302605133
 20
-6.423672210423796
 30
0.0
 10
94.54833566958567
 20
-6.286185268105157
 30
0.0
 10
94.31772754657838
 20
-6.221379823496767
 30
0.0
 10
94.07866798593479
 20
-6.236559686799063
 30
0.0
 10
93.85810909349067
 20
-6.330013607985125
 30
0.0
 10
93.68091738359755
 20
-6.491207220801138
 30
0.0
 10
93.56706923424923
 20
-6.701959586007496
 30
0.0
 10
93.52940256097911
 20
-6.938538447387669
 30
0.0
 10
93.57215503735746
 20
-7.1741650181428
 30
0.0
 10
93.69054007810429
 20
-7.382670974816488
 30
0.0
 10
93.87108589753859
 20
-7.539068027321128
 30
0.0
 10
94.06611649578754
 20
-7.619754512649352
 30
0.0
 10
94.19366522035666
 20
-7.627755567232883
 30
0.0
 10
94.24276509830679
 20
-7.630835572970694
 30
0.0
  0
SPLINE
  5
D8
330
1F
100
AcDbEntity
  8
0
  6
Continuous
 62
     7
370
    25
100
AcDbSpline
210
0.0
220
0.0
230
1.0
 70
    11
 71
     3
 72
    26
 73
    22
 74
     0
 42
0.00000001
 43
0.00000001
 40
0.0
 40
0.0
 40
0.0
 40
0.0
 40
0.0536887269338667
 40
0.1073774538676499
 40
0.1610661808015705
 40
0.2147549077354234
 40
0.2684436346692596
 40
0.322132361603109
 40
0.3758210885369689
 40
0.4295098154708216
 40
0.4831985424046681
 40
0.5368872693384743
 40
0.5905759962718168
 40
0.6442647232060212
 40
0.6979534501400689
 40
0.751642177073902
 40
0.8053309040077397
 40
0.8590196309415623
 40
0.9127083578754492
 40
0.9663970848093203
 40
1.0
 40
1.0
 40
1.0
 40
1.0
 10
94.24276509830679
 20
-0.0108355729707202
 30
0.0
 10
94.32147879829306
 20
-0.0030960943450901
 30
0.0
 10
94.4789061982655
 20
0.0123828629061597
 30
0.0
 10
94.6884241805137
 20
0.1330497534268397
 30
0.0
 10
94.84769748190482
 20
0.3107481760480854
 30
0.0
 10
94.93876924592024
 20
0.5326284083856815
 30
0.0
 10
94.95137182199892
 20
0.7717500762055521
 30
0.0
 10
94.88408436535171
 20
1.001669843263251
 30
0.0
 10
94.74449302605125
 20
1.196327789576301
 30
0.0
 10
94.54833566958548
 20
1.333814731894843
 30
0.0
 10
94.31772754657825
 20
1.398620176503268
 30
0.0
 10
94.07866798593467
 20
1.383440313200869
 30
0.0
 10
93.85810909349058
 20
1.289986392014806
 30
0.0
 10
93.68091738359739
 20
1.128792779198723
 30
0.0
 10
93.56706923424922
 20
0.9180404139923233
 30
0.0
 10
93.52940256097916
 20
0.6814615526122038
 30
0.0
 10
93.5721550373573
 20
0.4458349818570844
 30
0.0
 10
93.69054007810438
 20
0.2373290251834574
 30
0.0
 10
93.8710858975386
 20
0.080931972678791
 30
0.0
 10
94.06611649578765
 20
0.0002454873506298
 30
0.0
 10
94.19366522035673
 20
-0.0077555672329081
 30
0.0
 10
94.24276509830679
 20
-0.0108355729707202
 30
0.0
  0
SPLINE
  5
D9
330
1F
100
AcDbEntity
  8
0
  6
Continuous
 62
     7
370
    25
100
AcDbSpline
210
0.0
220
0.0
230
1.0
 70
    11
 71
     3
 72
    26
 73
    22
 74
     0
 42
0.00000001
 43
0.00000001
 40
0.0
 40
0.0
 40
0.0
 40
0.0
 40
0.0536887269338474
 40
0.1073774538676346
 40
0.1610661808015469
 40
0.2147549077353934
 40
0.26844363466923
 40
0.3221323616030929
 40
0.3758210885369453
 40
0.429509815470792
 40
0.4831985424046443
 40
0.5368872693384752
 40
0.5905759962718022
 40
0.6442647232060046
 40
0.697953450140044
 40
0.7516421770738978
 40
0.8053309040077423
 40
0.8590196309415478
 40
0.9127083578754441
 40
0.9663970848092945
 40
1.0
 40
1.0
 40
1.0
 40
1.0
 10
-130.757234901703
 20
-8.770835572833063
 30
0.0
 10
-130.8359486016892
 20
-8.778575051458695
 30
0.0
 10
-130.9933760016616
 20
-8.794054008709947
 30
0.0
 10
-131.2028939839099
 20
-8.914720899230588
 30
0.0
 10
-131.3621672853009
 20
-9.092419321851795
 30
0.0
 10
-131.4532390493165
 20
-9.31429955418936
 30
0.0
 10
-131.4658416253951
 20
-9.553421222009232
 30
0.0
 10
-131.398554168748
 20
-9.783340989066968
 30
0.0
 10
-131.2589628294475
 20
-9.977998935379997
 30
0.0
 10
-131.0628054729818
 20
-10.11548587769863
 30
0.0
 10
-130.8321973499745
 20
-10.18029132230699
 30
0.0
 10
-130.5931377893309
 20
-10.16511145900468
 30
0.0
 10
-130.3725788968868
 20
-10.07165753781862
 30
0.0
 10
-130.1953871869937
 20
-9.91046392500257
 30
0.0
 10
-130.0815390376454
 20
-9.699711559796166
 30
0.0
 10
-130.0438723643753
 20
-9.46313269841602
 30
0.0
 10
-130.0866248407535
 20
-9.227506127660895
 30
0.0
 10
-130.2050098815006
 20
-9.019000170987272
 30
0.0
 10
-130.3855557009348
 20
-8.862603118482571
 30
0.0
 10
-130.5805862991838
 20
-8.781916633154427
 30
0.0
 10
-130.7081350237529
 20
-8.773915578570882
 30
0.0
 10
-130.757234901703
 20
-8.770835572833063
 30
0.0
  0
SPLINE
  5
DA
330
1F
100
AcDbEntity
  8
0
  6
Continuous
 62
     7
370
    25
100
AcDbSpline
210
0.0
220
0.0
230
1.0
 70
    11
 71
     3
 72
    26
 73
    22
 74
     0
 42
0.00000001
 43
0.00000001
 40
0.0
 40
0.0
 40
0.0
 40
0.0
 40
0.053688726933853
 40
0.107377453867641
 40
0.1610661808015407
 40
0.214754907735387
 40
0.2684436346692403
 40
0.3221323616030906
 40
0.3758210885369337
 40
0.4295098154707868
 40
0.483198542404644
 40
0.5368872693384676
 40
0.5905759962717992
 40
0.6442647232060066
 40
0.6979534501400323
 40
0.7516421770738806
 40
0.8053309040077395
 40
0.8590196309415389
 40
0.9127083578754366
 40
0.9663970848092887
 40
1.0
 40
1.0
 40
1.0
 40
1.0
 10
91.7027650983068
 20
-17.79083557297069
 30
0.0
 10
91.78147879829304
 20
-17.78309609434506
 30
0.0
 10
91.93890619826543
 20
-17.76761713709381
 30
0.0
 10
92.14842418051373
 20
-17.64695024657318
 30
0.0
 10
92.30769748190467
 20
-17.46925182395193
 30
0.0
 10
92.3987692459203
 20
-17.24737159161441
 30
0.0
 10
92.41137182199901
 20
-17.00824992379451
 30
0.0
 10
92.34408436535175
 20
-16.7783301567368
 30
0.0
 10
92.20449302605137
 20
-16.58367221042376
 30
0.0
 10
92.0083356695856
 20
-16.44618526810513
 30
0.0
 10
91.77772754657835
 20
-16.38137982349679
 30
0.0
 10
91.53866798593468
 20
-16.39655968679906
 30
0.0
 10
91.3181090934906
 20
-16.49001360798513
 30
0.0
 10
91.14091738359743
 20
-16.65120722080114
 30
0.0
 10
91.02706923424937
 20
-16.86195958600758
 30
0.0
 10
90.989402560979
 20
-17.09853844738767
 30
0.0
 10
91.03215503735737
 20
-17.33416501814282
 30
0.0
 10
91.15054007810434
 20
-17.54267097481645
 30
0.0
 10
91.33108589753856
 20
-17.69906802732115
 30
0.0
 10
91.52611649578756
 20
-17.77975451264934
 30
0.0
 10
91.65366522035673
 20
-17.78775556723288
 30
0.0
 10
91.7027650983068
 20
-17.79083557297069
 30
0.0
  0
SPLINE
  5
DB
330
1F
100
AcDbEntity
  8
0
  6
Continuous
 62
     7
370
    25
100
AcDbSpline
210
0.0
220
0.0
230
1.0
 70
    11
 71
     3
 72
    26
 73
    22
 74
     0
 42
0.00000001
 43
0.00000001
 40
0.0
 40
0.0
 40
0.0
 40
0.0
 40
0.0536887269338334
 40
0.1073774538676044
 40
0.1610661808015438
 40
0.2147549077353888
 40
0.2684436346692338
 40
0.3221323616030602
 40
0.3758210885369298
 40
0.4295098154707825
 40
0.483198542404623
 40
0.5368872693384595
 40
0.5905759962717785
 40
0.644264723205978
 40
0.6979534501400286
 40
0.7516421770738758
 40
0.8053309040077187
 40
0.859019630941527
 40
0.9127083578754218
 40
0.9663970848092689
 40
1.0
 40
1.0
 40
1.0
 40
1.0
 10
91.7027650983068
 20
-7.630835572970694
 30
0.0
 10
91.78147879829302
 20
-7.623096094345072
 30
0.0
 10
91.93890619826539
 20
-7.60761713709384
 30
0.0
 10
92.14842418051356
 20
-7.486950246573195
 30
0.0
 10
92.30769748190467
 20
-7.309251823952004
 30
0.0
 10
92.39876924592039
 20
-7.087371591614433
 30
0.0
 10
92.41137182199888
 20
-6.848249923794588
 30
0.0
 10
92.3440843653519
 20
-6.618330156736834
 30
0.0
 10
92.20449302605135
 20
-6.423672210423855
 30
0.0
 10
92.00833566958569
 20
-6.286185268105158
 30
0.0
 10
91.7777275465784
 20
-6.221379823496774
 30
0.0
 10
91.53866798593477
 20
-6.236559686799056
 30
0.0
 10
91.3181090934907
 20
-6.330013607985138
 30
0.0
 10
91.1409173835975
 20
-6.491207220801082
 30
0.0
 10
91.02706923424924
 20
-6.70195958600749
 30
0.0
 10
90.98940256097913
 20
-6.938538447387644
 30
0.0
 10
91.03215503735738
 20
-7.17416501814275
 30
0.0
 10
91.15054007810423
 20
-7.382670974816444
 30
0.0
 10
91.33108589753853
 20
-7.539068027321109
 30
0.0
 10
91.52611649578752
 20
-7.619754512649315
 30
0.0
 10
91.65366522035666
 20
-7.627755567232873
 30
0.0
 10
91.7027650983068
 20
-7.630835572970694
 30
0.0
  0
SPLINE
  5
DC
330
1F
100
AcDbEntity
  8
0
  6
Continuous
 62
     7
370
    25
100
AcDbSpline
210
0.0
220
0.0
230
1.0
 70
    11
 71
     3
 72
    26
 73
    22
 74
     0
 42
0.00000001
 43
0.00000001
 40
0.0
 40
0.0
 40
0.0
 40
0.0
 40
0.0536887269338465
 40
0.1073774538676305
 40
0.1610661808015622
 40
0.2147549077353908
 40
0.2684436346692451
 40
0.3221323616030807
 40
0.3758210885369435
 40
0.4295098154707921
 40
0.4831985424046378
 40
0.5368872693384806
 40
0.5905759962717894
 40
0.644264723205989
 40
0.6979534501400235
 40
0.7516421770738833
 40
0.8053309040077319
 40
0.8590196309415441
 40
0.9127083578754355
 40
0.9663970848092761
 40
1.0
 40
1.0
 40
1.0
 40
1.0
 10
91.7027650983068
 20
-10.1708355729707
 30
0.0
 10
91.78147879829302
 20
-10.16309609434506
 30
0.0
 10
91.93890619826543
 20
-10.14761713709381
 30
0.0
 10
92.1484241805137
 20
-10.02695024657318
 30
0.0
 10
92.30769748190475
 20
-9.849251823951956
 30
0.0
 10
92.3987692459203
 20
-9.627371591614375
 30
0.0
 10
92.41137182199893
 20
-9.388249923794532
 30
0.0
 10
92.34408436535182
 20
-9.158330156736772
 30
0.0
 10
92.2044930260513
 20
-8.963672210423804
 30
0.0
 10
92.0083356695856
 20
-8.826185268105135
 30
0.0
 10
91.7777275465783
 20
-8.761379823496753
 30
0.0
 10
91.53866798593475
 20
-8.776559686799066
 30
0.0
 10
91.31810909349062
 20
-8.87001360798518
 30
0.0
 10
91.14091738359753
 20
-9.031207220801146
 30
0.0
 10
91.02706923424924
 20
-9.241959586007543
 30
0.0
 10
90.98940256097906
 20
-9.478538447387681
 30
0.0
 10
91.0321550373573
 20
-9.714165018142854
 30
0.0
 10
91.15054007810431
 20
-9.922670974816464
 30
0.0
 10
91.33108589753854
 20
-10.07906802732112
 30
0.0
 10
91.52611649578755
 20
-10.15975451264935
 30
0.0
 10
91.65366522035667
 20
-10.16775556723288
 30
0.0
 10
91.7027650983068
 20
-10.1708355729707
 30
0.0
  0
SPLINE
  5
DD
330
1F
100
AcDbEntity
  8
0
  6
Continuous
 62
     7
370
    25
100
AcDbSpline
210
0.0
220
0.0
230
1.0
 70
    11
 71
     3
 72
    27
 73
    23
 74
     0
 42
0.00000001
 43
0.00000001
 40
0.0
 40
0.0
 40
0.0
 40
0.0
 40
0.0066170918086634
 40
0.0331715011496627
 40
0.0868589153532333
 40
0.1405463295567342
 40
0.1942337437603776
 40
0.2479211579639459
 40
0.3016085721675187
 40
0.3552959863710047
 40
0.4089834005746691
 40
0.4626708147782407
 40
0.5163582289818085
 40
0.5700456431853795
 40
0.6237330573889561
 40
0.6774204715925315
 40
0.7311078857961035
 40
0.7847952999996455
 40
0.8384827142032514
 40
0.8921701284067127
 40
0.945857542610402
 40
1.0
 40
1.0
 40
1.0
 40
1.0
 10
-130.757234901703
 20
-6.23083557283307
 30
0.0
 10
-130.7668914779543
 20
-6.230961778314463
 30
0.0
 10
-130.8152999237617
 20
-6.231594446772473
 30
0.0
 10
-130.9416129935837
 20
-6.247781821997963
 30
0.0
 10
-131.1271708163638
 20
-6.320726063025902
 30
0.0
 10
-131.308149201918
 20
-6.477623729945374
 30
0.0
 10
-131.4271406462244
 20
-6.685513018879737
 30
0.0
 10
-131.4705719487486
 20
-6.921088585879544
 30
0.0
 10
-131.4335888467488
 20
-7.157755542774551
 30
0.0
 10
-131.320349573626
 20
-7.368841009135264
 30
0.0
 10
-131.1436240344792
 20
-7.530544135237481
 30
0.0
 10
-130.9233358798124
 20
-7.624634855134611
 30
0.0
 10
-130.6843211457009
 20
-7.640504779021553
 30
0.0
 10
-130.4535268729871
 20
-7.576365458029909
 30
0.0
 10
-130.2569733767609
 20
-7.439445430284953
 30
0.0
 10
-130.1168205836699
 20
-7.24519136069233
 30
0.0
 10
-130.0488696025561
 20
-7.015466724125705
 30
0.0
 10
-130.0607816017789
 20
-6.776310051935623
 30
0.0
 10
-130.1512128064068
 20
-6.554166357780709
 30
0.0
 10
-130.3099707229309
 20
-6.376014184618238
 30
0.0
 10
-130.5197366067712
 20
-6.25438013921765
 30
0.0
 10
-130.6778463950723
 20
-6.238705810238674
 30
0.0
 10
-130.757234901703
 20
-6.23083557283307
 30
0.0
  0
SPLINE
  5
DE
330
1F
100
AcDbEntity
  8
0
  6
Continuous
 62
     7
370
    25
100
AcDbSpline
210
0.0
220
0.0
230
1.0
 70
    11
 71
     3
 72
    26
 73
    22
 74
     0
 42
0.00000001
 43
0.00000001
 40
0.0
 40
0.0
 40
0.0
 40
0.0
 40
0.0536887269338539
 40
0.1073774538676411
 40
0.1610661808015462
 40
0.2147549077354019
 40
0.2684436346692429
 40
0.3221323616030918
 40
0.3758210885369492
 40
0.4295098154707951
 40
0.4831985424046473
 40
0.5368872693384719
 40
0.5905759962718026
 40
0.6442647232060021
 40
0.6979534501400414
 40
0.7516421770738964
 40
0.8053309040077419
 40
0.8590196309415473
 40
0.9127083578754416
 40
0.9663970848092884
 40
1.0
 40
1.0
 40
1.0
 40
1.0
 10
-133.297234901703
 20
-6.23083557283307
 30
0.0
 10
-133.3759486016892
 20
-6.238575051458704
 30
0.0
 10
-133.5333760016616
 20
-6.254054008709961
 30
0.0
 10
-133.7428939839099
 20
-6.374720899230579
 30
0.0
 10
-133.9021672853008
 20
-6.55241932185185
 30
0.0
 10
-133.9932390493165
 20
-6.774299554189382
 30
0.0
 10
-134.0058416253951
 20
-7.013421222009266
 30
0.0
 10
-133.9385541687479
 20
-7.243340989067002
 30
0.0
 10
-133.7989628294475
 20
-7.437998935380002
 30
0.0
 10
-133.6028054729817
 20
-7.575485877698635
 30
0.0
 10
-133.3721973499745
 20
-7.640291322306989
 30
0.0
 10
-133.1331377893309
 20
-7.625111459004703
 30
0.0
 10
-132.9125788968868
 20
-7.531657537818559
 30
0.0
 10
-132.7353871869936
 20
-7.370463925002598
 30
0.0
 10
-132.6215390376454
 20
-7.159711559796169
 30
0.0
 10
-132.5838723643753
 20
-6.923132698416035
 30
0.0
 10
-132.6266248407536
 20
-6.687506127660912
 30
0.0
 10
-132.7450098815005
 20
-6.479000170987279
 30
0.0
 10
-132.9255557009348
 20
-6.322603118482617
 30
0.0
 10
-133.1205862991838
 20
-6.241916633154411
 30
0.0
 10
-133.2481350237529
 20
-6.233915578570882
 30
0.0
 10
-133.297234901703
 20
-6.23083557283307
 30
0.0
  0
SPLINE
  5
DF
330
1F
100
AcDbEntity
  8
0
  6
Continuous
 62
     7
370
    25
100
AcDbSpline
210
0.0
220
0.0
230
1.0
 70
    11
 71
     3
 72
    26
 73
    22
 74
     0
 42
0.00000001
 43
0.00000001
 40
0.0
 40
0.0
 40
0.0
 40
0.0
 40
0.0536887269338602
 40
0.1073774538676328
 40
0.161066180801553
 40
0.2147549077353961
 40
0.2684436346692481
 40
0.3221323616030892
 40
0.3758210885369399
 40
0.4295098154707889
 40
0.4831985424046397
 40
0.5368872693384833
 40
0.5905759962717898
 40
0.644264723206
 40
0.697953450140053
 40
0.7516421770739049
 40
0.8053309040077484
 40
0.8590196309415469
 40
0.9127083578754449
 40
0.9663970848093014
 40
1.0
 40
1.0
 40
1.0
 40
1.0
 10
91.7027650983068
 20
-2.550835572970693
 30
0.0
 10
91.78147879829304
 20
-2.543096094345056
 30
0.0
 10
91.93890619826544
 20
-2.527617137093796
 30
0.0
 10
92.14842418051371
 20
-2.406950246573168
 30
0.0
 10
92.30769748190474
 20
-2.229251823951924
 30
0.0
 10
92.39876924592025
 20
-2.00737159161435
 30
0.0
 10
92.41137182199896
 20
-1.768249923794479
 30
0.0
 10
92.34408436535178
 20
-1.538330156736763
 30
0.0
 10
92.20449302605127
 20
-1.343672210423769
 30
0.0
 10
92.00833566958563
 20
-1.20618526810511
 30
0.0
 10
91.77772754657826
 20
-1.141379823496764
 30
0.0
 10
91.53866798593472
 20
-1.156559686799093
 30
0.0
 10
91.31810909349062
 20
-1.250013607985174
 30
0.0
 10
91.14091738359741
 20
-1.411207220801175
 30
0.0
 10
91.02706923424923
 20
-1.621959586007622
 30
0.0
 10
90.98940256097903
 20
-1.858538447387776
 30
0.0
 10
91.03215503735733
 20
-2.094165018142894
 30
0.0
 10
91.15054007810437
 20
-2.30267097481647
 30
0.0
 10
91.33108589753861
 20
-2.459068027321197
 30
0.0
 10
91.5261164957876
 20
-2.539754512649334
 30
0.0
 10
91.65366522035671
 20
-2.547755567232878
 30
0.0
 10
91.7027650983068
 20
-2.550835572970693
 30
0.0
  0
SPLINE
  5
E0
330
1F
100
AcDbEntity
  8
0
  6
Continuous
 62
     7
370
    25
100
AcDbSpline
210
0.0
220
0.0
230
1.0
 70
    11
 71
     3
 72
    26
 73
    22
 74
     0
 42
0.00000001
 43
0.00000001
 40
0.0
 40
0.0
 40
0.0
 40
0.0
 40
0.0536887269338608
 40
0.1073774538676441
 40
0.1610661808015457
 40
0.2147549077353859
 40
0.2684436346692483
 40
0.3221323616031057
 40
0.3758210885369454
 40
0.4295098154707941
 40
0.4831985424046333
 40
0.5368872693384766
 40
0.5905759962718005
 40
0.6442647232059975
 40
0.6979534501400342
 40
0.7516421770738954
 40
0.8053309040077251
 40
0.8590196309415448
 40
0.9127083578754488
 40
0.9663970848093199
 40
1.0
 40
1.0
 40
1.0
 40
1.0
 10
91.7027650983068
 20
-5.090835572970708
 30
0.0
 10
91.78147879829305
 20
-5.083096094345072
 30
0.0
 10
91.93890619826547
 20
-5.067617137093812
 30
0.0
 10
92.14842418051369
 20
-4.946950246573161
 30
0.0
 10
92.30769748190468
 20
-4.769251823951937
 30
0.0
 10
92.39876924592025
 20
-4.547371591614398
 30
0.0
 10
92.41137182199903
 20
-4.308249923794486
 30
0.0
 10
92.34408436535172
 20
-4.078330156736769
 30
0.0
 10
92.20449302605125
 20
-3.883672210423764
 30
0.0
 10
92.00833566958562
 20
-3.746185268105136
 30
0.0
 10
91.77772754657833
 20
-3.681379823496789
 30
0.0
 10
91.53866798593472
 20
-3.696559686799041
 30
0.0
 10
91.31810909349062
 20
-3.79001360798518
 30
0.0
 10
91.1409173835975
 20
-3.951207220801169
 30
0.0
 10
91.02706923424925
 20
-4.161959586007581
 30
0.0
 10
90.98940256097916
 20
-4.398538447387702
 30
0.0
 10
91.03215503735734
 20
-4.634165018142844
 30
0.0
 10
91.15054007810431
 20
-4.842670974816495
 30
0.0
 10
91.33108589753861
 20
-4.99906802732117
 30
0.0
 10
91.52611649578763
 20
-5.079754512649339
 30
0.0
 10
91.65366522035674
 20
-5.08775556723289
 30
0.0
 10
91.7027650983068
 20
-5.090835572970708
 30
0.0
  0
SPLINE
  5
E1
330
1F
100
AcDbEntity
  8
0
  6
Continuous
 62
     7
370
    25
100
AcDbSpline
210
0.0
220
0.0
230
1.0
 70
    11
 71
     3
 72
    26
 73
    22
 74
     0
 42
0.00000001
 43
0.00000001
 40
0.0
 40
0.0
 40
0.0
 40
0.0
 40
0.05368872693386
 40
0.1073774538676577
 40
0.1610661808015659
 40
0.2147549077354091
 40
0.268443634669256
 40
0.3221323616031065
 40
0.3758210885369508
 40
0.429509815470806
 40
0.4831985424046492
 40
0.5368872693384926
 40
0.590575996271803
 40
0.6442647232059938
 40
0.6979534501400574
 40
0.7516421770739098
 40
0.8053309040077556
 40
0.8590196309415548
 40
0.9127083578754481
 40
0.9663970848093081
 40
1.0
 40
1.0
 40
1.0
 40
1.0
 10
91.7027650983068
 20
-0.0108355729707202
 30
0.0
 10
91.78147879829304
 20
-0.0030960943450866
 30
0.0
 10
91.93890619826546
 20
0.0123828629061701
 30
0.0
 10
92.14842418051376
 20
0.1330497534268414
 30
0.0
 10
92.30769748190468
 20
0.3107481760481167
 30
0.0
 10
92.39876924592036
 20
0.5326284083856624
 30
0.0
 10
92.41137182199891
 20
0.7717500762055453
 30
0.0
 10
92.34408436535176
 20
1.001669843263253
 30
0.0
 10
92.20449302605122
 20
1.196327789576242
 30
0.0
 10
92.00833566958558
 20
1.333814731894896
 30
0.0
 10
91.77772754657828
 20
1.398620176503206
 30
0.0
 10
91.53866798593464
 20
1.383440313200904
 30
0.0
 10
91.31810909349058
 20
1.289986392014788
 30
0.0
 10
91.14091738359751
 20
1.128792779198751
 30
0.0
 10
91.02706923424913
 20
0.9180404139923822
 30
0.0
 10
90.98940256097906
 20
0.6814615526121726
 30
0.0
 10
91.03215503735747
 20
0.4458349818570965
 30
0.0
 10
91.1505400781043
 20
0.2373290251834314
 30
0.0
 10
91.33108589753867
 20
0.0809319726788309
 30
0.0
 10
91.52611649578759
 20
0.0002454873506037
 30
0.0
 10
91.65366522035674
 20
-0.0077555672329151
 30
0.0
 10
91.7027650983068
 20
-0.0108355729707202
 30
0.0
  0
SPLINE
  5
E2
330
1F
100
AcDbEntity
  8
0
  6
Continuous
 62
     7
370
    25
100
AcDbSpline
210
0.0
220
0.0
230
1.0
 70
    11
 71
     3
 72
    26
 73
    22
 74
     0
 42
0.00000001
 43
0.00000001
 40
0.0
 40
0.0
 40
0.0
 40
0.0
 40
0.0536887269338532
 40
0.1073774538676355
 40
0.1610661808015465
 40
0.2147549077353924
 40
0.2684436346692395
 40
0.3221323616030913
 40
0.375821088536941
 40
0.4295098154707904
 40
0.483198542404649
 40
0.536887269338467
 40
0.5905759962717951
 40
0.6442647232059909
 40
0.6979534501400332
 40
0.7516421770738905
 40
0.8053309040077332
 40
0.8590196309415458
 40
0.9127083578754352
 40
0.9663970848092884
 40
1.0
 40
1.0
 40
1.0
 40
1.0
 10
-133.297234901703
 20
-8.770835572833063
 30
0.0
 10
-133.3759486016892
 20
-8.778575051458688
 30
0.0
 10
-133.5333760016616
 20
-8.794054008709928
 30
0.0
 10
-133.7428939839099
 20
-8.914720899230593
 30
0.0
 10
-133.9021672853009
 20
-9.092419321851793
 30
0.0
 10
-133.9932390493165
 20
-9.314299554189347
 30
0.0
 10
-134.0058416253951
 20
-9.553421222009227
 30
0.0
 10
-133.938554168748
 20
-9.783340989066971
 30
0.0
 10
-133.7989628294475
 20
-9.977998935379967
 30
0.0
 10
-133.6028054729818
 20
-10.11548587769863
 30
0.0
 10
-133.3721973499746
 20
-10.18029132230698
 30
0.0
 10
-133.1331377893309
 20
-10.16511145900469
 30
0.0
 10
-132.9125788968868
 20
-10.0716575378186
 30
0.0
 10
-132.7353871869937
 20
-9.910463925002597
 30
0.0
 10
-132.6215390376454
 20
-9.699711559796198
 30
0.0
 10
-132.5838723643753
 20
-9.463132698416059
 30
0.0
 10
-132.6266248407536
 20
-9.227506127660918
 30
0.0
 10
-132.7450098815005
 20
-9.019000170987301
 30
0.0
 10
-132.9255557009348
 20
-8.862603118482602
 30
0.0
 10
-133.1205862991837
 20
-8.781916633154406
 30
0.0
 10
-133.2481350237529
 20
-8.773915578570875
 30
0.0
 10
-133.297234901703
 20
-8.770835572833063
 30
0.0
  0
CIRCLE
  5
E3
330
1F
100
AcDbEntity
  8
0
  6
Continuous
 62
     7
370
    25
100
AcDbCircle
 10
-171.5272349017
 20
62.7991644271
 30
0.0
 40
1.799999999999997
  0
CIRCLE
  5
E4
330
1F
100
AcDbEntity
  8
0
  6
Continuous
 62
     7
370
    25
100
AcDbCircle
 10
89.9727650983
 20
65.7991644271
 30
0.0
 40
1.79999999999999
  0
CIRCLE
  5
E5
330
1F
100
AcDbEntity
  8
0
  6
Continuous
 62
     7
370
    25
100
AcDbCircle
 10
-171.5272349017
 20
-81.2008355729
 30
0.0
 40
1.799999999999997
  0
CIRCLE
  5
E6
330
1F
100
AcDbEntity
  8
0
  6
Continuous
 62
     7
370
    25
100
AcDbCircle
 10
132.4727650983
 20
62.7991644271
 30
0.0
 40
1.799999999999997
  0
CIRCLE
  5
E7
330
1F
100
AcDbEntity
  8
0
  6
Continuous
 62
     7
370
    25
100
AcDbCircle
 10
132.4727650983
 20
-81.2008355729
 30
0.0
 40
1.799999999999997
  0
CIRCLE
  5
E8
330
1F
100
AcDbEntity
  8
0
  6
Continuous
 62
     7
370
    25
100
AcDbCircle
 10
-129.0272349017
 20
-84.2008355729
 30
0.0
 40
1.800000000000011
  0
CIRCLE
  5
E9
330
1F
100
AcDbEntity
  8
0
  6
Continuous
 62
     7
370
    25
100
AcDbCircle
 10
-129.0272349017
 20
65.7991644271
 30
0.0
 40
1.800000000000004
  0
CIRCLE
  5
EA
330
1F
100
AcDbEntity
  8
0
  6
Continuous
 62
     7
370
    25
100
AcDbCircle
 10
89.9727650983
 20
-84.2008355729
 30
0.0
 40
1.799999999999997
  0
LINE
  5
EB
330
1F
100
AcDbEntity
  8
0
  6
Continuous
 62
     7
370
    25
100
AcDbLine
 10
-5.1372349017
 20
-75.3976040245
 30
0.0
 11
-5.1372349017
 21
-78.7008355729
 31
0.0
  0
LINE
  5
EC
330
1F
100
AcDbEntity
  8
0
  6
Continuous
 62
     7
370
    25
100
AcDbLine
 10
-5.2422349017
 20
-75.1091188955
 30
0.0
 11
-5.1372349017
 21
-75.3976040245
 31
0.0
  0
LINE
  5
ED
330
1F
100
AcDbEntity
  8
0
  6
Continuous
 62
     7
370
    25
100
AcDbLine
 10
-6.8122349017
 20
-75.1091188955
 30
0.0
 11
-5.2422349017
 21
-75.1091188955
 31
0.0
  0
LINE
  5
EE
330
1F
100
AcDbEntity
  8
0
  6
Continuous
 62
     7
370
    25
100
AcDbLine
 10
-6.8122349017
 20
-75.1091188955
 30
0.0
 11
-6.9172349017
 21
-75.3976040245
 31
0.0
  0
LINE
  5
EF
330
1F
100
AcDbEntity
  8
0
  6
Continuous
 62
     7
370
    25
100
AcDbLine
 10
-6.9172349017
 20
-75.3976040245
 30
0.0
 11
-6.9172349017
 21
-78.7008355729
 31
0.0
  0
LINE
  5
F0
330
1F
100
AcDbEntity
  8
0
  6
Continuous
 62
     7
370
    25
100
AcDbLine
 10
-53.4272349017
 20
-78.7008355729
 30
0.0
 11
-6.9172349017
 21
-78.7008355729
 31
0.0
  0
LINE
  5
F1
330
1F
100
AcDbEntity
  8
0
  6
Continuous
 62
     7
370
    25
100
AcDbLine
 10
-53.4272349017
 20
-78.7008355729
 30
0.0
 11
-53.4272349017
 21
-88.7008355729
 31
0.0
  0
LINE
  5
F2
330
1F
100
AcDbEntity
  8
0
  6
Continuous
 62
     7
370
    25
100
AcDbLine
 10
-179.0272349017
 20
-88.7008355729
 30
0.0
 11
-53.4272349017
 21
-88.7008355729
 31
0.0
  0
LINE
  5
F3
330
1F
100
AcDbEntity
  8
0
  6
Continuous
 62
     7
370
    25
100
AcDbLine
 10
-179.0272349017
 20
-43.1008355729
 30
0.0
 11
-179.0272349017
 21
-88.7008355729
 31
0.0
  0
LINE
  5
F4
330
1F
100
AcDbEntity
  8
0
  6
Continuous
 62
     7
370
    25
100
AcDbLine
 10
-169.0272349017
 20
-43.1008355729
 30
0.0
 11
-179.0272349017
 21
-43.1008355729
 31
0.0
  0
LINE
  5
F5
330
1F
100
AcDbEntity
  8
0
  6
Continuous
 62
     7
370
    25
100
AcDbLine
 10
-169.0272349017
 20
-23.5908355729
 30
0.0
 11
-169.0272349017
 21
-43.1008355729
 31
0.0
  0
LINE
  5
F6
330
1F
100
AcDbEntity
  8
0
  6
Continuous
 62
     7
370
    25
100
AcDbLine
 10
-165.7240033534
 20
-23.5908355729
 30
0.0
 11
-169.0272349017
 21
-23.5908355729
 31
0.0
  0
LINE
  5
F7
330
1F
100
AcDbEntity
  8
0
  6
Continuous
 62
     7
370
    25
100
AcDbLine
 10
-165.4355182243
 20
-23.4858355729
 30
0.0
 11
-165.7240033534
 21
-23.5908355729
 31
0.0
  0
LINE
  5
F8
330
1F
100
AcDbEntity
  8
0
  6
Continuous
 62
     7
370
    25
100
AcDbLine
 10
-165.4355182243
 20
-21.9158355729
 30
0.0
 11
-165.4355182243
 21
-23.4858355729
 31
0.0
  0
LINE
  5
F9
330
1F
100
AcDbEntity
  8
0
  6
Continuous
 62
     7
370
    25
100
AcDbLine
 10
-165.4355182243
 20
-21.9158355729
 30
0.0
 11
-165.7240033534
 21
-21.8108355729
 31
0.0
  0
LINE
  5
FA
330
1F
100
AcDbEntity
  8
0
  6
Continuous
 62
     7
370
    25
100
AcDbLine
 10
-165.7240033534
 20
-21.8108355729
 30
0.0
 11
-169.0272349017
 21
-21.8108355729
 31
0.0
  0
LINE
  5
FB
330
1F
100
AcDbEntity
  8
0
  6
Continuous
 62
     7
370
    25
100
AcDbLine
 10
-169.0272349017
 20
24.6991644271
 30
0.0
 11
-169.0272349017
 21
-21.8108355729
 31
0.0
  0
LINE
  5
FC
330
1F
100
AcDbEntity
  8
0
  6
Continuous
 62
     7
370
    25
100
AcDbLine
 10
-169.0272349017
 20
24.6991644271
 30
0.0
 11
-179.0272349017
 21
24.6991644271
 31
0.0
  0
LINE
  5
FD
330
1F
100
AcDbEntity
  8
0
  6
Continuous
 62
     7
370
    25
100
AcDbLine
 10
-179.0272349017
 20
70.2991644271
 30
0.0
 11
-179.0272349017
 21
24.6991644271
 31
0.0
  0
LINE
  5
FE
330
1F
100
AcDbEntity
  8
0
  6
Continuous
 62
     7
370
    25
100
AcDbLine
 10
-179.0272349017
 20
70.2991644271
 30
0.0
 11
-53.4272349017
 21
70.2991644271
 31
0.0
  0
LINE
  5
FF
330
1F
100
AcDbEntity
  8
0
  6
Continuous
 62
     7
370
    25
100
AcDbLine
 10
-53.4272349017
 20
60.2991644271
 30
0.0
 11
-53.4272349017
 21
70.2991644271
 31
0.0
  0
LINE
  5
100
330
1F
100
AcDbEntity
  8
0
  6
Continuous
 62
     7
370
    25
100
AcDbLine
 10
-33.9172349017
 20
60.2991644271
 30
0.0
 11
-53.4272349017
 21
60.2991644271
 31
0.0
  0
LINE
  5
101
330
1F
100
AcDbEntity
  8
0
  6
Continuous
 62
     7
370
    25
100
AcDbLine
 10
-33.9172349017
 20
56.9959328787
 30
0.0
 11
-33.9172349017
 21
60.2991644271
 31
0.0
  0
LINE
  5
102
330
1F
100
AcDbEntity
  8
0
  6
Continuous
 62
     7
370
    25
100
AcDbLine
 10
-33.8122349017
 20
56.7074477497
 30
0.0
 11
-33.9172349017
 21
56.9959328787
 31
0.0
  0
LINE
  5
103
330
1F
100
AcDbEntity
  8
0
  6
Continuous
 62
     7
370
    25
100
AcDbLine
 10
-32.2422349017
 20
56.7074477497
 30
0.0
 11
-33.8122349017
 21
56.7074477497
 31
0.0
  0
LINE
  5
104
330
1F
100
AcDbEntity
  8
0
  6
Continuous
 62
     7
370
    25
100
AcDbLine
 10
-32.2422349017
 20
56.7074477497
 30
0.0
 11
-32.1372349017
 21
56.9959328787
 31
0.0
  0
LINE
  5
105
330
1F
100
AcDbEntity
  8
0
  6
Continuous
 62
     7
370
    25
100
AcDbLine
 10
-32.1372349017
 20
56.9959328787
 30
0.0
 11
-32.1372349017
 21
60.2991644271
 31
0.0
  0
LINE
  5
106
330
1F
100
AcDbEntity
  8
0
  6
Continuous
 62
     7
370
    25
100
AcDbLine
 10
14.3727650983
 20
60.2991644271
 30
0.0
 11
-32.1372349017
 21
60.2991644271
 31
0.0
  0
LINE
  5
107
330
1F
100
AcDbEntity
  8
0
  6
Continuous
 62
     7
370
    25
100
AcDbLine
 10
14.3727650983
 20
60.2991644271
 30
0.0
 11
14.3727650983
 21
70.2991644271
 31
0.0
  0
LINE
  5
108
330
1F
100
AcDbEntity
  8
0
  6
Continuous
 62
     7
370
    25
100
AcDbLine
 10
14.3727650983
 20
70.2991644271
 30
0.0
 11
139.9727650983
 21
70.2991644271
 31
0.0
  0
LINE
  5
109
330
1F
100
AcDbEntity
  8
0
  6
Continuous
 62
     7
370
    25
100
AcDbLine
 10
139.9727650983
 20
70.2991644271
 30
0.0
 11
139.9727650983
 21
24.6991644271
 31
0.0
  0
LINE
  5
10A
330
1F
100
AcDbEntity
  8
0
  6
Continuous
 62
     7
370
    25
100
AcDbLine
 10
129.9727650983
 20
24.6991644271
 30
0.0
 11
139.9727650983
 21
24.6991644271
 31
0.0
  0
LINE
  5
10B
330
1F
100
AcDbEntity
  8
0
  6
Continuous
 62
     7
370
    25
100
AcDbLine
 10
129.9727650983
 20
5.1891644271
 30
0.0
 11
129.9727650983
 21
24.6991644271
 31
0.0
  0
LINE
  5
10C
330
1F
100
AcDbEntity
  8
0
  6
Continuous
 62
     7
370
    25
100
AcDbLine
 10
126.6695335499
 20
5.1891644271
 30
0.0
 11
129.9727650983
 21
5.1891644271
 31
0.0
  0
LINE
  5
10D
330
1F
100
AcDbEntity
  8
0
  6
Continuous
 62
     7
370
    25
100
AcDbLine
 10
126.3810484209
 20
5.0841644271
 30
0.0
 11
126.6695335499
 21
5.1891644271
 31
0.0
  0
LINE
  5
10E
330
1F
100
AcDbEntity
  8
0
  6
Continuous
 62
     7
370
    25
100
AcDbLine
 10
126.3810484209
 20
3.5141644271
 30
0.0
 11
126.3810484209
 21
5.0841644271
 31
0.0
  0
LINE
  5
10F
330
1F
100
AcDbEntity
  8
0
  6
Continuous
 62
     7
370
    25
100
AcDbLine
 10
126.3810484209
 20
3.5141644271
 30
0.0
 11
126.6695335499
 21
3.4091644271
 31
0.0
  0
LINE
  5
110
330
1F
100
AcDbEntity
  8
0
  6
Continuous
 62
     7
370
    25
100
AcDbLine
 10
126.6695335499
 20
3.4091644271
 30
0.0
 11
129.9727650983
 21
3.4091644271
 31
0.0
  0
LINE
  5
111
330
1F
100
AcDbEntity
  8
0
  6
Continuous
 62
     7
370
    25
100
AcDbLine
 10
129.9727650983
 20
-43.1008355729
 30
0.0
 11
129.9727650983
 21
3.4091644271
 31
0.0
  0
LINE
  5
112
330
1F
100
AcDbEntity
  8
0
  6
Continuous
 62
     7
370
    25
100
AcDbLine
 10
129.9727650983
 20
-43.1008355729
 30
0.0
 11
139.9727650983
 21
-43.1008355729
 31
0.0
  0
LINE
  5
113
330
1F
100
AcDbEntity
  8
0
  6
Continuous
 62
     7
370
    25
100
AcDbLine
 10
139.9727650983
 20
-43.1008355729
 30
0.0
 11
139.9727650983
 21
-88.7008355729
 31
0.0
  0
LINE
  5
114
330
1F
100
AcDbEntity
  8
0
  6
Continuous
 62
     7
370
    25
100
AcDbLine
 10
14.3727650983
 20
-88.7008355729
 30
0.0
 11
139.9727650983
 21
-88.7008355729
 31
0.0
  0
LINE
  5
115
330
1F
100
AcDbEntity
  8
0
  6
Continuous
 62
     7
370
    25
100
AcDbLine
 10
14.3727650983
 20
-78.7008355729
 30
0.0
 11
14.3727650983
 21
-88.7008355729
 31
0.0
  0
LINE
  5
116
330
1F
100
AcDbEntity
  8
0
  6
Continuous
 62
     7
370
    25
100
AcDbLine
 10
-5.1372349017
 20
-78.7008355729
 30
0.0
 11
14.3727650983
 21
-78.7008355729
 31
0.0
  0
MTEXT
  5
118
330
1F
100
AcDbEntity
  8
0
  6
Continuous
 62
     7
100
AcDbMText
 10
-179.0272349017
 20
-89.7204019646
 30
0.0
 40
4.83362
 41
0.0
 71
     1
 72
     1
  1
SOLIDWORKS Educational Product.
  7
SLDTEXTSTYLE0
 73
     1
 44
1.0
  0
MTEXT
  5
119
330
1F
100
AcDbEntity
  8
0
  6
Continuous
 62
     7
100
AcDbMText
 10
-179.0272349017
 20
-96.9708319646
 30
0.0
 40
4.83362
 41
0.0
 71
     1
 72
     1
  1
For Instructional Use Only.
  7
SLDTEXTSTYLE0
 73
     1
 44
1.0
  0
ENDSEC
  0
SECTION
  2
OBJECTS
  0
DICTIONARY
  5
C
330
0
100
AcDbDictionary
281
     1
  3
ACAD_GROUP
350
D
  3
ACAD_LAYOUT
350
1A
  3
ACAD_MLINESTYLE
350
17
  3
ACAD_PLOTSETTINGS
350
19
  3
ACAD_PLOTSTYLENAME
350
E
  3
ACAD_SCALELIST
350
47
  3
DWGPROPS
350
11A
  0
DICTIONARY
  5
D
102
{ACAD_REACTORS
330
C
102
}
330
C
100
AcDbDictionary
281
     1
  0
DICTIONARY
  5
1A
102
{ACAD_REACTORS
330
C
102
}
330
C
100
AcDbDictionary
281
     1
  3
Layout1
350
1E
  3
Layout2
350
26
  3
Model
350
22
  0
DICTIONARY
  5
17
102
{ACAD_REACTORS
330
C
102
}
330
C
100
AcDbDictionary
281
     1
  3
Standard
350
18
  0
DICTIONARY
  5
19
102
{ACAD_REACTORS
330
C
102
}
330
C
100
AcDbDictionary
281
     1
  0
ACDBDICTIONARYWDFLT
  5
E
102
{ACAD_REACTORS
330
C
102
}
330
C
100
AcDbDictionary
281
     1
  3
Normal
350
F
100
AcDbDictionaryWithDefault
340
F
  0
DICTIONARY
  5
47
102
{ACAD_REACTORS
330
C
102
}
330
C
100
AcDbDictionary
281
     1
  3
A0
350
48
  3
A1
350
49
  3
A2
350
4A
  3
A3
350
4B
  3
A4
350
4C
  3
A5
350
4D
  3
A6
350
4E
  3
A7
350
4F
  3
A8
350
50
  3
A9
350
51
  3
B0
350
52
  3
B1
350
53
  3
B2
350
54
  3
B3
350
55
  3
B4
350
56
  3
B5
350
57
  3
B6
350
58
  0
XRECORD
  5
11A
102
{ACAD_REACTORS
330
C
102
}
330
C
100
AcDbXrecord
280
     1
  1
DWGPROPS COOKIE
  2

  3

  4

  6

  7

  8
karol
  9

300
=
301
=
302
=
303
=
304
=
305
=
306
=
307
=
308
=
309
=
 40
0.0
 41
2459912.627040151
 42
2459912.627667789
  1

 90
        0
  0
LAYOUT
  5
1E
102
{ACAD_REACTORS
330
1A
102
}
330
1A
100
AcDbPlotSettings
  1

  2
none_device
  4

  6

 40
0.0
 41
0.0
 42
0.0
 43
0.0
 44
0.0
 45
0.0
 46
0.0
 47
0.0
 48
0.0
 49
0.0
140
0.0
141
0.0
142
1.0
143
1.0
 70
   688
 72
     1
 73
     0
 74
     5
  7

 75
    16
147
1.0
148
0.0
149
0.0
100
AcDbLayout
  1
Layout1
 70
     1
 71
     1
 10
0.0
 20
0.0
 11
420.0
 21
297.0
 12
0.0
 22
0.0
 32
0.0
 14
1.0000000000E+20
 24
1.0000000000E+20
 34
1.0000000000E+20
 15
-1.0000000000E+20
 25
-1.0000000000E+20
 35
-1.0000000000E+20
146
0.0
 13
0.0
 23
0.0
 33
0.0
 16
1.0
 26
0.0
 36
0.0
 17
0.0
 27
1.0
 37
0.0
 76
     0
330
1B
  0
LAYOUT
  5
26
102
{ACAD_REACTORS
330
1A
102
}
330
1A
100
AcDbPlotSettings
  1

  2
none_device
  4

  6

 40
0.0
 41
0.0
 42
0.0
 43
0.0
 44
0.0
 45
0.0
 46
0.0
 47
0.0
 48
0.0
 49
0.0
140
0.0
141
0.0
142
1.0
143
1.0
 70
   688
 72
     1
 73
     0
 74
     5
  7

 75
    16
147
1.0
148
0.0
149
0.0
100
AcDbLayout
  1
Layout2
 70
     1
 71
     2
 10
0.0
 20
0.0
 11
0.0
 21
0.0
 12
0.0
 22
0.0
 32
0.0
 14
0.0
 24
0.0
 34
0.0
 15
0.0
 25
0.0
 35
0.0
146
0.0
 13
0.0
 23
0.0
 33
0.0
 16
1.0
 26
0.0
 36
0.0
 17
0.0
 27
1.0
 37
0.0
 76
     0
330
23
  0
LAYOUT
  5
22
102
{ACAD_REACTORS
330
1A
102
}
330
1A
100
AcDbPlotSettings
  1

  2
none_device
  4
ANSI_A_(11.00_x_8.50_Inches)
  6

 40
6.35
 41
19.05
 42
6.35000508
 43
19.05000254
 44
279.4
 45
215.9
 46
150.2821301786
 47
96.8780749823
 48
0.0
 49
0.0
140
0.0
141
0.0
142
0.034137931
143
1.0
 70
  1696
 72
     0
 73
     0
 74
     0
  7

 75
     0
147
0.0179189148
148
-1300.4909072572
149
0.0
100
AcDbLayout
  1
Model
 70
     1
 71
     0
 10
0.0
 20
0.0
 11
420.0
 21
297.0
 12
0.0
 22
0.0
 32
0.0
 14
-179.0272349017
 24
-88.7008355729
 34
0.0
 15
139.9727650983
 25
70.2991644271
 35
0.0
146
0.0
 13
0.0
 23
0.0
 33
0.0
 16
1.0
 26
0.0
 36
0.0
 17
0.0
 27
1.0
 37
0.0
 76
     0
330
1F
331
29
  0
MLINESTYLE
  5
18
102
{ACAD_REACTORS
330
17
102
}
330
17
100
AcDbMlineStyle
  2
Standard
 70
     0
  3

 62
   256
 51
90.0
 52
90.0
 71
     2
 49
0.5
 62
   256
  6
BYLAYER
 49
-0.5
 62
   256
  6
BYLAYER
  0
ACDBPLACEHOLDER
  5
F
102
{ACAD_REACTORS
330
E
102
}
330
E
  0
SCALE
  5
48
102
{ACAD_REACTORS
330
47
102
}
330
47
100
AcDbScale
 70
     0
300
1:1
140
1.0
141
1.0
290
     1
  0
SCALE
  5
49
102
{ACAD_REACTORS
330
47
102
}
330
47
100
AcDbScale
 70
     0
300
1:2
140
1.0
141
2.0
290
     0
  0
SCALE
  5
4A
102
{ACAD_REACTORS
330
47
102
}
330
47
100
AcDbScale
 70
     0
300
1:4
140
1.0
141
4.0
290
     0
  0
SCALE
  5
4B
102
{ACAD_REACTORS
330
47
102
}
330
47
100
AcDbScale
 70
     0
300
1:5
140
1.0
141
5.0
290
     0
  0
SCALE
  5
4C
102
{ACAD_REACTORS
330
47
102
}
330
47
100
AcDbScale
 70
     0
300
1:8
140
1.0
141
8.0
290
     0
  0
SCALE
  5
4D
102
{ACAD_REACTORS
330
47
102
}
330
47
100
AcDbScale
 70
     0
300
1:10
140
1.0
141
10.0
290
     0
  0
SCALE
  5
4E
102
{ACAD_REACTORS
330
47
102
}
330
47
100
AcDbScale
 70
     0
300
1:16
140
1.0
141
16.0
290
     0
  0
SCALE
  5
4F
102
{ACAD_REACTORS
330
47
102
}
330
47
100
AcDbScale
 70
     0
300
1:20
140
1.0
141
20.0
290
     0
  0
SCALE
  5
50
102
{ACAD_REACTORS
330
47
102
}
330
47
100
AcDbScale
 70
     0
300
1:30
140
1.0
141
30.0
290
     0
  0
SCALE
  5
51
102
{ACAD_REACTORS
330
47
102
}
330
47
100
AcDbScale
 70
     0
300
1:40
140
1.0
141
40.0
290
     0
  0
SCALE
  5
52
102
{ACAD_REACTORS
330
47
102
}
330
47
100
AcDbScale
 70
     0
300
1:50
140
1.0
141
50.0
290
     0
  0
SCALE
  5
53
102
{ACAD_REACTORS
330
47
102
}
330
47
100
AcDbScale
 70
     0
300
1:100
140
1.0
141
100.0
290
     0
  0
SCALE
  5
54
102
{ACAD_REACTORS
330
47
102
}
330
47
100
AcDbScale
 70
     0
300
2:1
140
2.0
141
1.0
290
     0
  0
SCALE
  5
55
102
{ACAD_REACTORS
330
47
102
}
330
47
100
AcDbScale
 70
     0
300
4:1
140
4.0
141
1.0
290
     0
  0
SCALE
  5
56
102
{ACAD_REACTORS
330
47
102
}
330
47
100
AcDbScale
 70
     0
300
8:1
140
8.0
141
1.0
290
     0
  0
SCALE
  5
57
102
{ACAD_REACTORS
330
47
102
}
330
47
100
AcDbScale
 70
     0
300
10:1
140
10.0
141
1.0
290
     0
  0
SCALE
  5
58
102
{ACAD_REACTORS
330
47
102
}
330
47
100
AcDbScale
 70
     0
300
100:1
140
100.0
141
1.0
290
     0
  0
ENDSEC
  0
EOF
