G04*
G04 #@! TF.GenerationSoftware,Altium Limited,Altium Designer,22.11.1 (43)*
G04*
G04 Layer_Color=16711935*
%FSLAX25Y25*%
%MOIN*%
G70*
G04*
G04 #@! TF.SameCoordinates,5E32505C-E00D-4BFB-BC25-6037A3F64914*
G04*
G04*
G04 #@! TF.FilePolarity,Positive*
G04*
G01*
G75*
%ADD36C,0.00004*%
D36*
X25591Y587402D02*
G03*
X32677Y594488I0J7087D01*
G01*
D02*
G03*
X25591Y601575I-7087J0D01*
G01*
D02*
G03*
X18504Y594488I0J-7087D01*
G01*
D02*
G03*
X25591Y587402I7087J0D01*
G01*
X190945Y598032D02*
G03*
X198031Y605118I0J7087D01*
G01*
D02*
G03*
X190945Y612205I-7087J0D01*
G01*
D02*
G03*
X183858Y605118I0J-7087D01*
G01*
D02*
G03*
X190945Y598032I7087J0D01*
G01*
X1059055D02*
G03*
X1066142Y605118I0J7087D01*
G01*
D02*
G03*
X1059055Y612205I-7087J0D01*
G01*
D02*
G03*
X1051969Y605118I0J-7087D01*
G01*
D02*
G03*
X1059055Y598032I7087J0D01*
G01*
X1224409Y587402D02*
G03*
X1231496Y594488I0J7087D01*
G01*
D02*
G03*
X1224409Y601575I-7087J0D01*
G01*
D02*
G03*
X1217323Y594488I0J-7087D01*
G01*
D02*
G03*
X1224409Y587402I7087J0D01*
G01*
Y18504D02*
G03*
X1231496Y25591I0J7087D01*
G01*
D02*
G03*
X1224409Y32677I-7087J0D01*
G01*
D02*
G03*
X1217323Y25591I0J-7087D01*
G01*
D02*
G03*
X1224409Y18504I7087J0D01*
G01*
X1059055Y7874D02*
G03*
X1066142Y14961I0J7087D01*
G01*
D02*
G03*
X1059055Y22047I-7087J0D01*
G01*
D02*
G03*
X1051969Y14961I0J-7087D01*
G01*
D02*
G03*
X1059055Y7874I7087J0D01*
G01*
X190945D02*
G03*
X198031Y14961I0J7087D01*
G01*
D02*
G03*
X190945Y22047I-7087J0D01*
G01*
D02*
G03*
X183858Y14961I0J-7087D01*
G01*
D02*
G03*
X190945Y7874I7087J0D01*
G01*
X25591Y18504D02*
G03*
X32677Y25591I0J7087D01*
G01*
D02*
G03*
X25591Y32677I-7087J0D01*
G01*
D02*
G03*
X18504Y25591I0J-7087D01*
G01*
D02*
G03*
X25591Y18504I7087J0D01*
G01*
X457677Y310039D02*
X551181D01*
Y403544D01*
X457677D02*
X551181D01*
X457677Y310039D02*
Y403544D01*
X1190945Y366917D02*
Y443504D01*
X1250000D01*
Y620079D01*
X758465D02*
X1250000D01*
X758465Y561011D02*
Y620079D01*
X575590Y561011D02*
X758465D01*
X575590Y537389D02*
X575590Y561011D01*
X568110Y537389D02*
X575590D01*
X568110D02*
Y561011D01*
X491536D02*
X568110D01*
X491536D02*
Y620079D01*
X0D02*
X491536D01*
X0Y443504D02*
Y620079D01*
Y443504D02*
X59055D01*
Y366942D02*
Y443504D01*
Y366942D02*
X82677D01*
Y359462D02*
Y366942D01*
X59055Y359462D02*
X82677D01*
X59055Y176575D02*
Y359462D01*
X0Y176575D02*
X59055Y176575D01*
X0Y0D02*
Y176575D01*
Y0D02*
X491536Y0D01*
Y59055D01*
X568104D01*
X568110Y59062D01*
Y82677D01*
X575354D01*
Y59055D02*
Y82677D01*
Y59055D02*
X758465D01*
Y0D02*
Y59055D01*
Y0D02*
X1250000Y0D01*
Y176575D01*
X1190945D02*
X1250000D01*
X1190945D02*
Y359436D01*
X1167323D02*
X1190945D01*
X1167323D02*
Y366917D01*
X1190945D01*
M02*
