M48
;Layer_Color=9474304
;FILE_FORMAT=2:5
INCH,TZ
;TYPE=PLATED
T1F00S00C0.01181
T2F00S00C0.03543
T3F00S00C0.08661
T4F00S00C0.15748
%
T01
X691929Y97898
X719488Y104950
X735172Y112172
X736500Y98000
X911669Y174208
X1148220Y215208
X1149920Y258608
X1157720Y257808
X1160592Y262889
X1169020Y241208
X1187620Y206008
X1163320Y290342
X1165820Y294279
X1151020Y286405
X1100254Y290342
X1082296Y300065
Y325656
X1092533
X1097651Y330774
X1102769
X1087414
X1056706
Y320538
X1051588Y325656
X1046470Y330774
Y310301
Y305183
X1051588
X1041352
Y310301
Y315420
X1036233
Y320538
X1031115
Y325656
X1025997
Y330774
X1020879
Y325656
Y320538
X1025997
Y315420
X1031115
Y310301
X1036233
Y305183
X1031115
X1025997
Y310301
X1020879
Y315420
X1015761
Y320538
Y325656
Y330774
X1010643
Y325656
Y320538
Y315420
Y310301
X1015761
Y305183
X1020879
X1010643
X1005525
Y310301
Y315420
Y320538
Y325656
Y330774
X1000407
Y325656
Y320538
Y315420
Y310301
Y305183
X995289
Y310301
Y315420
Y320538
Y325656
Y330774
X990170
Y325656
Y320538
Y315420
Y310301
Y305183
X985052
Y310301
Y315420
Y320538
Y325656
Y330774
X979934
Y325656
Y320538
Y315420
Y310301
Y305183
X974816
Y310301
Y315420
Y320538
Y325656
Y330774
X969698
Y325656
Y320538
Y315420
Y310301
Y305183
X964580
Y310301
Y315420
Y320538
Y325656
Y330774
X959462
Y325656
Y320538
Y315420
Y310301
Y305183
Y289829
X964580
X969698
X974816
X979934
X985052
X990170
X995289
X1000407
X1005525
X1010643
X1015761
X1020879
X1025997
X1031115
X1036233
X1041352
X1046470
X1051588
X1056706
Y279593
X1051588
X1046470
Y269357
X1051588
X1056706
X1041352
Y274475
X1036233
Y269357
X1031115
Y274475
X1025997
Y269357
X1020879
Y274475
X1015761
Y269357
X1010643
Y274475
X1005525
Y269357
X1000407
Y274475
X995289
Y269357
X990170
Y274475
X985052
Y269357
X979934
Y274475
X974816
Y269357
X969698
Y274475
X964580
Y269357
X959462
Y274475
X954344
Y269357
X949226
Y274475
X944108
Y269357
X938989
Y274475
X933871
Y269357
X928753
Y274475
X923635
Y269357
X918517
Y274475
X913399
Y269357
X908281
Y274475
X903163
Y269357
X898044
Y274475
X892926
Y269357
X887808
Y274475
X882690
Y269357
X877572
Y274475
X872454
Y269357
X867336
Y274475
X862218
Y269357
X857100
Y274475
X851982
Y269357
X846863
Y274475
X841745
Y269357
X836627
Y274475
X831509
Y269357
X826391
Y274475
X821273
Y269357
X816155
Y274475
X811037
Y269357
X805919
Y274475
X800800
Y269357
Y289829
X805919
X811037
X816155
X821273
X826391
X831509
X836627
X841745
X846863
X851982
X857100
X862218
X867336
X872454
X877572
X882690
X887808
X892926
X898044
X903163
X908281
X913399
X918517
X923635
X928753
X933871
X938989
X944108
X949226
X954344
Y305183
Y310301
Y315420
Y320538
Y325656
Y330774
X949226
Y325656
Y320538
Y315420
Y310301
Y305183
X944108
Y310301
Y315420
Y320538
Y325656
Y330774
X938989
Y325656
Y320538
Y315420
Y310301
Y305183
X933871
Y310301
Y315420
Y320538
Y325656
Y330774
X928753
Y325656
Y320538
Y315420
Y310301
Y305183
X923635
Y310301
Y315420
Y320538
Y325656
Y330774
X918517
Y325656
Y320538
Y315420
Y310301
Y305183
X913399
Y310301
Y315420
Y320538
Y325656
Y330774
X908281
Y325656
Y320538
Y315420
Y310301
Y305183
X903163
Y310301
Y315420
Y320538
Y325656
Y330774
X898044
Y325656
Y320538
Y315420
Y310301
Y305183
X892926
Y310301
Y315420
Y320538
Y325656
Y330774
X887808
Y325656
Y320538
Y315420
Y310301
Y305183
X882690
Y310301
Y315420
Y320538
Y325656
Y330774
X877572
Y325656
Y320538
Y315420
Y310301
Y305183
X872454
Y310301
Y315420
Y320538
Y325656
Y330774
X867336
Y325656
Y320538
Y315420
Y310301
Y305183
X862218
Y310301
Y315420
Y320538
Y325656
Y330774
X857100
Y325656
Y320538
Y315420
Y310301
Y305183
X851982
Y310301
Y315420
Y320538
Y325656
Y330774
X846863
Y325656
Y320538
Y315420
Y310301
Y305183
X841745
Y310301
Y315420
Y320538
Y325656
Y330774
X836627
Y325656
Y320538
Y315420
Y310301
Y305183
X831509
Y310301
Y315420
Y320538
Y325656
Y330774
X826391
Y325656
Y320538
Y315420
Y310301
Y305183
X821273
Y310301
Y315420
Y320538
Y325656
Y330774
X816155
Y325656
Y320538
Y315420
Y310301
Y305183
X811037
Y310301
Y315420
Y320538
Y325656
Y330774
X805919
Y325656
Y320538
Y315420
Y310301
Y305183
X800800
Y310301
Y315420
Y320538
Y325656
Y330774
X795682
Y325656
Y320538
Y315420
Y310301
Y305183
X790564
Y310301
Y315420
Y320538
Y325656
Y330774
X785446
Y325656
Y320538
Y315420
Y310301
Y305183
Y289829
X790564
X795682
Y274475
Y269357
X790564
Y274475
X785446
Y269357
X711077Y258608
X702000Y260000
X695866Y253308
X687992Y262481
X673000Y247060
X703620Y231529
X714820Y186608
X644500Y272000
X656496Y286668
X652559Y300808
X635000Y284500
X631520Y275108
X640748Y270108
X636811Y264717
X574000Y186500
X518500Y231000
X501500Y247500
X488500Y256000
X479000Y264500
X230000Y265000
X231000Y255500
X221000Y247000
X203000Y231000
X235000Y314500
X148720Y267908
X139320Y258908
X112020Y247060
X111724Y231312
X95620Y215508
X85720Y243123
X81620Y239186
X90268Y278556
X81820Y291108
X80832Y294708
X88320Y298708
X124520Y186608
X235000Y463000
X215720Y489408
X329934Y463845
Y458727
Y453609
X335052
X340171
X345289
X350407
X355525
X360643
X365761
X370879
X375997
Y448490
X381115
Y443372
X386233
Y438254
X391352
Y433136
X396470
Y428018
X401588
Y422900
X406706
X411824
X416942
X422060
X427178
X432297
X437415
X442533
X447651
X452769
X457887
X463005
X468123
X473241
X478360
X483478
Y438254
Y443372
X478360
Y438254
X473241
Y443372
X468123
Y438254
X463005
Y443372
X457887
Y448490
Y453609
Y458727
Y463845
Y468963
Y474081
X452769Y468963
Y463845
Y458727
Y453609
Y448490
Y443372
Y438254
X457887
X447651
Y443372
Y448490
Y453609
Y458727
Y463845
Y468963
X442533
Y463845
Y458727
Y453609
Y448490
Y443372
Y438254
X437415
Y443372
Y448490
Y453609
Y458727
Y463845
Y468963
X432297
Y463845
Y458727
Y453609
Y448490
Y443372
Y438254
X427178
Y443372
Y448490
Y453609
Y458727
Y463845
Y468963
X422060
Y463845
Y458727
Y453609
Y448490
Y443372
Y438254
X416942
Y443372
Y448490
Y453609
Y458727
Y463845
Y468963
X411824
Y463845
Y458727
Y453609
Y448490
Y443372
X406706Y448490
Y453609
Y458727
Y463845
Y468963
X401588
Y463845
Y458727
Y453609
X396470Y458727
Y463845
Y468963
X391352Y463845
X370879Y458727
X365761
Y463845
X360643
Y458727
X355525
Y463845
X350407
Y458727
X345289
Y463845
X340171
Y458727
X335052
Y463845
Y448490
X340171
X345289
X350407
X355525
X360643
X365761
X370879
Y443372
X375997
Y438254
X381115
Y433136
X386233
Y428018
X391352
Y422900
X396470
Y417782
X401588
X406706
X411824
X416942
X422060
X427178
X432297
X437415
X442533
Y412664
Y407546
Y402427
Y397309
Y392191
Y387073
Y381955
Y376837
Y371719
Y366601
Y361483
Y356364
Y351246
Y346128
Y341010
Y335892
X437415Y341010
Y346128
Y351246
Y356364
Y361483
Y366601
Y371719
Y376837
Y381955
Y387073
Y392191
Y397309
Y402427
Y407546
Y412664
X432297
Y407546
Y402427
Y397309
Y392191
Y387073
Y381955
Y376837
Y371719
Y366601
Y361483
Y356364
Y351246
Y346128
Y341010
X427178Y346128
Y351246
Y356364
Y361483
Y366601
Y371719
Y376837
Y381955
Y387073
Y392191
Y397309
Y402427
Y407546
Y412664
X422060
Y407546
Y402427
Y397309
Y392191
Y387073
Y381955
Y376837
Y371719
Y366601
Y361483
Y356364
Y351246
Y346128
X416942
Y351246
Y356364
Y361483
Y366601
Y371719
Y376837
Y381955
Y387073
Y392191
Y397309
Y402427
Y407546
Y412664
X411824
Y407546
Y402427
Y397309
Y392191
Y387073
Y381955
Y376837
Y371719
Y366601
Y361483
Y356364
Y351246
X406706
Y356364
Y361483
Y366601
Y371719
Y376837
Y381955
Y387073
Y392191
Y397309
Y402427
Y407546
Y412664
X401588
Y407546
Y402427
Y397309
Y392191
Y387073
Y381955
Y376837
Y371719
Y366601
Y361483
Y356364
X396470
Y361483
Y366601
Y371719
Y376837
Y381955
Y387073
Y392191
Y397309
Y402427
Y407546
Y412664
X391352
Y417782
X386233
Y422900
X381115
Y428018
X375997
Y433136
X370879
Y438254
X365761
Y443372
X360643
Y438254
Y433136
X365761
Y428018
X370879
Y422900
X375997
Y417782
X381115
Y412664
X386233
Y407546
X391352
Y402427
Y397309
Y392191
Y387073
Y381955
Y376837
Y371719
Y366601
Y361483
X386233
Y366601
Y371719
Y376837
Y381955
Y387073
Y392191
Y397309
Y402427
X381115
Y407546
X375997
Y412664
X370879
Y417782
X365761
Y422900
X360643
Y428018
X355525
Y433136
Y438254
Y443372
X350407
Y438254
Y433136
Y428018
Y422900
X355525
Y417782
X360643
Y412664
X365761
Y407546
X370879
Y402427
X375997
Y397309
X381115
Y392191
Y387073
Y381955
Y376837
Y371719
Y366601
X375997
Y371719
Y376837
Y381955
Y387073
Y392191
X370879
Y397309
X365761
Y402427
X360643
Y407546
X355525
Y412664
X350407
Y417782
X345289
Y422900
Y428018
Y433136
Y438254
Y443372
X340171
Y438254
Y433136
Y428018
Y422900
Y417782
Y412664
X345289
Y407546
X350407
Y402427
X355525
Y397309
X360643
Y392191
X365761
Y387073
X370879
Y381955
Y376837
Y371719
Y366601
X365761Y371719
Y376837
Y381955
X360643
Y387073
X355525
Y392191
X350407
Y397309
X345289
Y402427
Y392191
X350407Y387073
Y381955
X355525
Y376837
X360643
Y371719
X350407Y376837
X335052Y433136
Y438254
Y443372
X488596
Y438254
Y422900
X613189Y424408
X617126Y415508
X621063Y406608
X622500Y437500
X617500Y436500
X611500Y440500
X599466Y441951
X627000Y443000
X631500Y437500
X636500Y441000
X641235Y436365
X625000Y365108
X583500Y376500
X649895Y368835
X653500Y437500
X660000
X658000Y446500
X649500Y452500
X646500Y442500
X674000Y445500
X683000Y441500
X692500Y445500
X701500Y442000
X711500Y443000
X706500Y436000
X704641Y427362
X712500Y431500
X795682Y407546
Y402427
Y397309
Y392191
Y387073
Y381955
X790564
Y387073
Y392191
Y397309
Y402427
X785446Y397309
Y392191
Y387073
Y381955
Y371719
X790564
X795682
Y361483
X790564
X785446
Y351246
X790564
X795682
Y346128
Y341010
Y335892
X790564
Y341010
Y346128
X785446
Y341010
Y335892
X780328Y371719
X775210Y376837
X770092Y381955
X780328Y387073
Y392191
X753000Y355000
X800800Y351246
X805919
X811037
X816155
X821273
X826391
X831509
X836627
X841745
X846863
X851982
X857100
X862218
X867336
X872454
X877572
X882690
X887808
X892926
X898044
X903163
X908281
X913399
X918517
X923635
X928753
X933871
X938989
X944108
X949226
X954344
Y346128
Y341010
Y335892
X949226
Y341010
Y346128
X944108
Y341010
Y335892
X938989
Y341010
Y346128
X933871
Y341010
Y335892
X928753
Y341010
Y346128
X923635
Y341010
Y335892
X918517
Y341010
Y346128
X913399
Y341010
Y335892
X908281
Y341010
Y346128
X903163
Y341010
Y335892
X898044
Y341010
Y346128
X892926
Y341010
Y335892
X887808
Y341010
Y346128
X882690
Y341010
Y335892
X877572
Y341010
Y346128
X872454
Y341010
Y335892
X867336
Y341010
Y346128
X862218
Y341010
Y335892
X857100
Y341010
Y346128
X851982
Y341010
Y335892
X846863
Y341010
Y346128
X841745
Y341010
Y335892
X836627
Y341010
Y346128
X831509
Y341010
Y335892
X826391
Y341010
Y346128
X821273
Y341010
Y335892
X816155
Y341010
Y346128
X811037
Y341010
Y335892
X805919
Y341010
Y346128
X800800
Y341010
Y335892
Y361483
X805919
X811037
X816155
X821273
X826391
X831509
X836627
X841745
X846863
X851982
X857100
X862218
X867336
X872454
X877572
X882690
X887808
X892926
X898044
X903163
X908281
X913399
X918517
X923635
X928753
X933871
X938989
X944108
X949226
X954344
X933871Y381955
X928753
X923635
Y387073
X918517
Y381955
X913399
Y387073
Y392191
X908281
Y387073
Y381955
X903163
Y387073
Y392191
Y397309
X898044
Y402427
X892926
Y397309
Y392191
X898044
Y387073
Y381955
X892926
Y387073
X887808
Y392191
Y397309
Y402427
Y407546
X882690
Y402427
Y397309
Y392191
Y387073
Y381955
X887808
X877572
Y387073
Y392191
Y397309
Y402427
Y407546
Y412664
X872454
Y407546
Y402427
Y397309
Y392191
Y387073
Y381955
X867336
Y387073
Y392191
Y397309
Y402427
Y407546
Y412664
X862218
Y407546
Y402427
Y397309
Y392191
Y387073
Y381955
X857100
Y387073
Y392191
Y397309
Y402427
Y407546
Y412664
X851982
Y407546
Y402427
Y397309
Y392191
Y387073
Y381955
X846863
Y387073
Y392191
Y397309
Y402427
Y407546
Y412664
X841745
Y407546
Y402427
Y397309
Y392191
Y387073
Y381955
X836627
Y387073
Y392191
Y397309
Y402427
Y407546
Y412664
X831509
Y407546
Y402427
Y397309
Y392191
Y387073
Y381955
X826391
Y387073
Y392191
Y397309
Y402427
Y407546
Y412664
X821273
Y407546
Y402427
Y397309
Y392191
Y387073
Y381955
X816155
Y387073
Y392191
Y397309
Y402427
Y407546
Y412664
X811037
Y407546
Y402427
Y397309
Y392191
Y387073
Y381955
X805919
Y387073
Y392191
Y397309
Y402427
Y407546
Y412664
X800800
Y407546
Y402427
Y397309
Y392191
Y387073
Y381955
Y371719
X805919
X811037
X816155
X821273
Y428018
X826391
X831509
X836627
X841745
X846863
X836627Y433136
X831509
X826391
Y438254
X821273Y433136
X816155Y428018
X959462Y361483
X964580
X969698
X974816
X979934
X985052
X990170
X995289
Y351246
X1000407
X1005525
Y346128
X1010643
Y341010
X1015761
Y335892
X1020879
X1010643
X1005525
Y341010
X1000407
Y346128
X995289
Y341010
Y335892
X1000407
X990170
Y341010
Y346128
Y351246
X985052
Y346128
Y341010
Y335892
X979934
Y341010
Y346128
Y351246
X974816
Y346128
Y341010
Y335892
X969698
Y341010
Y346128
Y351246
X964580
Y346128
Y341010
Y335892
X959462
Y341010
Y346128
Y351246
X1025997
X1036233
X1046470
X1056706
Y361483
X1061824
X1066942
X1072060
X1077178
X1082296
X1087414
X1092533
X1097651
X1102769
Y356364
Y351246
X1097651
Y356364
X1092533
Y351246
X1087414
Y356364
X1082296
Y351246
X1077178Y356364
X1072060
X1051588Y361483
Y366601
X1046470
Y361483
X1041352Y366601
X1036233Y361483
X1031115Y366601
X1025997Y361483
X1020879Y366601
X1015761Y361483
X1010643Y366601
X1031115Y346128
X1041352
X1051588
X1056706Y341010
X1051588Y335892
X1046470Y341010
X1041352Y335892
X1036233Y341010
X1087414
X1092533
X1097651
X1102769
Y335892
X1097651
X1092533
X1082296
X722500Y523500
X716266Y526446
X707500Y526000
X702000Y529500
X695000Y530000
X698000Y536500
X689500Y524000
X665500Y529500
X659000Y521000
X653000Y522500
X644500Y529000
X646000Y536500
X639000Y528500
X635500Y525000
X629500Y522500
X624803Y532468
X619000Y528000
X614766Y530000
X612285Y534240
X603000Y522500
X329860Y503500
T02
X1063898Y277992
X1073898
Y287992
X1063898
Y297992
X1073898
Y307992
X1063898
Y317992
X1073898
Y327992
X1063898
X188071
Y317992
Y307992
Y297992
Y287992
Y277992
X178071
Y287992
Y297992
Y307992
Y317992
Y327992
Y337992
X188071
Y347992
X178071
X1063898
Y337992
X1073898
Y347992
T03
X384830Y523228
X290736
T04
X475500Y461000
X531000Y462000
M30
