G04*
G04 #@! TF.GenerationSoftware,Altium Limited,Altium Designer,22.11.1 (43)*
G04*
G04 Layer_Color=16711935*
%FSLAX25Y25*%
%MOIN*%
G70*
G04*
G04 #@! TF.SameCoordinates,5E32505C-E00D-4BFB-BC25-6037A3F64914*
G04*
G04*
G04 #@! TF.FilePolarity,Negative*
G04*
G01*
G75*
%ADD17R,0.14764X0.03347*%
%ADD18R,0.03347X0.14764*%
%ADD19R,0.28150X0.28150*%
%ADD20C,0.13583*%
%ADD21C,0.02559*%
%ADD22C,0.09646*%
%ADD23C,0.06496*%
%ADD24R,0.06496X0.06496*%
%ADD25C,0.02953*%
%ADD34R,0.05709X0.10039*%
D17*
X1178347Y408452D02*
D03*
Y404515D02*
D03*
Y400578D02*
D03*
Y396641D02*
D03*
Y392704D02*
D03*
Y388767D02*
D03*
Y384830D02*
D03*
Y380893D02*
D03*
Y376956D02*
D03*
Y373019D02*
D03*
Y369082D02*
D03*
Y357271D02*
D03*
Y353334D02*
D03*
Y349397D02*
D03*
Y345460D02*
D03*
Y341523D02*
D03*
Y337586D02*
D03*
Y333649D02*
D03*
Y329712D02*
D03*
Y325775D02*
D03*
Y321838D02*
D03*
Y317901D02*
D03*
Y313964D02*
D03*
Y310027D02*
D03*
Y306090D02*
D03*
Y302153D02*
D03*
Y298216D02*
D03*
Y294279D02*
D03*
Y290342D02*
D03*
Y286405D02*
D03*
Y282468D02*
D03*
Y278531D02*
D03*
Y274594D02*
D03*
Y270657D02*
D03*
Y266720D02*
D03*
Y262783D02*
D03*
Y258846D02*
D03*
Y254909D02*
D03*
Y250972D02*
D03*
Y247035D02*
D03*
Y243098D02*
D03*
Y239161D02*
D03*
Y235224D02*
D03*
Y231287D02*
D03*
Y227350D02*
D03*
Y223413D02*
D03*
Y219476D02*
D03*
Y215539D02*
D03*
Y211602D02*
D03*
X71654Y408477D02*
D03*
Y404540D02*
D03*
Y400603D02*
D03*
Y396666D02*
D03*
Y392729D02*
D03*
Y388792D02*
D03*
Y384855D02*
D03*
Y380918D02*
D03*
Y376981D02*
D03*
Y373044D02*
D03*
Y369107D02*
D03*
Y357296D02*
D03*
Y353359D02*
D03*
Y349422D02*
D03*
Y345485D02*
D03*
Y341548D02*
D03*
Y337611D02*
D03*
Y333674D02*
D03*
Y329737D02*
D03*
Y325800D02*
D03*
Y321863D02*
D03*
Y317926D02*
D03*
Y313989D02*
D03*
Y310052D02*
D03*
Y306115D02*
D03*
Y302178D02*
D03*
Y298241D02*
D03*
Y294304D02*
D03*
Y290367D02*
D03*
Y286430D02*
D03*
Y282493D02*
D03*
Y278556D02*
D03*
Y274619D02*
D03*
Y270682D02*
D03*
Y266745D02*
D03*
Y262808D02*
D03*
Y258871D02*
D03*
Y254934D02*
D03*
Y250997D02*
D03*
Y247060D02*
D03*
Y243123D02*
D03*
Y239186D02*
D03*
Y235249D02*
D03*
Y231312D02*
D03*
Y227375D02*
D03*
Y223438D02*
D03*
Y219501D02*
D03*
Y215564D02*
D03*
Y211627D02*
D03*
D18*
X526575Y71654D02*
D03*
X530512D02*
D03*
X534449D02*
D03*
X538386D02*
D03*
X542323D02*
D03*
X546260D02*
D03*
X550197D02*
D03*
X554134D02*
D03*
X558071D02*
D03*
X562008D02*
D03*
X565945D02*
D03*
X577756D02*
D03*
X581693D02*
D03*
X585630D02*
D03*
X589567D02*
D03*
X593504D02*
D03*
X597441D02*
D03*
X601378D02*
D03*
X605315D02*
D03*
X609252D02*
D03*
X613189D02*
D03*
X617126D02*
D03*
X621063D02*
D03*
X625000D02*
D03*
X628937D02*
D03*
X632874D02*
D03*
X636811D02*
D03*
X640748D02*
D03*
X644685D02*
D03*
X648622D02*
D03*
X652559D02*
D03*
X656496D02*
D03*
X660433D02*
D03*
X664370D02*
D03*
X668307D02*
D03*
X672244D02*
D03*
X676181D02*
D03*
X680118D02*
D03*
X684055D02*
D03*
X687992D02*
D03*
X691929D02*
D03*
X695866D02*
D03*
X699803D02*
D03*
X703740D02*
D03*
X707677D02*
D03*
X711614D02*
D03*
X715551D02*
D03*
X719488D02*
D03*
X723425D02*
D03*
Y548413D02*
D03*
X719488D02*
D03*
X715551D02*
D03*
X711614D02*
D03*
X707677D02*
D03*
X703740D02*
D03*
X699803D02*
D03*
X695866D02*
D03*
X691929D02*
D03*
X687992D02*
D03*
X684055D02*
D03*
X680118D02*
D03*
X676181D02*
D03*
X672244D02*
D03*
X668307D02*
D03*
X664370D02*
D03*
X660433D02*
D03*
X656496D02*
D03*
X652559D02*
D03*
X648622D02*
D03*
X644685D02*
D03*
X640748D02*
D03*
X636811D02*
D03*
X632874D02*
D03*
X628937D02*
D03*
X625000D02*
D03*
X621063D02*
D03*
X617126D02*
D03*
X613189D02*
D03*
X609252D02*
D03*
X605315D02*
D03*
X601378D02*
D03*
X597441D02*
D03*
X593504D02*
D03*
X589567D02*
D03*
X585630D02*
D03*
X581693D02*
D03*
X577756D02*
D03*
X565945D02*
D03*
X562008D02*
D03*
X558071D02*
D03*
X554134D02*
D03*
X550197D02*
D03*
X546260D02*
D03*
X542323D02*
D03*
X538386D02*
D03*
X534449D02*
D03*
X530512D02*
D03*
X526575D02*
D03*
D19*
X531000Y462000D02*
D03*
X475500Y461000D02*
D03*
D20*
X290736Y523228D02*
D03*
X384830D02*
D03*
D21*
X302743Y516535D02*
D03*
X372822D02*
D03*
D22*
X1181102Y427350D02*
D03*
Y192704D02*
D03*
X507677Y68898D02*
D03*
X742323D02*
D03*
X742323Y551169D02*
D03*
X507677D02*
D03*
X68898Y427375D02*
D03*
Y192729D02*
D03*
D23*
X178071Y277992D02*
D03*
X188071D02*
D03*
X178071Y287992D02*
D03*
X188071D02*
D03*
X178071Y297992D02*
D03*
X188071D02*
D03*
X178071Y307992D02*
D03*
X188071D02*
D03*
X178071Y317992D02*
D03*
X188071D02*
D03*
X178071Y327992D02*
D03*
X188071D02*
D03*
X178071Y337992D02*
D03*
X188071D02*
D03*
X178071Y347992D02*
D03*
X1063898Y277992D02*
D03*
X1073898D02*
D03*
X1063898Y287992D02*
D03*
X1073898D02*
D03*
X1063898Y297992D02*
D03*
X1073898D02*
D03*
X1063898Y307992D02*
D03*
X1073898D02*
D03*
X1063898Y317992D02*
D03*
X1073898D02*
D03*
X1063898Y327992D02*
D03*
X1073898D02*
D03*
X1063898Y337992D02*
D03*
X1073898D02*
D03*
X1063898Y347992D02*
D03*
D24*
X188071D02*
D03*
X1073898D02*
D03*
D25*
X488596Y443372D02*
D03*
Y438254D02*
D03*
Y422900D02*
D03*
X483478Y443372D02*
D03*
Y438254D02*
D03*
Y422900D02*
D03*
X478360Y443372D02*
D03*
Y438254D02*
D03*
Y422900D02*
D03*
X473241Y443372D02*
D03*
Y438254D02*
D03*
Y422900D02*
D03*
X468123Y443372D02*
D03*
Y438254D02*
D03*
Y422900D02*
D03*
X463005Y443372D02*
D03*
Y438254D02*
D03*
Y422900D02*
D03*
X457887Y474081D02*
D03*
Y468963D02*
D03*
Y463845D02*
D03*
Y458727D02*
D03*
Y453609D02*
D03*
Y448490D02*
D03*
Y443372D02*
D03*
Y438254D02*
D03*
Y422900D02*
D03*
X452769Y468963D02*
D03*
Y463845D02*
D03*
Y458727D02*
D03*
Y453609D02*
D03*
Y448490D02*
D03*
Y443372D02*
D03*
Y438254D02*
D03*
Y422900D02*
D03*
X447651Y468963D02*
D03*
Y463845D02*
D03*
Y458727D02*
D03*
Y453609D02*
D03*
Y448490D02*
D03*
Y443372D02*
D03*
Y438254D02*
D03*
Y422900D02*
D03*
X442533Y468963D02*
D03*
Y463845D02*
D03*
Y458727D02*
D03*
Y453609D02*
D03*
Y448490D02*
D03*
Y443372D02*
D03*
Y438254D02*
D03*
Y422900D02*
D03*
Y417782D02*
D03*
Y412664D02*
D03*
Y407546D02*
D03*
Y402427D02*
D03*
Y397309D02*
D03*
Y392191D02*
D03*
Y387073D02*
D03*
Y381955D02*
D03*
Y376837D02*
D03*
Y371719D02*
D03*
Y366601D02*
D03*
Y361483D02*
D03*
Y356364D02*
D03*
Y351246D02*
D03*
Y346128D02*
D03*
Y341010D02*
D03*
Y335892D02*
D03*
X437415Y468963D02*
D03*
Y463845D02*
D03*
Y458727D02*
D03*
Y453609D02*
D03*
Y448490D02*
D03*
Y443372D02*
D03*
Y438254D02*
D03*
Y422900D02*
D03*
Y417782D02*
D03*
Y412664D02*
D03*
Y407546D02*
D03*
Y402427D02*
D03*
Y397309D02*
D03*
Y392191D02*
D03*
Y387073D02*
D03*
Y381955D02*
D03*
Y376837D02*
D03*
Y371719D02*
D03*
Y366601D02*
D03*
Y361483D02*
D03*
Y356364D02*
D03*
Y351246D02*
D03*
Y346128D02*
D03*
Y341010D02*
D03*
X432297Y468963D02*
D03*
Y463845D02*
D03*
Y458727D02*
D03*
Y453609D02*
D03*
Y448490D02*
D03*
Y443372D02*
D03*
Y438254D02*
D03*
Y422900D02*
D03*
Y417782D02*
D03*
Y412664D02*
D03*
Y407546D02*
D03*
Y402427D02*
D03*
Y397309D02*
D03*
Y392191D02*
D03*
Y387073D02*
D03*
Y381955D02*
D03*
Y376837D02*
D03*
Y371719D02*
D03*
Y366601D02*
D03*
Y361483D02*
D03*
Y356364D02*
D03*
Y351246D02*
D03*
Y346128D02*
D03*
Y341010D02*
D03*
X427178Y468963D02*
D03*
Y463845D02*
D03*
Y458727D02*
D03*
Y453609D02*
D03*
Y448490D02*
D03*
Y443372D02*
D03*
Y438254D02*
D03*
Y422900D02*
D03*
Y417782D02*
D03*
Y412664D02*
D03*
Y407546D02*
D03*
Y402427D02*
D03*
Y397309D02*
D03*
Y392191D02*
D03*
Y387073D02*
D03*
Y381955D02*
D03*
Y376837D02*
D03*
Y371719D02*
D03*
Y366601D02*
D03*
Y361483D02*
D03*
Y356364D02*
D03*
Y351246D02*
D03*
Y346128D02*
D03*
X422060Y468963D02*
D03*
Y463845D02*
D03*
Y458727D02*
D03*
Y453609D02*
D03*
Y448490D02*
D03*
Y443372D02*
D03*
Y438254D02*
D03*
Y422900D02*
D03*
Y417782D02*
D03*
Y412664D02*
D03*
Y407546D02*
D03*
Y402427D02*
D03*
Y397309D02*
D03*
Y392191D02*
D03*
Y387073D02*
D03*
Y381955D02*
D03*
Y376837D02*
D03*
Y371719D02*
D03*
Y366601D02*
D03*
Y361483D02*
D03*
Y356364D02*
D03*
Y351246D02*
D03*
Y346128D02*
D03*
X416942Y468963D02*
D03*
Y463845D02*
D03*
Y458727D02*
D03*
Y453609D02*
D03*
Y448490D02*
D03*
Y443372D02*
D03*
Y438254D02*
D03*
Y422900D02*
D03*
Y417782D02*
D03*
Y412664D02*
D03*
Y407546D02*
D03*
Y402427D02*
D03*
Y397309D02*
D03*
Y392191D02*
D03*
Y387073D02*
D03*
Y381955D02*
D03*
Y376837D02*
D03*
Y371719D02*
D03*
Y366601D02*
D03*
Y361483D02*
D03*
Y356364D02*
D03*
Y351246D02*
D03*
Y346128D02*
D03*
X411824Y468963D02*
D03*
Y463845D02*
D03*
Y458727D02*
D03*
Y453609D02*
D03*
Y448490D02*
D03*
Y443372D02*
D03*
Y422900D02*
D03*
Y417782D02*
D03*
Y412664D02*
D03*
Y407546D02*
D03*
Y402427D02*
D03*
Y397309D02*
D03*
Y392191D02*
D03*
Y387073D02*
D03*
Y381955D02*
D03*
Y376837D02*
D03*
Y371719D02*
D03*
Y366601D02*
D03*
Y361483D02*
D03*
Y356364D02*
D03*
Y351246D02*
D03*
X406706Y468963D02*
D03*
Y463845D02*
D03*
Y458727D02*
D03*
Y453609D02*
D03*
Y448490D02*
D03*
Y422900D02*
D03*
Y417782D02*
D03*
Y412664D02*
D03*
Y407546D02*
D03*
Y402427D02*
D03*
Y397309D02*
D03*
Y392191D02*
D03*
Y387073D02*
D03*
Y381955D02*
D03*
Y376837D02*
D03*
Y371719D02*
D03*
Y366601D02*
D03*
Y361483D02*
D03*
Y356364D02*
D03*
Y351246D02*
D03*
X401588Y468963D02*
D03*
Y463845D02*
D03*
Y458727D02*
D03*
Y453609D02*
D03*
Y428018D02*
D03*
Y422900D02*
D03*
Y417782D02*
D03*
Y412664D02*
D03*
Y407546D02*
D03*
Y402427D02*
D03*
Y397309D02*
D03*
Y392191D02*
D03*
Y387073D02*
D03*
Y381955D02*
D03*
Y376837D02*
D03*
Y371719D02*
D03*
Y366601D02*
D03*
Y361483D02*
D03*
Y356364D02*
D03*
X396470Y468963D02*
D03*
Y463845D02*
D03*
Y458727D02*
D03*
Y433136D02*
D03*
Y428018D02*
D03*
Y422900D02*
D03*
Y417782D02*
D03*
Y412664D02*
D03*
Y407546D02*
D03*
Y402427D02*
D03*
Y397309D02*
D03*
Y392191D02*
D03*
Y387073D02*
D03*
Y381955D02*
D03*
Y376837D02*
D03*
Y371719D02*
D03*
Y366601D02*
D03*
Y361483D02*
D03*
Y356364D02*
D03*
X391352Y463845D02*
D03*
Y438254D02*
D03*
Y433136D02*
D03*
Y428018D02*
D03*
Y422900D02*
D03*
Y417782D02*
D03*
Y412664D02*
D03*
Y407546D02*
D03*
Y402427D02*
D03*
Y397309D02*
D03*
Y392191D02*
D03*
Y387073D02*
D03*
Y381955D02*
D03*
Y376837D02*
D03*
Y371719D02*
D03*
Y366601D02*
D03*
Y361483D02*
D03*
X386233Y443372D02*
D03*
Y438254D02*
D03*
Y433136D02*
D03*
Y428018D02*
D03*
Y422900D02*
D03*
Y417782D02*
D03*
Y412664D02*
D03*
Y407546D02*
D03*
Y402427D02*
D03*
Y397309D02*
D03*
Y392191D02*
D03*
Y387073D02*
D03*
Y381955D02*
D03*
Y376837D02*
D03*
Y371719D02*
D03*
Y366601D02*
D03*
Y361483D02*
D03*
X381115Y448490D02*
D03*
Y443372D02*
D03*
Y438254D02*
D03*
Y433136D02*
D03*
Y428018D02*
D03*
Y422900D02*
D03*
Y417782D02*
D03*
Y412664D02*
D03*
Y407546D02*
D03*
Y402427D02*
D03*
Y397309D02*
D03*
Y392191D02*
D03*
Y387073D02*
D03*
Y381955D02*
D03*
Y376837D02*
D03*
Y371719D02*
D03*
Y366601D02*
D03*
X375997Y453609D02*
D03*
Y448490D02*
D03*
Y443372D02*
D03*
Y438254D02*
D03*
Y433136D02*
D03*
Y428018D02*
D03*
Y422900D02*
D03*
Y417782D02*
D03*
Y412664D02*
D03*
Y407546D02*
D03*
Y402427D02*
D03*
Y397309D02*
D03*
Y392191D02*
D03*
Y387073D02*
D03*
Y381955D02*
D03*
Y376837D02*
D03*
Y371719D02*
D03*
Y366601D02*
D03*
X370879Y458727D02*
D03*
Y453609D02*
D03*
Y448490D02*
D03*
Y443372D02*
D03*
Y438254D02*
D03*
Y433136D02*
D03*
Y428018D02*
D03*
Y422900D02*
D03*
Y417782D02*
D03*
Y412664D02*
D03*
Y407546D02*
D03*
Y402427D02*
D03*
Y397309D02*
D03*
Y392191D02*
D03*
Y387073D02*
D03*
Y381955D02*
D03*
Y376837D02*
D03*
Y371719D02*
D03*
Y366601D02*
D03*
X365761Y463845D02*
D03*
Y458727D02*
D03*
Y453609D02*
D03*
Y448490D02*
D03*
Y443372D02*
D03*
Y438254D02*
D03*
Y433136D02*
D03*
Y428018D02*
D03*
Y422900D02*
D03*
Y417782D02*
D03*
Y412664D02*
D03*
Y407546D02*
D03*
Y402427D02*
D03*
Y397309D02*
D03*
Y392191D02*
D03*
Y387073D02*
D03*
Y381955D02*
D03*
Y376837D02*
D03*
Y371719D02*
D03*
X360643Y463845D02*
D03*
Y458727D02*
D03*
Y453609D02*
D03*
Y448490D02*
D03*
Y443372D02*
D03*
Y438254D02*
D03*
Y433136D02*
D03*
Y428018D02*
D03*
Y422900D02*
D03*
Y417782D02*
D03*
Y412664D02*
D03*
Y407546D02*
D03*
Y402427D02*
D03*
Y397309D02*
D03*
Y392191D02*
D03*
Y387073D02*
D03*
Y381955D02*
D03*
Y376837D02*
D03*
Y371719D02*
D03*
X355525Y463845D02*
D03*
Y458727D02*
D03*
Y453609D02*
D03*
Y448490D02*
D03*
Y443372D02*
D03*
Y438254D02*
D03*
Y433136D02*
D03*
Y428018D02*
D03*
Y422900D02*
D03*
Y417782D02*
D03*
Y412664D02*
D03*
Y407546D02*
D03*
Y402427D02*
D03*
Y397309D02*
D03*
Y392191D02*
D03*
Y387073D02*
D03*
Y381955D02*
D03*
Y376837D02*
D03*
X350407Y463845D02*
D03*
Y458727D02*
D03*
Y453609D02*
D03*
Y448490D02*
D03*
Y443372D02*
D03*
Y438254D02*
D03*
Y433136D02*
D03*
Y428018D02*
D03*
Y422900D02*
D03*
Y417782D02*
D03*
Y412664D02*
D03*
Y407546D02*
D03*
Y402427D02*
D03*
Y397309D02*
D03*
Y392191D02*
D03*
Y387073D02*
D03*
Y381955D02*
D03*
Y376837D02*
D03*
X345289Y463845D02*
D03*
Y458727D02*
D03*
Y453609D02*
D03*
Y448490D02*
D03*
Y443372D02*
D03*
Y438254D02*
D03*
Y433136D02*
D03*
Y428018D02*
D03*
Y422900D02*
D03*
Y417782D02*
D03*
Y412664D02*
D03*
Y407546D02*
D03*
Y402427D02*
D03*
Y397309D02*
D03*
Y392191D02*
D03*
X340171Y463845D02*
D03*
Y458727D02*
D03*
Y453609D02*
D03*
Y448490D02*
D03*
Y443372D02*
D03*
Y438254D02*
D03*
Y433136D02*
D03*
Y428018D02*
D03*
Y422900D02*
D03*
Y417782D02*
D03*
Y412664D02*
D03*
X335052Y463845D02*
D03*
Y458727D02*
D03*
Y453609D02*
D03*
Y448490D02*
D03*
Y443372D02*
D03*
Y438254D02*
D03*
Y433136D02*
D03*
X329934Y463845D02*
D03*
Y458727D02*
D03*
Y453609D02*
D03*
X203000Y231000D02*
D03*
X518500D02*
D03*
X703620Y231529D02*
D03*
X111724Y231312D02*
D03*
X613189Y424408D02*
D03*
X617126Y415508D02*
D03*
X230000Y265000D02*
D03*
X479000Y264500D02*
D03*
X231000Y255500D02*
D03*
X488500Y256000D02*
D03*
X221000Y247000D02*
D03*
X501500Y247500D02*
D03*
X124520Y186608D02*
D03*
X574000Y186500D02*
D03*
X1102769Y361483D02*
D03*
Y356364D02*
D03*
Y351246D02*
D03*
Y341010D02*
D03*
Y335892D02*
D03*
Y330774D02*
D03*
X1097651Y361483D02*
D03*
Y356364D02*
D03*
Y351246D02*
D03*
Y341010D02*
D03*
Y335892D02*
D03*
Y330774D02*
D03*
X1092533Y361483D02*
D03*
Y356364D02*
D03*
Y351246D02*
D03*
Y341010D02*
D03*
Y335892D02*
D03*
Y325656D02*
D03*
X1087414Y361483D02*
D03*
Y356364D02*
D03*
Y351246D02*
D03*
Y341010D02*
D03*
Y330774D02*
D03*
X1082296Y361483D02*
D03*
Y356364D02*
D03*
Y351246D02*
D03*
Y335892D02*
D03*
Y325656D02*
D03*
Y300065D02*
D03*
X1077178Y361483D02*
D03*
Y356364D02*
D03*
X1072060Y361483D02*
D03*
Y356364D02*
D03*
X1066942Y361483D02*
D03*
X1061824D02*
D03*
X1056706D02*
D03*
Y351246D02*
D03*
Y341010D02*
D03*
Y330774D02*
D03*
Y320538D02*
D03*
Y289829D02*
D03*
Y279593D02*
D03*
Y269357D02*
D03*
X1051588Y366601D02*
D03*
Y361483D02*
D03*
Y346128D02*
D03*
Y335892D02*
D03*
Y325656D02*
D03*
Y305183D02*
D03*
Y289829D02*
D03*
Y279593D02*
D03*
Y269357D02*
D03*
X1046470Y366601D02*
D03*
Y361483D02*
D03*
Y351246D02*
D03*
Y341010D02*
D03*
Y330774D02*
D03*
Y310301D02*
D03*
Y305183D02*
D03*
Y289829D02*
D03*
Y279593D02*
D03*
Y269357D02*
D03*
X1041352Y366601D02*
D03*
Y346128D02*
D03*
Y335892D02*
D03*
Y315420D02*
D03*
Y310301D02*
D03*
Y305183D02*
D03*
Y289829D02*
D03*
Y274475D02*
D03*
Y269357D02*
D03*
X1036233Y361483D02*
D03*
Y351246D02*
D03*
Y341010D02*
D03*
Y320538D02*
D03*
Y315420D02*
D03*
Y310301D02*
D03*
Y305183D02*
D03*
Y289829D02*
D03*
Y274475D02*
D03*
Y269357D02*
D03*
X1031115Y366601D02*
D03*
Y346128D02*
D03*
Y325656D02*
D03*
Y320538D02*
D03*
Y315420D02*
D03*
Y310301D02*
D03*
Y305183D02*
D03*
Y289829D02*
D03*
Y274475D02*
D03*
Y269357D02*
D03*
X1025997Y361483D02*
D03*
Y351246D02*
D03*
Y330774D02*
D03*
Y325656D02*
D03*
Y320538D02*
D03*
Y315420D02*
D03*
Y310301D02*
D03*
Y305183D02*
D03*
Y289829D02*
D03*
Y274475D02*
D03*
Y269357D02*
D03*
X1020879Y366601D02*
D03*
Y335892D02*
D03*
Y330774D02*
D03*
Y325656D02*
D03*
Y320538D02*
D03*
Y315420D02*
D03*
Y310301D02*
D03*
Y305183D02*
D03*
Y289829D02*
D03*
Y274475D02*
D03*
Y269357D02*
D03*
X1015761Y361483D02*
D03*
Y341010D02*
D03*
Y335892D02*
D03*
Y330774D02*
D03*
Y325656D02*
D03*
Y320538D02*
D03*
Y315420D02*
D03*
Y310301D02*
D03*
Y305183D02*
D03*
Y289829D02*
D03*
Y274475D02*
D03*
Y269357D02*
D03*
X1010643Y366601D02*
D03*
Y346128D02*
D03*
Y341010D02*
D03*
Y335892D02*
D03*
Y330774D02*
D03*
Y325656D02*
D03*
Y320538D02*
D03*
Y315420D02*
D03*
Y310301D02*
D03*
Y305183D02*
D03*
Y289829D02*
D03*
Y274475D02*
D03*
Y269357D02*
D03*
X1005525Y351246D02*
D03*
Y346128D02*
D03*
Y341010D02*
D03*
Y335892D02*
D03*
Y330774D02*
D03*
Y325656D02*
D03*
Y320538D02*
D03*
Y315420D02*
D03*
Y310301D02*
D03*
Y305183D02*
D03*
Y289829D02*
D03*
Y274475D02*
D03*
Y269357D02*
D03*
X1000407Y351246D02*
D03*
Y346128D02*
D03*
Y341010D02*
D03*
Y335892D02*
D03*
Y330774D02*
D03*
Y325656D02*
D03*
Y320538D02*
D03*
Y315420D02*
D03*
Y310301D02*
D03*
Y305183D02*
D03*
Y289829D02*
D03*
Y274475D02*
D03*
Y269357D02*
D03*
X995289Y361483D02*
D03*
Y351246D02*
D03*
Y346128D02*
D03*
Y341010D02*
D03*
Y335892D02*
D03*
Y330774D02*
D03*
Y325656D02*
D03*
Y320538D02*
D03*
Y315420D02*
D03*
Y310301D02*
D03*
Y305183D02*
D03*
Y289829D02*
D03*
Y274475D02*
D03*
Y269357D02*
D03*
X990170Y361483D02*
D03*
Y351246D02*
D03*
Y346128D02*
D03*
Y341010D02*
D03*
Y335892D02*
D03*
Y330774D02*
D03*
Y325656D02*
D03*
Y320538D02*
D03*
Y315420D02*
D03*
Y310301D02*
D03*
Y305183D02*
D03*
Y289829D02*
D03*
Y274475D02*
D03*
Y269357D02*
D03*
X985052Y361483D02*
D03*
Y351246D02*
D03*
Y346128D02*
D03*
Y341010D02*
D03*
Y335892D02*
D03*
Y330774D02*
D03*
Y325656D02*
D03*
Y320538D02*
D03*
Y315420D02*
D03*
Y310301D02*
D03*
Y305183D02*
D03*
Y289829D02*
D03*
Y274475D02*
D03*
Y269357D02*
D03*
X979934Y361483D02*
D03*
Y351246D02*
D03*
Y346128D02*
D03*
Y341010D02*
D03*
Y335892D02*
D03*
Y330774D02*
D03*
Y325656D02*
D03*
Y320538D02*
D03*
Y315420D02*
D03*
Y310301D02*
D03*
Y305183D02*
D03*
Y289829D02*
D03*
Y274475D02*
D03*
Y269357D02*
D03*
X974816Y361483D02*
D03*
Y351246D02*
D03*
Y346128D02*
D03*
Y341010D02*
D03*
Y335892D02*
D03*
Y330774D02*
D03*
Y325656D02*
D03*
Y320538D02*
D03*
Y315420D02*
D03*
Y310301D02*
D03*
Y305183D02*
D03*
Y289829D02*
D03*
Y274475D02*
D03*
Y269357D02*
D03*
X969698Y361483D02*
D03*
Y351246D02*
D03*
Y346128D02*
D03*
Y341010D02*
D03*
Y335892D02*
D03*
Y330774D02*
D03*
Y325656D02*
D03*
Y320538D02*
D03*
Y315420D02*
D03*
Y310301D02*
D03*
Y305183D02*
D03*
Y289829D02*
D03*
Y274475D02*
D03*
Y269357D02*
D03*
X964580Y361483D02*
D03*
Y351246D02*
D03*
Y346128D02*
D03*
Y341010D02*
D03*
Y335892D02*
D03*
Y330774D02*
D03*
Y325656D02*
D03*
Y320538D02*
D03*
Y315420D02*
D03*
Y310301D02*
D03*
Y305183D02*
D03*
Y289829D02*
D03*
Y274475D02*
D03*
Y269357D02*
D03*
X959462Y361483D02*
D03*
Y351246D02*
D03*
Y346128D02*
D03*
Y341010D02*
D03*
Y335892D02*
D03*
Y330774D02*
D03*
Y325656D02*
D03*
Y320538D02*
D03*
Y315420D02*
D03*
Y310301D02*
D03*
Y305183D02*
D03*
Y289829D02*
D03*
Y274475D02*
D03*
Y269357D02*
D03*
X954344Y361483D02*
D03*
Y351246D02*
D03*
Y346128D02*
D03*
Y341010D02*
D03*
Y335892D02*
D03*
Y330774D02*
D03*
Y325656D02*
D03*
Y320538D02*
D03*
Y315420D02*
D03*
Y310301D02*
D03*
Y305183D02*
D03*
Y289829D02*
D03*
Y274475D02*
D03*
Y269357D02*
D03*
X949226Y361483D02*
D03*
Y351246D02*
D03*
Y346128D02*
D03*
Y341010D02*
D03*
Y335892D02*
D03*
Y330774D02*
D03*
Y325656D02*
D03*
Y320538D02*
D03*
Y315420D02*
D03*
Y310301D02*
D03*
Y305183D02*
D03*
Y289829D02*
D03*
Y274475D02*
D03*
Y269357D02*
D03*
X944108Y361483D02*
D03*
Y351246D02*
D03*
Y346128D02*
D03*
Y341010D02*
D03*
Y335892D02*
D03*
Y330774D02*
D03*
Y325656D02*
D03*
Y320538D02*
D03*
Y315420D02*
D03*
Y310301D02*
D03*
Y305183D02*
D03*
Y289829D02*
D03*
Y274475D02*
D03*
Y269357D02*
D03*
X938989Y361483D02*
D03*
Y351246D02*
D03*
Y346128D02*
D03*
Y341010D02*
D03*
Y335892D02*
D03*
Y330774D02*
D03*
Y325656D02*
D03*
Y320538D02*
D03*
Y315420D02*
D03*
Y310301D02*
D03*
Y305183D02*
D03*
Y289829D02*
D03*
Y274475D02*
D03*
Y269357D02*
D03*
X933871Y381955D02*
D03*
Y361483D02*
D03*
Y351246D02*
D03*
Y346128D02*
D03*
Y341010D02*
D03*
Y335892D02*
D03*
Y330774D02*
D03*
Y325656D02*
D03*
Y320538D02*
D03*
Y315420D02*
D03*
Y310301D02*
D03*
Y305183D02*
D03*
Y289829D02*
D03*
Y274475D02*
D03*
Y269357D02*
D03*
X928753Y381955D02*
D03*
Y361483D02*
D03*
Y351246D02*
D03*
Y346128D02*
D03*
Y341010D02*
D03*
Y335892D02*
D03*
Y330774D02*
D03*
Y325656D02*
D03*
Y320538D02*
D03*
Y315420D02*
D03*
Y310301D02*
D03*
Y305183D02*
D03*
Y289829D02*
D03*
Y274475D02*
D03*
Y269357D02*
D03*
X923635Y387073D02*
D03*
Y381955D02*
D03*
Y361483D02*
D03*
Y351246D02*
D03*
Y346128D02*
D03*
Y341010D02*
D03*
Y335892D02*
D03*
Y330774D02*
D03*
Y325656D02*
D03*
Y320538D02*
D03*
Y315420D02*
D03*
Y310301D02*
D03*
Y305183D02*
D03*
Y289829D02*
D03*
Y274475D02*
D03*
Y269357D02*
D03*
X918517Y387073D02*
D03*
Y381955D02*
D03*
Y361483D02*
D03*
Y351246D02*
D03*
Y346128D02*
D03*
Y341010D02*
D03*
Y335892D02*
D03*
Y330774D02*
D03*
Y325656D02*
D03*
Y320538D02*
D03*
Y315420D02*
D03*
Y310301D02*
D03*
Y305183D02*
D03*
Y289829D02*
D03*
Y274475D02*
D03*
Y269357D02*
D03*
X913399Y392191D02*
D03*
Y387073D02*
D03*
Y381955D02*
D03*
Y361483D02*
D03*
Y351246D02*
D03*
Y346128D02*
D03*
Y341010D02*
D03*
Y335892D02*
D03*
Y330774D02*
D03*
Y325656D02*
D03*
Y320538D02*
D03*
Y315420D02*
D03*
Y310301D02*
D03*
Y305183D02*
D03*
Y289829D02*
D03*
Y274475D02*
D03*
Y269357D02*
D03*
X908281Y392191D02*
D03*
Y387073D02*
D03*
Y381955D02*
D03*
Y361483D02*
D03*
Y351246D02*
D03*
Y346128D02*
D03*
Y341010D02*
D03*
Y335892D02*
D03*
Y330774D02*
D03*
Y325656D02*
D03*
Y320538D02*
D03*
Y315420D02*
D03*
Y310301D02*
D03*
Y305183D02*
D03*
Y289829D02*
D03*
Y274475D02*
D03*
Y269357D02*
D03*
X903163Y397309D02*
D03*
Y392191D02*
D03*
Y387073D02*
D03*
Y381955D02*
D03*
Y361483D02*
D03*
Y351246D02*
D03*
Y346128D02*
D03*
Y341010D02*
D03*
Y335892D02*
D03*
Y330774D02*
D03*
Y325656D02*
D03*
Y320538D02*
D03*
Y315420D02*
D03*
Y310301D02*
D03*
Y305183D02*
D03*
Y289829D02*
D03*
Y274475D02*
D03*
Y269357D02*
D03*
X898044Y402427D02*
D03*
Y397309D02*
D03*
Y392191D02*
D03*
Y387073D02*
D03*
Y381955D02*
D03*
Y361483D02*
D03*
Y351246D02*
D03*
Y346128D02*
D03*
Y341010D02*
D03*
Y335892D02*
D03*
Y330774D02*
D03*
Y325656D02*
D03*
Y320538D02*
D03*
Y315420D02*
D03*
Y310301D02*
D03*
Y305183D02*
D03*
Y289829D02*
D03*
Y274475D02*
D03*
Y269357D02*
D03*
X892926Y402427D02*
D03*
Y397309D02*
D03*
Y392191D02*
D03*
Y387073D02*
D03*
Y381955D02*
D03*
Y361483D02*
D03*
Y351246D02*
D03*
Y346128D02*
D03*
Y341010D02*
D03*
Y335892D02*
D03*
Y330774D02*
D03*
Y325656D02*
D03*
Y320538D02*
D03*
Y315420D02*
D03*
Y310301D02*
D03*
Y305183D02*
D03*
Y289829D02*
D03*
Y274475D02*
D03*
Y269357D02*
D03*
X887808Y407546D02*
D03*
Y402427D02*
D03*
Y397309D02*
D03*
Y392191D02*
D03*
Y387073D02*
D03*
Y381955D02*
D03*
Y361483D02*
D03*
Y351246D02*
D03*
Y346128D02*
D03*
Y341010D02*
D03*
Y335892D02*
D03*
Y330774D02*
D03*
Y325656D02*
D03*
Y320538D02*
D03*
Y315420D02*
D03*
Y310301D02*
D03*
Y305183D02*
D03*
Y289829D02*
D03*
Y274475D02*
D03*
Y269357D02*
D03*
X882690Y407546D02*
D03*
Y402427D02*
D03*
Y397309D02*
D03*
Y392191D02*
D03*
Y387073D02*
D03*
Y381955D02*
D03*
Y361483D02*
D03*
Y351246D02*
D03*
Y346128D02*
D03*
Y341010D02*
D03*
Y335892D02*
D03*
Y330774D02*
D03*
Y325656D02*
D03*
Y320538D02*
D03*
Y315420D02*
D03*
Y310301D02*
D03*
Y305183D02*
D03*
Y289829D02*
D03*
Y274475D02*
D03*
Y269357D02*
D03*
X877572Y412664D02*
D03*
Y407546D02*
D03*
Y402427D02*
D03*
Y397309D02*
D03*
Y392191D02*
D03*
Y387073D02*
D03*
Y381955D02*
D03*
Y361483D02*
D03*
Y351246D02*
D03*
Y346128D02*
D03*
Y341010D02*
D03*
Y335892D02*
D03*
Y330774D02*
D03*
Y325656D02*
D03*
Y320538D02*
D03*
Y315420D02*
D03*
Y310301D02*
D03*
Y305183D02*
D03*
Y289829D02*
D03*
Y274475D02*
D03*
Y269357D02*
D03*
X872454Y412664D02*
D03*
Y407546D02*
D03*
Y402427D02*
D03*
Y397309D02*
D03*
Y392191D02*
D03*
Y387073D02*
D03*
Y381955D02*
D03*
Y361483D02*
D03*
Y351246D02*
D03*
Y346128D02*
D03*
Y341010D02*
D03*
Y335892D02*
D03*
Y330774D02*
D03*
Y325656D02*
D03*
Y320538D02*
D03*
Y315420D02*
D03*
Y310301D02*
D03*
Y305183D02*
D03*
Y289829D02*
D03*
Y274475D02*
D03*
Y269357D02*
D03*
X867336Y412664D02*
D03*
Y407546D02*
D03*
Y402427D02*
D03*
Y397309D02*
D03*
Y392191D02*
D03*
Y387073D02*
D03*
Y381955D02*
D03*
Y361483D02*
D03*
Y351246D02*
D03*
Y346128D02*
D03*
Y341010D02*
D03*
Y335892D02*
D03*
Y330774D02*
D03*
Y325656D02*
D03*
Y320538D02*
D03*
Y315420D02*
D03*
Y310301D02*
D03*
Y305183D02*
D03*
Y289829D02*
D03*
Y274475D02*
D03*
Y269357D02*
D03*
X862218Y412664D02*
D03*
Y407546D02*
D03*
Y402427D02*
D03*
Y397309D02*
D03*
Y392191D02*
D03*
Y387073D02*
D03*
Y381955D02*
D03*
Y361483D02*
D03*
Y351246D02*
D03*
Y346128D02*
D03*
Y341010D02*
D03*
Y335892D02*
D03*
Y330774D02*
D03*
Y325656D02*
D03*
Y320538D02*
D03*
Y315420D02*
D03*
Y310301D02*
D03*
Y305183D02*
D03*
Y289829D02*
D03*
Y274475D02*
D03*
Y269357D02*
D03*
X857100Y412664D02*
D03*
Y407546D02*
D03*
Y402427D02*
D03*
Y397309D02*
D03*
Y392191D02*
D03*
Y387073D02*
D03*
Y381955D02*
D03*
Y361483D02*
D03*
Y351246D02*
D03*
Y346128D02*
D03*
Y341010D02*
D03*
Y335892D02*
D03*
Y330774D02*
D03*
Y325656D02*
D03*
Y320538D02*
D03*
Y315420D02*
D03*
Y310301D02*
D03*
Y305183D02*
D03*
Y289829D02*
D03*
Y274475D02*
D03*
Y269357D02*
D03*
X851982Y412664D02*
D03*
Y407546D02*
D03*
Y402427D02*
D03*
Y397309D02*
D03*
Y392191D02*
D03*
Y387073D02*
D03*
Y381955D02*
D03*
Y361483D02*
D03*
Y351246D02*
D03*
Y346128D02*
D03*
Y341010D02*
D03*
Y335892D02*
D03*
Y330774D02*
D03*
Y325656D02*
D03*
Y320538D02*
D03*
Y315420D02*
D03*
Y310301D02*
D03*
Y305183D02*
D03*
Y289829D02*
D03*
Y274475D02*
D03*
Y269357D02*
D03*
X846863Y428018D02*
D03*
Y412664D02*
D03*
Y407546D02*
D03*
Y402427D02*
D03*
Y397309D02*
D03*
Y392191D02*
D03*
Y387073D02*
D03*
Y381955D02*
D03*
Y361483D02*
D03*
Y351246D02*
D03*
Y346128D02*
D03*
Y341010D02*
D03*
Y335892D02*
D03*
Y330774D02*
D03*
Y325656D02*
D03*
Y320538D02*
D03*
Y315420D02*
D03*
Y310301D02*
D03*
Y305183D02*
D03*
Y289829D02*
D03*
Y274475D02*
D03*
Y269357D02*
D03*
X841745Y428018D02*
D03*
Y412664D02*
D03*
Y407546D02*
D03*
Y402427D02*
D03*
Y397309D02*
D03*
Y392191D02*
D03*
Y387073D02*
D03*
Y381955D02*
D03*
Y361483D02*
D03*
Y351246D02*
D03*
Y346128D02*
D03*
Y341010D02*
D03*
Y335892D02*
D03*
Y330774D02*
D03*
Y325656D02*
D03*
Y320538D02*
D03*
Y315420D02*
D03*
Y310301D02*
D03*
Y305183D02*
D03*
Y289829D02*
D03*
Y274475D02*
D03*
Y269357D02*
D03*
X836627Y433136D02*
D03*
Y428018D02*
D03*
Y412664D02*
D03*
Y407546D02*
D03*
Y402427D02*
D03*
Y397309D02*
D03*
Y392191D02*
D03*
Y387073D02*
D03*
Y381955D02*
D03*
Y361483D02*
D03*
Y351246D02*
D03*
Y346128D02*
D03*
Y341010D02*
D03*
Y335892D02*
D03*
Y330774D02*
D03*
Y325656D02*
D03*
Y320538D02*
D03*
Y315420D02*
D03*
Y310301D02*
D03*
Y305183D02*
D03*
Y289829D02*
D03*
Y274475D02*
D03*
Y269357D02*
D03*
X831509Y433136D02*
D03*
Y428018D02*
D03*
Y412664D02*
D03*
Y407546D02*
D03*
Y402427D02*
D03*
Y397309D02*
D03*
Y392191D02*
D03*
Y387073D02*
D03*
Y381955D02*
D03*
Y361483D02*
D03*
Y351246D02*
D03*
Y346128D02*
D03*
Y341010D02*
D03*
Y335892D02*
D03*
Y330774D02*
D03*
Y325656D02*
D03*
Y320538D02*
D03*
Y315420D02*
D03*
Y310301D02*
D03*
Y305183D02*
D03*
Y289829D02*
D03*
Y274475D02*
D03*
Y269357D02*
D03*
X826391Y438254D02*
D03*
Y433136D02*
D03*
Y428018D02*
D03*
Y412664D02*
D03*
Y407546D02*
D03*
Y402427D02*
D03*
Y397309D02*
D03*
Y392191D02*
D03*
Y387073D02*
D03*
Y381955D02*
D03*
Y361483D02*
D03*
Y351246D02*
D03*
Y346128D02*
D03*
Y341010D02*
D03*
Y335892D02*
D03*
Y330774D02*
D03*
Y325656D02*
D03*
Y320538D02*
D03*
Y315420D02*
D03*
Y310301D02*
D03*
Y305183D02*
D03*
Y289829D02*
D03*
Y274475D02*
D03*
Y269357D02*
D03*
X821273Y433136D02*
D03*
Y428018D02*
D03*
Y412664D02*
D03*
Y407546D02*
D03*
Y402427D02*
D03*
Y397309D02*
D03*
Y392191D02*
D03*
Y387073D02*
D03*
Y381955D02*
D03*
Y371719D02*
D03*
Y361483D02*
D03*
Y351246D02*
D03*
Y346128D02*
D03*
Y341010D02*
D03*
Y335892D02*
D03*
Y330774D02*
D03*
Y325656D02*
D03*
Y320538D02*
D03*
Y315420D02*
D03*
Y310301D02*
D03*
Y305183D02*
D03*
Y289829D02*
D03*
Y274475D02*
D03*
Y269357D02*
D03*
X816155Y428018D02*
D03*
Y412664D02*
D03*
Y407546D02*
D03*
Y402427D02*
D03*
Y397309D02*
D03*
Y392191D02*
D03*
Y387073D02*
D03*
Y381955D02*
D03*
Y371719D02*
D03*
Y361483D02*
D03*
Y351246D02*
D03*
Y346128D02*
D03*
Y341010D02*
D03*
Y335892D02*
D03*
Y330774D02*
D03*
Y325656D02*
D03*
Y320538D02*
D03*
Y315420D02*
D03*
Y310301D02*
D03*
Y305183D02*
D03*
Y289829D02*
D03*
Y274475D02*
D03*
Y269357D02*
D03*
X811037Y412664D02*
D03*
Y407546D02*
D03*
Y402427D02*
D03*
Y397309D02*
D03*
Y392191D02*
D03*
Y387073D02*
D03*
Y381955D02*
D03*
Y371719D02*
D03*
Y361483D02*
D03*
Y351246D02*
D03*
Y346128D02*
D03*
Y341010D02*
D03*
Y335892D02*
D03*
Y330774D02*
D03*
Y325656D02*
D03*
Y320538D02*
D03*
Y315420D02*
D03*
Y310301D02*
D03*
Y305183D02*
D03*
Y289829D02*
D03*
Y274475D02*
D03*
Y269357D02*
D03*
X805919Y412664D02*
D03*
Y407546D02*
D03*
Y402427D02*
D03*
Y397309D02*
D03*
Y392191D02*
D03*
Y387073D02*
D03*
Y381955D02*
D03*
Y371719D02*
D03*
Y361483D02*
D03*
Y351246D02*
D03*
Y346128D02*
D03*
Y341010D02*
D03*
Y335892D02*
D03*
Y330774D02*
D03*
Y325656D02*
D03*
Y320538D02*
D03*
Y315420D02*
D03*
Y310301D02*
D03*
Y305183D02*
D03*
Y289829D02*
D03*
Y274475D02*
D03*
Y269357D02*
D03*
X800800Y412664D02*
D03*
Y407546D02*
D03*
Y402427D02*
D03*
Y397309D02*
D03*
Y392191D02*
D03*
Y387073D02*
D03*
Y381955D02*
D03*
Y371719D02*
D03*
Y361483D02*
D03*
Y351246D02*
D03*
Y346128D02*
D03*
Y341010D02*
D03*
Y335892D02*
D03*
Y330774D02*
D03*
Y325656D02*
D03*
Y320538D02*
D03*
Y315420D02*
D03*
Y310301D02*
D03*
Y305183D02*
D03*
Y289829D02*
D03*
Y274475D02*
D03*
Y269357D02*
D03*
X795682Y407546D02*
D03*
Y402427D02*
D03*
Y397309D02*
D03*
Y392191D02*
D03*
Y387073D02*
D03*
Y381955D02*
D03*
Y371719D02*
D03*
Y361483D02*
D03*
Y351246D02*
D03*
Y346128D02*
D03*
Y341010D02*
D03*
Y335892D02*
D03*
Y330774D02*
D03*
Y325656D02*
D03*
Y320538D02*
D03*
Y315420D02*
D03*
Y310301D02*
D03*
Y305183D02*
D03*
Y289829D02*
D03*
Y274475D02*
D03*
Y269357D02*
D03*
X790564Y402427D02*
D03*
Y397309D02*
D03*
Y392191D02*
D03*
Y387073D02*
D03*
Y381955D02*
D03*
Y371719D02*
D03*
Y361483D02*
D03*
Y351246D02*
D03*
Y346128D02*
D03*
Y341010D02*
D03*
Y335892D02*
D03*
Y330774D02*
D03*
Y325656D02*
D03*
Y320538D02*
D03*
Y315420D02*
D03*
Y310301D02*
D03*
Y305183D02*
D03*
Y289829D02*
D03*
Y274475D02*
D03*
Y269357D02*
D03*
X785446Y397309D02*
D03*
Y392191D02*
D03*
Y387073D02*
D03*
Y381955D02*
D03*
Y371719D02*
D03*
Y361483D02*
D03*
Y351246D02*
D03*
Y346128D02*
D03*
Y341010D02*
D03*
Y335892D02*
D03*
Y330774D02*
D03*
Y325656D02*
D03*
Y320538D02*
D03*
Y315420D02*
D03*
Y310301D02*
D03*
Y305183D02*
D03*
Y289829D02*
D03*
Y274475D02*
D03*
Y269357D02*
D03*
X780328Y392191D02*
D03*
Y387073D02*
D03*
Y371719D02*
D03*
X775210Y376837D02*
D03*
X770092Y381955D02*
D03*
X691929Y97898D02*
D03*
X736500Y98000D02*
D03*
X735172Y112172D02*
D03*
X719488Y104950D02*
D03*
X644500Y272000D02*
D03*
X80832Y294708D02*
D03*
X660000Y437500D02*
D03*
X658000Y446500D02*
D03*
X659000Y521000D02*
D03*
X665500Y529500D02*
D03*
X704641Y427362D02*
D03*
X583500Y376500D02*
D03*
X625000Y365108D02*
D03*
X649895Y368835D02*
D03*
X753000Y355000D02*
D03*
X599466Y441951D02*
D03*
X603000Y522500D02*
D03*
X611500Y440500D02*
D03*
X612285Y534240D02*
D03*
X614766Y530000D02*
D03*
X722500Y523500D02*
D03*
X711500Y443000D02*
D03*
X712500Y431500D02*
D03*
X716266Y526446D02*
D03*
X706500Y436000D02*
D03*
X707500Y526000D02*
D03*
X701500Y442000D02*
D03*
X692500Y445500D02*
D03*
X683000Y441500D02*
D03*
X674000Y445500D02*
D03*
X687992Y262481D02*
D03*
X702000Y260000D02*
D03*
X636811Y264717D02*
D03*
X702000Y529500D02*
D03*
X698000Y536500D02*
D03*
X695000Y530000D02*
D03*
X689500Y524000D02*
D03*
X635000Y284500D02*
D03*
X653500Y437500D02*
D03*
X653000Y522500D02*
D03*
X646000Y536500D02*
D03*
X649500Y452500D02*
D03*
X646500Y442500D02*
D03*
X644500Y529000D02*
D03*
X640748Y270108D02*
D03*
X641235Y436365D02*
D03*
X639000Y528500D02*
D03*
X636500Y441000D02*
D03*
X635500Y525000D02*
D03*
X631500Y437500D02*
D03*
X629500Y522500D02*
D03*
X627000Y443000D02*
D03*
X624803Y532468D02*
D03*
X619000Y528000D02*
D03*
X617500Y436500D02*
D03*
X622500Y437500D02*
D03*
X235000Y314500D02*
D03*
Y463000D02*
D03*
X329860Y503500D02*
D03*
X1149920Y258608D02*
D03*
X1160592Y262889D02*
D03*
X112020Y247060D02*
D03*
X673000D02*
D03*
X1157720Y257808D02*
D03*
X1169020Y241208D02*
D03*
X695866Y253308D02*
D03*
X1100254Y290342D02*
D03*
X1163320D02*
D03*
X1187620Y206008D02*
D03*
X85720Y243123D02*
D03*
X656496Y286668D02*
D03*
X148720Y267908D02*
D03*
X711077Y258608D02*
D03*
X139320Y258908D02*
D03*
X215720Y489408D02*
D03*
X88320Y298708D02*
D03*
X81820Y291108D02*
D03*
X90268Y278556D02*
D03*
X1151020Y286405D02*
D03*
X631520Y275108D02*
D03*
X652559Y300808D02*
D03*
X81620Y239186D02*
D03*
X621063Y406608D02*
D03*
X714820Y186608D02*
D03*
X95620Y215508D02*
D03*
X911669Y174208D02*
D03*
X1148220Y215208D02*
D03*
X1165820Y294279D02*
D03*
D34*
X306287Y524409D02*
D03*
X314161D02*
D03*
X322035D02*
D03*
X329909D02*
D03*
X337783D02*
D03*
X345657D02*
D03*
X353531D02*
D03*
X369279D02*
D03*
M02*
