G04*
G04 #@! TF.GenerationSoftware,Altium Limited,Altium Designer,22.11.1 (43)*
G04*
G04 Layer_Color=32768*
%FSLAX25Y25*%
%MOIN*%
G70*
G04*
G04 #@! TF.SameCoordinates,5E32505C-E00D-4BFB-BC25-6037A3F64914*
G04*
G04*
G04 #@! TF.FilePolarity,Positive*
G04*
G01*
G75*
%ADD35C,0.00394*%
D35*
X367310Y492913D02*
G03*
X371247Y492913I1969J0D01*
G01*
X359436Y490158D02*
G03*
X363373Y490158I1969J0D01*
G01*
X351562Y492913D02*
G03*
X355499Y492913I1969J0D01*
G01*
X343688D02*
G03*
X347625Y492913I1969J0D01*
G01*
X335814D02*
G03*
X339751Y492913I1969J0D01*
G01*
X327940D02*
G03*
X331877Y492913I1969J0D01*
G01*
X320066D02*
G03*
X324003Y492913I1969J0D01*
G01*
X312192D02*
G03*
X316129Y492913I1969J0D01*
G01*
X304318D02*
G03*
X308255Y492913I1969J0D01*
G01*
X392901Y508661D02*
X393098Y536220D01*
X282468Y508661D02*
X392901D01*
X282468D02*
Y536220D01*
X298413D01*
Y520472D02*
Y536220D01*
Y520472D02*
X377153D01*
Y536220D01*
X393098D01*
X371247Y492913D02*
Y508661D01*
X367310Y492913D02*
Y508661D01*
X363373Y490157D02*
Y508661D01*
X359436Y490157D02*
Y508661D01*
X355499Y492913D02*
Y508661D01*
X351562Y492913D02*
Y508661D01*
X343688Y492913D02*
Y508661D01*
X347625Y492913D02*
Y508661D01*
X339751Y492913D02*
Y508661D01*
X335814Y492913D02*
Y508661D01*
X331877Y492913D02*
Y508661D01*
X327940Y492913D02*
Y508661D01*
X324003Y492913D02*
Y508661D01*
X320066Y492913D02*
Y508661D01*
X316129Y492913D02*
Y508661D01*
X312192Y492913D02*
Y508661D01*
X308255Y492913D02*
Y508661D01*
X304318Y492913D02*
Y508661D01*
M02*
