G04*
G04 #@! TF.GenerationSoftware,Altium Limited,Altium Designer,22.11.1 (43)*
G04*
G04 Layer_Physical_Order=1*
G04 Layer_Color=255*
%FSLAX25Y25*%
%MOIN*%
G70*
G04*
G04 #@! TF.SameCoordinates,C01CB905-4FAA-478C-A3D6-3825F8E537A0*
G04*
G04*
G04 #@! TF.FilePolarity,Positive*
G04*
G01*
G75*
%ADD14C,0.01000*%
%ADD16R,0.01378X0.06128*%
G04:AMPARAMS|DCode=17|XSize=61.28mil|YSize=13.78mil|CornerRadius=6.89mil|HoleSize=0mil|Usage=FLASHONLY|Rotation=90.000|XOffset=0mil|YOffset=0mil|HoleType=Round|Shape=RoundedRectangle|*
%AMROUNDEDRECTD17*
21,1,0.06128,0.00000,0,0,90.0*
21,1,0.04750,0.01378,0,0,90.0*
1,1,0.01378,0.00000,0.02375*
1,1,0.01378,0.00000,-0.02375*
1,1,0.01378,0.00000,-0.02375*
1,1,0.01378,0.00000,0.02375*
%
%ADD17ROUNDEDRECTD17*%
%ADD18R,0.03937X0.05906*%
%ADD19R,0.05906X0.03937*%
%ADD20R,0.06693X0.04331*%
%ADD21R,0.02756X0.14173*%
%ADD22R,0.14173X0.02756*%
G04:AMPARAMS|DCode=23|XSize=78.74mil|YSize=23.62mil|CornerRadius=2.01mil|HoleSize=0mil|Usage=FLASHONLY|Rotation=90.000|XOffset=0mil|YOffset=0mil|HoleType=Round|Shape=RoundedRectangle|*
%AMROUNDEDRECTD23*
21,1,0.07874,0.01961,0,0,90.0*
21,1,0.07472,0.02362,0,0,90.0*
1,1,0.00402,0.00980,0.03736*
1,1,0.00402,0.00980,-0.03736*
1,1,0.00402,-0.00980,-0.03736*
1,1,0.00402,-0.00980,0.03736*
%
%ADD23ROUNDEDRECTD23*%
%ADD35C,0.01000*%
%ADD36R,0.27559X0.27559*%
%ADD37C,0.01968*%
%ADD38C,0.12992*%
%ADD39C,0.09055*%
%ADD40C,0.05906*%
%ADD41R,0.05906X0.05906*%
%ADD42R,0.05906X0.05906*%
%ADD43C,0.02362*%
G36*
X1249574Y426D02*
X758891Y426D01*
Y59055D01*
X758766Y59357D01*
X758464Y59481D01*
X575780D01*
Y63767D01*
X623674D01*
Y63278D01*
X623519Y62902D01*
Y62114D01*
X623820Y61386D01*
X624378Y60829D01*
X625106Y60527D01*
X625894D01*
X626622Y60829D01*
X627179Y61386D01*
X627481Y62114D01*
Y62902D01*
X627330Y63267D01*
X627664Y63767D01*
X651234D01*
Y63608D01*
X651335Y63101D01*
X651622Y62671D01*
X653122Y61171D01*
X653552Y60883D01*
X654059Y60783D01*
X837320D01*
X837827Y60883D01*
X838257Y61171D01*
X842285Y65199D01*
X842573Y65629D01*
X842674Y66136D01*
Y76387D01*
X864369Y98083D01*
X873520D01*
X874027Y98184D01*
X874457Y98471D01*
X890257Y114271D01*
X890545Y114701D01*
X890646Y115208D01*
Y178608D01*
X890545Y179115D01*
X890257Y179545D01*
X870138Y199665D01*
X870363Y200147D01*
X871042Y200429D01*
X871600Y200986D01*
X871901Y201714D01*
Y202502D01*
X871600Y203230D01*
X871042Y203787D01*
X870314Y204089D01*
X869814D01*
X782826Y291077D01*
Y335741D01*
X782871Y335750D01*
X783202Y335971D01*
X783423Y336302D01*
X783501Y336693D01*
Y344165D01*
X783423Y344556D01*
X783202Y344887D01*
X782871Y345108D01*
X782480Y345186D01*
X782280D01*
X782072Y345686D01*
X789557Y353171D01*
X789845Y353601D01*
X789946Y354108D01*
Y371932D01*
X790446Y372302D01*
X790520Y372287D01*
X792480D01*
X792871Y372364D01*
X793202Y372586D01*
X793423Y372917D01*
X793501Y373307D01*
Y380780D01*
X793423Y381170D01*
X793202Y381501D01*
X792871Y381722D01*
X792826Y381731D01*
Y388700D01*
X792725Y389208D01*
X792437Y389637D01*
X789681Y392393D01*
Y392894D01*
X789380Y393622D01*
X788823Y394180D01*
X788094Y394481D01*
X787306D01*
X786578Y394180D01*
X786021Y393622D01*
X785719Y392894D01*
Y392106D01*
X786021Y391378D01*
X786578Y390821D01*
X787306Y390519D01*
X787807D01*
X790175Y388151D01*
Y382821D01*
X789675Y382670D01*
X789557Y382845D01*
X787157Y385245D01*
X786727Y385533D01*
X786220Y385633D01*
X783900D01*
X783393Y385533D01*
X782963Y385245D01*
X780563Y382845D01*
X780276Y382415D01*
X780175Y381908D01*
Y381731D01*
X780129Y381722D01*
X779798Y381501D01*
X779577Y381170D01*
X779499Y380780D01*
Y373307D01*
X779577Y372917D01*
X779798Y372586D01*
X780129Y372364D01*
X780520Y372287D01*
X782480D01*
X782871Y372364D01*
X783202Y372586D01*
X783423Y372917D01*
X783501Y373307D01*
Y380780D01*
X783423Y381170D01*
X783202Y381501D01*
X783181Y381714D01*
X784449Y382983D01*
X785671D01*
X786392Y382262D01*
X786200Y381800D01*
X785520D01*
X785129Y381722D01*
X784798Y381501D01*
X784577Y381170D01*
X784499Y380780D01*
Y373307D01*
X784577Y372917D01*
X784798Y372586D01*
X785129Y372364D01*
X785175Y372356D01*
Y359737D01*
X773287Y347850D01*
X772826Y348041D01*
Y372356D01*
X772871Y372364D01*
X773202Y372586D01*
X773423Y372917D01*
X773501Y373307D01*
Y380780D01*
X773423Y381170D01*
X773202Y381501D01*
X772871Y381722D01*
X772826Y381731D01*
Y464548D01*
X772871Y464557D01*
X773202Y464778D01*
X773423Y465109D01*
X773501Y465500D01*
Y472972D01*
X773423Y473363D01*
X773202Y473694D01*
X772871Y473915D01*
X772826Y473924D01*
Y478675D01*
X825000D01*
X825507Y478776D01*
X825937Y479063D01*
X834861Y487987D01*
X834975Y488063D01*
X851437Y504525D01*
X874282D01*
X874556Y504025D01*
X874339Y503502D01*
Y502714D01*
X874641Y501986D01*
X875198Y501429D01*
X875926Y501127D01*
X876427D01*
X878595Y498959D01*
Y402684D01*
X878241Y402330D01*
X877939Y401602D01*
Y400814D01*
X878241Y400086D01*
X878798Y399529D01*
X879526Y399227D01*
X880314D01*
X881042Y399529D01*
X881600Y400086D01*
X881901Y400814D01*
Y401602D01*
X881600Y402330D01*
X881246Y402684D01*
Y499508D01*
X881145Y500015D01*
X880857Y500445D01*
X878301Y503001D01*
Y503502D01*
X878085Y504025D01*
X878358Y504525D01*
X883499D01*
Y502114D01*
X883577Y501724D01*
X883798Y501393D01*
X884129Y501171D01*
X884175Y501162D01*
Y473924D01*
X884129Y473915D01*
X883798Y473694D01*
X883577Y473363D01*
X883499Y472972D01*
Y465500D01*
X883577Y465109D01*
X883798Y464779D01*
X884129Y464557D01*
X884175Y464548D01*
Y381731D01*
X884129Y381722D01*
X883798Y381501D01*
X883577Y381170D01*
X883499Y380779D01*
Y373307D01*
X883577Y372917D01*
X883798Y372586D01*
X884129Y372364D01*
X884175Y372355D01*
Y345117D01*
X884129Y345108D01*
X883798Y344887D01*
X883577Y344556D01*
X883499Y344165D01*
Y336693D01*
X883577Y336302D01*
X883798Y335971D01*
X884129Y335750D01*
X884175Y335741D01*
Y268230D01*
X884276Y267723D01*
X884563Y267293D01*
X929161Y222694D01*
X929101Y222590D01*
X928846Y221636D01*
Y220648D01*
X929101Y219693D01*
X929595Y218838D01*
X930173Y218260D01*
X930002Y217760D01*
X924614D01*
X834325Y308049D01*
Y393801D01*
X834825Y394135D01*
X835106Y394019D01*
X835894D01*
X836622Y394321D01*
X837179Y394878D01*
X837481Y395606D01*
Y396394D01*
X837179Y397122D01*
X836825Y397476D01*
Y471524D01*
X837179Y471878D01*
X837481Y472606D01*
Y473394D01*
X837179Y474122D01*
X836622Y474680D01*
X835894Y474981D01*
X835106D01*
X834378Y474680D01*
X833820Y474122D01*
X833519Y473394D01*
Y472606D01*
X833820Y471878D01*
X834175Y471524D01*
Y404073D01*
X833675Y403866D01*
X824122Y413418D01*
X823692Y413706D01*
X823184Y413807D01*
X821068D01*
X811496Y423379D01*
X811703Y423879D01*
X811894D01*
X812622Y424180D01*
X813180Y424738D01*
X813481Y425466D01*
Y426254D01*
X813180Y426982D01*
X812826Y427336D01*
Y464548D01*
X812871Y464557D01*
X813202Y464778D01*
X813423Y465109D01*
X813501Y465500D01*
Y472972D01*
X813423Y473363D01*
X813202Y473694D01*
X812871Y473915D01*
X812480Y473993D01*
X810520D01*
X810129Y473915D01*
X809798Y473694D01*
X809577Y473363D01*
X809499Y472972D01*
Y465500D01*
X809577Y465109D01*
X809798Y464778D01*
X810129Y464557D01*
X810175Y464548D01*
Y427336D01*
X809821Y426982D01*
X809519Y426254D01*
Y426062D01*
X809019Y425855D01*
X791818Y443057D01*
X792013Y443568D01*
X792622Y443820D01*
X793179Y444378D01*
X793481Y445106D01*
Y445607D01*
X807437Y459563D01*
X807725Y459993D01*
X807826Y460500D01*
Y464548D01*
X807871Y464557D01*
X808202Y464778D01*
X808423Y465109D01*
X808501Y465500D01*
Y472972D01*
X808423Y473363D01*
X808202Y473694D01*
X807871Y473915D01*
X807480Y473993D01*
X805520D01*
X805129Y473915D01*
X804798Y473694D01*
X804577Y473363D01*
X804499Y472972D01*
Y465500D01*
X804577Y465109D01*
X804798Y464778D01*
X805129Y464557D01*
X805175Y464548D01*
Y461049D01*
X791607Y447481D01*
X791106D01*
X790378Y447180D01*
X790146Y446947D01*
X789646Y447155D01*
Y447771D01*
X802437Y460563D01*
X802725Y460993D01*
X802826Y461500D01*
Y464548D01*
X802871Y464557D01*
X803202Y464778D01*
X803423Y465109D01*
X803501Y465500D01*
Y472972D01*
X803423Y473363D01*
X803202Y473694D01*
X802871Y473915D01*
X802480Y473993D01*
X800520D01*
X800129Y473915D01*
X799798Y473694D01*
X799577Y473363D01*
X799499Y472972D01*
Y465500D01*
X799577Y465109D01*
X799798Y464778D01*
X800129Y464557D01*
X800175Y464548D01*
Y462049D01*
X788287Y450162D01*
X787826Y450353D01*
Y464548D01*
X787871Y464557D01*
X788202Y464778D01*
X788423Y465109D01*
X788501Y465500D01*
Y472972D01*
X788423Y473363D01*
X788202Y473694D01*
X787871Y473915D01*
X787480Y473993D01*
X785520D01*
X785129Y473915D01*
X784798Y473694D01*
X784577Y473363D01*
X784499Y472972D01*
Y465500D01*
X784577Y465109D01*
X784798Y464778D01*
X785129Y464557D01*
X785175Y464548D01*
Y446500D01*
X785198Y446384D01*
X784737Y446138D01*
X782826Y448049D01*
Y464548D01*
X782871Y464557D01*
X783202Y464778D01*
X783423Y465109D01*
X783501Y465500D01*
Y472972D01*
X783423Y473363D01*
X783202Y473694D01*
X782871Y473915D01*
X782480Y473993D01*
X780520D01*
X780129Y473915D01*
X779798Y473694D01*
X779577Y473363D01*
X779499Y472972D01*
Y465500D01*
X779577Y465109D01*
X779798Y464778D01*
X780129Y464557D01*
X780175Y464548D01*
Y447500D01*
X780276Y446993D01*
X780563Y446563D01*
X813480Y413646D01*
X813960Y412957D01*
X813927Y412875D01*
Y412087D01*
X814228Y411359D01*
X814321Y411267D01*
X814114Y410767D01*
X808108D01*
X777826Y441049D01*
Y464548D01*
X777871Y464557D01*
X778202Y464778D01*
X778423Y465109D01*
X778501Y465500D01*
Y472972D01*
X778423Y473363D01*
X778202Y473694D01*
X777871Y473915D01*
X777480Y473993D01*
X775520D01*
X775129Y473915D01*
X774798Y473694D01*
X774577Y473363D01*
X774499Y472972D01*
Y465500D01*
X774577Y465109D01*
X774798Y464778D01*
X775129Y464557D01*
X775175Y464548D01*
Y440500D01*
X775276Y439993D01*
X775563Y439563D01*
X806622Y408504D01*
X807052Y408216D01*
X807559Y408116D01*
X818787D01*
X819141Y407761D01*
X819869Y407460D01*
X820657D01*
X821385Y407761D01*
X821943Y408319D01*
X822244Y409047D01*
Y409835D01*
X821943Y410563D01*
X821850Y410656D01*
X822057Y411156D01*
X822635D01*
X831674Y402117D01*
Y396834D01*
X831174Y396627D01*
X830898Y396904D01*
X830169Y397206D01*
X829381D01*
X828653Y396904D01*
X828299Y396550D01*
X816724D01*
X816217Y396449D01*
X815787Y396162D01*
X810563Y390937D01*
X810276Y390508D01*
X810175Y390000D01*
Y381731D01*
X810129Y381722D01*
X809798Y381501D01*
X809577Y381170D01*
X809499Y380780D01*
Y373307D01*
X809577Y372917D01*
X809798Y372586D01*
X810129Y372364D01*
X810520Y372287D01*
X812480D01*
X812871Y372364D01*
X813202Y372586D01*
X813423Y372917D01*
X813501Y373307D01*
Y380780D01*
X813423Y381170D01*
X813202Y381501D01*
X812871Y381722D01*
X812826Y381731D01*
Y389451D01*
X817274Y393899D01*
X828299D01*
X828653Y393545D01*
X829381Y393244D01*
X830169D01*
X830898Y393545D01*
X831174Y393822D01*
X831674Y393615D01*
Y307500D01*
X831775Y306993D01*
X832063Y306563D01*
X923128Y215497D01*
X923558Y215210D01*
X924065Y215109D01*
X928434D01*
X928846Y214895D01*
X928846Y214609D01*
Y207389D01*
X936351D01*
Y214609D01*
X936351Y214895D01*
X936762Y215109D01*
X940807D01*
X940851Y215042D01*
X940692Y214375D01*
X940294Y214145D01*
X939595Y213446D01*
X939101Y212591D01*
X938846Y211636D01*
Y210648D01*
X939101Y209694D01*
X939595Y208838D01*
X940294Y208139D01*
X941150Y207645D01*
X941273Y207612D01*
Y203718D01*
X941152Y203650D01*
X940773Y203565D01*
X940296Y204042D01*
X939568Y204343D01*
X938780D01*
X938051Y204042D01*
X937697Y203688D01*
X904954D01*
X812826Y295816D01*
Y335741D01*
X812871Y335750D01*
X813202Y335971D01*
X813423Y336302D01*
X813501Y336693D01*
Y344165D01*
X813423Y344556D01*
X813202Y344887D01*
X812871Y345108D01*
X812480Y345186D01*
X810520D01*
X810129Y345108D01*
X809798Y344887D01*
X809577Y344556D01*
X809499Y344165D01*
Y336693D01*
X809577Y336302D01*
X809798Y335971D01*
X810129Y335750D01*
X810175Y335741D01*
Y295267D01*
X810276Y294759D01*
X810563Y294329D01*
X903467Y201425D01*
X903897Y201138D01*
X904405Y201037D01*
X937697D01*
X938051Y200683D01*
X938780Y200381D01*
X939568D01*
X940296Y200683D01*
X940773Y201160D01*
X941152Y201074D01*
X941273Y201007D01*
Y191648D01*
X940432Y190806D01*
X939931D01*
X939203Y190505D01*
X938646Y189948D01*
X938344Y189219D01*
Y188431D01*
X938646Y187703D01*
X939203Y187146D01*
X939233Y187134D01*
X939134Y186634D01*
X915369D01*
X807826Y294177D01*
Y335741D01*
X807871Y335750D01*
X808202Y335971D01*
X808423Y336302D01*
X808501Y336693D01*
Y344165D01*
X808423Y344556D01*
X808202Y344887D01*
X807871Y345108D01*
X807480Y345186D01*
X805520D01*
X805129Y345108D01*
X804798Y344887D01*
X804577Y344556D01*
X804499Y344165D01*
Y336693D01*
X804577Y336302D01*
X804798Y335971D01*
X805129Y335750D01*
X805175Y335741D01*
Y293628D01*
X805276Y293121D01*
X805563Y292691D01*
X913883Y184371D01*
X914313Y184083D01*
X914820Y183983D01*
X949820D01*
X950327Y184083D01*
X950757Y184371D01*
X954969Y188583D01*
X995627D01*
X995656Y188536D01*
X995781Y188083D01*
X995320Y187622D01*
X995019Y186894D01*
Y186393D01*
X986443Y177818D01*
X985932Y178013D01*
X985679Y178622D01*
X985122Y179180D01*
X984394Y179481D01*
X983606D01*
X982878Y179180D01*
X982320Y178622D01*
X982019Y177894D01*
Y177393D01*
X978951Y174326D01*
X920079D01*
X917984Y176421D01*
X918175Y176883D01*
X968044D01*
X968398Y176529D01*
X969126Y176227D01*
X969914D01*
X970642Y176529D01*
X971200Y177086D01*
X971501Y177814D01*
Y178602D01*
X971200Y179330D01*
X970642Y179887D01*
X969914Y180189D01*
X969126D01*
X968398Y179887D01*
X968044Y179534D01*
X917647D01*
X802826Y294355D01*
Y335741D01*
X802871Y335750D01*
X803202Y335971D01*
X803423Y336302D01*
X803501Y336693D01*
Y344165D01*
X803423Y344556D01*
X803202Y344887D01*
X802871Y345108D01*
X802480Y345186D01*
X800520D01*
X800129Y345108D01*
X799798Y344887D01*
X799577Y344556D01*
X799499Y344165D01*
Y336693D01*
X799577Y336302D01*
X799798Y335971D01*
X800129Y335750D01*
X800175Y335741D01*
Y294883D01*
X799713Y294691D01*
X797826Y296579D01*
Y335741D01*
X797871Y335750D01*
X798202Y335971D01*
X798423Y336302D01*
X798501Y336693D01*
Y344165D01*
X798423Y344556D01*
X798202Y344887D01*
X797871Y345108D01*
X797480Y345186D01*
X795520D01*
X795129Y345108D01*
X794798Y344887D01*
X794577Y344556D01*
X794499Y344165D01*
Y336693D01*
X794577Y336302D01*
X794798Y335971D01*
X795129Y335750D01*
X795175Y335741D01*
Y296030D01*
X795276Y295522D01*
X795563Y295092D01*
X918592Y172063D01*
X919022Y171775D01*
X919530Y171675D01*
X979500D01*
X979616Y171698D01*
X979862Y171237D01*
X979405Y170780D01*
X909371D01*
X787826Y292325D01*
Y335741D01*
X787871Y335750D01*
X788202Y335971D01*
X788423Y336302D01*
X788501Y336693D01*
Y344165D01*
X788423Y344556D01*
X788202Y344887D01*
X787871Y345108D01*
X787480Y345186D01*
X785520D01*
X785129Y345108D01*
X784798Y344887D01*
X784577Y344556D01*
X784499Y344165D01*
Y336693D01*
X784577Y336302D01*
X784798Y335971D01*
X785129Y335750D01*
X785175Y335741D01*
Y291776D01*
X785276Y291269D01*
X785563Y290839D01*
X907885Y168517D01*
X908315Y168230D01*
X908822Y168129D01*
X979954D01*
X980462Y168230D01*
X980892Y168517D01*
X996893Y184519D01*
X997394D01*
X998122Y184820D01*
X998679Y185378D01*
X998981Y186106D01*
Y186894D01*
X998679Y187622D01*
X998219Y188083D01*
X998343Y188536D01*
X998372Y188583D01*
X1047144D01*
X1047498Y188228D01*
X1048226Y187927D01*
X1049014D01*
X1049742Y188228D01*
X1050300Y188786D01*
X1050601Y189514D01*
Y190302D01*
X1050300Y191030D01*
X1049742Y191587D01*
X1049014Y191889D01*
X1048226D01*
X1047498Y191587D01*
X1047144Y191234D01*
X954420D01*
X953913Y191133D01*
X953483Y190845D01*
X949271Y186634D01*
X947219D01*
X946885Y187134D01*
X947001Y187414D01*
Y188202D01*
X946700Y188930D01*
X946246Y189384D01*
Y199359D01*
X947469Y200583D01*
X960920D01*
X961427Y200683D01*
X961857Y200971D01*
X967857Y206971D01*
X968145Y207401D01*
X968246Y207908D01*
Y237808D01*
X968145Y238315D01*
X967857Y238745D01*
X894246Y312357D01*
Y313834D01*
X894746Y314168D01*
X895106Y314019D01*
X895607D01*
X976273Y233352D01*
Y223282D01*
X975773Y223148D01*
X975601Y223446D01*
X974903Y224145D01*
X974047Y224639D01*
X973092Y224895D01*
X972104D01*
X971150Y224639D01*
X970294Y224145D01*
X969595Y223446D01*
X969101Y222590D01*
X968846Y221636D01*
Y220648D01*
X969101Y219693D01*
X969595Y218838D01*
X970294Y218139D01*
X971150Y217645D01*
X972104Y217389D01*
X973092D01*
X974047Y217645D01*
X974903Y218139D01*
X975601Y218838D01*
X975773Y219136D01*
X976273Y219002D01*
Y216142D01*
X976374Y215634D01*
X976661Y215204D01*
X979165Y212701D01*
X979101Y212591D01*
X978846Y211636D01*
Y210648D01*
X979101Y209694D01*
X979595Y208838D01*
X980294Y208139D01*
X981150Y207645D01*
X982104Y207389D01*
X983092D01*
X984047Y207645D01*
X984903Y208139D01*
X985601Y208838D01*
X986095Y209694D01*
X986351Y210648D01*
Y211636D01*
X986095Y212591D01*
X985601Y213446D01*
X984903Y214145D01*
X984047Y214639D01*
X983092Y214895D01*
X982104D01*
X981150Y214639D01*
X981040Y214575D01*
X978924Y216691D01*
Y219000D01*
X979424Y219134D01*
X979595Y218838D01*
X980294Y218139D01*
X981150Y217645D01*
X982104Y217389D01*
X983092D01*
X984047Y217645D01*
X984903Y218139D01*
X985601Y218838D01*
X986095Y219693D01*
X986351Y220648D01*
Y221636D01*
X986095Y222590D01*
X985601Y223446D01*
X984903Y224145D01*
X984047Y224639D01*
X983092Y224895D01*
X982104D01*
X981150Y224639D01*
X980294Y224145D01*
X979595Y223446D01*
X979424Y223150D01*
X978924Y223284D01*
Y233901D01*
X978823Y234408D01*
X978536Y234839D01*
X897481Y315893D01*
Y316394D01*
X897180Y317122D01*
X896826Y317476D01*
Y335741D01*
X896871Y335750D01*
X897202Y335971D01*
X897423Y336302D01*
X897501Y336693D01*
Y344165D01*
X897423Y344556D01*
X897338Y344683D01*
X897591Y345183D01*
X898409D01*
X898662Y344683D01*
X898577Y344556D01*
X898499Y344165D01*
Y336693D01*
X898577Y336302D01*
X898798Y335971D01*
X899129Y335750D01*
X899175Y335741D01*
Y315500D01*
X899276Y314993D01*
X899563Y314563D01*
X974563Y239563D01*
X974993Y239276D01*
X975500Y239175D01*
X985951D01*
X995531Y229594D01*
Y216883D01*
X995632Y216376D01*
X995920Y215946D01*
X999165Y212701D01*
X999101Y212591D01*
X998846Y211636D01*
Y210648D01*
X999101Y209694D01*
X999595Y208838D01*
X1000294Y208139D01*
X1001150Y207645D01*
X1002104Y207389D01*
X1003092D01*
X1004047Y207645D01*
X1004903Y208139D01*
X1005601Y208838D01*
X1006095Y209694D01*
X1006351Y210648D01*
Y211636D01*
X1006095Y212591D01*
X1005601Y213446D01*
X1004903Y214145D01*
X1004047Y214639D01*
X1003092Y214895D01*
X1002104D01*
X1001150Y214639D01*
X1001040Y214575D01*
X998182Y217432D01*
Y230143D01*
X998081Y230650D01*
X997794Y231080D01*
X987437Y241437D01*
X987007Y241725D01*
X986500Y241826D01*
X976049D01*
X901826Y316049D01*
Y335741D01*
X901871Y335750D01*
X902202Y335971D01*
X902423Y336302D01*
X902501Y336693D01*
Y344165D01*
X902423Y344556D01*
X902338Y344683D01*
X902591Y345183D01*
X903409D01*
X903662Y344683D01*
X903577Y344556D01*
X903499Y344165D01*
Y336693D01*
X903577Y336302D01*
X903798Y335971D01*
X904129Y335750D01*
X904175Y335741D01*
Y316528D01*
X904276Y316021D01*
X904563Y315591D01*
X969539Y250615D01*
Y250114D01*
X969841Y249386D01*
X970398Y248829D01*
X971126Y248527D01*
X971914D01*
X972642Y248829D01*
X973200Y249386D01*
X973501Y250114D01*
Y250902D01*
X973200Y251630D01*
X972642Y252187D01*
X971914Y252489D01*
X971414D01*
X906826Y317077D01*
Y335741D01*
X906871Y335750D01*
X907202Y335971D01*
X907423Y336302D01*
X907501Y336693D01*
Y344165D01*
X907423Y344556D01*
X907338Y344683D01*
X907591Y345183D01*
X908410D01*
X908662Y344683D01*
X908577Y344556D01*
X908499Y344165D01*
Y336693D01*
X908577Y336302D01*
X908798Y335971D01*
X909129Y335750D01*
X909175Y335741D01*
Y330691D01*
X908821Y330337D01*
X908519Y329608D01*
Y328820D01*
X908821Y328092D01*
X909175Y327738D01*
Y319000D01*
X909276Y318493D01*
X909563Y318063D01*
X980617Y247008D01*
Y246508D01*
X980919Y245779D01*
X981476Y245222D01*
X982204Y244920D01*
X982992D01*
X983720Y245222D01*
X984278Y245779D01*
X984579Y246508D01*
Y247296D01*
X984278Y248024D01*
X983720Y248581D01*
X982992Y248883D01*
X982492D01*
X911826Y319549D01*
Y327738D01*
X912180Y328092D01*
X912481Y328820D01*
Y329608D01*
X912180Y330337D01*
X911826Y330691D01*
Y335741D01*
X911871Y335750D01*
X912202Y335971D01*
X912423Y336302D01*
X912501Y336693D01*
Y344165D01*
X912423Y344556D01*
X912338Y344683D01*
X912591Y345183D01*
X913410D01*
X913662Y344683D01*
X913577Y344556D01*
X913499Y344165D01*
Y336693D01*
X913577Y336302D01*
X913798Y335971D01*
X914129Y335750D01*
X914175Y335741D01*
Y321000D01*
X914276Y320493D01*
X914563Y320063D01*
X1001273Y233353D01*
Y224672D01*
X1001150Y224639D01*
X1000294Y224145D01*
X999595Y223446D01*
X999101Y222590D01*
X998846Y221636D01*
Y220648D01*
X999101Y219693D01*
X999595Y218838D01*
X1000294Y218139D01*
X1001150Y217645D01*
X1002104Y217389D01*
X1003092D01*
X1004047Y217645D01*
X1004903Y218139D01*
X1005601Y218838D01*
X1006095Y219693D01*
X1006351Y220648D01*
Y221636D01*
X1006095Y222590D01*
X1005601Y223446D01*
X1004903Y224145D01*
X1004047Y224639D01*
X1003924Y224672D01*
Y233902D01*
X1003823Y234409D01*
X1003536Y234839D01*
X916826Y321549D01*
Y335741D01*
X916871Y335750D01*
X917202Y335971D01*
X917423Y336302D01*
X917501Y336693D01*
Y344165D01*
X917423Y344556D01*
X917338Y344683D01*
X917591Y345183D01*
X918410D01*
X918662Y344683D01*
X918577Y344556D01*
X918499Y344165D01*
Y336693D01*
X918577Y336302D01*
X918798Y335971D01*
X919129Y335750D01*
X919175Y335741D01*
Y324145D01*
X919276Y323638D01*
X919563Y323208D01*
X1011273Y231498D01*
Y224672D01*
X1011150Y224639D01*
X1010294Y224145D01*
X1009595Y223446D01*
X1009101Y222590D01*
X1008846Y221636D01*
Y220648D01*
X1009101Y219693D01*
X1009595Y218838D01*
X1010294Y218139D01*
X1011150Y217645D01*
X1012104Y217389D01*
X1013092D01*
X1014047Y217645D01*
X1014903Y218139D01*
X1015601Y218838D01*
X1016095Y219693D01*
X1016351Y220648D01*
Y221636D01*
X1016095Y222590D01*
X1015601Y223446D01*
X1014903Y224145D01*
X1014047Y224639D01*
X1013924Y224672D01*
Y232047D01*
X1013823Y232554D01*
X1013536Y232984D01*
X921826Y324694D01*
Y335741D01*
X921871Y335750D01*
X922202Y335971D01*
X922423Y336302D01*
X922501Y336693D01*
Y344165D01*
X922423Y344556D01*
X922202Y344887D01*
X921871Y345108D01*
X921480Y345186D01*
X919956D01*
X919920Y345232D01*
X919772Y345686D01*
X926437Y352351D01*
X926725Y352781D01*
X926826Y353288D01*
Y365524D01*
X927180Y365878D01*
X927481Y366606D01*
Y367345D01*
X927608Y367449D01*
X927940Y367594D01*
X929463Y366071D01*
X929893Y365783D01*
X930400Y365683D01*
X937320D01*
X937827Y365784D01*
X938257Y366071D01*
X939713Y367526D01*
X940174Y367335D01*
Y317000D01*
X940275Y316493D01*
X940563Y316063D01*
X1023549Y233076D01*
X1023979Y232789D01*
X1024487Y232688D01*
X1024487Y232688D01*
X1081624D01*
X1085526Y228786D01*
Y224175D01*
X1085064Y223984D01*
X1084903Y224145D01*
X1084047Y224639D01*
X1083092Y224895D01*
X1082104D01*
X1081150Y224639D01*
X1080294Y224145D01*
X1079595Y223446D01*
X1079101Y222590D01*
X1078846Y221636D01*
Y220648D01*
X1079101Y219693D01*
X1079595Y218838D01*
X1080294Y218139D01*
X1081150Y217645D01*
X1082104Y217389D01*
X1083092D01*
X1084047Y217645D01*
X1084903Y218139D01*
X1085064Y218300D01*
X1085526Y218109D01*
Y216889D01*
X1085627Y216382D01*
X1085914Y215952D01*
X1089165Y212701D01*
X1089101Y212591D01*
X1088846Y211636D01*
Y210648D01*
X1089101Y209694D01*
X1089595Y208838D01*
X1090294Y208139D01*
X1091150Y207645D01*
X1092104Y207389D01*
X1093092D01*
X1094047Y207645D01*
X1094903Y208139D01*
X1095601Y208838D01*
X1096095Y209694D01*
X1096351Y210648D01*
Y211636D01*
X1096095Y212591D01*
X1095601Y213446D01*
X1094903Y214145D01*
X1094047Y214639D01*
X1093092Y214895D01*
X1092104D01*
X1091150Y214639D01*
X1091039Y214575D01*
X1088177Y217438D01*
Y229335D01*
X1088076Y229843D01*
X1087788Y230273D01*
X1083110Y234951D01*
X1082680Y235238D01*
X1082173Y235339D01*
X1025036D01*
X942825Y317549D01*
Y380461D01*
X942725Y380968D01*
X942437Y381398D01*
X891826Y432009D01*
Y464548D01*
X891871Y464557D01*
X892202Y464779D01*
X892423Y465109D01*
X892501Y465500D01*
Y472972D01*
X892423Y473363D01*
X892202Y473694D01*
X891871Y473915D01*
X891480Y473993D01*
X889520D01*
X889046Y474408D01*
Y510408D01*
X888945Y510915D01*
X888657Y511345D01*
X887601Y512401D01*
Y512902D01*
X887300Y513630D01*
X886742Y514187D01*
X886014Y514489D01*
X885226D01*
X884498Y514187D01*
X883941Y513630D01*
X883639Y512902D01*
Y512114D01*
X883941Y511386D01*
X884261Y511065D01*
X884132Y510538D01*
X884106Y510514D01*
X883798Y510308D01*
X883577Y509977D01*
X883499Y509587D01*
Y507176D01*
X850888D01*
X850381Y507075D01*
X849951Y506788D01*
X833176Y490013D01*
X833063Y489937D01*
X824451Y481325D01*
X772826D01*
Y501162D01*
X772871Y501171D01*
X773202Y501393D01*
X773423Y501723D01*
X773501Y502114D01*
Y509586D01*
X773423Y509977D01*
X773419Y509983D01*
X773687Y510483D01*
X779314D01*
X779581Y509983D01*
X779577Y509977D01*
X779499Y509586D01*
Y502114D01*
X779577Y501723D01*
X779798Y501393D01*
X780129Y501171D01*
X780175Y501162D01*
Y493500D01*
X780276Y492993D01*
X780563Y492563D01*
X787019Y486107D01*
Y485606D01*
X787320Y484878D01*
X787878Y484320D01*
X788606Y484019D01*
X789394D01*
X790122Y484320D01*
X790679Y484878D01*
X790981Y485606D01*
Y486394D01*
X790679Y487122D01*
X790122Y487679D01*
X789394Y487981D01*
X788893D01*
X782826Y494049D01*
Y501162D01*
X782871Y501171D01*
X783202Y501393D01*
X783423Y501723D01*
X783501Y502114D01*
Y509586D01*
X783423Y509977D01*
X783419Y509983D01*
X783687Y510483D01*
X784314D01*
X784581Y509983D01*
X784577Y509977D01*
X784499Y509586D01*
Y502114D01*
X784577Y501723D01*
X784798Y501393D01*
X785129Y501171D01*
X785520Y501094D01*
X787295D01*
Y494908D01*
X787396Y494401D01*
X787683Y493971D01*
X793383Y488271D01*
X793813Y487983D01*
X794320Y487883D01*
X825520D01*
X826027Y487984D01*
X826457Y488271D01*
X854069Y515883D01*
X901351D01*
X904175Y513059D01*
Y510538D01*
X904129Y510529D01*
X903798Y510308D01*
X903577Y509977D01*
X903499Y509587D01*
Y502114D01*
X903577Y501724D01*
X903798Y501393D01*
X904129Y501171D01*
X904520Y501094D01*
X906480D01*
X906871Y501171D01*
X907202Y501393D01*
X907423Y501724D01*
X907501Y502114D01*
Y509587D01*
X907423Y509977D01*
X907202Y510308D01*
X906871Y510529D01*
X906826Y510538D01*
Y513608D01*
X906725Y514115D01*
X906437Y514545D01*
X902837Y518145D01*
X902407Y518433D01*
X901900Y518534D01*
X853520D01*
X853013Y518433D01*
X852583Y518145D01*
X824971Y490533D01*
X798042D01*
X797835Y491034D01*
X798179Y491378D01*
X798481Y492106D01*
Y492894D01*
X798179Y493622D01*
X797622Y494179D01*
X796894Y494481D01*
X796393D01*
X792826Y498049D01*
Y501162D01*
X792871Y501171D01*
X793202Y501393D01*
X793423Y501723D01*
X793501Y502114D01*
Y509586D01*
X793423Y509977D01*
X793202Y510308D01*
X792871Y510529D01*
X792480Y510607D01*
X790520D01*
X790446Y510592D01*
X789946Y510962D01*
Y511908D01*
X789845Y512415D01*
X789557Y512845D01*
X787557Y514845D01*
X787127Y515133D01*
X786620Y515234D01*
X766920D01*
X766413Y515133D01*
X765983Y514845D01*
X761369Y510231D01*
X761082Y509801D01*
X760981Y509294D01*
Y505875D01*
X760753Y505469D01*
X755122D01*
X754648Y505943D01*
Y506169D01*
X754547Y506676D01*
X754346Y506977D01*
Y507748D01*
X754245Y508255D01*
X753958Y508685D01*
X748737Y513905D01*
Y517568D01*
X741232D01*
Y512258D01*
X740732Y512051D01*
X740603Y512180D01*
X739875Y512481D01*
X739087D01*
X738826Y512373D01*
X738326Y512707D01*
Y516883D01*
X743617Y522175D01*
X803379D01*
X807611Y517943D01*
X807436Y517411D01*
X806878Y517179D01*
X806524Y516825D01*
X801500D01*
X800993Y516725D01*
X800563Y516437D01*
X795959Y511833D01*
X795671Y511403D01*
X795671Y511403D01*
X795570Y510896D01*
Y510607D01*
X795520D01*
X795129Y510529D01*
X794798Y510308D01*
X794577Y509977D01*
X794499Y509586D01*
Y502114D01*
X794577Y501723D01*
X794798Y501393D01*
X795129Y501171D01*
X795520Y501094D01*
X797480D01*
X797871Y501171D01*
X798202Y501393D01*
X798423Y501723D01*
X798501Y502114D01*
Y509586D01*
X798423Y509977D01*
X798221Y510279D01*
Y510347D01*
X802049Y514175D01*
X806524D01*
X806878Y513821D01*
X807606Y513519D01*
X808394D01*
X809122Y513821D01*
X809675Y514373D01*
X809702Y514373D01*
X810175Y514267D01*
Y510538D01*
X810129Y510529D01*
X809798Y510308D01*
X809577Y509977D01*
X809499Y509586D01*
Y502114D01*
X809577Y501723D01*
X809798Y501393D01*
X810129Y501171D01*
X810520Y501094D01*
X811493D01*
X811770Y500678D01*
X811739Y500602D01*
Y499814D01*
X812041Y499086D01*
X812089Y499037D01*
X811898Y498575D01*
X808343D01*
X808151Y499037D01*
X808200Y499086D01*
X808501Y499814D01*
Y500602D01*
X808200Y501330D01*
X808196Y501334D01*
X808202Y501393D01*
X808423Y501723D01*
X808501Y502114D01*
Y509586D01*
X808423Y509977D01*
X808202Y510308D01*
X807871Y510529D01*
X807480Y510607D01*
X805520D01*
X805129Y510529D01*
X804798Y510308D01*
X804577Y509977D01*
X804499Y509586D01*
Y502114D01*
X804577Y501723D01*
X804798Y501393D01*
X804837Y501367D01*
X804841Y501330D01*
X804539Y500602D01*
Y499814D01*
X804841Y499086D01*
X804889Y499037D01*
X804698Y498575D01*
X803780D01*
X802826Y499530D01*
Y501162D01*
X802871Y501171D01*
X803202Y501393D01*
X803423Y501723D01*
X803501Y502114D01*
Y509586D01*
X803423Y509977D01*
X803202Y510308D01*
X802871Y510529D01*
X802480Y510607D01*
X800520D01*
X800129Y510529D01*
X799798Y510308D01*
X799577Y509977D01*
X799499Y509586D01*
Y502114D01*
X799577Y501723D01*
X799798Y501393D01*
X800129Y501171D01*
X800175Y501162D01*
Y498980D01*
X800276Y498473D01*
X800563Y498043D01*
X802293Y496313D01*
X802723Y496026D01*
X803230Y495925D01*
X803231Y495925D01*
X824524D01*
X824878Y495571D01*
X825606Y495269D01*
X826394D01*
X827122Y495571D01*
X827679Y496128D01*
X827981Y496856D01*
Y497644D01*
X827679Y498372D01*
X827122Y498930D01*
X826394Y499231D01*
X825606D01*
X824878Y498930D01*
X824524Y498575D01*
X815543D01*
X815351Y499037D01*
X815400Y499086D01*
X815688Y499783D01*
X816500D01*
X817007Y499884D01*
X817437Y500171D01*
X817725Y500601D01*
X817826Y501108D01*
Y501162D01*
X817871Y501171D01*
X818202Y501393D01*
X818423Y501723D01*
X818501Y502114D01*
Y509586D01*
X818423Y509977D01*
X818202Y510308D01*
X817871Y510529D01*
X817480Y510607D01*
X815520D01*
X815129Y510529D01*
X814798Y510308D01*
X814577Y509977D01*
X814499Y509586D01*
Y502410D01*
X814113Y502333D01*
X814001Y502258D01*
X813501Y502426D01*
Y509586D01*
X813423Y509977D01*
X813202Y510308D01*
X812871Y510529D01*
X812826Y510538D01*
Y515928D01*
X812725Y516435D01*
X812437Y516865D01*
X805590Y523713D01*
X805781Y524174D01*
X903859D01*
X909175Y518859D01*
Y510538D01*
X909129Y510529D01*
X908798Y510308D01*
X908577Y509977D01*
X908499Y509587D01*
Y502114D01*
X908577Y501724D01*
X908798Y501393D01*
X909129Y501171D01*
X909520Y501094D01*
X911480D01*
X911871Y501171D01*
X912202Y501393D01*
X912423Y501724D01*
X912501Y502114D01*
Y509587D01*
X912423Y509977D01*
X912202Y510308D01*
X911871Y510529D01*
X911826Y510538D01*
Y518647D01*
X912288Y518838D01*
X914175Y516951D01*
Y510538D01*
X914129Y510529D01*
X913798Y510308D01*
X913577Y509977D01*
X913499Y509587D01*
Y502114D01*
X913577Y501724D01*
X913798Y501393D01*
X914129Y501171D01*
X914520Y501094D01*
X916480D01*
X916871Y501171D01*
X917202Y501393D01*
X917423Y501724D01*
X917501Y502114D01*
Y509587D01*
X917423Y509977D01*
X917202Y510308D01*
X916871Y510529D01*
X916826Y510538D01*
Y517500D01*
X916725Y518007D01*
X916437Y518437D01*
X906200Y528675D01*
X906407Y529175D01*
X907951D01*
X919175Y517951D01*
Y510538D01*
X919129Y510529D01*
X918798Y510308D01*
X918577Y509977D01*
X918499Y509587D01*
Y502114D01*
X918577Y501724D01*
X918798Y501393D01*
X919129Y501171D01*
X919520Y501094D01*
X921480D01*
X921871Y501171D01*
X922202Y501393D01*
X922423Y501724D01*
X922501Y502114D01*
Y509587D01*
X922423Y509977D01*
X922202Y510308D01*
X921871Y510529D01*
X921826Y510538D01*
Y518500D01*
X921725Y519007D01*
X921437Y519437D01*
X909700Y531175D01*
X909907Y531675D01*
X948951D01*
X1085674Y394951D01*
Y301644D01*
X1075457Y291426D01*
X1075346Y291489D01*
X1074392Y291745D01*
X1073404D01*
X1072449Y291489D01*
X1071593Y290995D01*
X1070895Y290297D01*
X1070401Y289441D01*
X1070145Y288486D01*
Y287498D01*
X1070401Y286544D01*
X1070895Y285688D01*
X1071593Y284989D01*
X1072449Y284495D01*
X1073404Y284240D01*
X1074392D01*
X1075346Y284495D01*
X1076202Y284989D01*
X1076901Y285688D01*
X1077395Y286544D01*
X1077651Y287498D01*
Y288486D01*
X1077395Y289441D01*
X1077331Y289551D01*
X1087937Y300157D01*
X1088225Y300587D01*
X1088325Y301095D01*
Y395500D01*
X1088225Y396007D01*
X1087937Y396437D01*
X950437Y533937D01*
X950007Y534225D01*
X949500Y534326D01*
X826976D01*
X826622Y534680D01*
X825894Y534981D01*
X825106D01*
X824378Y534680D01*
X823820Y534122D01*
X823519Y533394D01*
Y532606D01*
X823635Y532326D01*
X823301Y531825D01*
X735629D01*
X735122Y531725D01*
X734692Y531437D01*
X727701Y524446D01*
X643825D01*
X643618Y524946D01*
X644190Y525519D01*
X644894D01*
X645622Y525820D01*
X646179Y526378D01*
X646481Y527106D01*
Y527894D01*
X646179Y528622D01*
X645622Y529179D01*
X644894Y529481D01*
X644106D01*
X643378Y529179D01*
X642943Y528745D01*
X642470Y528788D01*
X642377Y528832D01*
X642179Y529309D01*
X641949Y529539D01*
Y540526D01*
X643360D01*
Y534315D01*
X643460Y533808D01*
X643748Y533378D01*
X646616Y530510D01*
Y530183D01*
X646717Y529675D01*
X647004Y529245D01*
X647611Y528638D01*
X647587Y528581D01*
Y527793D01*
X647889Y527065D01*
X648446Y526507D01*
X649174Y526206D01*
X649962D01*
X650691Y526507D01*
X651248Y527065D01*
X651549Y527793D01*
Y528581D01*
X651248Y529309D01*
X650691Y529866D01*
X649962Y530168D01*
X649830D01*
X649267Y530732D01*
Y531059D01*
X649166Y531566D01*
X648878Y531996D01*
X646010Y534864D01*
Y540526D01*
X647296D01*
Y536006D01*
X647397Y535499D01*
X647685Y535069D01*
X655239Y527515D01*
Y527014D01*
X655541Y526286D01*
X656098Y525729D01*
X656826Y525427D01*
X657614D01*
X658342Y525729D01*
X658900Y526286D01*
X659201Y527014D01*
Y527802D01*
X658900Y528530D01*
X658342Y529087D01*
X657614Y529389D01*
X657114D01*
X649947Y536555D01*
Y540526D01*
X652232D01*
X652500Y540126D01*
X659323Y533303D01*
X659753Y533015D01*
X660260Y532914D01*
X682116D01*
X687519Y527512D01*
Y527011D01*
X687820Y526283D01*
X688378Y525725D01*
X689106Y525424D01*
X689894D01*
X690622Y525725D01*
X691180Y526283D01*
X691481Y527011D01*
Y527799D01*
X691180Y528527D01*
X690622Y529084D01*
X689894Y529386D01*
X689393D01*
X683602Y535177D01*
X683172Y535464D01*
X682665Y535565D01*
X660809D01*
X656310Y540064D01*
X656501Y540526D01*
X686666D01*
Y536536D01*
X686767Y536029D01*
X687055Y535599D01*
X694083Y528571D01*
X694513Y528283D01*
X695020Y528183D01*
X697111D01*
X697465Y527829D01*
X698194Y527527D01*
X698982D01*
X699710Y527829D01*
X700267Y528386D01*
X700569Y529114D01*
Y529902D01*
X700267Y530630D01*
X699710Y531187D01*
X698982Y531489D01*
X698194D01*
X697465Y531187D01*
X697111Y530833D01*
X695569D01*
X692125Y534278D01*
X692316Y534740D01*
X692323D01*
X693051Y535041D01*
X693608Y535599D01*
X693910Y536327D01*
Y537115D01*
X693608Y537843D01*
X693254Y538197D01*
Y540526D01*
X694541D01*
Y537586D01*
X694641Y537079D01*
X694929Y536649D01*
X698275Y533303D01*
X698705Y533015D01*
X699212Y532914D01*
X711692D01*
X711826Y532781D01*
X712012Y532502D01*
X712303Y532210D01*
X712280Y532153D01*
Y531365D01*
X712581Y530637D01*
X713138Y530079D01*
X713867Y529778D01*
X714655D01*
X715383Y530079D01*
X715940Y530637D01*
X716242Y531365D01*
Y532153D01*
X715940Y532881D01*
X715383Y533438D01*
X714655Y533740D01*
X714523D01*
X714073Y534190D01*
X713886Y534469D01*
X713178Y535177D01*
X712748Y535464D01*
X712241Y535565D01*
X699761D01*
X697191Y538135D01*
Y540526D01*
X718163D01*
Y536256D01*
X718264Y535749D01*
X718551Y535319D01*
X719854Y534016D01*
Y533515D01*
X720155Y532787D01*
X720713Y532230D01*
X721441Y531928D01*
X722229D01*
X722957Y532230D01*
X723411Y532684D01*
X723983Y532711D01*
X726587Y530107D01*
Y529606D01*
X726888Y528878D01*
X727446Y528321D01*
X728174Y528019D01*
X728962D01*
X729690Y528321D01*
X730247Y528878D01*
X730549Y529606D01*
Y530394D01*
X730247Y531122D01*
X729690Y531679D01*
X728962Y531981D01*
X728461D01*
X725641Y534801D01*
Y534937D01*
X725541Y535444D01*
X725253Y535874D01*
X724751Y536377D01*
Y540526D01*
X725603D01*
Y554297D01*
X726065Y554489D01*
X738639Y541915D01*
Y541414D01*
X738941Y540686D01*
X739498Y540129D01*
X740226Y539827D01*
X741014D01*
X741742Y540129D01*
X742300Y540686D01*
X742601Y541414D01*
Y542202D01*
X742300Y542930D01*
X741742Y543488D01*
X741014Y543789D01*
X740514D01*
X736299Y548004D01*
X736416Y548594D01*
X736742Y548729D01*
X736772Y548759D01*
X737397Y548676D01*
X737912Y547785D01*
X738938Y546758D01*
X740195Y546033D01*
X741597Y545657D01*
X743048D01*
X744450Y546033D01*
X745707Y546758D01*
X746733Y547785D01*
X747459Y549041D01*
X747834Y550443D01*
Y551895D01*
X747459Y553296D01*
X746733Y554553D01*
X745707Y555579D01*
X744450Y556305D01*
X743048Y556681D01*
X741597D01*
X740195Y556305D01*
X738938Y555579D01*
X737912Y554553D01*
X737186Y553296D01*
X736975Y552508D01*
X736385Y552236D01*
X736014Y552389D01*
X735513D01*
X728057Y559845D01*
X727698Y560085D01*
X727711Y560377D01*
X727781Y560585D01*
X758464D01*
X758766Y560710D01*
X758891Y561011D01*
Y619653D01*
X1249574D01*
Y426D01*
D02*
G37*
G36*
X741406Y523713D02*
X736063Y518369D01*
X735775Y517940D01*
X735674Y517432D01*
Y500165D01*
X735494Y500102D01*
X735175Y500082D01*
X734937Y500437D01*
X733481Y501893D01*
Y502394D01*
X733180Y503122D01*
X732622Y503680D01*
X731894Y503981D01*
X731106D01*
X730378Y503680D01*
X729820Y503122D01*
X729519Y502394D01*
Y501606D01*
X729820Y500878D01*
X730378Y500320D01*
X731106Y500019D01*
X731607D01*
X732675Y498951D01*
Y140237D01*
X730327Y137889D01*
X729826D01*
X729098Y137587D01*
X728541Y137030D01*
X728239Y136302D01*
Y135514D01*
X728541Y134786D01*
X729098Y134229D01*
X729826Y133927D01*
X730614D01*
X731342Y134229D01*
X731900Y134786D01*
X732201Y135514D01*
Y136015D01*
X734937Y138751D01*
X735175Y139106D01*
X735494Y139086D01*
X735674Y139023D01*
Y124228D01*
X735775Y123721D01*
X736063Y123291D01*
X767962Y91392D01*
X767961Y91385D01*
X767418Y91220D01*
X704662Y153977D01*
X704232Y154264D01*
X703724Y154365D01*
X690555D01*
X616483Y228437D01*
X616053Y228725D01*
X615545Y228825D01*
X121049D01*
X116127Y233747D01*
X116270Y234247D01*
X117469D01*
Y241753D01*
X111932D01*
Y234247D01*
X113375D01*
Y230409D01*
X113375Y230408D01*
Y221753D01*
X111932D01*
Y219325D01*
X101684D01*
X101482Y219285D01*
X101177Y219225D01*
X101177Y219225D01*
X101177D01*
X100747Y218937D01*
X98698Y216889D01*
X79540D01*
Y221260D01*
Y225197D01*
Y229134D01*
Y233071D01*
Y237861D01*
X94186D01*
X94693Y237962D01*
X95123Y238249D01*
X102549Y245675D01*
X530000D01*
X530507Y245776D01*
X530937Y246063D01*
X589737Y304863D01*
X590025Y305293D01*
X590125Y305800D01*
Y359888D01*
X721174Y490937D01*
X721674Y490730D01*
Y277976D01*
X721320Y277622D01*
X721019Y276894D01*
Y276106D01*
X721320Y275378D01*
X721878Y274820D01*
X722606Y274519D01*
X723394D01*
X724122Y274820D01*
X724680Y275378D01*
X724981Y276106D01*
Y276894D01*
X724680Y277622D01*
X724326Y277976D01*
Y491637D01*
X724225Y492144D01*
X723937Y492574D01*
X722825Y493686D01*
Y512243D01*
X723179Y512597D01*
X723481Y513325D01*
Y514113D01*
X723373Y514374D01*
X723707Y514875D01*
X729403D01*
X729910Y514975D01*
X730340Y515263D01*
X739252Y524174D01*
X741214D01*
X741406Y523713D01*
D02*
G37*
G36*
X567684Y537389D02*
X567809Y537088D01*
X568110Y536963D01*
Y502513D01*
X496433Y451051D01*
Y418000D01*
X465365D01*
X393587Y421953D01*
X354500Y463253D01*
Y524098D01*
X523000D01*
Y555500D01*
X567684D01*
Y537389D01*
D02*
G37*
G36*
X909164Y392890D02*
X909594Y392602D01*
X910101Y392501D01*
X915932D01*
X918038Y390396D01*
X917847Y389934D01*
X907520D01*
X907013Y389833D01*
X906583Y389545D01*
X902083Y385045D01*
X901796Y384615D01*
X901695Y384108D01*
Y381976D01*
X901480Y381800D01*
X899520D01*
X899129Y381722D01*
X898798Y381501D01*
X898577Y381170D01*
X898499Y380779D01*
Y373307D01*
X898577Y372917D01*
X898798Y372586D01*
X899129Y372364D01*
X899175Y372355D01*
Y370484D01*
X898821Y370130D01*
X898519Y369402D01*
Y368614D01*
X898821Y367886D01*
X899378Y367329D01*
X900106Y367027D01*
X900894D01*
X901347Y366673D01*
X901370Y366433D01*
X887483Y352545D01*
X887326Y352310D01*
X886826Y352462D01*
Y372355D01*
X886871Y372364D01*
X887202Y372586D01*
X887423Y372917D01*
X887501Y373307D01*
Y380779D01*
X887423Y381170D01*
X887202Y381501D01*
X886871Y381722D01*
X886826Y381731D01*
Y414521D01*
X887326Y414728D01*
X909164Y392890D01*
D02*
G37*
G36*
X955980Y230645D02*
Y217760D01*
X945195D01*
X945024Y218260D01*
X945601Y218838D01*
X946095Y219693D01*
X946351Y220648D01*
Y221636D01*
X946095Y222590D01*
X945601Y223446D01*
X944903Y224145D01*
X944047Y224639D01*
X943092Y224895D01*
X942104D01*
X941150Y224639D01*
X940294Y224145D01*
X939595Y223446D01*
X939101Y222590D01*
X939065Y222455D01*
X936132D01*
X936095Y222590D01*
X935601Y223446D01*
X934903Y224145D01*
X934047Y224639D01*
X933092Y224895D01*
X932104D01*
X931150Y224639D01*
X931033Y224571D01*
X886826Y268779D01*
Y274655D01*
X887326Y274806D01*
X887483Y274571D01*
X902739Y259315D01*
Y258814D01*
X903041Y258086D01*
X903598Y257528D01*
X904326Y257227D01*
X905114D01*
X905842Y257528D01*
X906400Y258086D01*
X906701Y258814D01*
Y259602D01*
X906400Y260330D01*
X905842Y260888D01*
X905114Y261189D01*
X904613D01*
X889746Y276057D01*
Y296227D01*
X890207Y296418D01*
X955980Y230645D01*
D02*
G37*
G36*
X491109Y561011D02*
X491234Y560710D01*
X491536Y560585D01*
X567684D01*
Y556315D01*
X523000D01*
X522688Y556253D01*
X522423Y556076D01*
X522246Y555812D01*
X522184Y555500D01*
Y524914D01*
X354500D01*
X354188Y524852D01*
X353923Y524675D01*
X353746Y524411D01*
X353684Y524098D01*
Y463253D01*
X353713Y463108D01*
X353738Y462961D01*
X353744Y462952D01*
X353746Y462941D01*
X353829Y462817D01*
X353908Y462692D01*
X392995Y421393D01*
X393115Y421307D01*
X393234Y421218D01*
X393245Y421215D01*
X393254Y421209D01*
X393399Y421176D01*
X393542Y421139D01*
X465320Y417186D01*
X465343Y417189D01*
X465365Y417184D01*
X496433D01*
X496745Y417246D01*
X497010Y417423D01*
X497187Y417688D01*
X497249Y418000D01*
Y450632D01*
X568586Y501850D01*
X568632Y501899D01*
X568687Y501936D01*
X568739Y502014D01*
X568803Y502083D01*
X568827Y502145D01*
X568864Y502201D01*
X568882Y502293D01*
X568915Y502381D01*
X568913Y502447D01*
X568926Y502513D01*
Y531046D01*
X569388Y531238D01*
X607063Y493563D01*
X607493Y493275D01*
X608000Y493175D01*
X643024D01*
X643378Y492821D01*
X644106Y492519D01*
X644894D01*
X645622Y492821D01*
X646179Y493378D01*
X646481Y494106D01*
Y494894D01*
X646179Y495622D01*
X645622Y496179D01*
X644894Y496481D01*
X644106D01*
X643378Y496179D01*
X643024Y495825D01*
X608549D01*
X568926Y535449D01*
Y536963D01*
X575590D01*
X575892Y537088D01*
X576017Y537389D01*
Y540526D01*
X607927D01*
Y526248D01*
X608027Y525741D01*
X608315Y525311D01*
X622063Y511563D01*
X622493Y511275D01*
X623000Y511174D01*
X671024D01*
X671378Y510820D01*
X672106Y510519D01*
X672894D01*
X673622Y510820D01*
X674180Y511378D01*
X674481Y512106D01*
Y512894D01*
X674180Y513622D01*
X673622Y514180D01*
X672894Y514481D01*
X672106D01*
X671378Y514180D01*
X671024Y513826D01*
X623549D01*
X610577Y526797D01*
Y540526D01*
X611864D01*
Y532311D01*
X611964Y531804D01*
X612252Y531374D01*
X621442Y522184D01*
X621872Y521897D01*
X622379Y521796D01*
X636768D01*
X636959Y521334D01*
X636611Y520986D01*
X636110D01*
X635382Y520684D01*
X634825Y520127D01*
X634523Y519398D01*
Y518610D01*
X634825Y517882D01*
X635382Y517325D01*
X636110Y517023D01*
X636899D01*
X637627Y517325D01*
X638184Y517882D01*
X638485Y518610D01*
Y519111D01*
X639311Y519936D01*
X730329D01*
X730614Y519993D01*
X730860Y519532D01*
X728854Y517525D01*
X704312D01*
X703805Y517425D01*
X703375Y517137D01*
X605927Y419689D01*
X605426D01*
X604698Y419387D01*
X604141Y418830D01*
X603839Y418102D01*
Y417314D01*
X604141Y416586D01*
X604698Y416028D01*
X605426Y415727D01*
X606214D01*
X606942Y416028D01*
X607500Y416586D01*
X607801Y417314D01*
Y417815D01*
X704861Y514875D01*
X719293D01*
X719627Y514374D01*
X719519Y514113D01*
Y513325D01*
X719820Y512597D01*
X720175Y512243D01*
Y493686D01*
X587863Y361374D01*
X587575Y360944D01*
X587474Y360437D01*
Y306349D01*
X529451Y248325D01*
X102000D01*
X101493Y248225D01*
X101063Y247937D01*
X93637Y240511D01*
X79540D01*
Y241798D01*
X91320D01*
X91827Y241898D01*
X92257Y242186D01*
X100254Y250183D01*
X413544D01*
X413898Y249829D01*
X414626Y249527D01*
X415414D01*
X416142Y249829D01*
X416496Y250183D01*
X522508D01*
X523015Y250284D01*
X523445Y250571D01*
X578957Y306083D01*
X579245Y306513D01*
X579346Y307020D01*
Y397971D01*
X692937Y511563D01*
X693225Y511993D01*
X693326Y512500D01*
Y514043D01*
X693680Y514397D01*
X693981Y515125D01*
Y515913D01*
X693680Y516641D01*
X693122Y517198D01*
X692394Y517500D01*
X691606D01*
X690878Y517198D01*
X690320Y516641D01*
X690019Y515913D01*
Y515125D01*
X690320Y514397D01*
X690674Y514043D01*
Y513049D01*
X577083Y399457D01*
X576796Y399027D01*
X576695Y398520D01*
Y307569D01*
X521959Y252834D01*
X416496D01*
X416142Y253187D01*
X415414Y253489D01*
X414626D01*
X413898Y253187D01*
X413544Y252834D01*
X99705D01*
X99198Y252733D01*
X98768Y252445D01*
X90771Y244448D01*
X79540D01*
Y245735D01*
X84560D01*
X85067Y245835D01*
X85497Y246123D01*
X97549Y258174D01*
X521500D01*
X522007Y258275D01*
X522437Y258563D01*
X544393Y280519D01*
X544894D01*
X545622Y280820D01*
X546179Y281378D01*
X546481Y282106D01*
Y282894D01*
X546179Y283622D01*
X545622Y284179D01*
X544894Y284481D01*
X544106D01*
X543378Y284179D01*
X542821Y283622D01*
X542519Y282894D01*
Y282393D01*
X520951Y260825D01*
X97000D01*
X96493Y260725D01*
X96063Y260437D01*
X84011Y248386D01*
X79540D01*
Y252756D01*
Y256693D01*
Y260630D01*
Y264567D01*
Y268504D01*
Y272441D01*
Y277231D01*
X160556D01*
X161063Y277331D01*
X161493Y277619D01*
X170541Y286667D01*
X174541D01*
X174574Y286544D01*
X175068Y285688D01*
X175767Y284989D01*
X176622Y284495D01*
X177577Y284240D01*
X178565D01*
X179519Y284495D01*
X180375Y284989D01*
X181074Y285688D01*
X181568Y286544D01*
X181824Y287498D01*
Y288486D01*
X181568Y289441D01*
X181074Y290297D01*
X180375Y290995D01*
X179519Y291489D01*
X178565Y291745D01*
X177577D01*
X176622Y291489D01*
X175767Y290995D01*
X175068Y290297D01*
X174574Y289441D01*
X174541Y289318D01*
X169992D01*
X169485Y289217D01*
X169055Y288930D01*
X160007Y279882D01*
X79540D01*
Y281168D01*
X147493D01*
X148000Y281269D01*
X148430Y281556D01*
X163541Y296667D01*
X174541D01*
X174574Y296544D01*
X175068Y295688D01*
X175767Y294989D01*
X176622Y294495D01*
X177577Y294239D01*
X178565D01*
X179519Y294495D01*
X180375Y294989D01*
X181074Y295688D01*
X181568Y296544D01*
X181824Y297498D01*
Y298486D01*
X181568Y299441D01*
X181074Y300296D01*
X180375Y300995D01*
X179519Y301489D01*
X178565Y301745D01*
X177577D01*
X176622Y301489D01*
X175767Y300995D01*
X175068Y300296D01*
X174574Y299441D01*
X174541Y299318D01*
X162992D01*
X162485Y299217D01*
X162055Y298930D01*
X146944Y283819D01*
X79540D01*
Y285105D01*
X144930D01*
X145437Y285206D01*
X145867Y285493D01*
X167041Y306667D01*
X174541D01*
X174574Y306544D01*
X175068Y305688D01*
X175767Y304989D01*
X176622Y304495D01*
X177577Y304240D01*
X178565D01*
X179519Y304495D01*
X180375Y304989D01*
X181074Y305688D01*
X181568Y306544D01*
X181824Y307498D01*
Y308486D01*
X181568Y309441D01*
X181074Y310297D01*
X180375Y310995D01*
X179519Y311489D01*
X178565Y311745D01*
X177577D01*
X176622Y311489D01*
X175767Y310995D01*
X175068Y310297D01*
X174574Y309441D01*
X174541Y309318D01*
X166492D01*
X165985Y309217D01*
X165555Y308929D01*
X144381Y287755D01*
X79540D01*
Y289042D01*
X133367D01*
X133874Y289142D01*
X134304Y289430D01*
X171541Y326667D01*
X174541D01*
X174574Y326544D01*
X175068Y325688D01*
X175767Y324989D01*
X176622Y324495D01*
X177577Y324239D01*
X178565D01*
X179519Y324495D01*
X180375Y324989D01*
X181074Y325688D01*
X181568Y326544D01*
X181824Y327498D01*
Y328486D01*
X181568Y329441D01*
X181074Y330296D01*
X180375Y330995D01*
X179519Y331489D01*
X178565Y331745D01*
X177577D01*
X176622Y331489D01*
X175767Y330995D01*
X175068Y330296D01*
X174574Y329441D01*
X174541Y329318D01*
X170992D01*
X170485Y329217D01*
X170055Y328929D01*
X132818Y291692D01*
X79540D01*
Y292979D01*
X113804D01*
X114311Y293079D01*
X114741Y293367D01*
X168041Y346667D01*
X174541D01*
X174574Y346544D01*
X175068Y345688D01*
X175767Y344989D01*
X176622Y344495D01*
X177577Y344239D01*
X178565D01*
X179519Y344495D01*
X180375Y344989D01*
X181074Y345688D01*
X181568Y346544D01*
X181824Y347498D01*
Y348486D01*
X181568Y349441D01*
X181074Y350296D01*
X180375Y350995D01*
X179519Y351489D01*
X178565Y351745D01*
X177577D01*
X176622Y351489D01*
X175767Y350995D01*
X175068Y350296D01*
X174574Y349441D01*
X174541Y349318D01*
X167492D01*
X166985Y349217D01*
X166555Y348930D01*
X113255Y295630D01*
X79540D01*
Y296916D01*
X87783D01*
X88137Y296562D01*
X88865Y296260D01*
X89653D01*
X90381Y296562D01*
X90938Y297119D01*
X91240Y297847D01*
Y298635D01*
X90938Y299363D01*
X90381Y299921D01*
X89653Y300222D01*
X88865D01*
X88137Y299921D01*
X87783Y299567D01*
X79540D01*
Y301014D01*
X92363D01*
X92717Y300659D01*
X93445Y300358D01*
X94233D01*
X94961Y300659D01*
X95518Y301217D01*
X95820Y301945D01*
Y302733D01*
X95518Y303461D01*
X94961Y304018D01*
X94233Y304320D01*
X94307Y304790D01*
X98616D01*
X98970Y304435D01*
X99698Y304134D01*
X100486D01*
X101215Y304435D01*
X101772Y304993D01*
X102073Y305721D01*
Y306509D01*
X101772Y307237D01*
X101215Y307794D01*
X100486Y308096D01*
X99698D01*
X98970Y307794D01*
X98616Y307440D01*
X79540D01*
Y308720D01*
X106291D01*
X106645Y308366D01*
X107373Y308065D01*
X108161D01*
X108889Y308366D01*
X109447Y308924D01*
X109748Y309652D01*
Y310440D01*
X109447Y311168D01*
X108889Y311725D01*
X108161Y312027D01*
X107373D01*
X106645Y311725D01*
X106291Y311371D01*
X79540D01*
Y312664D01*
X115035D01*
X115389Y312310D01*
X116117Y312008D01*
X116905D01*
X117633Y312310D01*
X118190Y312867D01*
X118492Y313595D01*
Y314383D01*
X118190Y315111D01*
X117633Y315669D01*
X116905Y315970D01*
X116117D01*
X115389Y315669D01*
X115035Y315315D01*
X79540D01*
Y316601D01*
X94426D01*
X94933Y316702D01*
X95363Y316989D01*
X100133Y321758D01*
X100633D01*
X101362Y322060D01*
X101919Y322617D01*
X102220Y323345D01*
Y324133D01*
X101919Y324862D01*
X101362Y325419D01*
X100633Y325721D01*
X100052D01*
X99844Y326220D01*
X104643Y331019D01*
X105144D01*
X105872Y331321D01*
X106429Y331878D01*
X106731Y332606D01*
Y333394D01*
X106429Y334122D01*
X105872Y334680D01*
X105144Y334981D01*
X104356D01*
X103628Y334680D01*
X103070Y334122D01*
X102769Y333394D01*
Y332893D01*
X93064Y323188D01*
X79540D01*
Y324475D01*
X91331D01*
X91839Y324576D01*
X92269Y324863D01*
X119115Y351710D01*
X119616D01*
X120344Y352011D01*
X120901Y352569D01*
X121203Y353297D01*
Y354085D01*
X120901Y354813D01*
X120344Y355370D01*
X119616Y355672D01*
X118828D01*
X118100Y355370D01*
X117542Y354813D01*
X117241Y354085D01*
Y353584D01*
X90782Y327126D01*
X79540D01*
Y331496D01*
Y335433D01*
Y339370D01*
Y343307D01*
Y347244D01*
Y351181D01*
Y355118D01*
Y359035D01*
X82677D01*
X82979Y359160D01*
X83103Y359462D01*
Y366942D01*
X82979Y367243D01*
X82677Y367368D01*
X59481D01*
Y443504D01*
X59356Y443805D01*
X59055Y443930D01*
X426D01*
Y619653D01*
X491109D01*
Y561011D01*
D02*
G37*
G36*
X63767Y355118D02*
Y351181D01*
Y347244D01*
Y343307D01*
Y339370D01*
Y335433D01*
Y331496D01*
Y327559D01*
Y323622D01*
Y319685D01*
Y315748D01*
Y311811D01*
Y307874D01*
Y303937D01*
Y300000D01*
Y296063D01*
Y292126D01*
Y288189D01*
Y284252D01*
Y280315D01*
Y276378D01*
Y272441D01*
Y268504D01*
Y264567D01*
Y260630D01*
Y256693D01*
Y252756D01*
Y248819D01*
Y244882D01*
Y240945D01*
Y237008D01*
Y233071D01*
Y229134D01*
Y225197D01*
Y221260D01*
Y217323D01*
Y213386D01*
Y209449D01*
X79540D01*
Y210301D01*
X103509D01*
X111932Y201878D01*
Y196247D01*
X113375D01*
Y172275D01*
X113021Y171921D01*
X112720Y171193D01*
Y170405D01*
X113021Y169677D01*
X113578Y169120D01*
X114307Y168818D01*
X115095D01*
X115823Y169120D01*
X116380Y169677D01*
X116682Y170405D01*
Y171193D01*
X116380Y171921D01*
X116026Y172275D01*
Y196247D01*
X117469D01*
Y203753D01*
X113807D01*
X104995Y212564D01*
X104565Y212851D01*
X104058Y212952D01*
X79540D01*
Y214238D01*
X99247D01*
X99427Y214274D01*
X99755Y214339D01*
X99755Y214339D01*
X99755D01*
X100185Y214627D01*
X102233Y216675D01*
X111932D01*
Y214247D01*
X117469D01*
Y221753D01*
X116026D01*
Y229446D01*
X116488Y229637D01*
X119563Y226563D01*
X119993Y226275D01*
X120500Y226175D01*
X614996D01*
X689069Y152102D01*
X689499Y151815D01*
X690006Y151714D01*
X703175D01*
X723067Y131823D01*
X722949Y131233D01*
X722598Y131088D01*
X722041Y130530D01*
X721739Y129802D01*
Y129014D01*
X722041Y128286D01*
X722598Y127728D01*
X723326Y127427D01*
X723827D01*
X732995Y118259D01*
Y109986D01*
X732495Y109652D01*
X732186Y109780D01*
X731398D01*
X730670Y109478D01*
X730113Y108921D01*
X729811Y108193D01*
Y107692D01*
X729187Y107068D01*
X724540D01*
Y105624D01*
X714078D01*
X701301Y118401D01*
Y118902D01*
X701000Y119630D01*
X700442Y120187D01*
X699714Y120489D01*
X698926D01*
X698198Y120187D01*
X697641Y119630D01*
X697339Y118902D01*
Y118114D01*
X697641Y117386D01*
X698198Y116829D01*
X698926Y116527D01*
X699427D01*
X708424Y107529D01*
X708233Y107068D01*
X701901D01*
Y102109D01*
X701401Y101902D01*
X694757Y108545D01*
X694327Y108833D01*
X693820Y108933D01*
X683569D01*
X681825Y110677D01*
Y131000D01*
X681725Y131507D01*
X681437Y131937D01*
X681437Y131937D01*
X675489Y137885D01*
X675280Y138025D01*
X675070Y138168D01*
X675064Y138169D01*
X675059Y138173D01*
X674811Y138222D01*
X674563Y138273D01*
X659456Y138403D01*
X659451Y138402D01*
X659445Y138403D01*
X659022D01*
X658515Y138302D01*
X658085Y138015D01*
X657792Y137722D01*
X657792Y137722D01*
X646563Y126493D01*
X646275Y126063D01*
X646174Y125556D01*
Y111314D01*
X628000Y93139D01*
X627712Y92709D01*
X627611Y92202D01*
Y79540D01*
X622388D01*
Y141014D01*
X634049Y152674D01*
X670951D01*
X677019Y146607D01*
Y146106D01*
X677320Y145378D01*
X677878Y144820D01*
X678606Y144519D01*
X679394D01*
X680122Y144820D01*
X680680Y145378D01*
X680981Y146106D01*
Y146894D01*
X680680Y147622D01*
X680122Y148179D01*
X679394Y148481D01*
X678893D01*
X672437Y154937D01*
X672007Y155225D01*
X671500Y155325D01*
X633500D01*
X632993Y155225D01*
X632563Y154937D01*
X621273Y143647D01*
X620811Y143839D01*
Y161094D01*
X620710Y161601D01*
X620588Y161783D01*
Y179075D01*
X620900Y179386D01*
X621201Y180114D01*
Y180902D01*
X620900Y181630D01*
X620342Y182187D01*
X619614Y182489D01*
X618826D01*
X618098Y182187D01*
X617541Y181630D01*
X617239Y180902D01*
Y180114D01*
X617541Y179386D01*
X617938Y178989D01*
Y161316D01*
X617940Y161302D01*
X617502Y160943D01*
X617399Y160986D01*
X616610D01*
X615882Y160684D01*
X615325Y160127D01*
X615023Y159398D01*
Y158898D01*
X613563Y157437D01*
X613275Y157007D01*
X613219Y156725D01*
X612252Y155758D01*
X611964Y155328D01*
X611864Y154820D01*
Y79540D01*
X610577D01*
Y104194D01*
X610918Y104535D01*
X611206Y104965D01*
X611307Y105472D01*
Y217547D01*
X611206Y218054D01*
X610918Y218484D01*
X607801Y221601D01*
Y222102D01*
X607500Y222830D01*
X606942Y223388D01*
X606214Y223689D01*
X605426D01*
X604698Y223388D01*
X604141Y222830D01*
X603839Y222102D01*
Y221314D01*
X604141Y220586D01*
X604698Y220028D01*
X605426Y219727D01*
X605927D01*
X608656Y216998D01*
Y108707D01*
X608156Y108373D01*
X607894Y108481D01*
X607106D01*
X606378Y108179D01*
X605821Y107622D01*
X605519Y106894D01*
Y106393D01*
X602420Y103294D01*
X602420Y103294D01*
X600787Y101662D01*
X600325Y101853D01*
Y130000D01*
X600225Y130507D01*
X599937Y130937D01*
X577807Y153068D01*
Y174019D01*
X577706Y174526D01*
X577418Y174956D01*
X536629Y215745D01*
X536199Y216033D01*
X535692Y216133D01*
X453196D01*
X452842Y216488D01*
X452114Y216789D01*
X451326D01*
X450598Y216488D01*
X450041Y215930D01*
X449739Y215202D01*
Y214414D01*
X450041Y213686D01*
X450598Y213128D01*
X451326Y212827D01*
X452114D01*
X452842Y213128D01*
X453196Y213483D01*
X535143D01*
X575156Y173470D01*
Y152519D01*
X575256Y152012D01*
X575544Y151582D01*
X597675Y129451D01*
Y99476D01*
X597321Y99122D01*
X597019Y98394D01*
Y97606D01*
X597321Y96878D01*
X597878Y96320D01*
X598606Y96019D01*
X599394D01*
X600122Y96320D01*
X600679Y96878D01*
X600981Y97606D01*
Y98107D01*
X604294Y101420D01*
X604294Y101420D01*
X607393Y104519D01*
X607894D01*
X607927Y104497D01*
Y79540D01*
X575780D01*
Y82677D01*
X575656Y82978D01*
X575354Y83103D01*
X568110D01*
X567955Y83039D01*
X567809Y82979D01*
X567809Y82978D01*
X567809Y82978D01*
X567748Y82832D01*
X567684Y82677D01*
X567678Y59481D01*
X491536D01*
X491234Y59357D01*
X491109Y59055D01*
Y426D01*
X426Y426D01*
Y176149D01*
X59055Y176149D01*
X59356Y176274D01*
X59481Y176575D01*
Y359035D01*
X63767D01*
Y355118D01*
D02*
G37*
G36*
X835192Y147060D02*
Y143951D01*
X835293Y143444D01*
X835580Y143014D01*
X837150Y141445D01*
X837580Y141157D01*
X838087Y141056D01*
X864854D01*
Y139417D01*
X867321D01*
X867675Y139063D01*
X867675Y107584D01*
X864853D01*
Y105944D01*
X860618D01*
X860111Y105843D01*
X859681Y105555D01*
X847451Y93326D01*
X836825D01*
Y95996D01*
X837325Y96406D01*
X837469Y96378D01*
X838050Y96493D01*
X838453Y96763D01*
X838856Y96493D01*
X839437Y96378D01*
X840018Y96493D01*
X840510Y96823D01*
X840839Y97315D01*
X840955Y97896D01*
Y99043D01*
X844066Y99133D01*
X844378Y98821D01*
X845106Y98519D01*
X845894D01*
X846622Y98821D01*
X847179Y99378D01*
X847481Y100106D01*
Y100894D01*
X847179Y101622D01*
X846622Y102180D01*
X845894Y102481D01*
X845106D01*
X844378Y102180D01*
X843981Y101782D01*
X841314Y101706D01*
X840955Y102054D01*
Y102646D01*
X840839Y103227D01*
X840510Y103719D01*
X840018Y104049D01*
X839437Y104164D01*
X839294Y104136D01*
X838794Y104546D01*
Y113993D01*
X839148Y114347D01*
X839450Y115075D01*
Y115863D01*
X839148Y116591D01*
X838591Y117148D01*
X837863Y117450D01*
X837074D01*
X836346Y117148D01*
X835789Y116591D01*
X835487Y115863D01*
Y115075D01*
X835789Y114347D01*
X836143Y113993D01*
Y104546D01*
X835643Y104136D01*
X835500Y104164D01*
X835357Y104136D01*
X834857Y104546D01*
Y106516D01*
X834756Y107024D01*
X834469Y107454D01*
X821325Y120597D01*
Y130078D01*
X833969Y142722D01*
X834256Y143152D01*
X834357Y143659D01*
Y147188D01*
X834857Y147395D01*
X835192Y147060D01*
D02*
G37*
G36*
X742675Y495450D02*
Y165393D01*
X742776Y164885D01*
X743063Y164455D01*
X745383Y162136D01*
X745813Y161848D01*
X746320Y161748D01*
X757000D01*
X757508Y161848D01*
X757938Y162136D01*
X760741Y164939D01*
X761029Y165369D01*
X761130Y165877D01*
Y174282D01*
X787456Y200609D01*
X787744Y201039D01*
X787845Y201546D01*
Y232970D01*
X799549Y244674D01*
X809086D01*
X842595Y211166D01*
Y184142D01*
X842095Y184043D01*
X841979Y184323D01*
X841421Y184880D01*
X840693Y185182D01*
X839905D01*
X839177Y184880D01*
X838620Y184323D01*
X838318Y183595D01*
Y182807D01*
X838620Y182079D01*
X838974Y181725D01*
Y180753D01*
X837531D01*
Y173247D01*
X838974D01*
Y166756D01*
X835481Y163264D01*
X834981Y163471D01*
Y163894D01*
X834680Y164622D01*
X834122Y165180D01*
X833394Y165481D01*
X832606D01*
X831878Y165180D01*
X831320Y164622D01*
X831019Y163894D01*
Y163106D01*
X831320Y162378D01*
X831706Y161992D01*
Y160606D01*
X831244Y160414D01*
X829026Y162632D01*
Y173247D01*
X830469D01*
Y180753D01*
X824932D01*
Y178325D01*
X820549D01*
X813325Y185549D01*
Y204951D01*
X825893Y217519D01*
X826394D01*
X827122Y217821D01*
X827679Y218378D01*
X827981Y219106D01*
Y219894D01*
X827679Y220622D01*
X827122Y221180D01*
X826394Y221481D01*
X825606D01*
X824878Y221180D01*
X824320Y220622D01*
X824019Y219894D01*
Y219393D01*
X811063Y206437D01*
X810775Y206007D01*
X810674Y205500D01*
Y185000D01*
X810775Y184493D01*
X811063Y184063D01*
X819063Y176063D01*
X819493Y175776D01*
X820000Y175675D01*
X824932D01*
Y173247D01*
X826375D01*
Y162083D01*
X826476Y161576D01*
X826764Y161146D01*
X829737Y158172D01*
Y154842D01*
X829660Y154727D01*
X829545Y154146D01*
Y149396D01*
X829660Y148815D01*
X829733Y148707D01*
X815063Y134037D01*
X814775Y133607D01*
X814674Y133099D01*
Y118500D01*
X814775Y117993D01*
X815063Y117563D01*
X830045Y102581D01*
Y97896D01*
X830160Y97315D01*
X830489Y96823D01*
X830522Y96491D01*
X828733Y94703D01*
X821672D01*
X818138Y98237D01*
X818138Y98237D01*
X817708Y98524D01*
X817708Y98524D01*
X817201Y98625D01*
X815753D01*
Y100068D01*
X808247D01*
Y94531D01*
X815753D01*
Y95974D01*
X816652D01*
X820186Y92440D01*
X820186Y92440D01*
X820616Y92153D01*
X820616Y92153D01*
X821123Y92052D01*
X829033D01*
X829240Y91552D01*
X823715Y86026D01*
X815753D01*
Y87469D01*
X811106D01*
X790884Y107692D01*
Y108193D01*
X790582Y108921D01*
X790025Y109478D01*
X789297Y109780D01*
X788509D01*
X787780Y109478D01*
X787223Y108921D01*
X786921Y108193D01*
Y107404D01*
X787223Y106676D01*
X787780Y106119D01*
X788509Y105817D01*
X789009D01*
X808247Y86579D01*
Y81932D01*
X815753D01*
Y83375D01*
X824264D01*
X824771Y83476D01*
X825201Y83764D01*
X829776Y88338D01*
X830237Y88147D01*
Y87593D01*
X830074D01*
Y79865D01*
X833052D01*
Y79865D01*
X833117Y79918D01*
X833531Y79836D01*
X834112Y79951D01*
X834605Y80280D01*
X834934Y80773D01*
X835050Y81354D01*
Y86104D01*
X834934Y86685D01*
X834605Y87177D01*
X834112Y87506D01*
X833531Y87622D01*
X833388Y87594D01*
X832888Y87973D01*
Y90675D01*
X848000D01*
X848507Y90776D01*
X848937Y91063D01*
X861167Y103293D01*
X864853D01*
Y101653D01*
X873146D01*
Y107584D01*
X870679D01*
X870325Y107937D01*
X870326Y139417D01*
X873147D01*
Y145347D01*
X864854D01*
Y143707D01*
X858448D01*
X858349Y144207D01*
X858622Y144320D01*
X859179Y144878D01*
X859481Y145606D01*
Y146394D01*
X859179Y147122D01*
X858622Y147679D01*
X857894Y147981D01*
X857393D01*
X852666Y152708D01*
X852236Y152996D01*
X851729Y153096D01*
X840455D01*
Y154146D01*
X840339Y154727D01*
X840010Y155219D01*
X839892Y155298D01*
X839829Y155942D01*
X841316Y157429D01*
X841906Y157312D01*
X842041Y156986D01*
X842598Y156429D01*
X843326Y156127D01*
X844114D01*
X844842Y156429D01*
X845400Y156986D01*
X845522Y157283D01*
X858044D01*
X858398Y156929D01*
X859126Y156627D01*
X859914D01*
X860642Y156929D01*
X861200Y157486D01*
X861501Y158214D01*
Y159002D01*
X861200Y159730D01*
X860642Y160287D01*
X859914Y160589D01*
X859126D01*
X858398Y160287D01*
X858044Y159933D01*
X844527D01*
X844482Y159986D01*
X844399Y160512D01*
X844857Y160971D01*
X845145Y161401D01*
X845246Y161908D01*
Y211715D01*
X845145Y212222D01*
X844857Y212652D01*
X810572Y246937D01*
X810142Y247225D01*
X809635Y247325D01*
X799000D01*
X798493Y247225D01*
X798063Y246937D01*
X785582Y234456D01*
X785294Y234026D01*
X785193Y233519D01*
Y202095D01*
X759393Y176295D01*
X758969Y176578D01*
X758981Y176606D01*
Y177107D01*
X778487Y196613D01*
X778775Y197043D01*
X778876Y197550D01*
Y237501D01*
X784893Y243519D01*
X785394D01*
X786122Y243821D01*
X786680Y244378D01*
X786981Y245106D01*
Y245894D01*
X786680Y246622D01*
X786122Y247180D01*
X785394Y247481D01*
X784606D01*
X783878Y247180D01*
X783321Y246622D01*
X783019Y245894D01*
Y245393D01*
X776613Y238987D01*
X776326Y238557D01*
X776225Y238050D01*
Y198099D01*
X757106Y178981D01*
X756606D01*
X755878Y178680D01*
X755320Y178122D01*
X755019Y177394D01*
Y176606D01*
X755320Y175878D01*
X755878Y175320D01*
X756606Y175019D01*
X757394D01*
X758061Y175295D01*
X758288Y175186D01*
X758513Y175004D01*
X758479Y174831D01*
Y169704D01*
X758017Y169513D01*
X757942Y169588D01*
X757214Y169889D01*
X756426D01*
X755698Y169588D01*
X755344Y169234D01*
X752520D01*
X752013Y169133D01*
X751583Y168845D01*
X751301Y168564D01*
X750801Y168771D01*
Y169002D01*
X750500Y169730D01*
X750496Y169734D01*
Y182109D01*
X774657Y206271D01*
X774945Y206701D01*
X775046Y207208D01*
Y283465D01*
X775546Y283617D01*
X775563Y283591D01*
X858095Y201059D01*
Y193908D01*
X858196Y193401D01*
X858483Y192971D01*
X874339Y177115D01*
Y176614D01*
X874641Y175886D01*
X875198Y175329D01*
X875926Y175027D01*
X876714D01*
X877442Y175329D01*
X878000Y175886D01*
X878174Y176308D01*
X878675Y176209D01*
Y122976D01*
X878321Y122622D01*
X878019Y121894D01*
Y121106D01*
X878321Y120378D01*
X878878Y119820D01*
X879606Y119519D01*
X880394D01*
X881122Y119820D01*
X881680Y120378D01*
X881981Y121106D01*
Y121894D01*
X881680Y122622D01*
X881326Y122976D01*
Y177428D01*
X881225Y177935D01*
X880937Y178365D01*
X863346Y195957D01*
Y201128D01*
X863359Y201136D01*
X863846Y201281D01*
X864298Y200829D01*
X865026Y200527D01*
X865527D01*
X887995Y178059D01*
Y115757D01*
X872971Y100733D01*
X863820D01*
X863313Y100633D01*
X862883Y100345D01*
X841224Y78687D01*
X840762Y78878D01*
Y80657D01*
X840839Y80773D01*
X840955Y81354D01*
Y86104D01*
X840839Y86685D01*
X840510Y87177D01*
X840018Y87506D01*
X839437Y87622D01*
X838856Y87506D01*
X838453Y87237D01*
X838050Y87506D01*
X837469Y87622D01*
X836888Y87506D01*
X836395Y87177D01*
X836066Y86685D01*
X835950Y86104D01*
Y81354D01*
X836066Y80773D01*
X836143Y80657D01*
Y77018D01*
X832451Y73326D01*
X785313D01*
X770212Y88427D01*
X770419Y88927D01*
X770714D01*
X771442Y89228D01*
X772000Y89786D01*
X772301Y90514D01*
Y91302D01*
X772000Y92030D01*
X771442Y92588D01*
X770714Y92889D01*
X770214D01*
X738326Y124777D01*
Y499092D01*
X738826Y499299D01*
X742675Y495450D01*
D02*
G37*
%LPC*%
G36*
X750894Y521481D02*
X750106D01*
X749378Y521179D01*
X748820Y520622D01*
X748519Y519894D01*
Y519106D01*
X748820Y518378D01*
X749378Y517821D01*
X750106Y517519D01*
X750894D01*
X751621Y517820D01*
X753247Y516193D01*
Y512531D01*
X760753D01*
Y518068D01*
X755122D01*
X753013Y520177D01*
X752583Y520464D01*
X752215Y520537D01*
X752179Y520622D01*
X751622Y521179D01*
X750894Y521481D01*
D02*
G37*
G36*
X797480Y473993D02*
X795520D01*
X795129Y473915D01*
X794798Y473694D01*
X794577Y473363D01*
X794499Y472972D01*
Y465500D01*
X794577Y465109D01*
X794798Y464778D01*
X795129Y464557D01*
X795175Y464548D01*
X795175Y463976D01*
X794820Y463622D01*
X794519Y462894D01*
Y462106D01*
X794820Y461378D01*
X795378Y460820D01*
X796106Y460519D01*
X796894D01*
X797622Y460820D01*
X798179Y461378D01*
X798481Y462106D01*
Y462894D01*
X798179Y463622D01*
X797825Y463976D01*
X797825Y464548D01*
X797871Y464557D01*
X798202Y464778D01*
X798423Y465109D01*
X798501Y465500D01*
Y472972D01*
X798423Y473363D01*
X798202Y473694D01*
X797871Y473915D01*
X797480Y473993D01*
D02*
G37*
G36*
X792480D02*
X790520D01*
X790129Y473915D01*
X789798Y473694D01*
X789577Y473363D01*
X789499Y472972D01*
Y465500D01*
X789577Y465109D01*
X789798Y464778D01*
X790129Y464557D01*
X790175Y464548D01*
X790174Y459976D01*
X789820Y459622D01*
X789519Y458894D01*
Y458106D01*
X789820Y457378D01*
X790378Y456820D01*
X791106Y456519D01*
X791894D01*
X792622Y456820D01*
X793179Y457378D01*
X793481Y458106D01*
Y458894D01*
X793179Y459622D01*
X792825Y459976D01*
X792826Y464548D01*
X792871Y464557D01*
X793202Y464778D01*
X793423Y465109D01*
X793501Y465500D01*
Y472972D01*
X793423Y473363D01*
X793202Y473694D01*
X792871Y473915D01*
X792480Y473993D01*
D02*
G37*
G36*
X806894Y396481D02*
X806106D01*
X805378Y396179D01*
X804821Y395622D01*
X804519Y394894D01*
Y394106D01*
X804821Y393378D01*
X805175Y393024D01*
Y381731D01*
X805129Y381722D01*
X804798Y381501D01*
X804577Y381170D01*
X804499Y380780D01*
Y373307D01*
X804577Y372917D01*
X804798Y372586D01*
X805129Y372364D01*
X805520Y372287D01*
X807480D01*
X807871Y372364D01*
X808202Y372586D01*
X808423Y372917D01*
X808501Y373307D01*
Y380780D01*
X808423Y381170D01*
X808202Y381501D01*
X807871Y381722D01*
X807826Y381731D01*
Y393024D01*
X808180Y393378D01*
X808481Y394106D01*
Y394894D01*
X808180Y395622D01*
X807622Y396179D01*
X806894Y396481D01*
D02*
G37*
G36*
X782898Y414977D02*
X782110D01*
X781382Y414675D01*
X780825Y414118D01*
X780523Y413390D01*
Y412602D01*
X780825Y411873D01*
X781382Y411316D01*
X782110Y411015D01*
X782611D01*
X800175Y393451D01*
Y381731D01*
X800129Y381722D01*
X799798Y381501D01*
X799577Y381170D01*
X799499Y380780D01*
Y373307D01*
X799577Y372917D01*
X799798Y372586D01*
X800129Y372364D01*
X800520Y372287D01*
X802480D01*
X802871Y372364D01*
X803202Y372586D01*
X803423Y372917D01*
X803501Y373307D01*
Y380780D01*
X803423Y381170D01*
X803202Y381501D01*
X802871Y381722D01*
X802826Y381731D01*
Y394000D01*
X802725Y394507D01*
X802437Y394937D01*
X784485Y412889D01*
Y413390D01*
X784184Y414118D01*
X783627Y414675D01*
X782898Y414977D01*
D02*
G37*
G36*
X788894Y403070D02*
X788106D01*
X787378Y402769D01*
X786820Y402211D01*
X786519Y401483D01*
Y400695D01*
X786820Y399967D01*
X787378Y399410D01*
X788106Y399108D01*
X788607D01*
X789129Y398585D01*
Y398545D01*
X789230Y398038D01*
X789517Y397608D01*
X795175Y391951D01*
Y381731D01*
X795129Y381722D01*
X794798Y381501D01*
X794577Y381170D01*
X794499Y380780D01*
Y373307D01*
X794577Y372917D01*
X794798Y372586D01*
X795129Y372364D01*
X795520Y372287D01*
X797480D01*
X797871Y372364D01*
X798202Y372586D01*
X798423Y372917D01*
X798501Y373307D01*
Y380780D01*
X798423Y381170D01*
X798202Y381501D01*
X797871Y381722D01*
X797826Y381731D01*
Y392500D01*
X797725Y393007D01*
X797437Y393437D01*
X791780Y399094D01*
Y399134D01*
X791679Y399641D01*
X791392Y400071D01*
X790481Y400983D01*
Y401483D01*
X790179Y402211D01*
X789622Y402769D01*
X788894Y403070D01*
D02*
G37*
G36*
X875414Y370989D02*
X874626D01*
X873898Y370688D01*
X873544Y370334D01*
X854120D01*
X853613Y370233D01*
X853183Y369945D01*
X843827Y360589D01*
X843326D01*
X842598Y360287D01*
X842041Y359730D01*
X841739Y359002D01*
Y358214D01*
X842041Y357486D01*
X842598Y356928D01*
X843326Y356627D01*
X844114D01*
X844842Y356928D01*
X845400Y357486D01*
X845701Y358214D01*
Y358715D01*
X854669Y367683D01*
X873544D01*
X873898Y367329D01*
X874626Y367027D01*
X875414D01*
X876142Y367329D01*
X876700Y367886D01*
X877001Y368614D01*
Y369402D01*
X876700Y370130D01*
X876142Y370688D01*
X875414Y370989D01*
D02*
G37*
G36*
X817480Y381800D02*
X815520D01*
X815129Y381722D01*
X814798Y381501D01*
X814577Y381170D01*
X814499Y380780D01*
Y373307D01*
X814577Y372917D01*
X814798Y372586D01*
X815129Y372364D01*
X815175Y372356D01*
Y368476D01*
X814821Y368122D01*
X814519Y367394D01*
Y366606D01*
X814821Y365878D01*
X815378Y365320D01*
X816106Y365019D01*
X816894D01*
X817622Y365320D01*
X818180Y365878D01*
X818481Y366606D01*
Y367394D01*
X818180Y368122D01*
X817826Y368476D01*
Y372356D01*
X817871Y372364D01*
X818202Y372586D01*
X818423Y372917D01*
X818501Y373307D01*
Y380780D01*
X818423Y381170D01*
X818202Y381501D01*
X817871Y381722D01*
X817480Y381800D01*
D02*
G37*
G36*
X1064392Y351745D02*
X1063404D01*
X1062449Y351489D01*
X1061594Y350995D01*
X1060895Y350296D01*
X1060401Y349441D01*
X1060368Y349318D01*
X1041431D01*
X1041096Y349653D01*
X1040368Y349955D01*
X1039579D01*
X1038851Y349653D01*
X1038294Y349096D01*
X1037992Y348368D01*
Y347580D01*
X1038294Y346851D01*
X1038851Y346294D01*
X1039579Y345992D01*
X1040368D01*
X1041096Y346294D01*
X1041468Y346667D01*
X1060368D01*
X1060401Y346544D01*
X1060895Y345688D01*
X1061594Y344989D01*
X1062449Y344495D01*
X1063404Y344239D01*
X1064392D01*
X1065346Y344495D01*
X1066202Y344989D01*
X1066901Y345688D01*
X1067395Y346544D01*
X1067651Y347498D01*
Y348486D01*
X1067395Y349441D01*
X1066901Y350296D01*
X1066202Y350995D01*
X1065346Y351489D01*
X1064392Y351745D01*
D02*
G37*
G36*
X893814Y513889D02*
X893026D01*
X892298Y513588D01*
X891741Y513030D01*
X891439Y512302D01*
Y511514D01*
X891741Y510786D01*
X892095Y510432D01*
Y483908D01*
X892196Y483401D01*
X892483Y482971D01*
X896695Y478759D01*
Y474169D01*
X896480Y473993D01*
X894520D01*
X894129Y473915D01*
X893798Y473694D01*
X893577Y473363D01*
X893499Y472972D01*
Y465500D01*
X893577Y465109D01*
X893798Y464779D01*
X894129Y464557D01*
X894175Y464548D01*
Y434500D01*
X894276Y433993D01*
X894563Y433563D01*
X945989Y382137D01*
Y317686D01*
X946090Y317179D01*
X946377Y316749D01*
X1021563Y241563D01*
X1021993Y241276D01*
X1022500Y241175D01*
X1081526D01*
X1095528Y227173D01*
Y216887D01*
X1095629Y216380D01*
X1095916Y215950D01*
X1099165Y212701D01*
X1099101Y212591D01*
X1098846Y211636D01*
Y210648D01*
X1099101Y209694D01*
X1099595Y208838D01*
X1100294Y208139D01*
X1101150Y207645D01*
X1102104Y207389D01*
X1103092D01*
X1104047Y207645D01*
X1104903Y208139D01*
X1105601Y208838D01*
X1106095Y209694D01*
X1106351Y210648D01*
Y211636D01*
X1106095Y212591D01*
X1105601Y213446D01*
X1104903Y214145D01*
X1104047Y214639D01*
X1103092Y214895D01*
X1102104D01*
X1101150Y214639D01*
X1101040Y214575D01*
X1098179Y217436D01*
Y227722D01*
X1098078Y228229D01*
X1097790Y228659D01*
X1083012Y243437D01*
X1082582Y243725D01*
X1082075Y243826D01*
X1023049D01*
X948640Y318235D01*
Y382686D01*
X948539Y383193D01*
X948252Y383623D01*
X896826Y435049D01*
Y436606D01*
X897326Y436814D01*
X942424Y391715D01*
X942519Y391652D01*
Y391606D01*
X942820Y390878D01*
X943378Y390320D01*
X944106Y390019D01*
X944894D01*
X945622Y390320D01*
X946179Y390878D01*
X946432Y391487D01*
X946943Y391683D01*
X952239Y386387D01*
Y318436D01*
X952340Y317929D01*
X952627Y317499D01*
X1024563Y245563D01*
X1024993Y245275D01*
X1025500Y245175D01*
X1084951D01*
X1105490Y224635D01*
X1105450Y224261D01*
X1104973Y224074D01*
X1104903Y224145D01*
X1104047Y224639D01*
X1103092Y224895D01*
X1102104D01*
X1101150Y224639D01*
X1100294Y224145D01*
X1099595Y223446D01*
X1099101Y222590D01*
X1098846Y221636D01*
Y220648D01*
X1099101Y219693D01*
X1099595Y218838D01*
X1100294Y218139D01*
X1101150Y217645D01*
X1102104Y217389D01*
X1103092D01*
X1104047Y217645D01*
X1104903Y218139D01*
X1105066Y218302D01*
X1105528Y218111D01*
Y216887D01*
X1105629Y216380D01*
X1105916Y215950D01*
X1109165Y212701D01*
X1109101Y212591D01*
X1108846Y211636D01*
Y210648D01*
X1109101Y209694D01*
X1109595Y208838D01*
X1110294Y208139D01*
X1111150Y207645D01*
X1112104Y207389D01*
X1113092D01*
X1114047Y207645D01*
X1114903Y208139D01*
X1115601Y208838D01*
X1116095Y209694D01*
X1116351Y210648D01*
Y211636D01*
X1116095Y212591D01*
X1115601Y213446D01*
X1114903Y214145D01*
X1114047Y214639D01*
X1113092Y214895D01*
X1112104D01*
X1111150Y214639D01*
X1111040Y214575D01*
X1108179Y217436D01*
Y225147D01*
X1108179Y225147D01*
X1108078Y225654D01*
X1107790Y226084D01*
X1086437Y247437D01*
X1086007Y247725D01*
X1085500Y247826D01*
X1026049D01*
X954890Y318985D01*
Y386936D01*
X954789Y387443D01*
X954502Y387873D01*
X901826Y440549D01*
Y464548D01*
X901871Y464557D01*
X902202Y464779D01*
X902423Y465109D01*
X902501Y465500D01*
Y472972D01*
X902423Y473363D01*
X902202Y473694D01*
X901871Y473915D01*
X901480Y473993D01*
X899520D01*
X899346Y474136D01*
Y479308D01*
X899245Y479815D01*
X898957Y480245D01*
X894746Y484457D01*
Y485673D01*
X895246Y485880D01*
X902774Y478351D01*
X902774Y478351D01*
X902769Y478333D01*
X902769Y478333D01*
X902771Y478332D01*
X903517Y477833D01*
X904396Y477659D01*
X904396Y477666D01*
X904407Y477674D01*
X904914Y477775D01*
X905170Y477946D01*
X928685Y477681D01*
X938175Y468191D01*
Y437000D01*
X938275Y436493D01*
X938563Y436063D01*
X1024644Y349981D01*
X1024437Y349481D01*
X1024106D01*
X1023378Y349180D01*
X1022821Y348622D01*
X1022519Y347894D01*
Y347790D01*
X1022057Y347599D01*
X1016262Y353393D01*
Y353894D01*
X1015961Y354622D01*
X1015403Y355180D01*
X1014675Y355481D01*
X1013887D01*
X1013159Y355180D01*
X1012602Y354622D01*
X1012300Y353894D01*
Y353106D01*
X1012602Y352378D01*
X1013159Y351820D01*
X1013887Y351519D01*
X1014388D01*
X1030948Y334959D01*
X1030719Y334481D01*
X1030106D01*
X1029378Y334179D01*
X1028820Y333622D01*
X1028519Y332894D01*
Y332106D01*
X1028820Y331378D01*
X1029378Y330820D01*
X1030106Y330519D01*
X1030606D01*
X1054070Y307055D01*
X1054500Y306768D01*
X1055008Y306667D01*
X1060368D01*
X1060401Y306544D01*
X1060895Y305688D01*
X1061594Y304989D01*
X1062449Y304495D01*
X1063404Y304240D01*
X1064392D01*
X1065346Y304495D01*
X1066202Y304989D01*
X1066901Y305688D01*
X1067395Y306544D01*
X1067651Y307498D01*
Y307726D01*
X1068112Y307917D01*
X1068975Y307055D01*
X1069405Y306768D01*
X1069912Y306667D01*
X1070368D01*
X1070401Y306544D01*
X1070895Y305688D01*
X1071593Y304989D01*
X1072449Y304495D01*
X1073404Y304240D01*
X1074392D01*
X1075346Y304495D01*
X1076202Y304989D01*
X1076901Y305688D01*
X1077395Y306544D01*
X1077651Y307498D01*
Y308486D01*
X1077395Y309441D01*
X1076901Y310297D01*
X1076202Y310995D01*
X1075346Y311489D01*
X1074392Y311745D01*
X1073404D01*
X1072449Y311489D01*
X1071593Y310995D01*
X1070895Y310297D01*
X1070637Y309849D01*
X1070012Y309767D01*
X1065102Y314677D01*
X1064672Y314964D01*
X1064165Y315065D01*
X1054591D01*
X1047582Y322074D01*
X1047871Y322492D01*
X1048260Y322414D01*
X1063616D01*
X1068975Y317055D01*
X1069405Y316768D01*
X1069912Y316667D01*
X1070368D01*
X1070401Y316544D01*
X1070895Y315688D01*
X1071593Y314989D01*
X1072449Y314495D01*
X1073404Y314240D01*
X1074392D01*
X1075346Y314495D01*
X1076202Y314989D01*
X1076901Y315688D01*
X1077395Y316544D01*
X1077651Y317498D01*
Y318486D01*
X1077395Y319441D01*
X1076901Y320297D01*
X1076202Y320995D01*
X1075346Y321489D01*
X1074392Y321745D01*
X1073404D01*
X1072449Y321489D01*
X1071593Y320995D01*
X1070895Y320297D01*
X1070637Y319849D01*
X1070012Y319767D01*
X1065673Y324106D01*
X1065755Y324731D01*
X1066202Y324989D01*
X1066901Y325688D01*
X1067395Y326544D01*
X1067651Y327498D01*
Y327726D01*
X1068112Y327917D01*
X1068508Y327522D01*
X1068938Y327235D01*
X1069445Y327134D01*
X1069445Y327134D01*
X1070243D01*
X1070401Y326544D01*
X1070895Y325688D01*
X1071593Y324989D01*
X1072449Y324495D01*
X1073404Y324239D01*
X1074392D01*
X1075346Y324495D01*
X1076202Y324989D01*
X1076901Y325688D01*
X1077395Y326544D01*
X1077651Y327498D01*
Y328486D01*
X1077395Y329441D01*
X1076901Y330296D01*
X1076202Y330995D01*
X1075346Y331489D01*
X1074392Y331745D01*
X1073404D01*
X1072449Y331489D01*
X1071593Y330995D01*
X1070895Y330296D01*
X1070599Y329785D01*
X1069994D01*
X1067243Y332536D01*
X1066903Y332903D01*
X1066903Y332903D01*
X1066142Y333412D01*
X1065245Y333590D01*
Y333590D01*
X1065226Y333571D01*
X1048512Y333854D01*
X946325Y436040D01*
Y469075D01*
X946224Y469582D01*
X945937Y470012D01*
X930512Y485437D01*
X930304Y485577D01*
X930095Y485719D01*
X930088Y485720D01*
X930082Y485725D01*
X929836Y485774D01*
X929589Y485825D01*
X903264Y486111D01*
X901826Y487549D01*
Y501162D01*
X901871Y501171D01*
X902202Y501393D01*
X902423Y501724D01*
X902501Y502114D01*
Y509587D01*
X902423Y509977D01*
X902202Y510308D01*
X901871Y510529D01*
X901480Y510607D01*
X899520D01*
X899129Y510529D01*
X898798Y510308D01*
X898577Y509977D01*
X898499Y509587D01*
Y502114D01*
X898577Y501724D01*
X898798Y501393D01*
X899129Y501171D01*
X899175Y501162D01*
Y487414D01*
X899155D01*
X899334Y486517D01*
X899838Y485762D01*
X899849Y485772D01*
X899854Y485772D01*
X901772Y483854D01*
X901772Y483850D01*
X901761Y483839D01*
X902517Y483333D01*
X903414Y483155D01*
Y483175D01*
X903922Y483275D01*
X904182Y483450D01*
X929020Y483181D01*
X943674Y468526D01*
Y435491D01*
X943695Y435386D01*
X943235Y435140D01*
X940825Y437549D01*
Y468740D01*
X940724Y469248D01*
X940437Y469678D01*
X930178Y479937D01*
X929969Y480077D01*
X929761Y480219D01*
X929754Y480220D01*
X929748Y480225D01*
X929501Y480274D01*
X929255Y480325D01*
X904267Y480608D01*
X896826Y488049D01*
Y501162D01*
X896871Y501171D01*
X897202Y501393D01*
X897423Y501724D01*
X897501Y502114D01*
Y509587D01*
X897423Y509977D01*
X897202Y510308D01*
X896871Y510529D01*
X896480Y510607D01*
X895567D01*
X895233Y511107D01*
X895401Y511514D01*
Y512302D01*
X895100Y513030D01*
X894542Y513588D01*
X893814Y513889D01*
D02*
G37*
G36*
X964135Y513234D02*
X927500D01*
X926993Y513133D01*
X926563Y512845D01*
X924563Y510845D01*
X924386Y510580D01*
X924129Y510529D01*
X923798Y510308D01*
X923577Y509977D01*
X923499Y509587D01*
Y502114D01*
X923577Y501724D01*
X923798Y501393D01*
X924129Y501171D01*
X924520Y501094D01*
X926480D01*
X926871Y501171D01*
X927202Y501393D01*
X927423Y501724D01*
X927501Y502114D01*
Y509587D01*
X927427Y509960D01*
X927928Y510461D01*
X928322Y510421D01*
X928534Y510052D01*
X928572Y509951D01*
X928499Y509587D01*
Y502114D01*
X928577Y501724D01*
X928798Y501393D01*
X928816Y501381D01*
X928821Y501330D01*
X928519Y500602D01*
Y499814D01*
X928821Y499086D01*
X929378Y498528D01*
X930106Y498227D01*
X930894D01*
X931622Y498528D01*
X932180Y499086D01*
X932481Y499814D01*
Y500602D01*
X932180Y501330D01*
X932185Y501381D01*
X932202Y501393D01*
X932423Y501724D01*
X932501Y502114D01*
Y509587D01*
X932423Y509977D01*
X932353Y510083D01*
X932620Y510583D01*
X963586D01*
X1072572Y401596D01*
Y351745D01*
X1070145D01*
Y344239D01*
X1077651D01*
Y351745D01*
X1075223D01*
Y402145D01*
X1075122Y402653D01*
X1074835Y403083D01*
X965072Y512845D01*
X964642Y513133D01*
X964135Y513234D01*
D02*
G37*
G36*
X1074392Y341745D02*
X1073404D01*
X1072449Y341489D01*
X1071593Y340995D01*
X1070895Y340297D01*
X1070401Y339441D01*
X1070145Y338486D01*
Y337498D01*
X1070401Y336544D01*
X1070895Y335688D01*
X1071593Y334989D01*
X1072449Y334495D01*
X1073404Y334240D01*
X1074392D01*
X1075346Y334495D01*
X1076202Y334989D01*
X1076901Y335688D01*
X1077395Y336544D01*
X1077651Y337498D01*
Y338486D01*
X1077395Y339441D01*
X1076901Y340297D01*
X1076202Y340995D01*
X1075346Y341489D01*
X1074392Y341745D01*
D02*
G37*
G36*
X906480Y473993D02*
X904520D01*
X904129Y473915D01*
X903798Y473694D01*
X903577Y473363D01*
X903499Y472972D01*
Y465500D01*
X903577Y465109D01*
X903798Y464779D01*
X904129Y464557D01*
X904175Y464548D01*
Y440500D01*
X904276Y439993D01*
X904563Y439563D01*
X956174Y387951D01*
Y330476D01*
X955820Y330122D01*
X955519Y329394D01*
Y328606D01*
X955820Y327878D01*
X956378Y327321D01*
X957106Y327019D01*
X957894D01*
X958622Y327321D01*
X959179Y327878D01*
X959481Y328606D01*
Y329394D01*
X959179Y330122D01*
X958825Y330476D01*
Y388500D01*
X958724Y389007D01*
X958437Y389437D01*
X906826Y441049D01*
Y464548D01*
X906871Y464557D01*
X907202Y464779D01*
X907423Y465109D01*
X907501Y465500D01*
Y472972D01*
X907423Y473363D01*
X907202Y473694D01*
X906871Y473915D01*
X906480Y473993D01*
D02*
G37*
G36*
X926480D02*
X924520D01*
X924129Y473915D01*
X923798Y473694D01*
X923577Y473363D01*
X923499Y472972D01*
Y465500D01*
X923577Y465109D01*
X923798Y464779D01*
X924129Y464557D01*
X924175Y464548D01*
Y441006D01*
X924276Y440499D01*
X924563Y440069D01*
X977573Y387058D01*
Y327101D01*
X977674Y326594D01*
X977962Y326164D01*
X1038274Y265851D01*
X1038479Y265715D01*
X1038680Y265574D01*
X1038693Y265571D01*
X1038704Y265564D01*
X1038946Y265516D01*
X1039186Y265463D01*
X1052495Y265204D01*
X1052878Y264821D01*
X1053606Y264519D01*
X1054394D01*
X1055122Y264821D01*
X1055679Y265378D01*
X1055981Y266106D01*
Y266894D01*
X1055679Y267622D01*
X1055122Y268179D01*
X1054394Y268481D01*
X1053606D01*
X1052878Y268179D01*
X1052552Y267854D01*
X1039771Y268103D01*
X980224Y327650D01*
Y387607D01*
X980123Y388115D01*
X979836Y388545D01*
X932780Y435600D01*
X932945Y436143D01*
X932969Y436148D01*
X986687Y382430D01*
Y378209D01*
X986687Y335590D01*
X986687Y335278D01*
X986687Y335278D01*
X986687Y335277D01*
X986708Y335165D01*
X986719Y335104D01*
X986719Y335103D01*
X986719Y335103D01*
X986837Y334514D01*
X987339Y333762D01*
X987348Y333771D01*
X987356Y333770D01*
X987786Y333483D01*
X987962Y333448D01*
X1033438Y287690D01*
X1033779Y287346D01*
X1033776Y287326D01*
X1033778Y287325D01*
X1034177Y287076D01*
X1034200Y287061D01*
X1034204Y287060D01*
X1034208Y287058D01*
X1034208Y287058D01*
X1034209Y287057D01*
X1034212Y287056D01*
X1034212Y287056D01*
X1034499Y286999D01*
X1034706Y286955D01*
X1034717Y286955D01*
X1034720Y286955D01*
X1034722Y286955D01*
X1060358Y286702D01*
X1060401Y286544D01*
X1060895Y285688D01*
X1061594Y284989D01*
X1062449Y284495D01*
X1063404Y284240D01*
X1064392D01*
X1065346Y284495D01*
X1066202Y284989D01*
X1066901Y285688D01*
X1067395Y286544D01*
X1067651Y287498D01*
Y288486D01*
X1067395Y289441D01*
X1066901Y290297D01*
X1066202Y290995D01*
X1065813Y291220D01*
X1065949Y291719D01*
X1068623Y291692D01*
X1068854Y291736D01*
X1069086Y291771D01*
X1069107Y291783D01*
X1069131Y291788D01*
X1069328Y291916D01*
X1069529Y292038D01*
X1072314Y294574D01*
X1072449Y294495D01*
X1073404Y294239D01*
X1074392D01*
X1075346Y294495D01*
X1076202Y294989D01*
X1076901Y295688D01*
X1077395Y296544D01*
X1077651Y297498D01*
Y298486D01*
X1077395Y299441D01*
X1076901Y300296D01*
X1076202Y300995D01*
X1075346Y301489D01*
X1074392Y301745D01*
X1073404D01*
X1072449Y301489D01*
X1071593Y300995D01*
X1070895Y300296D01*
X1070401Y299441D01*
X1070145Y298486D01*
Y297498D01*
X1070401Y296544D01*
X1070449Y296461D01*
X1068129Y294348D01*
X1066126Y294368D01*
X1065994Y294869D01*
X1066202Y294989D01*
X1066901Y295688D01*
X1067395Y296544D01*
X1067651Y297498D01*
Y298486D01*
X1067395Y299441D01*
X1066901Y300296D01*
X1066202Y300995D01*
X1065346Y301489D01*
X1064392Y301745D01*
X1063404D01*
X1062449Y301489D01*
X1061594Y300995D01*
X1060895Y300296D01*
X1060401Y299441D01*
X1060368Y299318D01*
X1047057D01*
X1023825Y322550D01*
X1007825Y338954D01*
X1007825Y361000D01*
X1007724Y361507D01*
X1007437Y361937D01*
X997981Y371393D01*
Y371894D01*
X997679Y372622D01*
X997122Y373180D01*
X996394Y373481D01*
X995606D01*
X994878Y373180D01*
X994320Y372622D01*
X994019Y371894D01*
Y371106D01*
X994320Y370378D01*
X994878Y369820D01*
X995606Y369519D01*
X996107D01*
X1005175Y360451D01*
X1005175Y338414D01*
X1005155Y338414D01*
X1005334Y337517D01*
X1005838Y336762D01*
X1005849Y336772D01*
X1005854Y336772D01*
X1006284Y336485D01*
X1006590Y336424D01*
X1021933Y320692D01*
X1021940Y320688D01*
X1021945Y320681D01*
X1045570Y297055D01*
X1046000Y296768D01*
X1046508Y296667D01*
X1060368D01*
X1060401Y296544D01*
X1060895Y295688D01*
X1061594Y294989D01*
X1061728Y294912D01*
X1061592Y294413D01*
X1039744Y294630D01*
X999825Y334549D01*
Y361024D01*
X1000179Y361378D01*
X1000481Y362106D01*
Y362894D01*
X1000179Y363622D01*
X999622Y364179D01*
X998894Y364481D01*
X998106D01*
X997378Y364179D01*
X996820Y363622D01*
X996519Y362894D01*
Y362106D01*
X996820Y361378D01*
X997174Y361024D01*
Y334000D01*
X997275Y333493D01*
X997563Y333063D01*
X1038252Y292373D01*
X1038463Y292232D01*
X1038670Y292091D01*
X1038677Y292090D01*
X1038682Y292086D01*
X1038931Y292036D01*
X1039176Y291985D01*
X1061916Y291759D01*
X1062048Y291257D01*
X1061594Y290995D01*
X1060895Y290297D01*
X1060401Y289441D01*
X1060377Y289353D01*
X1035276Y289601D01*
X989338Y335824D01*
X989338Y378209D01*
X989338Y382979D01*
X989237Y383486D01*
X988949Y383916D01*
X988949Y383916D01*
X934481Y438384D01*
Y438885D01*
X934179Y439613D01*
X933622Y440170D01*
X932894Y440472D01*
X932106D01*
X931378Y440170D01*
X930820Y439613D01*
X930519Y438885D01*
Y438569D01*
X930019Y438362D01*
X926826Y441555D01*
Y464548D01*
X926871Y464557D01*
X927202Y464779D01*
X927423Y465109D01*
X927501Y465500D01*
Y472972D01*
X927423Y473363D01*
X927202Y473694D01*
X926871Y473915D01*
X926480Y473993D01*
D02*
G37*
G36*
X867894Y540731D02*
X867106D01*
X866378Y540429D01*
X865820Y539872D01*
X865519Y539144D01*
Y538356D01*
X865820Y537628D01*
X866378Y537071D01*
X867106Y536769D01*
X867894D01*
X868622Y537071D01*
X868976Y537425D01*
X950701D01*
X1093174Y394951D01*
Y299144D01*
X1075457Y281426D01*
X1075346Y281489D01*
X1074392Y281745D01*
X1073404D01*
X1072449Y281489D01*
X1071593Y280995D01*
X1070895Y280296D01*
X1070401Y279441D01*
X1070145Y278486D01*
Y277498D01*
X1070401Y276544D01*
X1070895Y275688D01*
X1071593Y274989D01*
X1072449Y274495D01*
X1073404Y274239D01*
X1074392D01*
X1075346Y274495D01*
X1076202Y274989D01*
X1076901Y275688D01*
X1077395Y276544D01*
X1077651Y277498D01*
Y278486D01*
X1077395Y279441D01*
X1077331Y279551D01*
X1095437Y297657D01*
X1095724Y298087D01*
X1095825Y298595D01*
Y395500D01*
X1095724Y396007D01*
X1095437Y396437D01*
X952187Y539687D01*
X951757Y539975D01*
X951250Y540075D01*
X868976D01*
X868622Y540429D01*
X867894Y540731D01*
D02*
G37*
G36*
X921480Y473993D02*
X919520D01*
X919129Y473915D01*
X918798Y473694D01*
X918577Y473363D01*
X918499Y472972D01*
Y465500D01*
X918577Y465109D01*
X918798Y464779D01*
X919129Y464557D01*
X919175Y464548D01*
Y440500D01*
X919276Y439993D01*
X919563Y439563D01*
X972174Y386951D01*
Y323500D01*
X972275Y322993D01*
X972563Y322563D01*
X1042768Y252358D01*
X1043198Y252071D01*
X1043705Y251970D01*
X1054228D01*
X1054583Y251616D01*
X1055311Y251314D01*
X1056099D01*
X1056827Y251616D01*
X1057384Y252173D01*
X1057686Y252901D01*
Y253689D01*
X1057384Y254417D01*
X1056827Y254975D01*
X1056099Y255276D01*
X1055311D01*
X1054583Y254975D01*
X1054228Y254621D01*
X1044254D01*
X974825Y324049D01*
Y387500D01*
X974724Y388007D01*
X974437Y388437D01*
X921826Y441049D01*
Y464548D01*
X921871Y464557D01*
X922202Y464779D01*
X922423Y465109D01*
X922501Y465500D01*
Y472972D01*
X922423Y473363D01*
X922202Y473694D01*
X921871Y473915D01*
X921480Y473993D01*
D02*
G37*
G36*
X911480D02*
X909520D01*
X909129Y473915D01*
X908798Y473694D01*
X908577Y473363D01*
X908499Y472972D01*
Y465500D01*
X908577Y465109D01*
X908798Y464779D01*
X909129Y464557D01*
X909175Y464548D01*
Y440500D01*
X909276Y439993D01*
X909563Y439563D01*
X964195Y384931D01*
Y316608D01*
X964296Y316101D01*
X964583Y315671D01*
X1027639Y252615D01*
Y252114D01*
X1027941Y251386D01*
X1028498Y250829D01*
X1029226Y250527D01*
X1030014D01*
X1030742Y250829D01*
X1031300Y251386D01*
X1031601Y252114D01*
Y252902D01*
X1031300Y253630D01*
X1030742Y254187D01*
X1030014Y254489D01*
X1029513D01*
X966846Y317157D01*
Y385480D01*
X966745Y385987D01*
X966457Y386417D01*
X911826Y441049D01*
Y464548D01*
X911871Y464557D01*
X912202Y464779D01*
X912423Y465109D01*
X912501Y465500D01*
Y472972D01*
X912423Y473363D01*
X912202Y473694D01*
X911871Y473915D01*
X911480Y473993D01*
D02*
G37*
G36*
X916480D02*
X914520D01*
X914129Y473915D01*
X913798Y473694D01*
X913577Y473363D01*
X913499Y472972D01*
Y465500D01*
X913577Y465109D01*
X913798Y464779D01*
X914129Y464557D01*
X914175Y464548D01*
Y440000D01*
X914276Y439493D01*
X914563Y439063D01*
X968174Y385451D01*
Y318508D01*
X968275Y318001D01*
X968563Y317571D01*
X1034019Y252115D01*
Y251614D01*
X1034320Y250886D01*
X1034878Y250328D01*
X1035606Y250027D01*
X1036394D01*
X1037122Y250328D01*
X1037679Y250886D01*
X1037981Y251614D01*
Y252402D01*
X1037679Y253130D01*
X1037122Y253688D01*
X1036394Y253989D01*
X1035893D01*
X970825Y319057D01*
Y386000D01*
X970724Y386507D01*
X970437Y386937D01*
X916826Y440549D01*
Y464548D01*
X916871Y464557D01*
X917202Y464779D01*
X917423Y465109D01*
X917501Y465500D01*
Y472972D01*
X917423Y473363D01*
X917202Y473694D01*
X916871Y473915D01*
X916480Y473993D01*
D02*
G37*
G36*
X1123092Y224895D02*
X1122104D01*
X1121150Y224639D01*
X1120294Y224145D01*
X1119595Y223446D01*
X1119101Y222590D01*
X1118846Y221636D01*
Y220648D01*
X1119101Y219693D01*
X1119595Y218838D01*
X1120294Y218139D01*
X1121150Y217645D01*
X1122104Y217389D01*
X1123092D01*
X1124047Y217645D01*
X1124903Y218139D01*
X1125601Y218838D01*
X1126095Y219693D01*
X1126351Y220648D01*
Y221636D01*
X1126095Y222590D01*
X1125601Y223446D01*
X1124903Y224145D01*
X1124047Y224639D01*
X1123092Y224895D01*
D02*
G37*
G36*
X1113092D02*
X1112104D01*
X1111150Y224639D01*
X1110294Y224145D01*
X1109595Y223446D01*
X1109101Y222590D01*
X1108846Y221636D01*
Y220648D01*
X1109101Y219693D01*
X1109595Y218838D01*
X1110294Y218139D01*
X1111150Y217645D01*
X1112104Y217389D01*
X1113092D01*
X1114047Y217645D01*
X1114903Y218139D01*
X1115601Y218838D01*
X1116095Y219693D01*
X1116351Y220648D01*
Y221636D01*
X1116095Y222590D01*
X1115601Y223446D01*
X1114903Y224145D01*
X1114047Y224639D01*
X1113092Y224895D01*
D02*
G37*
G36*
X1063092D02*
X1062104D01*
X1061150Y224639D01*
X1060294Y224145D01*
X1059595Y223446D01*
X1059101Y222590D01*
X1058846Y221636D01*
Y220648D01*
X1059101Y219693D01*
X1059595Y218838D01*
X1060294Y218139D01*
X1061150Y217645D01*
X1062104Y217389D01*
X1063092D01*
X1064047Y217645D01*
X1064903Y218139D01*
X1065601Y218838D01*
X1066095Y219693D01*
X1066351Y220648D01*
Y221636D01*
X1066095Y222590D01*
X1065601Y223446D01*
X1064903Y224145D01*
X1064047Y224639D01*
X1063092Y224895D01*
D02*
G37*
G36*
X1053092D02*
X1052104D01*
X1051150Y224639D01*
X1050294Y224145D01*
X1049595Y223446D01*
X1049101Y222590D01*
X1048846Y221636D01*
Y220648D01*
X1049101Y219693D01*
X1049595Y218838D01*
X1050294Y218139D01*
X1051150Y217645D01*
X1052104Y217389D01*
X1053092D01*
X1054047Y217645D01*
X1054903Y218139D01*
X1055601Y218838D01*
X1056095Y219693D01*
X1056351Y220648D01*
Y221636D01*
X1056095Y222590D01*
X1055601Y223446D01*
X1054903Y224145D01*
X1054047Y224639D01*
X1053092Y224895D01*
D02*
G37*
G36*
X1043092D02*
X1042104D01*
X1041150Y224639D01*
X1040294Y224145D01*
X1039595Y223446D01*
X1039101Y222590D01*
X1038846Y221636D01*
Y220648D01*
X1039101Y219693D01*
X1039595Y218838D01*
X1040294Y218139D01*
X1041150Y217645D01*
X1042104Y217389D01*
X1043092D01*
X1044047Y217645D01*
X1044903Y218139D01*
X1045601Y218838D01*
X1046095Y219693D01*
X1046351Y220648D01*
Y221636D01*
X1046095Y222590D01*
X1045601Y223446D01*
X1044903Y224145D01*
X1044047Y224639D01*
X1043092Y224895D01*
D02*
G37*
G36*
X926480Y345186D02*
X924520D01*
X924129Y345108D01*
X923798Y344887D01*
X923577Y344556D01*
X923499Y344165D01*
Y336693D01*
X923577Y336302D01*
X923798Y335971D01*
X924129Y335750D01*
X924175Y335741D01*
Y328240D01*
X924276Y327733D01*
X924563Y327303D01*
X1029165Y222701D01*
X1029101Y222590D01*
X1028846Y221636D01*
Y220648D01*
X1029101Y219693D01*
X1029595Y218838D01*
X1030294Y218139D01*
X1031150Y217645D01*
X1032104Y217389D01*
X1033092D01*
X1034047Y217645D01*
X1034903Y218139D01*
X1035601Y218838D01*
X1036095Y219693D01*
X1036351Y220648D01*
Y221636D01*
X1036095Y222590D01*
X1035601Y223446D01*
X1034903Y224145D01*
X1034047Y224639D01*
X1033092Y224895D01*
X1032104D01*
X1031150Y224639D01*
X1031040Y224575D01*
X926826Y328789D01*
Y335741D01*
X926871Y335750D01*
X927202Y335971D01*
X927423Y336302D01*
X927501Y336693D01*
Y344165D01*
X927423Y344556D01*
X927202Y344887D01*
X926871Y345108D01*
X926480Y345186D01*
D02*
G37*
G36*
X792480Y345186D02*
X790520D01*
X790129Y345108D01*
X789798Y344887D01*
X789577Y344556D01*
X789499Y344165D01*
Y336693D01*
X789577Y336302D01*
X789798Y335971D01*
X790129Y335750D01*
X790175Y335741D01*
Y295528D01*
X790276Y295021D01*
X790563Y294591D01*
X872439Y212715D01*
Y212214D01*
X872741Y211486D01*
X873298Y210929D01*
X874026Y210627D01*
X874814D01*
X875542Y210929D01*
X876100Y211486D01*
X876401Y212214D01*
Y213002D01*
X876100Y213730D01*
X875542Y214287D01*
X874814Y214589D01*
X874314D01*
X792826Y296077D01*
Y335741D01*
X792871Y335750D01*
X793202Y335971D01*
X793423Y336302D01*
X793501Y336693D01*
Y344165D01*
X793423Y344556D01*
X793202Y344887D01*
X792871Y345108D01*
X792480Y345186D01*
D02*
G37*
G36*
X1073092Y214895D02*
X1072104D01*
X1071150Y214639D01*
X1070294Y214145D01*
X1069595Y213446D01*
X1069101Y212591D01*
X1069054Y212415D01*
X1068813Y212367D01*
X1068383Y212079D01*
X1066780Y210476D01*
X1066351Y210755D01*
Y211636D01*
X1066095Y212591D01*
X1065601Y213446D01*
X1064903Y214145D01*
X1064047Y214639D01*
X1063092Y214895D01*
X1062104D01*
X1061150Y214639D01*
X1060294Y214145D01*
X1059595Y213446D01*
X1059101Y212591D01*
X1058846Y211636D01*
Y210648D01*
X1059101Y209694D01*
X1059595Y208838D01*
X1060294Y208139D01*
X1061150Y207645D01*
X1062104Y207389D01*
X1062986D01*
X1063264Y206960D01*
X1056769Y200466D01*
X1056098Y200187D01*
X1055541Y199630D01*
X1055239Y198902D01*
Y198114D01*
X1055541Y197386D01*
X1056098Y196828D01*
X1056826Y196527D01*
X1057614D01*
X1058342Y196828D01*
X1058900Y197386D01*
X1059201Y198114D01*
Y198902D01*
X1059129Y199076D01*
X1069047Y208994D01*
X1069543Y208929D01*
X1069595Y208838D01*
X1070294Y208139D01*
X1071150Y207645D01*
X1072104Y207389D01*
X1073092D01*
X1074047Y207645D01*
X1074903Y208139D01*
X1075601Y208838D01*
X1076095Y209694D01*
X1076351Y210648D01*
Y211636D01*
X1076095Y212591D01*
X1075601Y213446D01*
X1074903Y214145D01*
X1074047Y214639D01*
X1073092Y214895D01*
D02*
G37*
G36*
X1083092D02*
X1082104D01*
X1081150Y214639D01*
X1080294Y214145D01*
X1079595Y213446D01*
X1079101Y212591D01*
X1078846Y211636D01*
Y210648D01*
X1079101Y209694D01*
X1079165Y209583D01*
X1065107Y195526D01*
X953276D01*
X952922Y195879D01*
X952194Y196181D01*
X951406D01*
X950678Y195879D01*
X950120Y195322D01*
X949819Y194594D01*
Y193806D01*
X950120Y193078D01*
X950678Y192520D01*
X951406Y192219D01*
X952194D01*
X952922Y192520D01*
X953276Y192875D01*
X1065656D01*
X1066164Y192975D01*
X1066594Y193263D01*
X1081040Y207709D01*
X1081150Y207645D01*
X1082104Y207389D01*
X1083092D01*
X1084047Y207645D01*
X1084903Y208139D01*
X1085601Y208838D01*
X1086095Y209694D01*
X1086351Y210648D01*
Y211636D01*
X1086095Y212591D01*
X1085601Y213446D01*
X1084903Y214145D01*
X1084047Y214639D01*
X1083092Y214895D01*
D02*
G37*
G36*
X1043092D02*
X1042104D01*
X1041150Y214639D01*
X1040294Y214145D01*
X1039595Y213446D01*
X1039101Y212591D01*
X1038846Y211636D01*
Y210648D01*
X1039101Y209694D01*
X1039595Y208838D01*
X1040294Y208139D01*
X1041150Y207645D01*
X1042104Y207389D01*
X1043092D01*
X1044047Y207645D01*
X1044903Y208139D01*
X1045601Y208838D01*
X1046095Y209694D01*
X1046351Y210648D01*
Y211636D01*
X1046095Y212591D01*
X1045601Y213446D01*
X1044903Y214145D01*
X1044047Y214639D01*
X1043092Y214895D01*
D02*
G37*
G36*
X1033092D02*
X1032104D01*
X1031150Y214639D01*
X1030294Y214145D01*
X1029595Y213446D01*
X1029101Y212591D01*
X1028846Y211636D01*
Y210648D01*
X1029101Y209694D01*
X1029595Y208838D01*
X1030294Y208139D01*
X1031150Y207645D01*
X1032104Y207389D01*
X1033092D01*
X1034047Y207645D01*
X1034903Y208139D01*
X1035601Y208838D01*
X1036095Y209694D01*
X1036351Y210648D01*
Y211636D01*
X1036095Y212591D01*
X1035601Y213446D01*
X1034903Y214145D01*
X1034047Y214639D01*
X1033092Y214895D01*
D02*
G37*
G36*
X1023092D02*
X1022104D01*
X1021150Y214639D01*
X1020294Y214145D01*
X1019595Y213446D01*
X1019101Y212591D01*
X1018846Y211636D01*
Y210648D01*
X1019101Y209694D01*
X1019595Y208838D01*
X1020294Y208139D01*
X1021150Y207645D01*
X1022104Y207389D01*
X1023092D01*
X1024047Y207645D01*
X1024903Y208139D01*
X1025601Y208838D01*
X1026095Y209694D01*
X1026351Y210648D01*
Y211636D01*
X1026095Y212591D01*
X1025601Y213446D01*
X1024903Y214145D01*
X1024047Y214639D01*
X1023092Y214895D01*
D02*
G37*
G36*
X1013092D02*
X1012104D01*
X1011150Y214639D01*
X1010294Y214145D01*
X1009595Y213446D01*
X1009101Y212591D01*
X1008846Y211636D01*
Y210648D01*
X1009101Y209694D01*
X1009595Y208838D01*
X1010294Y208139D01*
X1011150Y207645D01*
X1012104Y207389D01*
X1013092D01*
X1014047Y207645D01*
X1014903Y208139D01*
X1015601Y208838D01*
X1016095Y209694D01*
X1016351Y210648D01*
Y211636D01*
X1016095Y212591D01*
X1015601Y213446D01*
X1014903Y214145D01*
X1014047Y214639D01*
X1013092Y214895D01*
D02*
G37*
G36*
X993092D02*
X992104D01*
X991150Y214639D01*
X990294Y214145D01*
X989595Y213446D01*
X989101Y212591D01*
X988846Y211636D01*
Y210648D01*
X989101Y209694D01*
X989595Y208838D01*
X990294Y208139D01*
X991150Y207645D01*
X992104Y207389D01*
X993092D01*
X994047Y207645D01*
X994903Y208139D01*
X995601Y208838D01*
X996095Y209694D01*
X996351Y210648D01*
Y211636D01*
X996095Y212591D01*
X995601Y213446D01*
X994903Y214145D01*
X994047Y214639D01*
X993092Y214895D01*
D02*
G37*
G36*
X676394Y384481D02*
X675606D01*
X674878Y384179D01*
X674320Y383622D01*
X674019Y382894D01*
Y382393D01*
X597107Y305481D01*
X596606D01*
X595878Y305180D01*
X595320Y304622D01*
X595019Y303894D01*
Y303106D01*
X595320Y302378D01*
X595878Y301820D01*
X596606Y301519D01*
X597394D01*
X598122Y301820D01*
X598679Y302378D01*
X598981Y303106D01*
Y303607D01*
X675893Y380519D01*
X676394D01*
X677122Y380820D01*
X677679Y381378D01*
X677981Y382106D01*
Y382894D01*
X677679Y383622D01*
X677122Y384179D01*
X676394Y384481D01*
D02*
G37*
G36*
X727894Y513481D02*
X727106D01*
X726378Y513179D01*
X725820Y512622D01*
X725519Y511894D01*
Y511106D01*
X725820Y510378D01*
X726174Y510024D01*
Y489683D01*
X726275Y489176D01*
X726563Y488745D01*
X727656Y487653D01*
Y253530D01*
X694483Y220357D01*
X694196Y219927D01*
X694095Y219420D01*
Y164684D01*
X693741Y164330D01*
X693439Y163602D01*
Y162814D01*
X693741Y162086D01*
X694298Y161529D01*
X695026Y161227D01*
X695814D01*
X696542Y161529D01*
X697100Y162086D01*
X697401Y162814D01*
Y163602D01*
X697100Y164330D01*
X696746Y164684D01*
Y218871D01*
X729918Y252044D01*
X730206Y252474D01*
X730307Y252981D01*
Y488202D01*
X730206Y488709D01*
X729918Y489139D01*
X728826Y490232D01*
Y510024D01*
X729179Y510378D01*
X729481Y511106D01*
Y511894D01*
X729179Y512622D01*
X728622Y513179D01*
X727894Y513481D01*
D02*
G37*
G36*
X895894Y402189D02*
X895106D01*
X894378Y401888D01*
X893821Y401330D01*
X893519Y400602D01*
Y399814D01*
X893821Y399086D01*
X894175Y398732D01*
Y381731D01*
X894129Y381722D01*
X893798Y381501D01*
X893577Y381170D01*
X893499Y380779D01*
Y373307D01*
X893577Y372917D01*
X893798Y372586D01*
X894129Y372364D01*
X894520Y372287D01*
X896480D01*
X896871Y372364D01*
X897202Y372586D01*
X897423Y372917D01*
X897501Y373307D01*
Y380779D01*
X897423Y381170D01*
X897202Y381501D01*
X896871Y381722D01*
X896826Y381731D01*
Y398732D01*
X897180Y399086D01*
X897481Y399814D01*
Y400602D01*
X897180Y401330D01*
X896622Y401888D01*
X895894Y402189D01*
D02*
G37*
G36*
X508403Y556681D02*
X506952D01*
X505550Y556305D01*
X504293Y555579D01*
X503267Y554553D01*
X502541Y553296D01*
X502165Y551895D01*
Y550443D01*
X502541Y549041D01*
X503267Y547785D01*
X504293Y546758D01*
X505550Y546033D01*
X506952Y545657D01*
X508403D01*
X509805Y546033D01*
X511061Y546758D01*
X512088Y547785D01*
X512813Y549041D01*
X513189Y550443D01*
Y551895D01*
X512813Y553296D01*
X512088Y554553D01*
X511061Y555579D01*
X509805Y556305D01*
X508403Y556681D01*
D02*
G37*
G36*
X343394Y551481D02*
X342606D01*
X341878Y551180D01*
X341320Y550622D01*
X341019Y549894D01*
Y549106D01*
X341320Y548378D01*
X341878Y547821D01*
X342606Y547519D01*
X343394D01*
X344122Y547821D01*
X344476Y548174D01*
X395451D01*
X402519Y541107D01*
Y540606D01*
X402820Y539878D01*
X403378Y539321D01*
X404106Y539019D01*
X404894D01*
X405622Y539321D01*
X406180Y539878D01*
X406481Y540606D01*
Y541394D01*
X406180Y542122D01*
X405622Y542680D01*
X404894Y542981D01*
X404393D01*
X396937Y550437D01*
X396507Y550725D01*
X396000Y550826D01*
X344476D01*
X344122Y551180D01*
X343394Y551481D01*
D02*
G37*
G36*
X303475Y531260D02*
X302698D01*
X301947Y531059D01*
X301274Y530670D01*
X300724Y530120D01*
X300335Y529447D01*
X300134Y528696D01*
Y527918D01*
X300335Y527167D01*
X300724Y526494D01*
X301274Y525944D01*
X301947Y525556D01*
X302698Y525354D01*
X303475D01*
X304226Y525556D01*
X304900Y525944D01*
X305449Y526494D01*
X305838Y527167D01*
X306039Y527918D01*
Y528696D01*
X305838Y529447D01*
X305449Y530120D01*
X304900Y530670D01*
X304226Y531059D01*
X303475Y531260D01*
D02*
G37*
G36*
X233397D02*
X232619D01*
X231868Y531059D01*
X231195Y530670D01*
X230645Y530120D01*
X230256Y529447D01*
X230055Y528696D01*
Y527918D01*
X230256Y527167D01*
X230645Y526494D01*
X231195Y525944D01*
X231868Y525556D01*
X232619Y525354D01*
X233397D01*
X234148Y525556D01*
X234821Y525944D01*
X235371Y526494D01*
X235759Y527167D01*
X235961Y527918D01*
Y528696D01*
X235759Y529447D01*
X235371Y530120D01*
X234821Y530670D01*
X234148Y531059D01*
X233397Y531260D01*
D02*
G37*
G36*
X658394Y509981D02*
X657606D01*
X656878Y509680D01*
X656524Y509326D01*
X625976D01*
X625622Y509680D01*
X624894Y509981D01*
X624106D01*
X623378Y509680D01*
X622821Y509122D01*
X622519Y508394D01*
Y507606D01*
X622821Y506878D01*
X623378Y506320D01*
X624106Y506019D01*
X624894D01*
X625622Y506320D01*
X625976Y506674D01*
X656524D01*
X656878Y506320D01*
X657606Y506019D01*
X658394D01*
X659122Y506320D01*
X659680Y506878D01*
X659981Y507606D01*
Y508394D01*
X659680Y509122D01*
X659122Y509680D01*
X658394Y509981D01*
D02*
G37*
G36*
X708904Y504491D02*
X708116D01*
X707388Y504190D01*
X706831Y503632D01*
X706529Y502904D01*
Y502404D01*
X671951Y467826D01*
X670476D01*
X670122Y468180D01*
X669394Y468481D01*
X668606D01*
X667878Y468180D01*
X667320Y467622D01*
X667019Y466894D01*
Y466106D01*
X667320Y465378D01*
X667878Y464820D01*
X668606Y464519D01*
X669394D01*
X670122Y464820D01*
X670476Y465174D01*
X672500D01*
X673007Y465275D01*
X673437Y465563D01*
X708403Y500529D01*
X708904D01*
X709632Y500831D01*
X710190Y501388D01*
X710491Y502116D01*
Y502904D01*
X710190Y503632D01*
X709632Y504190D01*
X708904Y504491D01*
D02*
G37*
G36*
X69623Y432887D02*
X68172D01*
X66770Y432511D01*
X65513Y431786D01*
X64487Y430759D01*
X63762Y429502D01*
X63386Y428101D01*
Y426649D01*
X63762Y425247D01*
X64487Y423991D01*
X65513Y422964D01*
X66770Y422239D01*
X68172Y421863D01*
X69623D01*
X71025Y422239D01*
X72282Y422964D01*
X73308Y423991D01*
X74034Y425247D01*
X74410Y426649D01*
Y428101D01*
X74034Y429502D01*
X73308Y430759D01*
X72282Y431786D01*
X71025Y432511D01*
X69623Y432887D01*
D02*
G37*
G36*
X191824Y351745D02*
X184318D01*
Y344239D01*
X191824D01*
Y351745D01*
D02*
G37*
G36*
X188565Y341745D02*
X187577D01*
X186622Y341489D01*
X185767Y340995D01*
X185068Y340297D01*
X184574Y339441D01*
X184318Y338486D01*
Y337498D01*
X184574Y336544D01*
X185068Y335688D01*
X185767Y334989D01*
X186622Y334495D01*
X187577Y334240D01*
X188565D01*
X189519Y334495D01*
X190375Y334989D01*
X191074Y335688D01*
X191568Y336544D01*
X191824Y337498D01*
Y338486D01*
X191568Y339441D01*
X191074Y340297D01*
X190375Y340995D01*
X189519Y341489D01*
X188565Y341745D01*
D02*
G37*
G36*
Y331745D02*
X187577D01*
X186622Y331489D01*
X185767Y330995D01*
X185068Y330296D01*
X184574Y329441D01*
X184318Y328486D01*
Y327498D01*
X184574Y326544D01*
X185068Y325688D01*
X185767Y324989D01*
X186622Y324495D01*
X187577Y324239D01*
X188565D01*
X189519Y324495D01*
X190375Y324989D01*
X191074Y325688D01*
X191568Y326544D01*
X191824Y327498D01*
Y328486D01*
X191568Y329441D01*
X191074Y330296D01*
X190375Y330995D01*
X189519Y331489D01*
X188565Y331745D01*
D02*
G37*
G36*
Y321745D02*
X187577D01*
X186622Y321489D01*
X185767Y320995D01*
X185068Y320297D01*
X184574Y319441D01*
X184318Y318486D01*
Y317498D01*
X184574Y316544D01*
X185068Y315688D01*
X185767Y314989D01*
X186622Y314495D01*
X187577Y314240D01*
X188565D01*
X189519Y314495D01*
X190375Y314989D01*
X191074Y315688D01*
X191568Y316544D01*
X191824Y317498D01*
Y318486D01*
X191568Y319441D01*
X191074Y320297D01*
X190375Y320995D01*
X189519Y321489D01*
X188565Y321745D01*
D02*
G37*
G36*
X551181Y404359D02*
X457677D01*
X457365Y404297D01*
X457100Y404120D01*
X456924Y403856D01*
X456861Y403544D01*
Y310039D01*
X456924Y309727D01*
X457100Y309463D01*
X457365Y309286D01*
X457677Y309224D01*
X551181D01*
X551493Y309286D01*
X551758Y309463D01*
X551935Y309727D01*
X551997Y310039D01*
Y403544D01*
X551935Y403856D01*
X551758Y404120D01*
X551493Y404297D01*
X551181Y404359D01*
D02*
G37*
G36*
X188565Y311745D02*
X187577D01*
X186622Y311489D01*
X185767Y310995D01*
X185068Y310297D01*
X184574Y309441D01*
X184318Y308486D01*
Y307498D01*
X184574Y306544D01*
X185068Y305688D01*
X185767Y304989D01*
X186622Y304495D01*
X187577Y304240D01*
X188565D01*
X189519Y304495D01*
X190375Y304989D01*
X191074Y305688D01*
X191568Y306544D01*
X191824Y307498D01*
Y308486D01*
X191568Y309441D01*
X191074Y310297D01*
X190375Y310995D01*
X189519Y311489D01*
X188565Y311745D01*
D02*
G37*
G36*
Y301745D02*
X187577D01*
X186622Y301489D01*
X185767Y300995D01*
X185068Y300296D01*
X184574Y299441D01*
X184318Y298486D01*
Y297498D01*
X184574Y296544D01*
X185068Y295688D01*
X185767Y294989D01*
X186622Y294495D01*
X187577Y294239D01*
X188565D01*
X189519Y294495D01*
X190375Y294989D01*
X191074Y295688D01*
X191568Y296544D01*
X191824Y297498D01*
Y298486D01*
X191568Y299441D01*
X191074Y300296D01*
X190375Y300995D01*
X189519Y301489D01*
X188565Y301745D01*
D02*
G37*
G36*
Y291745D02*
X187577D01*
X186622Y291489D01*
X185767Y290995D01*
X185068Y290297D01*
X184574Y289441D01*
X184318Y288486D01*
Y287498D01*
X184574Y286544D01*
X185068Y285688D01*
X185767Y284989D01*
X186622Y284495D01*
X187577Y284240D01*
X188565D01*
X189519Y284495D01*
X190375Y284989D01*
X191074Y285688D01*
X191568Y286544D01*
X191824Y287498D01*
Y288486D01*
X191568Y289441D01*
X191074Y290297D01*
X190375Y290995D01*
X189519Y291489D01*
X188565Y291745D01*
D02*
G37*
G36*
Y281745D02*
X187577D01*
X186622Y281489D01*
X185767Y280995D01*
X185068Y280296D01*
X184574Y279441D01*
X184318Y278486D01*
Y277498D01*
X184574Y276544D01*
X185068Y275688D01*
X185767Y274989D01*
X186622Y274495D01*
X187577Y274239D01*
X188565D01*
X189519Y274495D01*
X190375Y274989D01*
X191074Y275688D01*
X191568Y276544D01*
X191824Y277498D01*
Y278486D01*
X191568Y279441D01*
X191074Y280296D01*
X190375Y280995D01*
X189519Y281489D01*
X188565Y281745D01*
D02*
G37*
G36*
X69623Y198241D02*
X68172D01*
X66770Y197865D01*
X65513Y197140D01*
X64487Y196114D01*
X63762Y194857D01*
X63386Y193455D01*
Y192004D01*
X63762Y190602D01*
X64487Y189345D01*
X65513Y188319D01*
X66770Y187593D01*
X68172Y187217D01*
X69623D01*
X71025Y187593D01*
X72282Y188319D01*
X73308Y189345D01*
X74034Y190602D01*
X74410Y192004D01*
Y193455D01*
X74034Y194857D01*
X73308Y196114D01*
X72282Y197140D01*
X71025Y197865D01*
X69623Y198241D01*
D02*
G37*
G36*
X525394Y189981D02*
X524606D01*
X523878Y189680D01*
X523320Y189122D01*
X523019Y188394D01*
Y187606D01*
X523320Y186878D01*
X523878Y186320D01*
X524606Y186019D01*
X525107D01*
X572558Y138567D01*
X572352Y138092D01*
X571876Y137997D01*
X527437Y182437D01*
X527007Y182725D01*
X526499Y182826D01*
X514976D01*
X514622Y183179D01*
X513894Y183481D01*
X513106D01*
X512378Y183179D01*
X511821Y182622D01*
X511519Y181894D01*
Y181106D01*
X511821Y180378D01*
X512378Y179821D01*
X513106Y179519D01*
X513894D01*
X514622Y179821D01*
X514976Y180175D01*
X525950D01*
X572289Y133836D01*
X572289Y133836D01*
X582675Y123450D01*
Y118476D01*
X582320Y118122D01*
X582019Y117394D01*
Y116606D01*
X582320Y115878D01*
X582878Y115321D01*
X583606Y115019D01*
X584394D01*
X585122Y115321D01*
X585679Y115878D01*
X585981Y116606D01*
Y117394D01*
X585679Y118122D01*
X585325Y118476D01*
Y123999D01*
X585225Y124507D01*
X584937Y124937D01*
X574997Y134876D01*
X575115Y135466D01*
X575376Y135575D01*
X575934Y136132D01*
X576235Y136860D01*
Y137648D01*
X575934Y138376D01*
X575376Y138934D01*
X575319Y138957D01*
Y139007D01*
X575218Y139514D01*
X574931Y139944D01*
X526981Y187893D01*
Y188394D01*
X526680Y189122D01*
X526122Y189680D01*
X525394Y189981D01*
D02*
G37*
G36*
X130068Y221753D02*
X124531D01*
Y214247D01*
X125974D01*
Y203753D01*
X124531D01*
Y196247D01*
X125974D01*
Y189201D01*
X126075Y188694D01*
X126362Y188264D01*
X137195Y177431D01*
Y117384D01*
X136841Y117030D01*
X136539Y116302D01*
Y115514D01*
X136841Y114786D01*
X137398Y114228D01*
X138126Y113927D01*
X138914D01*
X139642Y114228D01*
X140200Y114786D01*
X140501Y115514D01*
Y116302D01*
X140200Y117030D01*
X139846Y117384D01*
Y177980D01*
X139745Y178487D01*
X139457Y178917D01*
X128625Y189750D01*
Y196247D01*
X130068D01*
Y203753D01*
X128625D01*
Y214247D01*
X130068D01*
Y221753D01*
D02*
G37*
G36*
X618394Y193306D02*
X617606D01*
X616878Y193005D01*
X616320Y192447D01*
X616019Y191719D01*
Y190931D01*
X616320Y190203D01*
X616878Y189646D01*
X617606Y189344D01*
X618394D01*
X619122Y189646D01*
X619476Y190000D01*
X642126D01*
X684675Y147451D01*
Y113476D01*
X684320Y113122D01*
X684019Y112394D01*
Y111606D01*
X684320Y110878D01*
X684878Y110320D01*
X685606Y110019D01*
X686394D01*
X687122Y110320D01*
X687679Y110878D01*
X687981Y111606D01*
Y112394D01*
X687679Y113122D01*
X687325Y113476D01*
Y148000D01*
X687224Y148507D01*
X686937Y148937D01*
X643612Y192262D01*
X643182Y192550D01*
X642675Y192650D01*
X619476D01*
X619122Y193005D01*
X618394Y193306D01*
D02*
G37*
G36*
X508403Y74410D02*
X506952D01*
X505550Y74034D01*
X504293Y73308D01*
X503267Y72282D01*
X502541Y71025D01*
X502165Y69624D01*
Y68172D01*
X502541Y66770D01*
X503267Y65513D01*
X504293Y64487D01*
X505550Y63762D01*
X506952Y63386D01*
X508403D01*
X509805Y63762D01*
X511061Y64487D01*
X512088Y65513D01*
X512813Y66770D01*
X513189Y68172D01*
Y69624D01*
X512813Y71025D01*
X512088Y72282D01*
X511061Y73308D01*
X509805Y74034D01*
X508403Y74410D01*
D02*
G37*
G36*
X838937Y139122D02*
X838356Y139006D01*
X837953Y138737D01*
X837549Y139006D01*
X836969Y139122D01*
X836388Y139006D01*
X835895Y138677D01*
X835566Y138185D01*
X835450Y137604D01*
Y132854D01*
X835548Y132362D01*
X833020Y129833D01*
X827896D01*
X827542Y130187D01*
X826814Y130489D01*
X826026D01*
X825298Y130187D01*
X824741Y129630D01*
X824439Y128902D01*
Y128114D01*
X824741Y127386D01*
X825298Y126829D01*
X826026Y126527D01*
X826814D01*
X827542Y126829D01*
X827896Y127183D01*
X833568D01*
X834076Y127284D01*
X834506Y127571D01*
X837150Y130215D01*
X837611Y130023D01*
Y123986D01*
X837288Y123662D01*
X836787D01*
X836059Y123361D01*
X835502Y122803D01*
X835200Y122075D01*
Y121287D01*
X835502Y120559D01*
X836059Y120002D01*
X836787Y119700D01*
X837575D01*
X838303Y120002D01*
X838861Y120559D01*
X839162Y121287D01*
Y121788D01*
X839874Y122500D01*
X840162Y122930D01*
X840262Y123437D01*
Y132157D01*
X840339Y132273D01*
X840455Y132854D01*
Y137604D01*
X840339Y138185D01*
X840010Y138677D01*
X839518Y139006D01*
X838937Y139122D01*
D02*
G37*
G36*
X833031D02*
X832451Y139006D01*
X831958Y138677D01*
X831629Y138185D01*
X831513Y137604D01*
Y132854D01*
X831629Y132273D01*
X831958Y131780D01*
X832451Y131451D01*
X833031Y131336D01*
X833613Y131451D01*
X834105Y131780D01*
X834434Y132273D01*
X834550Y132854D01*
Y137604D01*
X834434Y138185D01*
X834105Y138677D01*
X833613Y139006D01*
X833031Y139122D01*
D02*
G37*
G36*
X809394Y240481D02*
X808606D01*
X807878Y240179D01*
X807320Y239622D01*
X807019Y238894D01*
Y238106D01*
X807320Y237378D01*
X807675Y237024D01*
Y218737D01*
X783083Y194145D01*
X782796Y193715D01*
X782695Y193208D01*
Y89684D01*
X782341Y89330D01*
X782039Y88602D01*
Y87814D01*
X782341Y87086D01*
X782898Y86528D01*
X783626Y86227D01*
X784414D01*
X785142Y86528D01*
X785700Y87086D01*
X786001Y87814D01*
Y88602D01*
X785700Y89330D01*
X785346Y89684D01*
Y192659D01*
X809937Y217251D01*
X810225Y217681D01*
X810326Y218188D01*
Y237024D01*
X810680Y237378D01*
X810981Y238106D01*
Y238894D01*
X810680Y239622D01*
X810122Y240179D01*
X809394Y240481D01*
D02*
G37*
%LPD*%
D14*
X1073276Y297243D02*
G03*
X1073869Y298009I-2719J2718D01*
G01*
X1006500Y338414D02*
G03*
X1006791Y337709I1000J0D01*
G01*
X903712Y479288D02*
G03*
X904407Y479000I702J712D01*
G01*
X895500Y487908D02*
G03*
X895789Y487211I1000J6D01*
G01*
X988012Y335278D02*
G03*
X988012Y335277I991J133D01*
G01*
X1034719Y288281D02*
G03*
X1034720Y288280I703J711D01*
G01*
X988012Y335277D02*
G03*
X988293Y334707I991J134D01*
G01*
X900500Y487414D02*
G03*
X900791Y486709I1000J0D01*
G01*
X902709Y484791D02*
G03*
X903414Y484500I705J709D01*
G01*
X1065952Y331952D02*
G03*
X1065245Y332245I-707J-707D01*
G01*
X396000Y549500D02*
X404500Y541000D01*
X343000Y549500D02*
X396000D01*
X97000Y259500D02*
X521500D01*
X84560Y247060D02*
X97000Y259500D01*
X521500D02*
X544500Y282500D01*
X526499Y181500D02*
X573226Y134773D01*
X573226D02*
X584000Y123999D01*
X513500Y181500D02*
X526499D01*
X573226Y134773D02*
X573226D01*
X525000Y188000D02*
X573993Y139007D01*
Y137515D02*
Y139007D01*
X584000Y117000D02*
Y123999D01*
X573993Y137515D02*
X574254Y137254D01*
X599000Y98000D02*
Y130000D01*
X576481Y152519D02*
X599000Y130000D01*
X576481Y152519D02*
Y174019D01*
X535692Y214808D02*
X576481Y174019D01*
X451720Y214808D02*
X535692D01*
X522508Y251508D02*
X578020Y307020D01*
X99705Y251508D02*
X522508D01*
X120500Y227500D02*
X615545D01*
X114701Y233299D02*
Y238000D01*
Y233299D02*
X120500Y227500D01*
X114701Y230408D02*
Y233299D01*
X114701Y218000D02*
Y230408D01*
X986500Y240500D02*
X996857Y230143D01*
Y216883D02*
Y230143D01*
X975500Y240500D02*
X986500D01*
X900500Y315500D02*
X975500Y240500D01*
X669000Y466500D02*
X672500D01*
X708510Y502510D01*
X608000Y494500D02*
X644500D01*
X565945Y536555D02*
Y548413D01*
Y536555D02*
X608000Y494500D01*
X624500Y508000D02*
X658000D01*
X578020Y307020D02*
Y398520D01*
X588800Y305800D02*
Y360437D01*
X530000Y247000D02*
X588800Y305800D01*
X102000Y247000D02*
X530000D01*
X770819Y337878D02*
X771500Y338559D01*
Y340429D01*
X763179Y337878D02*
X770819D01*
X1048219Y328281D02*
X1063898Y327992D01*
X597000Y303500D02*
X676000Y382500D01*
X750520Y496308D02*
X752920Y498708D01*
X750520Y239408D02*
Y496308D01*
X791500Y497500D02*
X796500Y492500D01*
X809000Y218188D02*
Y238500D01*
X784020Y193208D02*
X809000Y218188D01*
X916000Y353500D02*
Y353528D01*
X905500Y364028D02*
X916000Y353528D01*
X894320Y346508D02*
X918720D01*
X925500Y353288D01*
Y367000D01*
X892920Y345108D02*
X894320Y346508D01*
X750020Y165408D02*
X752520Y167908D01*
X756820D01*
X747039Y165408D02*
X750020D01*
X873520Y99408D02*
X889320Y115208D01*
X841348Y66136D02*
Y76936D01*
X863820Y99408D01*
X873520D01*
X837320Y62108D02*
X841348Y66136D01*
X746320Y163073D02*
X757000D01*
X746339Y166108D02*
X747039Y165408D01*
X744000Y165393D02*
X746320Y163073D01*
X757000D02*
X759804Y165877D01*
X888420Y351608D02*
X903020Y366208D01*
X888420Y275508D02*
Y351608D01*
X903020Y366208D02*
Y384108D01*
X892920Y311808D02*
Y345108D01*
X920500Y361408D02*
Y377043D01*
X925500Y367000D02*
Y371908D01*
X885500Y377043D02*
Y469236D01*
X744000Y165393D02*
Y495999D01*
X695420Y163208D02*
Y219420D01*
X728981Y252981D02*
Y488202D01*
X695420Y219420D02*
X728981Y252981D01*
X727500Y489683D02*
X728981Y488202D01*
X734000Y139688D02*
Y499500D01*
X730220Y135908D02*
X734000Y139688D01*
X731500Y502000D02*
X734000Y499500D01*
X739481Y500518D02*
X743985Y496015D01*
X737000Y124228D02*
Y517432D01*
X743068Y523500D01*
X737000Y124228D02*
X770320Y90908D01*
X739481Y500518D02*
Y510500D01*
X723000Y276500D02*
Y491637D01*
X721500Y493137D02*
X723000Y491637D01*
X578020Y398520D02*
X692000Y512500D01*
Y515519D01*
X609252Y526248D02*
X623000Y512500D01*
X672500D01*
X757263Y303033D02*
Y396542D01*
X755463Y265237D02*
Y397288D01*
Y265237D02*
X757500Y263200D01*
X757263Y396542D02*
X764106Y403385D01*
X755463Y397288D02*
X757000Y398825D01*
X757263Y303033D02*
X760000Y300296D01*
X885500Y268230D02*
X932600Y221129D01*
X942601D01*
X771500Y340819D02*
Y377043D01*
X749220Y195008D02*
X760000Y205788D01*
Y300296D01*
X757000Y398825D02*
Y502701D01*
X757500Y260538D02*
X757519Y260519D01*
X757500Y260538D02*
Y263200D01*
X764106Y403385D02*
Y506594D01*
X769320Y511808D01*
X762306Y509294D02*
X766920Y513908D01*
X762306Y405094D02*
Y509294D01*
X759852Y402640D02*
X762306Y405094D01*
X862500Y153209D02*
X868410D01*
X869000Y152618D01*
X836313Y139187D02*
X845813D01*
X848500Y136500D01*
X864000D01*
X835356Y137676D02*
X835386Y137706D01*
X835174Y137676D02*
X835356D01*
X835000Y136500D02*
Y137502D01*
X835174Y137676D01*
X834774Y138259D02*
X834833D01*
X835386Y137706D01*
Y138259D02*
X836313Y139187D01*
X833847D02*
X834774Y138259D01*
X835000Y135229D02*
Y136500D01*
Y137706D01*
X784020Y88208D02*
Y193208D01*
X826420Y128508D02*
X833568D01*
X835000Y137706D02*
X835386Y138092D01*
X835000Y149294D02*
Y160908D01*
X836518Y143951D02*
Y147609D01*
X835386Y148740D02*
X836518Y147609D01*
X835386Y148740D02*
Y148908D01*
X835000Y149294D02*
X835386Y148908D01*
X836518Y143951D02*
X838087Y142382D01*
X138520Y115908D02*
Y177980D01*
X127299Y189201D02*
Y200000D01*
Y189201D02*
X138520Y177980D01*
X127299Y200000D02*
Y218000D01*
X599000Y98000D02*
Y98000D01*
X603357Y102357D01*
X603357D01*
X605820Y221708D02*
X609981Y217547D01*
Y105472D02*
Y217547D01*
X609252Y104743D02*
X609981Y105472D01*
X603357Y102357D02*
X607500Y106500D01*
X609252Y71654D02*
Y104743D01*
X664520Y112908D02*
Y126108D01*
X833000Y163500D02*
X833031Y163469D01*
Y151771D02*
Y163469D01*
Y143659D02*
Y151771D01*
X831063Y148162D02*
Y151771D01*
X827701Y162083D02*
Y177000D01*
Y162083D02*
X831063Y158721D01*
Y151771D02*
Y158721D01*
X628781Y526763D02*
X631401D01*
X647941Y530183D02*
X649568Y528555D01*
X631401Y526763D02*
X631462Y526825D01*
X649568Y528187D02*
Y528555D01*
X644685Y534315D02*
X647941Y531059D01*
X642502Y525706D02*
X644297Y527500D01*
X631202Y530248D02*
X631462Y529987D01*
X625472Y525706D02*
X627723D01*
X623540Y527638D02*
Y528603D01*
X627723Y525706D02*
X628781Y526763D01*
X626500Y528187D02*
Y532127D01*
X647941Y530183D02*
Y531059D01*
X640500Y528187D02*
X640624Y528311D01*
X644297Y527500D02*
X644500D01*
X631202Y530248D02*
Y532388D01*
X639294Y525706D02*
X642502D01*
X629856Y533733D02*
X631202Y532388D01*
X623540Y527638D02*
X625472Y525706D01*
X640624Y528311D02*
Y548289D01*
X633943Y531057D02*
X639294Y525706D01*
X617126Y535017D02*
X623540Y528603D01*
X624871Y533756D02*
X626500Y532127D01*
X625000Y539508D02*
X629856Y534652D01*
X633943Y531057D02*
Y535907D01*
X632874Y536976D02*
Y548413D01*
X629856Y533733D02*
Y534652D01*
X632874Y536976D02*
X633943Y535907D01*
X687992Y536536D02*
X695020Y529508D01*
X698588D01*
X687992Y536536D02*
Y548413D01*
X691929Y536721D02*
Y548413D01*
X682665Y534240D02*
X689500Y527405D01*
X723425Y535828D02*
Y539008D01*
X719488Y536256D02*
X721835Y533909D01*
X624871Y533756D02*
Y534629D01*
X724316Y534252D02*
X728568Y530000D01*
X712949Y533439D02*
Y533532D01*
X621063Y538437D02*
X624871Y534629D01*
X712949Y533439D02*
X714261Y532127D01*
X712241Y534240D02*
X712949Y533532D01*
X714261Y531759D02*
Y532127D01*
X724316Y534252D02*
Y534937D01*
X723425Y535828D02*
X724316Y534937D01*
X719488Y536256D02*
Y548413D01*
X619220Y180508D02*
X619263Y180465D01*
Y161316D02*
Y180465D01*
X619486Y142531D02*
Y161094D01*
X619263Y142308D02*
X619486Y142531D01*
X619263Y161316D02*
X619486Y161094D01*
X614500Y156500D02*
X617004Y159004D01*
X619263Y96351D02*
Y142308D01*
X636504Y519004D02*
X638761Y521261D01*
X790455Y398545D02*
Y399134D01*
Y398545D02*
X796500Y392500D01*
X788500Y401089D02*
X790455Y399134D01*
X651722Y93508D02*
Y96281D01*
X648622Y90408D02*
X651722Y93508D01*
X687992Y71654D02*
Y98081D01*
X664820Y80808D02*
X684574Y100562D01*
X698066D01*
X703120Y95508D01*
X636811Y85199D02*
X664520Y112908D01*
X636811Y71654D02*
Y85199D01*
X632874Y85700D02*
X649082Y101908D01*
X831252Y138222D02*
X832216Y139187D01*
X831063Y135229D02*
X831252Y135418D01*
Y138222D01*
X832216Y139187D02*
X833847D01*
X812120Y78308D02*
X833320D01*
X820000Y130627D02*
X833031Y143659D01*
X820000Y120048D02*
Y130627D01*
X834037Y489000D02*
X850888Y505850D01*
X766920Y513908D02*
X786620D01*
X750500Y519500D02*
X750761Y519239D01*
X752076D01*
X756016Y515299D02*
X757000D01*
X752076Y519239D02*
X756016Y515299D01*
X803928Y523500D02*
X811500Y515928D01*
X743068Y523500D02*
X803928D01*
X904408Y525500D02*
X910500Y519408D01*
X738703Y525500D02*
X904408D01*
X729403Y516200D02*
X738703Y525500D01*
X737068Y528000D02*
X905000D01*
X915500Y517500D01*
X730329Y521261D02*
X737068Y528000D01*
X908500Y530500D02*
X920500Y518500D01*
X735629Y530500D02*
X908500D01*
X728250Y523121D02*
X735629Y530500D01*
X949500Y533000D02*
X1087000Y395500D01*
X825500Y533000D02*
X949500D01*
X744000Y495999D02*
Y501217D01*
X744985Y502201D01*
X727500Y489683D02*
Y511500D01*
X704312Y516200D02*
X729403D01*
X638761Y521261D02*
X730329D01*
X622379Y523121D02*
X728250D01*
X613189Y532311D02*
X622379Y523121D01*
X640624Y548289D02*
X640748Y548413D01*
X648622Y536006D02*
X657220Y527408D01*
X721500Y493137D02*
Y513719D01*
X605820Y417708D02*
X704312Y516200D01*
X660260Y534240D02*
X682665D01*
X588800Y360437D02*
X721500Y493137D01*
X753322Y505394D02*
X756016Y502701D01*
X753020Y506471D02*
X753322Y506169D01*
X753020Y506471D02*
Y507748D01*
X756016Y502701D02*
X757000D01*
X753322Y505394D02*
Y506169D01*
X750841Y500629D02*
Y504583D01*
X747020Y496808D02*
X750841Y500629D01*
X747020Y257908D02*
Y496808D01*
X915500Y440000D02*
X969500Y386000D01*
Y318508D02*
Y386000D01*
X915500Y440000D02*
Y469236D01*
X890500Y431460D02*
X941500Y380461D01*
Y317000D02*
Y380461D01*
X890500Y431460D02*
Y469236D01*
X947314Y317686D02*
Y382686D01*
X895500Y434500D02*
Y469236D01*
Y434500D02*
X947314Y382686D01*
X944131Y392000D02*
X944500D01*
X943479Y392653D02*
X944131Y392000D01*
X943361Y392653D02*
X943479D01*
X898020Y437993D02*
X943361Y392653D01*
X898020Y437993D02*
Y479308D01*
X953564Y318436D02*
Y386936D01*
X900500Y440000D02*
Y469236D01*
Y440000D02*
X953564Y386936D01*
X905500Y440500D02*
Y469236D01*
Y440500D02*
X957500Y388500D01*
Y329000D02*
Y388500D01*
X965520Y316608D02*
Y385480D01*
X910500Y440500D02*
Y469236D01*
Y440500D02*
X965520Y385480D01*
X887720Y428860D02*
X939520Y377060D01*
X887720Y428860D02*
Y510408D01*
X893420Y483908D02*
X898020Y479308D01*
X895500Y316000D02*
X977599Y233901D01*
Y216142D02*
Y233901D01*
X779425Y289803D02*
X862020Y207208D01*
X779425Y289803D02*
Y344619D01*
X780319Y345513D01*
Y345807D01*
X788620Y354108D01*
X816500Y217038D02*
Y234000D01*
X786420Y186958D02*
X816500Y217038D01*
X799000Y246000D02*
X809635D01*
X843920Y161908D02*
Y211715D01*
X836969Y151771D02*
Y154956D01*
X809635Y246000D02*
X843920Y211715D01*
X836969Y154956D02*
X843920Y161908D01*
X786519Y233519D02*
X799000Y246000D01*
X786519Y201546D02*
Y233519D01*
X759804Y174831D02*
X786519Y201546D01*
X777550Y197550D02*
Y238050D01*
X785000Y245500D01*
X880000Y121500D02*
Y177428D01*
X862020Y195408D02*
X880000Y177428D01*
X835500Y92000D02*
X848000D01*
X835500D02*
Y100271D01*
X831563Y92000D02*
X835500D01*
X831563Y83729D02*
Y92000D01*
X835500Y80488D02*
Y83729D01*
X693820Y107608D02*
X703428Y98000D01*
X717500D01*
X658729Y136785D02*
X659022Y137078D01*
X659445D01*
X647500Y110765D02*
Y125556D01*
X659445Y137078D02*
X674552Y136948D01*
X647500Y125556D02*
X658729Y136785D01*
X628937Y92202D02*
X647500Y110765D01*
X674552Y136948D02*
X680500Y131000D01*
X633500Y154000D02*
X671500D01*
X679000Y146500D01*
X642675Y191325D02*
X686000Y148000D01*
Y112000D02*
Y148000D01*
X618000Y191325D02*
X642675D01*
X621063Y141563D02*
X633500Y154000D01*
X621063Y71654D02*
Y141563D01*
X617126Y94214D02*
X619263Y96351D01*
X667401Y90613D02*
Y128927D01*
X656496Y79708D02*
X667401Y90613D01*
X664270Y132058D02*
X667401Y128927D01*
X613189Y154820D02*
X614500Y156131D01*
Y156500D01*
X613189Y71654D02*
Y154820D01*
X680500Y110128D02*
X683020Y107608D01*
X680500Y110128D02*
Y131000D01*
X168760Y266260D02*
Y268681D01*
X178071Y277992D01*
X168500Y266000D02*
X168760Y266260D01*
X147000Y238000D02*
X147500Y238500D01*
X127299Y238000D02*
X147000D01*
X94186Y239186D02*
X102000Y247000D01*
X91320Y243123D02*
X99705Y251508D01*
X160556Y278556D02*
X169992Y287992D01*
X71654Y278556D02*
X160556D01*
X169992Y287992D02*
X178071D01*
X133367Y290367D02*
X170992Y327992D01*
X71654Y290367D02*
X133367D01*
X170992Y327992D02*
X178071D01*
X71654Y294304D02*
X113804D01*
X167492Y347992D02*
X178071D01*
X113804Y294304D02*
X167492Y347992D01*
X692228Y87599D02*
X695866Y83961D01*
X729331Y85827D02*
Y90663D01*
X695866Y71654D02*
Y83961D01*
X653437Y541063D02*
Y547535D01*
Y541063D02*
X660260Y534240D01*
X652559Y548413D02*
X653437Y547535D01*
X695866Y537586D02*
X699212Y534240D01*
X695866Y537586D02*
Y548413D01*
X699212Y534240D02*
X712241D01*
X713529Y104299D02*
X728293D01*
X705653D02*
X713529D01*
X895500Y316000D02*
Y340429D01*
X788320Y444680D02*
X820519Y412481D01*
X786500Y446500D02*
X788320Y444680D01*
X910500Y329214D02*
Y340429D01*
X925500Y371908D02*
Y377043D01*
X1073276Y297243D02*
X1073276Y297243D01*
X1068636Y293018D02*
X1073276Y297243D01*
X998500Y334000D02*
X1039190Y293310D01*
X1039190D02*
X1068636Y293018D01*
X1039190Y293310D02*
X1039190D01*
X907520Y388608D02*
X921700D01*
X1006500Y361000D02*
X1006500Y338414D01*
X1022882Y321618D01*
X1048219Y328281D02*
X1048219D01*
X895500Y487908D02*
Y505850D01*
Y487908D02*
Y487908D01*
X903712Y479288D02*
X903712Y479288D01*
X895788Y487211D02*
X903712Y479288D01*
X929240Y479000D01*
X903712Y479288D02*
X903712D01*
X1039212Y266789D02*
X1054000Y266500D01*
X978899Y327101D02*
X1039212Y266789D01*
X988012Y378209D02*
X988012Y382979D01*
X988012Y335278D02*
X988012Y378209D01*
X1034719Y288281D02*
X1063898Y287992D01*
X1034719Y288281D02*
X1034719D01*
X988012Y378209D02*
Y382979D01*
Y378209D02*
X988012Y335277D01*
X1034719Y288281D01*
X1034720Y288280D01*
X1047953Y332538D02*
X1065245Y332245D01*
X1047953Y332538D02*
X1047953D01*
X945000Y435491D02*
X1047953Y332538D01*
X900791Y486709D02*
X902709Y484791D01*
X900500Y487414D02*
Y505850D01*
Y487414D02*
Y487414D01*
X902709Y484791D02*
X929575Y484500D01*
X723425Y539008D02*
Y548413D01*
X722618Y82038D02*
X726462D01*
X890500Y500208D02*
Y505850D01*
X930500Y463608D02*
Y469236D01*
Y328128D02*
Y340429D01*
Y328128D02*
X933520Y325108D01*
X786420Y104008D02*
Y186958D01*
Y104008D02*
X812120Y78308D01*
X833320D02*
X835500Y80488D01*
X848000Y92000D02*
X860618Y104618D01*
X812000Y84701D02*
X824264D01*
X831563Y92000D01*
X835000Y160908D02*
X840299Y166207D01*
Y177000D01*
Y183201D01*
X757000Y177000D02*
X777550Y197550D01*
X820000Y177000D02*
X827701D01*
X812000Y185000D02*
X820000Y177000D01*
X812000Y185000D02*
Y205500D01*
X826000Y219500D01*
X791500Y458500D02*
X791500Y469236D01*
X977599Y216142D02*
X982598Y211142D01*
X806500Y460500D02*
Y469236D01*
X791500Y445500D02*
X806500Y460500D01*
X71654Y306115D02*
X100092D01*
X796500Y462500D02*
X796500Y469236D01*
X910500Y319000D02*
Y329214D01*
Y319000D02*
X982598Y246902D01*
X811500Y425860D02*
Y469236D01*
X905500Y364028D02*
Y377043D01*
X1014281Y353500D02*
X1054042Y313740D01*
X1064165D01*
X1069912Y307992D01*
X1073898D01*
X625000Y539508D02*
Y548413D01*
X613189Y532311D02*
Y548413D01*
X920500Y505850D02*
Y518500D01*
X1065656Y194200D02*
X1082598Y211142D01*
X951800Y194200D02*
X1065656D01*
X904405Y202362D02*
X939174D01*
X811500Y295267D02*
X904405Y202362D01*
X811500Y295267D02*
Y340429D01*
X786500Y359188D02*
Y377043D01*
X773720Y346408D02*
X786500Y359188D01*
X773720Y207208D02*
Y346408D01*
X749170Y182658D02*
X773720Y207208D01*
X749170Y168958D02*
Y182658D01*
X748820Y168608D02*
X749170Y168958D01*
X621063Y538437D02*
Y548413D01*
X796500Y377043D02*
Y392500D01*
X791500Y295528D02*
Y340429D01*
Y295528D02*
X874420Y212608D01*
X776500Y440500D02*
Y469236D01*
Y440500D02*
X807559Y409441D01*
X820263D01*
X786500Y505850D02*
Y510628D01*
X785320Y511808D02*
X786500Y510628D01*
X769320Y511808D02*
X785320D01*
X648622Y536006D02*
Y548413D01*
X1055008Y307992D02*
X1063898D01*
X1030500Y332500D02*
X1055008Y307992D01*
X892920Y311808D02*
X966920Y237808D01*
Y207908D02*
Y237808D01*
X960920Y201908D02*
X966920Y207908D01*
X946920Y201908D02*
X960920D01*
X944920Y199908D02*
X946920Y201908D01*
X944920Y187908D02*
Y199908D01*
Y187908D02*
X945020Y187808D01*
X683020Y107608D02*
X693820D01*
X628937Y71654D02*
Y92202D01*
X843720Y358608D02*
X854120Y369008D01*
X875020D01*
X900500D02*
Y377043D01*
X796500Y505850D02*
X796896Y506246D01*
Y510896D01*
X801500Y515500D01*
X808000D01*
X1087000Y301095D02*
Y395500D01*
X1073898Y287992D02*
X1087000Y301095D01*
X811500Y505850D02*
Y515928D01*
X632874Y71654D02*
Y85700D01*
X930500Y377043D02*
Y381648D01*
X923540Y388608D02*
X930500Y381648D01*
X903020Y384108D02*
X907520Y388608D01*
X888420Y275508D02*
X904720Y259208D01*
X865420Y202508D02*
X889320Y178608D01*
Y115208D02*
Y178608D01*
X654059Y62108D02*
X837320D01*
X652559Y63608D02*
X654059Y62108D01*
X652559Y63608D02*
Y71654D01*
X888020Y415908D02*
Y419608D01*
Y415908D02*
X910101Y393827D01*
X916481D01*
X921700Y388608D01*
X923540D01*
X71654Y247060D02*
X84560D01*
X910500Y377043D02*
Y382908D01*
X905500Y316528D02*
Y340429D01*
Y316528D02*
X971520Y250508D01*
X1069320Y211142D02*
X1072598D01*
X1057220Y199042D02*
X1069320Y211142D01*
X1057220Y198508D02*
Y199042D01*
X954420Y189908D02*
X1048620D01*
X949820Y185308D02*
X954420Y189908D01*
X914820Y185308D02*
X949820D01*
X806500Y293628D02*
X914820Y185308D01*
X806500Y293628D02*
Y340429D01*
X979500Y173000D02*
X984000Y177500D01*
X919530Y173000D02*
X979500D01*
X796500Y296030D02*
X919530Y173000D01*
X796500Y296030D02*
Y340429D01*
X930500Y500208D02*
Y505850D01*
X723720Y129408D02*
X734320Y118808D01*
Y101408D02*
Y118808D01*
X728420Y95508D02*
X734320Y101408D01*
X703120Y95508D02*
X728420D01*
X644685Y71654D02*
Y80808D01*
X895500Y377043D02*
Y400208D01*
X879920Y401208D02*
Y499508D01*
X876320Y503108D02*
X879920Y499508D01*
X725320Y557108D02*
X740620Y541808D01*
X657696Y557108D02*
X725320D01*
X656496Y555908D02*
X657696Y557108D01*
X656496Y548413D02*
Y555908D01*
X791500Y497500D02*
Y505850D01*
X932500Y438491D02*
X988012Y382979D01*
X656496Y71654D02*
Y79708D01*
X806500Y500228D02*
X806520Y500208D01*
X806500Y500228D02*
Y505850D01*
X636811Y548413D02*
Y556299D01*
X639420Y558908D01*
X727120D01*
X735620Y550408D01*
X893420Y483908D02*
Y511908D01*
X915500Y385388D02*
X915520Y385408D01*
X915500Y377043D02*
Y385388D01*
X746339Y166108D02*
Y235227D01*
X750520Y239408D01*
X813720Y500208D02*
X814620Y501108D01*
X816500D01*
Y505850D01*
X801500Y293806D02*
Y340429D01*
Y293806D02*
X917098Y178208D01*
X969520D01*
X920500Y440500D02*
Y469236D01*
Y440500D02*
X973500Y387500D01*
Y323500D02*
Y387500D01*
Y323500D02*
X1043705Y253295D01*
X1055705D01*
X910500Y505850D02*
Y519408D01*
X617126Y535017D02*
Y548413D01*
X915500Y505850D02*
Y517500D01*
X905500Y505850D02*
Y513608D01*
X901900Y517208D02*
X905500Y513608D01*
X853520Y517208D02*
X901900D01*
X825520Y489208D02*
X853520Y517208D01*
X794320Y489208D02*
X825520D01*
X788620Y494908D02*
X794320Y489208D01*
X788620Y494908D02*
Y511908D01*
X786620Y513908D02*
X788620Y511908D01*
X617126Y71654D02*
Y94214D01*
X844220Y158608D02*
X859520D01*
X843720Y158108D02*
X844220Y158608D01*
X836969Y131908D02*
Y135229D01*
X833568Y128508D02*
X836969Y131908D01*
X759804Y165877D02*
Y174831D01*
X839437Y100271D02*
Y100325D01*
X845500Y100500D01*
X691929Y71654D02*
Y82929D01*
X1002598Y221142D02*
Y233902D01*
X915500Y321000D02*
X1002598Y233902D01*
X915500Y321000D02*
Y340429D01*
X925500Y505850D02*
Y509908D01*
X927500Y511908D01*
X964135D01*
X1073898Y402145D01*
Y347992D02*
Y402145D01*
X781500Y377043D02*
Y381908D01*
X783900Y384308D01*
X786220D01*
X788620Y381908D01*
Y354108D02*
Y381908D01*
X862020Y195408D02*
Y207208D01*
X640748Y81608D02*
X643048Y83908D01*
X640748Y71654D02*
Y81608D01*
X1039974Y347974D02*
X1039992Y347992D01*
X1063898D01*
X996000Y371500D02*
X1006500Y361000D01*
X934693Y373807D02*
X937000Y371500D01*
X931181Y373807D02*
X934693D01*
X930500Y374488D02*
X931181Y373807D01*
X930500Y374488D02*
Y377043D01*
X816500Y367000D02*
Y377043D01*
X71654Y317926D02*
X94426D01*
X100239Y323739D01*
X71654Y325800D02*
X91331D01*
X119222Y353691D01*
X71654Y298241D02*
X89259D01*
X925500Y328240D02*
Y340429D01*
Y328240D02*
X1032598Y221142D01*
X71654Y282493D02*
X147493D01*
X162992Y297992D01*
X178071D01*
X71654Y302178D02*
X71815Y302339D01*
X93839D01*
X166492Y307992D02*
X178071D01*
X144930Y286430D02*
X166492Y307992D01*
X71654Y286430D02*
X144930D01*
X71654Y313989D02*
X116511D01*
X71654Y321863D02*
X93613D01*
X104750Y333000D01*
X71654Y310052D02*
X71660Y310046D01*
X107767D01*
X816000Y133099D02*
X831063Y148162D01*
X816000Y118500D02*
Y133099D01*
Y118500D02*
X831563Y102937D01*
Y100271D02*
Y102937D01*
X838087Y142382D02*
X869000D01*
X71654Y239186D02*
X94186D01*
X745969Y514799D02*
X753020Y507748D01*
X744985Y514799D02*
X745969D01*
X837469Y100271D02*
Y115469D01*
X791500Y377043D02*
Y388700D01*
X787700Y392500D02*
X791500Y388700D01*
X771500Y480000D02*
Y505850D01*
Y480000D02*
X825000D01*
X850888Y505850D02*
X885500D01*
X771500Y469236D02*
Y480000D01*
X825000D02*
X834000Y489000D01*
X834037D01*
X925500Y371908D02*
X930400Y367008D01*
X937320D01*
X939520Y369208D01*
Y377060D01*
X885620Y512508D02*
X887720Y510408D01*
X628937Y557125D02*
X629420Y557608D01*
X628937Y548413D02*
Y557125D01*
X648622Y71654D02*
Y90408D01*
X776500Y284528D02*
Y340429D01*
Y284528D02*
X859420Y201608D01*
Y193908D02*
Y201608D01*
Y193908D02*
X876320Y177008D01*
X940325Y188825D02*
X942598Y191098D01*
Y211142D01*
X728293Y91701D02*
X736700D01*
X746000Y101000D01*
X851729Y151771D02*
X857500Y146000D01*
X838937Y151771D02*
X851729D01*
X114701Y170799D02*
Y200000D01*
X837181Y121681D02*
X838937Y123437D01*
Y135229D01*
X699320Y118508D02*
X713529Y104299D01*
X979954Y169454D02*
X997000Y186500D01*
X908822Y169454D02*
X979954D01*
X786500Y291776D02*
X908822Y169454D01*
X786500Y291776D02*
Y340429D01*
X781500Y290528D02*
Y340429D01*
Y290528D02*
X869920Y202108D01*
X625000Y63008D02*
Y71654D01*
Y63008D02*
X625500Y62508D01*
X969500Y318508D02*
X1036000Y252008D01*
X962598Y221142D02*
Y234902D01*
X913000Y284500D02*
X962598Y234902D01*
X1106853Y216887D02*
X1112598Y211142D01*
X1106853Y216887D02*
Y225147D01*
X1085500Y246500D02*
X1106853Y225147D01*
X1025500Y246500D02*
X1085500D01*
X953564Y318436D02*
X1025500Y246500D01*
X965520Y316608D02*
X1029620Y252508D01*
X947314Y317686D02*
X1022500Y242500D01*
X1082075D01*
X1096853Y227722D01*
Y216887D02*
Y227722D01*
Y216887D02*
X1102598Y211142D01*
X941500Y317000D02*
X1024487Y234013D01*
X1082173D01*
X1086851Y229335D01*
Y216889D02*
Y229335D01*
Y216889D02*
X1092598Y211142D01*
X932500Y438491D02*
X988012Y382979D01*
X1073898Y277992D02*
X1094500Y298595D01*
Y395500D01*
X951250Y538750D02*
X1094500Y395500D01*
X867500Y538750D02*
X951250D01*
X803230Y497250D02*
X826000D01*
X801500Y498980D02*
X803230Y497250D01*
X801500Y498980D02*
Y505850D01*
X839437Y70996D02*
Y83729D01*
X837441Y69000D02*
X839437Y70996D01*
X781500Y69000D02*
X837441D01*
X768462Y82038D02*
X781500Y69000D01*
X726462Y82038D02*
X768462D01*
X716799Y91701D02*
X726462Y82038D01*
X705653Y91701D02*
X716799D01*
X719488Y78908D02*
X722618Y82038D01*
X719488Y71654D02*
Y78908D01*
X723425Y71654D02*
Y73652D01*
X729331Y79557D01*
X728293Y91701D02*
X729331Y90663D01*
X924065Y216435D02*
X957306D01*
X833000Y307500D02*
Y402666D01*
X786500Y446500D02*
Y469236D01*
X957306Y216435D02*
X962598Y211142D01*
X833000Y307500D02*
X924065Y216435D01*
X823184Y412481D02*
X833000Y402666D01*
X820519Y412481D02*
X823184D01*
X788320Y444680D02*
Y448320D01*
X801500Y461500D01*
Y469236D01*
X609252Y526248D02*
Y548413D01*
X806500Y377043D02*
Y394500D01*
X781500Y447500D02*
Y469236D01*
Y447500D02*
X814500Y414500D01*
X815908Y412481D01*
X71654Y243123D02*
X91320D01*
X801500Y377043D02*
Y394000D01*
X782504Y412996D02*
X801500Y394000D01*
X644685Y534315D02*
Y548413D01*
X1069912Y317992D02*
X1073898D01*
X1064165Y323740D02*
X1069912Y317992D01*
X1048260Y323740D02*
X1064165D01*
X1024500Y347500D02*
X1048260Y323740D01*
X835500Y396000D02*
Y473000D01*
X781500Y493500D02*
X789000Y486000D01*
X781500Y493500D02*
Y505850D01*
X811500Y377043D02*
Y390000D01*
X816724Y395225D01*
X829775D01*
X615545Y227500D02*
X690006Y153039D01*
X703724D01*
X784764Y72000D01*
X833000D01*
X837469Y76469D01*
Y83729D01*
X812000Y97299D02*
X817201D01*
X821123Y93377D01*
X829282D01*
X833531Y97626D01*
Y100271D01*
X957306Y216435D02*
Y231194D01*
X890500Y298000D02*
X957306Y231194D01*
X890500Y298000D02*
Y340429D01*
X860618Y104618D02*
X869000D01*
X996857Y216883D02*
X1002598Y211142D01*
X900500Y315500D02*
Y340429D01*
X788903Y107798D02*
X812000Y84701D01*
X728293Y104299D02*
X731792Y107798D01*
X114701Y230408D02*
X114701Y230408D01*
X1012598Y221142D02*
Y232047D01*
X920500Y324145D02*
X1012598Y232047D01*
X920500Y324145D02*
Y340429D01*
X771500Y377043D02*
Y469236D01*
X885500Y469236D02*
Y505850D01*
Y340429D02*
Y377043D01*
Y268230D02*
Y340429D01*
X932598Y221142D02*
X932600Y221129D01*
X942598Y221142D02*
X942601Y221129D01*
X869000Y104618D02*
X869000Y142382D01*
X998500Y334000D02*
Y362500D01*
X1022882Y321618D02*
X1046508Y297992D01*
X1063898D01*
X929240Y479000D02*
X939500Y468740D01*
Y437000D02*
Y468740D01*
Y437000D02*
X1048219Y328281D01*
X978899Y327101D02*
Y387607D01*
X925500Y441006D02*
X978899Y387607D01*
X925500Y441006D02*
Y469236D01*
X929575Y484500D02*
X945000Y469075D01*
Y435491D02*
Y469075D01*
X1065952Y331952D02*
X1069445Y328459D01*
X1073431D01*
X1073898Y327992D01*
X833531Y100271D02*
Y106516D01*
X820000Y120048D02*
X833531Y106516D01*
X114701Y200000D02*
Y200984D01*
X104058Y211627D02*
X114701Y200984D01*
X71654Y211627D02*
X104058D01*
X71654Y215564D02*
X99247D01*
X101684Y218000D01*
X114701D01*
D16*
X831063Y135229D02*
D03*
X831563Y83729D02*
D03*
D17*
X833031Y135229D02*
D03*
X835000D02*
D03*
X836969D02*
D03*
X838937D02*
D03*
Y151771D02*
D03*
X836969D02*
D03*
X835000D02*
D03*
X833031D02*
D03*
X831063D02*
D03*
X833531Y83729D02*
D03*
X835500D02*
D03*
X837469D02*
D03*
X839437D02*
D03*
Y100271D02*
D03*
X837469D02*
D03*
X835500D02*
D03*
X833531D02*
D03*
X831563D02*
D03*
D18*
X840299Y177000D02*
D03*
X827701D02*
D03*
X114701Y200000D02*
D03*
X127299D02*
D03*
X114701Y218000D02*
D03*
X127299D02*
D03*
X127299Y238000D02*
D03*
X114701D02*
D03*
D19*
X812000Y97299D02*
D03*
Y84701D02*
D03*
X757000Y515299D02*
D03*
Y502701D02*
D03*
X728293Y91701D02*
D03*
Y104299D02*
D03*
X705653Y91701D02*
D03*
Y104299D02*
D03*
X744985Y514799D02*
D03*
Y502201D02*
D03*
D20*
X869000Y104618D02*
D03*
Y94382D02*
D03*
X869000Y152618D02*
D03*
Y142382D02*
D03*
D21*
X526575Y71654D02*
D03*
X530512D02*
D03*
X534449D02*
D03*
X538386D02*
D03*
X542323D02*
D03*
X546260D02*
D03*
X550197D02*
D03*
X554134D02*
D03*
X558071D02*
D03*
X562008D02*
D03*
X565945D02*
D03*
X577756D02*
D03*
X581693D02*
D03*
X585630D02*
D03*
X589567D02*
D03*
X593504D02*
D03*
X597441D02*
D03*
X601378D02*
D03*
X605315D02*
D03*
X609252D02*
D03*
X613189D02*
D03*
X617126D02*
D03*
X621063D02*
D03*
X625000D02*
D03*
X628937D02*
D03*
X632874D02*
D03*
X636811D02*
D03*
X640748D02*
D03*
X644685D02*
D03*
X648622D02*
D03*
X652559D02*
D03*
X656496D02*
D03*
X660433D02*
D03*
X664370D02*
D03*
X668307D02*
D03*
X672244D02*
D03*
X676181D02*
D03*
X680118D02*
D03*
X684055D02*
D03*
X687992D02*
D03*
X691929D02*
D03*
X695866D02*
D03*
X699803D02*
D03*
X703740D02*
D03*
X707677D02*
D03*
X711614D02*
D03*
X715551D02*
D03*
X719488D02*
D03*
X723425D02*
D03*
Y548413D02*
D03*
X719488D02*
D03*
X715551D02*
D03*
X711614D02*
D03*
X707677D02*
D03*
X703740D02*
D03*
X699803D02*
D03*
X695866D02*
D03*
X691929D02*
D03*
X687992D02*
D03*
X684055D02*
D03*
X680118D02*
D03*
X676181D02*
D03*
X672244D02*
D03*
X668307D02*
D03*
X664370D02*
D03*
X660433D02*
D03*
X656496D02*
D03*
X652559D02*
D03*
X648622D02*
D03*
X644685D02*
D03*
X640748D02*
D03*
X636811D02*
D03*
X632874D02*
D03*
X628937D02*
D03*
X625000D02*
D03*
X621063D02*
D03*
X617126D02*
D03*
X613189D02*
D03*
X609252D02*
D03*
X605315D02*
D03*
X601378D02*
D03*
X597441D02*
D03*
X593504D02*
D03*
X589567D02*
D03*
X585630D02*
D03*
X581693D02*
D03*
X577756D02*
D03*
X565945D02*
D03*
X562008D02*
D03*
X558071D02*
D03*
X554134D02*
D03*
X550197D02*
D03*
X546260D02*
D03*
X542323D02*
D03*
X538386D02*
D03*
X534449D02*
D03*
X530512D02*
D03*
X526575D02*
D03*
D22*
X71654Y408477D02*
D03*
Y404540D02*
D03*
Y400603D02*
D03*
Y396666D02*
D03*
Y392729D02*
D03*
Y388792D02*
D03*
Y384855D02*
D03*
Y380918D02*
D03*
Y376981D02*
D03*
Y373044D02*
D03*
Y369107D02*
D03*
Y357296D02*
D03*
Y353359D02*
D03*
Y349422D02*
D03*
Y345485D02*
D03*
Y341548D02*
D03*
Y337611D02*
D03*
Y333674D02*
D03*
Y329737D02*
D03*
Y325800D02*
D03*
Y321863D02*
D03*
Y317926D02*
D03*
Y313989D02*
D03*
Y310052D02*
D03*
Y306115D02*
D03*
Y302178D02*
D03*
Y298241D02*
D03*
Y294304D02*
D03*
Y290367D02*
D03*
Y286430D02*
D03*
Y282493D02*
D03*
Y278556D02*
D03*
Y274619D02*
D03*
Y270682D02*
D03*
Y266745D02*
D03*
Y262808D02*
D03*
Y258871D02*
D03*
Y254934D02*
D03*
Y250997D02*
D03*
Y247060D02*
D03*
Y243123D02*
D03*
Y239186D02*
D03*
Y235249D02*
D03*
Y231312D02*
D03*
Y227375D02*
D03*
Y223438D02*
D03*
Y219501D02*
D03*
Y215564D02*
D03*
Y211627D02*
D03*
D23*
X771500Y505850D02*
D03*
X776500D02*
D03*
X781500D02*
D03*
X786500D02*
D03*
X791500D02*
D03*
X796500D02*
D03*
X801500D02*
D03*
X806500D02*
D03*
X811500D02*
D03*
X816500D02*
D03*
Y469236D02*
D03*
X811500D02*
D03*
X806500D02*
D03*
X801500D02*
D03*
X796500D02*
D03*
X791500D02*
D03*
X786500D02*
D03*
X781500D02*
D03*
X776500D02*
D03*
X771500D02*
D03*
X885500Y505850D02*
D03*
X890500D02*
D03*
X895500D02*
D03*
X900500D02*
D03*
X905500D02*
D03*
X910500D02*
D03*
X915500D02*
D03*
X920500D02*
D03*
X925500D02*
D03*
X930500D02*
D03*
Y469236D02*
D03*
X925500D02*
D03*
X920500D02*
D03*
X915500D02*
D03*
X910500D02*
D03*
X905500D02*
D03*
X900500D02*
D03*
X895500D02*
D03*
X890500D02*
D03*
X885500D02*
D03*
X771500Y340429D02*
D03*
X776500D02*
D03*
X781500D02*
D03*
X786500D02*
D03*
X791500D02*
D03*
X796500D02*
D03*
X801500D02*
D03*
X806500D02*
D03*
X811500D02*
D03*
X816500D02*
D03*
Y377043D02*
D03*
X811500D02*
D03*
X806500D02*
D03*
X801500D02*
D03*
X796500D02*
D03*
X791500D02*
D03*
X786500D02*
D03*
X781500D02*
D03*
X776500D02*
D03*
X771500D02*
D03*
X885500Y340429D02*
D03*
X890500D02*
D03*
X895500D02*
D03*
X900500D02*
D03*
X905500D02*
D03*
X910500D02*
D03*
X915500D02*
D03*
X920500D02*
D03*
X925500D02*
D03*
X930500D02*
D03*
Y377043D02*
D03*
X925500D02*
D03*
X920500D02*
D03*
X915500D02*
D03*
X910500D02*
D03*
X905500D02*
D03*
X900500D02*
D03*
X895500D02*
D03*
X890500D02*
D03*
X885500D02*
D03*
D35*
X903712Y479288D02*
D03*
D36*
X526945Y435430D02*
D03*
X479000Y435500D02*
D03*
D37*
X303087Y528307D02*
D03*
X233008D02*
D03*
D38*
X315095Y535000D02*
D03*
X221000D02*
D03*
D39*
X507677Y68898D02*
D03*
X742323D02*
D03*
X742323Y551169D02*
D03*
X507677D02*
D03*
X68898Y427375D02*
D03*
Y192729D02*
D03*
D40*
X178071Y277992D02*
D03*
X188071D02*
D03*
X178071Y287992D02*
D03*
X188071D02*
D03*
X178071Y297992D02*
D03*
X188071D02*
D03*
X178071Y307992D02*
D03*
X188071D02*
D03*
X178071Y317992D02*
D03*
X188071D02*
D03*
X178071Y327992D02*
D03*
X188071D02*
D03*
X178071Y337992D02*
D03*
X188071D02*
D03*
X178071Y347992D02*
D03*
X1063898Y277992D02*
D03*
X1073898D02*
D03*
X1063898Y287992D02*
D03*
X1073898D02*
D03*
X1063898Y297992D02*
D03*
X1073898D02*
D03*
X1063898Y307992D02*
D03*
X1073898D02*
D03*
X1063898Y317992D02*
D03*
X1073898D02*
D03*
X1063898Y327992D02*
D03*
X1073898D02*
D03*
X1063898Y337992D02*
D03*
X1073898D02*
D03*
X1063898Y347992D02*
D03*
X932598Y221142D02*
D03*
X942598Y211142D02*
D03*
Y221142D02*
D03*
X952598Y211142D02*
D03*
Y221142D02*
D03*
X962598Y211142D02*
D03*
Y221142D02*
D03*
X972598Y211142D02*
D03*
Y221142D02*
D03*
X982598Y211142D02*
D03*
Y221142D02*
D03*
X992598Y211142D02*
D03*
Y221142D02*
D03*
X1002598Y211142D02*
D03*
Y221142D02*
D03*
X1012598Y211142D02*
D03*
Y221142D02*
D03*
X1022598Y211142D02*
D03*
Y221142D02*
D03*
X1032598Y211142D02*
D03*
Y221142D02*
D03*
X1042598Y211142D02*
D03*
Y221142D02*
D03*
X1052598Y211142D02*
D03*
Y221142D02*
D03*
X1062598Y211142D02*
D03*
Y221142D02*
D03*
X1072598Y211142D02*
D03*
Y221142D02*
D03*
X1082598Y211142D02*
D03*
Y221142D02*
D03*
X1092598Y211142D02*
D03*
Y221142D02*
D03*
X1102598Y211142D02*
D03*
Y221142D02*
D03*
X1112598Y211142D02*
D03*
Y221142D02*
D03*
X1122598Y211142D02*
D03*
Y221142D02*
D03*
D41*
X188071Y347992D02*
D03*
X1073898D02*
D03*
D42*
X932598Y211142D02*
D03*
D43*
X493714Y453609D02*
D03*
X488596D02*
D03*
X483478D02*
D03*
X478360D02*
D03*
X473241D02*
D03*
X468123D02*
D03*
X463005D02*
D03*
Y448490D02*
D03*
Y443372D02*
D03*
Y438254D02*
D03*
Y433136D02*
D03*
Y428018D02*
D03*
Y422900D02*
D03*
X457887Y453609D02*
D03*
Y448490D02*
D03*
Y443372D02*
D03*
Y438254D02*
D03*
Y433136D02*
D03*
Y428018D02*
D03*
Y422900D02*
D03*
X452769Y453609D02*
D03*
Y448490D02*
D03*
Y443372D02*
D03*
Y438254D02*
D03*
Y433136D02*
D03*
Y428018D02*
D03*
Y422900D02*
D03*
X447651Y453609D02*
D03*
Y448490D02*
D03*
Y443372D02*
D03*
Y438254D02*
D03*
Y433136D02*
D03*
Y428018D02*
D03*
Y422900D02*
D03*
X442533Y453609D02*
D03*
Y448490D02*
D03*
Y443372D02*
D03*
Y438254D02*
D03*
Y433136D02*
D03*
Y428018D02*
D03*
Y422900D02*
D03*
X437415Y453609D02*
D03*
Y448490D02*
D03*
Y443372D02*
D03*
Y438254D02*
D03*
Y433136D02*
D03*
Y428018D02*
D03*
Y422900D02*
D03*
X432297Y453609D02*
D03*
Y448490D02*
D03*
Y443372D02*
D03*
Y438254D02*
D03*
Y433136D02*
D03*
Y428018D02*
D03*
Y422900D02*
D03*
X427178Y453609D02*
D03*
Y448490D02*
D03*
Y443372D02*
D03*
Y438254D02*
D03*
Y433136D02*
D03*
Y428018D02*
D03*
Y422900D02*
D03*
X422060Y453609D02*
D03*
Y448490D02*
D03*
Y443372D02*
D03*
Y438254D02*
D03*
Y433136D02*
D03*
Y428018D02*
D03*
Y422900D02*
D03*
X416942Y453609D02*
D03*
Y448490D02*
D03*
Y443372D02*
D03*
Y438254D02*
D03*
Y433136D02*
D03*
Y428018D02*
D03*
Y422900D02*
D03*
X411824Y453609D02*
D03*
Y448490D02*
D03*
Y443372D02*
D03*
Y438254D02*
D03*
Y433136D02*
D03*
Y428018D02*
D03*
Y422900D02*
D03*
X406706Y453609D02*
D03*
Y448490D02*
D03*
Y443372D02*
D03*
Y438254D02*
D03*
Y433136D02*
D03*
Y428018D02*
D03*
Y422900D02*
D03*
X401588Y453609D02*
D03*
Y448490D02*
D03*
Y443372D02*
D03*
Y438254D02*
D03*
Y433136D02*
D03*
Y428018D02*
D03*
Y422900D02*
D03*
X396470Y453609D02*
D03*
Y448490D02*
D03*
Y443372D02*
D03*
Y438254D02*
D03*
Y433136D02*
D03*
Y428018D02*
D03*
X391352Y453609D02*
D03*
Y448490D02*
D03*
Y443372D02*
D03*
Y438254D02*
D03*
Y433136D02*
D03*
Y428018D02*
D03*
X386233Y453609D02*
D03*
Y448490D02*
D03*
Y443372D02*
D03*
Y438254D02*
D03*
Y433136D02*
D03*
X381115Y453609D02*
D03*
Y448490D02*
D03*
Y443372D02*
D03*
Y438254D02*
D03*
X375997Y453609D02*
D03*
Y448490D02*
D03*
Y443372D02*
D03*
X370879Y453609D02*
D03*
Y448490D02*
D03*
X365761Y453609D02*
D03*
X343000Y549500D02*
D03*
X862218Y90223D02*
D03*
X857100Y85105D02*
D03*
X851982Y100459D02*
D03*
Y79987D02*
D03*
X846863Y105577D02*
D03*
X841745Y95341D02*
D03*
X831509Y74869D02*
D03*
X826391Y79987D02*
D03*
Y74869D02*
D03*
X821273Y90223D02*
D03*
Y79987D02*
D03*
Y74869D02*
D03*
X816155Y110695D02*
D03*
Y90223D02*
D03*
Y79987D02*
D03*
Y74869D02*
D03*
X811037Y110695D02*
D03*
Y90223D02*
D03*
Y79987D02*
D03*
Y74869D02*
D03*
X805919Y110695D02*
D03*
Y95341D02*
D03*
Y85105D02*
D03*
Y79987D02*
D03*
Y74869D02*
D03*
X800800Y110695D02*
D03*
Y90223D02*
D03*
Y85105D02*
D03*
Y79987D02*
D03*
Y74869D02*
D03*
X795682Y110695D02*
D03*
Y95341D02*
D03*
Y90223D02*
D03*
Y85105D02*
D03*
Y79987D02*
D03*
Y74869D02*
D03*
X790564Y110695D02*
D03*
Y95341D02*
D03*
Y90223D02*
D03*
Y85105D02*
D03*
Y79987D02*
D03*
Y74869D02*
D03*
X785446Y85105D02*
D03*
Y79987D02*
D03*
X780328Y110695D02*
D03*
Y95341D02*
D03*
Y85105D02*
D03*
X775210Y110695D02*
D03*
Y95341D02*
D03*
X770092Y110695D02*
D03*
Y95341D02*
D03*
X764974Y110695D02*
D03*
X759856D02*
D03*
X754737D02*
D03*
X729147Y172113D02*
D03*
Y110695D02*
D03*
X724029Y172113D02*
D03*
Y110695D02*
D03*
X718911Y172113D02*
D03*
Y110695D02*
D03*
X713793Y172113D02*
D03*
Y110695D02*
D03*
X708674Y172113D02*
D03*
X703556D02*
D03*
X698438D02*
D03*
Y110695D02*
D03*
X688202Y172113D02*
D03*
X683084D02*
D03*
X677966D02*
D03*
X657493D02*
D03*
X652375D02*
D03*
X647257D02*
D03*
X642139D02*
D03*
Y126050D02*
D03*
Y110695D02*
D03*
X637021Y172113D02*
D03*
Y131168D02*
D03*
Y126050D02*
D03*
Y110695D02*
D03*
Y105577D02*
D03*
X631903Y172113D02*
D03*
Y136286D02*
D03*
Y131168D02*
D03*
Y126050D02*
D03*
Y110695D02*
D03*
Y105577D02*
D03*
Y100459D02*
D03*
X626785Y172113D02*
D03*
Y141404D02*
D03*
Y136286D02*
D03*
Y131168D02*
D03*
Y126050D02*
D03*
Y110695D02*
D03*
Y105577D02*
D03*
Y100459D02*
D03*
X616548Y172113D02*
D03*
Y166995D02*
D03*
X606312Y172113D02*
D03*
Y161876D02*
D03*
Y156758D02*
D03*
Y151640D02*
D03*
Y146522D02*
D03*
Y141404D02*
D03*
Y136286D02*
D03*
Y131168D02*
D03*
Y126050D02*
D03*
Y110695D02*
D03*
X601194Y166995D02*
D03*
Y161876D02*
D03*
Y156758D02*
D03*
Y151640D02*
D03*
Y146522D02*
D03*
Y141404D02*
D03*
Y136286D02*
D03*
X596076Y172113D02*
D03*
Y166995D02*
D03*
Y161876D02*
D03*
Y156758D02*
D03*
Y151640D02*
D03*
Y146522D02*
D03*
Y141404D02*
D03*
Y126050D02*
D03*
X590958Y172113D02*
D03*
Y166995D02*
D03*
Y161876D02*
D03*
Y156758D02*
D03*
Y151640D02*
D03*
Y146522D02*
D03*
Y131168D02*
D03*
Y126050D02*
D03*
X585840Y172113D02*
D03*
Y166995D02*
D03*
Y161876D02*
D03*
Y156758D02*
D03*
Y151640D02*
D03*
Y136286D02*
D03*
Y131168D02*
D03*
X580722Y172113D02*
D03*
Y166995D02*
D03*
Y161876D02*
D03*
Y156758D02*
D03*
Y141404D02*
D03*
Y136286D02*
D03*
X519304Y151640D02*
D03*
Y146522D02*
D03*
Y141404D02*
D03*
Y136286D02*
D03*
Y131168D02*
D03*
Y126050D02*
D03*
Y120931D02*
D03*
Y115813D02*
D03*
Y110695D02*
D03*
Y105577D02*
D03*
Y100459D02*
D03*
Y95341D02*
D03*
Y90223D02*
D03*
Y85105D02*
D03*
Y79987D02*
D03*
X514186Y156758D02*
D03*
Y151640D02*
D03*
Y146522D02*
D03*
Y141404D02*
D03*
Y136286D02*
D03*
Y131168D02*
D03*
Y126050D02*
D03*
Y120931D02*
D03*
Y115813D02*
D03*
Y110695D02*
D03*
Y105577D02*
D03*
Y100459D02*
D03*
Y95341D02*
D03*
Y90223D02*
D03*
Y85105D02*
D03*
Y79987D02*
D03*
X509068Y166995D02*
D03*
Y161876D02*
D03*
Y156758D02*
D03*
Y151640D02*
D03*
Y146522D02*
D03*
Y141404D02*
D03*
Y136286D02*
D03*
Y131168D02*
D03*
Y126050D02*
D03*
Y120931D02*
D03*
Y115813D02*
D03*
Y110695D02*
D03*
Y105577D02*
D03*
Y100459D02*
D03*
Y95341D02*
D03*
Y90223D02*
D03*
Y85105D02*
D03*
Y79987D02*
D03*
X503950Y172113D02*
D03*
Y166995D02*
D03*
Y161876D02*
D03*
Y156758D02*
D03*
Y151640D02*
D03*
Y146522D02*
D03*
Y141404D02*
D03*
Y136286D02*
D03*
Y131168D02*
D03*
Y126050D02*
D03*
Y120931D02*
D03*
Y115813D02*
D03*
Y110695D02*
D03*
Y105577D02*
D03*
Y100459D02*
D03*
Y95341D02*
D03*
Y90223D02*
D03*
Y85105D02*
D03*
Y79987D02*
D03*
X498832Y172113D02*
D03*
Y166995D02*
D03*
Y161876D02*
D03*
Y156758D02*
D03*
Y151640D02*
D03*
Y146522D02*
D03*
Y141404D02*
D03*
Y136286D02*
D03*
Y131168D02*
D03*
Y126050D02*
D03*
Y120931D02*
D03*
Y115813D02*
D03*
Y110695D02*
D03*
Y105577D02*
D03*
Y100459D02*
D03*
Y95341D02*
D03*
Y90223D02*
D03*
Y85105D02*
D03*
X493714Y172113D02*
D03*
Y166995D02*
D03*
Y161876D02*
D03*
Y156758D02*
D03*
Y151640D02*
D03*
Y146522D02*
D03*
Y141404D02*
D03*
Y136286D02*
D03*
Y131168D02*
D03*
Y126050D02*
D03*
Y120931D02*
D03*
Y115813D02*
D03*
Y110695D02*
D03*
Y105577D02*
D03*
Y100459D02*
D03*
Y95341D02*
D03*
Y90223D02*
D03*
Y85105D02*
D03*
X488596Y172113D02*
D03*
Y166995D02*
D03*
Y161876D02*
D03*
Y156758D02*
D03*
Y151640D02*
D03*
Y146522D02*
D03*
Y141404D02*
D03*
Y136286D02*
D03*
Y131168D02*
D03*
Y126050D02*
D03*
Y120931D02*
D03*
Y115813D02*
D03*
Y110695D02*
D03*
Y105577D02*
D03*
Y100459D02*
D03*
Y95341D02*
D03*
Y90223D02*
D03*
Y85105D02*
D03*
X483478Y172113D02*
D03*
Y166995D02*
D03*
Y161876D02*
D03*
Y156758D02*
D03*
Y151640D02*
D03*
Y146522D02*
D03*
Y141404D02*
D03*
Y136286D02*
D03*
Y131168D02*
D03*
Y126050D02*
D03*
Y120931D02*
D03*
Y115813D02*
D03*
Y110695D02*
D03*
Y105577D02*
D03*
Y100459D02*
D03*
Y95341D02*
D03*
Y90223D02*
D03*
Y85105D02*
D03*
X478360Y172113D02*
D03*
Y166995D02*
D03*
Y161876D02*
D03*
Y156758D02*
D03*
Y151640D02*
D03*
Y146522D02*
D03*
Y141404D02*
D03*
Y136286D02*
D03*
Y131168D02*
D03*
Y126050D02*
D03*
Y120931D02*
D03*
Y115813D02*
D03*
Y110695D02*
D03*
Y105577D02*
D03*
Y100459D02*
D03*
Y95341D02*
D03*
Y90223D02*
D03*
Y85105D02*
D03*
X473241Y172113D02*
D03*
Y166995D02*
D03*
Y161876D02*
D03*
Y156758D02*
D03*
Y151640D02*
D03*
Y146522D02*
D03*
Y141404D02*
D03*
Y136286D02*
D03*
Y131168D02*
D03*
Y126050D02*
D03*
Y120931D02*
D03*
Y115813D02*
D03*
Y110695D02*
D03*
Y105577D02*
D03*
Y100459D02*
D03*
Y95341D02*
D03*
Y90223D02*
D03*
Y85105D02*
D03*
X468123Y172113D02*
D03*
Y166995D02*
D03*
Y161876D02*
D03*
Y156758D02*
D03*
Y151640D02*
D03*
Y146522D02*
D03*
Y141404D02*
D03*
Y136286D02*
D03*
Y131168D02*
D03*
Y126050D02*
D03*
Y120931D02*
D03*
Y115813D02*
D03*
Y110695D02*
D03*
Y105577D02*
D03*
Y100459D02*
D03*
Y95341D02*
D03*
Y90223D02*
D03*
Y85105D02*
D03*
X463005Y172113D02*
D03*
Y166995D02*
D03*
Y161876D02*
D03*
Y156758D02*
D03*
Y151640D02*
D03*
Y146522D02*
D03*
Y141404D02*
D03*
Y136286D02*
D03*
Y131168D02*
D03*
Y126050D02*
D03*
Y120931D02*
D03*
Y115813D02*
D03*
Y110695D02*
D03*
Y105577D02*
D03*
Y100459D02*
D03*
Y95341D02*
D03*
Y90223D02*
D03*
Y85105D02*
D03*
X457887Y172113D02*
D03*
Y166995D02*
D03*
Y161876D02*
D03*
Y156758D02*
D03*
Y151640D02*
D03*
Y146522D02*
D03*
Y141404D02*
D03*
Y136286D02*
D03*
Y131168D02*
D03*
Y126050D02*
D03*
Y120931D02*
D03*
Y115813D02*
D03*
Y110695D02*
D03*
Y105577D02*
D03*
Y100459D02*
D03*
Y95341D02*
D03*
X452769Y172113D02*
D03*
Y166995D02*
D03*
Y161876D02*
D03*
Y156758D02*
D03*
Y151640D02*
D03*
Y146522D02*
D03*
Y141404D02*
D03*
Y136286D02*
D03*
Y131168D02*
D03*
Y126050D02*
D03*
Y120931D02*
D03*
Y115813D02*
D03*
X447651Y172113D02*
D03*
Y166995D02*
D03*
Y161876D02*
D03*
Y156758D02*
D03*
Y151640D02*
D03*
Y146522D02*
D03*
Y141404D02*
D03*
Y136286D02*
D03*
X442533Y172113D02*
D03*
Y166995D02*
D03*
Y161876D02*
D03*
Y156758D02*
D03*
X513500Y181500D02*
D03*
X574254Y137254D02*
D03*
X584000Y117000D02*
D03*
X525000Y188000D02*
D03*
X644500Y494500D02*
D03*
X624500Y508000D02*
D03*
X544500Y282500D02*
D03*
X763179Y337878D02*
D03*
X404500Y541000D02*
D03*
X597000Y303500D02*
D03*
X979934Y417782D02*
D03*
Y407546D02*
D03*
X974816Y417782D02*
D03*
X969698D02*
D03*
X964580Y284711D02*
D03*
X959462Y325656D02*
D03*
Y320538D02*
D03*
Y289829D02*
D03*
X949226Y387073D02*
D03*
Y300065D02*
D03*
X944108Y381955D02*
D03*
Y305183D02*
D03*
X938989Y387073D02*
D03*
X933871Y361483D02*
D03*
Y335892D02*
D03*
Y315420D02*
D03*
X928753Y397309D02*
D03*
Y361483D02*
D03*
Y330774D02*
D03*
Y320538D02*
D03*
X923635Y325656D02*
D03*
X918517Y407546D02*
D03*
X908281Y417782D02*
D03*
X903163Y392191D02*
D03*
X898044Y284711D02*
D03*
X892926Y289829D02*
D03*
Y284711D02*
D03*
X882690Y407546D02*
D03*
Y320538D02*
D03*
Y310301D02*
D03*
Y305183D02*
D03*
Y300065D02*
D03*
Y294947D02*
D03*
Y289829D02*
D03*
Y284711D02*
D03*
X877572Y341010D02*
D03*
Y325656D02*
D03*
Y320538D02*
D03*
Y310301D02*
D03*
Y305183D02*
D03*
Y300065D02*
D03*
Y294947D02*
D03*
Y289829D02*
D03*
Y284711D02*
D03*
X872454Y407546D02*
D03*
Y346128D02*
D03*
Y330774D02*
D03*
Y325656D02*
D03*
Y320538D02*
D03*
Y310301D02*
D03*
Y305183D02*
D03*
Y300065D02*
D03*
Y294947D02*
D03*
Y289829D02*
D03*
Y284711D02*
D03*
X867336Y407546D02*
D03*
Y351246D02*
D03*
Y335892D02*
D03*
Y330774D02*
D03*
Y325656D02*
D03*
Y320538D02*
D03*
Y310301D02*
D03*
Y305183D02*
D03*
Y300065D02*
D03*
Y294947D02*
D03*
Y289829D02*
D03*
Y284711D02*
D03*
X862218Y407546D02*
D03*
Y356364D02*
D03*
Y341010D02*
D03*
Y335892D02*
D03*
Y330774D02*
D03*
Y325656D02*
D03*
Y315420D02*
D03*
Y310301D02*
D03*
Y305183D02*
D03*
Y300065D02*
D03*
Y294947D02*
D03*
Y289829D02*
D03*
Y284711D02*
D03*
Y520144D02*
D03*
Y509908D02*
D03*
Y499672D02*
D03*
Y489435D02*
D03*
Y484317D02*
D03*
Y479199D02*
D03*
Y474081D02*
D03*
X857100Y520144D02*
D03*
Y509908D02*
D03*
Y499672D02*
D03*
Y489435D02*
D03*
Y484317D02*
D03*
Y479199D02*
D03*
X851982Y509908D02*
D03*
Y499672D02*
D03*
Y489435D02*
D03*
Y484317D02*
D03*
X846863Y489435D02*
D03*
X752920Y498708D02*
D03*
X796500Y492500D02*
D03*
X916000Y353500D02*
D03*
X920500Y361408D02*
D03*
X739481Y510500D02*
D03*
X723000Y276500D02*
D03*
X757519Y260519D02*
D03*
X759852Y402640D02*
D03*
X862500Y153209D02*
D03*
X864000Y136500D02*
D03*
X859520Y158608D02*
D03*
X826420Y128508D02*
D03*
X784020Y88208D02*
D03*
X599000Y98000D02*
D03*
X607500Y106500D02*
D03*
X664520Y126108D02*
D03*
X833000Y163500D02*
D03*
X649568Y528187D02*
D03*
X626500D02*
D03*
X631462Y529987D02*
D03*
Y526825D02*
D03*
X640500Y528187D02*
D03*
X691929Y536721D02*
D03*
X689500Y527405D02*
D03*
X714261Y531759D02*
D03*
X721835Y533909D02*
D03*
X619220Y180508D02*
D03*
X617004Y159004D02*
D03*
X669000Y466500D02*
D03*
X636504Y519004D02*
D03*
X788500Y401089D02*
D03*
X651722Y96281D02*
D03*
X687992Y98081D02*
D03*
X649082Y101908D02*
D03*
X750500Y519500D02*
D03*
X825500Y533000D02*
D03*
X731500Y502000D02*
D03*
X727500Y511500D02*
D03*
X657220Y527408D02*
D03*
X644500Y527500D02*
D03*
X698588Y529508D02*
D03*
X721500Y513719D02*
D03*
X692000Y515519D02*
D03*
X672500Y512500D02*
D03*
X658000Y508000D02*
D03*
X750841Y504583D02*
D03*
X944500Y392000D02*
D03*
X809000Y238500D02*
D03*
X816500Y234000D02*
D03*
X785000Y245500D02*
D03*
X880000Y121500D02*
D03*
X717500Y98000D02*
D03*
X679000Y146500D02*
D03*
X664270Y132058D02*
D03*
X168500Y266000D02*
D03*
X147500Y238500D02*
D03*
X1039974Y347974D02*
D03*
X867500Y538750D02*
D03*
X107767Y310046D02*
D03*
X100092Y306115D02*
D03*
X93839Y302339D02*
D03*
X691929Y82929D02*
D03*
X692228Y87599D02*
D03*
X729331Y85827D02*
D03*
X890500Y500208D02*
D03*
X930500Y463608D02*
D03*
X933520Y325108D02*
D03*
X840299Y183201D02*
D03*
X757000Y177000D02*
D03*
X826000Y219500D02*
D03*
X791500Y458500D02*
D03*
X895500Y316000D02*
D03*
X791500Y445500D02*
D03*
X796500Y462500D02*
D03*
X982598Y246902D02*
D03*
X910500Y329214D02*
D03*
X811500Y425860D02*
D03*
X1014281Y353500D02*
D03*
X905500Y364028D02*
D03*
X951800Y194200D02*
D03*
X939174Y202362D02*
D03*
X748820Y168608D02*
D03*
X874420Y212608D02*
D03*
X820263Y409441D02*
D03*
X749220Y195008D02*
D03*
X1030500Y332500D02*
D03*
X945020Y187808D02*
D03*
X843720Y358608D02*
D03*
X875020Y369008D02*
D03*
X900500D02*
D03*
X808000Y515500D02*
D03*
X770320Y90908D02*
D03*
X904720Y259208D02*
D03*
X865420Y202508D02*
D03*
X888020Y419608D02*
D03*
X708510Y502510D02*
D03*
X618000Y191325D02*
D03*
X686000Y112000D02*
D03*
X676000Y382500D02*
D03*
X910500Y382908D02*
D03*
X971520Y250508D02*
D03*
X1057220Y198508D02*
D03*
X1048620Y189908D02*
D03*
X984000Y177500D02*
D03*
X930500Y500208D02*
D03*
X730220Y135908D02*
D03*
X723720Y129408D02*
D03*
X664820Y80808D02*
D03*
X644685D02*
D03*
X1054000Y266500D02*
D03*
X895500Y400208D02*
D03*
X879920Y401208D02*
D03*
X876320Y503108D02*
D03*
X740620Y541808D02*
D03*
X932500Y438491D02*
D03*
X695420Y163208D02*
D03*
X806520Y500208D02*
D03*
X735620Y550408D02*
D03*
X893420Y511908D02*
D03*
X915520Y385408D02*
D03*
X756820Y167908D02*
D03*
X813720Y500208D02*
D03*
X969520Y178208D02*
D03*
X1055705Y253295D02*
D03*
X605820Y221708D02*
D03*
Y417708D02*
D03*
X843720Y158108D02*
D03*
X747020Y257908D02*
D03*
X415020Y251508D02*
D03*
X451720Y214808D02*
D03*
X845500Y100500D02*
D03*
X643048Y83908D02*
D03*
X996000Y371500D02*
D03*
X937000D02*
D03*
X816500Y367000D02*
D03*
X100239Y323739D02*
D03*
X119222Y353691D02*
D03*
X89259Y298241D02*
D03*
X116511Y313989D02*
D03*
X104750Y333000D02*
D03*
X837469Y115469D02*
D03*
X787700Y392500D02*
D03*
X885620Y512508D02*
D03*
X629420Y557608D02*
D03*
X876320Y177008D02*
D03*
X940325Y188825D02*
D03*
X746000Y101000D02*
D03*
X857500Y146000D02*
D03*
X114701Y170799D02*
D03*
X837181Y121681D02*
D03*
X728568Y530000D02*
D03*
X138520Y115908D02*
D03*
X699320Y118508D02*
D03*
X997000Y186500D02*
D03*
X869920Y202108D02*
D03*
X625500Y62508D02*
D03*
X1036000Y252008D02*
D03*
X913000Y284500D02*
D03*
X957500Y329000D02*
D03*
X1029620Y252508D02*
D03*
X826000Y497250D02*
D03*
X729331Y79557D02*
D03*
X806500Y394500D02*
D03*
X815908Y412481D02*
D03*
X782504Y412996D02*
D03*
X1024500Y347500D02*
D03*
X835500Y396000D02*
D03*
Y473000D02*
D03*
X789000Y486000D02*
D03*
X829775Y395225D02*
D03*
X788903Y107798D02*
D03*
X731792D02*
D03*
X998500Y362500D02*
D03*
X925500Y367000D02*
D03*
M02*
