G04*
G04 #@! TF.GenerationSoftware,Altium Limited,Altium Designer,22.11.1 (43)*
G04*
G04 Layer_Color=32768*
%FSLAX25Y25*%
%MOIN*%
G70*
G04*
G04 #@! TF.SameCoordinates,C01CB905-4FAA-478C-A3D6-3825F8E537A0*
G04*
G04*
G04 #@! TF.FilePolarity,Positive*
G04*
G01*
G75*
%ADD46C,0.00394*%
D46*
X234583Y504685D02*
G03*
X238520Y504685I1969J0D01*
G01*
X242457D02*
G03*
X246394Y504685I1969J0D01*
G01*
X250331D02*
G03*
X254268Y504685I1969J0D01*
G01*
X258205D02*
G03*
X262142Y504685I1969J0D01*
G01*
X266079D02*
G03*
X270016Y504685I1969J0D01*
G01*
X273953D02*
G03*
X277890Y504685I1969J0D01*
G01*
X281827D02*
G03*
X285764Y504685I1969J0D01*
G01*
X289701Y501929D02*
G03*
X293638Y501929I1969J0D01*
G01*
X297575Y504685D02*
G03*
X301512Y504685I1969J0D01*
G01*
X234583Y504685D02*
Y520433D01*
X238520Y504685D02*
Y520433D01*
X242457Y504685D02*
Y520433D01*
X246394Y504685D02*
Y520433D01*
X250331Y504685D02*
Y520433D01*
X254268Y504685D02*
Y520433D01*
X258205Y504685D02*
Y520433D01*
X262142Y504685D02*
Y520433D01*
X266079Y504685D02*
Y520433D01*
X270016Y504685D02*
Y520433D01*
X277890Y504685D02*
Y520433D01*
X273953Y504685D02*
Y520433D01*
X281827Y504685D02*
Y520433D01*
X285764Y504685D02*
Y520433D01*
X289701Y501929D02*
Y520433D01*
X293638Y501929D02*
Y520433D01*
X297575Y504685D02*
Y520433D01*
X301512Y504685D02*
Y520433D01*
X307417Y547992D02*
X323362D01*
X307417Y532244D02*
Y547992D01*
X228677Y532244D02*
X307417D01*
X228677D02*
Y547992D01*
X212732D02*
X228677D01*
X212732Y520433D02*
Y547992D01*
Y520433D02*
X323165D01*
X323362Y547992D01*
M02*
