G04*
G04 #@! TF.GenerationSoftware,Altium Limited,Altium Designer,22.11.1 (43)*
G04*
G04 Layer_Color=65535*
%FSLAX25Y25*%
%MOIN*%
G70*
G04*
G04 #@! TF.SameCoordinates,C01CB905-4FAA-478C-A3D6-3825F8E537A0*
G04*
G04*
G04 #@! TF.FilePolarity,Positive*
G04*
G01*
G75*
%ADD10C,0.00984*%
%ADD11C,0.00787*%
%ADD12C,0.00500*%
%ADD13C,0.01968*%
%ADD14C,0.01000*%
%ADD15C,0.00800*%
G36*
X1225443Y605581D02*
X1225741D01*
Y605283D01*
X1226040D01*
Y604984D01*
X1229621D01*
Y522914D01*
X1146655D01*
Y523212D01*
X1146954D01*
Y525003D01*
X1147252D01*
Y525600D01*
X1146655D01*
Y525898D01*
X1146357D01*
Y526197D01*
X1142477D01*
Y526495D01*
X1142179D01*
Y609759D01*
X1225443D01*
Y605581D01*
D02*
G37*
G36*
X1203657Y474269D02*
X1203359D01*
Y473970D01*
X1164263D01*
Y474269D01*
X1163965D01*
Y479640D01*
X1198584D01*
Y490384D01*
X1198285D01*
Y490683D01*
X1197987D01*
Y490384D01*
X1164263D01*
Y490683D01*
X1163965D01*
Y496055D01*
X1164263D01*
Y496353D01*
X1198584D01*
Y507395D01*
X1163965D01*
Y512469D01*
X1203657D01*
Y474269D01*
D02*
G37*
G36*
X1203359Y462630D02*
X1203657D01*
Y440844D01*
X1163965D01*
Y446215D01*
X1181573D01*
Y457258D01*
X1181274D01*
Y457556D01*
X1163965D01*
Y462630D01*
X1164263D01*
Y462928D01*
X1203359D01*
Y462630D01*
D02*
G37*
G36*
Y429205D02*
X1203657D01*
Y407419D01*
X1199479D01*
Y407120D01*
X1199181D01*
Y407419D01*
X1198584D01*
Y415178D01*
X1198285D01*
Y415476D01*
X1163965D01*
Y420550D01*
X1164263D01*
Y420848D01*
X1198584D01*
Y429205D01*
X1198882D01*
Y429503D01*
X1203359D01*
Y429205D01*
D02*
G37*
G36*
Y395779D02*
X1203657D01*
Y375486D01*
X1203359D01*
Y375187D01*
X1181871D01*
Y375486D01*
X1181573D01*
Y380858D01*
X1181274D01*
Y381156D01*
X1180976D01*
Y380858D01*
X1180677D01*
Y380559D01*
X1179782D01*
Y380261D01*
X1179484D01*
Y379962D01*
X1178887D01*
Y379664D01*
X1178290D01*
Y379365D01*
X1177693D01*
Y379067D01*
X1177394D01*
Y378769D01*
X1176798D01*
Y378470D01*
X1175902D01*
Y378172D01*
X1175604D01*
Y377873D01*
X1175007D01*
Y377575D01*
X1174410D01*
Y377276D01*
X1173813D01*
Y376978D01*
X1173515D01*
Y376679D01*
X1172918D01*
Y376381D01*
X1172321D01*
Y376083D01*
X1171724D01*
Y375784D01*
X1171127D01*
Y375486D01*
X1170531D01*
Y375187D01*
X1169934D01*
Y374889D01*
X1169635D01*
Y374590D01*
X1169038D01*
Y374292D01*
X1168441D01*
Y373994D01*
X1167844D01*
Y373695D01*
X1167248D01*
Y373397D01*
X1166949D01*
Y373098D01*
X1166352D01*
Y372800D01*
X1165755D01*
Y372501D01*
X1165159D01*
Y372203D01*
X1164562D01*
Y371904D01*
X1163965D01*
Y378769D01*
X1164562D01*
Y379067D01*
X1164860D01*
Y379365D01*
X1165457D01*
Y379664D01*
X1166054D01*
Y379962D01*
X1166651D01*
Y380261D01*
X1166949D01*
Y380559D01*
X1167844D01*
Y380858D01*
X1168441D01*
Y381156D01*
X1168740D01*
Y381454D01*
X1169337D01*
Y381753D01*
X1169934D01*
Y382051D01*
X1170531D01*
Y382350D01*
X1170829D01*
Y382648D01*
X1171426D01*
Y382947D01*
X1172023D01*
Y383245D01*
X1172620D01*
Y383544D01*
X1172918D01*
Y383842D01*
X1173813D01*
Y384140D01*
X1174112D01*
Y384439D01*
X1174709D01*
Y384737D01*
X1175305D01*
Y385036D01*
X1175902D01*
Y385334D01*
X1176499D01*
Y385633D01*
X1177096D01*
Y385931D01*
X1177394D01*
Y386229D01*
X1177991D01*
Y386528D01*
X1178588D01*
Y386826D01*
X1179185D01*
Y387125D01*
X1179782D01*
Y387423D01*
X1180379D01*
Y387722D01*
X1180677D01*
Y388020D01*
X1181274D01*
Y388319D01*
X1181573D01*
Y390408D01*
X1181274D01*
Y390706D01*
X1171127D01*
Y390408D01*
X1164263D01*
Y390706D01*
X1163965D01*
Y395779D01*
X1164263D01*
Y396078D01*
X1203359D01*
Y395779D01*
D02*
G37*
G36*
X1203657Y340569D02*
X1203359D01*
Y340270D01*
X1164263D01*
Y340569D01*
X1163965D01*
Y362354D01*
X1203657D01*
Y340569D01*
D02*
G37*
G36*
X1203359Y328631D02*
X1203657D01*
Y323856D01*
X1203359D01*
Y323558D01*
X1202762D01*
Y323259D01*
X1202165D01*
Y322961D01*
X1201568D01*
Y322662D01*
X1201270D01*
Y322364D01*
X1200673D01*
Y322065D01*
X1200076D01*
Y321767D01*
X1199479D01*
Y321468D01*
X1198882D01*
Y321170D01*
X1198285D01*
Y320872D01*
X1197688D01*
Y320573D01*
X1197091D01*
Y320275D01*
X1196494D01*
Y319976D01*
X1195898D01*
Y319678D01*
X1195301D01*
Y319379D01*
X1194704D01*
Y319081D01*
X1194107D01*
Y318783D01*
X1193510D01*
Y318484D01*
X1192913D01*
Y318186D01*
X1192615D01*
Y317887D01*
X1192018D01*
Y317589D01*
X1191123D01*
Y317290D01*
X1190824D01*
Y316992D01*
X1190227D01*
Y316693D01*
X1189631D01*
Y316395D01*
X1189034D01*
Y316097D01*
X1188437D01*
Y315798D01*
X1187840D01*
Y315500D01*
X1187243D01*
Y315201D01*
X1186646D01*
Y314903D01*
X1186049D01*
Y314604D01*
X1185751D01*
Y314306D01*
X1184855D01*
Y314008D01*
X1184557D01*
Y313709D01*
X1183960D01*
Y313411D01*
X1183065D01*
Y313112D01*
X1182468D01*
Y312515D01*
X1203359D01*
Y312217D01*
X1203657D01*
Y307143D01*
X1203359D01*
Y306845D01*
X1163965D01*
Y311023D01*
X1164263D01*
Y311322D01*
X1164860D01*
Y311620D01*
X1165159D01*
Y311918D01*
X1166054D01*
Y312217D01*
X1166651D01*
Y312515D01*
X1167248D01*
Y312814D01*
X1167546D01*
Y313112D01*
X1168441D01*
Y313411D01*
X1168740D01*
Y313709D01*
X1169337D01*
Y314008D01*
X1169934D01*
Y314306D01*
X1170531D01*
Y314604D01*
X1171127D01*
Y314903D01*
X1171724D01*
Y315201D01*
X1172321D01*
Y315500D01*
X1172918D01*
Y315798D01*
X1173515D01*
Y316097D01*
X1174112D01*
Y316395D01*
X1174709D01*
Y316693D01*
X1175305D01*
Y316992D01*
X1175902D01*
Y317290D01*
X1176499D01*
Y317589D01*
X1177096D01*
Y317887D01*
X1177693D01*
Y318186D01*
X1178290D01*
Y318484D01*
X1178887D01*
Y318783D01*
X1179484D01*
Y319081D01*
X1180081D01*
Y319379D01*
X1180677D01*
Y319678D01*
X1181274D01*
Y319976D01*
X1181871D01*
Y320275D01*
X1182468D01*
Y320573D01*
X1182766D01*
Y320872D01*
X1183662D01*
Y321170D01*
X1184259D01*
Y321468D01*
X1184855D01*
Y321767D01*
X1185154D01*
Y322065D01*
X1186049D01*
Y322364D01*
X1186646D01*
Y322662D01*
X1187243D01*
Y322961D01*
X1187840D01*
Y323259D01*
X1188138D01*
Y323558D01*
X1164263D01*
Y323856D01*
X1163965D01*
Y328631D01*
X1164263D01*
Y328929D01*
X1203359D01*
Y328631D01*
D02*
G37*
G36*
X1203657Y282672D02*
X1203060D01*
Y282373D01*
X1198882D01*
Y282672D01*
X1198584D01*
Y287148D01*
X1169038D01*
Y282373D01*
X1168740D01*
Y282075D01*
X1164263D01*
Y282373D01*
X1163965D01*
Y296997D01*
X1164263D01*
Y297295D01*
X1168740D01*
Y296997D01*
X1169038D01*
Y292818D01*
X1169337D01*
Y292520D01*
X1198285D01*
Y292818D01*
X1198584D01*
Y297593D01*
X1203657D01*
Y282672D01*
D02*
G37*
G36*
X1165159Y275808D02*
X1165755D01*
Y275509D01*
X1166949D01*
Y275211D01*
X1167546D01*
Y274912D01*
X1168143D01*
Y274614D01*
X1169038D01*
Y274315D01*
X1169934D01*
Y274017D01*
X1170531D01*
Y273719D01*
X1171127D01*
Y273420D01*
X1172321D01*
Y273122D01*
X1172918D01*
Y272823D01*
X1173813D01*
Y272525D01*
X1174410D01*
Y272226D01*
X1175305D01*
Y271928D01*
X1175902D01*
Y271629D01*
X1176798D01*
Y271331D01*
X1177394D01*
Y271033D01*
X1178290D01*
Y270734D01*
X1178887D01*
Y270436D01*
X1179782D01*
Y270137D01*
X1180677D01*
Y269839D01*
X1181274D01*
Y269540D01*
X1182170D01*
Y269242D01*
X1182766D01*
Y268944D01*
X1183662D01*
Y268645D01*
X1184259D01*
Y268347D01*
X1186049D01*
Y268645D01*
X1186646D01*
Y268944D01*
X1187541D01*
Y269242D01*
X1188138D01*
Y269540D01*
X1188735D01*
Y269839D01*
X1189631D01*
Y270137D01*
X1190526D01*
Y270436D01*
X1191123D01*
Y270734D01*
X1191720D01*
Y271033D01*
X1192615D01*
Y271331D01*
X1193212D01*
Y271629D01*
X1194107D01*
Y271928D01*
X1194704D01*
Y272226D01*
X1195599D01*
Y272525D01*
X1196196D01*
Y272823D01*
X1196793D01*
Y273122D01*
X1197390D01*
Y273420D01*
X1198285D01*
Y273719D01*
X1199181D01*
Y274017D01*
X1199777D01*
Y274315D01*
X1200673D01*
Y274614D01*
X1201270D01*
Y274912D01*
X1202165D01*
Y275211D01*
X1202463D01*
Y275509D01*
X1203657D01*
Y274912D01*
Y274614D01*
Y268347D01*
X1203060D01*
Y268048D01*
X1202165D01*
Y267750D01*
X1201270D01*
Y267451D01*
X1200374D01*
Y267153D01*
X1199479D01*
Y266854D01*
X1198584D01*
Y266556D01*
X1197688D01*
Y266258D01*
X1196793D01*
Y265959D01*
X1196196D01*
Y265661D01*
X1195002D01*
Y265362D01*
X1194107D01*
Y265064D01*
X1193212D01*
Y264765D01*
X1192615D01*
Y264467D01*
X1191421D01*
Y264169D01*
X1190824D01*
Y263870D01*
X1189631D01*
Y263572D01*
X1188735D01*
Y263273D01*
X1187840D01*
Y262975D01*
X1187243D01*
Y262676D01*
X1186646D01*
Y261483D01*
X1186944D01*
Y261184D01*
X1187840D01*
Y260886D01*
X1188437D01*
Y260587D01*
X1189332D01*
Y260289D01*
X1190227D01*
Y259990D01*
X1191421D01*
Y259692D01*
X1192018D01*
Y259394D01*
X1192913D01*
Y259095D01*
X1193809D01*
Y258797D01*
X1194704D01*
Y258498D01*
X1195599D01*
Y258200D01*
X1196494D01*
Y257901D01*
X1197688D01*
Y257603D01*
X1198285D01*
Y257304D01*
X1199181D01*
Y257006D01*
X1200076D01*
Y256708D01*
X1201270D01*
Y256409D01*
X1201866D01*
Y256111D01*
X1202762D01*
Y255812D01*
X1203359D01*
Y255514D01*
X1203657D01*
Y248351D01*
X1203359D01*
Y248053D01*
X1203060D01*
Y248351D01*
X1202463D01*
Y248650D01*
X1201866D01*
Y248948D01*
X1200971D01*
Y249247D01*
X1200374D01*
Y249545D01*
X1199479D01*
Y249844D01*
X1198882D01*
Y250142D01*
X1197987D01*
Y250440D01*
X1197390D01*
Y250739D01*
X1196494D01*
Y251037D01*
X1195898D01*
Y251336D01*
X1195002D01*
Y251634D01*
X1194405D01*
Y251933D01*
X1193809D01*
Y252231D01*
X1192913D01*
Y252529D01*
X1192018D01*
Y252828D01*
X1191421D01*
Y253126D01*
X1190824D01*
Y253425D01*
X1189929D01*
Y253723D01*
X1189332D01*
Y254022D01*
X1188437D01*
Y254320D01*
X1187840D01*
Y254619D01*
X1186944D01*
Y254917D01*
X1186348D01*
Y255215D01*
X1185751D01*
Y255514D01*
X1184855D01*
Y255215D01*
X1183960D01*
Y254917D01*
X1183363D01*
Y254619D01*
X1182468D01*
Y254320D01*
X1181871D01*
Y254022D01*
X1180976D01*
Y253723D01*
X1180379D01*
Y253425D01*
X1179185D01*
Y253126D01*
X1178588D01*
Y252828D01*
X1177991D01*
Y252529D01*
X1177096D01*
Y252231D01*
X1176201D01*
Y251933D01*
X1175604D01*
Y251634D01*
X1175007D01*
Y251336D01*
X1174112D01*
Y251037D01*
X1173216D01*
Y250739D01*
X1172321D01*
Y250440D01*
X1171724D01*
Y250142D01*
X1170829D01*
Y249844D01*
X1170232D01*
Y249545D01*
X1169337D01*
Y249247D01*
X1168740D01*
Y248948D01*
X1167844D01*
Y248650D01*
X1167248D01*
Y248351D01*
X1166352D01*
Y248053D01*
X1165457D01*
Y247754D01*
X1164860D01*
Y247456D01*
X1163965D01*
Y254917D01*
X1164263D01*
Y255215D01*
X1164860D01*
Y255514D01*
X1165755D01*
Y255812D01*
X1166651D01*
Y256111D01*
X1167546D01*
Y256409D01*
X1168143D01*
Y256708D01*
X1169337D01*
Y257006D01*
X1169934D01*
Y257304D01*
X1170829D01*
Y257603D01*
X1171426D01*
Y257901D01*
X1172620D01*
Y258200D01*
X1173216D01*
Y258498D01*
X1174112D01*
Y258797D01*
X1175007D01*
Y259095D01*
X1175902D01*
Y259394D01*
X1176499D01*
Y259692D01*
X1177394D01*
Y259990D01*
X1178290D01*
Y260289D01*
X1179185D01*
Y260587D01*
X1180081D01*
Y260886D01*
X1180677D01*
Y261184D01*
X1181274D01*
Y261483D01*
X1181573D01*
Y262676D01*
X1181274D01*
Y262975D01*
X1180677D01*
Y263273D01*
X1179484D01*
Y263572D01*
X1178887D01*
Y263870D01*
X1177991D01*
Y264169D01*
X1177394D01*
Y264467D01*
X1176201D01*
Y264765D01*
X1175604D01*
Y265064D01*
X1174709D01*
Y265362D01*
X1173813D01*
Y265661D01*
X1172918D01*
Y265959D01*
X1172023D01*
Y266258D01*
X1171426D01*
Y266556D01*
X1170531D01*
Y266854D01*
X1169635D01*
Y267153D01*
X1168740D01*
Y267451D01*
X1168143D01*
Y267750D01*
X1166949D01*
Y268048D01*
X1166352D01*
Y268347D01*
X1165457D01*
Y268645D01*
X1164860D01*
Y268944D01*
X1163965D01*
Y276106D01*
X1165159D01*
Y275808D01*
D02*
G37*
G36*
X361031Y199689D02*
X361162Y199610D01*
X361268Y199347D01*
X361215Y198662D01*
X361241Y190943D01*
X361031Y190679D01*
X360609Y190574D01*
X228566D01*
X204328Y190627D01*
X203959Y190837D01*
X203880Y191127D01*
X203932Y191338D01*
X203906Y199426D01*
X204117Y199689D01*
X204644Y199742D01*
X361031Y199689D01*
D02*
G37*
G36*
X204696Y189204D02*
X204828Y189072D01*
X204881Y188861D01*
X204828Y181274D01*
X204696Y181089D01*
X204486Y181037D01*
X196319Y180984D01*
X196266Y180773D01*
X196240Y180325D01*
X196292Y180167D01*
X196266Y179298D01*
X196292Y57134D01*
X196240Y56976D01*
X196213Y55896D01*
X196240Y55343D01*
X196029Y54974D01*
X195871Y54710D01*
X195818Y54499D01*
X195871Y53182D01*
X196055Y52998D01*
X196266Y52945D01*
X196529Y52998D01*
X196608Y53077D01*
X196846Y53577D01*
X197056Y53630D01*
X198057Y53577D01*
X204512Y53604D01*
X204696Y53525D01*
X204881Y53340D01*
X204934Y53235D01*
X205065Y53050D01*
X205171Y52998D01*
X205250Y52919D01*
X205355Y52655D01*
X205381Y46727D01*
X205355Y46227D01*
X205540Y45937D01*
X205856Y45884D01*
X206014Y45937D01*
X213865Y45884D01*
X214049Y45700D01*
X214102Y45226D01*
X214234Y45094D01*
X214602Y44989D01*
X310237Y45041D01*
X310500Y45199D01*
X310526Y45278D01*
X310316Y45489D01*
X310263Y45595D01*
X310157Y45700D01*
X310184Y52734D01*
X310079Y52998D01*
X309868Y53050D01*
X301384Y53103D01*
X301095Y53340D01*
X301042Y53551D01*
X300989Y56607D01*
X300963Y61428D01*
X300989Y61823D01*
X300805Y62061D01*
X300436Y62113D01*
X299777Y62087D01*
X292532Y62113D01*
X292374Y62061D01*
X291953Y62113D01*
X291768Y62245D01*
X291716Y62614D01*
X291768Y108771D01*
X292005Y109061D01*
X292348Y109087D01*
X297380Y109061D01*
X297538Y109114D01*
X300515Y109087D01*
X300726Y109140D01*
X300884Y109298D01*
X300937Y109509D01*
X300989Y145391D01*
X301121Y145523D01*
X301542Y145628D01*
X310500Y145681D01*
X310632Y145813D01*
X310684Y146024D01*
X310632Y147025D01*
X310658Y152373D01*
X310632Y152926D01*
X310790Y153190D01*
X310869Y153269D01*
X311132Y153374D01*
X311527Y153400D01*
X327572Y153374D01*
X327730Y153427D01*
X328072Y153348D01*
X328257Y153216D01*
X328336Y153137D01*
X328441Y152768D01*
X328389Y152241D01*
X328441Y146761D01*
X328626Y146577D01*
X328836Y146524D01*
X331840Y146577D01*
X332314Y146840D01*
X332393Y146919D01*
X332446Y147130D01*
X332340Y147552D01*
X332393Y148237D01*
X332367Y153321D01*
X332472Y153427D01*
X332841Y153479D01*
X332999Y153427D01*
X341324Y153479D01*
X341377Y153532D01*
X341640Y153374D01*
X341667Y152926D01*
X341614Y152768D01*
X341667Y152557D01*
X341640Y144417D01*
X341667Y143863D01*
X341482Y143679D01*
X341166Y143732D01*
X340903Y143837D01*
X340745Y143784D01*
X338136Y143758D01*
X337926Y143811D01*
X337636Y143837D01*
X337451Y143653D01*
X337293Y143284D01*
X337241Y142441D01*
X337320Y136987D01*
X337530Y136724D01*
X338242Y136750D01*
X345750Y136724D01*
X345908Y136776D01*
X346304Y136697D01*
X346567Y136434D01*
X346620Y135907D01*
X346567Y135538D01*
X346593Y127661D01*
X346567Y127160D01*
X346699Y127029D01*
X347067Y126976D01*
X368961Y126950D01*
X369171Y127002D01*
X369330Y127160D01*
X369382Y127371D01*
X369330Y127898D01*
X369356Y179825D01*
X369330Y180220D01*
X369567Y180510D01*
X369935Y180615D01*
X377734Y180563D01*
X378024Y180325D01*
X378076Y179957D01*
X378024Y179746D01*
X377997Y127239D01*
X378129Y127055D01*
X378208Y126976D01*
X378419Y126923D01*
X378893Y126871D01*
X379051Y126923D01*
X381554Y126897D01*
X381817Y127002D01*
X381975Y127371D01*
X381923Y127582D01*
X381975Y136381D01*
X382160Y136566D01*
X382529Y136618D01*
X390748Y136671D01*
X390880Y136750D01*
X390985Y137013D01*
X391038Y145286D01*
X391223Y145470D01*
X391591Y145523D01*
X400206Y145497D01*
X400391Y145628D01*
X400470Y145707D01*
X400523Y146234D01*
X400470Y146603D01*
X400496Y152426D01*
X400470Y152926D01*
X400628Y153190D01*
X400707Y153269D01*
X400918Y153321D01*
X401919Y153269D01*
X418490Y153295D01*
X418754Y153190D01*
X418912Y153032D01*
X418964Y152821D01*
X418938Y152110D01*
X418964Y147394D01*
X418912Y147236D01*
X418964Y146761D01*
X419202Y146472D01*
X419570Y146366D01*
X428027Y146393D01*
X428238Y146340D01*
X428501Y146129D01*
X428607Y145760D01*
X428581Y145049D01*
X428607Y110879D01*
X428554Y110721D01*
X428607Y110510D01*
X428659Y110036D01*
X428844Y109851D01*
X429213Y109799D01*
X437459Y109772D01*
X437432Y62640D01*
X429186Y62666D01*
X428976Y62614D01*
X428712Y62456D01*
X428659Y62087D01*
X428712Y61876D01*
X428659Y53656D01*
X428528Y53525D01*
X428264Y53419D01*
X427869Y53393D01*
X419412Y53419D01*
X419254Y53367D01*
X418885Y53419D01*
X418411Y53630D01*
X418200Y53577D01*
X418069Y53288D01*
X418016Y44541D01*
X417832Y44356D01*
X417199Y44251D01*
X416672Y44304D01*
X407899Y44277D01*
X407504Y44304D01*
X407267Y44119D01*
X407214Y43751D01*
X407241Y35715D01*
X407135Y35452D01*
X406872Y35346D01*
X394753Y35294D01*
X394568Y35162D01*
X394516Y34793D01*
X394568Y34582D01*
X394621Y25625D01*
X394674Y25467D01*
X394700Y25230D01*
X394648Y19223D01*
X394595Y19012D01*
X394542Y18327D01*
X394410Y18143D01*
X394173Y18064D01*
X393936Y18037D01*
X368118Y18090D01*
X367933Y18169D01*
X367801Y18301D01*
X367749Y18511D01*
X367722Y25493D01*
X367801Y25677D01*
X367881Y25756D01*
X368302Y25862D01*
X368671Y25915D01*
X369198Y25862D01*
X386085Y25888D01*
X386533Y25862D01*
X386665Y25941D01*
X386718Y26152D01*
X386665Y27153D01*
X386691Y35083D01*
X386586Y35188D01*
X386375Y35241D01*
X386006Y35188D01*
X367643Y35214D01*
X367485Y35056D01*
X367433Y34846D01*
X367485Y34688D01*
X367538Y34319D01*
X367485Y33950D01*
X367512Y26020D01*
X367406Y25862D01*
X367116Y25783D01*
X366853Y25730D01*
X366458Y25704D01*
X366300Y25756D01*
X359318Y25730D01*
X359134Y25809D01*
X359055Y25888D01*
X359002Y26099D01*
X358949Y34372D01*
X358765Y34556D01*
X358554Y34609D01*
X357975Y34556D01*
X357817Y34609D01*
X357658Y34556D01*
X350203Y34582D01*
X349939Y34424D01*
X349834Y34161D01*
X349781Y33792D01*
X349834Y33423D01*
X349808Y26020D01*
X349860Y25809D01*
X349913Y25546D01*
X349939Y19355D01*
X349886Y19196D01*
X349834Y18670D01*
X349781Y18301D01*
X349649Y18169D01*
X349386Y18064D01*
X323199Y18116D01*
X323067Y18248D01*
X323014Y18459D01*
X322961Y25098D01*
X322909Y25256D01*
X322961Y25467D01*
X323014Y25572D01*
X323251Y25809D01*
X323357Y25862D01*
X323515Y25915D01*
X324516Y25862D01*
X341034Y25888D01*
X341588Y25862D01*
X341772Y25994D01*
X341825Y26204D01*
X341719Y26731D01*
X341772Y26889D01*
X341719Y34213D01*
X341640Y34293D01*
X341430Y34345D01*
X340745Y34293D01*
X323673Y34240D01*
X323515Y34187D01*
X323251Y34451D01*
X322988Y34556D01*
X322751Y34424D01*
X322645Y34055D01*
X322593Y25836D01*
X322514Y25756D01*
X322145Y25704D01*
X321460Y25756D01*
X315058Y25730D01*
X314373Y25783D01*
X314162Y25888D01*
X314109Y26099D01*
X314136Y26810D01*
X314109Y33634D01*
X314162Y33792D01*
X314083Y34293D01*
X313951Y34477D01*
X313872Y34556D01*
X313662Y34609D01*
X312502Y34556D01*
X260154Y34582D01*
X259943Y34477D01*
X259890Y34372D01*
X259785Y34108D01*
X259838Y25625D01*
X259890Y25467D01*
X259838Y18986D01*
X259785Y18828D01*
X259732Y18301D01*
X259548Y18116D01*
X259179Y18064D01*
X233202Y18116D01*
X233071Y18195D01*
X232965Y18459D01*
X232939Y25493D01*
X233071Y25677D01*
X233150Y25756D01*
X233255Y25809D01*
X233519Y25915D01*
X234362Y25862D01*
X251038Y25888D01*
X251539Y25862D01*
X251776Y26046D01*
X251723Y27047D01*
X251750Y33924D01*
X251697Y34134D01*
X251591Y34293D01*
X251381Y34345D01*
X250696Y34293D01*
X234362D01*
X233624Y34240D01*
X233519Y34187D01*
X233229Y34424D01*
X232939Y34556D01*
X232702Y34424D01*
X232596Y34003D01*
X232623Y26020D01*
X232544Y25836D01*
X232465Y25756D01*
X232096Y25704D01*
X231569Y25756D01*
X225009Y25730D01*
X224324Y25783D01*
X224139Y25915D01*
X224061Y26152D01*
X224113Y26995D01*
X224061Y34266D01*
X223823Y34556D01*
X223613Y34609D01*
X222453Y34556D01*
X214629Y34582D01*
X214418Y34530D01*
X214102Y34266D01*
X214049Y34055D01*
X214075Y27601D01*
X213970Y27337D01*
X213865Y27285D01*
X213601Y27179D01*
X212943Y27206D01*
X206672Y27153D01*
X206093Y27047D01*
X205935Y26889D01*
X205961Y26073D01*
X205908Y25862D01*
X205829Y25572D01*
X205777Y25361D01*
X205724Y17774D01*
X205645Y17695D01*
X205434Y17642D01*
X178088Y17695D01*
X178008Y17774D01*
X177956Y17985D01*
X177982Y18696D01*
X177956Y45331D01*
X178008Y45489D01*
X178061Y45753D01*
X178140Y45832D01*
X178351Y45884D01*
X186729Y45937D01*
X186966Y46174D01*
X187071Y46596D01*
X187098Y57793D01*
X187071Y58346D01*
X187124Y58504D01*
X187177Y58767D01*
X187546Y59136D01*
X187651Y59558D01*
X187598Y60085D01*
X187546Y71519D01*
X187414Y71650D01*
X187203Y71703D01*
X186044Y71650D01*
X171686Y71677D01*
X171449Y71650D01*
X171291Y71703D01*
X170922Y71650D01*
X170632Y71729D01*
X170526Y71782D01*
X170474Y71887D01*
X170421Y72045D01*
X170368Y79844D01*
X170184Y80186D01*
X169973Y80239D01*
X169130Y80186D01*
X168761Y80344D01*
X168287Y80397D01*
X168129Y80344D01*
X151689Y80397D01*
X151452Y80529D01*
X151400Y80739D01*
X151373Y80871D01*
X151426Y81187D01*
X151452Y81319D01*
X151400Y81477D01*
X151426Y88670D01*
X151347Y88854D01*
X151215Y88986D01*
X150794Y89091D01*
X150135Y89065D01*
X143838Y89091D01*
X143680Y89038D01*
X143259Y89091D01*
X143180Y89170D01*
X143074Y89539D01*
X143022Y97970D01*
X142943Y98049D01*
X142732Y98101D01*
X133959Y98128D01*
X133985Y116859D01*
X142469Y116912D01*
X142548Y116991D01*
X142653Y117254D01*
X142706Y125790D01*
X142785Y125869D01*
X143048Y125975D01*
X159356Y126001D01*
X159567Y125948D01*
X159725Y125790D01*
X159777Y125422D01*
X159725Y124789D01*
X159777Y124631D01*
X159830Y118150D01*
X159883Y117992D01*
X159935Y116727D01*
X160015Y116648D01*
X160278Y116543D01*
X160489Y116490D01*
X169025Y116438D01*
X169209Y116306D01*
X169315Y116042D01*
X169367Y109193D01*
X169552Y108956D01*
X169921Y108903D01*
X170131Y108956D01*
X187282Y108929D01*
X187467Y109061D01*
X187546Y109140D01*
X187598Y109351D01*
X187625Y109693D01*
X187598Y180800D01*
X187835Y181089D01*
X188204Y181142D01*
X188573Y181089D01*
X195344Y181116D01*
X195897Y181089D01*
X196055Y181142D01*
X196161Y181195D01*
X196213Y181406D01*
X196240Y188493D01*
X196187Y188651D01*
X196266Y188993D01*
X196398Y189178D01*
X196477Y189257D01*
X204512Y189283D01*
X204696Y189204D01*
D02*
G37*
G36*
X368671Y189678D02*
X368908Y189546D01*
X369013Y189283D01*
X368961Y188124D01*
Y185226D01*
Y185173D01*
X368987Y183302D01*
X368961Y182802D01*
X369013Y182644D01*
X369066Y181801D01*
X368987Y181300D01*
X368776Y181089D01*
X368249Y181037D01*
X361031Y181089D01*
X360793Y181274D01*
X360741Y181485D01*
X360715Y182143D01*
X360741Y188967D01*
X360688Y189125D01*
X360741Y189441D01*
X360873Y189625D01*
X361241Y189731D01*
X368671Y189678D01*
D02*
G37*
G36*
X305679Y172000D02*
X305652Y171342D01*
X305679Y163464D01*
X305626Y163306D01*
X305705Y162806D01*
X305732Y162779D01*
X305679Y162621D01*
X305626Y162516D01*
X305389Y162437D01*
X305178Y162490D01*
X296431Y162542D01*
X296353Y162621D01*
X296405Y163043D01*
X296458Y163201D01*
X296405Y163886D01*
X296431Y171078D01*
X296405Y171315D01*
X296458Y171473D01*
X296405Y171790D01*
X296353Y171948D01*
X296537Y172132D01*
X302649D01*
X305099Y172106D01*
X305415Y172158D01*
X305442Y172185D01*
X305679Y172000D01*
D02*
G37*
G36*
X269269Y172738D02*
X269612Y172712D01*
X269770Y172764D01*
X277331Y172738D01*
X277884Y172764D01*
X278069Y172580D01*
X278016Y172211D01*
X277963Y172053D01*
X278016Y163517D01*
X278069Y163359D01*
X278016Y163148D01*
X277937Y163069D01*
X277568Y163016D01*
X277199Y163069D01*
X272141D01*
X268795Y163043D01*
X268690Y163148D01*
X268742Y164307D01*
X268716Y172659D01*
X268769Y172764D01*
X268980Y172817D01*
X269269Y172738D01*
D02*
G37*
G36*
X232886Y162806D02*
X232912Y161831D01*
Y161778D01*
X232939Y153532D01*
X232860Y153348D01*
X232570Y153269D01*
X232412Y153321D01*
X232201Y153374D01*
X224139Y153321D01*
X223981Y153269D01*
X223771Y153321D01*
X223692Y153400D01*
X223639Y153769D01*
X223692Y153980D01*
X223744Y162885D01*
X223981Y162964D01*
X224324Y162832D01*
X224508Y162806D01*
X224666Y162858D01*
X232280Y162832D01*
X232623Y162964D01*
X232886Y162806D01*
D02*
G37*
G36*
X269612Y136302D02*
X269691Y136065D01*
X269638Y135696D01*
X269585Y135538D01*
X269638Y135327D01*
X269585Y126844D01*
X269506Y126765D01*
X261313Y126792D01*
X260602Y126765D01*
X260417Y126897D01*
X260444Y135723D01*
X260365Y135960D01*
X260417Y136276D01*
X260654Y136355D01*
X267188D01*
X269612Y136302D01*
D02*
G37*
G36*
X241501Y119520D02*
X241528Y119283D01*
X241501Y110299D01*
X241554Y110141D01*
X241448Y109878D01*
X241211Y109799D01*
X240843Y109904D01*
X232386Y109878D01*
X232175Y110036D01*
X232228Y110457D01*
X232280Y110615D01*
X232228Y111142D01*
Y113039D01*
Y113092D01*
X232254Y119019D01*
X232175Y119309D01*
X232228Y119467D01*
X232307Y119546D01*
X232517Y119599D01*
X233202Y119546D01*
X241159Y119599D01*
X241264Y119652D01*
X241501Y119520D01*
D02*
G37*
G36*
X278437Y108455D02*
X278490Y108244D01*
X278437Y107717D01*
Y102606D01*
Y102554D01*
X278464Y98944D01*
X278306Y98786D01*
X277305Y98839D01*
X269322Y98813D01*
X269217Y98865D01*
X269164Y99076D01*
X269217Y99761D01*
X269190Y108429D01*
X269296Y108534D01*
X270771Y108481D01*
X278042Y108534D01*
X278200Y108587D01*
X278437Y108455D01*
D02*
G37*
G36*
X223718Y98944D02*
X223797Y98865D01*
X223850Y98496D01*
X223797Y98338D01*
Y97390D01*
Y97337D01*
X223744Y89434D01*
X223613Y89302D01*
X223349Y89354D01*
X223086Y89460D01*
X222559Y89407D01*
X215208Y89434D01*
X214840Y89328D01*
X214655Y89407D01*
X214576Y89486D01*
X214550Y98786D01*
X214655Y98944D01*
X214866Y98997D01*
X215156Y98918D01*
X215498Y98892D01*
X215656Y98944D01*
X223217Y98918D01*
X223454Y98997D01*
X223718Y98944D01*
D02*
G37*
G36*
X260365Y82215D02*
X260417Y81741D01*
X260365Y81583D01*
X260391Y73073D01*
X260338Y72968D01*
X259917Y72862D01*
X259390Y72915D01*
X251302Y72889D01*
X251196Y72941D01*
X251144Y73152D01*
X251170Y73758D01*
X251144Y82162D01*
X251275Y82347D01*
X251776Y82320D01*
X256386Y82347D01*
X256439D01*
X259574Y82320D01*
X260180Y82347D01*
X260365Y82215D01*
D02*
G37*
G36*
X234441Y72520D02*
X234467Y72283D01*
X234414Y72019D01*
X234388Y71677D01*
X234441Y71519D01*
X234414Y63431D01*
X234467Y63220D01*
X234493Y63088D01*
X234362Y62851D01*
X234151Y62798D01*
X233808Y62877D01*
X233571Y62904D01*
X233413Y62851D01*
X225852Y62877D01*
X225246Y62851D01*
X225114Y62983D01*
X225088Y63167D01*
X225220Y63615D01*
X225167Y63984D01*
X225193Y71966D01*
X225114Y72256D01*
X225167Y72520D01*
X225246Y72599D01*
X226115Y72572D01*
X232623Y72599D01*
X232675D01*
X233861Y72572D01*
X234072Y72625D01*
X234256Y72651D01*
X234441Y72520D01*
D02*
G37*
%LPC*%
G36*
X1216788Y602000D02*
X1199479D01*
Y601702D01*
X1198882D01*
Y601105D01*
X1198584D01*
Y600209D01*
X1198882D01*
Y599613D01*
X1199479D01*
Y599314D01*
X1216788D01*
Y599613D01*
X1217385D01*
Y600209D01*
X1217684D01*
Y601105D01*
X1217385D01*
Y601702D01*
X1216788D01*
Y602000D01*
D02*
G37*
G36*
X1168143D02*
X1150834D01*
Y601702D01*
X1150237D01*
Y601105D01*
X1149938D01*
Y600209D01*
X1150237D01*
Y599613D01*
X1150834D01*
Y599314D01*
X1168143D01*
Y599613D01*
X1168740D01*
Y600209D01*
X1169038D01*
Y601105D01*
X1168740D01*
Y601403D01*
X1168441D01*
Y601702D01*
X1168143D01*
Y602000D01*
D02*
G37*
G36*
X1189332D02*
X1178290D01*
Y601702D01*
X1177693D01*
Y601403D01*
X1176798D01*
Y601105D01*
X1176201D01*
Y600806D01*
X1175902D01*
Y600508D01*
X1175604D01*
Y600209D01*
X1175305D01*
Y599911D01*
X1175007D01*
Y599314D01*
X1174709D01*
Y598419D01*
X1174410D01*
Y594838D01*
X1174709D01*
Y594241D01*
X1175007D01*
Y593345D01*
X1175305D01*
Y593047D01*
X1175604D01*
Y592748D01*
X1175902D01*
Y592450D01*
X1176201D01*
Y592152D01*
X1177096D01*
Y591853D01*
X1177394D01*
Y591555D01*
X1178290D01*
Y591256D01*
X1189332D01*
Y591555D01*
X1190227D01*
Y591853D01*
X1190526D01*
Y592152D01*
X1191421D01*
Y592450D01*
X1191720D01*
Y592748D01*
X1192018D01*
Y593047D01*
X1192316D01*
Y593345D01*
X1192615D01*
Y594241D01*
X1192913D01*
Y594838D01*
X1193212D01*
Y598419D01*
X1192913D01*
Y599314D01*
X1192615D01*
Y599911D01*
X1192316D01*
Y600209D01*
X1192018D01*
Y600508D01*
X1191720D01*
Y600806D01*
X1191421D01*
Y601105D01*
X1190824D01*
Y601403D01*
X1189929D01*
Y601702D01*
X1189332D01*
Y602000D01*
D02*
G37*
G36*
X1214102Y590659D02*
X1202165D01*
Y590361D01*
X1201866D01*
Y590063D01*
X1200971D01*
Y589764D01*
X1200673D01*
Y589466D01*
X1200374D01*
Y589167D01*
X1200076D01*
Y588869D01*
X1199777D01*
Y588570D01*
X1199479D01*
Y587973D01*
X1199181D01*
Y587376D01*
X1198882D01*
Y586481D01*
X1198584D01*
Y584094D01*
X1198882D01*
Y583198D01*
X1199181D01*
Y582601D01*
X1199479D01*
Y582005D01*
X1199777D01*
Y581706D01*
X1200076D01*
Y581408D01*
X1200374D01*
Y581109D01*
X1201270D01*
Y580811D01*
X1201568D01*
Y580513D01*
X1202165D01*
Y579916D01*
X1214102D01*
Y580214D01*
X1214401D01*
Y580513D01*
X1214998D01*
Y580811D01*
X1215594D01*
Y581109D01*
X1215893D01*
Y581408D01*
X1216191D01*
Y581706D01*
X1216490D01*
Y582005D01*
X1216788D01*
Y582601D01*
X1217087D01*
Y583198D01*
X1217385D01*
Y584094D01*
X1217684D01*
Y586481D01*
X1217385D01*
Y587376D01*
X1217087D01*
Y587973D01*
X1216788D01*
Y588570D01*
X1216490D01*
Y588869D01*
X1216191D01*
Y589167D01*
X1215893D01*
Y589764D01*
X1215594D01*
Y590063D01*
X1214998D01*
Y590361D01*
X1214102D01*
Y590659D01*
D02*
G37*
G36*
X1165457D02*
X1153520D01*
Y590361D01*
X1152624D01*
Y590063D01*
X1152027D01*
Y589764D01*
X1151729D01*
Y589167D01*
X1151430D01*
Y588869D01*
X1151132D01*
Y588570D01*
X1150834D01*
Y587973D01*
X1150535D01*
Y587376D01*
X1150237D01*
Y586481D01*
X1149938D01*
Y584094D01*
X1150237D01*
Y583198D01*
X1150535D01*
Y582601D01*
X1150834D01*
Y582005D01*
X1151132D01*
Y581706D01*
X1151430D01*
Y581408D01*
X1151729D01*
Y581109D01*
X1152027D01*
Y580811D01*
X1152624D01*
Y580513D01*
X1153221D01*
Y580214D01*
X1153520D01*
Y579916D01*
X1165457D01*
Y580513D01*
X1166054D01*
Y580811D01*
X1166352D01*
Y581109D01*
X1167248D01*
Y581408D01*
X1167546D01*
Y581706D01*
X1167844D01*
Y582005D01*
X1168143D01*
Y582601D01*
X1168441D01*
Y583198D01*
X1168740D01*
Y584094D01*
X1169038D01*
Y586481D01*
X1168740D01*
Y587376D01*
X1168441D01*
Y587973D01*
X1168143D01*
Y588570D01*
X1167844D01*
Y588869D01*
X1167546D01*
Y589167D01*
X1167248D01*
Y589466D01*
X1166949D01*
Y589764D01*
X1166651D01*
Y590063D01*
X1165755D01*
Y590361D01*
X1165457D01*
Y590659D01*
D02*
G37*
G36*
X1189332Y586780D02*
X1178290D01*
Y586481D01*
X1177693D01*
Y586183D01*
X1177096D01*
Y585884D01*
X1176499D01*
Y585586D01*
X1176201D01*
Y585288D01*
X1175902D01*
Y584989D01*
X1175604D01*
Y584691D01*
X1175305D01*
Y584392D01*
X1175007D01*
Y583795D01*
X1174709D01*
Y583198D01*
X1174410D01*
Y579319D01*
X1174709D01*
Y578722D01*
X1175007D01*
Y578125D01*
X1175305D01*
Y577826D01*
X1175604D01*
Y577528D01*
X1175902D01*
Y577230D01*
X1176201D01*
Y576931D01*
X1176798D01*
Y576633D01*
X1177394D01*
Y576334D01*
X1178588D01*
Y576036D01*
X1189034D01*
Y576334D01*
X1190227D01*
Y576633D01*
X1191123D01*
Y576931D01*
X1191421D01*
Y577230D01*
X1191720D01*
Y577528D01*
X1192018D01*
Y577826D01*
X1192316D01*
Y578125D01*
X1192615D01*
Y578722D01*
X1192913D01*
Y579319D01*
X1193212D01*
Y583198D01*
X1192913D01*
Y583795D01*
X1192615D01*
Y584392D01*
X1192316D01*
Y584691D01*
X1192018D01*
Y584989D01*
X1191720D01*
Y585288D01*
X1191421D01*
Y585586D01*
X1191123D01*
Y585884D01*
X1190526D01*
Y586183D01*
X1189929D01*
Y586481D01*
X1189332D01*
Y586780D01*
D02*
G37*
G36*
X1216788Y571559D02*
X1199777D01*
Y571261D01*
X1199479D01*
Y570962D01*
X1198882D01*
Y570366D01*
X1198584D01*
Y569470D01*
X1198882D01*
Y568873D01*
X1199479D01*
Y568575D01*
X1216788D01*
Y568873D01*
X1217385D01*
Y569470D01*
X1217684D01*
Y570664D01*
X1217385D01*
Y571261D01*
X1216788D01*
Y571559D01*
D02*
G37*
G36*
X1167844D02*
X1150834D01*
Y571261D01*
X1150237D01*
Y570664D01*
X1149938D01*
Y569470D01*
X1150237D01*
Y568873D01*
X1150834D01*
Y568575D01*
X1168143D01*
Y568873D01*
X1168740D01*
Y569470D01*
X1169038D01*
Y570366D01*
X1168740D01*
Y570962D01*
X1168143D01*
Y571261D01*
X1167844D01*
Y571559D01*
D02*
G37*
G36*
X1192913Y567381D02*
X1174709D01*
Y567083D01*
X1174410D01*
Y564994D01*
X1174709D01*
Y564695D01*
X1175305D01*
Y564397D01*
X1192316D01*
Y564695D01*
X1192913D01*
Y564994D01*
X1193212D01*
Y567083D01*
X1192913D01*
Y567381D01*
D02*
G37*
G36*
X1212610Y560219D02*
X1203657D01*
Y559920D01*
X1202463D01*
Y559622D01*
X1201568D01*
Y559323D01*
X1201270D01*
Y559025D01*
X1200673D01*
Y558727D01*
X1200374D01*
Y558428D01*
X1200076D01*
Y558130D01*
X1199777D01*
Y557831D01*
X1199479D01*
Y557234D01*
X1199181D01*
Y556637D01*
X1198882D01*
Y555742D01*
X1198584D01*
Y553653D01*
X1198882D01*
Y552758D01*
X1199181D01*
Y552161D01*
X1199479D01*
Y551564D01*
X1199777D01*
Y551266D01*
X1200076D01*
Y550967D01*
X1200374D01*
Y550669D01*
X1200673D01*
Y550370D01*
X1200971D01*
Y550072D01*
X1201568D01*
Y549773D01*
X1202463D01*
Y549475D01*
X1203359D01*
Y549177D01*
X1213505D01*
Y549475D01*
X1214102D01*
Y549773D01*
X1214998D01*
Y550072D01*
X1215594D01*
Y550370D01*
X1215893D01*
Y550669D01*
X1216191D01*
Y550967D01*
X1216490D01*
Y551266D01*
X1216788D01*
Y551862D01*
X1217087D01*
Y552161D01*
X1217385D01*
Y553355D01*
X1217684D01*
Y555742D01*
X1217385D01*
Y556936D01*
X1217087D01*
Y557533D01*
X1216788D01*
Y558130D01*
X1216490D01*
Y558428D01*
X1216191D01*
Y558727D01*
X1215893D01*
Y559025D01*
X1215296D01*
Y559323D01*
X1214998D01*
Y559622D01*
X1214102D01*
Y559920D01*
X1212610D01*
Y560219D01*
D02*
G37*
G36*
X1163965D02*
X1155012D01*
Y559920D01*
X1153520D01*
Y559622D01*
X1152624D01*
Y559323D01*
X1152326D01*
Y559025D01*
X1151729D01*
Y558727D01*
X1151430D01*
Y558428D01*
X1151132D01*
Y558130D01*
X1150834D01*
Y557533D01*
X1150535D01*
Y556936D01*
X1150237D01*
Y555742D01*
X1149938D01*
Y553355D01*
X1150237D01*
Y552459D01*
X1150535D01*
Y551862D01*
X1150834D01*
Y551266D01*
X1151132D01*
Y550967D01*
X1151430D01*
Y550669D01*
X1151729D01*
Y550370D01*
X1152027D01*
Y550072D01*
X1152624D01*
Y549773D01*
X1153520D01*
Y549475D01*
X1154116D01*
Y549177D01*
X1164263D01*
Y549475D01*
X1165159D01*
Y549773D01*
X1166054D01*
Y550072D01*
X1166651D01*
Y550370D01*
X1166949D01*
Y550669D01*
X1167248D01*
Y550967D01*
X1167546D01*
Y551266D01*
X1167844D01*
Y551564D01*
X1168143D01*
Y552161D01*
X1168441D01*
Y552758D01*
X1168740D01*
Y553653D01*
X1169038D01*
Y555742D01*
X1168740D01*
Y556637D01*
X1168441D01*
Y557234D01*
X1168143D01*
Y557831D01*
X1167844D01*
Y558130D01*
X1167546D01*
Y558428D01*
X1167248D01*
Y558727D01*
X1166949D01*
Y559025D01*
X1166352D01*
Y559323D01*
X1166054D01*
Y559622D01*
X1165159D01*
Y559920D01*
X1163965D01*
Y560219D01*
D02*
G37*
G36*
X1188735Y556041D02*
X1178887D01*
Y555742D01*
X1177096D01*
Y555444D01*
X1176798D01*
Y555145D01*
X1176201D01*
Y554847D01*
X1175902D01*
Y554548D01*
X1175604D01*
Y554250D01*
X1175305D01*
Y553952D01*
X1175007D01*
Y553355D01*
X1174709D01*
Y552161D01*
X1174410D01*
Y548878D01*
X1174709D01*
Y548281D01*
X1175007D01*
Y547386D01*
X1175305D01*
Y547087D01*
X1175604D01*
Y546789D01*
X1175902D01*
Y546491D01*
X1176201D01*
Y546192D01*
X1177096D01*
Y545894D01*
X1177394D01*
Y545595D01*
X1178588D01*
Y545297D01*
X1189034D01*
Y545595D01*
X1190227D01*
Y545894D01*
X1190526D01*
Y546192D01*
X1191421D01*
Y546491D01*
X1191720D01*
Y546789D01*
X1192018D01*
Y547087D01*
X1192316D01*
Y547386D01*
X1192615D01*
Y548281D01*
X1192913D01*
Y548878D01*
X1193212D01*
Y552758D01*
X1192913D01*
Y553355D01*
X1192615D01*
Y553952D01*
X1192316D01*
Y554250D01*
X1192018D01*
Y554548D01*
X1191720D01*
Y554847D01*
X1191421D01*
Y555145D01*
X1190824D01*
Y555444D01*
X1190526D01*
Y555742D01*
X1188735D01*
Y556041D01*
D02*
G37*
G36*
X1214401Y544700D02*
X1202165D01*
Y544402D01*
X1201568D01*
Y544103D01*
X1201270D01*
Y543805D01*
X1200673D01*
Y543506D01*
X1200374D01*
Y543208D01*
X1200076D01*
Y542909D01*
X1199777D01*
Y542611D01*
X1199479D01*
Y542014D01*
X1199181D01*
Y541417D01*
X1198882D01*
Y540522D01*
X1198584D01*
Y538433D01*
X1198882D01*
Y537239D01*
X1199181D01*
Y536642D01*
X1199479D01*
Y536045D01*
X1199777D01*
Y535747D01*
X1200076D01*
Y535448D01*
X1200374D01*
Y535150D01*
X1200673D01*
Y534852D01*
X1201568D01*
Y534553D01*
X1202165D01*
Y533956D01*
X1214102D01*
Y534255D01*
X1214401D01*
Y534553D01*
X1214998D01*
Y534852D01*
X1215594D01*
Y535150D01*
X1215893D01*
Y535448D01*
X1216191D01*
Y535747D01*
X1216490D01*
Y536045D01*
X1216788D01*
Y536642D01*
X1217087D01*
Y536941D01*
X1217385D01*
Y538134D01*
X1217684D01*
Y540522D01*
X1217385D01*
Y541417D01*
X1217087D01*
Y542014D01*
X1216788D01*
Y542611D01*
X1216490D01*
Y542909D01*
X1216191D01*
Y543506D01*
X1215893D01*
Y543805D01*
X1215296D01*
Y544103D01*
X1214998D01*
Y544402D01*
X1214401D01*
Y544700D01*
D02*
G37*
G36*
X1192316Y536941D02*
X1175305D01*
Y536642D01*
X1175007D01*
Y536344D01*
X1174410D01*
Y534553D01*
X1174709D01*
Y533956D01*
X1192913D01*
Y534553D01*
X1193212D01*
Y536344D01*
X1192913D01*
Y536642D01*
X1192316D01*
Y536941D01*
D02*
G37*
G36*
X1165457Y544700D02*
X1153221D01*
Y544402D01*
X1152624D01*
Y544103D01*
X1152326D01*
Y543805D01*
X1151729D01*
Y543506D01*
X1151430D01*
Y542909D01*
X1151132D01*
Y542611D01*
X1150834D01*
Y542014D01*
X1150535D01*
Y541417D01*
X1150237D01*
Y540522D01*
X1149938D01*
Y538134D01*
X1150237D01*
Y536941D01*
X1150535D01*
Y536642D01*
X1150834D01*
Y536045D01*
X1151132D01*
Y535747D01*
X1151430D01*
Y535448D01*
X1151729D01*
Y535150D01*
X1152027D01*
Y534852D01*
X1152624D01*
Y534553D01*
X1153221D01*
Y534255D01*
X1153520D01*
Y533956D01*
X1165457D01*
Y534553D01*
X1166054D01*
Y534852D01*
X1166949D01*
Y535150D01*
X1167248D01*
Y535448D01*
X1167546D01*
Y535747D01*
X1167844D01*
Y536045D01*
X1168143D01*
Y536642D01*
X1168441D01*
Y537239D01*
X1168740D01*
Y538433D01*
X1169038D01*
Y540522D01*
X1168740D01*
Y541417D01*
X1168441D01*
Y542014D01*
X1168143D01*
Y542611D01*
X1167844D01*
Y542909D01*
X1167546D01*
Y543208D01*
X1167248D01*
Y543506D01*
X1166949D01*
Y543805D01*
X1166352D01*
Y544103D01*
X1166054D01*
Y544402D01*
X1165457D01*
Y544700D01*
D02*
G37*
G36*
X1226637Y604686D02*
X1226040D01*
Y525898D01*
X1226637D01*
Y526794D01*
X1226935D01*
Y604089D01*
X1226637D01*
Y604686D01*
D02*
G37*
G36*
X1225741Y525600D02*
X1147551D01*
Y525003D01*
X1225741D01*
Y525600D01*
D02*
G37*
%LPD*%
G36*
X1188735Y599016D02*
X1189332D01*
Y598717D01*
X1189631D01*
Y598419D01*
X1189929D01*
Y598120D01*
X1190227D01*
Y595136D01*
X1189929D01*
Y594838D01*
X1189631D01*
Y594539D01*
X1188735D01*
Y593942D01*
X1178887D01*
Y594539D01*
X1177991D01*
Y594838D01*
X1177693D01*
Y595136D01*
X1177394D01*
Y598120D01*
X1177693D01*
Y598419D01*
X1177991D01*
Y598717D01*
X1178290D01*
Y599016D01*
X1178887D01*
Y599314D01*
X1188735D01*
Y599016D01*
D02*
G37*
G36*
X1213804Y587376D02*
X1214102D01*
Y587078D01*
X1214401D01*
Y586780D01*
X1214699D01*
Y586183D01*
X1214998D01*
Y584691D01*
X1214699D01*
Y583795D01*
X1214401D01*
Y583497D01*
X1213804D01*
Y583198D01*
X1213505D01*
Y582900D01*
X1202762D01*
Y583198D01*
X1202463D01*
Y583497D01*
X1202165D01*
Y583795D01*
X1201866D01*
Y584094D01*
X1201568D01*
Y585586D01*
Y585884D01*
Y586481D01*
X1201866D01*
Y586780D01*
X1202165D01*
Y587078D01*
X1202463D01*
Y587376D01*
X1202762D01*
Y587675D01*
X1213804D01*
Y587376D01*
D02*
G37*
G36*
X1164860D02*
X1165159D01*
Y587078D01*
X1165457D01*
Y586780D01*
X1165755D01*
Y586481D01*
X1166054D01*
Y584094D01*
X1165755D01*
Y583795D01*
X1165457D01*
Y583497D01*
X1165159D01*
Y583198D01*
X1164860D01*
Y582900D01*
X1154116D01*
Y583198D01*
X1153818D01*
Y583497D01*
X1153221D01*
Y583795D01*
X1152923D01*
Y584691D01*
X1152624D01*
Y585586D01*
Y585884D01*
Y586183D01*
X1152923D01*
Y586780D01*
X1153221D01*
Y587078D01*
X1153520D01*
Y587376D01*
X1153818D01*
Y587675D01*
X1164860D01*
Y587376D01*
D02*
G37*
G36*
X1188735Y583497D02*
X1189332D01*
Y583198D01*
X1189631D01*
Y582900D01*
X1189929D01*
Y582601D01*
X1190227D01*
Y579916D01*
X1189929D01*
Y579617D01*
X1189631D01*
Y579319D01*
X1189332D01*
Y579020D01*
X1189034D01*
Y578722D01*
X1178588D01*
Y579020D01*
X1178290D01*
Y579319D01*
X1177991D01*
Y579617D01*
X1177693D01*
Y579916D01*
X1177394D01*
Y582601D01*
X1177693D01*
Y582900D01*
X1177991D01*
Y583198D01*
X1178290D01*
Y583497D01*
X1178887D01*
Y583795D01*
X1188735D01*
Y583497D01*
D02*
G37*
G36*
X1212610Y557234D02*
X1212909D01*
Y556936D01*
X1213804D01*
Y556637D01*
X1214102D01*
Y556339D01*
X1214401D01*
Y556041D01*
X1214699D01*
Y555444D01*
X1214998D01*
Y554250D01*
Y553952D01*
X1214699D01*
Y553355D01*
X1214401D01*
Y553056D01*
X1214102D01*
Y552758D01*
X1213804D01*
Y552459D01*
X1213505D01*
Y552161D01*
X1212312D01*
Y551862D01*
X1204254D01*
Y552161D01*
X1202762D01*
Y552758D01*
X1202463D01*
Y553056D01*
X1202165D01*
Y553355D01*
X1201866D01*
Y553653D01*
X1201568D01*
Y555742D01*
X1201866D01*
Y556041D01*
X1202165D01*
Y556339D01*
X1202463D01*
Y556637D01*
X1203060D01*
Y556936D01*
X1203657D01*
Y557234D01*
X1203955D01*
Y557533D01*
X1212610D01*
Y557234D01*
D02*
G37*
G36*
X1163666D02*
X1163965D01*
Y556936D01*
X1164562D01*
Y556637D01*
X1165159D01*
Y556339D01*
X1165457D01*
Y556041D01*
X1165755D01*
Y555742D01*
X1166054D01*
Y553653D01*
X1165755D01*
Y553355D01*
X1165457D01*
Y553056D01*
X1165159D01*
Y552758D01*
X1164860D01*
Y552161D01*
X1163368D01*
Y551862D01*
X1155310D01*
Y552161D01*
X1154116D01*
Y552459D01*
X1153818D01*
Y552758D01*
X1153520D01*
Y553056D01*
X1153221D01*
Y553355D01*
X1152923D01*
Y553952D01*
X1152624D01*
Y555444D01*
X1152923D01*
Y556041D01*
X1153221D01*
Y556339D01*
X1153520D01*
Y556637D01*
X1154116D01*
Y556936D01*
X1154713D01*
Y557234D01*
X1155012D01*
Y557533D01*
X1163666D01*
Y557234D01*
D02*
G37*
G36*
X1188735Y553056D02*
X1189332D01*
Y552758D01*
X1189631D01*
Y552459D01*
X1189929D01*
Y552161D01*
X1190227D01*
Y549475D01*
X1189929D01*
Y549177D01*
X1189631D01*
Y548878D01*
X1189332D01*
Y548281D01*
X1178290D01*
Y548878D01*
X1177991D01*
Y549177D01*
X1177693D01*
Y549475D01*
X1177394D01*
Y552161D01*
X1177693D01*
Y552459D01*
X1177991D01*
Y552758D01*
X1178290D01*
Y553056D01*
X1178887D01*
Y553355D01*
X1188735D01*
Y553056D01*
D02*
G37*
G36*
X1213804Y541417D02*
X1214102D01*
Y541119D01*
X1214401D01*
Y540820D01*
X1214699D01*
Y540223D01*
X1214998D01*
Y538731D01*
X1214699D01*
Y537836D01*
X1214102D01*
Y537537D01*
X1213804D01*
Y537239D01*
X1213505D01*
Y536941D01*
X1202762D01*
Y537239D01*
X1202463D01*
Y537537D01*
X1202165D01*
Y537836D01*
X1201866D01*
Y538134D01*
X1201568D01*
Y540522D01*
X1201866D01*
Y540820D01*
X1202165D01*
Y541119D01*
X1202463D01*
Y541417D01*
X1202762D01*
Y541716D01*
X1213804D01*
Y541417D01*
D02*
G37*
G36*
X1164860D02*
X1165159D01*
Y541119D01*
X1165457D01*
Y540820D01*
X1165755D01*
Y540522D01*
X1166054D01*
Y538134D01*
X1165755D01*
Y537836D01*
X1165457D01*
Y537537D01*
X1165159D01*
Y537239D01*
X1164860D01*
Y536941D01*
X1154116D01*
Y537239D01*
X1153818D01*
Y537537D01*
X1153520D01*
Y537836D01*
X1152923D01*
Y538731D01*
X1152624D01*
Y540223D01*
X1152923D01*
Y540820D01*
X1153221D01*
Y541119D01*
X1153520D01*
Y541417D01*
X1153818D01*
Y541716D01*
X1164860D01*
Y541417D01*
D02*
G37*
%LPC*%
G36*
X1198584Y457556D02*
X1186944D01*
Y457258D01*
X1186646D01*
Y446514D01*
X1186944D01*
Y446215D01*
X1198584D01*
Y457556D01*
D02*
G37*
G36*
Y390706D02*
X1186944D01*
Y390408D01*
X1186646D01*
Y380858D01*
X1197987D01*
Y380559D01*
X1198285D01*
Y380858D01*
X1198584D01*
Y390706D01*
D02*
G37*
G36*
X1198285Y357281D02*
X1169635D01*
Y356983D01*
X1169337D01*
Y346239D01*
X1169635D01*
Y345940D01*
X1198584D01*
Y356983D01*
X1198285D01*
Y357281D01*
D02*
G37*
G36*
X326782Y145312D02*
X325780Y145260D01*
X311791Y145286D01*
X311607Y145207D01*
X311527Y145128D01*
X311475Y108613D01*
X311238Y108323D01*
X310869Y108165D01*
X301437Y108113D01*
X301358Y108034D01*
X301305Y107823D01*
X301332Y63536D01*
X301279Y63325D01*
X301253Y62983D01*
X301384Y62851D01*
X310079Y62798D01*
X310368Y62614D01*
X310474Y62350D01*
X310526Y61982D01*
X310500Y55000D01*
X310553Y54789D01*
X310658Y54631D01*
X311132Y54579D01*
X311290Y54631D01*
X318035Y54579D01*
X318272Y54341D01*
X318351Y53999D01*
X318377Y46122D01*
X318325Y45963D01*
X318377Y45647D01*
X318614Y45568D01*
X318825Y45621D01*
X384478D01*
X406793Y45595D01*
X406977Y45674D01*
X407056Y45911D01*
X407003Y46438D01*
X407056Y54394D01*
X407241Y54579D01*
X407451Y54631D01*
X407820Y54684D01*
X417779Y54631D01*
X417937Y54579D01*
X418200Y54737D01*
X418227Y61560D01*
X418174Y61718D01*
X418227Y61929D01*
X418279Y62034D01*
X418464Y62219D01*
X418727Y62324D01*
X419096Y62377D01*
X427553Y62350D01*
X427737Y62482D01*
X427816Y62561D01*
X427922Y62930D01*
X427975Y63457D01*
X428133Y63615D01*
X428238Y63878D01*
X428185Y64511D01*
X428133Y64669D01*
X428159Y81556D01*
X428106Y81872D01*
X428001Y82294D01*
X427975Y107507D01*
X428027Y107665D01*
X427975Y107981D01*
X427843Y108113D01*
X427474Y108165D01*
X418148Y108218D01*
X417858Y108508D01*
X417779Y108850D01*
X417753Y143547D01*
X417805Y143600D01*
X417753Y143758D01*
X417700Y144127D01*
X417568Y144258D01*
X417146Y144311D01*
X416989Y144258D01*
X400839Y144285D01*
X400733Y144232D01*
X400681Y144021D01*
X400654Y143415D01*
X400681Y136961D01*
X400628Y136803D01*
X400575Y136592D01*
X400496Y136513D01*
X400127Y136408D01*
X391723Y136434D01*
X391618Y136328D01*
X391565Y136118D01*
X391591Y135406D01*
X391539Y126502D01*
X391433Y126344D01*
X391223Y126291D01*
X390906Y126238D01*
X390748Y126291D01*
X383161Y126238D01*
X383029Y126107D01*
X383082Y124789D01*
X383029Y118308D01*
X382792Y118018D01*
X382423Y117966D01*
X345065Y118018D01*
X344881Y118150D01*
X344776Y118414D01*
X344802Y125553D01*
X344670Y125738D01*
X344380Y125817D01*
X344169Y125764D01*
X337214Y125817D01*
X336925Y126054D01*
X336872Y126265D01*
X336925Y134695D01*
X336872Y136170D01*
X336635Y136249D01*
X327467Y136302D01*
X327177Y136539D01*
X327124Y136908D01*
X327150Y144733D01*
X327098Y145154D01*
X326992Y145260D01*
X326782Y145312D01*
D02*
G37*
G36*
X337847Y144575D02*
X337662Y144548D01*
X337688Y144469D01*
X337715Y144443D01*
X337794Y144417D01*
X337873Y144496D01*
X337847Y144575D01*
D02*
G37*
G36*
X159488Y116280D02*
X158170Y116227D01*
X144339Y116253D01*
X144181Y116148D01*
X144128Y115937D01*
X144155Y115226D01*
X144128Y100235D01*
X144181Y100077D01*
X144128Y99656D01*
X144076Y99497D01*
X144207Y99260D01*
X144418Y99208D01*
X151742Y99155D01*
X151979Y98971D01*
X152032Y98760D01*
X151979Y94545D01*
X151927Y94387D01*
X151900Y90250D01*
X151953Y90145D01*
X152164Y90092D01*
X170816Y90039D01*
X170948Y89908D01*
X171001Y89697D01*
X171053Y88854D01*
X171027Y80608D01*
X171132Y80502D01*
X171370Y80476D01*
X187335Y80529D01*
X187440Y80581D01*
X187493Y80792D01*
X187440Y81477D01*
X187467Y97732D01*
X187388Y97917D01*
X187150Y97996D01*
X186307Y97943D01*
X160146Y97917D01*
X159830Y97970D01*
X159672Y98075D01*
X159619Y98286D01*
Y98338D01*
Y98391D01*
X159593Y108376D01*
X159619Y116095D01*
X159488Y116280D01*
D02*
G37*
G36*
X317877Y45041D02*
X317824Y44989D01*
X317771D01*
X317613Y45041D01*
X317403Y44989D01*
X317323Y44962D01*
X317271Y44804D01*
X317403Y44620D01*
X317613Y44567D01*
X318035Y44620D01*
X318166Y44752D01*
X318114Y44962D01*
X317903Y45015D01*
X317877Y45041D01*
D02*
G37*
G36*
X188046Y43988D02*
X187835Y43935D01*
X187756Y43856D01*
X187704Y43645D01*
X187677Y27653D01*
X187730Y27443D01*
X187835Y27337D01*
X189311Y27390D01*
X204960Y27337D01*
X205013D01*
X205144Y27469D01*
X205197Y27680D01*
X205144Y28365D01*
X205092Y34372D01*
X204828Y34793D01*
X204776Y35162D01*
X204802Y43566D01*
X204749Y43777D01*
X204644Y43882D01*
X204433Y43935D01*
X203669Y43909D01*
X188731Y43935D01*
X188573Y43882D01*
X188204Y43935D01*
X188046Y43988D01*
D02*
G37*
%LPD*%
G36*
X408400Y99366D02*
X408637Y99181D01*
X408742Y98918D01*
X408690Y81688D01*
X408505Y81451D01*
X408136Y81345D01*
X391117Y81398D01*
X390933Y81583D01*
X390827Y81846D01*
X390880Y88801D01*
X391223Y88933D01*
X391433Y88880D01*
X400549Y88933D01*
X400786Y89170D01*
X400839Y89539D01*
X400786Y89697D01*
X400839Y99181D01*
X400918Y99313D01*
X401181Y99418D01*
X404448D01*
X408400Y99366D01*
D02*
G37*
G36*
X381738Y90092D02*
X381923Y89908D01*
X381975Y89328D01*
X381923Y89170D01*
X381949Y82399D01*
X381896Y81978D01*
X381738Y81820D01*
X381527Y81767D01*
X373255Y81820D01*
X373176Y81899D01*
X373071Y82268D01*
Y87484D01*
Y87537D01*
X373123Y89908D01*
X373202Y90039D01*
X373466Y90145D01*
X381738Y90092D01*
D02*
G37*
G36*
X345171Y99366D02*
X345408Y99181D01*
X345513Y98813D01*
X345461Y81741D01*
X345276Y81451D01*
X344907Y81345D01*
X331207D01*
X327888Y81398D01*
X327809Y81477D01*
X327651Y81846D01*
X327598Y82215D01*
X327651Y88749D01*
X327783Y88880D01*
X337320Y88933D01*
X337557Y89170D01*
X337610Y99234D01*
X337688Y99313D01*
X337952Y99418D01*
X345171Y99366D01*
D02*
G37*
G36*
X399917Y73178D02*
X400022Y73073D01*
X400101Y73047D01*
X400154Y72941D01*
X400259Y72678D01*
X400312Y72151D01*
X400259Y71993D01*
Y69516D01*
Y69464D01*
X400285Y63958D01*
X400259Y63352D01*
X400312Y63193D01*
X400364Y63088D01*
X400496Y62956D01*
X400839Y62825D01*
X400944Y62772D01*
X401049Y62508D01*
X401102Y62140D01*
X401049Y61771D01*
X401076Y54947D01*
X401023Y54526D01*
X400944Y54341D01*
X400865Y54210D01*
X400760Y54157D01*
X400496Y54052D01*
X399811Y53999D01*
X399653Y54052D01*
X337557Y54025D01*
X337293Y54078D01*
X337004Y54262D01*
X336872Y54605D01*
X336714Y55237D01*
X336766Y62930D01*
X336819Y63088D01*
X336872Y72730D01*
X337109Y73020D01*
X337214Y73126D01*
X337847Y73231D01*
X338215Y73178D01*
X344617Y73205D01*
X344828Y73152D01*
X345013Y73020D01*
X345144Y72889D01*
X345250Y72520D01*
X345302Y63141D01*
X345381Y63062D01*
X345592Y63009D01*
X364614Y63062D01*
X364745Y63193D01*
X364798Y72730D01*
X365035Y73073D01*
X365299Y73178D01*
X365668Y73231D01*
X366036Y73178D01*
X372386Y73205D01*
X372702Y73152D01*
X372991Y72968D01*
X373123Y72730D01*
X373176Y72520D01*
X373229Y63141D01*
X373308Y63062D01*
X373729Y62956D01*
X374098Y63009D01*
X391618Y62983D01*
X391828Y63088D01*
X391881Y63299D01*
X391908Y63694D01*
X391881Y72572D01*
X392118Y73020D01*
X392224Y73073D01*
X392487Y73178D01*
X393040Y73205D01*
X399337Y73178D01*
X399495Y73231D01*
X399917Y73178D01*
D02*
G37*
D10*
X831555Y129901D02*
G03*
X831555Y129901I-492J0D01*
G01*
X832055Y78401D02*
G03*
X832055Y78401I-492J0D01*
G01*
X771992Y463035D02*
G03*
X771992Y463035I-492J0D01*
G01*
X885992D02*
G03*
X885992Y463035I-492J0D01*
G01*
X771992Y334228D02*
G03*
X771992Y334228I-492J0D01*
G01*
X885992Y334228D02*
G03*
X885992Y334228I-492J0D01*
G01*
D11*
X527132Y81890D02*
G03*
X527132Y81890I-557J0D01*
G01*
X527132Y538177D02*
G03*
X527132Y538177I-557J0D01*
G01*
X82446Y408477D02*
G03*
X82446Y408477I-557J0D01*
G01*
X829095Y140261D02*
Y146739D01*
X840905D01*
Y140261D02*
Y146739D01*
X829095Y140261D02*
X840905D01*
X829595Y88761D02*
Y95239D01*
X841405D01*
Y88761D02*
Y95239D01*
X829595Y88761D02*
X841405D01*
X831146Y173654D02*
X836854D01*
X831146Y180346D02*
X836854D01*
X815347Y88146D02*
Y93854D01*
X808654Y88146D02*
Y93854D01*
X871953Y98122D02*
Y100878D01*
X866047Y98122D02*
Y100878D01*
X871953Y146122D02*
Y148878D01*
X866047Y146122D02*
Y148878D01*
X760346Y506146D02*
Y511854D01*
X753653Y506146D02*
Y511854D01*
X724946Y95146D02*
Y100854D01*
X731639Y95146D02*
Y100854D01*
X702307Y95146D02*
Y100854D01*
X709000Y95146D02*
Y100854D01*
X118146Y203346D02*
X123854D01*
X118146Y196654D02*
X123854D01*
X118146Y221346D02*
X123854D01*
X118146Y214654D02*
X123854D01*
X118146Y234654D02*
X123854D01*
X118146Y241346D02*
X123854D01*
X748331Y505646D02*
Y511354D01*
X741638Y505646D02*
Y511354D01*
X173071Y272992D02*
Y352992D01*
X193071Y272992D02*
Y352992D01*
X173071D02*
X193071D01*
X173071Y272992D02*
X193071D01*
X1058898D02*
Y352992D01*
X1078898Y272992D02*
Y352992D01*
X1058898D02*
X1078898D01*
X1058898Y272992D02*
X1078898D01*
X768409Y474649D02*
X819591D01*
Y500437D01*
X768409D02*
X819591D01*
X768409Y474649D02*
Y500437D01*
X882409Y474650D02*
X933591D01*
Y500437D01*
X882409D02*
X933591D01*
X882409Y474650D02*
Y500437D01*
X768409Y345843D02*
Y371630D01*
X819591D01*
Y345843D02*
Y371630D01*
X768409Y345843D02*
X819591D01*
X882409Y345842D02*
Y371630D01*
X933591D01*
Y345842D02*
Y371630D01*
X882409Y345842D02*
X933591D01*
D12*
X572216Y82678D02*
G03*
X568110Y78712I-70J-4036D01*
G01*
X575589Y78717D02*
G03*
X572267Y82675I-3640J318D01*
G01*
X572267Y537391D02*
G03*
X575589Y541350I-318J3640D01*
G01*
X568110Y541354D02*
G03*
X572216Y537389I4036J70D01*
G01*
X82678Y362836D02*
G03*
X78712Y366943I-4036J70D01*
G01*
X78717Y359464D02*
G03*
X82675Y362785I318J3640D01*
G01*
X495472Y59055D02*
Y85827D01*
X754528D01*
Y59055D02*
Y85827D01*
X495472Y59055D02*
X568110D01*
X575591D02*
X754528D01*
X568110D02*
Y78740D01*
X575591Y59055D02*
Y78740D01*
X495472Y85827D02*
Y90945D01*
X754528Y85827D02*
Y90945D01*
X754527Y529122D02*
Y534240D01*
X495472Y529122D02*
Y534240D01*
X575590Y541326D02*
Y561011D01*
X568110Y541326D02*
Y561011D01*
X575590D02*
X754527D01*
X495472D02*
X568110D01*
X754527Y534240D02*
Y561011D01*
X495472Y534240D02*
X754527D01*
X495472D02*
Y561011D01*
X59055Y439580D02*
X85827D01*
Y180525D02*
Y439580D01*
X59055Y180525D02*
X85827D01*
X59055Y366942D02*
Y439580D01*
Y180525D02*
Y359462D01*
Y366942D02*
X78740D01*
X59055Y359462D02*
X78740D01*
X85827Y439580D02*
X90945D01*
X85827Y180525D02*
X90945D01*
D13*
X772445Y477898D02*
G03*
X772445Y477898I-984J0D01*
G01*
X886445D02*
G03*
X886445Y477898I-984J0D01*
G01*
X772445Y349091D02*
G03*
X772445Y349091I-984J0D01*
G01*
X886445Y349091D02*
G03*
X886445Y349091I-984J0D01*
G01*
D14*
X108500Y193000D02*
X131500D01*
X108500Y244500D02*
X131500D01*
Y193000D02*
Y244500D01*
X108500Y193000D02*
Y244500D01*
X739068Y497908D02*
X764106D01*
X739068Y519500D02*
X764106D01*
Y497908D02*
Y519500D01*
X739068Y497908D02*
Y519500D01*
X700593Y87599D02*
X734849D01*
X700593Y110008D02*
X734849D01*
Y87599D02*
Y110008D01*
X700593Y87599D02*
Y110008D01*
X460000Y415000D02*
X546500D01*
X460000Y456000D02*
X546500D01*
Y415000D02*
Y456000D01*
X460000Y415000D02*
Y456000D01*
X490500Y461000D02*
Y466998D01*
X493499D01*
X494499Y465998D01*
Y463999D01*
X493499Y462999D01*
X490500D01*
X499497Y466998D02*
X497498D01*
X496498Y465998D01*
Y462000D01*
X497498Y461000D01*
X499497D01*
X500497Y462000D01*
Y465998D01*
X499497Y466998D01*
X502496D02*
Y461000D01*
X504495Y462999D01*
X506495Y461000D01*
Y466998D01*
X512493D02*
X508494D01*
Y461000D01*
X512493D01*
X508494Y463999D02*
X510494D01*
X514492Y461000D02*
Y466998D01*
X517491D01*
X518491Y465998D01*
Y463999D01*
X517491Y462999D01*
X514492D01*
X516492D02*
X518491Y461000D01*
X731498Y177000D02*
X725500D01*
Y174001D01*
X726499Y173001D01*
X727499D01*
X728499Y174001D01*
Y177000D01*
Y174001D01*
X729498Y173001D01*
X730498D01*
X731498Y174001D01*
Y177000D01*
X725500Y171002D02*
X729498D01*
X731498Y169003D01*
X729498Y167003D01*
X725500D01*
X728499D01*
Y171002D01*
X731498Y165004D02*
Y161005D01*
Y163005D01*
X725500D01*
X724500Y159006D02*
Y155007D01*
X730498Y149009D02*
X731498Y150009D01*
Y152008D01*
X730498Y153008D01*
X729498D01*
X728499Y152008D01*
Y150009D01*
X727499Y149009D01*
X726499D01*
X725500Y150009D01*
Y152008D01*
X726499Y153008D01*
X731498Y143011D02*
Y147010D01*
X725500D01*
Y143011D01*
X728499Y147010D02*
Y145010D01*
X725500Y141012D02*
X731498D01*
X725500Y137013D01*
X731498D01*
X730498Y131015D02*
X731498Y132015D01*
Y134014D01*
X730498Y135014D01*
X729498D01*
X728499Y134014D01*
Y132015D01*
X727499Y131015D01*
X726499D01*
X725500Y132015D01*
Y134014D01*
X726499Y135014D01*
X731498Y125017D02*
Y129016D01*
X725500D01*
Y125017D01*
X728499Y129016D02*
Y127016D01*
X724500Y123018D02*
Y119019D01*
X730498Y113021D02*
X731498Y114020D01*
Y116020D01*
X730498Y117019D01*
X726499D01*
X725500Y116020D01*
Y114020D01*
X726499Y113021D01*
X708998Y182000D02*
X703000D01*
Y179001D01*
X703999Y178001D01*
X707998D01*
X708998Y179001D01*
Y182000D01*
Y176002D02*
Y174003D01*
Y175002D01*
X703000D01*
Y176002D01*
Y174003D01*
X707998Y167005D02*
X708998Y168005D01*
Y170004D01*
X707998Y171003D01*
X706998D01*
X705999Y170004D01*
Y168005D01*
X704999Y167005D01*
X703999D01*
X703000Y168005D01*
Y170004D01*
X703999Y171003D01*
X703000Y165006D02*
X708998D01*
Y162006D01*
X707998Y161007D01*
X705999D01*
X704999Y162006D01*
Y165006D01*
X702000Y159007D02*
Y155009D01*
X707998Y149011D02*
X708998Y150010D01*
Y152010D01*
X707998Y153009D01*
X706998D01*
X705999Y152010D01*
Y150010D01*
X704999Y149011D01*
X703999D01*
X703000Y150010D01*
Y152010D01*
X703999Y153009D01*
X708998Y143013D02*
Y147011D01*
X703000D01*
Y143013D01*
X705999Y147011D02*
Y145012D01*
X703000Y141013D02*
X708998D01*
X703000Y137014D01*
X708998D01*
X707998Y131017D02*
X708998Y132016D01*
Y134016D01*
X707998Y135015D01*
X706998D01*
X705999Y134016D01*
Y132016D01*
X704999Y131017D01*
X703999D01*
X703000Y132016D01*
Y134016D01*
X703999Y135015D01*
X708998Y125018D02*
Y129017D01*
X703000D01*
Y125018D01*
X705999Y129017D02*
Y127018D01*
X702000Y123019D02*
Y119020D01*
X707998Y113022D02*
X708998Y114022D01*
Y116021D01*
X707998Y117021D01*
X703999D01*
X703000Y116021D01*
Y114022D01*
X703999Y113022D01*
X761718Y495108D02*
X755720D01*
Y492109D01*
X756719Y491109D01*
X757719D01*
X758719Y492109D01*
Y495108D01*
Y492109D01*
X759719Y491109D01*
X760718D01*
X761718Y492109D01*
Y495108D01*
X755720Y489110D02*
X759719D01*
X761718Y487111D01*
X759719Y485111D01*
X755720D01*
X758719D01*
Y489110D01*
X761718Y483112D02*
Y479113D01*
Y481113D01*
X755720D01*
X754720Y477114D02*
Y473115D01*
X760718Y467117D02*
X761718Y468117D01*
Y470116D01*
X760718Y471116D01*
X759719D01*
X758719Y470116D01*
Y468117D01*
X757719Y467117D01*
X756719D01*
X755720Y468117D01*
Y470116D01*
X756719Y471116D01*
X761718Y461119D02*
Y465118D01*
X755720D01*
Y461119D01*
X758719Y465118D02*
Y463118D01*
X755720Y459120D02*
X761718D01*
X755720Y455121D01*
X761718D01*
X760718Y449123D02*
X761718Y450123D01*
Y452122D01*
X760718Y453122D01*
X759719D01*
X758719Y452122D01*
Y450123D01*
X757719Y449123D01*
X756719D01*
X755720Y450123D01*
Y452122D01*
X756719Y453122D01*
X761718Y443125D02*
Y447123D01*
X755720D01*
Y443125D01*
X758719Y447123D02*
Y445124D01*
X754720Y441125D02*
Y437127D01*
X755720Y435127D02*
X759719D01*
X761718Y433128D01*
X759719Y431129D01*
X755720D01*
X758719D01*
Y435127D01*
X747065Y495108D02*
X741067D01*
Y492109D01*
X742067Y491109D01*
X746066D01*
X747065Y492109D01*
Y495108D01*
Y489110D02*
Y487111D01*
Y488110D01*
X741067D01*
Y489110D01*
Y487111D01*
X746066Y480113D02*
X747065Y481113D01*
Y483112D01*
X746066Y484112D01*
X745066D01*
X744066Y483112D01*
Y481113D01*
X743067Y480113D01*
X742067D01*
X741067Y481113D01*
Y483112D01*
X742067Y484112D01*
X741067Y478114D02*
X747065D01*
Y475114D01*
X746066Y474115D01*
X744066D01*
X743067Y475114D01*
Y478114D01*
X740068Y472116D02*
Y468117D01*
X746066Y462119D02*
X747065Y463118D01*
Y465118D01*
X746066Y466117D01*
X745066D01*
X744066Y465118D01*
Y463118D01*
X743067Y462119D01*
X742067D01*
X741067Y463118D01*
Y465118D01*
X742067Y466117D01*
X747065Y456121D02*
Y460119D01*
X741067D01*
Y456121D01*
X744066Y460119D02*
Y458120D01*
X741067Y454121D02*
X747065D01*
X741067Y450123D01*
X747065D01*
X746066Y444125D02*
X747065Y445124D01*
Y447123D01*
X746066Y448123D01*
X745066D01*
X744066Y447123D01*
Y445124D01*
X743067Y444125D01*
X742067D01*
X741067Y445124D01*
Y447123D01*
X742067Y448123D01*
X747065Y438127D02*
Y442125D01*
X741067D01*
Y438127D01*
X744066Y442125D02*
Y440126D01*
X740068Y436127D02*
Y432128D01*
X741067Y430129D02*
X745066D01*
X747065Y428130D01*
X745066Y426130D01*
X741067D01*
X744066D01*
Y430129D01*
X135000Y200998D02*
Y195000D01*
X137999D01*
X138999Y195999D01*
Y196999D01*
X137999Y197999D01*
X135000D01*
X137999D01*
X138999Y198998D01*
Y199998D01*
X137999Y200998D01*
X135000D01*
X140998Y195000D02*
Y198998D01*
X142997Y200998D01*
X144997Y198998D01*
Y195000D01*
Y197999D01*
X140998D01*
X146996Y200998D02*
X150995D01*
X148995D01*
Y195000D01*
X152994Y194000D02*
X156993D01*
X162991Y199998D02*
X161991Y200998D01*
X159992D01*
X158992Y199998D01*
Y198998D01*
X159992Y197999D01*
X161991D01*
X162991Y196999D01*
Y195999D01*
X161991Y195000D01*
X159992D01*
X158992Y195999D01*
X168989Y200998D02*
X164990D01*
Y195000D01*
X168989D01*
X164990Y197999D02*
X166990D01*
X170988Y195000D02*
Y200998D01*
X174987Y195000D01*
Y200998D01*
X180985Y199998D02*
X179985Y200998D01*
X177986D01*
X176986Y199998D01*
Y198998D01*
X177986Y197999D01*
X179985D01*
X180985Y196999D01*
Y195999D01*
X179985Y195000D01*
X177986D01*
X176986Y195999D01*
X186983Y200998D02*
X182984D01*
Y195000D01*
X186983D01*
X182984Y197999D02*
X184984D01*
X188982Y194000D02*
X192981D01*
X194981Y200998D02*
Y195000D01*
X197980D01*
X198979Y195999D01*
Y196999D01*
X197980Y197999D01*
X194981D01*
X197980D01*
X198979Y198998D01*
Y199998D01*
X197980Y200998D01*
X194981D01*
X135500Y220498D02*
Y214500D01*
X138499D01*
X139499Y215499D01*
Y219498D01*
X138499Y220498D01*
X135500D01*
X141498D02*
X143497D01*
X142498D01*
Y214500D01*
X141498D01*
X143497D01*
X150495Y219498D02*
X149495Y220498D01*
X147496D01*
X146496Y219498D01*
Y218498D01*
X147496Y217499D01*
X149495D01*
X150495Y216499D01*
Y215499D01*
X149495Y214500D01*
X147496D01*
X146496Y215499D01*
X152495Y214500D02*
Y220498D01*
X155493D01*
X156493Y219498D01*
Y217499D01*
X155493Y216499D01*
X152495D01*
X158493Y213500D02*
X162491D01*
X168489Y219498D02*
X167490Y220498D01*
X165490D01*
X164491Y219498D01*
Y218498D01*
X165490Y217499D01*
X167490D01*
X168489Y216499D01*
Y215499D01*
X167490Y214500D01*
X165490D01*
X164491Y215499D01*
X174487Y220498D02*
X170489D01*
Y214500D01*
X174487D01*
X170489Y217499D02*
X172488D01*
X176487Y214500D02*
Y220498D01*
X180485Y214500D01*
Y220498D01*
X186484Y219498D02*
X185484Y220498D01*
X183484D01*
X182485Y219498D01*
Y218498D01*
X183484Y217499D01*
X185484D01*
X186484Y216499D01*
Y215499D01*
X185484Y214500D01*
X183484D01*
X182485Y215499D01*
X192482Y220498D02*
X188483D01*
Y214500D01*
X192482D01*
X188483Y217499D02*
X190482D01*
X194481Y213500D02*
X198480D01*
X200479Y220498D02*
Y214500D01*
X203478D01*
X204478Y215499D01*
Y216499D01*
X203478Y217499D01*
X200479D01*
X203478D01*
X204478Y218498D01*
Y219498D01*
X203478Y220498D01*
X200479D01*
X206477Y213500D02*
X210476D01*
X212475Y219498D02*
X213475Y220498D01*
X215474D01*
X216474Y219498D01*
Y218498D01*
X215474Y217499D01*
X214474D01*
X215474D01*
X216474Y216499D01*
Y215499D01*
X215474Y214500D01*
X213475D01*
X212475Y215499D01*
X218473Y220498D02*
Y216499D01*
X220473Y214500D01*
X222472Y216499D01*
Y220498D01*
X224471Y219498D02*
X225471Y220498D01*
X227470D01*
X228470Y219498D01*
Y218498D01*
X227470Y217499D01*
X226471D01*
X227470D01*
X228470Y216499D01*
Y215499D01*
X227470Y214500D01*
X225471D01*
X224471Y215499D01*
X136000Y240998D02*
Y235000D01*
X138999D01*
X139999Y235999D01*
Y239998D01*
X138999Y240998D01*
X136000D01*
X141998D02*
X143997D01*
X142998D01*
Y235000D01*
X141998D01*
X143997D01*
X150995Y239998D02*
X149996Y240998D01*
X147996D01*
X146996Y239998D01*
Y238998D01*
X147996Y237999D01*
X149996D01*
X150995Y236999D01*
Y235999D01*
X149996Y235000D01*
X147996D01*
X146996Y235999D01*
X152995Y235000D02*
Y240998D01*
X155993D01*
X156993Y239998D01*
Y237999D01*
X155993Y236999D01*
X152995D01*
X158993Y234000D02*
X162991D01*
X168989Y239998D02*
X167990Y240998D01*
X165990D01*
X164991Y239998D01*
Y238998D01*
X165990Y237999D01*
X167990D01*
X168989Y236999D01*
Y235999D01*
X167990Y235000D01*
X165990D01*
X164991Y235999D01*
X174987Y240998D02*
X170989D01*
Y235000D01*
X174987D01*
X170989Y237999D02*
X172988D01*
X176987Y235000D02*
Y240998D01*
X180985Y235000D01*
Y240998D01*
X186984Y239998D02*
X185984Y240998D01*
X183984D01*
X182985Y239998D01*
Y238998D01*
X183984Y237999D01*
X185984D01*
X186984Y236999D01*
Y235999D01*
X185984Y235000D01*
X183984D01*
X182985Y235999D01*
X192982Y240998D02*
X188983D01*
Y235000D01*
X192982D01*
X188983Y237999D02*
X190982D01*
X194981Y234000D02*
X198980D01*
X200979Y240998D02*
Y235000D01*
X203978D01*
X204978Y235999D01*
Y236999D01*
X203978Y237999D01*
X200979D01*
X203978D01*
X204978Y238998D01*
Y239998D01*
X203978Y240998D01*
X200979D01*
X206977Y234000D02*
X210976D01*
X216974Y239998D02*
X215974Y240998D01*
X213975D01*
X212975Y239998D01*
Y235999D01*
X213975Y235000D01*
X215974D01*
X216974Y235999D01*
Y237999D01*
X214974D01*
X218973Y235000D02*
Y240998D01*
X222972Y235000D01*
Y240998D01*
X224971D02*
Y235000D01*
X227970D01*
X228970Y235999D01*
Y239998D01*
X227970Y240998D01*
X224971D01*
X815502Y167499D02*
Y162501D01*
X816501Y161501D01*
X818501D01*
X819500Y162501D01*
Y167499D01*
X825498D02*
X821500D01*
Y164500D01*
X823499Y165500D01*
X824499D01*
X825498Y164500D01*
Y162501D01*
X824499Y161501D01*
X822499D01*
X821500Y162501D01*
X753900Y532998D02*
X759898D01*
Y529999D01*
X758898Y529000D01*
X756899D01*
X755899Y529999D01*
Y532998D01*
Y530999D02*
X753900Y529000D01*
Y523002D02*
Y527000D01*
X757898Y523002D01*
X758898D01*
X759898Y524001D01*
Y526001D01*
X758898Y527000D01*
X829220Y113706D02*
Y108708D01*
X830220Y107708D01*
X832219D01*
X833219Y108708D01*
Y113706D01*
X839217D02*
X837218Y112706D01*
X835218Y110707D01*
Y108708D01*
X836218Y107708D01*
X838217D01*
X839217Y108708D01*
Y109707D01*
X838217Y110707D01*
X835218D01*
X825002Y182501D02*
Y188499D01*
X828001D01*
X829000Y187499D01*
Y185500D01*
X828001Y184500D01*
X825002D01*
X827001D02*
X829000Y182501D01*
X831000Y183501D02*
X831999Y182501D01*
X833999D01*
X834998Y183501D01*
Y187499D01*
X833999Y188499D01*
X831999D01*
X831000Y187499D01*
Y186500D01*
X831999Y185500D01*
X834998D01*
X808820Y103008D02*
Y109006D01*
X811819D01*
X812819Y108006D01*
Y106007D01*
X811819Y105007D01*
X808820D01*
X810820D02*
X812819Y103008D01*
X814818Y108006D02*
X815818Y109006D01*
X817817D01*
X818817Y108006D01*
Y107007D01*
X817817Y106007D01*
X818817Y105007D01*
Y104008D01*
X817817Y103008D01*
X815818D01*
X814818Y104008D01*
Y105007D01*
X815818Y106007D01*
X814818Y107007D01*
Y108006D01*
X815818Y106007D02*
X817817D01*
X737193Y87509D02*
Y93507D01*
X740192D01*
X741192Y92507D01*
Y90508D01*
X740192Y89508D01*
X737193D01*
X739192D02*
X741192Y87509D01*
X743191Y93507D02*
X747190D01*
Y92507D01*
X743191Y88509D01*
Y87509D01*
X711801Y88702D02*
Y94700D01*
X714800D01*
X715800Y93700D01*
Y91701D01*
X714800Y90701D01*
X711801D01*
X713800D02*
X715800Y88702D01*
X721798Y94700D02*
X719798Y93700D01*
X717799Y91701D01*
Y89701D01*
X718799Y88702D01*
X720798D01*
X721798Y89701D01*
Y90701D01*
X720798Y91701D01*
X717799D01*
X98002Y197001D02*
Y202999D01*
X101001D01*
X102000Y201999D01*
Y200000D01*
X101001Y199000D01*
X98002D01*
X100001D02*
X102000Y197001D01*
X107998Y202999D02*
X104000D01*
Y200000D01*
X105999Y201000D01*
X106999D01*
X107998Y200000D01*
Y198001D01*
X106999Y197001D01*
X104999D01*
X104000Y198001D01*
X96685Y215001D02*
Y220999D01*
X99684D01*
X100684Y219999D01*
Y218000D01*
X99684Y217000D01*
X96685D01*
X98685D02*
X100684Y215001D01*
X105682D02*
Y220999D01*
X102683Y218000D01*
X106682D01*
X98002Y235501D02*
Y241499D01*
X101001D01*
X102000Y240499D01*
Y238500D01*
X101001Y237500D01*
X98002D01*
X100001D02*
X102000Y235501D01*
X104000Y240499D02*
X104999Y241499D01*
X106999D01*
X107998Y240499D01*
Y239500D01*
X106999Y238500D01*
X105999D01*
X106999D01*
X107998Y237500D01*
Y236501D01*
X106999Y235501D01*
X104999D01*
X104000Y236501D01*
X740069Y531999D02*
X746067D01*
Y529000D01*
X745067Y528000D01*
X743068D01*
X742068Y529000D01*
Y531999D01*
Y529999D02*
X740069Y528000D01*
Y526001D02*
Y524001D01*
Y525001D01*
X746067D01*
X745067Y526001D01*
X869919Y115306D02*
X868919Y116306D01*
X866920D01*
X865920Y115306D01*
Y111308D01*
X866920Y110308D01*
X868919D01*
X869919Y111308D01*
X875917Y110308D02*
X871918D01*
X875917Y114307D01*
Y115306D01*
X874917Y116306D01*
X872918D01*
X871918Y115306D01*
X869919Y163306D02*
X868919Y164306D01*
X866920D01*
X865920Y163306D01*
Y159308D01*
X866920Y158308D01*
X868919D01*
X869919Y159308D01*
X871918Y158308D02*
X873917D01*
X872918D01*
Y164306D01*
X871918Y163306D01*
X89686Y430561D02*
Y436559D01*
X92685D01*
X93685Y435559D01*
Y433560D01*
X92685Y432560D01*
X89686D01*
X95684Y430561D02*
X97684D01*
X96684D01*
Y436559D01*
X95684Y435559D01*
X768020Y519606D02*
Y514608D01*
X769020Y513608D01*
X771019D01*
X772019Y514608D01*
Y519606D01*
X777017Y513608D02*
Y519606D01*
X774018Y516607D01*
X778017D01*
X768020Y390806D02*
Y385808D01*
X769020Y384808D01*
X771019D01*
X772019Y385808D01*
Y390806D01*
X774018Y389806D02*
X775018Y390806D01*
X777017D01*
X778017Y389806D01*
Y388807D01*
X777017Y387807D01*
X776018D01*
X777017D01*
X778017Y386807D01*
Y385808D01*
X777017Y384808D01*
X775018D01*
X774018Y385808D01*
X882020Y519606D02*
Y514608D01*
X883020Y513608D01*
X885019D01*
X886019Y514608D01*
Y519606D01*
X892017Y513608D02*
X888018D01*
X892017Y517607D01*
Y518606D01*
X891017Y519606D01*
X889018D01*
X888018Y518606D01*
X882020Y390806D02*
Y385808D01*
X883020Y384808D01*
X885019D01*
X886019Y385808D01*
Y390806D01*
X888018Y384808D02*
X890018D01*
X889018D01*
Y390806D01*
X888018Y389806D01*
X173101Y361650D02*
Y367649D01*
X176100D01*
X177099Y366649D01*
Y364650D01*
X176100Y363650D01*
X173101D01*
X183097Y367649D02*
X181098Y366649D01*
X179099Y364650D01*
Y362650D01*
X180098Y361650D01*
X182098D01*
X183097Y362650D01*
Y363650D01*
X182098Y364650D01*
X179099D01*
X1060046Y363064D02*
Y369062D01*
X1063045D01*
X1064044Y368062D01*
Y366063D01*
X1063045Y365063D01*
X1060046D01*
X1070042Y369062D02*
X1066044D01*
Y366063D01*
X1068043Y367063D01*
X1069043D01*
X1070042Y366063D01*
Y364064D01*
X1069043Y363064D01*
X1067043D01*
X1066044Y364064D01*
X499549Y91186D02*
Y97184D01*
X502548D01*
X503547Y96184D01*
Y94185D01*
X502548Y93185D01*
X499549D01*
X505547Y96184D02*
X506546Y97184D01*
X508546D01*
X509546Y96184D01*
Y95185D01*
X508546Y94185D01*
X507546D01*
X508546D01*
X509546Y93185D01*
Y92186D01*
X508546Y91186D01*
X506546D01*
X505547Y92186D01*
X500002Y521001D02*
Y526999D01*
X503001D01*
X504000Y525999D01*
Y524000D01*
X503001Y523000D01*
X500002D01*
X509998Y521001D02*
X506000D01*
X509998Y525000D01*
Y525999D01*
X508999Y526999D01*
X506999D01*
X506000Y525999D01*
D15*
X176000Y269500D02*
Y267834D01*
Y268667D01*
X180998D01*
X180165Y269500D01*
X180998Y262002D02*
X180165Y263669D01*
X178499Y265335D01*
X176833D01*
X176000Y264502D01*
Y262836D01*
X176833Y262002D01*
X177666D01*
X178499Y262836D01*
Y265335D01*
X185500Y270000D02*
Y268334D01*
Y269167D01*
X190498D01*
X189665Y270000D01*
X190498Y262502D02*
Y265835D01*
X187999D01*
X188832Y264169D01*
Y263335D01*
X187999Y262502D01*
X186333D01*
X185500Y263335D01*
Y265002D01*
X186333Y265835D01*
X185599Y357649D02*
Y355983D01*
Y356816D01*
X190597D01*
X189764Y357649D01*
X175599Y355817D02*
Y359150D01*
X178931Y355817D01*
X179764D01*
X180597Y356650D01*
Y358316D01*
X179764Y359150D01*
X1065898Y271992D02*
Y270326D01*
Y271159D01*
X1060899D01*
X1061732Y271992D01*
X1060899Y264495D02*
X1061732Y266161D01*
X1063398Y267827D01*
X1065065D01*
X1065898Y266994D01*
Y265328D01*
X1065065Y264495D01*
X1064231D01*
X1063398Y265328D01*
Y267827D01*
X1075898Y271992D02*
Y270326D01*
Y271159D01*
X1070899D01*
X1071732Y271992D01*
X1070899Y264495D02*
Y267827D01*
X1073398D01*
X1072565Y266161D01*
Y265328D01*
X1073398Y264495D01*
X1075065D01*
X1075898Y265328D01*
Y266994D01*
X1075065Y267827D01*
X1072044Y358063D02*
Y356397D01*
Y357230D01*
X1077042D01*
X1076209Y358063D01*
X1061544Y355731D02*
Y359063D01*
X1064876Y355731D01*
X1065709D01*
X1066542Y356564D01*
Y358230D01*
X1065709Y359063D01*
M02*
