G04*
G04 #@! TF.GenerationSoftware,Altium Limited,Altium Designer,22.11.1 (43)*
G04*
G04 Layer_Color=255*
%FSLAX25Y25*%
%MOIN*%
G70*
G04*
G04 #@! TF.SameCoordinates,C01CB905-4FAA-478C-A3D6-3825F8E537A0*
G04*
G04*
G04 #@! TF.FilePolarity,Positive*
G04*
G01*
G75*
%ADD21R,0.02756X0.14173*%
%ADD22R,0.14173X0.02756*%
%ADD36R,0.27559X0.27559*%
%ADD37C,0.01968*%
%ADD38C,0.12992*%
%ADD39C,0.09055*%
%ADD40C,0.05906*%
%ADD41R,0.05906X0.05906*%
%ADD42R,0.05906X0.05906*%
%ADD44R,0.05118X0.09449*%
D21*
X526575Y71654D02*
D03*
X530512D02*
D03*
X534449D02*
D03*
X538386D02*
D03*
X542323D02*
D03*
X546260D02*
D03*
X550197D02*
D03*
X554134D02*
D03*
X558071D02*
D03*
X562008D02*
D03*
X565945D02*
D03*
X577756D02*
D03*
X581693D02*
D03*
X585630D02*
D03*
X589567D02*
D03*
X593504D02*
D03*
X597441D02*
D03*
X601378D02*
D03*
X605315D02*
D03*
X609252D02*
D03*
X613189D02*
D03*
X617126D02*
D03*
X621063D02*
D03*
X625000D02*
D03*
X628937D02*
D03*
X632874D02*
D03*
X636811D02*
D03*
X640748D02*
D03*
X644685D02*
D03*
X648622D02*
D03*
X652559D02*
D03*
X656496D02*
D03*
X660433D02*
D03*
X664370D02*
D03*
X668307D02*
D03*
X672244D02*
D03*
X676181D02*
D03*
X680118D02*
D03*
X684055D02*
D03*
X687992D02*
D03*
X691929D02*
D03*
X695866D02*
D03*
X699803D02*
D03*
X703740D02*
D03*
X707677D02*
D03*
X711614D02*
D03*
X715551D02*
D03*
X719488D02*
D03*
X723425D02*
D03*
Y548413D02*
D03*
X719488D02*
D03*
X715551D02*
D03*
X711614D02*
D03*
X707677D02*
D03*
X703740D02*
D03*
X699803D02*
D03*
X695866D02*
D03*
X691929D02*
D03*
X687992D02*
D03*
X684055D02*
D03*
X680118D02*
D03*
X676181D02*
D03*
X672244D02*
D03*
X668307D02*
D03*
X664370D02*
D03*
X660433D02*
D03*
X656496D02*
D03*
X652559D02*
D03*
X648622D02*
D03*
X644685D02*
D03*
X640748D02*
D03*
X636811D02*
D03*
X632874D02*
D03*
X628937D02*
D03*
X625000D02*
D03*
X621063D02*
D03*
X617126D02*
D03*
X613189D02*
D03*
X609252D02*
D03*
X605315D02*
D03*
X601378D02*
D03*
X597441D02*
D03*
X593504D02*
D03*
X589567D02*
D03*
X585630D02*
D03*
X581693D02*
D03*
X577756D02*
D03*
X565945D02*
D03*
X562008D02*
D03*
X558071D02*
D03*
X554134D02*
D03*
X550197D02*
D03*
X546260D02*
D03*
X542323D02*
D03*
X538386D02*
D03*
X534449D02*
D03*
X530512D02*
D03*
X526575D02*
D03*
D22*
X71654Y408477D02*
D03*
Y404540D02*
D03*
Y400603D02*
D03*
Y396666D02*
D03*
Y392729D02*
D03*
Y388792D02*
D03*
Y384855D02*
D03*
Y380918D02*
D03*
Y376981D02*
D03*
Y373044D02*
D03*
Y369107D02*
D03*
Y357296D02*
D03*
Y353359D02*
D03*
Y349422D02*
D03*
Y345485D02*
D03*
Y341548D02*
D03*
Y337611D02*
D03*
Y333674D02*
D03*
Y329737D02*
D03*
Y325800D02*
D03*
Y321863D02*
D03*
Y317926D02*
D03*
Y313989D02*
D03*
Y310052D02*
D03*
Y306115D02*
D03*
Y302178D02*
D03*
Y298241D02*
D03*
Y294304D02*
D03*
Y290367D02*
D03*
Y286430D02*
D03*
Y282493D02*
D03*
Y278556D02*
D03*
Y274619D02*
D03*
Y270682D02*
D03*
Y266745D02*
D03*
Y262808D02*
D03*
Y258871D02*
D03*
Y254934D02*
D03*
Y250997D02*
D03*
Y247060D02*
D03*
Y243123D02*
D03*
Y239186D02*
D03*
Y235249D02*
D03*
Y231312D02*
D03*
Y227375D02*
D03*
Y223438D02*
D03*
Y219501D02*
D03*
Y215564D02*
D03*
Y211627D02*
D03*
D36*
X526945Y435430D02*
D03*
X479000Y435500D02*
D03*
D37*
X303087Y528307D02*
D03*
X233008D02*
D03*
D38*
X315095Y535000D02*
D03*
X221000D02*
D03*
D39*
X507677Y68898D02*
D03*
X742323D02*
D03*
X742323Y551169D02*
D03*
X507677D02*
D03*
X68898Y427375D02*
D03*
Y192729D02*
D03*
D40*
X178071Y277992D02*
D03*
X188071D02*
D03*
X178071Y287992D02*
D03*
X188071D02*
D03*
X178071Y297992D02*
D03*
X188071D02*
D03*
X178071Y307992D02*
D03*
X188071D02*
D03*
X178071Y317992D02*
D03*
X188071D02*
D03*
X178071Y327992D02*
D03*
X188071D02*
D03*
X178071Y337992D02*
D03*
X188071D02*
D03*
X178071Y347992D02*
D03*
X1063898Y277992D02*
D03*
X1073898D02*
D03*
X1063898Y287992D02*
D03*
X1073898D02*
D03*
X1063898Y297992D02*
D03*
X1073898D02*
D03*
X1063898Y307992D02*
D03*
X1073898D02*
D03*
X1063898Y317992D02*
D03*
X1073898D02*
D03*
X1063898Y327992D02*
D03*
X1073898D02*
D03*
X1063898Y337992D02*
D03*
X1073898D02*
D03*
X1063898Y347992D02*
D03*
X932598Y221142D02*
D03*
X942598Y211142D02*
D03*
Y221142D02*
D03*
X952598Y211142D02*
D03*
Y221142D02*
D03*
X962598Y211142D02*
D03*
Y221142D02*
D03*
X972598Y211142D02*
D03*
Y221142D02*
D03*
X982598Y211142D02*
D03*
Y221142D02*
D03*
X992598Y211142D02*
D03*
Y221142D02*
D03*
X1002598Y211142D02*
D03*
Y221142D02*
D03*
X1012598Y211142D02*
D03*
Y221142D02*
D03*
X1022598Y211142D02*
D03*
Y221142D02*
D03*
X1032598Y211142D02*
D03*
Y221142D02*
D03*
X1042598Y211142D02*
D03*
Y221142D02*
D03*
X1052598Y211142D02*
D03*
Y221142D02*
D03*
X1062598Y211142D02*
D03*
Y221142D02*
D03*
X1072598Y211142D02*
D03*
Y221142D02*
D03*
X1082598Y211142D02*
D03*
Y221142D02*
D03*
X1092598Y211142D02*
D03*
Y221142D02*
D03*
X1102598Y211142D02*
D03*
Y221142D02*
D03*
X1112598Y211142D02*
D03*
Y221142D02*
D03*
X1122598Y211142D02*
D03*
Y221142D02*
D03*
D41*
X188071Y347992D02*
D03*
X1073898D02*
D03*
D42*
X932598Y211142D02*
D03*
D44*
X299543Y536181D02*
D03*
X283795D02*
D03*
X275921D02*
D03*
X268047D02*
D03*
X260173D02*
D03*
X252299D02*
D03*
X244425D02*
D03*
X236551D02*
D03*
M02*
