G04*
G04 #@! TF.GenerationSoftware,Altium Limited,Altium Designer,22.11.1 (43)*
G04*
G04 Layer_Color=16711935*
%FSLAX25Y25*%
%MOIN*%
G70*
G04*
G04 #@! TF.SameCoordinates,C01CB905-4FAA-478C-A3D6-3825F8E537A0*
G04*
G04*
G04 #@! TF.FilePolarity,Positive*
G04*
G01*
G75*
%ADD11C,0.00787*%
G36*
X834163Y147577D02*
X834192Y147573D01*
X834225Y147570D01*
X834265Y147562D01*
X834305Y147555D01*
X834400Y147533D01*
X834498Y147497D01*
X834549Y147475D01*
X834596Y147446D01*
X834647Y147417D01*
X834694Y147380D01*
X834698Y147377D01*
X834709Y147369D01*
X834723Y147355D01*
X834742Y147336D01*
X834764Y147311D01*
X834793Y147282D01*
X834818Y147246D01*
X834847Y147205D01*
X834876Y147162D01*
X834902Y147111D01*
X834927Y147056D01*
X834953Y146998D01*
X834971Y146936D01*
X834986Y146867D01*
X834996Y146794D01*
X835000Y146718D01*
Y146685D01*
X834996Y146660D01*
X834993Y146630D01*
X834989Y146598D01*
X834986Y146557D01*
X834975Y146518D01*
X834953Y146426D01*
X834920Y146335D01*
X834898Y146288D01*
X834873Y146241D01*
X834844Y146197D01*
X834811Y146153D01*
X834807Y146150D01*
X834803Y146143D01*
X834789Y146135D01*
X834774Y146121D01*
X834756Y146102D01*
X834734Y146084D01*
X834705Y146063D01*
X834673Y146044D01*
X834640Y146022D01*
X834600Y146001D01*
X834512Y145961D01*
X834410Y145928D01*
X834356Y145917D01*
X834297Y145910D01*
X834272Y146234D01*
X834276D01*
X834283D01*
X834294Y146237D01*
X834312Y146241D01*
X834352Y146252D01*
X834407Y146266D01*
X834461Y146288D01*
X834523Y146317D01*
X834578Y146354D01*
X834629Y146397D01*
X834632Y146405D01*
X834647Y146419D01*
X834665Y146448D01*
X834687Y146488D01*
X834709Y146532D01*
X834727Y146587D01*
X834742Y146649D01*
X834745Y146718D01*
Y146740D01*
X834742Y146754D01*
X834738Y146798D01*
X834723Y146849D01*
X834705Y146911D01*
X834676Y146973D01*
X834632Y147038D01*
X834607Y147067D01*
X834578Y147096D01*
X834574Y147100D01*
X834571Y147104D01*
X834560Y147111D01*
X834549Y147122D01*
X834509Y147147D01*
X834458Y147176D01*
X834396Y147202D01*
X834319Y147227D01*
X834228Y147246D01*
X834181Y147253D01*
X834130D01*
X834126D01*
X834119D01*
X834105D01*
X834086Y147249D01*
X834065D01*
X834039Y147246D01*
X833981Y147235D01*
X833912Y147216D01*
X833842Y147191D01*
X833777Y147154D01*
X833715Y147104D01*
X833712D01*
X833708Y147096D01*
X833690Y147078D01*
X833664Y147045D01*
X833635Y147002D01*
X833610Y146943D01*
X833584Y146878D01*
X833566Y146801D01*
X833559Y146758D01*
Y146689D01*
X833562Y146660D01*
X833566Y146623D01*
X833577Y146579D01*
X833588Y146536D01*
X833606Y146488D01*
X833628Y146441D01*
X833631Y146437D01*
X833639Y146423D01*
X833657Y146401D01*
X833675Y146372D01*
X833701Y146343D01*
X833733Y146314D01*
X833766Y146281D01*
X833806Y146255D01*
X833766Y145964D01*
X832470Y146208D01*
Y147460D01*
X832765D01*
Y146452D01*
X833446Y146317D01*
X833442Y146321D01*
X833438Y146328D01*
X833431Y146339D01*
X833420Y146357D01*
X833409Y146379D01*
X833395Y146405D01*
X833366Y146463D01*
X833337Y146536D01*
X833311Y146616D01*
X833293Y146703D01*
X833286Y146747D01*
Y146827D01*
X833289Y146849D01*
X833293Y146878D01*
X833296Y146911D01*
X833304Y146947D01*
X833315Y146987D01*
X833340Y147074D01*
X833358Y147122D01*
X833384Y147169D01*
X833409Y147216D01*
X833438Y147264D01*
X833475Y147307D01*
X833515Y147351D01*
X833519Y147355D01*
X833526Y147362D01*
X833537Y147373D01*
X833555Y147388D01*
X833580Y147406D01*
X833606Y147424D01*
X833639Y147446D01*
X833675Y147468D01*
X833715Y147486D01*
X833759Y147508D01*
X833810Y147526D01*
X833861Y147544D01*
X833915Y147558D01*
X833977Y147570D01*
X834039Y147577D01*
X834105Y147580D01*
X834108D01*
X834119D01*
X834137D01*
X834163Y147577D01*
D02*
G37*
G36*
X833988Y145476D02*
X834025D01*
X834068Y145473D01*
X834112Y145469D01*
X834210Y145458D01*
X834312Y145444D01*
X834410Y145422D01*
X834458Y145407D01*
X834501Y145393D01*
X834505D01*
X834512Y145389D01*
X834523Y145382D01*
X834538Y145375D01*
X834578Y145353D01*
X834629Y145320D01*
X834687Y145276D01*
X834745Y145225D01*
X834807Y145160D01*
X834862Y145080D01*
Y145076D01*
X834869Y145069D01*
X834873Y145058D01*
X834884Y145040D01*
X834894Y145018D01*
X834905Y144989D01*
X834916Y144960D01*
X834931Y144923D01*
X834945Y144883D01*
X834956Y144840D01*
X834967Y144792D01*
X834978Y144738D01*
X834986Y144683D01*
X834993Y144625D01*
X835000Y144494D01*
Y144461D01*
X834996Y144435D01*
Y144406D01*
X834993Y144370D01*
X834989Y144330D01*
X834986Y144290D01*
X834971Y144199D01*
X834949Y144100D01*
X834920Y144006D01*
X834880Y143915D01*
Y143911D01*
X834873Y143904D01*
X834865Y143893D01*
X834858Y143878D01*
X834829Y143839D01*
X834789Y143791D01*
X834738Y143737D01*
X834680Y143686D01*
X834607Y143635D01*
X834527Y143595D01*
X834523D01*
X834516Y143591D01*
X834501Y143587D01*
X834483Y143580D01*
X834461Y143573D01*
X834432Y143565D01*
X834400Y143554D01*
X834359Y143547D01*
X834316Y143540D01*
X834268Y143529D01*
X834217Y143522D01*
X834163Y143515D01*
X834101Y143507D01*
X834035Y143504D01*
X833966Y143500D01*
X833893D01*
X832438D01*
Y143835D01*
X833893D01*
X833897D01*
X833908D01*
X833926D01*
X833948D01*
X833974Y143839D01*
X834006D01*
X834076Y143842D01*
X834156Y143849D01*
X834236Y143860D01*
X834312Y143875D01*
X834345Y143882D01*
X834378Y143893D01*
X834385Y143897D01*
X834403Y143904D01*
X834429Y143922D01*
X834465Y143944D01*
X834501Y143970D01*
X834541Y144006D01*
X834581Y144050D01*
X834614Y144100D01*
X834618Y144108D01*
X834629Y144126D01*
X834640Y144159D01*
X834654Y144202D01*
X834673Y144253D01*
X834683Y144319D01*
X834694Y144388D01*
X834698Y144465D01*
Y144501D01*
X834694Y144523D01*
Y144555D01*
X834691Y144588D01*
X834676Y144668D01*
X834658Y144756D01*
X834629Y144840D01*
X834589Y144920D01*
X834563Y144956D01*
X834534Y144989D01*
X834531Y144992D01*
X834527Y144996D01*
X834516Y145003D01*
X834501Y145014D01*
X834480Y145025D01*
X834458Y145040D01*
X834425Y145054D01*
X834392Y145069D01*
X834352Y145083D01*
X834305Y145094D01*
X834250Y145109D01*
X834192Y145120D01*
X834126Y145131D01*
X834057Y145138D01*
X833977Y145145D01*
X833893D01*
X832438D01*
Y145480D01*
X833893D01*
X833897D01*
X833912D01*
X833930D01*
X833955D01*
X833988Y145476D01*
D02*
G37*
G36*
X834703Y96059D02*
X834725D01*
X834783Y96048D01*
X834852Y96037D01*
X834925Y96018D01*
X835005Y95993D01*
X835081Y95957D01*
X835085D01*
X835089Y95953D01*
X835100Y95946D01*
X835114Y95938D01*
X835151Y95917D01*
X835198Y95884D01*
X835249Y95844D01*
X835300Y95797D01*
X835351Y95738D01*
X835394Y95676D01*
Y95673D01*
X835398Y95669D01*
X835405Y95658D01*
X835409Y95644D01*
X835427Y95607D01*
X835445Y95560D01*
X835467Y95498D01*
X835482Y95429D01*
X835496Y95352D01*
X835500Y95269D01*
Y95250D01*
X835496Y95232D01*
Y95203D01*
X835493Y95170D01*
X835485Y95134D01*
X835475Y95090D01*
X835464Y95047D01*
X835449Y94996D01*
X835431Y94945D01*
X835409Y94894D01*
X835380Y94839D01*
X835347Y94788D01*
X835311Y94737D01*
X835267Y94686D01*
X835216Y94639D01*
X835213Y94635D01*
X835202Y94628D01*
X835187Y94617D01*
X835161Y94603D01*
X835129Y94581D01*
X835092Y94563D01*
X835045Y94541D01*
X834994Y94519D01*
X834932Y94493D01*
X834863Y94472D01*
X834787Y94453D01*
X834703Y94435D01*
X834608Y94417D01*
X834506Y94406D01*
X834397Y94399D01*
X834281Y94395D01*
X834277D01*
X834273D01*
X834262D01*
X834248D01*
X834212Y94399D01*
X834161D01*
X834102Y94402D01*
X834033Y94410D01*
X833957Y94417D01*
X833873Y94428D01*
X833789Y94442D01*
X833698Y94461D01*
X833611Y94482D01*
X833523Y94508D01*
X833440Y94541D01*
X833360Y94577D01*
X833283Y94617D01*
X833218Y94664D01*
X833214Y94668D01*
X833207Y94675D01*
X833192Y94690D01*
X833170Y94708D01*
X833149Y94730D01*
X833127Y94759D01*
X833098Y94796D01*
X833072Y94832D01*
X833047Y94876D01*
X833018Y94923D01*
X832996Y94977D01*
X832970Y95032D01*
X832952Y95094D01*
X832938Y95160D01*
X832930Y95229D01*
X832927Y95301D01*
Y95331D01*
X832930Y95352D01*
Y95378D01*
X832934Y95407D01*
X832948Y95476D01*
X832967Y95553D01*
X832996Y95633D01*
X833039Y95713D01*
X833065Y95753D01*
X833094Y95789D01*
X833098Y95793D01*
X833101Y95797D01*
X833112Y95807D01*
X833123Y95818D01*
X833141Y95837D01*
X833163Y95851D01*
X833214Y95891D01*
X833280Y95931D01*
X833360Y95968D01*
X833451Y96000D01*
X833553Y96022D01*
X833578Y95713D01*
X833574D01*
X833571Y95709D01*
X833549Y95705D01*
X833516Y95695D01*
X833476Y95680D01*
X833432Y95665D01*
X833389Y95644D01*
X833349Y95618D01*
X833316Y95593D01*
X833309Y95585D01*
X833294Y95571D01*
X833272Y95545D01*
X833247Y95509D01*
X833225Y95462D01*
X833203Y95411D01*
X833189Y95349D01*
X833181Y95283D01*
Y95258D01*
X833185Y95229D01*
X833192Y95196D01*
X833203Y95152D01*
X833218Y95108D01*
X833236Y95065D01*
X833265Y95021D01*
X833269Y95014D01*
X833283Y94996D01*
X833309Y94970D01*
X833345Y94937D01*
X833389Y94901D01*
X833440Y94861D01*
X833505Y94825D01*
X833578Y94788D01*
X833582D01*
X833589Y94785D01*
X833600Y94781D01*
X833615Y94774D01*
X833636Y94770D01*
X833662Y94763D01*
X833691Y94755D01*
X833727Y94748D01*
X833767Y94737D01*
X833811Y94730D01*
X833858Y94723D01*
X833909Y94719D01*
X833968Y94712D01*
X834026Y94708D01*
X834091Y94705D01*
X834157D01*
X834153Y94708D01*
X834131Y94723D01*
X834102Y94748D01*
X834066Y94781D01*
X834022Y94817D01*
X833982Y94865D01*
X833942Y94916D01*
X833906Y94974D01*
Y94977D01*
X833902Y94981D01*
X833891Y95003D01*
X833880Y95036D01*
X833862Y95079D01*
X833848Y95130D01*
X833837Y95189D01*
X833826Y95250D01*
X833822Y95316D01*
Y95345D01*
X833826Y95367D01*
X833829Y95396D01*
X833833Y95425D01*
X833840Y95462D01*
X833851Y95498D01*
X833877Y95582D01*
X833895Y95625D01*
X833920Y95669D01*
X833946Y95713D01*
X833975Y95760D01*
X834011Y95804D01*
X834051Y95844D01*
X834055Y95847D01*
X834062Y95855D01*
X834073Y95866D01*
X834091Y95876D01*
X834117Y95895D01*
X834142Y95913D01*
X834175Y95931D01*
X834212Y95953D01*
X834251Y95975D01*
X834295Y95993D01*
X834346Y96011D01*
X834397Y96029D01*
X834452Y96040D01*
X834514Y96051D01*
X834575Y96059D01*
X834641Y96062D01*
X834645D01*
X834652D01*
X834663D01*
X834681D01*
X834703Y96059D01*
D02*
G37*
G36*
X834488Y93976D02*
X834525D01*
X834568Y93973D01*
X834612Y93969D01*
X834710Y93958D01*
X834812Y93944D01*
X834910Y93922D01*
X834958Y93907D01*
X835001Y93893D01*
X835005D01*
X835012Y93889D01*
X835023Y93882D01*
X835038Y93875D01*
X835078Y93853D01*
X835129Y93820D01*
X835187Y93776D01*
X835245Y93725D01*
X835307Y93660D01*
X835362Y93580D01*
Y93576D01*
X835369Y93569D01*
X835373Y93558D01*
X835384Y93540D01*
X835394Y93518D01*
X835405Y93489D01*
X835416Y93460D01*
X835431Y93423D01*
X835445Y93383D01*
X835456Y93340D01*
X835467Y93292D01*
X835478Y93238D01*
X835485Y93183D01*
X835493Y93125D01*
X835500Y92994D01*
Y92961D01*
X835496Y92935D01*
Y92906D01*
X835493Y92870D01*
X835489Y92830D01*
X835485Y92790D01*
X835471Y92699D01*
X835449Y92601D01*
X835420Y92506D01*
X835380Y92415D01*
Y92411D01*
X835373Y92404D01*
X835365Y92393D01*
X835358Y92378D01*
X835329Y92339D01*
X835289Y92291D01*
X835238Y92237D01*
X835180Y92186D01*
X835107Y92135D01*
X835027Y92095D01*
X835023D01*
X835016Y92091D01*
X835001Y92087D01*
X834983Y92080D01*
X834961Y92073D01*
X834932Y92066D01*
X834900Y92054D01*
X834859Y92047D01*
X834816Y92040D01*
X834768Y92029D01*
X834717Y92022D01*
X834663Y92014D01*
X834601Y92007D01*
X834535Y92004D01*
X834466Y92000D01*
X834394D01*
X832938D01*
Y92335D01*
X834394D01*
X834397D01*
X834408D01*
X834426D01*
X834448D01*
X834474Y92339D01*
X834506D01*
X834575Y92342D01*
X834656Y92349D01*
X834736Y92360D01*
X834812Y92375D01*
X834845Y92382D01*
X834878Y92393D01*
X834885Y92397D01*
X834903Y92404D01*
X834929Y92422D01*
X834965Y92444D01*
X835001Y92470D01*
X835041Y92506D01*
X835081Y92550D01*
X835114Y92601D01*
X835118Y92608D01*
X835129Y92626D01*
X835140Y92659D01*
X835154Y92703D01*
X835172Y92753D01*
X835183Y92819D01*
X835194Y92888D01*
X835198Y92965D01*
Y93001D01*
X835194Y93023D01*
Y93056D01*
X835191Y93088D01*
X835176Y93168D01*
X835158Y93256D01*
X835129Y93340D01*
X835089Y93420D01*
X835063Y93456D01*
X835034Y93489D01*
X835030Y93492D01*
X835027Y93496D01*
X835016Y93503D01*
X835001Y93514D01*
X834980Y93525D01*
X834958Y93540D01*
X834925Y93554D01*
X834892Y93569D01*
X834852Y93583D01*
X834805Y93594D01*
X834750Y93609D01*
X834692Y93620D01*
X834626Y93631D01*
X834557Y93638D01*
X834477Y93645D01*
X834394D01*
X832938D01*
Y93980D01*
X834394D01*
X834397D01*
X834412D01*
X834430D01*
X834455D01*
X834488Y93976D01*
D02*
G37*
G36*
X837243Y179570D02*
X837261D01*
X837287Y179566D01*
X837349Y179555D01*
X837418Y179541D01*
X837494Y179515D01*
X837571Y179482D01*
X837647Y179439D01*
X837651D01*
X837654Y179431D01*
X837665Y179424D01*
X837680Y179413D01*
X837716Y179384D01*
X837764Y179344D01*
X837811Y179289D01*
X837866Y179224D01*
X837913Y179148D01*
X837957Y179060D01*
Y179057D01*
X837960Y179049D01*
X837967Y179035D01*
X837975Y179016D01*
X837982Y178991D01*
X837993Y178958D01*
X838000Y178922D01*
X838011Y178882D01*
X838022Y178834D01*
X838033Y178780D01*
X838040Y178722D01*
X838048Y178660D01*
X838055Y178591D01*
X838062Y178518D01*
X838066Y178438D01*
Y178354D01*
Y178350D01*
Y178332D01*
Y178307D01*
Y178274D01*
X838062Y178234D01*
Y178187D01*
X838058Y178132D01*
X838051Y178077D01*
X838040Y177954D01*
X838022Y177823D01*
X837997Y177699D01*
X837978Y177637D01*
X837960Y177582D01*
Y177579D01*
X837957Y177571D01*
X837949Y177557D01*
X837942Y177535D01*
X837931Y177513D01*
X837917Y177484D01*
X837880Y177422D01*
X837836Y177353D01*
X837786Y177280D01*
X837720Y177211D01*
X837647Y177149D01*
X837644D01*
X837636Y177142D01*
X837625Y177135D01*
X837611Y177127D01*
X837589Y177116D01*
X837567Y177102D01*
X837538Y177087D01*
X837509Y177076D01*
X837440Y177047D01*
X837356Y177022D01*
X837265Y177007D01*
X837163Y177000D01*
X837134D01*
X837116Y177004D01*
X837090D01*
X837061Y177007D01*
X836992Y177022D01*
X836916Y177040D01*
X836835Y177069D01*
X836755Y177109D01*
X836715Y177135D01*
X836679Y177164D01*
X836675Y177167D01*
X836672Y177171D01*
X836661Y177182D01*
X836650Y177193D01*
X836635Y177211D01*
X836617Y177233D01*
X836581Y177284D01*
X836544Y177349D01*
X836508Y177429D01*
X836479Y177521D01*
X836457Y177626D01*
X836755Y177652D01*
Y177648D01*
X836759Y177641D01*
Y177633D01*
X836763Y177619D01*
X836774Y177579D01*
X836788Y177535D01*
X836806Y177484D01*
X836832Y177433D01*
X836861Y177386D01*
X836897Y177346D01*
X836901Y177342D01*
X836916Y177331D01*
X836941Y177317D01*
X836970Y177302D01*
X837010Y177284D01*
X837058Y177269D01*
X837112Y177258D01*
X837170Y177255D01*
X837196D01*
X837221Y177258D01*
X837254Y177262D01*
X837294Y177269D01*
X837334Y177280D01*
X837378Y177295D01*
X837418Y177317D01*
X837422Y177320D01*
X837436Y177328D01*
X837458Y177342D01*
X837480Y177364D01*
X837509Y177389D01*
X837538Y177419D01*
X837567Y177451D01*
X837596Y177491D01*
X837600Y177495D01*
X837607Y177513D01*
X837622Y177539D01*
X837636Y177571D01*
X837654Y177615D01*
X837673Y177666D01*
X837691Y177724D01*
X837709Y177790D01*
Y177794D01*
X837713Y177797D01*
Y177808D01*
X837716Y177823D01*
X837724Y177859D01*
X837735Y177906D01*
X837742Y177965D01*
X837749Y178026D01*
X837753Y178096D01*
X837756Y178168D01*
Y178172D01*
Y178183D01*
Y178201D01*
Y178230D01*
X837753Y178223D01*
X837738Y178205D01*
X837716Y178179D01*
X837691Y178143D01*
X837654Y178106D01*
X837611Y178067D01*
X837560Y178026D01*
X837502Y177990D01*
X837494Y177986D01*
X837473Y177975D01*
X837440Y177961D01*
X837400Y177946D01*
X837345Y177928D01*
X837287Y177914D01*
X837221Y177903D01*
X837152Y177899D01*
X837123D01*
X837101Y177903D01*
X837072Y177906D01*
X837043Y177910D01*
X837007Y177917D01*
X836970Y177928D01*
X836887Y177954D01*
X836843Y177972D01*
X836799Y177994D01*
X836752Y178019D01*
X836708Y178052D01*
X836664Y178085D01*
X836624Y178125D01*
X836621Y178128D01*
X836613Y178136D01*
X836606Y178147D01*
X836592Y178165D01*
X836573Y178190D01*
X836555Y178216D01*
X836537Y178249D01*
X836519Y178285D01*
X836497Y178325D01*
X836479Y178369D01*
X836461Y178420D01*
X836442Y178471D01*
X836428Y178529D01*
X836421Y178591D01*
X836413Y178653D01*
X836410Y178722D01*
Y178725D01*
Y178740D01*
Y178758D01*
X836413Y178784D01*
X836417Y178816D01*
X836421Y178856D01*
X836428Y178896D01*
X836439Y178944D01*
X836464Y179038D01*
X836482Y179089D01*
X836504Y179144D01*
X836530Y179195D01*
X836563Y179242D01*
X836595Y179293D01*
X836635Y179337D01*
X836639Y179341D01*
X836646Y179348D01*
X836657Y179359D01*
X836675Y179373D01*
X836697Y179391D01*
X836726Y179413D01*
X836755Y179431D01*
X836792Y179457D01*
X836828Y179479D01*
X836872Y179497D01*
X836970Y179537D01*
X837021Y179552D01*
X837079Y179562D01*
X837138Y179570D01*
X837199Y179573D01*
X837225D01*
X837243Y179570D01*
D02*
G37*
G36*
X835198Y179559D02*
X835230D01*
X835307Y179555D01*
X835387Y179544D01*
X835474Y179533D01*
X835554Y179515D01*
X835594Y179504D01*
X835627Y179493D01*
X835631D01*
X835634Y179490D01*
X835656Y179479D01*
X835689Y179464D01*
X835729Y179439D01*
X835773Y179406D01*
X835820Y179362D01*
X835864Y179311D01*
X835907Y179253D01*
Y179250D01*
X835911Y179246D01*
X835925Y179224D01*
X835940Y179188D01*
X835962Y179140D01*
X835980Y179086D01*
X835998Y179020D01*
X836009Y178951D01*
X836013Y178875D01*
Y178871D01*
Y178864D01*
Y178849D01*
X836009Y178831D01*
Y178805D01*
X836006Y178780D01*
X835991Y178718D01*
X835969Y178645D01*
X835940Y178569D01*
X835896Y178492D01*
X835867Y178456D01*
X835838Y178420D01*
X835835Y178416D01*
X835831Y178412D01*
X835820Y178401D01*
X835805Y178390D01*
X835787Y178376D01*
X835765Y178361D01*
X835736Y178343D01*
X835707Y178321D01*
X835671Y178303D01*
X835631Y178285D01*
X835587Y178263D01*
X835540Y178245D01*
X835485Y178230D01*
X835431Y178212D01*
X835369Y178201D01*
X835303Y178190D01*
X835310Y178187D01*
X835325Y178179D01*
X835347Y178165D01*
X835376Y178150D01*
X835441Y178110D01*
X835474Y178085D01*
X835503Y178063D01*
X835511Y178056D01*
X835529Y178037D01*
X835558Y178008D01*
X835594Y177972D01*
X835634Y177921D01*
X835682Y177866D01*
X835729Y177801D01*
X835780Y177728D01*
X836213Y177044D01*
X835798D01*
X835467Y177568D01*
Y177571D01*
X835460Y177579D01*
X835452Y177590D01*
X835441Y177604D01*
X835416Y177644D01*
X835383Y177695D01*
X835343Y177750D01*
X835303Y177808D01*
X835263Y177863D01*
X835227Y177914D01*
X835223Y177917D01*
X835212Y177932D01*
X835194Y177954D01*
X835168Y177979D01*
X835114Y178034D01*
X835085Y178059D01*
X835056Y178081D01*
X835052Y178085D01*
X835045Y178088D01*
X835030Y178096D01*
X835008Y178106D01*
X834986Y178117D01*
X834961Y178128D01*
X834903Y178147D01*
X834899D01*
X834892Y178150D01*
X834877D01*
X834859Y178154D01*
X834834Y178157D01*
X834804D01*
X834764Y178161D01*
X834335D01*
Y177044D01*
X834000D01*
Y179562D01*
X835168D01*
X835198Y179559D01*
D02*
G37*
G36*
X814563Y89832D02*
X814559Y89802D01*
Y89770D01*
X814555Y89693D01*
X814544Y89613D01*
X814533Y89526D01*
X814515Y89446D01*
X814504Y89406D01*
X814493Y89373D01*
Y89369D01*
X814490Y89366D01*
X814479Y89344D01*
X814464Y89311D01*
X814439Y89271D01*
X814406Y89227D01*
X814362Y89180D01*
X814311Y89136D01*
X814253Y89093D01*
X814250D01*
X814246Y89089D01*
X814224Y89074D01*
X814188Y89060D01*
X814140Y89038D01*
X814086Y89020D01*
X814020Y89002D01*
X813951Y88991D01*
X813875Y88987D01*
X813871D01*
X813864D01*
X813849D01*
X813831Y88991D01*
X813805D01*
X813780Y88994D01*
X813718Y89009D01*
X813645Y89031D01*
X813569Y89060D01*
X813492Y89104D01*
X813456Y89133D01*
X813420Y89162D01*
X813416Y89166D01*
X813412Y89169D01*
X813401Y89180D01*
X813390Y89195D01*
X813376Y89213D01*
X813361Y89235D01*
X813343Y89264D01*
X813321Y89293D01*
X813303Y89329D01*
X813285Y89369D01*
X813263Y89413D01*
X813245Y89460D01*
X813230Y89515D01*
X813212Y89569D01*
X813201Y89631D01*
X813190Y89697D01*
X813187Y89690D01*
X813179Y89675D01*
X813165Y89653D01*
X813150Y89624D01*
X813110Y89559D01*
X813085Y89526D01*
X813063Y89497D01*
X813056Y89489D01*
X813037Y89471D01*
X813008Y89442D01*
X812972Y89406D01*
X812921Y89366D01*
X812866Y89318D01*
X812801Y89271D01*
X812728Y89220D01*
X812044Y88787D01*
Y89202D01*
X812568Y89533D01*
X812571D01*
X812579Y89540D01*
X812590Y89548D01*
X812604Y89559D01*
X812644Y89584D01*
X812695Y89617D01*
X812750Y89657D01*
X812808Y89697D01*
X812863Y89737D01*
X812914Y89773D01*
X812917Y89777D01*
X812932Y89788D01*
X812954Y89806D01*
X812979Y89832D01*
X813034Y89886D01*
X813059Y89915D01*
X813081Y89944D01*
X813085Y89948D01*
X813088Y89955D01*
X813096Y89970D01*
X813107Y89992D01*
X813117Y90014D01*
X813128Y90039D01*
X813147Y90097D01*
Y90101D01*
X813150Y90108D01*
Y90123D01*
X813154Y90141D01*
X813157Y90166D01*
Y90196D01*
X813161Y90236D01*
Y90665D01*
X812044D01*
Y91000D01*
X814563D01*
Y89832D01*
D02*
G37*
G36*
X812808Y88590D02*
X812830D01*
X812855Y88587D01*
X812914Y88579D01*
X812979Y88565D01*
X813045Y88543D01*
X813114Y88510D01*
X813179Y88470D01*
X813183D01*
X813187Y88463D01*
X813205Y88448D01*
X813234Y88419D01*
X813270Y88379D01*
X813307Y88328D01*
X813347Y88266D01*
X813379Y88197D01*
X813405Y88113D01*
Y88117D01*
X813409Y88121D01*
X813412Y88132D01*
X813420Y88146D01*
X813434Y88179D01*
X813456Y88223D01*
X813485Y88270D01*
X813521Y88317D01*
X813562Y88361D01*
X813605Y88401D01*
X813612Y88405D01*
X813627Y88416D01*
X813656Y88430D01*
X813693Y88445D01*
X813740Y88463D01*
X813795Y88477D01*
X813856Y88489D01*
X813922Y88492D01*
X813925D01*
X813933D01*
X813947D01*
X813969Y88489D01*
X813991Y88485D01*
X814020Y88481D01*
X814082Y88467D01*
X814155Y88445D01*
X814231Y88408D01*
X814271Y88386D01*
X814311Y88361D01*
X814348Y88328D01*
X814384Y88296D01*
X814388Y88292D01*
X814391Y88285D01*
X814402Y88274D01*
X814413Y88259D01*
X814428Y88241D01*
X814442Y88215D01*
X814461Y88186D01*
X814479Y88157D01*
X814497Y88121D01*
X814515Y88081D01*
X814530Y88037D01*
X814544Y87990D01*
X814566Y87888D01*
X814570Y87830D01*
X814573Y87771D01*
Y87739D01*
X814570Y87717D01*
X814566Y87688D01*
X814563Y87655D01*
X814559Y87618D01*
X814548Y87582D01*
X814526Y87495D01*
X814493Y87407D01*
X814472Y87364D01*
X814446Y87320D01*
X814413Y87280D01*
X814380Y87240D01*
X814377Y87236D01*
X814373Y87233D01*
X814362Y87222D01*
X814348Y87207D01*
X814326Y87193D01*
X814304Y87174D01*
X814250Y87138D01*
X814180Y87102D01*
X814100Y87069D01*
X814009Y87043D01*
X813962Y87040D01*
X813911Y87036D01*
X813907D01*
X813904D01*
X813882D01*
X813849Y87040D01*
X813809Y87047D01*
X813758Y87058D01*
X813707Y87076D01*
X813656Y87098D01*
X813605Y87131D01*
X813598Y87134D01*
X813583Y87149D01*
X813562Y87171D01*
X813532Y87200D01*
X813500Y87240D01*
X813467Y87287D01*
X813434Y87342D01*
X813405Y87407D01*
Y87404D01*
X813401Y87397D01*
X813398Y87385D01*
X813390Y87371D01*
X813372Y87327D01*
X813347Y87276D01*
X813310Y87222D01*
X813270Y87164D01*
X813219Y87109D01*
X813161Y87058D01*
X813157D01*
X813154Y87054D01*
X813132Y87040D01*
X813096Y87018D01*
X813048Y86996D01*
X812990Y86974D01*
X812921Y86952D01*
X812844Y86938D01*
X812761Y86934D01*
X812757D01*
X812746D01*
X812728D01*
X812706Y86938D01*
X812681Y86941D01*
X812648Y86945D01*
X812611Y86952D01*
X812571Y86963D01*
X812488Y86989D01*
X812440Y87007D01*
X812397Y87032D01*
X812349Y87058D01*
X812306Y87087D01*
X812262Y87124D01*
X812218Y87164D01*
X812215Y87167D01*
X812207Y87174D01*
X812197Y87185D01*
X812186Y87204D01*
X812167Y87229D01*
X812149Y87255D01*
X812131Y87287D01*
X812109Y87324D01*
X812087Y87364D01*
X812069Y87411D01*
X812051Y87462D01*
X812033Y87513D01*
X812022Y87571D01*
X812011Y87633D01*
X812004Y87695D01*
X812000Y87764D01*
Y87801D01*
X812004Y87826D01*
X812007Y87859D01*
X812011Y87895D01*
X812018Y87935D01*
X812029Y87979D01*
X812055Y88077D01*
X812073Y88128D01*
X812091Y88175D01*
X812116Y88226D01*
X812146Y88277D01*
X812178Y88325D01*
X812218Y88368D01*
X812222Y88372D01*
X812229Y88379D01*
X812240Y88390D01*
X812258Y88405D01*
X812280Y88419D01*
X812306Y88441D01*
X812335Y88459D01*
X812371Y88481D01*
X812408Y88503D01*
X812451Y88521D01*
X812542Y88558D01*
X812597Y88572D01*
X812652Y88583D01*
X812710Y88590D01*
X812768Y88594D01*
X812772D01*
X812779D01*
X812794D01*
X812808Y88590D01*
D02*
G37*
G36*
X759519Y507832D02*
X759515Y507802D01*
Y507770D01*
X759512Y507693D01*
X759501Y507613D01*
X759490Y507526D01*
X759472Y507446D01*
X759461Y507406D01*
X759450Y507373D01*
Y507369D01*
X759446Y507366D01*
X759435Y507344D01*
X759421Y507311D01*
X759395Y507271D01*
X759362Y507227D01*
X759319Y507180D01*
X759268Y507136D01*
X759209Y507093D01*
X759206D01*
X759202Y507089D01*
X759180Y507074D01*
X759144Y507060D01*
X759097Y507038D01*
X759042Y507020D01*
X758977Y507002D01*
X758907Y506991D01*
X758831Y506987D01*
X758827D01*
X758820D01*
X758805D01*
X758787Y506991D01*
X758762D01*
X758736Y506994D01*
X758674Y507009D01*
X758602Y507031D01*
X758525Y507060D01*
X758449Y507104D01*
X758412Y507133D01*
X758376Y507162D01*
X758372Y507165D01*
X758369Y507169D01*
X758358Y507180D01*
X758347Y507195D01*
X758332Y507213D01*
X758318Y507235D01*
X758299Y507264D01*
X758278Y507293D01*
X758259Y507329D01*
X758241Y507369D01*
X758219Y507413D01*
X758201Y507460D01*
X758187Y507515D01*
X758168Y507570D01*
X758157Y507631D01*
X758147Y507697D01*
X758143Y507690D01*
X758136Y507675D01*
X758121Y507653D01*
X758107Y507624D01*
X758067Y507559D01*
X758041Y507526D01*
X758019Y507497D01*
X758012Y507489D01*
X757994Y507471D01*
X757965Y507442D01*
X757928Y507406D01*
X757877Y507366D01*
X757823Y507318D01*
X757757Y507271D01*
X757684Y507220D01*
X757000Y506787D01*
Y507202D01*
X757524Y507533D01*
X757528D01*
X757535Y507540D01*
X757546Y507548D01*
X757560Y507559D01*
X757601Y507584D01*
X757652Y507617D01*
X757706Y507657D01*
X757764Y507697D01*
X757819Y507737D01*
X757870Y507773D01*
X757873Y507777D01*
X757888Y507788D01*
X757910Y507806D01*
X757935Y507832D01*
X757990Y507886D01*
X758015Y507915D01*
X758037Y507944D01*
X758041Y507948D01*
X758045Y507955D01*
X758052Y507970D01*
X758063Y507992D01*
X758074Y508014D01*
X758085Y508039D01*
X758103Y508097D01*
Y508101D01*
X758107Y508108D01*
Y508123D01*
X758110Y508141D01*
X758114Y508167D01*
Y508196D01*
X758117Y508236D01*
Y508665D01*
X757000D01*
Y509000D01*
X759519D01*
Y507832D01*
D02*
G37*
G36*
X757069Y506630D02*
X757102Y506627D01*
X757138Y506620D01*
X757175Y506612D01*
X757215Y506598D01*
X757218D01*
X757222Y506594D01*
X757244Y506587D01*
X757277Y506572D01*
X757320Y506550D01*
X757371Y506521D01*
X757430Y506485D01*
X757488Y506445D01*
X757550Y506394D01*
X757553D01*
X757557Y506387D01*
X757579Y506368D01*
X757612Y506336D01*
X757659Y506288D01*
X757713Y506234D01*
X757779Y506165D01*
X757852Y506081D01*
X757928Y505990D01*
X757932Y505986D01*
X757943Y505972D01*
X757961Y505950D01*
X757983Y505924D01*
X758012Y505892D01*
X758045Y505852D01*
X758081Y505811D01*
X758121Y505764D01*
X758208Y505673D01*
X758296Y505582D01*
X758340Y505538D01*
X758383Y505498D01*
X758423Y505462D01*
X758463Y505433D01*
X758467D01*
X758470Y505426D01*
X758481Y505418D01*
X758496Y505411D01*
X758536Y505385D01*
X758583Y505356D01*
X758642Y505331D01*
X758704Y505305D01*
X758773Y505291D01*
X758838Y505284D01*
X758842D01*
X758845D01*
X758867Y505287D01*
X758904Y505291D01*
X758944Y505302D01*
X758995Y505316D01*
X759046Y505342D01*
X759097Y505375D01*
X759148Y505418D01*
X759155Y505426D01*
X759169Y505444D01*
X759188Y505469D01*
X759213Y505509D01*
X759235Y505560D01*
X759257Y505618D01*
X759271Y505688D01*
X759275Y505764D01*
Y505786D01*
X759271Y505800D01*
X759268Y505844D01*
X759257Y505895D01*
X759242Y505950D01*
X759217Y506012D01*
X759184Y506070D01*
X759140Y506124D01*
X759133Y506132D01*
X759115Y506146D01*
X759086Y506168D01*
X759042Y506190D01*
X758991Y506215D01*
X758925Y506237D01*
X758853Y506252D01*
X758769Y506259D01*
X758802Y506576D01*
X758805D01*
X758816Y506572D01*
X758835D01*
X758860Y506568D01*
X758889Y506561D01*
X758922Y506554D01*
X758962Y506543D01*
X759002Y506532D01*
X759089Y506503D01*
X759177Y506459D01*
X759220Y506434D01*
X759264Y506401D01*
X759304Y506368D01*
X759340Y506332D01*
X759344Y506328D01*
X759348Y506321D01*
X759359Y506310D01*
X759370Y506292D01*
X759384Y506270D01*
X759399Y506245D01*
X759417Y506215D01*
X759435Y506179D01*
X759453Y506139D01*
X759472Y506095D01*
X759486Y506048D01*
X759501Y505997D01*
X759512Y505942D01*
X759522Y505884D01*
X759526Y505822D01*
X759530Y505757D01*
Y505720D01*
X759526Y505695D01*
X759522Y505666D01*
X759519Y505629D01*
X759512Y505589D01*
X759504Y505549D01*
X759479Y505455D01*
X759442Y505360D01*
X759421Y505313D01*
X759395Y505265D01*
X759362Y505222D01*
X759326Y505182D01*
X759322Y505178D01*
X759319Y505171D01*
X759304Y505163D01*
X759290Y505149D01*
X759271Y505131D01*
X759246Y505113D01*
X759220Y505094D01*
X759188Y505072D01*
X759118Y505036D01*
X759031Y505000D01*
X758987Y504985D01*
X758936Y504978D01*
X758885Y504971D01*
X758831Y504967D01*
X758824D01*
X758805D01*
X758776Y504971D01*
X758736Y504974D01*
X758693Y504982D01*
X758642Y504996D01*
X758587Y505011D01*
X758532Y505032D01*
X758525Y505036D01*
X758507Y505043D01*
X758478Y505058D01*
X758438Y505080D01*
X758394Y505109D01*
X758340Y505145D01*
X758285Y505189D01*
X758223Y505240D01*
X758216Y505247D01*
X758194Y505265D01*
X758176Y505284D01*
X758157Y505302D01*
X758136Y505324D01*
X758107Y505353D01*
X758077Y505382D01*
X758045Y505418D01*
X758008Y505455D01*
X757968Y505498D01*
X757928Y505546D01*
X757881Y505597D01*
X757833Y505655D01*
X757783Y505713D01*
X757779Y505717D01*
X757772Y505724D01*
X757761Y505739D01*
X757746Y505757D01*
X757724Y505779D01*
X757702Y505804D01*
X757655Y505862D01*
X757601Y505924D01*
X757546Y505982D01*
X757499Y506033D01*
X757480Y506055D01*
X757462Y506074D01*
X757459Y506077D01*
X757448Y506088D01*
X757433Y506103D01*
X757411Y506121D01*
X757386Y506139D01*
X757360Y506161D01*
X757298Y506205D01*
Y504963D01*
X757000D01*
Y506634D01*
X757004D01*
X757018D01*
X757040D01*
X757069Y506630D01*
D02*
G37*
G36*
X726054Y102058D02*
X726062Y102051D01*
X726076Y102037D01*
X726098Y102022D01*
X726124Y102000D01*
X726153Y101971D01*
X726189Y101942D01*
X726233Y101909D01*
X726276Y101876D01*
X726327Y101837D01*
X726386Y101796D01*
X726444Y101756D01*
X726509Y101713D01*
X726579Y101669D01*
X726655Y101625D01*
X726731Y101582D01*
X726735Y101578D01*
X726750Y101571D01*
X726771Y101560D01*
X726804Y101542D01*
X726844Y101523D01*
X726888Y101502D01*
X726939Y101476D01*
X726997Y101451D01*
X727063Y101421D01*
X727128Y101389D01*
X727201Y101360D01*
X727277Y101330D01*
X727434Y101272D01*
X727601Y101218D01*
X727605D01*
X727616Y101214D01*
X727634Y101210D01*
X727656Y101203D01*
X727685Y101196D01*
X727722Y101189D01*
X727762Y101178D01*
X727805Y101170D01*
X727856Y101160D01*
X727911Y101148D01*
X728027Y101130D01*
X728155Y101112D01*
X728293Y101101D01*
Y100785D01*
X728289D01*
X728278D01*
X728264D01*
X728242Y100788D01*
X728213D01*
X728176Y100792D01*
X728136Y100795D01*
X728093Y100799D01*
X728042Y100806D01*
X727991Y100814D01*
X727929Y100825D01*
X727867Y100836D01*
X727802Y100846D01*
X727729Y100861D01*
X727580Y100897D01*
X727576D01*
X727561Y100901D01*
X727539Y100908D01*
X727507Y100919D01*
X727470Y100930D01*
X727427Y100945D01*
X727376Y100959D01*
X727321Y100981D01*
X727259Y101003D01*
X727197Y101025D01*
X727059Y101079D01*
X726913Y101145D01*
X726768Y101218D01*
X726764Y101221D01*
X726750Y101229D01*
X726731Y101240D01*
X726702Y101254D01*
X726670Y101272D01*
X726629Y101298D01*
X726586Y101323D01*
X726539Y101352D01*
X726433Y101421D01*
X726324Y101494D01*
X726211Y101578D01*
X726105Y101665D01*
Y100432D01*
X725807D01*
Y102062D01*
X726051D01*
X726054Y102058D01*
D02*
G37*
G36*
X728293Y99798D02*
X727769Y99467D01*
X727765D01*
X727758Y99460D01*
X727747Y99452D01*
X727732Y99441D01*
X727692Y99416D01*
X727641Y99383D01*
X727587Y99343D01*
X727529Y99303D01*
X727474Y99263D01*
X727423Y99227D01*
X727419Y99223D01*
X727405Y99212D01*
X727383Y99194D01*
X727357Y99168D01*
X727303Y99114D01*
X727277Y99085D01*
X727256Y99055D01*
X727252Y99052D01*
X727248Y99045D01*
X727241Y99030D01*
X727230Y99008D01*
X727219Y98986D01*
X727208Y98961D01*
X727190Y98903D01*
Y98899D01*
X727186Y98892D01*
Y98877D01*
X727183Y98859D01*
X727179Y98834D01*
Y98804D01*
X727176Y98764D01*
Y98335D01*
X728293D01*
Y98000D01*
X725774D01*
Y99168D01*
X725778Y99198D01*
Y99230D01*
X725781Y99307D01*
X725792Y99387D01*
X725803Y99474D01*
X725821Y99554D01*
X725832Y99594D01*
X725843Y99627D01*
Y99631D01*
X725847Y99634D01*
X725858Y99656D01*
X725872Y99689D01*
X725898Y99729D01*
X725931Y99773D01*
X725974Y99820D01*
X726025Y99864D01*
X726084Y99907D01*
X726087D01*
X726091Y99911D01*
X726113Y99926D01*
X726149Y99940D01*
X726196Y99962D01*
X726251Y99980D01*
X726316Y99998D01*
X726386Y100009D01*
X726462Y100013D01*
X726466D01*
X726473D01*
X726488D01*
X726506Y100009D01*
X726531D01*
X726557Y100006D01*
X726619Y99991D01*
X726691Y99969D01*
X726768Y99940D01*
X726844Y99896D01*
X726881Y99867D01*
X726917Y99838D01*
X726921Y99835D01*
X726924Y99831D01*
X726935Y99820D01*
X726946Y99805D01*
X726961Y99787D01*
X726975Y99765D01*
X726994Y99736D01*
X727015Y99707D01*
X727034Y99671D01*
X727052Y99631D01*
X727074Y99587D01*
X727092Y99540D01*
X727106Y99485D01*
X727125Y99431D01*
X727136Y99369D01*
X727146Y99303D01*
X727150Y99310D01*
X727157Y99325D01*
X727172Y99347D01*
X727186Y99376D01*
X727226Y99441D01*
X727252Y99474D01*
X727274Y99503D01*
X727281Y99511D01*
X727299Y99529D01*
X727328Y99558D01*
X727365Y99594D01*
X727416Y99634D01*
X727470Y99682D01*
X727536Y99729D01*
X727609Y99780D01*
X728293Y100213D01*
Y99798D01*
D02*
G37*
G36*
X704856Y102058D02*
X704878D01*
X704937Y102048D01*
X705006Y102037D01*
X705079Y102018D01*
X705159Y101993D01*
X705235Y101957D01*
X705239D01*
X705242Y101953D01*
X705253Y101946D01*
X705268Y101938D01*
X705304Y101917D01*
X705351Y101884D01*
X705403Y101844D01*
X705453Y101796D01*
X705504Y101738D01*
X705548Y101676D01*
Y101673D01*
X705552Y101669D01*
X705559Y101658D01*
X705563Y101644D01*
X705581Y101607D01*
X705599Y101560D01*
X705621Y101498D01*
X705635Y101429D01*
X705650Y101352D01*
X705654Y101269D01*
Y101251D01*
X705650Y101232D01*
Y101203D01*
X705646Y101170D01*
X705639Y101134D01*
X705628Y101090D01*
X705617Y101047D01*
X705603Y100996D01*
X705584Y100945D01*
X705563Y100894D01*
X705534Y100839D01*
X705501Y100788D01*
X705464Y100737D01*
X705421Y100686D01*
X705370Y100639D01*
X705366Y100635D01*
X705355Y100628D01*
X705341Y100617D01*
X705315Y100602D01*
X705282Y100581D01*
X705246Y100563D01*
X705199Y100541D01*
X705148Y100519D01*
X705086Y100493D01*
X705017Y100471D01*
X704940Y100453D01*
X704856Y100435D01*
X704762Y100417D01*
X704660Y100406D01*
X704551Y100399D01*
X704434Y100395D01*
X704431D01*
X704427D01*
X704416D01*
X704401D01*
X704365Y100399D01*
X704314D01*
X704256Y100402D01*
X704187Y100410D01*
X704110Y100417D01*
X704027Y100428D01*
X703943Y100442D01*
X703852Y100461D01*
X703764Y100482D01*
X703677Y100508D01*
X703593Y100541D01*
X703513Y100577D01*
X703437Y100617D01*
X703371Y100664D01*
X703368Y100668D01*
X703360Y100675D01*
X703346Y100690D01*
X703324Y100708D01*
X703302Y100730D01*
X703280Y100759D01*
X703251Y100795D01*
X703226Y100832D01*
X703200Y100875D01*
X703171Y100923D01*
X703149Y100978D01*
X703124Y101032D01*
X703106Y101094D01*
X703091Y101160D01*
X703084Y101229D01*
X703080Y101301D01*
Y101330D01*
X703084Y101352D01*
Y101378D01*
X703087Y101407D01*
X703102Y101476D01*
X703120Y101553D01*
X703149Y101633D01*
X703193Y101713D01*
X703219Y101753D01*
X703248Y101789D01*
X703251Y101793D01*
X703255Y101796D01*
X703266Y101807D01*
X703277Y101818D01*
X703295Y101837D01*
X703317Y101851D01*
X703368Y101891D01*
X703433Y101931D01*
X703513Y101968D01*
X703604Y102000D01*
X703706Y102022D01*
X703732Y101713D01*
X703728D01*
X703724Y101709D01*
X703703Y101706D01*
X703670Y101695D01*
X703630Y101680D01*
X703586Y101665D01*
X703542Y101644D01*
X703502Y101618D01*
X703470Y101593D01*
X703462Y101585D01*
X703448Y101571D01*
X703426Y101545D01*
X703401Y101509D01*
X703379Y101462D01*
X703357Y101411D01*
X703342Y101349D01*
X703335Y101283D01*
Y101258D01*
X703339Y101229D01*
X703346Y101196D01*
X703357Y101152D01*
X703371Y101109D01*
X703390Y101065D01*
X703419Y101021D01*
X703422Y101014D01*
X703437Y100996D01*
X703462Y100970D01*
X703499Y100937D01*
X703542Y100901D01*
X703593Y100861D01*
X703659Y100825D01*
X703732Y100788D01*
X703735D01*
X703743Y100785D01*
X703754Y100781D01*
X703768Y100774D01*
X703790Y100770D01*
X703815Y100763D01*
X703844Y100755D01*
X703881Y100748D01*
X703921Y100737D01*
X703965Y100730D01*
X704012Y100723D01*
X704063Y100719D01*
X704121Y100712D01*
X704179Y100708D01*
X704245Y100705D01*
X704311D01*
X704307Y100708D01*
X704285Y100723D01*
X704256Y100748D01*
X704219Y100781D01*
X704176Y100817D01*
X704136Y100865D01*
X704096Y100916D01*
X704059Y100974D01*
Y100978D01*
X704056Y100981D01*
X704045Y101003D01*
X704034Y101036D01*
X704016Y101079D01*
X704001Y101130D01*
X703990Y101189D01*
X703979Y101251D01*
X703976Y101316D01*
Y101345D01*
X703979Y101367D01*
X703983Y101396D01*
X703987Y101425D01*
X703994Y101462D01*
X704005Y101498D01*
X704030Y101582D01*
X704048Y101625D01*
X704074Y101669D01*
X704099Y101713D01*
X704129Y101760D01*
X704165Y101804D01*
X704205Y101844D01*
X704209Y101847D01*
X704216Y101855D01*
X704227Y101866D01*
X704245Y101876D01*
X704270Y101895D01*
X704296Y101913D01*
X704329Y101931D01*
X704365Y101953D01*
X704405Y101975D01*
X704449Y101993D01*
X704500Y102011D01*
X704551Y102029D01*
X704605Y102040D01*
X704667Y102051D01*
X704729Y102058D01*
X704795Y102062D01*
X704798D01*
X704806D01*
X704816D01*
X704835D01*
X704856Y102058D01*
D02*
G37*
G36*
X705610Y99798D02*
X705086Y99467D01*
X705082D01*
X705075Y99460D01*
X705064Y99452D01*
X705049Y99441D01*
X705009Y99416D01*
X704958Y99383D01*
X704904Y99343D01*
X704846Y99303D01*
X704791Y99263D01*
X704740Y99227D01*
X704736Y99223D01*
X704722Y99212D01*
X704700Y99194D01*
X704674Y99168D01*
X704620Y99114D01*
X704594Y99085D01*
X704572Y99055D01*
X704569Y99052D01*
X704565Y99045D01*
X704558Y99030D01*
X704547Y99008D01*
X704536Y98986D01*
X704525Y98961D01*
X704507Y98903D01*
Y98899D01*
X704503Y98892D01*
Y98877D01*
X704500Y98859D01*
X704496Y98834D01*
Y98804D01*
X704493Y98764D01*
Y98335D01*
X705610D01*
Y98000D01*
X703091D01*
Y99168D01*
X703095Y99198D01*
Y99230D01*
X703098Y99307D01*
X703109Y99387D01*
X703120Y99474D01*
X703138Y99554D01*
X703149Y99594D01*
X703160Y99627D01*
Y99631D01*
X703164Y99634D01*
X703175Y99656D01*
X703189Y99689D01*
X703215Y99729D01*
X703248Y99773D01*
X703291Y99820D01*
X703342Y99864D01*
X703401Y99907D01*
X703404D01*
X703408Y99911D01*
X703430Y99926D01*
X703466Y99940D01*
X703513Y99962D01*
X703568Y99980D01*
X703633Y99998D01*
X703703Y100009D01*
X703779Y100013D01*
X703783D01*
X703790D01*
X703804D01*
X703823Y100009D01*
X703848D01*
X703874Y100006D01*
X703935Y99991D01*
X704008Y99969D01*
X704085Y99940D01*
X704161Y99896D01*
X704198Y99867D01*
X704234Y99838D01*
X704238Y99835D01*
X704241Y99831D01*
X704252Y99820D01*
X704263Y99805D01*
X704278Y99787D01*
X704292Y99765D01*
X704311Y99736D01*
X704332Y99707D01*
X704351Y99671D01*
X704369Y99631D01*
X704390Y99587D01*
X704409Y99540D01*
X704423Y99485D01*
X704441Y99431D01*
X704452Y99369D01*
X704463Y99303D01*
X704467Y99310D01*
X704474Y99325D01*
X704489Y99347D01*
X704503Y99376D01*
X704543Y99441D01*
X704569Y99474D01*
X704591Y99503D01*
X704598Y99511D01*
X704616Y99529D01*
X704645Y99558D01*
X704682Y99594D01*
X704733Y99634D01*
X704787Y99682D01*
X704853Y99729D01*
X704926Y99780D01*
X705610Y100213D01*
Y99798D01*
D02*
G37*
G36*
X124960Y202235D02*
X123952D01*
X123817Y201554D01*
X123821Y201558D01*
X123828Y201561D01*
X123839Y201569D01*
X123857Y201580D01*
X123879Y201591D01*
X123905Y201605D01*
X123963Y201634D01*
X124036Y201663D01*
X124116Y201689D01*
X124203Y201707D01*
X124247Y201714D01*
X124327D01*
X124349Y201711D01*
X124378Y201707D01*
X124411Y201704D01*
X124447Y201696D01*
X124487Y201685D01*
X124574Y201660D01*
X124622Y201642D01*
X124669Y201616D01*
X124716Y201591D01*
X124764Y201561D01*
X124807Y201525D01*
X124851Y201485D01*
X124855Y201481D01*
X124862Y201474D01*
X124873Y201463D01*
X124888Y201445D01*
X124906Y201420D01*
X124924Y201394D01*
X124946Y201361D01*
X124968Y201325D01*
X124986Y201285D01*
X125008Y201241D01*
X125026Y201190D01*
X125044Y201139D01*
X125058Y201085D01*
X125069Y201023D01*
X125077Y200961D01*
X125080Y200895D01*
Y200892D01*
Y200881D01*
Y200863D01*
X125077Y200837D01*
X125073Y200808D01*
X125069Y200775D01*
X125062Y200735D01*
X125055Y200695D01*
X125033Y200601D01*
X124997Y200502D01*
X124975Y200451D01*
X124946Y200404D01*
X124917Y200353D01*
X124880Y200306D01*
X124876Y200302D01*
X124869Y200291D01*
X124855Y200277D01*
X124837Y200258D01*
X124811Y200237D01*
X124782Y200207D01*
X124746Y200182D01*
X124706Y200153D01*
X124662Y200124D01*
X124611Y200098D01*
X124556Y200073D01*
X124498Y200047D01*
X124436Y200029D01*
X124367Y200014D01*
X124294Y200004D01*
X124218Y200000D01*
X124185D01*
X124160Y200004D01*
X124130Y200007D01*
X124098Y200011D01*
X124057Y200014D01*
X124018Y200025D01*
X123926Y200047D01*
X123836Y200080D01*
X123788Y200102D01*
X123741Y200127D01*
X123697Y200156D01*
X123653Y200189D01*
X123650Y200193D01*
X123643Y200197D01*
X123635Y200211D01*
X123621Y200226D01*
X123602Y200244D01*
X123584Y200266D01*
X123563Y200295D01*
X123544Y200327D01*
X123522Y200360D01*
X123501Y200400D01*
X123461Y200488D01*
X123428Y200590D01*
X123417Y200644D01*
X123410Y200703D01*
X123734Y200728D01*
Y200724D01*
Y200717D01*
X123737Y200706D01*
X123741Y200688D01*
X123752Y200648D01*
X123766Y200593D01*
X123788Y200539D01*
X123817Y200477D01*
X123854Y200422D01*
X123897Y200371D01*
X123905Y200368D01*
X123919Y200353D01*
X123948Y200335D01*
X123988Y200313D01*
X124032Y200291D01*
X124087Y200273D01*
X124149Y200258D01*
X124218Y200255D01*
X124240D01*
X124254Y200258D01*
X124298Y200262D01*
X124349Y200277D01*
X124411Y200295D01*
X124472Y200324D01*
X124538Y200368D01*
X124567Y200393D01*
X124596Y200422D01*
X124600Y200426D01*
X124603Y200430D01*
X124611Y200440D01*
X124622Y200451D01*
X124647Y200491D01*
X124676Y200542D01*
X124702Y200604D01*
X124727Y200681D01*
X124746Y200772D01*
X124753Y200819D01*
Y200870D01*
Y200874D01*
Y200881D01*
Y200895D01*
X124749Y200914D01*
Y200935D01*
X124746Y200961D01*
X124735Y201019D01*
X124716Y201088D01*
X124691Y201157D01*
X124654Y201223D01*
X124603Y201285D01*
Y201289D01*
X124596Y201292D01*
X124578Y201310D01*
X124545Y201336D01*
X124502Y201365D01*
X124443Y201390D01*
X124378Y201416D01*
X124301Y201434D01*
X124258Y201441D01*
X124189D01*
X124160Y201438D01*
X124123Y201434D01*
X124079Y201423D01*
X124036Y201412D01*
X123988Y201394D01*
X123941Y201372D01*
X123937Y201369D01*
X123923Y201361D01*
X123901Y201343D01*
X123872Y201325D01*
X123843Y201299D01*
X123814Y201267D01*
X123781Y201234D01*
X123755Y201194D01*
X123464Y201234D01*
X123708Y202530D01*
X124960D01*
Y202235D01*
D02*
G37*
G36*
X122197Y202559D02*
X122230D01*
X122307Y202555D01*
X122387Y202544D01*
X122474Y202533D01*
X122554Y202515D01*
X122594Y202504D01*
X122627Y202493D01*
X122631D01*
X122634Y202490D01*
X122656Y202479D01*
X122689Y202464D01*
X122729Y202439D01*
X122773Y202406D01*
X122820Y202362D01*
X122864Y202311D01*
X122907Y202253D01*
Y202250D01*
X122911Y202246D01*
X122925Y202224D01*
X122940Y202188D01*
X122962Y202140D01*
X122980Y202086D01*
X122998Y202020D01*
X123009Y201951D01*
X123013Y201874D01*
Y201871D01*
Y201864D01*
Y201849D01*
X123009Y201831D01*
Y201805D01*
X123006Y201780D01*
X122991Y201718D01*
X122969Y201645D01*
X122940Y201569D01*
X122896Y201492D01*
X122867Y201456D01*
X122838Y201420D01*
X122835Y201416D01*
X122831Y201412D01*
X122820Y201401D01*
X122805Y201390D01*
X122787Y201376D01*
X122765Y201361D01*
X122736Y201343D01*
X122707Y201321D01*
X122671Y201303D01*
X122631Y201285D01*
X122587Y201263D01*
X122540Y201245D01*
X122485Y201230D01*
X122431Y201212D01*
X122369Y201201D01*
X122303Y201190D01*
X122310Y201187D01*
X122325Y201179D01*
X122347Y201165D01*
X122376Y201150D01*
X122441Y201110D01*
X122474Y201085D01*
X122503Y201063D01*
X122511Y201056D01*
X122529Y201037D01*
X122558Y201008D01*
X122594Y200972D01*
X122634Y200921D01*
X122682Y200866D01*
X122729Y200801D01*
X122780Y200728D01*
X123213Y200044D01*
X122798D01*
X122467Y200568D01*
Y200571D01*
X122460Y200579D01*
X122452Y200590D01*
X122441Y200604D01*
X122416Y200644D01*
X122383Y200695D01*
X122343Y200750D01*
X122303Y200808D01*
X122263Y200863D01*
X122227Y200914D01*
X122223Y200917D01*
X122212Y200932D01*
X122194Y200954D01*
X122168Y200979D01*
X122114Y201034D01*
X122085Y201059D01*
X122055Y201081D01*
X122052Y201085D01*
X122045Y201088D01*
X122030Y201096D01*
X122008Y201107D01*
X121986Y201117D01*
X121961Y201128D01*
X121903Y201147D01*
X121899D01*
X121892Y201150D01*
X121877D01*
X121859Y201154D01*
X121834Y201157D01*
X121804D01*
X121764Y201161D01*
X121335D01*
Y200044D01*
X121000D01*
Y202562D01*
X122168D01*
X122197Y202559D01*
D02*
G37*
G36*
X124709Y218888D02*
X125051D01*
Y218604D01*
X124709D01*
Y218000D01*
X124400D01*
Y218604D01*
X123304D01*
Y218888D01*
X124458Y220519D01*
X124709D01*
Y218888D01*
D02*
G37*
G36*
X122197Y220515D02*
X122230D01*
X122307Y220512D01*
X122387Y220501D01*
X122474Y220490D01*
X122554Y220472D01*
X122594Y220461D01*
X122627Y220450D01*
X122631D01*
X122634Y220446D01*
X122656Y220435D01*
X122689Y220421D01*
X122729Y220395D01*
X122773Y220362D01*
X122820Y220319D01*
X122864Y220268D01*
X122907Y220209D01*
Y220206D01*
X122911Y220202D01*
X122925Y220180D01*
X122940Y220144D01*
X122962Y220097D01*
X122980Y220042D01*
X122998Y219976D01*
X123009Y219907D01*
X123013Y219831D01*
Y219827D01*
Y219820D01*
Y219805D01*
X123009Y219787D01*
Y219762D01*
X123006Y219736D01*
X122991Y219674D01*
X122969Y219601D01*
X122940Y219525D01*
X122896Y219449D01*
X122867Y219412D01*
X122838Y219376D01*
X122835Y219372D01*
X122831Y219369D01*
X122820Y219358D01*
X122805Y219347D01*
X122787Y219332D01*
X122765Y219318D01*
X122736Y219299D01*
X122707Y219278D01*
X122671Y219259D01*
X122631Y219241D01*
X122587Y219219D01*
X122540Y219201D01*
X122485Y219187D01*
X122431Y219168D01*
X122369Y219158D01*
X122303Y219146D01*
X122310Y219143D01*
X122325Y219136D01*
X122347Y219121D01*
X122376Y219107D01*
X122441Y219067D01*
X122474Y219041D01*
X122503Y219019D01*
X122511Y219012D01*
X122529Y218994D01*
X122558Y218965D01*
X122594Y218928D01*
X122634Y218877D01*
X122682Y218823D01*
X122729Y218757D01*
X122780Y218684D01*
X123213Y218000D01*
X122798D01*
X122467Y218524D01*
Y218528D01*
X122460Y218535D01*
X122452Y218546D01*
X122441Y218561D01*
X122416Y218601D01*
X122383Y218652D01*
X122343Y218706D01*
X122303Y218764D01*
X122263Y218819D01*
X122227Y218870D01*
X122223Y218874D01*
X122212Y218888D01*
X122194Y218910D01*
X122168Y218935D01*
X122114Y218990D01*
X122085Y219016D01*
X122055Y219037D01*
X122052Y219041D01*
X122045Y219045D01*
X122030Y219052D01*
X122008Y219063D01*
X121986Y219074D01*
X121961Y219085D01*
X121903Y219103D01*
X121899D01*
X121892Y219107D01*
X121877D01*
X121859Y219110D01*
X121834Y219114D01*
X121804D01*
X121764Y219117D01*
X121335D01*
Y218000D01*
X121000D01*
Y220519D01*
X122168D01*
X122197Y220515D01*
D02*
G37*
G36*
X117844Y237996D02*
X117873Y237993D01*
X117906Y237989D01*
X117943Y237982D01*
X117982Y237975D01*
X118070Y237953D01*
X118161Y237916D01*
X118208Y237895D01*
X118252Y237869D01*
X118296Y237836D01*
X118339Y237804D01*
X118343Y237800D01*
X118350Y237793D01*
X118361Y237782D01*
X118372Y237767D01*
X118390Y237749D01*
X118408Y237723D01*
X118430Y237698D01*
X118452Y237665D01*
X118474Y237629D01*
X118496Y237592D01*
X118536Y237505D01*
X118569Y237403D01*
X118579Y237349D01*
X118587Y237290D01*
X118277Y237250D01*
Y237254D01*
X118274Y237261D01*
X118270Y237276D01*
X118266Y237294D01*
X118263Y237316D01*
X118255Y237341D01*
X118237Y237396D01*
X118212Y237461D01*
X118179Y237523D01*
X118143Y237581D01*
X118099Y237632D01*
X118092Y237636D01*
X118077Y237651D01*
X118048Y237669D01*
X118012Y237687D01*
X117968Y237709D01*
X117913Y237727D01*
X117851Y237742D01*
X117786Y237745D01*
X117764D01*
X117750Y237742D01*
X117710Y237738D01*
X117658Y237727D01*
X117600Y237709D01*
X117538Y237683D01*
X117476Y237647D01*
X117418Y237596D01*
X117411Y237589D01*
X117393Y237567D01*
X117371Y237534D01*
X117342Y237491D01*
X117313Y237436D01*
X117291Y237374D01*
X117273Y237301D01*
X117265Y237221D01*
Y237217D01*
Y237210D01*
Y237199D01*
X117269Y237185D01*
X117273Y237145D01*
X117284Y237097D01*
X117298Y237039D01*
X117324Y236981D01*
X117360Y236923D01*
X117407Y236868D01*
X117415Y236861D01*
X117433Y236846D01*
X117462Y236824D01*
X117502Y236799D01*
X117553Y236773D01*
X117615Y236752D01*
X117684Y236737D01*
X117760Y236730D01*
X117793D01*
X117819Y236733D01*
X117851Y236737D01*
X117888Y236744D01*
X117931Y236752D01*
X117979Y236762D01*
X117943Y236489D01*
X117924D01*
X117910Y236493D01*
X117862D01*
X117822Y236486D01*
X117775Y236478D01*
X117720Y236468D01*
X117658Y236449D01*
X117600Y236424D01*
X117538Y236391D01*
X117535D01*
X117531Y236387D01*
X117513Y236373D01*
X117487Y236348D01*
X117458Y236315D01*
X117429Y236267D01*
X117404Y236213D01*
X117385Y236151D01*
X117378Y236115D01*
Y236074D01*
Y236071D01*
Y236067D01*
Y236045D01*
X117385Y236016D01*
X117393Y235976D01*
X117407Y235932D01*
X117426Y235885D01*
X117455Y235838D01*
X117495Y235794D01*
X117498Y235791D01*
X117517Y235776D01*
X117542Y235758D01*
X117575Y235736D01*
X117619Y235718D01*
X117669Y235700D01*
X117728Y235685D01*
X117793Y235681D01*
X117822D01*
X117855Y235689D01*
X117899Y235696D01*
X117946Y235711D01*
X117993Y235729D01*
X118044Y235758D01*
X118092Y235794D01*
X118095Y235798D01*
X118110Y235816D01*
X118132Y235841D01*
X118157Y235878D01*
X118183Y235925D01*
X118208Y235983D01*
X118230Y236053D01*
X118245Y236133D01*
X118554Y236078D01*
Y236074D01*
X118550Y236064D01*
X118547Y236049D01*
X118543Y236027D01*
X118536Y236002D01*
X118525Y235973D01*
X118503Y235903D01*
X118467Y235823D01*
X118423Y235743D01*
X118368Y235667D01*
X118299Y235598D01*
X118296Y235594D01*
X118288Y235590D01*
X118277Y235583D01*
X118263Y235572D01*
X118245Y235558D01*
X118219Y235543D01*
X118194Y235528D01*
X118161Y235510D01*
X118088Y235481D01*
X118004Y235452D01*
X117906Y235434D01*
X117855Y235427D01*
X117764D01*
X117724Y235430D01*
X117677Y235437D01*
X117619Y235448D01*
X117553Y235467D01*
X117487Y235489D01*
X117422Y235518D01*
X117418D01*
X117415Y235521D01*
X117393Y235532D01*
X117360Y235554D01*
X117324Y235579D01*
X117280Y235616D01*
X117236Y235656D01*
X117193Y235703D01*
X117156Y235758D01*
X117153Y235765D01*
X117142Y235783D01*
X117127Y235816D01*
X117109Y235856D01*
X117091Y235903D01*
X117076Y235958D01*
X117065Y236020D01*
X117062Y236082D01*
Y236089D01*
Y236111D01*
X117065Y236140D01*
X117072Y236180D01*
X117083Y236227D01*
X117102Y236278D01*
X117123Y236329D01*
X117153Y236380D01*
X117156Y236387D01*
X117167Y236402D01*
X117189Y236428D01*
X117218Y236457D01*
X117254Y236489D01*
X117298Y236526D01*
X117349Y236559D01*
X117411Y236591D01*
X117407D01*
X117400Y236595D01*
X117389Y236599D01*
X117375Y236602D01*
X117335Y236617D01*
X117284Y236639D01*
X117225Y236668D01*
X117167Y236704D01*
X117113Y236752D01*
X117062Y236806D01*
X117058Y236813D01*
X117043Y236835D01*
X117022Y236872D01*
X117000Y236919D01*
X116978Y236977D01*
X116956Y237046D01*
X116941Y237126D01*
X116938Y237214D01*
Y237217D01*
Y237228D01*
Y237247D01*
X116941Y237268D01*
X116945Y237298D01*
X116952Y237330D01*
X116960Y237367D01*
X116967Y237407D01*
X116996Y237494D01*
X117018Y237541D01*
X117040Y237585D01*
X117069Y237632D01*
X117102Y237680D01*
X117138Y237727D01*
X117182Y237771D01*
X117185Y237774D01*
X117193Y237782D01*
X117207Y237793D01*
X117225Y237807D01*
X117247Y237825D01*
X117276Y237843D01*
X117309Y237865D01*
X117349Y237884D01*
X117389Y237905D01*
X117437Y237927D01*
X117484Y237945D01*
X117538Y237964D01*
X117597Y237978D01*
X117658Y237989D01*
X117720Y237996D01*
X117790Y238000D01*
X117822D01*
X117844Y237996D01*
D02*
G37*
G36*
X121000Y235437D02*
X119832D01*
X119802Y235441D01*
X119770D01*
X119693Y235445D01*
X119613Y235456D01*
X119526Y235467D01*
X119446Y235485D01*
X119406Y235496D01*
X119373Y235507D01*
X119369D01*
X119366Y235510D01*
X119344Y235521D01*
X119311Y235536D01*
X119271Y235561D01*
X119227Y235594D01*
X119180Y235638D01*
X119136Y235689D01*
X119093Y235747D01*
Y235751D01*
X119089Y235754D01*
X119074Y235776D01*
X119060Y235812D01*
X119038Y235860D01*
X119020Y235914D01*
X119002Y235980D01*
X118991Y236049D01*
X118987Y236125D01*
Y236129D01*
Y236136D01*
Y236151D01*
X118991Y236169D01*
Y236195D01*
X118994Y236220D01*
X119009Y236282D01*
X119031Y236355D01*
X119060Y236431D01*
X119104Y236508D01*
X119133Y236544D01*
X119162Y236580D01*
X119166Y236584D01*
X119169Y236588D01*
X119180Y236599D01*
X119195Y236610D01*
X119213Y236624D01*
X119235Y236639D01*
X119264Y236657D01*
X119293Y236679D01*
X119329Y236697D01*
X119369Y236715D01*
X119413Y236737D01*
X119460Y236755D01*
X119515Y236770D01*
X119570Y236788D01*
X119631Y236799D01*
X119697Y236810D01*
X119690Y236813D01*
X119675Y236821D01*
X119653Y236835D01*
X119624Y236850D01*
X119559Y236890D01*
X119526Y236915D01*
X119497Y236937D01*
X119490Y236945D01*
X119471Y236963D01*
X119442Y236992D01*
X119406Y237028D01*
X119366Y237079D01*
X119318Y237134D01*
X119271Y237199D01*
X119220Y237272D01*
X118787Y237956D01*
X119202D01*
X119533Y237432D01*
Y237429D01*
X119540Y237421D01*
X119548Y237410D01*
X119559Y237396D01*
X119584Y237356D01*
X119617Y237305D01*
X119657Y237250D01*
X119697Y237192D01*
X119737Y237137D01*
X119773Y237086D01*
X119777Y237083D01*
X119788Y237068D01*
X119806Y237046D01*
X119832Y237021D01*
X119886Y236966D01*
X119915Y236941D01*
X119945Y236919D01*
X119948Y236915D01*
X119955Y236912D01*
X119970Y236904D01*
X119992Y236894D01*
X120014Y236883D01*
X120039Y236872D01*
X120097Y236854D01*
X120101D01*
X120108Y236850D01*
X120123D01*
X120141Y236846D01*
X120167Y236842D01*
X120196D01*
X120236Y236839D01*
X120665D01*
Y237956D01*
X121000D01*
Y235437D01*
D02*
G37*
G36*
X744985Y511765D02*
X743015D01*
X743019Y511761D01*
X743034Y511743D01*
X743056Y511721D01*
X743081Y511685D01*
X743114Y511645D01*
X743150Y511594D01*
X743190Y511536D01*
X743230Y511470D01*
Y511467D01*
X743234Y511463D01*
X743249Y511441D01*
X743267Y511405D01*
X743289Y511361D01*
X743314Y511310D01*
X743339Y511256D01*
X743365Y511201D01*
X743387Y511146D01*
X743088D01*
Y511150D01*
X743081Y511157D01*
X743077Y511172D01*
X743067Y511190D01*
X743056Y511212D01*
X743041Y511237D01*
X743005Y511299D01*
X742965Y511372D01*
X742914Y511445D01*
X742855Y511521D01*
X742794Y511598D01*
X742790Y511601D01*
X742786Y511605D01*
X742775Y511616D01*
X742764Y511630D01*
X742728Y511663D01*
X742684Y511707D01*
X742633Y511751D01*
X742575Y511798D01*
X742517Y511838D01*
X742455Y511874D01*
Y512075D01*
X744985D01*
Y511765D01*
D02*
G37*
G36*
Y510298D02*
X744461Y509967D01*
X744457D01*
X744450Y509960D01*
X744439Y509952D01*
X744424Y509941D01*
X744384Y509916D01*
X744333Y509883D01*
X744279Y509843D01*
X744220Y509803D01*
X744166Y509763D01*
X744115Y509727D01*
X744111Y509723D01*
X744097Y509712D01*
X744075Y509694D01*
X744049Y509668D01*
X743995Y509614D01*
X743969Y509585D01*
X743947Y509556D01*
X743944Y509552D01*
X743940Y509545D01*
X743933Y509530D01*
X743922Y509508D01*
X743911Y509486D01*
X743900Y509461D01*
X743882Y509403D01*
Y509399D01*
X743878Y509392D01*
Y509377D01*
X743875Y509359D01*
X743871Y509334D01*
Y509304D01*
X743867Y509264D01*
Y508835D01*
X744985D01*
Y508500D01*
X742466D01*
Y509668D01*
X742470Y509697D01*
Y509730D01*
X742473Y509807D01*
X742484Y509887D01*
X742495Y509974D01*
X742513Y510054D01*
X742524Y510094D01*
X742535Y510127D01*
Y510131D01*
X742539Y510134D01*
X742550Y510156D01*
X742564Y510189D01*
X742590Y510229D01*
X742622Y510273D01*
X742666Y510320D01*
X742717Y510364D01*
X742775Y510407D01*
X742779D01*
X742783Y510411D01*
X742804Y510426D01*
X742841Y510440D01*
X742888Y510462D01*
X742943Y510480D01*
X743008Y510498D01*
X743077Y510509D01*
X743154Y510513D01*
X743157D01*
X743165D01*
X743179D01*
X743197Y510509D01*
X743223D01*
X743249Y510506D01*
X743310Y510491D01*
X743383Y510469D01*
X743460Y510440D01*
X743536Y510396D01*
X743572Y510367D01*
X743609Y510338D01*
X743612Y510334D01*
X743616Y510331D01*
X743627Y510320D01*
X743638Y510305D01*
X743652Y510287D01*
X743667Y510265D01*
X743685Y510236D01*
X743707Y510207D01*
X743725Y510171D01*
X743744Y510131D01*
X743765Y510087D01*
X743784Y510040D01*
X743798Y509985D01*
X743816Y509931D01*
X743827Y509869D01*
X743838Y509803D01*
X743842Y509810D01*
X743849Y509825D01*
X743864Y509847D01*
X743878Y509876D01*
X743918Y509941D01*
X743944Y509974D01*
X743966Y510003D01*
X743973Y510011D01*
X743991Y510029D01*
X744020Y510058D01*
X744057Y510094D01*
X744107Y510134D01*
X744162Y510182D01*
X744228Y510229D01*
X744300Y510280D01*
X744985Y510713D01*
Y510298D01*
D02*
G37*
G36*
X793352Y491252D02*
X793956D01*
Y490943D01*
X793352D01*
Y489847D01*
X793068D01*
X791437Y491001D01*
Y491252D01*
X793068D01*
Y491595D01*
X793352D01*
Y491252D01*
D02*
G37*
G36*
X792988Y489520D02*
X793024D01*
X793068Y489516D01*
X793112Y489512D01*
X793210Y489501D01*
X793312Y489487D01*
X793410Y489465D01*
X793458Y489451D01*
X793501Y489436D01*
X793505D01*
X793512Y489432D01*
X793523Y489425D01*
X793538Y489418D01*
X793578Y489396D01*
X793629Y489363D01*
X793687Y489320D01*
X793745Y489268D01*
X793807Y489203D01*
X793862Y489123D01*
Y489119D01*
X793869Y489112D01*
X793873Y489101D01*
X793884Y489083D01*
X793894Y489061D01*
X793905Y489032D01*
X793916Y489003D01*
X793931Y488966D01*
X793945Y488926D01*
X793956Y488883D01*
X793967Y488835D01*
X793978Y488781D01*
X793986Y488726D01*
X793993Y488668D01*
X794000Y488537D01*
Y488504D01*
X793996Y488479D01*
Y488449D01*
X793993Y488413D01*
X793989Y488373D01*
X793986Y488333D01*
X793971Y488242D01*
X793949Y488144D01*
X793920Y488049D01*
X793880Y487958D01*
Y487955D01*
X793873Y487947D01*
X793865Y487936D01*
X793858Y487922D01*
X793829Y487882D01*
X793789Y487834D01*
X793738Y487780D01*
X793680Y487729D01*
X793607Y487678D01*
X793527Y487638D01*
X793523D01*
X793516Y487634D01*
X793501Y487631D01*
X793483Y487623D01*
X793461Y487616D01*
X793432Y487609D01*
X793399Y487598D01*
X793359Y487591D01*
X793316Y487583D01*
X793268Y487572D01*
X793218Y487565D01*
X793163Y487558D01*
X793101Y487550D01*
X793036Y487547D01*
X792966Y487543D01*
X792894D01*
X791437D01*
Y487878D01*
X792894D01*
X792897D01*
X792908D01*
X792926D01*
X792948D01*
X792974Y487882D01*
X793006D01*
X793076Y487885D01*
X793156Y487893D01*
X793236Y487903D01*
X793312Y487918D01*
X793345Y487925D01*
X793378Y487936D01*
X793385Y487940D01*
X793403Y487947D01*
X793429Y487965D01*
X793465Y487987D01*
X793501Y488013D01*
X793541Y488049D01*
X793581Y488093D01*
X793614Y488144D01*
X793618Y488151D01*
X793629Y488169D01*
X793640Y488202D01*
X793654Y488246D01*
X793673Y488297D01*
X793683Y488362D01*
X793694Y488431D01*
X793698Y488508D01*
Y488544D01*
X793694Y488566D01*
Y488599D01*
X793691Y488631D01*
X793676Y488712D01*
X793658Y488799D01*
X793629Y488883D01*
X793589Y488963D01*
X793563Y488999D01*
X793534Y489032D01*
X793531Y489036D01*
X793527Y489039D01*
X793516Y489046D01*
X793501Y489057D01*
X793479Y489068D01*
X793458Y489083D01*
X793425Y489097D01*
X793392Y489112D01*
X793352Y489127D01*
X793305Y489138D01*
X793250Y489152D01*
X793192Y489163D01*
X793126Y489174D01*
X793057Y489181D01*
X792977Y489188D01*
X792894D01*
X791437D01*
Y489523D01*
X792894D01*
X792897D01*
X792912D01*
X792930D01*
X792955D01*
X792988Y489520D01*
D02*
G37*
G36*
X907956Y489909D02*
X907953D01*
X907938D01*
X907916D01*
X907887Y489913D01*
X907854Y489916D01*
X907818Y489924D01*
X907782Y489931D01*
X907742Y489946D01*
X907738D01*
X907734Y489949D01*
X907712Y489957D01*
X907680Y489971D01*
X907636Y489993D01*
X907585Y490022D01*
X907527Y490058D01*
X907469Y490098D01*
X907407Y490149D01*
X907403D01*
X907399Y490157D01*
X907378Y490175D01*
X907345Y490208D01*
X907298Y490255D01*
X907243Y490310D01*
X907177Y490379D01*
X907105Y490462D01*
X907028Y490553D01*
X907024Y490557D01*
X907014Y490572D01*
X906995Y490593D01*
X906974Y490619D01*
X906944Y490652D01*
X906912Y490692D01*
X906875Y490732D01*
X906835Y490779D01*
X906748Y490870D01*
X906660Y490961D01*
X906617Y491005D01*
X906573Y491045D01*
X906533Y491081D01*
X906493Y491110D01*
X906489D01*
X906486Y491118D01*
X906475Y491125D01*
X906460Y491132D01*
X906420Y491158D01*
X906373Y491187D01*
X906315Y491212D01*
X906253Y491238D01*
X906184Y491252D01*
X906118Y491260D01*
X906114D01*
X906111D01*
X906089Y491256D01*
X906053Y491252D01*
X906013Y491241D01*
X905962Y491227D01*
X905911Y491201D01*
X905860Y491169D01*
X905809Y491125D01*
X905801Y491118D01*
X905787Y491099D01*
X905769Y491074D01*
X905743Y491034D01*
X905721Y490983D01*
X905700Y490925D01*
X905685Y490856D01*
X905681Y490779D01*
Y490757D01*
X905685Y490743D01*
X905689Y490699D01*
X905700Y490648D01*
X905714Y490593D01*
X905740Y490532D01*
X905772Y490473D01*
X905816Y490419D01*
X905823Y490412D01*
X905842Y490397D01*
X905871Y490375D01*
X905914Y490353D01*
X905965Y490328D01*
X906031Y490306D01*
X906104Y490291D01*
X906187Y490284D01*
X906155Y489967D01*
X906151D01*
X906140Y489971D01*
X906122D01*
X906096Y489975D01*
X906067Y489982D01*
X906034Y489989D01*
X905994Y490000D01*
X905954Y490011D01*
X905867Y490040D01*
X905780Y490084D01*
X905736Y490109D01*
X905692Y490142D01*
X905652Y490175D01*
X905616Y490211D01*
X905612Y490215D01*
X905609Y490222D01*
X905598Y490233D01*
X905587Y490251D01*
X905572Y490273D01*
X905558Y490299D01*
X905539Y490328D01*
X905521Y490364D01*
X905503Y490404D01*
X905485Y490448D01*
X905470Y490495D01*
X905456Y490546D01*
X905445Y490601D01*
X905434Y490659D01*
X905430Y490721D01*
X905427Y490786D01*
Y490823D01*
X905430Y490848D01*
X905434Y490877D01*
X905437Y490914D01*
X905445Y490954D01*
X905452Y490994D01*
X905478Y491088D01*
X905514Y491183D01*
X905536Y491230D01*
X905561Y491278D01*
X905594Y491322D01*
X905630Y491362D01*
X905634Y491365D01*
X905638Y491372D01*
X905652Y491380D01*
X905667Y491394D01*
X905685Y491412D01*
X905711Y491431D01*
X905736Y491449D01*
X905769Y491471D01*
X905838Y491507D01*
X905925Y491543D01*
X905969Y491558D01*
X906020Y491565D01*
X906071Y491573D01*
X906125Y491576D01*
X906133D01*
X906151D01*
X906180Y491573D01*
X906220Y491569D01*
X906264Y491562D01*
X906315Y491547D01*
X906369Y491533D01*
X906424Y491511D01*
X906431Y491507D01*
X906449Y491500D01*
X906479Y491485D01*
X906519Y491463D01*
X906562Y491434D01*
X906617Y491398D01*
X906672Y491354D01*
X906733Y491303D01*
X906741Y491296D01*
X906762Y491278D01*
X906781Y491260D01*
X906799Y491241D01*
X906821Y491220D01*
X906850Y491190D01*
X906879Y491161D01*
X906912Y491125D01*
X906948Y491088D01*
X906988Y491045D01*
X907028Y490998D01*
X907076Y490947D01*
X907123Y490888D01*
X907174Y490830D01*
X907177Y490826D01*
X907185Y490819D01*
X907196Y490805D01*
X907210Y490786D01*
X907232Y490765D01*
X907254Y490739D01*
X907301Y490681D01*
X907356Y490619D01*
X907410Y490561D01*
X907458Y490510D01*
X907476Y490488D01*
X907494Y490470D01*
X907498Y490466D01*
X907509Y490455D01*
X907523Y490441D01*
X907545Y490422D01*
X907570Y490404D01*
X907596Y490382D01*
X907658Y490339D01*
Y491580D01*
X907956D01*
Y489909D01*
D02*
G37*
G36*
X906988Y489520D02*
X907024D01*
X907068Y489516D01*
X907112Y489512D01*
X907210Y489501D01*
X907312Y489487D01*
X907410Y489465D01*
X907458Y489451D01*
X907501Y489436D01*
X907505D01*
X907512Y489432D01*
X907523Y489425D01*
X907538Y489418D01*
X907578Y489396D01*
X907629Y489363D01*
X907687Y489320D01*
X907745Y489268D01*
X907807Y489203D01*
X907862Y489123D01*
Y489119D01*
X907869Y489112D01*
X907873Y489101D01*
X907884Y489083D01*
X907895Y489061D01*
X907905Y489032D01*
X907916Y489003D01*
X907931Y488966D01*
X907945Y488926D01*
X907956Y488883D01*
X907967Y488835D01*
X907978Y488781D01*
X907985Y488726D01*
X907993Y488668D01*
X908000Y488537D01*
Y488504D01*
X907996Y488479D01*
Y488449D01*
X907993Y488413D01*
X907989Y488373D01*
X907985Y488333D01*
X907971Y488242D01*
X907949Y488144D01*
X907920Y488049D01*
X907880Y487958D01*
Y487955D01*
X907873Y487947D01*
X907865Y487936D01*
X907858Y487922D01*
X907829Y487882D01*
X907789Y487834D01*
X907738Y487780D01*
X907680Y487729D01*
X907607Y487678D01*
X907527Y487638D01*
X907523D01*
X907516Y487634D01*
X907501Y487631D01*
X907483Y487623D01*
X907461Y487616D01*
X907432Y487609D01*
X907399Y487598D01*
X907359Y487591D01*
X907316Y487583D01*
X907268Y487572D01*
X907217Y487565D01*
X907163Y487558D01*
X907101Y487550D01*
X907035Y487547D01*
X906966Y487543D01*
X906894D01*
X905437D01*
Y487878D01*
X906894D01*
X906897D01*
X906908D01*
X906926D01*
X906948D01*
X906974Y487882D01*
X907006D01*
X907076Y487885D01*
X907156Y487893D01*
X907236Y487903D01*
X907312Y487918D01*
X907345Y487925D01*
X907378Y487936D01*
X907385Y487940D01*
X907403Y487947D01*
X907429Y487965D01*
X907465Y487987D01*
X907501Y488013D01*
X907541Y488049D01*
X907582Y488093D01*
X907614Y488144D01*
X907618Y488151D01*
X907629Y488169D01*
X907640Y488202D01*
X907654Y488246D01*
X907673Y488297D01*
X907683Y488362D01*
X907694Y488431D01*
X907698Y488508D01*
Y488544D01*
X907694Y488566D01*
Y488599D01*
X907691Y488631D01*
X907676Y488712D01*
X907658Y488799D01*
X907629Y488883D01*
X907589Y488963D01*
X907563Y488999D01*
X907534Y489032D01*
X907530Y489036D01*
X907527Y489039D01*
X907516Y489046D01*
X907501Y489057D01*
X907479Y489068D01*
X907458Y489083D01*
X907425Y489097D01*
X907392Y489112D01*
X907352Y489127D01*
X907305Y489138D01*
X907250Y489152D01*
X907192Y489163D01*
X907126Y489174D01*
X907057Y489181D01*
X906977Y489188D01*
X906894D01*
X905437D01*
Y489523D01*
X906894D01*
X906897D01*
X906912D01*
X906930D01*
X906955D01*
X906988Y489520D01*
D02*
G37*
G36*
X793268Y362795D02*
X793297Y362791D01*
X793330Y362784D01*
X793367Y362777D01*
X793407Y362769D01*
X793494Y362740D01*
X793541Y362718D01*
X793585Y362697D01*
X793632Y362667D01*
X793680Y362635D01*
X793727Y362598D01*
X793771Y362555D01*
X793774Y362551D01*
X793782Y362544D01*
X793793Y362529D01*
X793807Y362511D01*
X793825Y362489D01*
X793844Y362460D01*
X793865Y362427D01*
X793884Y362387D01*
X793905Y362347D01*
X793927Y362300D01*
X793945Y362252D01*
X793964Y362198D01*
X793978Y362140D01*
X793989Y362078D01*
X793996Y362016D01*
X794000Y361947D01*
Y361914D01*
X793996Y361892D01*
X793993Y361863D01*
X793989Y361830D01*
X793982Y361794D01*
X793975Y361754D01*
X793953Y361666D01*
X793916Y361576D01*
X793894Y361528D01*
X793869Y361485D01*
X793836Y361441D01*
X793804Y361397D01*
X793800Y361393D01*
X793793Y361386D01*
X793782Y361375D01*
X793767Y361364D01*
X793749Y361346D01*
X793723Y361328D01*
X793698Y361306D01*
X793665Y361284D01*
X793629Y361262D01*
X793592Y361241D01*
X793505Y361201D01*
X793403Y361168D01*
X793349Y361157D01*
X793290Y361150D01*
X793250Y361459D01*
X793254D01*
X793261Y361463D01*
X793276Y361466D01*
X793294Y361470D01*
X793316Y361473D01*
X793341Y361481D01*
X793396Y361499D01*
X793461Y361525D01*
X793523Y361557D01*
X793581Y361594D01*
X793632Y361637D01*
X793636Y361645D01*
X793651Y361659D01*
X793669Y361688D01*
X793687Y361725D01*
X793709Y361768D01*
X793727Y361823D01*
X793742Y361885D01*
X793745Y361950D01*
Y361972D01*
X793742Y361987D01*
X793738Y362027D01*
X793727Y362078D01*
X793709Y362136D01*
X793683Y362198D01*
X793647Y362260D01*
X793596Y362318D01*
X793589Y362325D01*
X793567Y362344D01*
X793534Y362365D01*
X793490Y362394D01*
X793436Y362424D01*
X793374Y362445D01*
X793301Y362464D01*
X793221Y362471D01*
X793218D01*
X793210D01*
X793199D01*
X793185Y362467D01*
X793145Y362464D01*
X793097Y362453D01*
X793039Y362438D01*
X792981Y362413D01*
X792923Y362376D01*
X792868Y362329D01*
X792861Y362322D01*
X792846Y362303D01*
X792824Y362274D01*
X792799Y362234D01*
X792773Y362183D01*
X792752Y362122D01*
X792737Y362052D01*
X792730Y361976D01*
Y361943D01*
X792733Y361918D01*
X792737Y361885D01*
X792744Y361848D01*
X792752Y361805D01*
X792762Y361757D01*
X792489Y361794D01*
Y361812D01*
X792493Y361827D01*
Y361874D01*
X792486Y361914D01*
X792479Y361961D01*
X792468Y362016D01*
X792449Y362078D01*
X792424Y362136D01*
X792391Y362198D01*
Y362201D01*
X792387Y362205D01*
X792373Y362223D01*
X792347Y362249D01*
X792315Y362278D01*
X792267Y362307D01*
X792213Y362333D01*
X792151Y362351D01*
X792114Y362358D01*
X792074D01*
X792071D01*
X792067D01*
X792045D01*
X792016Y362351D01*
X791976Y362344D01*
X791932Y362329D01*
X791885Y362311D01*
X791838Y362282D01*
X791794Y362242D01*
X791791Y362238D01*
X791776Y362220D01*
X791758Y362194D01*
X791736Y362161D01*
X791718Y362118D01*
X791700Y362067D01*
X791685Y362009D01*
X791681Y361943D01*
Y361914D01*
X791689Y361881D01*
X791696Y361838D01*
X791711Y361790D01*
X791729Y361743D01*
X791758Y361692D01*
X791794Y361645D01*
X791798Y361641D01*
X791816Y361626D01*
X791842Y361605D01*
X791878Y361579D01*
X791925Y361554D01*
X791984Y361528D01*
X792053Y361506D01*
X792133Y361492D01*
X792078Y361182D01*
X792074D01*
X792064Y361186D01*
X792049Y361190D01*
X792027Y361193D01*
X792002Y361201D01*
X791973Y361211D01*
X791903Y361233D01*
X791823Y361270D01*
X791743Y361313D01*
X791667Y361368D01*
X791598Y361437D01*
X791594Y361441D01*
X791590Y361448D01*
X791583Y361459D01*
X791572Y361473D01*
X791558Y361492D01*
X791543Y361517D01*
X791529Y361543D01*
X791510Y361576D01*
X791481Y361648D01*
X791452Y361732D01*
X791434Y361830D01*
X791427Y361881D01*
Y361972D01*
X791430Y362012D01*
X791437Y362060D01*
X791448Y362118D01*
X791467Y362183D01*
X791489Y362249D01*
X791518Y362314D01*
Y362318D01*
X791521Y362322D01*
X791532Y362344D01*
X791554Y362376D01*
X791579Y362413D01*
X791616Y362456D01*
X791656Y362500D01*
X791703Y362544D01*
X791758Y362580D01*
X791765Y362584D01*
X791783Y362595D01*
X791816Y362609D01*
X791856Y362627D01*
X791903Y362646D01*
X791958Y362660D01*
X792020Y362671D01*
X792082Y362675D01*
X792089D01*
X792111D01*
X792140Y362671D01*
X792180Y362664D01*
X792227Y362653D01*
X792278Y362635D01*
X792329Y362613D01*
X792380Y362584D01*
X792387Y362580D01*
X792402Y362569D01*
X792428Y362547D01*
X792457Y362518D01*
X792489Y362482D01*
X792526Y362438D01*
X792559Y362387D01*
X792591Y362325D01*
Y362329D01*
X792595Y362336D01*
X792599Y362347D01*
X792602Y362362D01*
X792617Y362402D01*
X792639Y362453D01*
X792668Y362511D01*
X792704Y362569D01*
X792752Y362624D01*
X792806Y362675D01*
X792813Y362678D01*
X792835Y362693D01*
X792872Y362715D01*
X792919Y362737D01*
X792977Y362758D01*
X793046Y362780D01*
X793126Y362795D01*
X793214Y362799D01*
X793218D01*
X793228D01*
X793247D01*
X793268Y362795D01*
D02*
G37*
G36*
X792988Y360713D02*
X793024D01*
X793068Y360709D01*
X793112Y360705D01*
X793210Y360695D01*
X793312Y360680D01*
X793410Y360658D01*
X793458Y360644D01*
X793501Y360629D01*
X793505D01*
X793512Y360625D01*
X793523Y360618D01*
X793538Y360611D01*
X793578Y360589D01*
X793629Y360556D01*
X793687Y360513D01*
X793745Y360462D01*
X793807Y360396D01*
X793862Y360316D01*
Y360312D01*
X793869Y360305D01*
X793873Y360294D01*
X793884Y360276D01*
X793894Y360254D01*
X793905Y360225D01*
X793916Y360196D01*
X793931Y360159D01*
X793945Y360120D01*
X793956Y360076D01*
X793967Y360029D01*
X793978Y359974D01*
X793986Y359919D01*
X793993Y359861D01*
X794000Y359730D01*
Y359697D01*
X793996Y359672D01*
Y359643D01*
X793993Y359606D01*
X793989Y359566D01*
X793986Y359526D01*
X793971Y359435D01*
X793949Y359337D01*
X793920Y359242D01*
X793880Y359151D01*
Y359148D01*
X793873Y359140D01*
X793865Y359129D01*
X793858Y359115D01*
X793829Y359075D01*
X793789Y359028D01*
X793738Y358973D01*
X793680Y358922D01*
X793607Y358871D01*
X793527Y358831D01*
X793523D01*
X793516Y358827D01*
X793501Y358824D01*
X793483Y358816D01*
X793461Y358809D01*
X793432Y358802D01*
X793399Y358791D01*
X793359Y358784D01*
X793316Y358776D01*
X793268Y358765D01*
X793218Y358758D01*
X793163Y358751D01*
X793101Y358744D01*
X793036Y358740D01*
X792966Y358736D01*
X792894D01*
X791437D01*
Y359071D01*
X792894D01*
X792897D01*
X792908D01*
X792926D01*
X792948D01*
X792974Y359075D01*
X793006D01*
X793076Y359078D01*
X793156Y359086D01*
X793236Y359097D01*
X793312Y359111D01*
X793345Y359119D01*
X793378Y359129D01*
X793385Y359133D01*
X793403Y359140D01*
X793429Y359158D01*
X793465Y359180D01*
X793501Y359206D01*
X793541Y359242D01*
X793581Y359286D01*
X793614Y359337D01*
X793618Y359344D01*
X793629Y359362D01*
X793640Y359395D01*
X793654Y359439D01*
X793673Y359490D01*
X793683Y359555D01*
X793694Y359624D01*
X793698Y359701D01*
Y359737D01*
X793694Y359759D01*
Y359792D01*
X793691Y359825D01*
X793676Y359905D01*
X793658Y359992D01*
X793629Y360076D01*
X793589Y360156D01*
X793563Y360192D01*
X793534Y360225D01*
X793531Y360229D01*
X793527Y360232D01*
X793516Y360240D01*
X793501Y360250D01*
X793479Y360261D01*
X793458Y360276D01*
X793425Y360291D01*
X793392Y360305D01*
X793352Y360320D01*
X793305Y360331D01*
X793250Y360345D01*
X793192Y360356D01*
X793126Y360367D01*
X793057Y360374D01*
X792977Y360382D01*
X792894D01*
X791437D01*
Y360716D01*
X792894D01*
X792897D01*
X792912D01*
X792930D01*
X792955D01*
X792988Y360713D01*
D02*
G37*
G36*
X907956Y362001D02*
X905987D01*
X905991Y361998D01*
X906005Y361979D01*
X906027Y361958D01*
X906053Y361921D01*
X906085Y361881D01*
X906122Y361830D01*
X906162Y361772D01*
X906202Y361706D01*
Y361703D01*
X906205Y361699D01*
X906220Y361677D01*
X906238Y361641D01*
X906260Y361597D01*
X906286Y361546D01*
X906311Y361492D01*
X906337Y361437D01*
X906358Y361382D01*
X906060D01*
Y361386D01*
X906053Y361393D01*
X906049Y361408D01*
X906038Y361426D01*
X906027Y361448D01*
X906013Y361473D01*
X905976Y361535D01*
X905936Y361608D01*
X905885Y361681D01*
X905827Y361757D01*
X905765Y361834D01*
X905761Y361837D01*
X905758Y361841D01*
X905747Y361852D01*
X905736Y361866D01*
X905700Y361899D01*
X905656Y361943D01*
X905605Y361987D01*
X905547Y362034D01*
X905488Y362074D01*
X905427Y362110D01*
Y362311D01*
X907956D01*
Y362001D01*
D02*
G37*
G36*
X906988Y360713D02*
X907024D01*
X907068Y360709D01*
X907112Y360705D01*
X907210Y360694D01*
X907312Y360680D01*
X907410Y360658D01*
X907458Y360644D01*
X907501Y360629D01*
X907505D01*
X907512Y360625D01*
X907523Y360618D01*
X907538Y360611D01*
X907578Y360589D01*
X907629Y360556D01*
X907687Y360512D01*
X907745Y360461D01*
X907807Y360396D01*
X907862Y360316D01*
Y360312D01*
X907869Y360305D01*
X907873Y360294D01*
X907884Y360276D01*
X907895Y360254D01*
X907905Y360225D01*
X907916Y360196D01*
X907931Y360159D01*
X907945Y360119D01*
X907956Y360076D01*
X907967Y360028D01*
X907978Y359974D01*
X907985Y359919D01*
X907993Y359861D01*
X908000Y359730D01*
Y359697D01*
X907996Y359672D01*
Y359643D01*
X907993Y359606D01*
X907989Y359566D01*
X907985Y359526D01*
X907971Y359435D01*
X907949Y359337D01*
X907920Y359242D01*
X907880Y359151D01*
Y359147D01*
X907873Y359140D01*
X907865Y359129D01*
X907858Y359115D01*
X907829Y359075D01*
X907789Y359027D01*
X907738Y358973D01*
X907680Y358922D01*
X907607Y358871D01*
X907527Y358831D01*
X907523D01*
X907516Y358827D01*
X907501Y358823D01*
X907483Y358816D01*
X907461Y358809D01*
X907432Y358802D01*
X907399Y358791D01*
X907359Y358783D01*
X907316Y358776D01*
X907268Y358765D01*
X907217Y358758D01*
X907163Y358751D01*
X907101Y358743D01*
X907035Y358740D01*
X906966Y358736D01*
X906894D01*
X905437D01*
Y359071D01*
X906894D01*
X906897D01*
X906908D01*
X906926D01*
X906948D01*
X906974Y359075D01*
X907006D01*
X907076Y359078D01*
X907156Y359086D01*
X907236Y359097D01*
X907312Y359111D01*
X907345Y359118D01*
X907378Y359129D01*
X907385Y359133D01*
X907403Y359140D01*
X907429Y359158D01*
X907465Y359180D01*
X907501Y359206D01*
X907541Y359242D01*
X907582Y359286D01*
X907614Y359337D01*
X907618Y359344D01*
X907629Y359362D01*
X907640Y359395D01*
X907654Y359439D01*
X907673Y359490D01*
X907683Y359555D01*
X907694Y359624D01*
X907698Y359701D01*
Y359737D01*
X907694Y359759D01*
Y359792D01*
X907691Y359824D01*
X907676Y359905D01*
X907658Y359992D01*
X907629Y360076D01*
X907589Y360156D01*
X907563Y360192D01*
X907534Y360225D01*
X907530Y360228D01*
X907527Y360232D01*
X907516Y360239D01*
X907501Y360250D01*
X907479Y360261D01*
X907458Y360276D01*
X907425Y360290D01*
X907392Y360305D01*
X907352Y360319D01*
X907305Y360330D01*
X907250Y360345D01*
X907192Y360356D01*
X907126Y360367D01*
X907057Y360374D01*
X906977Y360381D01*
X906894D01*
X905437D01*
Y360716D01*
X906894D01*
X906897D01*
X906912D01*
X906930D01*
X906955D01*
X906988Y360713D01*
D02*
G37*
%LPC*%
G36*
X834659Y95745D02*
X834656D01*
X834648D01*
X834634D01*
X834616Y95742D01*
X834594D01*
X834568Y95738D01*
X834510Y95727D01*
X834444Y95713D01*
X834375Y95687D01*
X834310Y95651D01*
X834248Y95604D01*
X834241Y95596D01*
X834222Y95578D01*
X834201Y95549D01*
X834171Y95509D01*
X834142Y95458D01*
X834120Y95400D01*
X834102Y95331D01*
X834095Y95254D01*
Y95232D01*
X834099Y95218D01*
X834102Y95181D01*
X834113Y95130D01*
X834131Y95076D01*
X834161Y95014D01*
X834197Y94956D01*
X834248Y94897D01*
X834255Y94890D01*
X834273Y94876D01*
X834306Y94850D01*
X834353Y94825D01*
X834408Y94799D01*
X834477Y94774D01*
X834554Y94759D01*
X834641Y94752D01*
X834648D01*
X834667D01*
X834699Y94755D01*
X834739Y94759D01*
X834787Y94766D01*
X834838Y94781D01*
X834892Y94796D01*
X834947Y94817D01*
X834954Y94821D01*
X834972Y94832D01*
X834998Y94846D01*
X835030Y94868D01*
X835063Y94894D01*
X835103Y94927D01*
X835136Y94963D01*
X835169Y95007D01*
X835172Y95014D01*
X835180Y95028D01*
X835194Y95054D01*
X835205Y95087D01*
X835220Y95123D01*
X835234Y95167D01*
X835242Y95214D01*
X835245Y95265D01*
Y95283D01*
X835242Y95298D01*
X835238Y95334D01*
X835227Y95381D01*
X835205Y95433D01*
X835180Y95491D01*
X835140Y95549D01*
X835118Y95578D01*
X835089Y95604D01*
X835085D01*
X835081Y95611D01*
X835060Y95625D01*
X835023Y95647D01*
X834976Y95676D01*
X834914Y95702D01*
X834841Y95724D01*
X834758Y95738D01*
X834659Y95745D01*
D02*
G37*
G36*
X837276Y179319D02*
X837218D01*
X837203Y179315D01*
X837163Y179311D01*
X837116Y179297D01*
X837058Y179279D01*
X836996Y179246D01*
X836934Y179206D01*
X836905Y179177D01*
X836876Y179148D01*
Y179144D01*
X836868Y179140D01*
X836861Y179129D01*
X836854Y179118D01*
X836828Y179082D01*
X836803Y179031D01*
X836774Y178969D01*
X836748Y178893D01*
X836734Y178805D01*
X836726Y178711D01*
Y178707D01*
Y178700D01*
Y178689D01*
X836730Y178671D01*
Y178649D01*
X836734Y178627D01*
X836744Y178572D01*
X836763Y178511D01*
X836784Y178445D01*
X836821Y178379D01*
X836868Y178321D01*
X836876Y178314D01*
X836894Y178299D01*
X836926Y178274D01*
X836967Y178249D01*
X837021Y178219D01*
X837083Y178194D01*
X837152Y178179D01*
X837229Y178172D01*
X837251D01*
X837265Y178176D01*
X837305Y178179D01*
X837352Y178190D01*
X837411Y178208D01*
X837469Y178234D01*
X837527Y178270D01*
X837582Y178321D01*
X837589Y178329D01*
X837603Y178350D01*
X837625Y178383D01*
X837654Y178430D01*
X837680Y178489D01*
X837702Y178558D01*
X837716Y178642D01*
X837724Y178736D01*
Y178740D01*
Y178747D01*
Y178762D01*
X837720Y178780D01*
Y178805D01*
X837716Y178831D01*
X837706Y178889D01*
X837691Y178958D01*
X837665Y179031D01*
X837629Y179100D01*
X837582Y179162D01*
Y179166D01*
X837574Y179169D01*
X837556Y179188D01*
X837527Y179213D01*
X837487Y179242D01*
X837436Y179268D01*
X837378Y179293D01*
X837312Y179311D01*
X837276Y179319D01*
D02*
G37*
G36*
X835128Y179282D02*
X834335D01*
Y178449D01*
X835085D01*
X835128Y178452D01*
X835179Y178456D01*
X835238Y178460D01*
X835296Y178467D01*
X835354Y178478D01*
X835405Y178492D01*
X835412Y178496D01*
X835427Y178503D01*
X835449Y178514D01*
X835478Y178529D01*
X835511Y178551D01*
X835543Y178576D01*
X835576Y178609D01*
X835602Y178645D01*
X835605Y178649D01*
X835612Y178663D01*
X835623Y178685D01*
X835638Y178714D01*
X835649Y178747D01*
X835660Y178784D01*
X835667Y178827D01*
X835671Y178871D01*
Y178875D01*
Y178878D01*
X835667Y178900D01*
X835663Y178933D01*
X835656Y178977D01*
X835638Y179020D01*
X835616Y179071D01*
X835583Y179118D01*
X835540Y179166D01*
X835532Y179169D01*
X835514Y179184D01*
X835485Y179202D01*
X835438Y179224D01*
X835383Y179246D01*
X835310Y179264D01*
X835227Y179279D01*
X835128Y179282D01*
D02*
G37*
G36*
X814282Y90665D02*
X813449D01*
Y89915D01*
X813452Y89872D01*
X813456Y89821D01*
X813460Y89763D01*
X813467Y89704D01*
X813478Y89646D01*
X813492Y89595D01*
X813496Y89588D01*
X813503Y89573D01*
X813514Y89551D01*
X813529Y89522D01*
X813551Y89489D01*
X813576Y89457D01*
X813609Y89424D01*
X813645Y89398D01*
X813649Y89395D01*
X813663Y89388D01*
X813685Y89377D01*
X813714Y89362D01*
X813747Y89351D01*
X813784Y89340D01*
X813827Y89333D01*
X813871Y89329D01*
X813875D01*
X813878D01*
X813900Y89333D01*
X813933Y89337D01*
X813976Y89344D01*
X814020Y89362D01*
X814071Y89384D01*
X814118Y89417D01*
X814166Y89460D01*
X814169Y89468D01*
X814184Y89486D01*
X814202Y89515D01*
X814224Y89562D01*
X814246Y89617D01*
X814264Y89690D01*
X814279Y89773D01*
X814282Y89872D01*
Y90665D01*
D02*
G37*
G36*
X813929Y88175D02*
X813925D01*
X813922D01*
X813900Y88172D01*
X813867Y88168D01*
X813827Y88161D01*
X813780Y88146D01*
X813733Y88128D01*
X813682Y88099D01*
X813638Y88063D01*
X813634Y88059D01*
X813620Y88041D01*
X813602Y88015D01*
X813583Y87982D01*
X813562Y87939D01*
X813543Y87888D01*
X813529Y87830D01*
X813525Y87764D01*
Y87757D01*
X813529Y87735D01*
X813532Y87702D01*
X813540Y87659D01*
X813554Y87611D01*
X813572Y87564D01*
X813602Y87513D01*
X813638Y87469D01*
X813642Y87466D01*
X813660Y87451D01*
X813682Y87433D01*
X813714Y87411D01*
X813754Y87389D01*
X813802Y87371D01*
X813856Y87356D01*
X813915Y87353D01*
X813918D01*
X813922D01*
X813944D01*
X813976Y87360D01*
X814017Y87367D01*
X814060Y87382D01*
X814108Y87404D01*
X814155Y87433D01*
X814202Y87473D01*
X814206Y87476D01*
X814220Y87495D01*
X814239Y87520D01*
X814260Y87553D01*
X814282Y87597D01*
X814300Y87644D01*
X814315Y87702D01*
X814319Y87764D01*
Y87793D01*
X814311Y87826D01*
X814304Y87870D01*
X814289Y87917D01*
X814271Y87968D01*
X814242Y88015D01*
X814202Y88063D01*
X814198Y88066D01*
X814184Y88081D01*
X814159Y88099D01*
X814126Y88117D01*
X814086Y88139D01*
X814038Y88157D01*
X813987Y88172D01*
X813929Y88175D01*
D02*
G37*
G36*
X812768Y88277D02*
X812761D01*
X812746D01*
X812721Y88274D01*
X812688Y88270D01*
X812648Y88263D01*
X812604Y88252D01*
X812560Y88237D01*
X812513Y88219D01*
X812510Y88215D01*
X812491Y88208D01*
X812469Y88194D01*
X812444Y88172D01*
X812411Y88146D01*
X812379Y88113D01*
X812349Y88077D01*
X812320Y88033D01*
X812317Y88026D01*
X812309Y88012D01*
X812298Y87986D01*
X812288Y87953D01*
X812277Y87913D01*
X812266Y87866D01*
X812258Y87815D01*
X812255Y87764D01*
Y87742D01*
X812258Y87728D01*
X812262Y87684D01*
X812273Y87633D01*
X812291Y87575D01*
X812313Y87513D01*
X812349Y87455D01*
X812397Y87397D01*
X812404Y87389D01*
X812422Y87375D01*
X812455Y87349D01*
X812495Y87324D01*
X812546Y87298D01*
X812608Y87273D01*
X812681Y87258D01*
X812757Y87251D01*
X812761D01*
X812768D01*
X812779D01*
X812794Y87255D01*
X812833Y87258D01*
X812888Y87269D01*
X812943Y87287D01*
X813005Y87313D01*
X813066Y87349D01*
X813125Y87400D01*
X813132Y87407D01*
X813147Y87426D01*
X813172Y87458D01*
X813201Y87502D01*
X813227Y87557D01*
X813252Y87622D01*
X813267Y87695D01*
X813274Y87775D01*
Y87797D01*
X813270Y87811D01*
X813267Y87851D01*
X813256Y87902D01*
X813238Y87961D01*
X813212Y88019D01*
X813176Y88081D01*
X813128Y88135D01*
X813121Y88143D01*
X813103Y88157D01*
X813070Y88179D01*
X813030Y88204D01*
X812976Y88234D01*
X812914Y88256D01*
X812844Y88270D01*
X812768Y88277D01*
D02*
G37*
G36*
X759239Y508665D02*
X758405D01*
Y507915D01*
X758409Y507872D01*
X758412Y507821D01*
X758416Y507762D01*
X758423Y507704D01*
X758434Y507646D01*
X758449Y507595D01*
X758452Y507588D01*
X758460Y507573D01*
X758470Y507551D01*
X758485Y507522D01*
X758507Y507489D01*
X758532Y507457D01*
X758565Y507424D01*
X758602Y507398D01*
X758605Y507395D01*
X758620Y507387D01*
X758642Y507377D01*
X758671Y507362D01*
X758704Y507351D01*
X758740Y507340D01*
X758784Y507333D01*
X758827Y507329D01*
X758831D01*
X758835D01*
X758856Y507333D01*
X758889Y507337D01*
X758933Y507344D01*
X758977Y507362D01*
X759027Y507384D01*
X759075Y507417D01*
X759122Y507460D01*
X759126Y507468D01*
X759140Y507486D01*
X759159Y507515D01*
X759180Y507562D01*
X759202Y507617D01*
X759220Y507690D01*
X759235Y507773D01*
X759239Y507872D01*
Y508665D01*
D02*
G37*
G36*
X726466Y99671D02*
X726462D01*
X726458D01*
X726437Y99667D01*
X726404Y99663D01*
X726360Y99656D01*
X726316Y99638D01*
X726265Y99616D01*
X726218Y99583D01*
X726171Y99540D01*
X726167Y99532D01*
X726153Y99514D01*
X726134Y99485D01*
X726113Y99438D01*
X726091Y99383D01*
X726073Y99310D01*
X726058Y99227D01*
X726054Y99128D01*
Y98335D01*
X726888D01*
Y99085D01*
X726884Y99128D01*
X726881Y99179D01*
X726877Y99238D01*
X726870Y99296D01*
X726859Y99354D01*
X726844Y99405D01*
X726841Y99412D01*
X726833Y99427D01*
X726822Y99449D01*
X726808Y99478D01*
X726786Y99511D01*
X726760Y99543D01*
X726728Y99576D01*
X726691Y99602D01*
X726688Y99605D01*
X726673Y99612D01*
X726651Y99623D01*
X726622Y99638D01*
X726589Y99649D01*
X726553Y99660D01*
X726509Y99667D01*
X726466Y99671D01*
D02*
G37*
G36*
X704813Y101745D02*
X704809D01*
X704802D01*
X704787D01*
X704769Y101742D01*
X704747D01*
X704722Y101738D01*
X704664Y101727D01*
X704598Y101713D01*
X704529Y101687D01*
X704463Y101651D01*
X704401Y101603D01*
X704394Y101596D01*
X704376Y101578D01*
X704354Y101549D01*
X704325Y101509D01*
X704296Y101458D01*
X704274Y101400D01*
X704256Y101330D01*
X704249Y101254D01*
Y101232D01*
X704252Y101218D01*
X704256Y101181D01*
X704267Y101130D01*
X704285Y101076D01*
X704314Y101014D01*
X704351Y100956D01*
X704401Y100897D01*
X704409Y100890D01*
X704427Y100875D01*
X704460Y100850D01*
X704507Y100825D01*
X704562Y100799D01*
X704631Y100774D01*
X704707Y100759D01*
X704795Y100752D01*
X704802D01*
X704820D01*
X704853Y100755D01*
X704893Y100759D01*
X704940Y100766D01*
X704991Y100781D01*
X705046Y100795D01*
X705100Y100817D01*
X705108Y100821D01*
X705126Y100832D01*
X705151Y100846D01*
X705184Y100868D01*
X705217Y100894D01*
X705257Y100926D01*
X705290Y100963D01*
X705322Y101007D01*
X705326Y101014D01*
X705333Y101028D01*
X705348Y101054D01*
X705359Y101087D01*
X705373Y101123D01*
X705388Y101167D01*
X705395Y101214D01*
X705399Y101265D01*
Y101283D01*
X705395Y101298D01*
X705392Y101334D01*
X705381Y101382D01*
X705359Y101433D01*
X705333Y101491D01*
X705293Y101549D01*
X705271Y101578D01*
X705242Y101603D01*
X705239D01*
X705235Y101611D01*
X705213Y101625D01*
X705177Y101647D01*
X705129Y101676D01*
X705068Y101702D01*
X704995Y101724D01*
X704911Y101738D01*
X704813Y101745D01*
D02*
G37*
G36*
X703783Y99671D02*
X703779D01*
X703775D01*
X703754Y99667D01*
X703721Y99663D01*
X703677Y99656D01*
X703633Y99638D01*
X703582Y99616D01*
X703535Y99583D01*
X703488Y99540D01*
X703484Y99532D01*
X703470Y99514D01*
X703451Y99485D01*
X703430Y99438D01*
X703408Y99383D01*
X703390Y99310D01*
X703375Y99227D01*
X703371Y99128D01*
Y98335D01*
X704205D01*
Y99085D01*
X704201Y99128D01*
X704198Y99179D01*
X704194Y99238D01*
X704187Y99296D01*
X704176Y99354D01*
X704161Y99405D01*
X704158Y99412D01*
X704150Y99427D01*
X704139Y99449D01*
X704125Y99478D01*
X704103Y99511D01*
X704077Y99543D01*
X704045Y99576D01*
X704008Y99602D01*
X704005Y99605D01*
X703990Y99612D01*
X703968Y99623D01*
X703939Y99638D01*
X703906Y99649D01*
X703870Y99660D01*
X703826Y99667D01*
X703783Y99671D01*
D02*
G37*
G36*
X122128Y202282D02*
X121335D01*
Y201449D01*
X122085D01*
X122128Y201452D01*
X122179Y201456D01*
X122238Y201460D01*
X122296Y201467D01*
X122354Y201478D01*
X122405Y201492D01*
X122412Y201496D01*
X122427Y201503D01*
X122449Y201514D01*
X122478Y201529D01*
X122511Y201551D01*
X122543Y201576D01*
X122576Y201609D01*
X122601Y201645D01*
X122605Y201649D01*
X122613Y201663D01*
X122623Y201685D01*
X122638Y201714D01*
X122649Y201747D01*
X122660Y201783D01*
X122667Y201827D01*
X122671Y201871D01*
Y201874D01*
Y201878D01*
X122667Y201900D01*
X122663Y201933D01*
X122656Y201976D01*
X122638Y202020D01*
X122616Y202071D01*
X122583Y202118D01*
X122540Y202166D01*
X122532Y202169D01*
X122514Y202184D01*
X122485Y202202D01*
X122438Y202224D01*
X122383Y202246D01*
X122310Y202264D01*
X122227Y202279D01*
X122128Y202282D01*
D02*
G37*
G36*
X124400Y220017D02*
X123606Y218888D01*
X124400D01*
Y220017D01*
D02*
G37*
G36*
X122128Y220238D02*
X121335D01*
Y219405D01*
X122085D01*
X122128Y219409D01*
X122179Y219412D01*
X122238Y219416D01*
X122296Y219423D01*
X122354Y219434D01*
X122405Y219449D01*
X122412Y219452D01*
X122427Y219460D01*
X122449Y219471D01*
X122478Y219485D01*
X122511Y219507D01*
X122543Y219532D01*
X122576Y219565D01*
X122601Y219601D01*
X122605Y219605D01*
X122613Y219620D01*
X122623Y219642D01*
X122638Y219671D01*
X122649Y219704D01*
X122660Y219740D01*
X122667Y219784D01*
X122671Y219827D01*
Y219831D01*
Y219834D01*
X122667Y219856D01*
X122663Y219889D01*
X122656Y219933D01*
X122638Y219976D01*
X122616Y220027D01*
X122583Y220075D01*
X122540Y220122D01*
X122532Y220126D01*
X122514Y220140D01*
X122485Y220159D01*
X122438Y220180D01*
X122383Y220202D01*
X122310Y220220D01*
X122227Y220235D01*
X122128Y220238D01*
D02*
G37*
G36*
X120665Y236551D02*
X119915D01*
X119872Y236548D01*
X119821Y236544D01*
X119762Y236540D01*
X119704Y236533D01*
X119646Y236522D01*
X119595Y236508D01*
X119588Y236504D01*
X119573Y236497D01*
X119551Y236486D01*
X119522Y236471D01*
X119490Y236449D01*
X119457Y236424D01*
X119424Y236391D01*
X119398Y236355D01*
X119395Y236351D01*
X119387Y236337D01*
X119377Y236315D01*
X119362Y236286D01*
X119351Y236253D01*
X119340Y236216D01*
X119333Y236173D01*
X119329Y236129D01*
Y236125D01*
Y236122D01*
X119333Y236100D01*
X119337Y236067D01*
X119344Y236023D01*
X119362Y235980D01*
X119384Y235929D01*
X119417Y235882D01*
X119460Y235834D01*
X119468Y235831D01*
X119486Y235816D01*
X119515Y235798D01*
X119562Y235776D01*
X119617Y235754D01*
X119690Y235736D01*
X119773Y235721D01*
X119872Y235718D01*
X120665D01*
Y236551D01*
D02*
G37*
G36*
X743157Y510171D02*
X743154D01*
X743150D01*
X743128Y510167D01*
X743096Y510163D01*
X743052Y510156D01*
X743008Y510138D01*
X742957Y510116D01*
X742910Y510083D01*
X742863Y510040D01*
X742859Y510032D01*
X742844Y510014D01*
X742826Y509985D01*
X742804Y509938D01*
X742783Y509883D01*
X742764Y509810D01*
X742750Y509727D01*
X742746Y509628D01*
Y508835D01*
X743580D01*
Y509585D01*
X743576Y509628D01*
X743572Y509679D01*
X743569Y509738D01*
X743562Y509796D01*
X743551Y509854D01*
X743536Y509905D01*
X743532Y509912D01*
X743525Y509927D01*
X743514Y509949D01*
X743500Y509978D01*
X743478Y510011D01*
X743452Y510043D01*
X743420Y510076D01*
X743383Y510102D01*
X743379Y510105D01*
X743365Y510112D01*
X743343Y510123D01*
X743314Y510138D01*
X743281Y510149D01*
X743245Y510160D01*
X743201Y510167D01*
X743157Y510171D01*
D02*
G37*
G36*
X793068Y490943D02*
X791940D01*
X793068Y490149D01*
Y490943D01*
D02*
G37*
%LPD*%
D11*
X828110Y131181D02*
Y155819D01*
X841890D01*
Y131181D02*
Y155819D01*
X828110Y131181D02*
X841890D01*
X828610Y79681D02*
Y104319D01*
X842390D01*
Y79681D02*
Y104319D01*
X828610Y79681D02*
X842390D01*
X825338Y173260D02*
Y180740D01*
Y173260D02*
X842661D01*
Y180740D01*
X825338D02*
X842661D01*
X815740Y82339D02*
Y99661D01*
X808260Y82339D02*
X815740D01*
X808260D02*
Y99661D01*
X815740D01*
X760740Y500338D02*
Y517661D01*
X753260Y500338D02*
X760740D01*
X753260D02*
Y517661D01*
X760740D01*
X724553Y89338D02*
Y106661D01*
X732033D01*
Y89338D02*
Y106661D01*
X724553Y89338D02*
X732033D01*
X701913D02*
Y106661D01*
X709394D01*
Y89338D02*
Y106661D01*
X701913Y89338D02*
X709394D01*
X112338Y203740D02*
X129662D01*
Y196260D02*
Y203740D01*
X112338Y196260D02*
X129662D01*
X112338D02*
Y203740D01*
Y221740D02*
X129662D01*
Y214260D02*
Y221740D01*
X112338Y214260D02*
X129662D01*
X112338D02*
Y221740D01*
Y234260D02*
X129662D01*
X112338D02*
Y241740D01*
X129662D01*
Y234260D02*
Y241740D01*
X741245Y499839D02*
X748725D01*
Y517162D01*
X741245D02*
X748725D01*
X741245Y499839D02*
Y517162D01*
X767425Y464905D02*
X820575D01*
Y510181D01*
X767425D02*
X820575D01*
X767425Y464905D02*
Y510181D01*
X881425Y464905D02*
X934575D01*
Y510181D01*
X881425D02*
X934575D01*
X881425Y464905D02*
Y510181D01*
X767425Y336099D02*
Y381374D01*
X820575D01*
Y336099D02*
Y381374D01*
X767425Y336099D02*
X820575D01*
X881425Y336098D02*
Y381374D01*
X934575D01*
Y336098D02*
Y381374D01*
X881425Y336098D02*
X934575D01*
M02*
