G04*
G04 #@! TF.GenerationSoftware,Altium Limited,Altium Designer,22.11.1 (43)*
G04*
G04 Layer_Physical_Order=2*
G04 Layer_Color=16711680*
%FSLAX25Y25*%
%MOIN*%
G70*
G04*
G04 #@! TF.SameCoordinates,4D6F9E16-F8D6-4E59-8BFB-CDB79C160039*
G04*
G04*
G04 #@! TF.FilePolarity,Positive*
G04*
G01*
G75*
%ADD12C,0.01000*%
%ADD15R,0.14173X0.02756*%
%ADD16R,0.02756X0.14173*%
%ADD25C,0.18504*%
%ADD26C,0.09055*%
%ADD27C,0.01968*%
%ADD28C,0.12992*%
%ADD29C,0.05906*%
%ADD30R,0.05906X0.05906*%
%ADD31C,0.02362*%
%ADD32R,0.05118X0.09449*%
G36*
X1249574Y443930D02*
X1190945D01*
X1190644Y443805D01*
X1190519Y443504D01*
Y367343D01*
X1167323D01*
X1167022Y367218D01*
X1166897Y366917D01*
Y359436D01*
X1167022Y359135D01*
X1167323Y359010D01*
Y358937D01*
X1170460D01*
Y355093D01*
Y351156D01*
Y347219D01*
Y343282D01*
Y339345D01*
Y335408D01*
Y331471D01*
Y327534D01*
Y323597D01*
Y319660D01*
Y315723D01*
Y311786D01*
Y307849D01*
Y303912D01*
Y299975D01*
Y296038D01*
Y292101D01*
Y288164D01*
Y284227D01*
Y280290D01*
Y276353D01*
Y272416D01*
Y268479D01*
Y264542D01*
Y260605D01*
Y256668D01*
Y252731D01*
Y248794D01*
Y244857D01*
Y243223D01*
X1169960Y242963D01*
X1169414Y243189D01*
X1168913D01*
X1157857Y254245D01*
X1157427Y254533D01*
X1156920Y254633D01*
X697342D01*
X696988Y254988D01*
X696260Y255289D01*
X695472D01*
X694744Y254988D01*
X694390Y254633D01*
X87120D01*
X86613Y254533D01*
X86183Y254245D01*
X80683Y248745D01*
X80396Y248315D01*
X80295Y247808D01*
Y240796D01*
X80040Y240585D01*
X79540Y240796D01*
Y244882D01*
Y248819D01*
Y252756D01*
Y256693D01*
Y260630D01*
Y264567D01*
Y268504D01*
Y272441D01*
Y276378D01*
Y280315D01*
Y284252D01*
Y288189D01*
Y290128D01*
X80040Y290228D01*
X80141Y289986D01*
X80698Y289428D01*
X81426Y289127D01*
X82214D01*
X82942Y289428D01*
X83500Y289986D01*
X83801Y290714D01*
Y291215D01*
X86776Y294190D01*
X87063Y294620D01*
X87164Y295127D01*
Y296501D01*
X87664Y296835D01*
X87926Y296727D01*
X88714D01*
X89442Y297028D01*
X90000Y297586D01*
X90301Y298314D01*
Y298815D01*
X98153Y306667D01*
X174541D01*
X174574Y306544D01*
X175068Y305688D01*
X175767Y304989D01*
X176622Y304495D01*
X177577Y304240D01*
X178565D01*
X179519Y304495D01*
X180375Y304989D01*
X181074Y305688D01*
X181568Y306544D01*
X181824Y307498D01*
Y308486D01*
X181568Y309441D01*
X181074Y310297D01*
X180375Y310995D01*
X179519Y311489D01*
X178565Y311745D01*
X177577D01*
X176622Y311489D01*
X175767Y310995D01*
X175068Y310297D01*
X174574Y309441D01*
X174541Y309318D01*
X97604D01*
X97097Y309217D01*
X96667Y308929D01*
X88427Y300689D01*
X87926D01*
X87664Y300581D01*
X87164Y300915D01*
Y302378D01*
X111453Y326667D01*
X174541D01*
X174574Y326544D01*
X175068Y325688D01*
X175767Y324989D01*
X176622Y324495D01*
X177577Y324239D01*
X178565D01*
X179519Y324495D01*
X180375Y324989D01*
X181074Y325688D01*
X181568Y326544D01*
X181824Y327498D01*
Y328486D01*
X181568Y329441D01*
X181074Y330296D01*
X180375Y330995D01*
X179519Y331489D01*
X178565Y331745D01*
X177577D01*
X176622Y331489D01*
X175767Y330995D01*
X175068Y330296D01*
X174574Y329441D01*
X174541Y329318D01*
X112158D01*
X111966Y329780D01*
X128853Y346667D01*
X174541D01*
X174574Y346544D01*
X175068Y345688D01*
X175767Y344989D01*
X176622Y344495D01*
X177577Y344239D01*
X178565D01*
X179519Y344495D01*
X180375Y344989D01*
X181074Y345688D01*
X181568Y346544D01*
X181824Y347498D01*
Y348486D01*
X181568Y349441D01*
X181074Y350296D01*
X180375Y350995D01*
X179519Y351489D01*
X178565Y351745D01*
X177577D01*
X176622Y351489D01*
X175767Y350995D01*
X175068Y350296D01*
X174574Y349441D01*
X174541Y349318D01*
X128304D01*
X127797Y349217D01*
X127367Y348930D01*
X80040Y301603D01*
X79540Y301809D01*
Y303937D01*
Y307874D01*
Y311811D01*
Y315748D01*
Y319685D01*
Y323622D01*
Y327559D01*
Y331496D01*
Y335433D01*
Y339370D01*
Y343307D01*
Y347244D01*
Y351181D01*
Y355118D01*
Y358962D01*
X82677D01*
Y359035D01*
X82979Y359160D01*
X83103Y359462D01*
Y366914D01*
X165235D01*
X274731Y334038D01*
X374377Y260709D01*
X374221Y260233D01*
X140796D01*
X140442Y260588D01*
X139714Y260889D01*
X138926D01*
X138198Y260588D01*
X137641Y260030D01*
X137339Y259302D01*
Y258514D01*
X137641Y257786D01*
X138198Y257228D01*
X138926Y256927D01*
X139714D01*
X140442Y257228D01*
X140796Y257583D01*
X700539D01*
X701047Y257683D01*
X701477Y257971D01*
X701549Y258043D01*
X701606Y258019D01*
X702394D01*
X703122Y258320D01*
X703237Y258435D01*
X705761D01*
X706268Y258536D01*
X706698Y258823D01*
X707638Y259764D01*
X708870D01*
X709204Y259264D01*
X709096Y259002D01*
Y258214D01*
X709398Y257486D01*
X709955Y256928D01*
X710683Y256627D01*
X711471D01*
X712199Y256928D01*
X712553Y257283D01*
X1148444D01*
X1148798Y256928D01*
X1149526Y256627D01*
X1150314D01*
X1151042Y256928D01*
X1151600Y257486D01*
X1151901Y258214D01*
Y259002D01*
X1151793Y259264D01*
X1152127Y259764D01*
X1153890D01*
X1155739Y257915D01*
Y257414D01*
X1156041Y256686D01*
X1156598Y256129D01*
X1157326Y255827D01*
X1158114D01*
X1158842Y256129D01*
X1159400Y256686D01*
X1159701Y257414D01*
Y258202D01*
X1159400Y258930D01*
X1158842Y259488D01*
X1158114Y259789D01*
X1157613D01*
X1156301Y261102D01*
X1156492Y261564D01*
X1159116D01*
X1159470Y261210D01*
X1160198Y260908D01*
X1160987D01*
X1161715Y261210D01*
X1162272Y261767D01*
X1162574Y262495D01*
Y263283D01*
X1162272Y264011D01*
X1161715Y264569D01*
X1160987Y264870D01*
X1160198D01*
X1159470Y264569D01*
X1159116Y264215D01*
X1145639D01*
X1145132Y264114D01*
X1144702Y263826D01*
X1144409Y263533D01*
X715857D01*
X714511Y264879D01*
X714719Y265379D01*
X1146017D01*
X1146524Y265480D01*
X1146954Y265768D01*
X1166757Y285571D01*
X1167045Y286001D01*
X1167146Y286508D01*
Y292803D01*
X1167500Y293157D01*
X1167801Y293885D01*
Y294673D01*
X1167500Y295401D01*
X1166942Y295958D01*
X1166214Y296260D01*
X1165714D01*
X1117328Y344645D01*
X1116898Y344933D01*
X1116391Y345034D01*
X1077651D01*
Y351745D01*
X1070145D01*
Y346041D01*
X1069683Y345850D01*
X1068365Y347168D01*
X1067935Y347455D01*
X1067651Y347512D01*
Y348486D01*
X1067395Y349441D01*
X1066901Y350296D01*
X1066202Y350995D01*
X1065346Y351489D01*
X1064392Y351745D01*
X1063404D01*
X1062449Y351489D01*
X1061594Y350995D01*
X1060895Y350296D01*
X1060401Y349441D01*
X1060145Y348486D01*
Y347498D01*
X1060401Y346544D01*
X1060895Y345688D01*
X1061056Y345527D01*
X1060865Y345065D01*
X1060194D01*
X979914Y425345D01*
X979484Y425633D01*
X978976Y425734D01*
X706467D01*
X706276Y426195D01*
X706321Y426240D01*
X706622Y426968D01*
Y427757D01*
X706321Y428485D01*
X705763Y429042D01*
X705035Y429344D01*
X704247D01*
X703519Y429042D01*
X703165Y428688D01*
X700492D01*
X700301Y429150D01*
X701325Y430174D01*
X711024D01*
X711378Y429820D01*
X712106Y429519D01*
X712894D01*
X713622Y429820D01*
X714180Y430378D01*
X714481Y431106D01*
Y431607D01*
X723437Y440563D01*
X723725Y440993D01*
X723826Y441500D01*
Y522024D01*
X724180Y522378D01*
X724481Y523106D01*
Y523894D01*
X724180Y524622D01*
X723622Y525179D01*
X722894Y525481D01*
X722106D01*
X721378Y525179D01*
X720821Y524622D01*
X720519Y523894D01*
Y523106D01*
X720821Y522378D01*
X721174Y522024D01*
Y442049D01*
X712607Y433481D01*
X712106D01*
X711378Y433180D01*
X711024Y432826D01*
X700776D01*
X700269Y432725D01*
X699839Y432437D01*
X698344Y430942D01*
X421932D01*
X346982Y505892D01*
Y518885D01*
X349016D01*
Y529934D01*
X346068D01*
Y532758D01*
X345967Y533265D01*
X345680Y533695D01*
X332022Y547352D01*
X331592Y547640D01*
X331085Y547740D01*
X272727D01*
X272220Y547640D01*
X271790Y547352D01*
X215827Y491389D01*
X215326D01*
X214598Y491087D01*
X214041Y490530D01*
X213739Y489802D01*
Y489014D01*
X214041Y488286D01*
X214598Y487729D01*
X215326Y487427D01*
X216114D01*
X216842Y487729D01*
X217400Y488286D01*
X217701Y489014D01*
Y489515D01*
X273276Y545089D01*
X330536D01*
X343417Y532208D01*
Y529934D01*
X342298D01*
Y518885D01*
X344331D01*
Y505343D01*
X344432Y504836D01*
X344720Y504406D01*
X419976Y429150D01*
X419784Y428688D01*
X407003D01*
X331841Y503850D01*
Y503894D01*
X331540Y504622D01*
X331234Y504927D01*
Y518885D01*
X333268D01*
Y529934D01*
X326550D01*
Y518885D01*
X328583D01*
Y505025D01*
X328181Y504622D01*
X327879Y503894D01*
Y503106D01*
X328181Y502378D01*
X328738Y501821D01*
X329466Y501519D01*
X330254D01*
X330374Y501569D01*
X352535Y479408D01*
X352255Y478993D01*
X325409Y490404D01*
Y529134D01*
X325394Y529212D01*
Y529934D01*
X324673D01*
X324594Y529950D01*
X303666D01*
X303587Y529934D01*
X302928D01*
Y529473D01*
X302919Y529460D01*
X302917Y529453D01*
X302913Y529446D01*
X302883Y529297D01*
X302851Y529149D01*
X302666Y519488D01*
X302355D01*
X301604Y519287D01*
X300930Y518898D01*
X300380Y518349D01*
X299992Y517675D01*
X299791Y516924D01*
Y516147D01*
X299992Y515396D01*
X300380Y514722D01*
X300930Y514173D01*
X301604Y513784D01*
X302355Y513583D01*
X302624D01*
Y487034D01*
X127830Y410671D01*
X64567D01*
X64488Y410655D01*
X63767D01*
Y409934D01*
X63751Y409855D01*
Y367729D01*
X63400Y367368D01*
X59481D01*
Y443504D01*
X59356Y443805D01*
X59055Y443930D01*
X426D01*
Y619579D01*
X491109D01*
Y561011D01*
X491234Y560710D01*
X491536Y560585D01*
Y560511D01*
X567684D01*
Y537389D01*
X567809Y537088D01*
X568110Y536963D01*
Y536889D01*
X575590D01*
Y536963D01*
X575892Y537088D01*
X576017Y537389D01*
Y540526D01*
X725603D01*
Y556300D01*
X576017D01*
Y560511D01*
X758465D01*
Y560585D01*
X758766Y560710D01*
X758891Y561011D01*
Y619579D01*
X1249574D01*
Y443930D01*
D02*
G37*
G36*
X611554Y425575D02*
X611509Y425530D01*
X611208Y424802D01*
Y424014D01*
X611509Y423286D01*
X612067Y422728D01*
X612795Y422427D01*
X613583D01*
X614311Y422728D01*
X614665Y423083D01*
X978427D01*
X1058708Y342802D01*
X1059138Y342515D01*
X1059645Y342414D01*
X1065071D01*
X1068114Y339371D01*
X1068544Y339084D01*
X1069051Y338983D01*
X1069867D01*
X1070172Y338586D01*
X1070145Y338486D01*
Y337498D01*
X1070401Y336544D01*
X1070895Y335688D01*
X1071593Y334989D01*
X1072449Y334495D01*
X1073404Y334240D01*
X1074392D01*
X1075346Y334495D01*
X1076202Y334989D01*
X1076901Y335688D01*
X1077395Y336544D01*
X1077651Y337498D01*
Y338486D01*
X1077395Y339441D01*
X1076901Y340297D01*
X1076202Y340995D01*
X1075346Y341489D01*
X1074392Y341745D01*
X1073404D01*
X1072449Y341489D01*
X1072291Y341398D01*
X1072089Y341533D01*
X1071582Y341634D01*
X1069601D01*
X1069167Y342068D01*
X1069426Y342457D01*
X1069461Y342480D01*
X1069950Y342383D01*
X1069951Y342383D01*
X1115842D01*
X1163839Y294386D01*
Y293885D01*
X1164141Y293157D01*
X1164320Y292977D01*
X1164288Y292567D01*
X1163827Y292276D01*
X1163714Y292323D01*
X1163214D01*
X1131591Y323945D01*
X1131161Y324233D01*
X1130654Y324334D01*
X1076066D01*
X1075932Y324833D01*
X1076202Y324989D01*
X1076901Y325688D01*
X1077395Y326544D01*
X1077651Y327498D01*
Y328486D01*
X1077395Y329441D01*
X1076901Y330296D01*
X1076202Y330995D01*
X1075346Y331489D01*
X1074392Y331745D01*
X1073404D01*
X1072449Y331489D01*
X1072339Y331426D01*
X1070519Y333245D01*
X1070089Y333533D01*
X1069582Y333633D01*
X1061869D01*
X979057Y416445D01*
X978627Y416733D01*
X978120Y416833D01*
X618602D01*
X618248Y417188D01*
X617520Y417489D01*
X616732D01*
X616004Y417188D01*
X615446Y416630D01*
X615145Y415902D01*
Y415114D01*
X615446Y414386D01*
X616004Y413829D01*
X616732Y413527D01*
X617520D01*
X618248Y413829D01*
X618602Y414183D01*
X977571D01*
X1060383Y331371D01*
X1060813Y331083D01*
X1060948Y331057D01*
X1061112Y330514D01*
X1060895Y330296D01*
X1060401Y329441D01*
X1060145Y328486D01*
Y327498D01*
X1060401Y326544D01*
X1060895Y325688D01*
X1061594Y324989D01*
X1062449Y324495D01*
X1063404Y324239D01*
X1064392D01*
X1065346Y324495D01*
X1065457Y324559D01*
X1065935Y324081D01*
X1065688Y323620D01*
X1065620Y323634D01*
X1061869D01*
X1009357Y376145D01*
X1008927Y376433D01*
X1008420Y376534D01*
X785469D01*
X754457Y407545D01*
X754027Y407833D01*
X753520Y407934D01*
X622539D01*
X622185Y408287D01*
X621457Y408589D01*
X620669D01*
X619941Y408287D01*
X619383Y407730D01*
X619082Y407002D01*
Y406214D01*
X619383Y405486D01*
X619941Y404928D01*
X620669Y404627D01*
X621457D01*
X622185Y404928D01*
X622539Y405283D01*
X752971D01*
X783983Y374271D01*
X784413Y373983D01*
X784920Y373883D01*
X1007871D01*
X1060383Y321371D01*
X1060813Y321083D01*
X1061320Y320983D01*
X1065071D01*
X1068999Y317055D01*
X1069429Y316768D01*
X1069936Y316667D01*
X1070368D01*
X1070401Y316544D01*
X1070895Y315688D01*
X1071593Y314989D01*
X1072449Y314495D01*
X1073404Y314240D01*
X1074392D01*
X1075346Y314495D01*
X1076202Y314989D01*
X1076901Y315688D01*
X1077395Y316544D01*
X1077651Y317498D01*
Y318486D01*
X1077395Y319441D01*
X1076901Y320297D01*
X1076202Y320995D01*
X1075877Y321183D01*
X1076011Y321683D01*
X1130105D01*
X1161339Y290449D01*
Y289948D01*
X1161641Y289220D01*
X1162198Y288663D01*
X1162926Y288361D01*
X1163714D01*
X1163995Y288477D01*
X1164495Y288143D01*
Y287057D01*
X1145468Y268030D01*
X644700D01*
X642928Y269803D01*
X642963Y270028D01*
X643090Y270118D01*
X643506Y270267D01*
X644106Y270019D01*
X644894D01*
X645622Y270321D01*
X645884Y270583D01*
X1081820D01*
X1082327Y270684D01*
X1082757Y270971D01*
X1100148Y288361D01*
X1100648D01*
X1101376Y288663D01*
X1101934Y289220D01*
X1102235Y289948D01*
Y290736D01*
X1101934Y291464D01*
X1101376Y292021D01*
X1100648Y292323D01*
X1099860D01*
X1099132Y292021D01*
X1098575Y291464D01*
X1098273Y290736D01*
Y290235D01*
X1081271Y273234D01*
X1080173D01*
X1079982Y273695D01*
X1080957Y274671D01*
X1081245Y275101D01*
X1081346Y275608D01*
Y291870D01*
X1081245Y292377D01*
X1080957Y292807D01*
X1077331Y296433D01*
X1077395Y296544D01*
X1077651Y297498D01*
Y298486D01*
X1077395Y299441D01*
X1076901Y300296D01*
X1076202Y300995D01*
X1075346Y301489D01*
X1074392Y301745D01*
X1073404D01*
X1072449Y301489D01*
X1071593Y300995D01*
X1070895Y300296D01*
X1070401Y299441D01*
X1070145Y298486D01*
Y297498D01*
X1070401Y296544D01*
X1070895Y295688D01*
X1071593Y294989D01*
X1072210Y294634D01*
X1072076Y294133D01*
X1065720D01*
X1065586Y294634D01*
X1066202Y294989D01*
X1066901Y295688D01*
X1067395Y296544D01*
X1067651Y297498D01*
Y298486D01*
X1067395Y299441D01*
X1066901Y300296D01*
X1066202Y300995D01*
X1065346Y301489D01*
X1064392Y301745D01*
X1063404D01*
X1062449Y301489D01*
X1062339Y301426D01*
X1062019Y301745D01*
X1061814Y301883D01*
X1061965Y302383D01*
X1069613D01*
X1070121Y302484D01*
X1070551Y302771D01*
X1072339Y304559D01*
X1072449Y304495D01*
X1073404Y304240D01*
X1074392D01*
X1075346Y304495D01*
X1076202Y304989D01*
X1076901Y305688D01*
X1077395Y306544D01*
X1077651Y307498D01*
Y308486D01*
X1077395Y309441D01*
X1076901Y310297D01*
X1076676Y310521D01*
X1076868Y310983D01*
X1124568D01*
X1149039Y286512D01*
Y286011D01*
X1149341Y285283D01*
X1149898Y284725D01*
X1150626Y284424D01*
X1151414D01*
X1152142Y284725D01*
X1152700Y285283D01*
X1153001Y286011D01*
Y286799D01*
X1152700Y287527D01*
X1152142Y288085D01*
X1151414Y288386D01*
X1150914D01*
X1126054Y313245D01*
X1125624Y313533D01*
X1125117Y313633D01*
X1068213D01*
X1067706Y313533D01*
X1067276Y313245D01*
X1065457Y311426D01*
X1065346Y311489D01*
X1064392Y311745D01*
X1063404D01*
X1062449Y311489D01*
X1062339Y311426D01*
X1002719Y371045D01*
X1002289Y371333D01*
X1001782Y371433D01*
X826659D01*
X826152Y371333D01*
X825722Y371045D01*
X824837Y370161D01*
X651371D01*
X651017Y370515D01*
X650289Y370816D01*
X649501D01*
X648773Y370515D01*
X648215Y369957D01*
X647914Y369229D01*
Y368441D01*
X648215Y367713D01*
X648773Y367156D01*
X649309Y366933D01*
X649210Y366434D01*
X626476D01*
X626122Y366788D01*
X625394Y367089D01*
X624606D01*
X623878Y366788D01*
X623320Y366230D01*
X623019Y365502D01*
Y364714D01*
X623320Y363986D01*
X623878Y363428D01*
X624606Y363127D01*
X625394D01*
X626122Y363428D01*
X626476Y363783D01*
X995871D01*
X1056883Y302771D01*
X1057088Y302634D01*
X1056937Y302133D01*
X654035D01*
X653681Y302487D01*
X652953Y302789D01*
X652165D01*
X651437Y302487D01*
X650880Y301930D01*
X650578Y301202D01*
Y300414D01*
X650880Y299686D01*
X651437Y299129D01*
X652165Y298827D01*
X652953D01*
X653681Y299129D01*
X654035Y299483D01*
X1059894D01*
X1060278Y298983D01*
X1060145Y298486D01*
Y297498D01*
X1060401Y296544D01*
X1060895Y295688D01*
X1061594Y294989D01*
X1062210Y294634D01*
X1062076Y294133D01*
X633320D01*
X632813Y294033D01*
X632383Y293745D01*
X628083Y289445D01*
X627796Y289015D01*
X627695Y288508D01*
Y272508D01*
X627796Y272001D01*
X628083Y271571D01*
X634830Y264824D01*
Y264323D01*
X635131Y263595D01*
X635689Y263038D01*
X636417Y262736D01*
X637205D01*
X637933Y263038D01*
X638490Y263595D01*
X638792Y264323D01*
Y265111D01*
X638490Y265839D01*
X637933Y266397D01*
X637205Y266698D01*
X636704D01*
X630598Y272804D01*
X630882Y273228D01*
X631126Y273127D01*
X631914D01*
X632642Y273429D01*
X633200Y273986D01*
X633501Y274714D01*
Y275215D01*
X634500Y276214D01*
X1042440D01*
X1044958Y273695D01*
X1044767Y273234D01*
X646068D01*
X645622Y273679D01*
X644894Y273981D01*
X644106D01*
X643378Y273679D01*
X642821Y273122D01*
X642519Y272394D01*
Y271846D01*
X642019Y271639D01*
X641870Y271788D01*
X641142Y272089D01*
X640354D01*
X639626Y271788D01*
X639069Y271230D01*
X638767Y270502D01*
Y269714D01*
X639069Y268986D01*
X639626Y268428D01*
X640354Y268127D01*
X640855D01*
X643214Y265768D01*
X643644Y265480D01*
X644151Y265379D01*
X688309D01*
X688516Y264879D01*
X688099Y264462D01*
X687598D01*
X686870Y264161D01*
X686313Y263603D01*
X686011Y262875D01*
Y262087D01*
X686313Y261359D01*
X686870Y260802D01*
X687034Y260734D01*
X686935Y260233D01*
X468210D01*
X468192Y260241D01*
X468053Y260354D01*
X467822Y260715D01*
X467820Y260722D01*
X467821Y260731D01*
X467786Y260878D01*
X467754Y261026D01*
X467749Y261032D01*
X467747Y261040D01*
X467658Y261163D01*
X467572Y261287D01*
X467565Y261291D01*
X467560Y261298D01*
X448816Y278647D01*
Y417684D01*
X496000D01*
X496312Y417746D01*
X496577Y417923D01*
X496754Y418188D01*
X496816Y418500D01*
Y426037D01*
X611363D01*
X611554Y425575D01*
D02*
G37*
G36*
X1061577Y291090D02*
X1061581Y290983D01*
X1060895Y290297D01*
X1060401Y289441D01*
X1060145Y288486D01*
Y287993D01*
X657972D01*
X657618Y288347D01*
X656890Y288649D01*
X656102D01*
X655374Y288347D01*
X654817Y287790D01*
X654515Y287062D01*
Y286274D01*
X654529Y286241D01*
X654251Y285825D01*
X636476D01*
X636122Y286179D01*
X635394Y286481D01*
X634606D01*
X633878Y286179D01*
X633321Y285622D01*
X633019Y284894D01*
Y284106D01*
X633321Y283378D01*
X633878Y282821D01*
X634606Y282519D01*
X635394D01*
X636122Y282821D01*
X636476Y283174D01*
X654606D01*
X654978Y282802D01*
X655408Y282515D01*
X655916Y282414D01*
X1069645D01*
X1070152Y282515D01*
X1070582Y282802D01*
X1072339Y284559D01*
X1072449Y284495D01*
X1073404Y284240D01*
X1074392D01*
X1075346Y284495D01*
X1076202Y284989D01*
X1076433Y285220D01*
X1076895Y285029D01*
Y282864D01*
X1075457Y281426D01*
X1075346Y281489D01*
X1074392Y281745D01*
X1073404D01*
X1072449Y281489D01*
X1071593Y280995D01*
X1070895Y280296D01*
X1070401Y279441D01*
X1070145Y278486D01*
Y277498D01*
X1070401Y276544D01*
X1070895Y275688D01*
X1071087Y275495D01*
X1070896Y275033D01*
X1047369D01*
X1043926Y278476D01*
X1043496Y278764D01*
X1042989Y278865D01*
X633951D01*
X633444Y278764D01*
X633014Y278476D01*
X631627Y277089D01*
X631126D01*
X630846Y276973D01*
X630346Y277307D01*
Y287959D01*
X633869Y291483D01*
X1061472D01*
X1061577Y291090D01*
D02*
G37*
G36*
X324594Y489864D02*
X355004Y476939D01*
X405517Y426425D01*
X405947Y426138D01*
X406454Y426037D01*
X496000D01*
Y418500D01*
X448000D01*
Y278291D01*
X467006Y260699D01*
X466824Y260233D01*
X376399D01*
X275101Y334778D01*
X165354Y367729D01*
X64567D01*
Y409855D01*
X128000D01*
X303439Y486500D01*
Y513665D01*
X303883Y513784D01*
X304556Y514173D01*
X305106Y514722D01*
X305495Y515396D01*
X305696Y516147D01*
Y516924D01*
X305495Y517675D01*
X305106Y518349D01*
X304556Y518898D01*
X303883Y519287D01*
X303481Y519395D01*
X303666Y529134D01*
X324594D01*
Y489864D01*
D02*
G37*
G36*
X567323Y167848D02*
X567323Y64567D01*
X525197D01*
Y150734D01*
X478894Y184808D01*
X479050Y185283D01*
X548487D01*
X567323Y167848D01*
D02*
G37*
%LPC*%
G36*
X1059753Y613021D02*
X1058357D01*
X1058278Y613005D01*
X1058198D01*
X1056829Y612733D01*
X1056755Y612702D01*
X1056676Y612686D01*
X1055386Y612152D01*
X1055319Y612107D01*
X1055245Y612077D01*
X1054084Y611301D01*
X1054028Y611244D01*
X1053961Y611200D01*
X1052974Y610213D01*
X1052929Y610146D01*
X1052872Y610089D01*
X1052097Y608928D01*
X1052066Y608854D01*
X1052022Y608787D01*
X1051487Y607498D01*
X1051472Y607419D01*
X1051441Y607344D01*
X1051169Y605975D01*
Y605895D01*
X1051153Y605816D01*
Y604420D01*
X1051169Y604342D01*
Y604261D01*
X1051441Y602892D01*
X1051472Y602818D01*
X1051487Y602739D01*
X1052022Y601449D01*
X1052066Y601382D01*
X1052097Y601308D01*
X1052872Y600148D01*
X1052929Y600091D01*
X1052974Y600024D01*
X1053961Y599037D01*
X1054028Y598992D01*
X1054084Y598936D01*
X1055245Y598160D01*
X1055319Y598129D01*
X1055386Y598085D01*
X1056676Y597550D01*
X1056755Y597535D01*
X1056829Y597504D01*
X1058198Y597232D01*
X1058278D01*
X1058357Y597216D01*
X1059753D01*
X1059832Y597232D01*
X1059912D01*
X1061281Y597504D01*
X1061356Y597535D01*
X1061434Y597550D01*
X1062724Y598085D01*
X1062791Y598129D01*
X1062865Y598160D01*
X1064026Y598936D01*
X1064083Y598992D01*
X1064149Y599037D01*
X1065137Y600024D01*
X1065181Y600091D01*
X1065238Y600148D01*
X1066013Y601308D01*
X1066044Y601382D01*
X1066089Y601449D01*
X1066623Y602739D01*
X1066639Y602818D01*
X1066669Y602892D01*
X1066942Y604261D01*
Y604342D01*
X1066957Y604420D01*
Y605816D01*
X1066942Y605895D01*
Y605975D01*
X1066669Y607344D01*
X1066639Y607419D01*
X1066623Y607498D01*
X1066089Y608787D01*
X1066044Y608854D01*
X1066013Y608928D01*
X1065238Y610089D01*
X1065181Y610146D01*
X1065137Y610213D01*
X1064149Y611200D01*
X1064083Y611244D01*
X1064026Y611301D01*
X1062865Y612077D01*
X1062791Y612107D01*
X1062724Y612152D01*
X1061434Y612686D01*
X1061356Y612702D01*
X1061281Y612733D01*
X1059912Y613005D01*
X1059832D01*
X1059753Y613021D01*
D02*
G37*
G36*
X191643D02*
X190247D01*
X190168Y613005D01*
X190088D01*
X188719Y612733D01*
X188645Y612702D01*
X188566Y612686D01*
X187276Y612152D01*
X187209Y612107D01*
X187135Y612077D01*
X185974Y611301D01*
X185917Y611244D01*
X185851Y611200D01*
X184864Y610213D01*
X184819Y610146D01*
X184762Y610089D01*
X183987Y608928D01*
X183956Y608854D01*
X183911Y608787D01*
X183377Y607498D01*
X183361Y607419D01*
X183331Y607344D01*
X183058Y605975D01*
Y605895D01*
X183043Y605816D01*
Y604420D01*
X183058Y604342D01*
Y604261D01*
X183331Y602892D01*
X183361Y602818D01*
X183377Y602739D01*
X183911Y601449D01*
X183956Y601382D01*
X183987Y601308D01*
X184762Y600148D01*
X184819Y600091D01*
X184864Y600024D01*
X185851Y599037D01*
X185917Y598992D01*
X185974Y598936D01*
X187135Y598160D01*
X187209Y598129D01*
X187276Y598085D01*
X188566Y597550D01*
X188645Y597535D01*
X188719Y597504D01*
X190088Y597232D01*
X190168D01*
X190247Y597216D01*
X191643D01*
X191722Y597232D01*
X191802D01*
X193171Y597504D01*
X193245Y597535D01*
X193324Y597550D01*
X194614Y598085D01*
X194681Y598129D01*
X194755Y598160D01*
X195915Y598936D01*
X195972Y598992D01*
X196039Y599037D01*
X197026Y600024D01*
X197071Y600091D01*
X197128Y600148D01*
X197903Y601308D01*
X197934Y601382D01*
X197979Y601449D01*
X198513Y602739D01*
X198528Y602818D01*
X198559Y602892D01*
X198831Y604261D01*
Y604342D01*
X198847Y604420D01*
Y605816D01*
X198831Y605895D01*
Y605975D01*
X198559Y607344D01*
X198528Y607419D01*
X198513Y607498D01*
X197979Y608787D01*
X197934Y608854D01*
X197903Y608928D01*
X197128Y610089D01*
X197071Y610146D01*
X197026Y610213D01*
X196039Y611200D01*
X195972Y611244D01*
X195915Y611301D01*
X194755Y612077D01*
X194681Y612107D01*
X194614Y612152D01*
X193324Y612686D01*
X193245Y612702D01*
X193171Y612733D01*
X191802Y613005D01*
X191722D01*
X191643Y613021D01*
D02*
G37*
G36*
X1225107Y602391D02*
X1223711D01*
X1223633Y602375D01*
X1223552D01*
X1222183Y602103D01*
X1222109Y602072D01*
X1222030Y602056D01*
X1220741Y601522D01*
X1220674Y601477D01*
X1220600Y601447D01*
X1219439Y600671D01*
X1219382Y600614D01*
X1219315Y600570D01*
X1218328Y599583D01*
X1218283Y599516D01*
X1218227Y599459D01*
X1217451Y598298D01*
X1217420Y598224D01*
X1217376Y598157D01*
X1216842Y596868D01*
X1216826Y596789D01*
X1216795Y596715D01*
X1216523Y595345D01*
Y595265D01*
X1216507Y595186D01*
Y593790D01*
X1216523Y593712D01*
Y593631D01*
X1216795Y592262D01*
X1216826Y592188D01*
X1216842Y592109D01*
X1217376Y590819D01*
X1217420Y590753D01*
X1217451Y590678D01*
X1218227Y589518D01*
X1218284Y589461D01*
X1218328Y589394D01*
X1219315Y588407D01*
X1219382Y588362D01*
X1219439Y588306D01*
X1220600Y587530D01*
X1220674Y587499D01*
X1220741Y587455D01*
X1222030Y586920D01*
X1222109Y586905D01*
X1222183Y586874D01*
X1223552Y586602D01*
X1223633D01*
X1223711Y586586D01*
X1225107D01*
X1225186Y586602D01*
X1225267D01*
X1226636Y586874D01*
X1226710Y586905D01*
X1226789Y586920D01*
X1228078Y587455D01*
X1228145Y587499D01*
X1228219Y587530D01*
X1229380Y588306D01*
X1229437Y588362D01*
X1229504Y588407D01*
X1230491Y589394D01*
X1230535Y589461D01*
X1230592Y589518D01*
X1231368Y590678D01*
X1231398Y590753D01*
X1231443Y590819D01*
X1231977Y592109D01*
X1231993Y592188D01*
X1232024Y592262D01*
X1232296Y593631D01*
Y593712D01*
X1232312Y593790D01*
Y595186D01*
X1232296Y595265D01*
Y595345D01*
X1232024Y596715D01*
X1231993Y596789D01*
X1231977Y596868D01*
X1231443Y598157D01*
X1231398Y598224D01*
X1231368Y598298D01*
X1230592Y599459D01*
X1230535Y599516D01*
X1230491Y599583D01*
X1229504Y600570D01*
X1229437Y600614D01*
X1229380Y600671D01*
X1228219Y601447D01*
X1228145Y601477D01*
X1228078Y601522D01*
X1226789Y602056D01*
X1226710Y602072D01*
X1226636Y602103D01*
X1225267Y602375D01*
X1225186D01*
X1225107Y602391D01*
D02*
G37*
G36*
X26289D02*
X24893D01*
X24814Y602375D01*
X24734D01*
X23364Y602103D01*
X23290Y602072D01*
X23211Y602056D01*
X21922Y601522D01*
X21855Y601477D01*
X21781Y601447D01*
X20620Y600671D01*
X20563Y600614D01*
X20496Y600570D01*
X19509Y599583D01*
X19465Y599516D01*
X19408Y599459D01*
X18632Y598298D01*
X18602Y598224D01*
X18557Y598157D01*
X18023Y596868D01*
X18007Y596789D01*
X17976Y596715D01*
X17704Y595345D01*
Y595265D01*
X17688Y595186D01*
Y593790D01*
X17704Y593712D01*
Y593631D01*
X17976Y592262D01*
X18007Y592188D01*
X18023Y592109D01*
X18557Y590819D01*
X18602Y590753D01*
X18632Y590678D01*
X19408Y589518D01*
X19465Y589461D01*
X19509Y589394D01*
X20496Y588407D01*
X20563Y588362D01*
X20620Y588306D01*
X21781Y587530D01*
X21855Y587499D01*
X21922Y587455D01*
X23211Y586920D01*
X23290Y586905D01*
X23364Y586874D01*
X24734Y586602D01*
X24814D01*
X24893Y586586D01*
X26289D01*
X26367Y586602D01*
X26448D01*
X27817Y586874D01*
X27891Y586905D01*
X27970Y586920D01*
X29259Y587455D01*
X29326Y587499D01*
X29401Y587530D01*
X30561Y588306D01*
X30618Y588362D01*
X30685Y588407D01*
X31672Y589394D01*
X31717Y589461D01*
X31773Y589518D01*
X32549Y590678D01*
X32580Y590753D01*
X32624Y590819D01*
X33158Y592109D01*
X33174Y592188D01*
X33205Y592262D01*
X33477Y593631D01*
Y593712D01*
X33493Y593790D01*
Y595186D01*
X33477Y595265D01*
Y595345D01*
X33205Y596715D01*
X33174Y596789D01*
X33158Y596868D01*
X32624Y598157D01*
X32580Y598224D01*
X32549Y598298D01*
X31773Y599459D01*
X31716Y599516D01*
X31672Y599583D01*
X30685Y600570D01*
X30618Y600614D01*
X30561Y600671D01*
X29401Y601447D01*
X29326Y601477D01*
X29259Y601522D01*
X27970Y602056D01*
X27891Y602072D01*
X27817Y602103D01*
X26448Y602375D01*
X26367D01*
X26289Y602391D01*
D02*
G37*
G36*
X743048Y556681D02*
X741597D01*
X740195Y556305D01*
X738938Y555579D01*
X737912Y554553D01*
X737186Y553296D01*
X736811Y551895D01*
Y550443D01*
X737186Y549041D01*
X737912Y547785D01*
X738938Y546758D01*
X740195Y546033D01*
X741597Y545657D01*
X743048D01*
X744450Y546033D01*
X745707Y546758D01*
X746733Y547785D01*
X747459Y549041D01*
X747834Y550443D01*
Y551895D01*
X747459Y553296D01*
X746733Y554553D01*
X745707Y555579D01*
X744450Y556305D01*
X743048Y556681D01*
D02*
G37*
G36*
X508403D02*
X506952D01*
X505550Y556305D01*
X504293Y555579D01*
X503267Y554553D01*
X502541Y553296D01*
X502165Y551895D01*
Y550443D01*
X502541Y549041D01*
X503267Y547785D01*
X504293Y546758D01*
X505550Y546033D01*
X506952Y545657D01*
X508403D01*
X509805Y546033D01*
X511061Y546758D01*
X512088Y547785D01*
X512813Y549041D01*
X513189Y550443D01*
Y551895D01*
X512813Y553296D01*
X512088Y554553D01*
X511061Y555579D01*
X509805Y556305D01*
X508403Y556681D01*
D02*
G37*
G36*
X698394Y538481D02*
X697606D01*
X696878Y538179D01*
X696320Y537622D01*
X696019Y536894D01*
Y536106D01*
X696320Y535378D01*
X696674Y535024D01*
Y531780D01*
X696213Y531589D01*
X696122Y531679D01*
X695394Y531981D01*
X694606D01*
X693878Y531679D01*
X693321Y531122D01*
X693019Y530394D01*
Y529606D01*
X693321Y528878D01*
X693675Y528524D01*
Y483550D01*
X682063Y471939D01*
X681775Y471509D01*
X681674Y471001D01*
Y442976D01*
X681320Y442622D01*
X681019Y441894D01*
Y441106D01*
X681320Y440378D01*
X681878Y439820D01*
X682606Y439519D01*
X683394D01*
X684122Y439820D01*
X684680Y440378D01*
X684981Y441106D01*
Y441894D01*
X684680Y442622D01*
X684326Y442976D01*
Y470452D01*
X695937Y482064D01*
X696174Y482419D01*
X696494Y482399D01*
X696674Y482336D01*
Y451549D01*
X692607Y447481D01*
X692106D01*
X691378Y447180D01*
X690821Y446622D01*
X690519Y445894D01*
Y445106D01*
X690821Y444378D01*
X691378Y443820D01*
X692106Y443519D01*
X692894D01*
X693622Y443820D01*
X694179Y444378D01*
X694481Y445106D01*
Y445607D01*
X698937Y450063D01*
X699225Y450493D01*
X699326Y451000D01*
Y535024D01*
X699680Y535378D01*
X699981Y536106D01*
Y536894D01*
X699680Y537622D01*
X699122Y538179D01*
X698394Y538481D01*
D02*
G37*
G36*
X639394Y530481D02*
X638606D01*
X637878Y530180D01*
X637321Y529622D01*
X637019Y528894D01*
Y528106D01*
X637321Y527378D01*
X637675Y527024D01*
Y526234D01*
X637203Y526128D01*
X637175Y526127D01*
X636622Y526680D01*
X635894Y526981D01*
X635106D01*
X634378Y526680D01*
X633820Y526122D01*
X633519Y525394D01*
Y524606D01*
X633820Y523878D01*
X634174Y523524D01*
Y442369D01*
X634275Y441861D01*
X634545Y441458D01*
X634519Y441394D01*
Y440606D01*
X634821Y439878D01*
X635378Y439321D01*
X636106Y439019D01*
X636894D01*
X637175Y439135D01*
X637675Y438801D01*
Y438500D01*
X637775Y437993D01*
X638063Y437563D01*
X639254Y436372D01*
Y435971D01*
X639555Y435243D01*
X640113Y434685D01*
X640841Y434384D01*
X641629D01*
X642357Y434685D01*
X642914Y435243D01*
X643216Y435971D01*
Y436759D01*
X642914Y437487D01*
X642357Y438044D01*
X641629Y438346D01*
X641029D01*
X640325Y439049D01*
Y527024D01*
X640680Y527378D01*
X640981Y528106D01*
Y528894D01*
X640680Y529622D01*
X640122Y530180D01*
X639394Y530481D01*
D02*
G37*
G36*
X330091Y539825D02*
X270521D01*
X270014Y539725D01*
X269584Y539437D01*
X234063Y503916D01*
X233775Y503486D01*
X233675Y502979D01*
Y464476D01*
X233320Y464122D01*
X233019Y463394D01*
Y462606D01*
X233320Y461878D01*
X233878Y461320D01*
X234606Y461019D01*
X235394D01*
X236122Y461320D01*
X236680Y461878D01*
X236981Y462606D01*
Y463394D01*
X236680Y464122D01*
X236326Y464476D01*
Y502430D01*
X271070Y537175D01*
X329542D01*
X334345Y532371D01*
X334346Y532371D01*
X336282Y530434D01*
X336075Y529934D01*
X334424D01*
Y518885D01*
X341142D01*
Y529934D01*
X339108D01*
Y530808D01*
X339007Y531315D01*
X338720Y531745D01*
X336220Y534245D01*
X336220Y534245D01*
X331028Y539437D01*
X330598Y539725D01*
X330091Y539825D01*
D02*
G37*
G36*
X373211Y519488D02*
X372433D01*
X371682Y519287D01*
X371009Y518898D01*
X370459Y518349D01*
X370071Y517675D01*
X369869Y516924D01*
Y516147D01*
X370071Y515396D01*
X370459Y514722D01*
X371009Y514173D01*
X371682Y513784D01*
X372433Y513583D01*
X373211D01*
X373962Y513784D01*
X374635Y514173D01*
X375185Y514722D01*
X375574Y515396D01*
X375775Y516147D01*
Y516924D01*
X375574Y517675D01*
X375185Y518349D01*
X374635Y518898D01*
X373962Y519287D01*
X373211Y519488D01*
D02*
G37*
G36*
X659394Y522981D02*
X658606D01*
X657878Y522680D01*
X657320Y522122D01*
X657019Y521394D01*
Y520606D01*
X657320Y519878D01*
X657675Y519524D01*
Y449049D01*
X656977Y448351D01*
X656830Y448132D01*
X656320Y447622D01*
X656019Y446894D01*
Y446106D01*
X656320Y445378D01*
X656878Y444820D01*
X657606Y444519D01*
X658394D01*
X659122Y444820D01*
X659680Y445378D01*
X659981Y446106D01*
Y446894D01*
X659772Y447398D01*
X659937Y447563D01*
X660225Y447993D01*
X660325Y448500D01*
Y519524D01*
X660679Y519878D01*
X660981Y520606D01*
Y521394D01*
X660679Y522122D01*
X660122Y522680D01*
X659394Y522981D01*
D02*
G37*
G36*
X603394Y524481D02*
X602606D01*
X601878Y524180D01*
X601321Y523622D01*
X601019Y522894D01*
Y522106D01*
X601321Y521378D01*
X601675Y521024D01*
Y445549D01*
X600000Y443874D01*
X599860Y443932D01*
X599072D01*
X598344Y443630D01*
X597787Y443073D01*
X597485Y442345D01*
Y441557D01*
X597787Y440829D01*
X598344Y440271D01*
X599072Y439970D01*
X599860D01*
X600589Y440271D01*
X601146Y440829D01*
X601447Y441557D01*
Y441573D01*
X603937Y444063D01*
X604225Y444493D01*
X604325Y445000D01*
Y521024D01*
X604679Y521378D01*
X604981Y522106D01*
Y522894D01*
X604679Y523622D01*
X604122Y524180D01*
X603394Y524481D01*
D02*
G37*
G36*
X689894Y525981D02*
X689106D01*
X688378Y525679D01*
X687820Y525122D01*
X687519Y524394D01*
Y523893D01*
X673063Y509437D01*
X672775Y509007D01*
X672675Y508500D01*
Y446976D01*
X672321Y446622D01*
X672019Y445894D01*
Y445106D01*
X672321Y444378D01*
X672878Y443820D01*
X673606Y443519D01*
X674394D01*
X675122Y443820D01*
X675679Y444378D01*
X675981Y445106D01*
Y445894D01*
X675679Y446622D01*
X675325Y446976D01*
Y507951D01*
X689393Y522019D01*
X689894D01*
X690622Y522321D01*
X691180Y522878D01*
X691481Y523606D01*
Y524394D01*
X691180Y525122D01*
X690622Y525679D01*
X689894Y525981D01*
D02*
G37*
G36*
X716660Y528427D02*
X715871D01*
X715143Y528126D01*
X714586Y527568D01*
X714285Y526840D01*
Y526052D01*
X714586Y525324D01*
X714940Y524970D01*
Y448315D01*
X711607Y444981D01*
X711106D01*
X710378Y444679D01*
X709821Y444122D01*
X709519Y443394D01*
Y442606D01*
X709821Y441878D01*
X710378Y441321D01*
X711106Y441019D01*
X711894D01*
X712622Y441321D01*
X713179Y441878D01*
X713481Y442606D01*
Y443107D01*
X717203Y446828D01*
X717490Y447258D01*
X717591Y447766D01*
Y524970D01*
X717945Y525324D01*
X718247Y526052D01*
Y526840D01*
X717945Y527568D01*
X717388Y528126D01*
X716660Y528427D01*
D02*
G37*
G36*
X625197Y534449D02*
X624409D01*
X623681Y534148D01*
X623124Y533590D01*
X622822Y532862D01*
Y532074D01*
X623124Y531346D01*
X623478Y530992D01*
Y445197D01*
X623579Y444690D01*
X623866Y444260D01*
X625019Y443107D01*
Y442606D01*
X625320Y441878D01*
X625878Y441321D01*
X626606Y441019D01*
X627394D01*
X628122Y441321D01*
X628680Y441878D01*
X628981Y442606D01*
Y443394D01*
X628680Y444122D01*
X628122Y444679D01*
X627394Y444981D01*
X626893D01*
X626128Y445746D01*
Y530992D01*
X626482Y531346D01*
X626784Y532074D01*
Y532862D01*
X626482Y533590D01*
X625925Y534148D01*
X625197Y534449D01*
D02*
G37*
G36*
X644894Y530981D02*
X644106D01*
X643378Y530680D01*
X642821Y530122D01*
X642519Y529394D01*
Y528606D01*
X642821Y527878D01*
X643175Y527524D01*
Y444000D01*
X643275Y443493D01*
X643563Y443063D01*
X644519Y442107D01*
Y442106D01*
X644820Y441378D01*
X645378Y440821D01*
X646106Y440519D01*
X646894D01*
X647622Y440821D01*
X648179Y441378D01*
X648481Y442106D01*
Y442894D01*
X648179Y443622D01*
X647622Y444179D01*
X646894Y444481D01*
X646106D01*
X645825Y444906D01*
Y527524D01*
X646179Y527878D01*
X646481Y528606D01*
Y529394D01*
X646179Y530122D01*
X645622Y530680D01*
X644894Y530981D01*
D02*
G37*
G36*
X702394Y531481D02*
X701606D01*
X700878Y531180D01*
X700320Y530622D01*
X700019Y529894D01*
Y529106D01*
X700320Y528378D01*
X700674Y528024D01*
Y486419D01*
X700563Y486307D01*
X700275Y485877D01*
X700175Y485370D01*
Y443476D01*
X699821Y443122D01*
X699519Y442394D01*
Y441606D01*
X699821Y440878D01*
X700378Y440320D01*
X701106Y440019D01*
X701894D01*
X702622Y440320D01*
X703180Y440878D01*
X703481Y441606D01*
Y442394D01*
X703180Y443122D01*
X702825Y443476D01*
Y484821D01*
X702937Y484932D01*
X703225Y485362D01*
X703326Y485870D01*
Y528024D01*
X703680Y528378D01*
X703981Y529106D01*
Y529894D01*
X703680Y530622D01*
X703122Y531180D01*
X702394Y531481D01*
D02*
G37*
G36*
X665894D02*
X665106D01*
X664378Y531180D01*
X663821Y530622D01*
X663519Y529894D01*
Y529106D01*
X663821Y528378D01*
X664175Y528024D01*
Y443549D01*
X660107Y439481D01*
X659606D01*
X658878Y439180D01*
X658321Y438622D01*
X658019Y437894D01*
Y437106D01*
X658321Y436378D01*
X658878Y435820D01*
X659606Y435519D01*
X660394D01*
X661122Y435820D01*
X661680Y436378D01*
X661981Y437106D01*
Y437607D01*
X666437Y442063D01*
X666725Y442493D01*
X666825Y443000D01*
Y528024D01*
X667179Y528378D01*
X667481Y529106D01*
Y529894D01*
X667179Y530622D01*
X666622Y531180D01*
X665894Y531481D01*
D02*
G37*
G36*
X646394Y538481D02*
X645606D01*
X644878Y538179D01*
X644320Y537622D01*
X644019Y536894D01*
Y536106D01*
X644320Y535378D01*
X644878Y534821D01*
X645606Y534519D01*
X646107D01*
X648174Y532451D01*
Y453976D01*
X647821Y453622D01*
X647519Y452894D01*
Y452106D01*
X647821Y451378D01*
X648378Y450820D01*
X649106Y450519D01*
X649894D01*
X650622Y450820D01*
X651174Y451373D01*
X651203Y451372D01*
X651675Y451266D01*
Y438270D01*
X651519Y437894D01*
Y437106D01*
X651821Y436378D01*
X652378Y435820D01*
X653106Y435519D01*
X653894D01*
X654622Y435820D01*
X655180Y436378D01*
X655481Y437106D01*
Y437894D01*
X655180Y438622D01*
X654622Y439180D01*
X654325Y439302D01*
Y521024D01*
X654679Y521378D01*
X654981Y522106D01*
Y522894D01*
X654679Y523622D01*
X654122Y524180D01*
X653394Y524481D01*
X652606D01*
X651878Y524180D01*
X651326Y523627D01*
X651297Y523628D01*
X650826Y523734D01*
Y533000D01*
X650725Y533507D01*
X650437Y533937D01*
X647981Y536393D01*
Y536894D01*
X647680Y537622D01*
X647122Y538179D01*
X646394Y538481D01*
D02*
G37*
G36*
X629894Y524481D02*
X629106D01*
X628378Y524180D01*
X627820Y523622D01*
X627519Y522894D01*
Y522106D01*
X627820Y521378D01*
X628378Y520821D01*
X629106Y520519D01*
X629294D01*
X630174Y519638D01*
Y438976D01*
X629820Y438622D01*
X629519Y437894D01*
Y437106D01*
X629820Y436378D01*
X630378Y435820D01*
X631106Y435519D01*
X631894D01*
X632622Y435820D01*
X633180Y436378D01*
X633481Y437106D01*
Y437894D01*
X633180Y438622D01*
X632826Y438976D01*
Y520187D01*
X632725Y520694D01*
X632437Y521124D01*
X631474Y522088D01*
X631481Y522106D01*
Y522894D01*
X631180Y523622D01*
X630622Y524180D01*
X629894Y524481D01*
D02*
G37*
G36*
X619394Y529981D02*
X618606D01*
X617878Y529679D01*
X617320Y529122D01*
X617019Y528394D01*
Y527606D01*
X617320Y526878D01*
X617674Y526524D01*
Y441000D01*
X617775Y440493D01*
X618063Y440063D01*
X620519Y437607D01*
Y437106D01*
X620821Y436378D01*
X621378Y435820D01*
X622106Y435519D01*
X622894D01*
X623622Y435820D01*
X624180Y436378D01*
X624481Y437106D01*
Y437894D01*
X624180Y438622D01*
X623622Y439180D01*
X622894Y439481D01*
X622393D01*
X620326Y441549D01*
Y526524D01*
X620680Y526878D01*
X620981Y527606D01*
Y528394D01*
X620680Y529122D01*
X620122Y529679D01*
X619394Y529981D01*
D02*
G37*
G36*
X612679Y536221D02*
X611891D01*
X611163Y535919D01*
X610605Y535362D01*
X610304Y534634D01*
Y533846D01*
X610357Y533716D01*
X610275Y533594D01*
X610175Y533086D01*
Y441976D01*
X609821Y441622D01*
X609519Y440894D01*
Y440106D01*
X609821Y439378D01*
X610378Y438821D01*
X611106Y438519D01*
X611894D01*
X612622Y438821D01*
X612770Y438969D01*
X612905Y438975D01*
X613366Y438857D01*
X613563Y438563D01*
X615519Y436607D01*
Y436106D01*
X615821Y435378D01*
X616378Y434821D01*
X617106Y434519D01*
X617894D01*
X618622Y434821D01*
X619179Y435378D01*
X619481Y436106D01*
Y436894D01*
X619179Y437622D01*
X618622Y438179D01*
X617894Y438481D01*
X617393D01*
X615826Y440049D01*
Y483945D01*
X615990Y484191D01*
X616091Y484699D01*
Y528524D01*
X616445Y528878D01*
X616747Y529606D01*
Y530394D01*
X616445Y531122D01*
X615888Y531679D01*
X615160Y531981D01*
X614372D01*
X613644Y531679D01*
X613326Y531361D01*
X612825Y531568D01*
Y532319D01*
X613407Y532560D01*
X613964Y533118D01*
X614266Y533846D01*
Y534634D01*
X613964Y535362D01*
X613407Y535919D01*
X612679Y536221D01*
D02*
G37*
G36*
X707894Y527981D02*
X707106D01*
X706378Y527679D01*
X705821Y527122D01*
X705519Y526394D01*
Y525606D01*
X705821Y524878D01*
X706175Y524524D01*
Y441549D01*
X705563Y440937D01*
X705275Y440507D01*
X705174Y440000D01*
Y437476D01*
X704820Y437122D01*
X704519Y436394D01*
Y435606D01*
X704820Y434878D01*
X705378Y434320D01*
X706106Y434019D01*
X706894D01*
X707622Y434320D01*
X708180Y434878D01*
X708481Y435606D01*
Y436394D01*
X708180Y437122D01*
X707826Y437476D01*
Y439451D01*
X708437Y440063D01*
X708725Y440493D01*
X708825Y441000D01*
Y524524D01*
X709179Y524878D01*
X709481Y525606D01*
Y526394D01*
X709179Y527122D01*
X708622Y527679D01*
X707894Y527981D01*
D02*
G37*
G36*
X69623Y432887D02*
X68172D01*
X66770Y432511D01*
X65513Y431786D01*
X64487Y430759D01*
X63762Y429502D01*
X63386Y428101D01*
Y426649D01*
X63762Y425247D01*
X64487Y423991D01*
X65513Y422964D01*
X66770Y422239D01*
X68172Y421863D01*
X69623D01*
X71025Y422239D01*
X72282Y422964D01*
X73308Y423991D01*
X74034Y425247D01*
X74410Y426649D01*
Y428101D01*
X74034Y429502D01*
X73308Y430759D01*
X72282Y431786D01*
X71025Y432511D01*
X69623Y432887D01*
D02*
G37*
G36*
X1181828Y432862D02*
X1180377D01*
X1178975Y432486D01*
X1177718Y431760D01*
X1176692Y430734D01*
X1175966Y429477D01*
X1175591Y428076D01*
Y426624D01*
X1175966Y425222D01*
X1176692Y423966D01*
X1177718Y422939D01*
X1178975Y422214D01*
X1180377Y421838D01*
X1181828D01*
X1183230Y422214D01*
X1184487Y422939D01*
X1185513Y423966D01*
X1186238Y425222D01*
X1186614Y426624D01*
Y428076D01*
X1186238Y429477D01*
X1185513Y430734D01*
X1184487Y431760D01*
X1183230Y432486D01*
X1181828Y432862D01*
D02*
G37*
G36*
X191824Y351745D02*
X184318D01*
Y344239D01*
X191824D01*
Y351745D01*
D02*
G37*
G36*
X188565Y341745D02*
X187577D01*
X186622Y341489D01*
X185767Y340995D01*
X185068Y340297D01*
X184574Y339441D01*
X184318Y338486D01*
Y337498D01*
X184574Y336544D01*
X185068Y335688D01*
X185767Y334989D01*
X186622Y334495D01*
X187577Y334240D01*
X188565D01*
X189519Y334495D01*
X190375Y334989D01*
X191074Y335688D01*
X191568Y336544D01*
X191824Y337498D01*
Y338486D01*
X191568Y339441D01*
X191074Y340297D01*
X190375Y340995D01*
X189519Y341489D01*
X188565Y341745D01*
D02*
G37*
G36*
Y331745D02*
X187577D01*
X186622Y331489D01*
X185767Y330995D01*
X185068Y330296D01*
X184574Y329441D01*
X184318Y328486D01*
Y327498D01*
X184574Y326544D01*
X185068Y325688D01*
X185767Y324989D01*
X186622Y324495D01*
X187577Y324239D01*
X188565D01*
X189519Y324495D01*
X190375Y324989D01*
X191074Y325688D01*
X191568Y326544D01*
X191824Y327498D01*
Y328486D01*
X191568Y329441D01*
X191074Y330296D01*
X190375Y330995D01*
X189519Y331489D01*
X188565Y331745D01*
D02*
G37*
G36*
Y321745D02*
X187577D01*
X186622Y321489D01*
X185767Y320995D01*
X185068Y320297D01*
X184574Y319441D01*
X184318Y318486D01*
Y317498D01*
X184574Y316544D01*
X185068Y315688D01*
X185767Y314989D01*
X186622Y314495D01*
X187577Y314240D01*
X188565D01*
X189519Y314495D01*
X190375Y314989D01*
X191074Y315688D01*
X191568Y316544D01*
X191824Y317498D01*
Y318486D01*
X191568Y319441D01*
X191074Y320297D01*
X190375Y320995D01*
X189519Y321489D01*
X188565Y321745D01*
D02*
G37*
G36*
Y311745D02*
X187577D01*
X186622Y311489D01*
X185767Y310995D01*
X185068Y310297D01*
X184574Y309441D01*
X184318Y308486D01*
Y307498D01*
X184574Y306544D01*
X185068Y305688D01*
X185767Y304989D01*
X186622Y304495D01*
X187577Y304240D01*
X188565D01*
X189519Y304495D01*
X190375Y304989D01*
X191074Y305688D01*
X191568Y306544D01*
X191824Y307498D01*
Y308486D01*
X191568Y309441D01*
X191074Y310297D01*
X190375Y310995D01*
X189519Y311489D01*
X188565Y311745D01*
D02*
G37*
G36*
Y301745D02*
X187577D01*
X186622Y301489D01*
X185767Y300995D01*
X185068Y300296D01*
X184574Y299441D01*
X184318Y298486D01*
Y297498D01*
X184574Y296544D01*
X185068Y295688D01*
X185767Y294989D01*
X186622Y294495D01*
X187577Y294239D01*
X188565D01*
X189519Y294495D01*
X190375Y294989D01*
X191074Y295688D01*
X191568Y296544D01*
X191824Y297498D01*
Y298486D01*
X191568Y299441D01*
X191074Y300296D01*
X190375Y300995D01*
X189519Y301489D01*
X188565Y301745D01*
D02*
G37*
G36*
X178565D02*
X177577D01*
X176622Y301489D01*
X175767Y300995D01*
X175068Y300296D01*
X174574Y299441D01*
X174318Y298486D01*
Y297498D01*
X174574Y296544D01*
X175068Y295688D01*
X175767Y294989D01*
X176622Y294495D01*
X177577Y294239D01*
X178565D01*
X179519Y294495D01*
X180375Y294989D01*
X181074Y295688D01*
X181568Y296544D01*
X181824Y297498D01*
Y298486D01*
X181568Y299441D01*
X181074Y300296D01*
X180375Y300995D01*
X179519Y301489D01*
X178565Y301745D01*
D02*
G37*
G36*
X188565Y291745D02*
X187577D01*
X186622Y291489D01*
X185767Y290995D01*
X185068Y290297D01*
X184574Y289441D01*
X184318Y288486D01*
Y287498D01*
X184574Y286544D01*
X185068Y285688D01*
X185767Y284989D01*
X186622Y284495D01*
X187577Y284240D01*
X188565D01*
X189519Y284495D01*
X190375Y284989D01*
X191074Y285688D01*
X191568Y286544D01*
X191824Y287498D01*
Y288486D01*
X191568Y289441D01*
X191074Y290297D01*
X190375Y290995D01*
X189519Y291489D01*
X188565Y291745D01*
D02*
G37*
G36*
X178565D02*
X177577D01*
X176622Y291489D01*
X175767Y290995D01*
X175068Y290297D01*
X174574Y289441D01*
X174541Y289318D01*
X99704D01*
X99197Y289217D01*
X98767Y288930D01*
X90375Y280537D01*
X89874D01*
X89146Y280236D01*
X88589Y279678D01*
X88287Y278950D01*
Y278162D01*
X88589Y277434D01*
X89146Y276876D01*
X89874Y276575D01*
X90662D01*
X91390Y276876D01*
X91948Y277434D01*
X92249Y278162D01*
Y278663D01*
X100253Y286667D01*
X174541D01*
X174574Y286544D01*
X175068Y285688D01*
X175767Y284989D01*
X176622Y284495D01*
X177577Y284240D01*
X178565D01*
X179519Y284495D01*
X180375Y284989D01*
X181074Y285688D01*
X181568Y286544D01*
X181824Y287498D01*
Y288486D01*
X181568Y289441D01*
X181074Y290297D01*
X180375Y290995D01*
X179519Y291489D01*
X178565Y291745D01*
D02*
G37*
G36*
X188565Y281745D02*
X187577D01*
X186622Y281489D01*
X185767Y280995D01*
X185068Y280296D01*
X184574Y279441D01*
X184318Y278486D01*
Y277498D01*
X184574Y276544D01*
X185068Y275688D01*
X185767Y274989D01*
X186622Y274495D01*
X187577Y274239D01*
X188565D01*
X189519Y274495D01*
X190375Y274989D01*
X191074Y275688D01*
X191568Y276544D01*
X191824Y277498D01*
Y278486D01*
X191568Y279441D01*
X191074Y280296D01*
X190375Y280995D01*
X189519Y281489D01*
X188565Y281745D01*
D02*
G37*
G36*
X235394Y316481D02*
X234606D01*
X233878Y316179D01*
X233320Y315622D01*
X233019Y314894D01*
Y314393D01*
X187859Y269233D01*
X150196D01*
X149842Y269587D01*
X149114Y269889D01*
X148326D01*
X147598Y269587D01*
X147041Y269030D01*
X146739Y268302D01*
Y267514D01*
X147041Y266786D01*
X147598Y266229D01*
X148326Y265927D01*
X149114D01*
X149842Y266229D01*
X150196Y266583D01*
X188408D01*
X188915Y266684D01*
X189345Y266971D01*
X234893Y312519D01*
X235394D01*
X236122Y312821D01*
X236680Y313378D01*
X236981Y314106D01*
Y314894D01*
X236680Y315622D01*
X236122Y316179D01*
X235394Y316481D01*
D02*
G37*
G36*
X583894Y378481D02*
X583106D01*
X582378Y378180D01*
X581820Y377622D01*
X581519Y376894D01*
Y376106D01*
X581820Y375378D01*
X582378Y374820D01*
X583106Y374519D01*
X583607D01*
X604063Y354063D01*
X604493Y353775D01*
X605000Y353675D01*
X751524D01*
X751878Y353321D01*
X752606Y353019D01*
X753394D01*
X754122Y353321D01*
X754679Y353878D01*
X754981Y354606D01*
Y355394D01*
X754679Y356122D01*
X754122Y356680D01*
X753394Y356981D01*
X752606D01*
X751878Y356680D01*
X751524Y356326D01*
X605549D01*
X585481Y376393D01*
Y376894D01*
X585180Y377622D01*
X584622Y378180D01*
X583894Y378481D01*
D02*
G37*
G36*
X551181Y404359D02*
X457677D01*
X457365Y404297D01*
X457100Y404120D01*
X456924Y403856D01*
X456861Y403544D01*
Y310039D01*
X456924Y309727D01*
X457100Y309463D01*
X457365Y309286D01*
X457677Y309224D01*
X551181D01*
X551493Y309286D01*
X551758Y309463D01*
X551935Y309727D01*
X551997Y310039D01*
Y403544D01*
X551935Y403856D01*
X551758Y404120D01*
X551493Y404297D01*
X551181Y404359D01*
D02*
G37*
%LPD*%
D12*
X691929Y97898D02*
X692031Y98000D01*
X736500D01*
X719488Y104950D02*
X726711Y112172D01*
X735172D01*
X686681Y246947D02*
X698053D01*
X703292Y241708D02*
X1128820D01*
X698053Y246947D02*
X703292Y241708D01*
X683520Y250108D02*
X686681Y246947D01*
X92705Y250108D02*
X683520D01*
X644500Y272000D02*
X644592Y271908D01*
X1081820D01*
X1042989Y277539D02*
X1046820Y273708D01*
X631520Y275108D02*
X633951Y277539D01*
X1042989D01*
X640748Y270108D02*
X644151Y266705D01*
X1146017D02*
X1165820Y286508D01*
X644151Y266705D02*
X1146017D01*
X660000Y437500D02*
X665500Y443000D01*
X657914Y446586D02*
X658000Y446500D01*
X657914Y446586D02*
Y447414D01*
X659000Y448500D01*
Y521000D01*
X665500Y443000D02*
Y529500D01*
X406454Y427362D02*
X704641D01*
X583500Y376500D02*
X605000Y355000D01*
X753000D01*
X625000Y365108D02*
X996420D01*
X649895Y368835D02*
X825386D01*
X599466Y441951D02*
X599951D01*
X603000Y445000D02*
Y522500D01*
X599951Y441951D02*
X603000Y445000D01*
X996420Y365108D02*
X1057820Y303708D01*
X825386Y368835D02*
X826659Y370108D01*
X1001782D02*
X1063898Y307992D01*
X826659Y370108D02*
X1001782D01*
X753520Y406608D02*
X784920Y375208D01*
X621063Y406608D02*
X753520D01*
X617126Y415508D02*
X978120D01*
X1061320Y332308D01*
X611500Y533086D02*
X612285Y533871D01*
X611500Y440500D02*
Y533086D01*
X612285Y533871D02*
Y534240D01*
X614500Y439500D02*
Y484433D01*
X614766Y484699D01*
Y530000D01*
X613189Y424408D02*
X978976D01*
X1059645Y343739D01*
X712500Y431500D02*
X722500Y441500D01*
Y523500D01*
X716266Y447766D02*
Y526446D01*
X711500Y443000D02*
X716266Y447766D01*
X700776Y431500D02*
X712500D01*
X707500Y441000D02*
Y526000D01*
X706500Y440000D02*
X707500Y441000D01*
X706500Y436000D02*
Y440000D01*
X698893Y429617D02*
X700776Y431500D01*
X701500Y485370D02*
X702000Y485870D01*
X701500Y442000D02*
Y485370D01*
X702000Y485870D02*
Y529500D01*
X692500Y445500D02*
X698000Y451000D01*
Y536500D01*
X683000Y441500D02*
Y471001D01*
X695000Y483001D01*
X674000Y508500D02*
X689500Y524000D01*
X674000Y445500D02*
Y508500D01*
X695000Y483001D02*
Y530000D01*
X689891Y264380D02*
X713136D01*
X687992Y262481D02*
X689891Y264380D01*
X700539Y258908D02*
X701631Y260000D01*
X702000D01*
X702239Y259761D02*
X705761D01*
X139320Y258908D02*
X700539D01*
X702000Y260000D02*
X702239Y259761D01*
X705761D02*
X707089Y261089D01*
X629020Y272508D02*
X636811Y264717D01*
X713136Y264380D02*
X715308Y262208D01*
X1144958D02*
X1145639Y262889D01*
X715308Y262208D02*
X1144958D01*
X707089Y261089D02*
X713520D01*
X421383Y429617D02*
X698893D01*
X345657Y505343D02*
X421383Y429617D01*
X655155Y284500D02*
X655916Y283739D01*
X635000Y284500D02*
X655155D01*
X655916Y283739D02*
X1069645D01*
X1062570Y287992D02*
X1063898D01*
X1061246Y286668D02*
X1062570Y287992D01*
X656496Y286668D02*
X1061246D01*
X653000Y438000D02*
Y522500D01*
Y438000D02*
X653500Y437500D01*
X646000Y536500D02*
X649500Y533000D01*
Y452500D02*
Y533000D01*
X646000Y442500D02*
X646500D01*
X644500Y444000D02*
Y529000D01*
Y444000D02*
X646000Y442500D01*
X641135Y436365D02*
X641235D01*
X639000Y438500D02*
X641135Y436365D01*
X639000Y438500D02*
Y528500D01*
X635500Y442369D02*
X636500Y441369D01*
Y441000D02*
Y441369D01*
X635500Y442369D02*
Y525000D01*
X629500Y522187D02*
X631500Y520187D01*
X629500Y522187D02*
Y522500D01*
X631500Y437500D02*
Y520187D01*
X624803Y445197D02*
X627000Y443000D01*
X624803Y445197D02*
Y532468D01*
X619000Y441000D02*
Y528000D01*
Y441000D02*
X622500Y437500D01*
X614500Y439500D02*
X617500Y436500D01*
X330088Y503728D02*
X406454Y427362D01*
X1069645Y283739D02*
X1073898Y287992D01*
X330091Y538500D02*
X335283Y533308D01*
X335283D01*
X270521Y538500D02*
X330091D01*
X272727Y546415D02*
X331085D01*
X344742Y532758D01*
X215720Y489408D02*
X272727Y546415D01*
X335283Y533308D02*
X337783Y530808D01*
X235000Y502979D02*
X270521Y538500D01*
X235000Y463000D02*
Y502979D01*
X188408Y267908D02*
X235000Y314500D01*
X148720Y267908D02*
X188408D01*
X344742Y525324D02*
Y532758D01*
Y525324D02*
X345657Y524409D01*
Y505343D02*
Y524409D01*
X695866Y253308D02*
X1156920D01*
X87120D02*
X695866D01*
X711077Y258608D02*
X1149920D01*
X1057820Y303708D02*
X1069613D01*
X1073898Y307992D01*
X1145639Y262889D02*
X1160592D01*
X112020Y247060D02*
X673000D01*
X1154439Y261089D02*
X1157720Y257808D01*
X1148151Y261089D02*
X1154439D01*
X1147470Y260408D02*
X1148151Y261089D01*
X714201Y260408D02*
X1147470D01*
X713520Y261089D02*
X714201Y260408D01*
X1156920Y253308D02*
X1169020Y241208D01*
X1165820Y286508D02*
Y294279D01*
X1116391Y343708D02*
X1165820Y294279D01*
X1065659Y346231D02*
X1067428D01*
X1061320Y332308D02*
X1069582D01*
X1073898Y327992D01*
X1081820Y271908D02*
X1100254Y290342D01*
X1130654Y323008D02*
X1163320Y290342D01*
X1068882Y323008D02*
X1130654D01*
X1063898Y327992D02*
X1068882Y323008D01*
X85720Y243123D02*
X92705Y250108D01*
X1128820Y241708D02*
X1164520Y206008D01*
X1187620D01*
X337783Y524409D02*
Y530808D01*
X329909Y503908D02*
Y524409D01*
X1061082Y300808D02*
X1063898Y297992D01*
X652559Y300808D02*
X1061082D01*
X88320Y298708D02*
X97604Y307992D01*
X178071D01*
X128304Y347992D02*
X178071D01*
X80832Y300520D02*
X128304Y347992D01*
X80832Y294708D02*
Y300520D01*
X81820Y291108D02*
X85839Y295127D01*
Y302927D01*
X110904Y327992D01*
X178071D01*
X90268Y278556D02*
X99704Y287992D01*
X178071D01*
X629020Y272508D02*
Y288508D01*
X633320Y292808D01*
X1075320D01*
X1078220Y289908D01*
Y282315D02*
Y289908D01*
X1073898Y277992D02*
X1078220Y282315D01*
X1063898Y307992D02*
X1068213Y312308D01*
X1125117D01*
X1151020Y286405D01*
X1046820Y273708D02*
X1078120D01*
X1080020Y275608D01*
Y291870D01*
X1073898Y297992D02*
X1080020Y291870D01*
X81620Y239186D02*
Y247808D01*
X87120Y253308D01*
X1059645Y343739D02*
X1065620D01*
X1069051Y340308D01*
X1071582D01*
X1073898Y337992D01*
X784920Y375208D02*
X1008420D01*
X1061320Y322308D01*
X1065620D01*
X1069936Y317992D01*
X1073898D01*
X124520Y186608D02*
X714820D01*
X95620Y215508D02*
X124520Y186608D01*
X911669Y174208D02*
X1107220D01*
X1148220Y215208D01*
X1069950Y343708D02*
X1116391D01*
X1067428Y346231D02*
X1069950Y343708D01*
X1063898Y347992D02*
X1065659Y346231D01*
D15*
X1178347Y408452D02*
D03*
Y404515D02*
D03*
Y400578D02*
D03*
Y396641D02*
D03*
Y392704D02*
D03*
Y388767D02*
D03*
Y384830D02*
D03*
Y380893D02*
D03*
Y376956D02*
D03*
Y373019D02*
D03*
Y369082D02*
D03*
Y357271D02*
D03*
Y353334D02*
D03*
Y349397D02*
D03*
Y345460D02*
D03*
Y341523D02*
D03*
Y337586D02*
D03*
Y333649D02*
D03*
Y329712D02*
D03*
Y325775D02*
D03*
Y321838D02*
D03*
Y317901D02*
D03*
Y313964D02*
D03*
Y310027D02*
D03*
Y306090D02*
D03*
Y302153D02*
D03*
Y298216D02*
D03*
Y294279D02*
D03*
Y290342D02*
D03*
Y286405D02*
D03*
Y282468D02*
D03*
Y278531D02*
D03*
Y274594D02*
D03*
Y270657D02*
D03*
Y266720D02*
D03*
Y262783D02*
D03*
Y258846D02*
D03*
Y254909D02*
D03*
Y250972D02*
D03*
Y247035D02*
D03*
Y243098D02*
D03*
Y239161D02*
D03*
Y235224D02*
D03*
Y231287D02*
D03*
Y227350D02*
D03*
Y223413D02*
D03*
Y219476D02*
D03*
Y215539D02*
D03*
Y211602D02*
D03*
X71654Y408477D02*
D03*
Y404540D02*
D03*
Y400603D02*
D03*
Y396666D02*
D03*
Y392729D02*
D03*
Y388792D02*
D03*
Y384855D02*
D03*
Y380918D02*
D03*
Y376981D02*
D03*
Y373044D02*
D03*
Y369107D02*
D03*
Y357296D02*
D03*
Y353359D02*
D03*
Y349422D02*
D03*
Y345485D02*
D03*
Y341548D02*
D03*
Y337611D02*
D03*
Y333674D02*
D03*
Y329737D02*
D03*
Y325800D02*
D03*
Y321863D02*
D03*
Y317926D02*
D03*
Y313989D02*
D03*
Y310052D02*
D03*
Y306115D02*
D03*
Y302178D02*
D03*
Y298241D02*
D03*
Y294304D02*
D03*
Y290367D02*
D03*
Y286430D02*
D03*
Y282493D02*
D03*
Y278556D02*
D03*
Y274619D02*
D03*
Y270682D02*
D03*
Y266745D02*
D03*
Y262808D02*
D03*
Y258871D02*
D03*
Y254934D02*
D03*
Y250997D02*
D03*
Y247060D02*
D03*
Y243123D02*
D03*
Y239186D02*
D03*
Y235249D02*
D03*
Y231312D02*
D03*
Y227375D02*
D03*
Y223438D02*
D03*
Y219501D02*
D03*
Y215564D02*
D03*
Y211627D02*
D03*
D16*
X526575Y71654D02*
D03*
X530512D02*
D03*
X534449D02*
D03*
X538386D02*
D03*
X542323D02*
D03*
X546260D02*
D03*
X550197D02*
D03*
X554134D02*
D03*
X558071D02*
D03*
X562008D02*
D03*
X565945D02*
D03*
X577756D02*
D03*
X581693D02*
D03*
X585630D02*
D03*
X589567D02*
D03*
X593504D02*
D03*
X597441D02*
D03*
X601378D02*
D03*
X605315D02*
D03*
X609252D02*
D03*
X613189D02*
D03*
X617126D02*
D03*
X621063D02*
D03*
X625000D02*
D03*
X628937D02*
D03*
X632874D02*
D03*
X636811D02*
D03*
X640748D02*
D03*
X644685D02*
D03*
X648622D02*
D03*
X652559D02*
D03*
X656496D02*
D03*
X660433D02*
D03*
X664370D02*
D03*
X668307D02*
D03*
X672244D02*
D03*
X676181D02*
D03*
X680118D02*
D03*
X684055D02*
D03*
X687992D02*
D03*
X691929D02*
D03*
X695866D02*
D03*
X699803D02*
D03*
X703740D02*
D03*
X707677D02*
D03*
X711614D02*
D03*
X715551D02*
D03*
X719488D02*
D03*
X723425D02*
D03*
Y548413D02*
D03*
X719488D02*
D03*
X715551D02*
D03*
X711614D02*
D03*
X707677D02*
D03*
X703740D02*
D03*
X699803D02*
D03*
X695866D02*
D03*
X691929D02*
D03*
X687992D02*
D03*
X684055D02*
D03*
X680118D02*
D03*
X676181D02*
D03*
X672244D02*
D03*
X668307D02*
D03*
X664370D02*
D03*
X660433D02*
D03*
X656496D02*
D03*
X652559D02*
D03*
X648622D02*
D03*
X644685D02*
D03*
X640748D02*
D03*
X636811D02*
D03*
X632874D02*
D03*
X628937D02*
D03*
X625000D02*
D03*
X621063D02*
D03*
X617126D02*
D03*
X613189D02*
D03*
X609252D02*
D03*
X605315D02*
D03*
X601378D02*
D03*
X597441D02*
D03*
X593504D02*
D03*
X589567D02*
D03*
X585630D02*
D03*
X581693D02*
D03*
X577756D02*
D03*
X565945D02*
D03*
X562008D02*
D03*
X558071D02*
D03*
X554134D02*
D03*
X550197D02*
D03*
X546260D02*
D03*
X542323D02*
D03*
X538386D02*
D03*
X534449D02*
D03*
X530512D02*
D03*
X526575D02*
D03*
D25*
X530512Y71654D02*
Y150616D01*
D26*
X1181102Y427350D02*
D03*
Y192704D02*
D03*
X507677Y68898D02*
D03*
X742323D02*
D03*
X742323Y551169D02*
D03*
X507677D02*
D03*
X68898Y427375D02*
D03*
Y192729D02*
D03*
D27*
X372822Y516535D02*
D03*
X302743D02*
D03*
D28*
X384830Y523228D02*
D03*
X290736D02*
D03*
D29*
X178071Y277992D02*
D03*
X188071D02*
D03*
X178071Y287992D02*
D03*
X188071D02*
D03*
X178071Y297992D02*
D03*
X188071D02*
D03*
X178071Y307992D02*
D03*
X188071D02*
D03*
X178071Y317992D02*
D03*
X188071D02*
D03*
X178071Y327992D02*
D03*
X188071D02*
D03*
X178071Y337992D02*
D03*
X188071D02*
D03*
X178071Y347992D02*
D03*
X1063898Y277992D02*
D03*
X1073898D02*
D03*
X1063898Y287992D02*
D03*
X1073898D02*
D03*
X1063898Y297992D02*
D03*
X1073898D02*
D03*
X1063898Y307992D02*
D03*
X1073898D02*
D03*
X1063898Y317992D02*
D03*
X1073898D02*
D03*
X1063898Y327992D02*
D03*
X1073898D02*
D03*
X1063898Y337992D02*
D03*
X1073898D02*
D03*
X1063898Y347992D02*
D03*
D30*
X188071D02*
D03*
X1073898D02*
D03*
D31*
X1102769Y361483D02*
D03*
Y356364D02*
D03*
Y351246D02*
D03*
Y341010D02*
D03*
Y335892D02*
D03*
Y330774D02*
D03*
X1097651Y361483D02*
D03*
Y356364D02*
D03*
Y351246D02*
D03*
Y341010D02*
D03*
Y335892D02*
D03*
Y330774D02*
D03*
X1092533Y361483D02*
D03*
Y356364D02*
D03*
Y351246D02*
D03*
Y341010D02*
D03*
Y335892D02*
D03*
Y325656D02*
D03*
X1087414Y361483D02*
D03*
Y356364D02*
D03*
Y351246D02*
D03*
Y341010D02*
D03*
Y330774D02*
D03*
X1082296Y361483D02*
D03*
Y356364D02*
D03*
Y351246D02*
D03*
Y335892D02*
D03*
Y325656D02*
D03*
Y300065D02*
D03*
X1077178Y361483D02*
D03*
Y356364D02*
D03*
X1072060Y361483D02*
D03*
Y356364D02*
D03*
X1066942Y361483D02*
D03*
X1061824D02*
D03*
X1056706D02*
D03*
Y351246D02*
D03*
Y341010D02*
D03*
Y330774D02*
D03*
Y320538D02*
D03*
Y289829D02*
D03*
Y279593D02*
D03*
Y269357D02*
D03*
X1051588Y366601D02*
D03*
Y361483D02*
D03*
Y346128D02*
D03*
Y335892D02*
D03*
Y325656D02*
D03*
Y305183D02*
D03*
Y289829D02*
D03*
Y279593D02*
D03*
Y269357D02*
D03*
X1046470Y366601D02*
D03*
Y361483D02*
D03*
Y351246D02*
D03*
Y341010D02*
D03*
Y330774D02*
D03*
Y310301D02*
D03*
Y305183D02*
D03*
Y289829D02*
D03*
Y279593D02*
D03*
Y269357D02*
D03*
X1041352Y366601D02*
D03*
Y346128D02*
D03*
Y335892D02*
D03*
Y315420D02*
D03*
Y310301D02*
D03*
Y305183D02*
D03*
Y289829D02*
D03*
Y274475D02*
D03*
Y269357D02*
D03*
X1036233Y361483D02*
D03*
Y351246D02*
D03*
Y341010D02*
D03*
Y320538D02*
D03*
Y315420D02*
D03*
Y310301D02*
D03*
Y305183D02*
D03*
Y289829D02*
D03*
Y274475D02*
D03*
Y269357D02*
D03*
X1031115Y366601D02*
D03*
Y346128D02*
D03*
Y325656D02*
D03*
Y320538D02*
D03*
Y315420D02*
D03*
Y310301D02*
D03*
Y305183D02*
D03*
Y289829D02*
D03*
Y274475D02*
D03*
Y269357D02*
D03*
X1025997Y361483D02*
D03*
Y351246D02*
D03*
Y330774D02*
D03*
Y325656D02*
D03*
Y320538D02*
D03*
Y315420D02*
D03*
Y310301D02*
D03*
Y305183D02*
D03*
Y289829D02*
D03*
Y274475D02*
D03*
Y269357D02*
D03*
X1020879Y366601D02*
D03*
Y335892D02*
D03*
Y330774D02*
D03*
Y325656D02*
D03*
Y320538D02*
D03*
Y315420D02*
D03*
Y310301D02*
D03*
Y305183D02*
D03*
Y289829D02*
D03*
Y274475D02*
D03*
Y269357D02*
D03*
X1015761Y361483D02*
D03*
Y341010D02*
D03*
Y335892D02*
D03*
Y330774D02*
D03*
Y325656D02*
D03*
Y320538D02*
D03*
Y315420D02*
D03*
Y310301D02*
D03*
Y305183D02*
D03*
Y289829D02*
D03*
Y274475D02*
D03*
Y269357D02*
D03*
X1010643Y366601D02*
D03*
Y346128D02*
D03*
Y341010D02*
D03*
Y335892D02*
D03*
Y330774D02*
D03*
Y325656D02*
D03*
Y320538D02*
D03*
Y315420D02*
D03*
Y310301D02*
D03*
Y305183D02*
D03*
Y289829D02*
D03*
Y274475D02*
D03*
Y269357D02*
D03*
X1005525Y351246D02*
D03*
Y346128D02*
D03*
Y341010D02*
D03*
Y335892D02*
D03*
Y330774D02*
D03*
Y325656D02*
D03*
Y320538D02*
D03*
Y315420D02*
D03*
Y310301D02*
D03*
Y305183D02*
D03*
Y289829D02*
D03*
Y274475D02*
D03*
Y269357D02*
D03*
X1000407Y351246D02*
D03*
Y346128D02*
D03*
Y341010D02*
D03*
Y335892D02*
D03*
Y330774D02*
D03*
Y325656D02*
D03*
Y320538D02*
D03*
Y315420D02*
D03*
Y310301D02*
D03*
Y305183D02*
D03*
Y289829D02*
D03*
Y274475D02*
D03*
Y269357D02*
D03*
X995289Y361483D02*
D03*
Y351246D02*
D03*
Y346128D02*
D03*
Y341010D02*
D03*
Y335892D02*
D03*
Y330774D02*
D03*
Y325656D02*
D03*
Y320538D02*
D03*
Y315420D02*
D03*
Y310301D02*
D03*
Y305183D02*
D03*
Y289829D02*
D03*
Y274475D02*
D03*
Y269357D02*
D03*
X990170Y361483D02*
D03*
Y351246D02*
D03*
Y346128D02*
D03*
Y341010D02*
D03*
Y335892D02*
D03*
Y330774D02*
D03*
Y325656D02*
D03*
Y320538D02*
D03*
Y315420D02*
D03*
Y310301D02*
D03*
Y305183D02*
D03*
Y289829D02*
D03*
Y274475D02*
D03*
Y269357D02*
D03*
X985052Y361483D02*
D03*
Y351246D02*
D03*
Y346128D02*
D03*
Y341010D02*
D03*
Y335892D02*
D03*
Y330774D02*
D03*
Y325656D02*
D03*
Y320538D02*
D03*
Y315420D02*
D03*
Y310301D02*
D03*
Y305183D02*
D03*
Y289829D02*
D03*
Y274475D02*
D03*
Y269357D02*
D03*
X979934Y361483D02*
D03*
Y351246D02*
D03*
Y346128D02*
D03*
Y341010D02*
D03*
Y335892D02*
D03*
Y330774D02*
D03*
Y325656D02*
D03*
Y320538D02*
D03*
Y315420D02*
D03*
Y310301D02*
D03*
Y305183D02*
D03*
Y289829D02*
D03*
Y274475D02*
D03*
Y269357D02*
D03*
X974816Y361483D02*
D03*
Y351246D02*
D03*
Y346128D02*
D03*
Y341010D02*
D03*
Y335892D02*
D03*
Y330774D02*
D03*
Y325656D02*
D03*
Y320538D02*
D03*
Y315420D02*
D03*
Y310301D02*
D03*
Y305183D02*
D03*
Y289829D02*
D03*
Y274475D02*
D03*
Y269357D02*
D03*
X969698Y361483D02*
D03*
Y351246D02*
D03*
Y346128D02*
D03*
Y341010D02*
D03*
Y335892D02*
D03*
Y330774D02*
D03*
Y325656D02*
D03*
Y320538D02*
D03*
Y315420D02*
D03*
Y310301D02*
D03*
Y305183D02*
D03*
Y289829D02*
D03*
Y274475D02*
D03*
Y269357D02*
D03*
X964580Y361483D02*
D03*
Y351246D02*
D03*
Y346128D02*
D03*
Y341010D02*
D03*
Y335892D02*
D03*
Y330774D02*
D03*
Y325656D02*
D03*
Y320538D02*
D03*
Y315420D02*
D03*
Y310301D02*
D03*
Y305183D02*
D03*
Y289829D02*
D03*
Y274475D02*
D03*
Y269357D02*
D03*
X959462Y361483D02*
D03*
Y351246D02*
D03*
Y346128D02*
D03*
Y341010D02*
D03*
Y335892D02*
D03*
Y330774D02*
D03*
Y325656D02*
D03*
Y320538D02*
D03*
Y315420D02*
D03*
Y310301D02*
D03*
Y305183D02*
D03*
Y289829D02*
D03*
Y274475D02*
D03*
Y269357D02*
D03*
X954344Y361483D02*
D03*
Y351246D02*
D03*
Y346128D02*
D03*
Y341010D02*
D03*
Y335892D02*
D03*
Y330774D02*
D03*
Y325656D02*
D03*
Y320538D02*
D03*
Y315420D02*
D03*
Y310301D02*
D03*
Y305183D02*
D03*
Y289829D02*
D03*
Y274475D02*
D03*
Y269357D02*
D03*
X949226Y361483D02*
D03*
Y351246D02*
D03*
Y346128D02*
D03*
Y341010D02*
D03*
Y335892D02*
D03*
Y330774D02*
D03*
Y325656D02*
D03*
Y320538D02*
D03*
Y315420D02*
D03*
Y310301D02*
D03*
Y305183D02*
D03*
Y289829D02*
D03*
Y274475D02*
D03*
Y269357D02*
D03*
X944108Y361483D02*
D03*
Y351246D02*
D03*
Y346128D02*
D03*
Y341010D02*
D03*
Y335892D02*
D03*
Y330774D02*
D03*
Y325656D02*
D03*
Y320538D02*
D03*
Y315420D02*
D03*
Y310301D02*
D03*
Y305183D02*
D03*
Y289829D02*
D03*
Y274475D02*
D03*
Y269357D02*
D03*
X938989Y361483D02*
D03*
Y351246D02*
D03*
Y346128D02*
D03*
Y341010D02*
D03*
Y335892D02*
D03*
Y330774D02*
D03*
Y325656D02*
D03*
Y320538D02*
D03*
Y315420D02*
D03*
Y310301D02*
D03*
Y305183D02*
D03*
Y289829D02*
D03*
Y274475D02*
D03*
Y269357D02*
D03*
X933871Y381955D02*
D03*
Y361483D02*
D03*
Y351246D02*
D03*
Y346128D02*
D03*
Y341010D02*
D03*
Y335892D02*
D03*
Y330774D02*
D03*
Y325656D02*
D03*
Y320538D02*
D03*
Y315420D02*
D03*
Y310301D02*
D03*
Y305183D02*
D03*
Y289829D02*
D03*
Y274475D02*
D03*
Y269357D02*
D03*
X928753Y381955D02*
D03*
Y361483D02*
D03*
Y351246D02*
D03*
Y346128D02*
D03*
Y341010D02*
D03*
Y335892D02*
D03*
Y330774D02*
D03*
Y325656D02*
D03*
Y320538D02*
D03*
Y315420D02*
D03*
Y310301D02*
D03*
Y305183D02*
D03*
Y289829D02*
D03*
Y274475D02*
D03*
Y269357D02*
D03*
X923635Y387073D02*
D03*
Y381955D02*
D03*
Y361483D02*
D03*
Y351246D02*
D03*
Y346128D02*
D03*
Y341010D02*
D03*
Y335892D02*
D03*
Y330774D02*
D03*
Y325656D02*
D03*
Y320538D02*
D03*
Y315420D02*
D03*
Y310301D02*
D03*
Y305183D02*
D03*
Y289829D02*
D03*
Y274475D02*
D03*
Y269357D02*
D03*
X918517Y387073D02*
D03*
Y381955D02*
D03*
Y361483D02*
D03*
Y351246D02*
D03*
Y346128D02*
D03*
Y341010D02*
D03*
Y335892D02*
D03*
Y330774D02*
D03*
Y325656D02*
D03*
Y320538D02*
D03*
Y315420D02*
D03*
Y310301D02*
D03*
Y305183D02*
D03*
Y289829D02*
D03*
Y274475D02*
D03*
Y269357D02*
D03*
X913399Y392191D02*
D03*
Y387073D02*
D03*
Y381955D02*
D03*
Y361483D02*
D03*
Y351246D02*
D03*
Y346128D02*
D03*
Y341010D02*
D03*
Y335892D02*
D03*
Y330774D02*
D03*
Y325656D02*
D03*
Y320538D02*
D03*
Y315420D02*
D03*
Y310301D02*
D03*
Y305183D02*
D03*
Y289829D02*
D03*
Y274475D02*
D03*
Y269357D02*
D03*
X908281Y392191D02*
D03*
Y387073D02*
D03*
Y381955D02*
D03*
Y361483D02*
D03*
Y351246D02*
D03*
Y346128D02*
D03*
Y341010D02*
D03*
Y335892D02*
D03*
Y330774D02*
D03*
Y325656D02*
D03*
Y320538D02*
D03*
Y315420D02*
D03*
Y310301D02*
D03*
Y305183D02*
D03*
Y289829D02*
D03*
Y274475D02*
D03*
Y269357D02*
D03*
X903163Y397309D02*
D03*
Y392191D02*
D03*
Y387073D02*
D03*
Y381955D02*
D03*
Y361483D02*
D03*
Y351246D02*
D03*
Y346128D02*
D03*
Y341010D02*
D03*
Y335892D02*
D03*
Y330774D02*
D03*
Y325656D02*
D03*
Y320538D02*
D03*
Y315420D02*
D03*
Y310301D02*
D03*
Y305183D02*
D03*
Y289829D02*
D03*
Y274475D02*
D03*
Y269357D02*
D03*
X898044Y402427D02*
D03*
Y397309D02*
D03*
Y392191D02*
D03*
Y387073D02*
D03*
Y381955D02*
D03*
Y361483D02*
D03*
Y351246D02*
D03*
Y346128D02*
D03*
Y341010D02*
D03*
Y335892D02*
D03*
Y330774D02*
D03*
Y325656D02*
D03*
Y320538D02*
D03*
Y315420D02*
D03*
Y310301D02*
D03*
Y305183D02*
D03*
Y289829D02*
D03*
Y274475D02*
D03*
Y269357D02*
D03*
X892926Y402427D02*
D03*
Y397309D02*
D03*
Y392191D02*
D03*
Y387073D02*
D03*
Y381955D02*
D03*
Y361483D02*
D03*
Y351246D02*
D03*
Y346128D02*
D03*
Y341010D02*
D03*
Y335892D02*
D03*
Y330774D02*
D03*
Y325656D02*
D03*
Y320538D02*
D03*
Y315420D02*
D03*
Y310301D02*
D03*
Y305183D02*
D03*
Y289829D02*
D03*
Y274475D02*
D03*
Y269357D02*
D03*
X887808Y407546D02*
D03*
Y402427D02*
D03*
Y397309D02*
D03*
Y392191D02*
D03*
Y387073D02*
D03*
Y381955D02*
D03*
Y361483D02*
D03*
Y351246D02*
D03*
Y346128D02*
D03*
Y341010D02*
D03*
Y335892D02*
D03*
Y330774D02*
D03*
Y325656D02*
D03*
Y320538D02*
D03*
Y315420D02*
D03*
Y310301D02*
D03*
Y305183D02*
D03*
Y289829D02*
D03*
Y274475D02*
D03*
Y269357D02*
D03*
X882690Y407546D02*
D03*
Y402427D02*
D03*
Y397309D02*
D03*
Y392191D02*
D03*
Y387073D02*
D03*
Y381955D02*
D03*
Y361483D02*
D03*
Y351246D02*
D03*
Y346128D02*
D03*
Y341010D02*
D03*
Y335892D02*
D03*
Y330774D02*
D03*
Y325656D02*
D03*
Y320538D02*
D03*
Y315420D02*
D03*
Y310301D02*
D03*
Y305183D02*
D03*
Y289829D02*
D03*
Y274475D02*
D03*
Y269357D02*
D03*
X877572Y412664D02*
D03*
Y407546D02*
D03*
Y402427D02*
D03*
Y397309D02*
D03*
Y392191D02*
D03*
Y387073D02*
D03*
Y381955D02*
D03*
Y361483D02*
D03*
Y351246D02*
D03*
Y346128D02*
D03*
Y341010D02*
D03*
Y335892D02*
D03*
Y330774D02*
D03*
Y325656D02*
D03*
Y320538D02*
D03*
Y315420D02*
D03*
Y310301D02*
D03*
Y305183D02*
D03*
Y289829D02*
D03*
Y274475D02*
D03*
Y269357D02*
D03*
X872454Y412664D02*
D03*
Y407546D02*
D03*
Y402427D02*
D03*
Y397309D02*
D03*
Y392191D02*
D03*
Y387073D02*
D03*
Y381955D02*
D03*
Y361483D02*
D03*
Y351246D02*
D03*
Y346128D02*
D03*
Y341010D02*
D03*
Y335892D02*
D03*
Y330774D02*
D03*
Y325656D02*
D03*
Y320538D02*
D03*
Y315420D02*
D03*
Y310301D02*
D03*
Y305183D02*
D03*
Y289829D02*
D03*
Y274475D02*
D03*
Y269357D02*
D03*
X867336Y412664D02*
D03*
Y407546D02*
D03*
Y402427D02*
D03*
Y397309D02*
D03*
Y392191D02*
D03*
Y387073D02*
D03*
Y381955D02*
D03*
Y361483D02*
D03*
Y351246D02*
D03*
Y346128D02*
D03*
Y341010D02*
D03*
Y335892D02*
D03*
Y330774D02*
D03*
Y325656D02*
D03*
Y320538D02*
D03*
Y315420D02*
D03*
Y310301D02*
D03*
Y305183D02*
D03*
Y289829D02*
D03*
Y274475D02*
D03*
Y269357D02*
D03*
X862218Y412664D02*
D03*
Y407546D02*
D03*
Y402427D02*
D03*
Y397309D02*
D03*
Y392191D02*
D03*
Y387073D02*
D03*
Y381955D02*
D03*
Y361483D02*
D03*
Y351246D02*
D03*
Y346128D02*
D03*
Y341010D02*
D03*
Y335892D02*
D03*
Y330774D02*
D03*
Y325656D02*
D03*
Y320538D02*
D03*
Y315420D02*
D03*
Y310301D02*
D03*
Y305183D02*
D03*
Y289829D02*
D03*
Y274475D02*
D03*
Y269357D02*
D03*
X857100Y412664D02*
D03*
Y407546D02*
D03*
Y402427D02*
D03*
Y397309D02*
D03*
Y392191D02*
D03*
Y387073D02*
D03*
Y381955D02*
D03*
Y361483D02*
D03*
Y351246D02*
D03*
Y346128D02*
D03*
Y341010D02*
D03*
Y335892D02*
D03*
Y330774D02*
D03*
Y325656D02*
D03*
Y320538D02*
D03*
Y315420D02*
D03*
Y310301D02*
D03*
Y305183D02*
D03*
Y289829D02*
D03*
Y274475D02*
D03*
Y269357D02*
D03*
X851982Y412664D02*
D03*
Y407546D02*
D03*
Y402427D02*
D03*
Y397309D02*
D03*
Y392191D02*
D03*
Y387073D02*
D03*
Y381955D02*
D03*
Y361483D02*
D03*
Y351246D02*
D03*
Y346128D02*
D03*
Y341010D02*
D03*
Y335892D02*
D03*
Y330774D02*
D03*
Y325656D02*
D03*
Y320538D02*
D03*
Y315420D02*
D03*
Y310301D02*
D03*
Y305183D02*
D03*
Y289829D02*
D03*
Y274475D02*
D03*
Y269357D02*
D03*
X846863Y428018D02*
D03*
Y412664D02*
D03*
Y407546D02*
D03*
Y402427D02*
D03*
Y397309D02*
D03*
Y392191D02*
D03*
Y387073D02*
D03*
Y381955D02*
D03*
Y361483D02*
D03*
Y351246D02*
D03*
Y346128D02*
D03*
Y341010D02*
D03*
Y335892D02*
D03*
Y330774D02*
D03*
Y325656D02*
D03*
Y320538D02*
D03*
Y315420D02*
D03*
Y310301D02*
D03*
Y305183D02*
D03*
Y289829D02*
D03*
Y274475D02*
D03*
Y269357D02*
D03*
X841745Y428018D02*
D03*
Y412664D02*
D03*
Y407546D02*
D03*
Y402427D02*
D03*
Y397309D02*
D03*
Y392191D02*
D03*
Y387073D02*
D03*
Y381955D02*
D03*
Y361483D02*
D03*
Y351246D02*
D03*
Y346128D02*
D03*
Y341010D02*
D03*
Y335892D02*
D03*
Y330774D02*
D03*
Y325656D02*
D03*
Y320538D02*
D03*
Y315420D02*
D03*
Y310301D02*
D03*
Y305183D02*
D03*
Y289829D02*
D03*
Y274475D02*
D03*
Y269357D02*
D03*
X836627Y433136D02*
D03*
Y428018D02*
D03*
Y412664D02*
D03*
Y407546D02*
D03*
Y402427D02*
D03*
Y397309D02*
D03*
Y392191D02*
D03*
Y387073D02*
D03*
Y381955D02*
D03*
Y361483D02*
D03*
Y351246D02*
D03*
Y346128D02*
D03*
Y341010D02*
D03*
Y335892D02*
D03*
Y330774D02*
D03*
Y325656D02*
D03*
Y320538D02*
D03*
Y315420D02*
D03*
Y310301D02*
D03*
Y305183D02*
D03*
Y289829D02*
D03*
Y274475D02*
D03*
Y269357D02*
D03*
X831509Y433136D02*
D03*
Y428018D02*
D03*
Y412664D02*
D03*
Y407546D02*
D03*
Y402427D02*
D03*
Y397309D02*
D03*
Y392191D02*
D03*
Y387073D02*
D03*
Y381955D02*
D03*
Y361483D02*
D03*
Y351246D02*
D03*
Y346128D02*
D03*
Y341010D02*
D03*
Y335892D02*
D03*
Y330774D02*
D03*
Y325656D02*
D03*
Y320538D02*
D03*
Y315420D02*
D03*
Y310301D02*
D03*
Y305183D02*
D03*
Y289829D02*
D03*
Y274475D02*
D03*
Y269357D02*
D03*
X826391Y438254D02*
D03*
Y433136D02*
D03*
Y428018D02*
D03*
Y412664D02*
D03*
Y407546D02*
D03*
Y402427D02*
D03*
Y397309D02*
D03*
Y392191D02*
D03*
Y387073D02*
D03*
Y381955D02*
D03*
Y361483D02*
D03*
Y351246D02*
D03*
Y346128D02*
D03*
Y341010D02*
D03*
Y335892D02*
D03*
Y330774D02*
D03*
Y325656D02*
D03*
Y320538D02*
D03*
Y315420D02*
D03*
Y310301D02*
D03*
Y305183D02*
D03*
Y289829D02*
D03*
Y274475D02*
D03*
Y269357D02*
D03*
X821273Y433136D02*
D03*
Y428018D02*
D03*
Y412664D02*
D03*
Y407546D02*
D03*
Y402427D02*
D03*
Y397309D02*
D03*
Y392191D02*
D03*
Y387073D02*
D03*
Y381955D02*
D03*
Y371719D02*
D03*
Y361483D02*
D03*
Y351246D02*
D03*
Y346128D02*
D03*
Y341010D02*
D03*
Y335892D02*
D03*
Y330774D02*
D03*
Y325656D02*
D03*
Y320538D02*
D03*
Y315420D02*
D03*
Y310301D02*
D03*
Y305183D02*
D03*
Y289829D02*
D03*
Y274475D02*
D03*
Y269357D02*
D03*
X816155Y428018D02*
D03*
Y412664D02*
D03*
Y407546D02*
D03*
Y402427D02*
D03*
Y397309D02*
D03*
Y392191D02*
D03*
Y387073D02*
D03*
Y381955D02*
D03*
Y371719D02*
D03*
Y361483D02*
D03*
Y351246D02*
D03*
Y346128D02*
D03*
Y341010D02*
D03*
Y335892D02*
D03*
Y330774D02*
D03*
Y325656D02*
D03*
Y320538D02*
D03*
Y315420D02*
D03*
Y310301D02*
D03*
Y305183D02*
D03*
Y289829D02*
D03*
Y274475D02*
D03*
Y269357D02*
D03*
X811037Y412664D02*
D03*
Y407546D02*
D03*
Y402427D02*
D03*
Y397309D02*
D03*
Y392191D02*
D03*
Y387073D02*
D03*
Y381955D02*
D03*
Y371719D02*
D03*
Y361483D02*
D03*
Y351246D02*
D03*
Y346128D02*
D03*
Y341010D02*
D03*
Y335892D02*
D03*
Y330774D02*
D03*
Y325656D02*
D03*
Y320538D02*
D03*
Y315420D02*
D03*
Y310301D02*
D03*
Y305183D02*
D03*
Y289829D02*
D03*
Y274475D02*
D03*
Y269357D02*
D03*
X805919Y412664D02*
D03*
Y407546D02*
D03*
Y402427D02*
D03*
Y397309D02*
D03*
Y392191D02*
D03*
Y387073D02*
D03*
Y381955D02*
D03*
Y371719D02*
D03*
Y361483D02*
D03*
Y351246D02*
D03*
Y346128D02*
D03*
Y341010D02*
D03*
Y335892D02*
D03*
Y330774D02*
D03*
Y325656D02*
D03*
Y320538D02*
D03*
Y315420D02*
D03*
Y310301D02*
D03*
Y305183D02*
D03*
Y289829D02*
D03*
Y274475D02*
D03*
Y269357D02*
D03*
X800800Y412664D02*
D03*
Y407546D02*
D03*
Y402427D02*
D03*
Y397309D02*
D03*
Y392191D02*
D03*
Y387073D02*
D03*
Y381955D02*
D03*
Y371719D02*
D03*
Y361483D02*
D03*
Y351246D02*
D03*
Y346128D02*
D03*
Y341010D02*
D03*
Y335892D02*
D03*
Y330774D02*
D03*
Y325656D02*
D03*
Y320538D02*
D03*
Y315420D02*
D03*
Y310301D02*
D03*
Y305183D02*
D03*
Y289829D02*
D03*
Y274475D02*
D03*
Y269357D02*
D03*
X795682Y407546D02*
D03*
Y402427D02*
D03*
Y397309D02*
D03*
Y392191D02*
D03*
Y387073D02*
D03*
Y381955D02*
D03*
Y371719D02*
D03*
Y361483D02*
D03*
Y351246D02*
D03*
Y346128D02*
D03*
Y341010D02*
D03*
Y335892D02*
D03*
Y330774D02*
D03*
Y325656D02*
D03*
Y320538D02*
D03*
Y315420D02*
D03*
Y310301D02*
D03*
Y305183D02*
D03*
Y289829D02*
D03*
Y274475D02*
D03*
Y269357D02*
D03*
X790564Y402427D02*
D03*
Y397309D02*
D03*
Y392191D02*
D03*
Y387073D02*
D03*
Y381955D02*
D03*
Y371719D02*
D03*
Y361483D02*
D03*
Y351246D02*
D03*
Y346128D02*
D03*
Y341010D02*
D03*
Y335892D02*
D03*
Y330774D02*
D03*
Y325656D02*
D03*
Y320538D02*
D03*
Y315420D02*
D03*
Y310301D02*
D03*
Y305183D02*
D03*
Y289829D02*
D03*
Y274475D02*
D03*
Y269357D02*
D03*
X785446Y397309D02*
D03*
Y392191D02*
D03*
Y387073D02*
D03*
Y381955D02*
D03*
Y371719D02*
D03*
Y361483D02*
D03*
Y351246D02*
D03*
Y346128D02*
D03*
Y341010D02*
D03*
Y335892D02*
D03*
Y330774D02*
D03*
Y325656D02*
D03*
Y320538D02*
D03*
Y315420D02*
D03*
Y310301D02*
D03*
Y305183D02*
D03*
Y289829D02*
D03*
Y274475D02*
D03*
Y269357D02*
D03*
X780328Y392191D02*
D03*
Y387073D02*
D03*
Y371719D02*
D03*
X775210Y376837D02*
D03*
X770092Y381955D02*
D03*
X691929Y97898D02*
D03*
X736500Y98000D02*
D03*
X735172Y112172D02*
D03*
X719488Y104950D02*
D03*
X644500Y272000D02*
D03*
X80832Y294708D02*
D03*
X660000Y437500D02*
D03*
X658000Y446500D02*
D03*
X659000Y521000D02*
D03*
X665500Y529500D02*
D03*
X704641Y427362D02*
D03*
X583500Y376500D02*
D03*
X625000Y365108D02*
D03*
X649895Y368835D02*
D03*
X753000Y355000D02*
D03*
X599466Y441951D02*
D03*
X603000Y522500D02*
D03*
X611500Y440500D02*
D03*
X612285Y534240D02*
D03*
X614766Y530000D02*
D03*
X488596Y422900D02*
D03*
X483478D02*
D03*
X478360D02*
D03*
X473241D02*
D03*
X468123D02*
D03*
X463005D02*
D03*
X457887D02*
D03*
X452769D02*
D03*
X447651D02*
D03*
X442533D02*
D03*
Y417782D02*
D03*
Y412664D02*
D03*
Y407546D02*
D03*
Y402427D02*
D03*
Y397309D02*
D03*
Y392191D02*
D03*
Y387073D02*
D03*
Y381955D02*
D03*
Y376837D02*
D03*
Y371719D02*
D03*
Y366601D02*
D03*
Y361483D02*
D03*
Y356364D02*
D03*
Y351246D02*
D03*
Y346128D02*
D03*
Y341010D02*
D03*
Y335892D02*
D03*
X437415Y422900D02*
D03*
Y417782D02*
D03*
Y412664D02*
D03*
Y407546D02*
D03*
Y402427D02*
D03*
Y397309D02*
D03*
Y392191D02*
D03*
Y387073D02*
D03*
Y381955D02*
D03*
Y376837D02*
D03*
Y371719D02*
D03*
Y366601D02*
D03*
Y361483D02*
D03*
Y356364D02*
D03*
Y351246D02*
D03*
Y346128D02*
D03*
Y341010D02*
D03*
X432297Y422900D02*
D03*
Y417782D02*
D03*
Y412664D02*
D03*
Y407546D02*
D03*
Y402427D02*
D03*
Y397309D02*
D03*
Y392191D02*
D03*
Y387073D02*
D03*
Y381955D02*
D03*
Y376837D02*
D03*
Y371719D02*
D03*
Y366601D02*
D03*
Y361483D02*
D03*
Y356364D02*
D03*
Y351246D02*
D03*
Y346128D02*
D03*
Y341010D02*
D03*
X427178Y422900D02*
D03*
Y417782D02*
D03*
Y412664D02*
D03*
Y407546D02*
D03*
Y402427D02*
D03*
Y397309D02*
D03*
Y392191D02*
D03*
Y387073D02*
D03*
Y381955D02*
D03*
Y376837D02*
D03*
Y371719D02*
D03*
Y366601D02*
D03*
Y361483D02*
D03*
Y356364D02*
D03*
Y351246D02*
D03*
Y346128D02*
D03*
X422060Y422900D02*
D03*
Y417782D02*
D03*
Y412664D02*
D03*
Y407546D02*
D03*
Y402427D02*
D03*
Y397309D02*
D03*
Y392191D02*
D03*
Y387073D02*
D03*
Y381955D02*
D03*
Y376837D02*
D03*
Y371719D02*
D03*
Y366601D02*
D03*
Y361483D02*
D03*
Y356364D02*
D03*
Y351246D02*
D03*
Y346128D02*
D03*
X416942Y422900D02*
D03*
Y417782D02*
D03*
Y412664D02*
D03*
Y407546D02*
D03*
Y402427D02*
D03*
Y397309D02*
D03*
Y392191D02*
D03*
Y387073D02*
D03*
Y381955D02*
D03*
Y376837D02*
D03*
Y371719D02*
D03*
Y366601D02*
D03*
Y361483D02*
D03*
Y356364D02*
D03*
Y351246D02*
D03*
Y346128D02*
D03*
X411824Y422900D02*
D03*
Y417782D02*
D03*
Y412664D02*
D03*
Y407546D02*
D03*
Y402427D02*
D03*
Y397309D02*
D03*
Y392191D02*
D03*
Y387073D02*
D03*
Y381955D02*
D03*
Y376837D02*
D03*
Y371719D02*
D03*
Y366601D02*
D03*
Y361483D02*
D03*
Y356364D02*
D03*
Y351246D02*
D03*
X406706Y422900D02*
D03*
Y417782D02*
D03*
Y412664D02*
D03*
Y407546D02*
D03*
Y402427D02*
D03*
Y397309D02*
D03*
Y392191D02*
D03*
Y387073D02*
D03*
Y381955D02*
D03*
Y376837D02*
D03*
Y371719D02*
D03*
Y366601D02*
D03*
Y361483D02*
D03*
Y356364D02*
D03*
Y351246D02*
D03*
X401588Y428018D02*
D03*
Y422900D02*
D03*
Y417782D02*
D03*
Y412664D02*
D03*
Y407546D02*
D03*
Y402427D02*
D03*
Y397309D02*
D03*
Y392191D02*
D03*
Y387073D02*
D03*
Y381955D02*
D03*
Y376837D02*
D03*
Y371719D02*
D03*
Y366601D02*
D03*
Y361483D02*
D03*
Y356364D02*
D03*
X396470Y433136D02*
D03*
Y428018D02*
D03*
Y422900D02*
D03*
Y417782D02*
D03*
Y412664D02*
D03*
Y407546D02*
D03*
Y402427D02*
D03*
Y397309D02*
D03*
Y392191D02*
D03*
Y387073D02*
D03*
Y381955D02*
D03*
Y376837D02*
D03*
Y371719D02*
D03*
Y366601D02*
D03*
Y361483D02*
D03*
Y356364D02*
D03*
X391352Y438254D02*
D03*
Y433136D02*
D03*
Y428018D02*
D03*
Y422900D02*
D03*
Y417782D02*
D03*
Y412664D02*
D03*
Y407546D02*
D03*
Y402427D02*
D03*
Y397309D02*
D03*
Y392191D02*
D03*
Y387073D02*
D03*
Y381955D02*
D03*
Y376837D02*
D03*
Y371719D02*
D03*
Y366601D02*
D03*
Y361483D02*
D03*
X386233Y443372D02*
D03*
Y438254D02*
D03*
Y433136D02*
D03*
Y428018D02*
D03*
Y422900D02*
D03*
Y417782D02*
D03*
Y412664D02*
D03*
Y407546D02*
D03*
Y402427D02*
D03*
Y397309D02*
D03*
Y392191D02*
D03*
Y387073D02*
D03*
Y381955D02*
D03*
Y376837D02*
D03*
Y371719D02*
D03*
Y366601D02*
D03*
Y361483D02*
D03*
X381115Y448490D02*
D03*
Y443372D02*
D03*
Y438254D02*
D03*
Y433136D02*
D03*
Y428018D02*
D03*
Y422900D02*
D03*
Y417782D02*
D03*
Y412664D02*
D03*
Y407546D02*
D03*
Y402427D02*
D03*
Y397309D02*
D03*
Y392191D02*
D03*
Y387073D02*
D03*
Y381955D02*
D03*
Y376837D02*
D03*
Y371719D02*
D03*
Y366601D02*
D03*
X375997Y453609D02*
D03*
Y448490D02*
D03*
Y443372D02*
D03*
Y438254D02*
D03*
Y433136D02*
D03*
Y428018D02*
D03*
Y422900D02*
D03*
Y417782D02*
D03*
Y412664D02*
D03*
Y407546D02*
D03*
Y402427D02*
D03*
Y397309D02*
D03*
Y392191D02*
D03*
Y387073D02*
D03*
Y381955D02*
D03*
Y376837D02*
D03*
Y371719D02*
D03*
Y366601D02*
D03*
X370879Y458727D02*
D03*
Y453609D02*
D03*
Y448490D02*
D03*
Y443372D02*
D03*
Y438254D02*
D03*
Y433136D02*
D03*
Y428018D02*
D03*
Y422900D02*
D03*
Y417782D02*
D03*
Y412664D02*
D03*
Y407546D02*
D03*
Y402427D02*
D03*
Y397309D02*
D03*
Y392191D02*
D03*
Y387073D02*
D03*
Y381955D02*
D03*
Y376837D02*
D03*
Y371719D02*
D03*
Y366601D02*
D03*
X365761Y463845D02*
D03*
Y458727D02*
D03*
Y453609D02*
D03*
Y448490D02*
D03*
Y443372D02*
D03*
Y438254D02*
D03*
Y433136D02*
D03*
Y428018D02*
D03*
Y422900D02*
D03*
Y417782D02*
D03*
Y412664D02*
D03*
Y407546D02*
D03*
Y402427D02*
D03*
Y397309D02*
D03*
Y392191D02*
D03*
Y387073D02*
D03*
Y381955D02*
D03*
Y376837D02*
D03*
Y371719D02*
D03*
X360643Y463845D02*
D03*
Y458727D02*
D03*
Y453609D02*
D03*
Y448490D02*
D03*
Y443372D02*
D03*
Y438254D02*
D03*
Y433136D02*
D03*
Y428018D02*
D03*
Y422900D02*
D03*
Y417782D02*
D03*
Y412664D02*
D03*
Y407546D02*
D03*
Y402427D02*
D03*
Y397309D02*
D03*
Y392191D02*
D03*
Y387073D02*
D03*
Y381955D02*
D03*
Y376837D02*
D03*
Y371719D02*
D03*
X355525Y463845D02*
D03*
Y458727D02*
D03*
Y453609D02*
D03*
Y448490D02*
D03*
Y443372D02*
D03*
Y438254D02*
D03*
Y433136D02*
D03*
Y428018D02*
D03*
Y422900D02*
D03*
Y417782D02*
D03*
Y412664D02*
D03*
Y407546D02*
D03*
Y402427D02*
D03*
Y397309D02*
D03*
Y392191D02*
D03*
Y387073D02*
D03*
Y381955D02*
D03*
Y376837D02*
D03*
X350407Y463845D02*
D03*
Y458727D02*
D03*
Y453609D02*
D03*
Y448490D02*
D03*
Y443372D02*
D03*
Y438254D02*
D03*
Y433136D02*
D03*
Y428018D02*
D03*
Y422900D02*
D03*
Y417782D02*
D03*
Y412664D02*
D03*
Y407546D02*
D03*
Y402427D02*
D03*
Y397309D02*
D03*
Y392191D02*
D03*
Y387073D02*
D03*
Y381955D02*
D03*
Y376837D02*
D03*
X345289Y463845D02*
D03*
Y458727D02*
D03*
Y453609D02*
D03*
Y448490D02*
D03*
Y443372D02*
D03*
Y438254D02*
D03*
Y433136D02*
D03*
Y428018D02*
D03*
Y422900D02*
D03*
Y417782D02*
D03*
Y412664D02*
D03*
Y407546D02*
D03*
Y402427D02*
D03*
Y397309D02*
D03*
Y392191D02*
D03*
X340171Y463845D02*
D03*
Y458727D02*
D03*
Y453609D02*
D03*
Y448490D02*
D03*
Y443372D02*
D03*
Y438254D02*
D03*
Y433136D02*
D03*
Y428018D02*
D03*
Y422900D02*
D03*
Y417782D02*
D03*
Y412664D02*
D03*
X335052Y463845D02*
D03*
Y458727D02*
D03*
Y453609D02*
D03*
Y448490D02*
D03*
Y443372D02*
D03*
Y438254D02*
D03*
Y433136D02*
D03*
X329934Y463845D02*
D03*
Y458727D02*
D03*
Y453609D02*
D03*
X722500Y523500D02*
D03*
X711500Y443000D02*
D03*
X712500Y431500D02*
D03*
X716266Y526446D02*
D03*
X706500Y436000D02*
D03*
X707500Y526000D02*
D03*
X701500Y442000D02*
D03*
X692500Y445500D02*
D03*
X683000Y441500D02*
D03*
X674000Y445500D02*
D03*
X687992Y262481D02*
D03*
X702000Y260000D02*
D03*
X636811Y264717D02*
D03*
X702000Y529500D02*
D03*
X698000Y536500D02*
D03*
X695000Y530000D02*
D03*
X689500Y524000D02*
D03*
X635000Y284500D02*
D03*
X653500Y437500D02*
D03*
X653000Y522500D02*
D03*
X646000Y536500D02*
D03*
X649500Y452500D02*
D03*
X646500Y442500D02*
D03*
X644500Y529000D02*
D03*
X640748Y270108D02*
D03*
X641235Y436365D02*
D03*
X639000Y528500D02*
D03*
X636500Y441000D02*
D03*
X635500Y525000D02*
D03*
X631500Y437500D02*
D03*
X629500Y522500D02*
D03*
X627000Y443000D02*
D03*
X624803Y532468D02*
D03*
X619000Y528000D02*
D03*
X617500Y436500D02*
D03*
X622500Y437500D02*
D03*
X617126Y415508D02*
D03*
X613189Y424408D02*
D03*
X235000Y314500D02*
D03*
Y463000D02*
D03*
X329860Y503500D02*
D03*
X1149920Y258608D02*
D03*
X1160592Y262889D02*
D03*
X112020Y247060D02*
D03*
X673000D02*
D03*
X1157720Y257808D02*
D03*
X1169020Y241208D02*
D03*
X695866Y253308D02*
D03*
X1100254Y290342D02*
D03*
X1163320D02*
D03*
X1187620Y206008D02*
D03*
X85720Y243123D02*
D03*
X656496Y286668D02*
D03*
X148720Y267908D02*
D03*
X711077Y258608D02*
D03*
X139320Y258908D02*
D03*
X215720Y489408D02*
D03*
X530512Y150616D02*
D03*
X88320Y298708D02*
D03*
X81820Y291108D02*
D03*
X90268Y278556D02*
D03*
X1151020Y286405D02*
D03*
X631520Y275108D02*
D03*
X652559Y300808D02*
D03*
X81620Y239186D02*
D03*
X621063Y406608D02*
D03*
X714820Y186608D02*
D03*
X95620Y215508D02*
D03*
X911669Y174208D02*
D03*
X1148220Y215208D02*
D03*
X1165820Y294279D02*
D03*
D32*
X369279Y524409D02*
D03*
X353531D02*
D03*
X345657D02*
D03*
X337783D02*
D03*
X329909D02*
D03*
X322035D02*
D03*
X314161D02*
D03*
X306287D02*
D03*
M02*
