G04*
G04 #@! TF.GenerationSoftware,Altium Limited,Altium Designer,22.11.1 (43)*
G04*
G04 Layer_Color=16711935*
%FSLAX25Y25*%
%MOIN*%
G70*
G04*
G04 #@! TF.SameCoordinates,32AA8D28-F0FA-49C7-A1B0-27AA3852E6AF*
G04*
G04*
G04 #@! TF.FilePolarity,Negative*
G04*
G01*
G75*
%ADD13R,0.14973X0.03556*%
D13*
X8268Y199213D02*
D03*
Y195276D02*
D03*
Y191339D02*
D03*
Y187402D02*
D03*
Y183465D02*
D03*
Y179528D02*
D03*
Y175591D02*
D03*
Y171653D02*
D03*
Y167717D02*
D03*
Y163779D02*
D03*
Y159843D02*
D03*
Y155905D02*
D03*
Y151969D02*
D03*
Y148031D02*
D03*
Y144095D02*
D03*
Y140157D02*
D03*
Y136221D02*
D03*
Y132283D02*
D03*
Y128347D02*
D03*
Y124409D02*
D03*
Y120472D02*
D03*
Y116535D02*
D03*
Y112598D02*
D03*
Y108661D02*
D03*
Y104724D02*
D03*
Y100787D02*
D03*
Y96850D02*
D03*
Y92913D02*
D03*
Y88976D02*
D03*
Y85039D02*
D03*
Y81102D02*
D03*
Y77165D02*
D03*
Y73228D02*
D03*
Y69291D02*
D03*
Y65354D02*
D03*
Y61417D02*
D03*
Y57480D02*
D03*
Y53543D02*
D03*
Y41732D02*
D03*
Y37795D02*
D03*
Y33858D02*
D03*
Y29921D02*
D03*
Y25984D02*
D03*
Y22047D02*
D03*
Y18110D02*
D03*
Y14173D02*
D03*
Y10236D02*
D03*
Y6299D02*
D03*
Y2362D02*
D03*
X62598Y199213D02*
D03*
Y195276D02*
D03*
Y191339D02*
D03*
Y187402D02*
D03*
Y183465D02*
D03*
Y179528D02*
D03*
Y175591D02*
D03*
Y171653D02*
D03*
Y167717D02*
D03*
Y163779D02*
D03*
Y159843D02*
D03*
Y155905D02*
D03*
Y151969D02*
D03*
Y148031D02*
D03*
Y144095D02*
D03*
Y140157D02*
D03*
Y136221D02*
D03*
Y132283D02*
D03*
Y128347D02*
D03*
Y124409D02*
D03*
Y120472D02*
D03*
Y116535D02*
D03*
Y112598D02*
D03*
Y108661D02*
D03*
Y104724D02*
D03*
Y100787D02*
D03*
Y96850D02*
D03*
Y92913D02*
D03*
Y88976D02*
D03*
Y85039D02*
D03*
Y81102D02*
D03*
Y77165D02*
D03*
Y73228D02*
D03*
Y69291D02*
D03*
Y65354D02*
D03*
Y61417D02*
D03*
Y57480D02*
D03*
Y53543D02*
D03*
Y41732D02*
D03*
Y37795D02*
D03*
Y33858D02*
D03*
Y29921D02*
D03*
Y25984D02*
D03*
Y22047D02*
D03*
Y18110D02*
D03*
Y14173D02*
D03*
Y10236D02*
D03*
Y6299D02*
D03*
Y2362D02*
D03*
M02*
