G04*
G04 #@! TF.GenerationSoftware,Altium Limited,Altium Designer,22.11.1 (43)*
G04*
G04 Layer_Physical_Order=2*
G04 Layer_Color=16711680*
%FSLAX25Y25*%
%MOIN*%
G70*
G04*
G04 #@! TF.SameCoordinates,32AA8D28-F0FA-49C7-A1B0-27AA3852E6AF*
G04*
G04*
G04 #@! TF.FilePolarity,Positive*
G04*
G01*
G75*
%ADD12R,0.14173X0.02756*%
%ADD14C,0.02000*%
G36*
X46453Y47347D02*
X46479Y47216D01*
X46488Y47083D01*
X46741Y46140D01*
X46800Y46020D01*
X46843Y45894D01*
X47331Y45048D01*
X47419Y44948D01*
X47493Y44837D01*
X48183Y44147D01*
X48294Y44072D01*
X48394Y43984D01*
X49240Y43496D01*
X49366Y43453D01*
X49486Y43394D01*
X50429Y43142D01*
X50529Y43135D01*
X50626Y43109D01*
X51114Y43077D01*
X51148Y43082D01*
X51181Y43075D01*
X54512D01*
Y42232D01*
X62598D01*
Y41232D01*
X54512D01*
Y39354D01*
Y38295D01*
X62598D01*
Y37295D01*
X54512D01*
Y35417D01*
Y34358D01*
X62598D01*
Y33358D01*
X54512D01*
Y31480D01*
Y30421D01*
X62598D01*
Y29421D01*
X54512D01*
Y27543D01*
Y26484D01*
X62598D01*
Y25484D01*
X54512D01*
Y23606D01*
Y22547D01*
X62598D01*
Y21547D01*
X54512D01*
Y19669D01*
Y18610D01*
X62598D01*
Y17610D01*
X54512D01*
Y15732D01*
Y14673D01*
X62598D01*
Y13673D01*
X54512D01*
Y11795D01*
Y10736D01*
X62598D01*
Y9736D01*
X54512D01*
Y7858D01*
Y6799D01*
X62598D01*
Y5799D01*
X54512D01*
Y3921D01*
Y2862D01*
X62598D01*
Y1862D01*
X54512D01*
Y1020D01*
X16354D01*
Y1862D01*
X8268D01*
Y2862D01*
X16354D01*
Y3921D01*
Y5799D01*
X8268D01*
Y6799D01*
X16354D01*
Y7858D01*
Y9736D01*
X8268D01*
Y10736D01*
X16354D01*
Y11795D01*
Y13673D01*
X8268D01*
Y14673D01*
X16354D01*
Y15732D01*
Y17610D01*
X8268D01*
Y18610D01*
X16354D01*
Y19669D01*
Y21547D01*
X8268D01*
Y22547D01*
X16354D01*
Y23606D01*
Y25484D01*
X8268D01*
Y26484D01*
X16354D01*
Y27543D01*
Y29421D01*
X8268D01*
Y30421D01*
X16354D01*
Y31480D01*
Y33358D01*
X8268D01*
Y34358D01*
X16354D01*
Y35417D01*
Y37295D01*
X8268D01*
Y38295D01*
X16354D01*
Y39354D01*
Y41232D01*
X8268D01*
Y42232D01*
X16354D01*
Y43075D01*
X19685D01*
X19718Y43082D01*
X19752Y43077D01*
X20240Y43109D01*
X20337Y43135D01*
X20437Y43142D01*
X21380Y43394D01*
X21500Y43453D01*
X21626Y43496D01*
X22472Y43984D01*
X22572Y44072D01*
X22683Y44147D01*
X23373Y44837D01*
X23447Y44948D01*
X23535Y45048D01*
X24024Y45894D01*
X24066Y46020D01*
X24125Y46140D01*
X24378Y47083D01*
X24387Y47216D01*
X24413Y47347D01*
X24704Y47638D01*
X46162D01*
X46453Y47347D01*
D02*
G37*
D12*
X8268Y199213D02*
D03*
Y195276D02*
D03*
Y191339D02*
D03*
Y187402D02*
D03*
Y183465D02*
D03*
Y179528D02*
D03*
Y175591D02*
D03*
Y171653D02*
D03*
Y167717D02*
D03*
Y163779D02*
D03*
Y159843D02*
D03*
Y155905D02*
D03*
Y151969D02*
D03*
Y148031D02*
D03*
Y144095D02*
D03*
Y140157D02*
D03*
Y136221D02*
D03*
Y132283D02*
D03*
Y128347D02*
D03*
Y124409D02*
D03*
Y120472D02*
D03*
Y116535D02*
D03*
Y112598D02*
D03*
Y108661D02*
D03*
Y104724D02*
D03*
Y100787D02*
D03*
Y96850D02*
D03*
Y92913D02*
D03*
Y88976D02*
D03*
Y85039D02*
D03*
Y81102D02*
D03*
Y77165D02*
D03*
Y73228D02*
D03*
Y69291D02*
D03*
Y65354D02*
D03*
Y61417D02*
D03*
Y57480D02*
D03*
Y53543D02*
D03*
Y41732D02*
D03*
Y37795D02*
D03*
Y33858D02*
D03*
Y29921D02*
D03*
Y25984D02*
D03*
Y22047D02*
D03*
Y18110D02*
D03*
Y14173D02*
D03*
Y10236D02*
D03*
Y6299D02*
D03*
Y2362D02*
D03*
X62598Y199213D02*
D03*
Y195276D02*
D03*
Y191339D02*
D03*
Y187402D02*
D03*
Y183465D02*
D03*
Y179528D02*
D03*
Y175591D02*
D03*
Y171653D02*
D03*
Y167717D02*
D03*
Y163779D02*
D03*
Y159843D02*
D03*
Y155905D02*
D03*
Y151969D02*
D03*
Y148031D02*
D03*
Y144095D02*
D03*
Y140157D02*
D03*
Y136221D02*
D03*
Y132283D02*
D03*
Y128347D02*
D03*
Y124409D02*
D03*
Y120472D02*
D03*
Y116535D02*
D03*
Y112598D02*
D03*
Y108661D02*
D03*
Y104724D02*
D03*
Y100787D02*
D03*
Y96850D02*
D03*
Y92913D02*
D03*
Y88976D02*
D03*
Y85039D02*
D03*
Y81102D02*
D03*
Y77165D02*
D03*
Y73228D02*
D03*
Y69291D02*
D03*
Y65354D02*
D03*
Y61417D02*
D03*
Y57480D02*
D03*
Y53543D02*
D03*
Y41732D02*
D03*
Y37795D02*
D03*
Y33858D02*
D03*
Y29921D02*
D03*
Y25984D02*
D03*
Y22047D02*
D03*
Y18110D02*
D03*
Y14173D02*
D03*
Y10236D02*
D03*
Y6299D02*
D03*
Y2362D02*
D03*
D14*
X8268Y53543D02*
X62598D01*
X8268Y57480D02*
X62598D01*
X8268Y57480D02*
X8268Y57480D01*
X8268Y61417D02*
X8268Y61417D01*
X62598D01*
X8268Y65354D02*
X62598D01*
X8268Y65354D02*
X8268Y65354D01*
Y69291D02*
X62598D01*
X8268Y69291D02*
X8268Y69291D01*
Y73228D02*
X62598D01*
X8268Y73228D02*
X8268Y73228D01*
X8268Y77165D02*
X8268Y77165D01*
X62598D01*
X8268Y81102D02*
X8268Y81102D01*
X62598D01*
X8268Y85039D02*
X62598D01*
X8268Y85039D02*
X8268Y85039D01*
X8268Y88976D02*
X8268Y88976D01*
X62598D01*
X8268Y92913D02*
X62598D01*
X8268Y92913D02*
X8268Y92913D01*
Y96850D02*
X62598D01*
X8268Y96850D02*
X8268Y96850D01*
Y100787D02*
X62598D01*
X8268Y100787D02*
X8268Y100787D01*
X62598Y104724D02*
X62598Y104724D01*
X8268Y104724D02*
X62598D01*
X8268Y108661D02*
X62598D01*
X62598Y108661D01*
X8268Y112598D02*
X62598D01*
X62598Y112598D01*
X62598Y116535D02*
X62598Y116535D01*
X8268Y116535D02*
X62598D01*
Y120472D02*
X62598Y120473D01*
X8268Y120472D02*
X62598D01*
X8268Y124409D02*
X62598D01*
X62598Y124409D01*
X62598Y128347D02*
X62598Y128347D01*
X8268Y128347D02*
X62598D01*
Y132283D02*
X62598Y132283D01*
X8268Y132283D02*
X62598D01*
Y136221D02*
X62598Y136221D01*
X8268Y136221D02*
X62598D01*
Y140157D02*
X62598Y140157D01*
X8268Y140157D02*
X62598D01*
X8268Y144095D02*
X62598D01*
X62598Y144095D01*
X8268Y148031D02*
X62598D01*
X62598Y148031D01*
X8268Y151969D02*
X62598D01*
X62598Y151969D01*
X8268Y155905D02*
X62598D01*
X62598Y155905D01*
X8268Y159843D02*
X62598D01*
X62598Y159843D01*
X62598Y163779D02*
X62598Y163779D01*
X8268Y163779D02*
X62598D01*
Y167717D02*
X62598Y167717D01*
X8268Y167717D02*
X62598D01*
Y171653D02*
X62598Y171653D01*
X8268Y171653D02*
X62598D01*
Y175591D02*
X62598Y175591D01*
X8268Y175591D02*
X62598D01*
Y179528D02*
X62598Y179528D01*
X8268Y179528D02*
X62598D01*
Y183465D02*
X62598Y183465D01*
X8268Y183465D02*
X62598D01*
X8268Y191339D02*
X62598D01*
X62598Y191339D01*
X62598Y187402D02*
X62598Y187402D01*
X8268Y187402D02*
X62598D01*
X8268Y195276D02*
X62598D01*
X62598Y195276D01*
X62598Y199213D02*
X62598Y199213D01*
X8268Y199213D02*
X62598D01*
M02*
