G04*
G04 #@! TF.GenerationSoftware,Altium Limited,Altium Designer,22.11.1 (43)*
G04*
G04 Layer_Color=32768*
%FSLAX25Y25*%
%MOIN*%
G70*
G04*
G04 #@! TF.SameCoordinates,4D6F9E16-F8D6-4E59-8BFB-CDB79C160039*
G04*
G04*
G04 #@! TF.FilePolarity,Positive*
G04*
G01*
G75*
%ADD10C,0.00787*%
%ADD38C,0.00197*%
D10*
X909307Y150760D02*
Y158240D01*
Y150760D02*
X926630D01*
Y158240D01*
X909307D02*
X926630D01*
X909307Y126760D02*
Y134240D01*
Y126760D02*
X926630D01*
Y134240D01*
X909307D02*
X926630D01*
D38*
X1191929Y366917D02*
Y442114D01*
Y180499D02*
Y359436D01*
X1167323Y366917D02*
X1191929D01*
X1167323Y359436D02*
Y366917D01*
Y359436D02*
X1191929D01*
X1162401Y442114D02*
X1191929D01*
X1162401Y178334D02*
Y442114D01*
Y178334D02*
X1191929D01*
Y180303D01*
X492913Y58071D02*
X568110D01*
X575591D02*
X754528D01*
X568110D02*
Y82677D01*
X575591D01*
Y58071D02*
Y82677D01*
X492913Y58071D02*
Y87599D01*
X756693D01*
Y58071D02*
Y87599D01*
X754724Y58071D02*
X756693D01*
X754724Y561996D02*
X756693D01*
Y532468D02*
Y561996D01*
X492913Y532468D02*
X756693D01*
X492913D02*
Y561996D01*
X575590Y537389D02*
Y561996D01*
X568110Y537389D02*
X575590D01*
X568110D02*
Y561996D01*
X575590D02*
X754527D01*
X492913D02*
X568110D01*
X58071Y366942D02*
Y442139D01*
Y180525D02*
Y359462D01*
Y366942D02*
X82677D01*
Y359462D02*
Y366942D01*
X58071Y359462D02*
X82677D01*
X58071Y442139D02*
X87599D01*
Y178359D02*
Y442139D01*
X58071Y178359D02*
X87599D01*
X58071D02*
Y180328D01*
M02*
