  0
SECTION
  2
HEADER
  9
$ACADVER
  1
AC1015
  9
$ACADMAINTVER
 70
     6
  9
$DWGCODEPAGE
  3
ANSI_1252
  9
$INSBASE
 10
0.0
 20
0.0
 30
0.0
  9
$EXTMIN
 10
0.0
 20
0.0
 30
0.0
  9
$EXTMAX
 10
299.0
 20
139.0
 30
0.0
  9
$LIMMIN
 10
0.0
 20
0.0
  9
$LIMMAX
 10
420.0
 20
297.0
  9
$ORTHOMODE
 70
     0
  9
$REGENMODE
 70
     1
  9
$FILLMODE
 70
     1
  9
$QTEXTMODE
 70
     0
  9
$MIRRTEXT
 70
     1
  9
$LTSCALE
 40
1.0
  9
$ATTMODE
 70
     1
  9
$TEXTSIZE
 40
3.175
  9
$TRACEWID
 40
1.0
  9
$TEXTSTYLE
  7
Standard
  9
$CLAYER
  8
0
  9
$CELTYPE
  6
ByLayer
  9
$CECOLOR
 62
   256
  9
$CELTSCALE
 40
1.0
  9
$DISPSILH
 70
     0
  9
$DIMSCALE
 40
1.0
  9
$DIMASZ
 40
3.302
  9
$DIMEXO
 40
0.0
  9
$DIMDLI
 40
3.75
  9
$DIMRND
 40
0.0
  9
$DIMDLE
 40
0.0
  9
$DIMEXE
 40
3.175
  9
$DIMTP
 40
0.0
  9
$DIMTM
 40
0.0
  9
$DIMTXT
 40
3.175
  9
$DIMCEN
 40
2.5
  9
$DIMTSZ
 40
0.0
  9
$DIMTOL
 70
     0
  9
$DIMLIM
 70
     0
  9
$DIMTIH
 70
     1
  9
$DIMTOH
 70
     1
  9
$DIMSE1
 70
     0
  9
$DIMSE2
 70
     0
  9
$DIMTAD
 70
     0
  9
$DIMZIN
 70
     0
  9
$DIMBLK
  1

  9
$DIMASO
 70
     1
  9
$DIMSHO
 70
     1
  9
$DIMPOST
  1

  9
$DIMAPOST
  1

  9
$DIMALT
 70
     0
  9
$DIMALTD
 70
     3
  9
$DIMALTF
 40
0.0393700787
  9
$DIMLFAC
 40
1.0
  9
$DIMTOFL
 70
     1
  9
$DIMTVP
 40
0.0
  9
$DIMTIX
 70
     0
  9
$DIMSOXD
 70
     0
  9
$DIMSAH
 70
     0
  9
$DIMBLK1
  1

  9
$DIMBLK2
  1

  9
$DIMSTYLE
  2
ISO-25
  9
$DIMCLRD
 70
     0
  9
$DIMCLRE
 70
     0
  9
$DIMCLRT
 70
     0
  9
$DIMTFAC
 40
1.0
  9
$DIMGAP
 40
1.524
  9
$DIMJUST
 70
     0
  9
$DIMSD1
 70
     0
  9
$DIMSD2
 70
     0
  9
$DIMTOLJ
 70
     0
  9
$DIMTZIN
 70
     0
  9
$DIMALTZ
 70
     0
  9
$DIMALTTZ
 70
     0
  9
$DIMUPT
 70
     0
  9
$DIMDEC
 70
     2
  9
$DIMTDEC
 70
     2
  9
$DIMALTU
 70
     2
  9
$DIMALTTD
 70
     3
  9
$DIMTXSTY
  7
Standard
  9
$DIMAUNIT
 70
     0
  9
$DIMADEC
 70
     2
  9
$DIMALTRND
 40
0.0
  9
$DIMAZIN
 70
     0
  9
$DIMDSEP
 70
    44
  9
$DIMATFIT
 70
     3
  9
$DIMFRAC
 70
     0
  9
$DIMLDRBLK
  1

  9
$DIMLUNIT
 70
     2
  9
$DIMLWD
 70
    -2
  9
$DIMLWE
 70
    -2
  9
$DIMTMOVE
 70
     0
  9
$LUNITS
 70
     2
  9
$LUPREC
 70
     2
  9
$SKETCHINC
 40
1.0
  9
$FILLETRAD
 40
0.0
  9
$AUNITS
 70
     0
  9
$AUPREC
 70
     2
  9
$MENU
  1
.
  9
$ELEVATION
 40
0.0
  9
$PELEVATION
 40
0.0
  9
$THICKNESS
 40
0.0
  9
$LIMCHECK
 70
     0
  9
$CHAMFERA
 40
0.0
  9
$CHAMFERB
 40
0.0
  9
$CHAMFERC
 40
0.0
  9
$CHAMFERD
 40
0.0
  9
$SKPOLY
 70
     0
  9
$TDCREATE
 40
2459912.116543472
  9
$TDUCREATE
 40
2459912.074876806
  9
$TDUPDATE
 40
2459912.116606227
  9
$TDUUPDATE
 40
2459912.07493956
  9
$TDINDWG
 40
0.0000000116
  9
$TDUSRTIMER
 40
0.0000000116
  9
$USRTIMER
 70
     1
  9
$ANGBASE
 50
0.0
  9
$ANGDIR
 70
     0
  9
$PDMODE
 70
     0
  9
$PDSIZE
 40
-1.0
  9
$PLINEWID
 40
0.0
  9
$SPLFRAME
 70
     0
  9
$SPLINETYPE
 70
     6
  9
$SPLINESEGS
 70
     8
  9
$HANDSEED
  5
D3
  9
$SURFTAB1
 70
     6
  9
$SURFTAB2
 70
     6
  9
$SURFTYPE
 70
     6
  9
$SURFU
 70
     6
  9
$SURFV
 70
     6
  9
$UCSBASE
  2

  9
$UCSNAME
  2

  9
$UCSORG
 10
0.0
 20
0.0
 30
0.0
  9
$UCSXDIR
 10
1.0
 20
0.0
 30
0.0
  9
$UCSYDIR
 10
0.0
 20
1.0
 30
0.0
  9
$UCSORTHOREF
  2

  9
$UCSORTHOVIEW
 70
     0
  9
$UCSORGTOP
 10
0.0
 20
0.0
 30
0.0
  9
$UCSORGBOTTOM
 10
0.0
 20
0.0
 30
0.0
  9
$UCSORGLEFT
 10
0.0
 20
0.0
 30
0.0
  9
$UCSORGRIGHT
 10
0.0
 20
0.0
 30
0.0
  9
$UCSORGFRONT
 10
0.0
 20
0.0
 30
0.0
  9
$UCSORGBACK
 10
0.0
 20
0.0
 30
0.0
  9
$PUCSBASE
  2

  9
$PUCSNAME
  2

  9
$PUCSORG
 10
0.0
 20
0.0
 30
0.0
  9
$PUCSXDIR
 10
1.0
 20
0.0
 30
0.0
  9
$PUCSYDIR
 10
0.0
 20
1.0
 30
0.0
  9
$PUCSORTHOREF
  2

  9
$PUCSORTHOVIEW
 70
     0
  9
$PUCSORGTOP
 10
0.0
 20
0.0
 30
0.0
  9
$PUCSORGBOTTOM
 10
0.0
 20
0.0
 30
0.0
  9
$PUCSORGLEFT
 10
0.0
 20
0.0
 30
0.0
  9
$PUCSORGRIGHT
 10
0.0
 20
0.0
 30
0.0
  9
$PUCSORGFRONT
 10
0.0
 20
0.0
 30
0.0
  9
$PUCSORGBACK
 10
0.0
 20
0.0
 30
0.0
  9
$USERI1
 70
     0
  9
$USERI2
 70
     0
  9
$USERI3
 70
     0
  9
$USERI4
 70
     0
  9
$USERI5
 70
     0
  9
$USERR1
 40
0.0
  9
$USERR2
 40
0.0
  9
$USERR3
 40
0.0
  9
$USERR4
 40
0.0
  9
$USERR5
 40
0.0
  9
$WORLDVIEW
 70
     1
  9
$SHADEDGE
 70
     3
  9
$SHADEDIF
 70
    70
  9
$TILEMODE
 70
     1
  9
$MAXACTVP
 70
    64
  9
$PINSBASE
 10
0.0
 20
0.0
 30
0.0
  9
$PLIMCHECK
 70
     0
  9
$PEXTMIN
 10
1.0000000000E+20
 20
1.0000000000E+20
 30
1.0000000000E+20
  9
$PEXTMAX
 10
-1.0000000000E+20
 20
-1.0000000000E+20
 30
-1.0000000000E+20
  9
$PLIMMIN
 10
0.0
 20
0.0
  9
$PLIMMAX
 10
420.0
 20
297.0
  9
$UNITMODE
 70
     0
  9
$VISRETAIN
 70
     1
  9
$PLINEGEN
 70
     0
  9
$PSLTSCALE
 70
     1
  9
$TREEDEPTH
 70
  3020
  9
$CMLSTYLE
  2
Standard
  9
$CMLJUST
 70
     0
  9
$CMLSCALE
 40
20.0
  9
$PROXYGRAPHICS
 70
     1
  9
$MEASUREMENT
 70
     1
  9
$CELWEIGHT
370
    -1
  9
$ENDCAPS
280
     0
  9
$JOINSTYLE
280
     0
  9
$LWDISPLAY
290
     1
  9
$INSUNITS
 70
     4
  9
$HYPERLINKBASE
  1

  9
$STYLESHEET
  1

  9
$XEDIT
290
     1
  9
$CEPSNTYPE
380
     0
  9
$PSTYLEMODE
290
     1
  9
$FINGERPRINTGUID
  2
{d6e22cca-7107-4d8b-a774-c0411d5147f2}
  9
$VERSIONGUID
  2
{FAEB1C32-E019-11D5-929B-00C0DF256EC4}
  9
$EXTNAMES
290
     1
  9
$PSVPSCALE
 40
0.0
  9
$OLESTARTUP
290
     0
  0
ENDSEC
  0
SECTION
  2
CLASSES
  0
CLASS
  1
ACDBDICTIONARYWDFLT
  2
AcDbDictionaryWithDefault
  3
ObjectDBX Classes
 90
        0
280
     0
281
     0
  0
CLASS
  1
VISUALSTYLE
  2
AcDbVisualStyle
  3
ObjectDBX Classes
 90
     4095
280
     0
281
     0
  0
CLASS
  1
MATERIAL
  2
AcDbMaterial
  3
ObjectDBX Classes
 90
     1153
280
     0
281
     0
  0
CLASS
  1
SCALE
  2
AcDbScale
  3
ObjectDBX Classes
 90
     1153
280
     0
281
     0
  0
CLASS
  1
TABLESTYLE
  2
AcDbTableStyle
  3
ObjectDBX Classes
 90
     4095
280
     0
281
     0
  0
CLASS
  1
MLEADERSTYLE
  2
AcDbMLeaderStyle
  3
ACDB_MLEADERSTYLE_CLASS
 90
     4095
280
     0
281
     0
  0
CLASS
  1
SUN
  2
AcDbSun
  3
SCENEOE
 90
     1153
280
     0
281
     0
  0
CLASS
  1
ACDBPLACEHOLDER
  2
AcDbPlaceHolder
  3
ObjectDBX Classes
 90
        0
280
     0
281
     0
  0
CLASS
  1
LAYOUT
  2
AcDbLayout
  3
ObjectDBX Classes
 90
        0
280
     0
281
     0
  0
ENDSEC
  0
SECTION
  2
TABLES
  0
TABLE
  2
VPORT
  5
8
330
0
100
AcDbSymbolTable
 70
     1
  0
VPORT
  5
29
330
8
100
AcDbSymbolTableRecord
100
AcDbViewportTableRecord
  2
*Active
 70
     0
 10
0.0
 20
0.0
 11
1.0
 21
1.0
 12
149.5
 22
69.5
 13
0.0
 23
0.0
 14
10.0
 24
10.0
 15
10.0
 25
10.0
 16
0.0
 26
0.0
 36
1.0
 17
0.0
 27
0.0
 37
0.0
 40
141.78
 41
2.1510791367
 42
50.0
 43
0.0
 44
0.0
 50
0.0
 51
0.0
 71
     0
 72
   100
 73
     1
 74
     3
 75
     0
 76
     0
 77
     0
 78
     0
281
     0
 65
     1
110
0.0
120
0.0
130
0.0
111
1.0
121
0.0
131
0.0
112
0.0
122
1.0
132
0.0
 79
     0
146
0.0
  0
ENDTAB
  0
TABLE
  2
LTYPE
  5
5
330
0
100
AcDbSymbolTable
 70
     6
  0
LTYPE
  5
14
330
5
100
AcDbSymbolTableRecord
100
AcDbLinetypeTableRecord
  2
ByBlock
 70
     0
  3

 72
    65
 73
     0
 40
0.0
  0
LTYPE
  5
15
330
5
100
AcDbSymbolTableRecord
100
AcDbLinetypeTableRecord
  2
ByLayer
 70
     0
  3

 72
    65
 73
     0
 40
0.0
  0
LTYPE
  5
16
330
5
100
AcDbSymbolTableRecord
100
AcDbLinetypeTableRecord
  2
Continuous
 70
     0
  3
Solid line
 72
    65
 73
     0
 40
0.0
  0
LTYPE
  5
5E
330
5
100
AcDbSymbolTableRecord
100
AcDbLinetypeTableRecord
  2
HIDDEN
 70
     0
  3
Hidden __ __ __ __ __ __ __ __ __ __ __ __ __ __
 72
    65
 73
     2
 40
1.905
 49
1.27
 74
     0
 49
-0.635
 74
     0
  0
LTYPE
  5
5F
330
5
100
AcDbSymbolTableRecord
100
AcDbLinetypeTableRecord
  2
PHANTOM
 70
     0
  3
Phantom ______  __  __  ______  __  __  ______
 72
    65
 73
     6
 40
12.7
 49
6.35
 74
     0
 49
-1.27
 74
     0
 49
1.27
 74
     0
 49
-1.27
 74
     0
 49
1.27
 74
     0
 49
-1.27
 74
     0
  0
LTYPE
  5
60
330
5
100
AcDbSymbolTableRecord
100
AcDbLinetypeTableRecord
  2
CENTER
 70
     0
  3
Center ____ _ ____ _ ____ _ ____ _ ____ _ ____
 72
    65
 73
     4
 40
10.16
 49
6.35
 74
     0
 49
-1.27
 74
     0
 49
1.27
 74
     0
 49
-1.27
 74
     0
  0
LTYPE
  5
61
330
5
100
AcDbSymbolTableRecord
100
AcDbLinetypeTableRecord
  2
CENTERX2
 70
     0
  3
Center (2x) ________  __  ________  __  _____
 72
    65
 73
     4
 40
20.32
 49
12.7
 74
     0
 49
-2.54
 74
     0
 49
2.54
 74
     0
 49
-2.54
 74
     0
  0
LTYPE
  5
62
330
5
100
AcDbSymbolTableRecord
100
AcDbLinetypeTableRecord
  2
DOT2
 70
     0
  3
Dot (.5x) ........................................
 72
    65
 73
     2
 40
0.635
 49
0.0
 74
     0
 49
-0.635
 74
     0
  0
ENDTAB
  0
TABLE
  2
LAYER
  5
2
330
0
100
AcDbSymbolTable
 70
     1
  0
LAYER
  5
10
330
2
100
AcDbSymbolTableRecord
100
AcDbLayerTableRecord
  2
0
 70
     0
 62
     7
  6
Continuous
370
    -3
390
F
  0
ENDTAB
  0
TABLE
  2
STYLE
  5
3
330
0
100
AcDbSymbolTable
 70
     2
  0
STYLE
  5
11
330
3
100
AcDbSymbolTableRecord
100
AcDbTextStyleTableRecord
  2
Standard
 70
     0
 40
0.0
 41
1.0
 50
0.0
 71
     0
 42
3.175
  3
txt
  4

  0
STYLE
  5
CF
330
3
100
AcDbSymbolTableRecord
100
AcDbTextStyleTableRecord
  2
SLDTEXTSTYLE0
 70
     0
 40
0.0
 41
0.7
 50
0.0
 71
     0
 42
3.175
  3
TXT
  4

  0
ENDTAB
  0
TABLE
  2
VIEW
  5
6
330
0
100
AcDbSymbolTable
 70
     0
  0
ENDTAB
  0
TABLE
  2
UCS
  5
7
330
0
100
AcDbSymbolTable
 70
     0
  0
ENDTAB
  0
TABLE
  2
APPID
  5
9
330
0
100
AcDbSymbolTable
 70
     1
  0
APPID
  5
12
330
9
100
AcDbSymbolTableRecord
100
AcDbRegAppTableRecord
  2
ACAD
 70
     0
  0
ENDTAB
  0
TABLE
  2
DIMSTYLE
  5
A
330
0
100
AcDbSymbolTable
 70
     1
100
AcDbDimStyleTable
  0
DIMSTYLE
105
27
330
A
100
AcDbSymbolTableRecord
100
AcDbDimStyleTableRecord
  2
ISO-25
 70
     0
 41
2.5
 42
0.625
 43
3.75
 44
1.25
 73
     0
 74
     0
 77
     1
 78
     8
140
2.5
141
2.5
143
0.0393700787
147
0.625
171
     3
172
     1
178
     0
271
     2
272
     2
274
     3
278
    44
283
     0
284
     8
340
11
  0
ENDTAB
  0
TABLE
  2
BLOCK_RECORD
  5
1
330
0
100
AcDbSymbolTable
 70
     1
  0
BLOCK_RECORD
  5
1F
330
1
100
AcDbSymbolTableRecord
100
AcDbBlockTableRecord
  2
*Model_Space
340
22
  0
BLOCK_RECORD
  5
1B
330
1
100
AcDbSymbolTableRecord
100
AcDbBlockTableRecord
  2
*Paper_Space
340
1E
  0
BLOCK_RECORD
  5
23
330
1
100
AcDbSymbolTableRecord
100
AcDbBlockTableRecord
  2
*Paper_Space0
340
26
  0
ENDTAB
  0
ENDSEC
  0
SECTION
  2
BLOCKS
  0
BLOCK
  5
20
330
1F
100
AcDbEntity
  8
0
100
AcDbBlockBegin
  2
*Model_Space
 70
     0
 10
0.0
 20
0.0
 30
0.0
  3
*Model_Space
  1

  0
ENDBLK
  5
21
330
1F
100
AcDbEntity
  8
0
100
AcDbBlockEnd
  0
BLOCK
  5
1C
330
1B
100
AcDbEntity
 67
     1
  8
0
100
AcDbBlockBegin
  2
*Paper_Space
 70
     0
 10
0.0
 20
0.0
 30
0.0
  3
*Paper_Space
  1

  0
ENDBLK
  5
1D
330
1B
100
AcDbEntity
 67
     1
  8
0
100
AcDbBlockEnd
  0
BLOCK
  5
24
330
23
100
AcDbEntity
  8
0
100
AcDbBlockBegin
  2
*Paper_Space0
 70
     0
 10
0.0
 20
0.0
 30
0.0
  3
*Paper_Space0
  1

  0
ENDBLK
  5
25
330
23
100
AcDbEntity
  8
0
100
AcDbBlockEnd
  0
ENDSEC
  0
SECTION
  2
ENTITIES
  0
LINE
  5
63
330
1F
100
AcDbEntity
  8
0
  6
CENTERX2
 62
     7
100
AcDbLine
 10
0.0
 20
69.5
 30
0.0
 11
32.5
 21
69.5
 31
0.0
  0
LINE
  5
64
330
1F
100
AcDbEntity
  8
0
  6
Continuous
 62
     7
100
AcDbLine
 10
0.0
 20
139.0
 30
0.0
 11
299.0
 21
139.0
 31
0.0
  0
LINE
  5
65
330
1F
100
AcDbEntity
  8
0
  6
Continuous
 62
     7
100
AcDbLine
 10
0.0
 20
139.0
 30
0.0
 11
0.0
 21
0.0
 31
0.0
  0
LINE
  5
66
330
1F
100
AcDbEntity
  8
0
  6
Continuous
 62
     7
100
AcDbLine
 10
0.0
 20
0.0
 30
0.0
 11
299.0
 21
0.0
 31
0.0
  0
LINE
  5
67
330
1F
100
AcDbEntity
  8
0
  6
Continuous
 62
     7
100
AcDbLine
 10
299.0
 20
139.0
 30
0.0
 11
299.0
 21
0.0
 31
0.0
  0
LINE
  5
68
330
1F
100
AcDbEntity
  8
0
  6
CENTERX2
 62
     7
100
AcDbLine
 10
0.0
 20
69.5
 30
0.0
 11
299.0
 21
69.5
 31
0.0
  0
LINE
  5
69
330
1F
100
AcDbEntity
  8
0
  6
CENTERX2
 62
     7
100
AcDbLine
 10
149.5
 20
139.0
 30
0.0
 11
149.5
 21
0.0
 31
0.0
  0
LINE
  5
6A
330
1F
100
AcDbEntity
  8
0
  6
CENTERX2
 62
     7
100
AcDbLine
 10
32.5
 20
139.0
 30
0.0
 11
32.5
 21
0.0
 31
0.0
  0
LINE
  5
6B
330
1F
100
AcDbEntity
  8
0
  6
CENTERX2
 62
     7
100
AcDbLine
 10
266.5
 20
139.0
 30
0.0
 11
266.5
 21
0.0
 31
0.0
  0
LINE
  5
6C
330
1F
100
AcDbEntity
  8
0
  6
CENTERX2
 62
     7
100
AcDbLine
 10
299.0
 20
69.5
 30
0.0
 11
266.5
 21
69.5
 31
0.0
  0
LINE
  5
6D
330
1F
100
AcDbEntity
  8
0
  6
CENTERX2
 62
     7
100
AcDbLine
 10
32.5
 20
139.0
 30
0.0
 11
32.5
 21
84.5
 31
0.0
  0
LINE
  5
6E
330
1F
100
AcDbEntity
  8
0
  6
CENTERX2
 62
     7
100
AcDbLine
 10
266.5
 20
139.0
 30
0.0
 11
266.5
 21
84.5
 31
0.0
  0
LINE
  5
6F
330
1F
100
AcDbEntity
  8
0
  6
CENTERX2
 62
     7
100
AcDbLine
 10
0.0
 20
139.0
 30
0.0
 11
0.0
 21
102.4
 31
0.0
  0
LINE
  5
70
330
1F
100
AcDbEntity
  8
0
  6
CENTERX2
 62
     7
100
AcDbLine
 10
299.0
 20
139.0
 30
0.0
 11
299.0
 21
102.4
 31
0.0
  0
LINE
  5
71
330
1F
100
AcDbEntity
  8
0
  6
CENTERX2
 62
     7
100
AcDbLine
 10
299.0
 20
0.0
 30
0.0
 11
299.0
 21
36.6
 31
0.0
  0
LINE
  5
72
330
1F
100
AcDbEntity
  8
0
  6
CENTERX2
 62
     7
100
AcDbLine
 10
0.0
 20
0.0
 30
0.0
 11
0.0
 21
36.6
 31
0.0
  0
LINE
  5
73
330
1F
100
AcDbEntity
  8
0
  6
CENTERX2
 62
     7
100
AcDbLine
 10
0.0
 20
0.0
 30
0.0
 11
116.6
 21
0.0
 31
0.0
  0
LINE
  5
74
330
1F
100
AcDbEntity
  8
0
  6
CENTERX2
 62
     7
100
AcDbLine
 10
299.0
 20
0.0
 30
0.0
 11
182.4
 21
0.0
 31
0.0
  0
LINE
  5
75
330
1F
100
AcDbEntity
  8
0
  6
CENTERX2
 62
     7
100
AcDbLine
 10
299.0
 20
139.0
 30
0.0
 11
182.4
 21
139.0
 31
0.0
  0
LINE
  5
76
330
1F
100
AcDbEntity
  8
0
  6
CENTERX2
 62
     7
100
AcDbLine
 10
0.0
 20
139.0
 30
0.0
 11
116.6
 21
139.0
 31
0.0
  0
SPLINE
  5
93
330
1F
100
AcDbEntity
  8
0
  6
Continuous
 62
     7
370
    25
100
AcDbSpline
210
0.0
220
0.0
230
1.0
 70
    11
 71
     3
 72
    26
 73
    22
 74
     0
 42
0.00000001
 43
0.00000001
 40
0.0
 40
0.0
 40
0.0
 40
0.0
 40
0.0536887269338409
 40
0.1073774538676147
 40
0.161066180801532
 40
0.2147549077353887
 40
0.2684436346692241
 40
0.3221323616030803
 40
0.375821088536939
 40
0.4295098154707805
 40
0.4831985424046211
 40
0.5368872693384387
 40
0.5905759962717916
 40
0.6442647232060111
 40
0.6979534501400462
 40
0.7516421770738912
 40
0.8053309040077319
 40
0.8590196309415346
 40
0.9127083578754382
 40
0.9663970848092881
 40
1.0
 40
1.0
 40
1.0
 40
1.0
 10
263.2700000000197
 20
73.6099999999312
 30
0.0
 10
263.3487137000059
 20
73.61773947855683
 30
0.0
 10
263.5061410999783
 20
73.63321843580808
 30
0.0
 10
263.7156590822265
 20
73.75388532632873
 30
0.0
 10
263.8749323836176
 20
73.93158374894988
 30
0.0
 10
263.9660041476332
 20
74.15346398128749
 30
0.0
 10
263.9786067237118
 20
74.39258564910735
 30
0.0
 10
263.9113192670648
 20
74.62250541616511
 30
0.0
 10
263.7717279277642
 20
74.81716336247811
 30
0.0
 10
263.5755705712986
 20
74.95465030479676
 30
0.0
 10
263.3449624482914
 20
75.01945574940513
 30
0.0
 10
263.1059028876477
 20
75.00427588610286
 30
0.0
 10
262.8853439952036
 20
74.91082196491678
 30
0.0
 10
262.7081522853103
 20
74.74962835210074
 30
0.0
 10
262.5943041359621
 20
74.53887598689431
 30
0.0
 10
262.5566374626921
 20
74.3022971255142
 30
0.0
 10
262.5993899390702
 20
74.06667055475907
 30
0.0
 10
262.7177749798173
 20
73.85816459808547
 30
0.0
 10
262.8983207992515
 20
73.70176754558071
 30
0.0
 10
263.0933513975004
 20
73.62108106025259
 30
0.0
 10
263.2209001220696
 20
73.61308000566902
 30
0.0
 10
263.2700000000197
 20
73.6099999999312
 30
0.0
  0
SPLINE
  5
94
330
1F
100
AcDbEntity
  8
0
  6
Continuous
 62
     7
370
    25
100
AcDbSpline
210
0.0
220
0.0
230
1.0
 70
    11
 71
     3
 72
    26
 73
    22
 74
     0
 42
0.00000001
 43
0.00000001
 40
0.0
 40
0.0
 40
0.0
 40
0.0
 40
0.0536887269338608
 40
0.1073774538676441
 40
0.1610661808015457
 40
0.2147549077353859
 40
0.2684436346692483
 40
0.3221323616031057
 40
0.3758210885369454
 40
0.4295098154707941
 40
0.4831985424046333
 40
0.5368872693384766
 40
0.5905759962718005
 40
0.6442647232059975
 40
0.6979534501400342
 40
0.7516421770738954
 40
0.8053309040077251
 40
0.8590196309415448
 40
0.9127083578754488
 40
0.9663970848093199
 40
1.0
 40
1.0
 40
1.0
 40
1.0
 10
260.7300000000197
 20
73.6099999999312
 30
0.0
 10
260.808713700006
 20
73.61773947855683
 30
0.0
 10
260.9661410999784
 20
73.63321843580809
 30
0.0
 10
261.1756590822266
 20
73.75388532632874
 30
0.0
 10
261.3349323836176
 20
73.93158374894996
 30
0.0
 10
261.4260041476332
 20
74.1534639812875
 30
0.0
 10
261.4386067237119
 20
74.39258564910742
 30
0.0
 10
261.3713192670646
 20
74.62250541616514
 30
0.0
 10
261.2317279277642
 20
74.81716336247814
 30
0.0
 10
261.0355705712985
 20
74.95465030479677
 30
0.0
 10
260.8049624482913
 20
75.01945574940513
 30
0.0
 10
260.5659028876476
 20
75.00427588610286
 30
0.0
 10
260.3453439952036
 20
74.91082196491672
 30
0.0
 10
260.1681522853104
 20
74.74962835210074
 30
0.0
 10
260.0543041359622
 20
74.53887598689433
 30
0.0
 10
260.0166374626921
 20
74.3022971255142
 30
0.0
 10
260.0593899390703
 20
74.06667055475906
 30
0.0
 10
260.1777749798172
 20
73.85816459808541
 30
0.0
 10
260.3583207992515
 20
73.70176754558074
 30
0.0
 10
260.5533513975006
 20
73.62108106025256
 30
0.0
 10
260.6809001220697
 20
73.61308000566902
 30
0.0
 10
260.7300000000197
 20
73.6099999999312
 30
0.0
  0
SPLINE
  5
95
330
1F
100
AcDbEntity
  8
0
  6
Continuous
 62
     7
370
    25
100
AcDbSpline
210
0.0
220
0.0
230
1.0
 70
    11
 71
     3
 72
    26
 73
    22
 74
     0
 42
0.00000001
 43
0.00000001
 40
0.0
 40
0.0
 40
0.0
 40
0.0
 40
0.0536887269338338
 40
0.1073774538676124
 40
0.1610661808015296
 40
0.2147549077353888
 40
0.2684436346692278
 40
0.3221323616030778
 40
0.3758210885369189
 40
0.4295098154707694
 40
0.4831985424046246
 40
0.5368872693384491
 40
0.5905759962717794
 40
0.6442647232059822
 40
0.6979534501400246
 40
0.7516421770738774
 40
0.8053309040077343
 40
0.8590196309415339
 40
0.912708357875428
 40
0.9663970848092749
 40
1.0
 40
1.0
 40
1.0
 40
1.0
 10
263.2700000000198
 20
76.14999999993121
 30
0.0
 10
263.3487137000059
 20
76.15773947855683
 30
0.0
 10
263.5061410999784
 20
76.17321843580807
 30
0.0
 10
263.7156590822265
 20
76.29388532632869
 30
0.0
 10
263.8749323836176
 20
76.47158374894985
 30
0.0
 10
263.9660041476332
 20
76.69346398128745
 30
0.0
 10
263.9786067237118
 20
76.93258564910734
 30
0.0
 10
263.9113192670648
 20
77.16250541616506
 30
0.0
 10
263.7717279277643
 20
77.35716336247809
 30
0.0
 10
263.5755705712986
 20
77.4946503047967
 30
0.0
 10
263.3449624482914
 20
77.55945574940516
 30
0.0
 10
263.1059028876477
 20
77.54427588610282
 30
0.0
 10
262.8853439952036
 20
77.45082196491681
 30
0.0
 10
262.7081522853105
 20
77.28962835210079
 30
0.0
 10
262.5943041359623
 20
77.07887598689439
 30
0.0
 10
262.556637462692
 20
76.84229712551422
 30
0.0
 10
262.5993899390704
 20
76.6066705547591
 30
0.0
 10
262.7177749798172
 20
76.39816459808544
 30
0.0
 10
262.8983207992515
 20
76.24176754558079
 30
0.0
 10
263.0933513975004
 20
76.16108106025258
 30
0.0
 10
263.2209001220697
 20
76.15308000566904
 30
0.0
 10
263.2700000000198
 20
76.14999999993121
 30
0.0
  0
SPLINE
  5
96
330
1F
100
AcDbEntity
  8
0
  6
Continuous
 62
     7
370
    25
100
AcDbSpline
210
0.0
220
0.0
230
1.0
 70
    11
 71
     3
 72
    26
 73
    22
 74
     0
 42
0.00000001
 43
0.00000001
 40
0.0
 40
0.0
 40
0.0
 40
0.0
 40
0.0536887269338602
 40
0.1073774538676328
 40
0.161066180801553
 40
0.2147549077353961
 40
0.2684436346692481
 40
0.3221323616030892
 40
0.3758210885369399
 40
0.4295098154707889
 40
0.4831985424046397
 40
0.5368872693384833
 40
0.5905759962717898
 40
0.644264723206
 40
0.697953450140053
 40
0.7516421770739049
 40
0.8053309040077484
 40
0.8590196309415469
 40
0.9127083578754449
 40
0.9663970848093014
 40
1.0
 40
1.0
 40
1.0
 40
1.0
 10
260.7300000000197
 20
76.14999999993121
 30
0.0
 10
260.808713700006
 20
76.15773947855685
 30
0.0
 10
260.9661410999784
 20
76.17321843580811
 30
0.0
 10
261.1756590822266
 20
76.29388532632873
 30
0.0
 10
261.3349323836177
 20
76.47158374894998
 30
0.0
 10
261.4260041476332
 20
76.69346398128755
 30
0.0
 10
261.4386067237119
 20
76.93258564910742
 30
0.0
 10
261.3713192670647
 20
77.16250541616513
 30
0.0
 10
261.2317279277642
 20
77.35716336247813
 30
0.0
 10
261.0355705712985
 20
77.49465030479679
 30
0.0
 10
260.8049624482912
 20
77.55945574940513
 30
0.0
 10
260.5659028876476
 20
77.54427588610281
 30
0.0
 10
260.3453439952036
 20
77.45082196491673
 30
0.0
 10
260.1681522853103
 20
77.28962835210072
 30
0.0
 10
260.0543041359621
 20
77.07887598689427
 30
0.0
 10
260.016637462692
 20
76.84229712551414
 30
0.0
 10
260.0593899390702
 20
76.606670554759
 30
0.0
 10
260.1777749798173
 20
76.39816459808543
 30
0.0
 10
260.3583207992515
 20
76.24176754558071
 30
0.0
 10
260.5533513975005
 20
76.16108106025257
 30
0.0
 10
260.6809001220696
 20
76.15308000566904
 30
0.0
 10
260.7300000000197
 20
76.14999999993121
 30
0.0
  0
SPLINE
  5
97
330
1F
100
AcDbEntity
  8
0
  6
Continuous
 62
     7
370
    25
100
AcDbSpline
210
0.0
220
0.0
230
1.0
 70
    11
 71
     3
 72
    26
 73
    22
 74
     0
 42
0.00000001
 43
0.00000001
 40
0.0
 40
0.0
 40
0.0
 40
0.0
 40
0.0536887269338667
 40
0.1073774538676499
 40
0.1610661808015705
 40
0.2147549077354234
 40
0.2684436346692596
 40
0.322132361603109
 40
0.3758210885369689
 40
0.4295098154708216
 40
0.4831985424046681
 40
0.5368872693384743
 40
0.5905759962718168
 40
0.6442647232060212
 40
0.6979534501400689
 40
0.751642177073902
 40
0.8053309040077397
 40
0.8590196309415623
 40
0.9127083578754492
 40
0.9663970848093203
 40
1.0
 40
1.0
 40
1.0
 40
1.0
 10
263.2700000000197
 20
78.68999999993117
 30
0.0
 10
263.348713700006
 20
78.69773947855681
 30
0.0
 10
263.5061410999784
 20
78.71321843580806
 30
0.0
 10
263.7156590822266
 20
78.83388532632875
 30
0.0
 10
263.8749323836178
 20
79.01158374894999
 30
0.0
 10
263.9660041476332
 20
79.23346398128758
 30
0.0
 10
263.9786067237119
 20
79.47258564910746
 30
0.0
 10
263.9113192670646
 20
79.70250541616515
 30
0.0
 10
263.7717279277642
 20
79.89716336247821
 30
0.0
 10
263.5755705712984
 20
80.03465030479674
 30
0.0
 10
263.3449624482912
 20
80.09945574940518
 30
0.0
 10
263.1059028876476
 20
80.08427588610277
 30
0.0
 10
262.8853439952035
 20
79.9908219649167
 30
0.0
 10
262.7081522853103
 20
79.82962835210063
 30
0.0
 10
262.5943041359621
 20
79.61887598689422
 30
0.0
 10
262.5566374626921
 20
79.3822971255141
 30
0.0
 10
262.5993899390702
 20
79.146670554759
 30
0.0
 10
262.7177749798173
 20
78.93816459808536
 30
0.0
 10
262.8983207992515
 20
78.78176754558069
 30
0.0
 10
263.0933513975006
 20
78.70108106025253
 30
0.0
 10
263.2209001220697
 20
78.69308000566899
 30
0.0
 10
263.2700000000197
 20
78.68999999993117
 30
0.0
  0
SPLINE
  5
98
330
1F
100
AcDbEntity
  8
0
  6
Continuous
 62
     7
370
    25
100
AcDbSpline
210
0.0
220
0.0
230
1.0
 70
    11
 71
     3
 72
    26
 73
    22
 74
     0
 42
0.00000001
 43
0.00000001
 40
0.0
 40
0.0
 40
0.0
 40
0.0
 40
0.0536887269338465
 40
0.1073774538676305
 40
0.1610661808015622
 40
0.2147549077353908
 40
0.2684436346692451
 40
0.3221323616030807
 40
0.3758210885369435
 40
0.4295098154707921
 40
0.4831985424046378
 40
0.5368872693384806
 40
0.5905759962717894
 40
0.644264723205989
 40
0.6979534501400235
 40
0.7516421770738833
 40
0.8053309040077319
 40
0.8590196309415441
 40
0.9127083578754355
 40
0.9663970848092761
 40
1.0
 40
1.0
 40
1.0
 40
1.0
 10
260.7300000000197
 20
68.5299999999312
 30
0.0
 10
260.808713700006
 20
68.53773947855684
 30
0.0
 10
260.9661410999784
 20
68.55321843580809
 30
0.0
 10
261.1756590822266
 20
68.67388532632872
 30
0.0
 10
261.3349323836177
 20
68.85158374894995
 30
0.0
 10
261.4260041476333
 20
69.07346398128753
 30
0.0
 10
261.4386067237119
 20
69.31258564910738
 30
0.0
 10
261.3713192670647
 20
69.54250541616514
 30
0.0
 10
261.2317279277642
 20
69.7371633624781
 30
0.0
 10
261.0355705712985
 20
69.87465030479677
 30
0.0
 10
260.8049624482912
 20
69.93945574940514
 30
0.0
 10
260.5659028876477
 20
69.92427588610283
 30
0.0
 10
260.3453439952036
 20
69.83082196491672
 30
0.0
 10
260.1681522853104
 20
69.66962835210076
 30
0.0
 10
260.0543041359621
 20
69.45887598689436
 30
0.0
 10
260.016637462692
 20
69.22229712551423
 30
0.0
 10
260.0593899390702
 20
68.98667055475904
 30
0.0
 10
260.1777749798172
 20
68.77816459808544
 30
0.0
 10
260.3583207992515
 20
68.6217675455808
 30
0.0
 10
260.5533513975005
 20
68.54108106025255
 30
0.0
 10
260.6809001220695
 20
68.53308000566902
 30
0.0
 10
260.7300000000197
 20
68.5299999999312
 30
0.0
  0
SPLINE
  5
99
330
1F
100
AcDbEntity
  8
0
  6
Continuous
 62
     7
370
    25
100
AcDbSpline
210
0.0
220
0.0
230
1.0
 70
    11
 71
     3
 72
    26
 73
    22
 74
     0
 42
0.00000001
 43
0.00000001
 40
0.0
 40
0.0
 40
0.0
 40
0.0
 40
0.0536887269338401
 40
0.1073774538676177
 40
0.1610661808015375
 40
0.2147549077353983
 40
0.268443634669228
 40
0.3221323616030937
 40
0.3758210885369294
 40
0.4295098154707875
 40
0.4831985424046342
 40
0.5368872693384648
 40
0.590575996271805
 40
0.6442647232059828
 40
0.6979534501400321
 40
0.7516421770738789
 40
0.8053309040077399
 40
0.8590196309415474
 40
0.9127083578754415
 40
0.9663970848092693
 40
0.9999999999999999
 40
0.9999999999999999
 40
0.9999999999999999
 40
0.9999999999999999
 10
263.2700000000197
 20
71.06999999993121
 30
0.0
 10
263.3487137000059
 20
71.07773947855684
 30
0.0
 10
263.5061410999783
 20
71.09321843580807
 30
0.0
 10
263.7156590822265
 20
71.2138853263287
 30
0.0
 10
263.8749323836176
 20
71.39158374894993
 30
0.0
 10
263.9660041476333
 20
71.61346398128745
 30
0.0
 10
263.9786067237119
 20
71.85258564910737
 30
0.0
 10
263.9113192670648
 20
72.08250541616506
 30
0.0
 10
263.7717279277643
 20
72.2771633624781
 30
0.0
 10
263.5755705712986
 20
72.41465030479674
 30
0.0
 10
263.3449624482913
 20
72.47945574940513
 30
0.0
 10
263.1059028876477
 20
72.46427588610284
 30
0.0
 10
262.8853439952036
 20
72.37082196491677
 30
0.0
 10
262.7081522853105
 20
72.20962835210076
 30
0.0
 10
262.5943041359622
 20
71.9988759868944
 30
0.0
 10
262.556637462692
 20
71.76229712551424
 30
0.0
 10
262.5993899390704
 20
71.52667055475911
 30
0.0
 10
262.7177749798172
 20
71.31816459808542
 30
0.0
 10
262.8983207992515
 20
71.16176754558077
 30
0.0
 10
263.0933513975004
 20
71.08108106025256
 30
0.0
 10
263.2209001220696
 20
71.07308000566901
 30
0.0
 10
263.2700000000197
 20
71.06999999993121
 30
0.0
  0
SPLINE
  5
9A
330
1F
100
AcDbEntity
  8
0
  6
Continuous
 62
     7
370
    25
100
AcDbSpline
210
0.0
220
0.0
230
1.0
 70
    11
 71
     3
 72
    26
 73
    22
 74
     0
 42
0.00000001
 43
0.00000001
 40
0.0
 40
0.0
 40
0.0
 40
0.0
 40
0.0536887269338334
 40
0.1073774538676044
 40
0.1610661808015438
 40
0.2147549077353888
 40
0.2684436346692338
 40
0.3221323616030602
 40
0.3758210885369298
 40
0.4295098154707825
 40
0.483198542404623
 40
0.5368872693384595
 40
0.5905759962717785
 40
0.644264723205978
 40
0.6979534501400286
 40
0.7516421770738758
 40
0.8053309040077187
 40
0.859019630941527
 40
0.9127083578754218
 40
0.9663970848092689
 40
1.0
 40
1.0
 40
1.0
 40
1.0
 10
260.7300000000197
 20
71.06999999993121
 30
0.0
 10
260.808713700006
 20
71.07773947855684
 30
0.0
 10
260.9661410999783
 20
71.09321843580807
 30
0.0
 10
261.1756590822265
 20
71.21388532632871
 30
0.0
 10
261.3349323836176
 20
71.3915837489499
 30
0.0
 10
261.4260041476333
 20
71.61346398128747
 30
0.0
 10
261.4386067237118
 20
71.85258564910733
 30
0.0
 10
261.3713192670648
 20
72.08250541616506
 30
0.0
 10
261.2317279277643
 20
72.27716336247805
 30
0.0
 10
261.0355705712986
 20
72.41465030479674
 30
0.0
 10
260.8049624482913
 20
72.47945574940513
 30
0.0
 10
260.5659028876477
 20
72.46427588610285
 30
0.0
 10
260.3453439952036
 20
72.37082196491676
 30
0.0
 10
260.1681522853104
 20
72.20962835210082
 30
0.0
 10
260.0543041359621
 20
71.99887598689442
 30
0.0
 10
260.0166374626921
 20
71.76229712551425
 30
0.0
 10
260.0593899390703
 20
71.52667055475915
 30
0.0
 10
260.1777749798172
 20
71.31816459808546
 30
0.0
 10
260.3583207992515
 20
71.16176754558079
 30
0.0
 10
260.5533513975005
 20
71.08108106025259
 30
0.0
 10
260.6809001220695
 20
71.07308000566903
 30
0.0
 10
260.7300000000197
 20
71.06999999993121
 30
0.0
  0
SPLINE
  5
9B
330
1F
100
AcDbEntity
  8
0
  6
Continuous
 62
     7
370
    25
100
AcDbSpline
210
0.0
220
0.0
230
1.0
 70
    11
 71
     3
 72
    26
 73
    22
 74
     0
 42
0.00000001
 43
0.00000001
 40
0.0
 40
0.0
 40
0.0
 40
0.0
 40
0.0536887269338528
 40
0.1073774538676359
 40
0.1610661808015494
 40
0.2147549077353988
 40
0.2684436346692479
 40
0.3221323616030956
 40
0.3758210885369479
 40
0.4295098154707998
 40
0.4831985424046523
 40
0.5368872693384771
 40
0.5905759962717988
 40
0.6442647232060026
 40
0.6979534501400418
 40
0.751642177073892
 40
0.8053309040077407
 40
0.8590196309415474
 40
0.9127083578754428
 40
0.9663970848092819
 40
1.0
 40
1.0
 40
1.0
 40
1.0
 10
38.27000000000994
 20
64.85000000006883
 30
0.0
 10
38.19128630002372
 20
64.84226052144322
 30
0.0
 10
38.03385890005129
 20
64.826781564192
 30
0.0
 10
37.82434091780307
 20
64.70611467367131
 30
0.0
 10
37.66506761641197
 20
64.5284162510501
 30
0.0
 10
37.57399585239649
 20
64.30653601871252
 30
0.0
 10
37.56139327631774
 20
64.06741435089263
 30
0.0
 10
37.62868073296499
 20
63.83749458383492
 30
0.0
 10
37.76827207226546
 20
63.6428366375219
 30
0.0
 10
37.96442942873119
 20
63.50534969520329
 30
0.0
 10
38.19503755173842
 20
63.4405442505949
 30
0.0
 10
38.43409711238202
 20
63.45572411389723
 30
0.0
 10
38.65465600482612
 20
63.54917803508331
 30
0.0
 10
38.83184771471929
 20
63.71037164789932
 30
0.0
 10
38.94569586406746
 20
63.92112401310573
 30
0.0
 10
38.98336253733773
 20
64.15770287448586
 30
0.0
 10
38.94061006095925
 20
64.39332944524098
 30
0.0
 10
38.82222502021243
 20
64.60183540191464
 30
0.0
 10
38.6416792007781
 20
64.75823245441929
 30
0.0
 10
38.44664860252917
 20
64.83891893974749
 30
0.0
 10
38.31909987796003
 20
64.84691999433102
 30
0.0
 10
38.27000000000994
 20
64.85000000006883
 30
0.0
  0
SPLINE
  5
9C
330
1F
100
AcDbEntity
  8
0
  6
Continuous
 62
     7
370
    25
100
AcDbSpline
210
0.0
220
0.0
230
1.0
 70
    11
 71
     3
 72
    26
 73
    22
 74
     0
 42
0.00000001
 43
0.00000001
 40
0.0
 40
0.0
 40
0.0
 40
0.0
 40
0.0536887269338465
 40
0.1073774538676413
 40
0.1610661808015545
 40
0.2147549077354021
 40
0.2684436346692412
 40
0.3221323616031022
 40
0.3758210885369517
 40
0.4295098154707973
 40
0.4831985424046492
 40
0.5368872693384799
 40
0.590575996271809
 40
0.6442647232059998
 40
0.6979534501400405
 40
0.7516421770738935
 40
0.8053309040077388
 40
0.859019630941548
 40
0.912708357875443
 40
0.9663970848092884
 40
1.0
 40
1.0
 40
1.0
 40
1.0
 10
35.73000000000992
 20
64.85000000006883
 30
0.0
 10
35.65128630002368
 20
64.84226052144321
 30
0.0
 10
35.49385890005124
 20
64.82678156419198
 30
0.0
 10
35.28434091780308
 20
64.70611467367132
 30
0.0
 10
35.12506761641202
 20
64.5284162510501
 30
0.0
 10
35.03399585239647
 20
64.30653601871253
 30
0.0
 10
35.02139327631779
 20
64.06741435089263
 30
0.0
 10
35.08868073296495
 20
63.8374945838349
 30
0.0
 10
35.22827207226548
 20
63.64283663752189
 30
0.0
 10
35.42442942873114
 20
63.50534969520327
 30
0.0
 10
35.65503755173843
 20
63.4405442505949
 30
0.0
 10
35.89409711238201
 20
63.45572411389722
 30
0.0
 10
36.11465600482619
 20
63.54917803508331
 30
0.0
 10
36.29184771471925
 20
63.71037164789934
 30
0.0
 10
36.40569586406748
 20
63.9211240131057
 30
0.0
 10
36.44336253733773
 20
64.15770287448585
 30
0.0
 10
36.40061006095929
 20
64.39332944524097
 30
0.0
 10
36.28222502021239
 20
64.60183540191463
 30
0.0
 10
36.1016792007782
 20
64.7582324544193
 30
0.0
 10
35.90664860252921
 20
64.83891893974749
 30
0.0
 10
35.77909987796002
 20
64.84691999433102
 30
0.0
 10
35.73000000000995
 20
64.85000000006883
 30
0.0
  0
SPLINE
  5
9D
330
1F
100
AcDbEntity
  8
0
  6
Continuous
 62
     7
370
    25
100
AcDbSpline
210
0.0
220
0.0
230
1.0
 70
    11
 71
     3
 72
    26
 73
    22
 74
     0
 42
0.00000001
 43
0.00000001
 40
0.0
 40
0.0
 40
0.0
 40
0.0
 40
0.0536887269338466
 40
0.1073774538676359
 40
0.1610661808015479
 40
0.2147549077353927
 40
0.2684436346692417
 40
0.3221323616030952
 40
0.3758210885369435
 40
0.4295098154707918
 40
0.4831985424046433
 40
0.5368872693384675
 40
0.5905759962717949
 40
0.6442647232059938
 40
0.697953450140036
 40
0.7516421770738859
 40
0.8053309040077348
 40
0.85901963094154
 40
0.912708357875435
 40
0.9663970848092822
 40
1.0
 40
1.0
 40
1.0
 40
1.0
 10
38.27000000000994
 20
67.39000000006884
 30
0.0
 10
38.19128630002369
 20
67.38226052144321
 30
0.0
 10
38.03385890005129
 20
67.36678156419198
 30
0.0
 10
37.82434091780307
 20
67.24611467367131
 30
0.0
 10
37.665067616412
 20
67.06841625105011
 30
0.0
 10
37.57399585239649
 20
66.84653601871253
 30
0.0
 10
37.56139327631777
 20
66.60741435089265
 30
0.0
 10
37.62868073296499
 20
66.37749458383492
 30
0.0
 10
37.76827207226543
 20
66.1828366375219
 30
0.0
 10
37.96442942873116
 20
66.04534969520326
 30
0.0
 10
38.19503755173839
 20
65.98054425059492
 30
0.0
 10
38.43409711238199
 20
65.9957241138972
 30
0.0
 10
38.65465600482609
 20
66.08917803508328
 30
0.0
 10
38.83184771471923
 20
66.25037164789931
 30
0.0
 10
38.94569586406752
 20
66.4611240131057
 30
0.0
 10
38.98336253733758
 20
66.69770287448584
 30
0.0
 10
38.94061006095939
 20
66.93332944524099
 30
0.0
 10
38.82222502021237
 20
67.1418354019146
 30
0.0
 10
38.64167920077819
 20
67.29823245441929
 30
0.0
 10
38.44664860252917
 20
67.37891893974749
 30
0.0
 10
38.31909987796003
 20
67.38691999433102
 30
0.0
 10
38.27000000000994
 20
67.39000000006884
 30
0.0
  0
SPLINE
  5
9E
330
1F
100
AcDbEntity
  8
0
  6
Continuous
 62
     7
370
    25
100
AcDbSpline
210
0.0
220
0.0
230
1.0
 70
    11
 71
     3
 72
    26
 73
    22
 74
     0
 42
0.00000001
 43
0.00000001
 40
0.0
 40
0.0
 40
0.0
 40
0.0
 40
0.0536887269338536
 40
0.1073774538676476
 40
0.1610661808015578
 40
0.2147549077354055
 40
0.2684436346692525
 40
0.3221323616031014
 40
0.375821088536951
 40
0.4295098154708045
 40
0.4831985424046616
 40
0.5368872693384863
 40
0.5905759962718079
 40
0.6442647232060078
 40
0.6979534501400538
 40
0.7516421770739006
 40
0.8053309040077518
 40
0.859019630941561
 40
0.9127083578754508
 40
0.9663970848093015
 40
1.0
 40
1.0
 40
1.0
 40
1.0
 10
35.73000000000995
 20
67.39000000006884
 30
0.0
 10
35.65128630002371
 20
67.38226052144321
 30
0.0
 10
35.4938589000513
 20
67.36678156419194
 30
0.0
 10
35.28434091780303
 20
67.24611467367131
 30
0.0
 10
35.12506761641199
 20
67.06841625105007
 30
0.0
 10
35.0339958523965
 20
66.8465360187125
 30
0.0
 10
35.02139327631782
 20
66.60741435089261
 30
0.0
 10
35.08868073296492
 20
66.37749458383489
 30
0.0
 10
35.2282720722655
 20
66.18283663752189
 30
0.0
 10
35.42442942873114
 20
66.04534969520324
 30
0.0
 10
35.65503755173846
 20
65.98054425059489
 30
0.0
 10
35.89409711238206
 20
65.99572411389723
 30
0.0
 10
36.11465600482616
 20
66.08917803508332
 30
0.0
 10
36.2918477147193
 20
66.25037164789934
 30
0.0
 10
36.40569586406745
 20
66.46112401310576
 30
0.0
 10
36.44336253733773
 20
66.69770287448591
 30
0.0
 10
36.40061006095927
 20
66.93332944524103
 30
0.0
 10
36.28222502021242
 20
67.14183540191468
 30
0.0
 10
36.10167920077811
 20
67.29823245441932
 30
0.0
 10
35.90664860252907
 20
67.37891893974749
 30
0.0
 10
35.77909987796005
 20
67.38691999433102
 30
0.0
 10
35.73000000000995
 20
67.39000000006884
 30
0.0
  0
SPLINE
  5
9F
330
1F
100
AcDbEntity
  8
0
  6
Continuous
 62
     7
370
    25
100
AcDbSpline
210
0.0
220
0.0
230
1.0
 70
    11
 71
     3
 72
    26
 73
    22
 74
     0
 42
0.00000001
 43
0.00000001
 40
0.0
 40
0.0
 40
0.0
 40
0.0
 40
0.0536887269338474
 40
0.1073774538676346
 40
0.1610661808015469
 40
0.2147549077353934
 40
0.26844363466923
 40
0.3221323616030929
 40
0.3758210885369453
 40
0.429509815470792
 40
0.4831985424046443
 40
0.5368872693384752
 40
0.5905759962718022
 40
0.6442647232060046
 40
0.697953450140044
 40
0.7516421770738978
 40
0.8053309040077423
 40
0.8590196309415478
 40
0.9127083578754441
 40
0.9663970848092945
 40
1.0
 40
1.0
 40
1.0
 40
1.0
 10
38.27000000000994
 20
69.93000000006884
 30
0.0
 10
38.19128630002372
 20
69.9222605214432
 30
0.0
 10
38.03385890005134
 20
69.90678156419196
 30
0.0
 10
37.82434091780301
 20
69.7861146736713
 30
0.0
 10
37.665067616412
 20
69.6084162510501
 30
0.0
 10
37.57399585239646
 20
69.38653601871255
 30
0.0
 10
37.5613932763178
 20
69.14741435089266
 30
0.0
 10
37.62868073296491
 20
68.91749458383494
 30
0.0
 10
37.76827207226546
 20
68.72283663752191
 30
0.0
 10
37.96442942873119
 20
68.58534969520328
 30
0.0
 10
38.19503755173839
 20
68.52054425059492
 30
0.0
 10
38.43409711238202
 20
68.53572411389722
 30
0.0
 10
38.65465600482615
 20
68.62917803508329
 30
0.0
 10
38.83184771471923
 20
68.79037164789933
 30
0.0
 10
38.94569586406749
 20
69.00112401310574
 30
0.0
 10
38.98336253733758
 20
69.23770287448589
 30
0.0
 10
38.94061006095939
 20
69.473329445241
 30
0.0
 10
38.82222502021235
 20
69.68183540191464
 30
0.0
 10
38.64167920077816
 20
69.83823245441934
 30
0.0
 10
38.44664860252914
 20
69.91891893974747
 30
0.0
 10
38.31909987796001
 20
69.92691999433103
 30
0.0
 10
38.27000000000994
 20
69.93000000006884
 30
0.0
  0
SPLINE
  5
A0
330
1F
100
AcDbEntity
  8
0
  6
Continuous
 62
     7
370
    25
100
AcDbSpline
210
0.0
220
0.0
230
1.0
 70
    11
 71
     3
 72
    26
 73
    22
 74
     0
 42
0.00000001
 43
0.00000001
 40
0.0
 40
0.0
 40
0.0
 40
0.0
 40
0.0536887269338532
 40
0.1073774538676355
 40
0.1610661808015465
 40
0.2147549077353924
 40
0.2684436346692395
 40
0.3221323616030913
 40
0.375821088536941
 40
0.4295098154707904
 40
0.483198542404649
 40
0.536887269338467
 40
0.5905759962717951
 40
0.6442647232059909
 40
0.6979534501400332
 40
0.7516421770738905
 40
0.8053309040077332
 40
0.8590196309415458
 40
0.9127083578754352
 40
0.9663970848092884
 40
1.0
 40
1.0
 40
1.0
 40
1.0
 10
35.73000000000995
 20
69.93000000006884
 30
0.0
 10
35.65128630002371
 20
69.9222605214432
 30
0.0
 10
35.4938589000513
 20
69.90678156419197
 30
0.0
 10
35.28434091780305
 20
69.7861146736713
 30
0.0
 10
35.12506761641204
 20
69.6084162510501
 30
0.0
 10
35.03399585239642
 20
69.38653601871256
 30
0.0
 10
35.02139327631782
 20
69.14741435089267
 30
0.0
 10
35.08868073296492
 20
68.91749458383494
 30
0.0
 10
35.22827207226539
 20
68.72283663752194
 30
0.0
 10
35.42442942873114
 20
68.58534969520328
 30
0.0
 10
35.65503755173837
 20
68.52054425059492
 30
0.0
 10
35.89409711238203
 20
68.53572411389722
 30
0.0
 10
36.11465600482611
 20
68.6291780350833
 30
0.0
 10
36.29184771471922
 20
68.7903716478993
 30
0.0
 10
36.4056958640675
 20
69.00112401310571
 30
0.0
 10
36.44336253733768
 20
69.23770287448585
 30
0.0
 10
36.40061006095935
 20
69.47332944524098
 30
0.0
 10
36.28222502021242
 20
69.6818354019146
 30
0.0
 10
36.10167920077814
 20
69.83823245441931
 30
0.0
 10
35.90664860252918
 20
69.9189189397475
 30
0.0
 10
35.77909987796005
 20
69.92691999433103
 30
0.0
 10
35.73000000000995
 20
69.93000000006884
 30
0.0
  0
SPLINE
  5
A1
330
1F
100
AcDbEntity
  8
0
  6
Continuous
 62
     7
370
    25
100
AcDbSpline
210
0.0
220
0.0
230
1.0
 70
    11
 71
     3
 72
    27
 73
    23
 74
     0
 42
0.00000001
 43
0.00000001
 40
0.0
 40
0.0
 40
0.0
 40
0.0
 40
0.0066170918086634
 40
0.0331715011496627
 40
0.0868589153532333
 40
0.1405463295567342
 40
0.1942337437603776
 40
0.2479211579639459
 40
0.3016085721675187
 40
0.3552959863710047
 40
0.4089834005746691
 40
0.4626708147782407
 40
0.5163582289818085
 40
0.5700456431853795
 40
0.6237330573889561
 40
0.6774204715925315
 40
0.7311078857961035
 40
0.7847952999996455
 40
0.8384827142032514
 40
0.8921701284067127
 40
0.945857542610402
 40
1.0
 40
1.0
 40
1.0
 40
1.0
 10
38.27000000000994
 20
72.47000000006884
 30
0.0
 10
38.26034342375861
 20
72.46987379458744
 30
0.0
 10
38.21193497795119
 20
72.46924112612943
 30
0.0
 10
38.08562190812923
 20
72.45305375090393
 30
0.0
 10
37.90006408534916
 20
72.38010950987601
 30
0.0
 10
37.71908569979496
 20
72.22321184295653
 30
0.0
 10
37.60009425548852
 20
72.01532255402216
 30
0.0
 10
37.55666295296434
 20
71.77974698702236
 30
0.0
 10
37.5936460549641
 20
71.54308003012736
 30
0.0
 10
37.70688532808694
 20
71.33199456376664
 30
0.0
 10
37.88361086723368
 20
71.17029143766443
 30
0.0
 10
38.10389902190053
 20
71.07620071776729
 30
0.0
 10
38.34291375601207
 20
71.06033079388035
 30
0.0
 10
38.57370802872584
 20
71.124470114872
 30
0.0
 10
38.77026152495205
 20
71.26139014261696
 30
0.0
 10
38.91041431804298
 20
71.45564421220956
 30
0.0
 10
38.9783652991568
 20
71.6853688487762
 30
0.0
 10
38.96645329993403
 20
71.92452552096628
 30
0.0
 10
38.87602209530613
 20
72.1466692151212
 30
0.0
 10
38.71726417878199
 20
72.32482138828367
 30
0.0
 10
38.50749829494171
 20
72.44645543368425
 30
0.0
 10
38.3493885066406
 20
72.46212976266322
 30
0.0
 10
38.27000000000994
 20
72.47000000006884
 30
0.0
  0
SPLINE
  5
A2
330
1F
100
AcDbEntity
  8
0
  6
Continuous
 62
     7
370
    25
100
AcDbSpline
210
0.0
220
0.0
230
1.0
 70
    11
 71
     3
 72
    26
 73
    22
 74
     0
 42
0.00000001
 43
0.00000001
 40
0.0
 40
0.0
 40
0.0
 40
0.0
 40
0.0536887269338539
 40
0.1073774538676411
 40
0.1610661808015462
 40
0.2147549077354019
 40
0.2684436346692429
 40
0.3221323616030918
 40
0.3758210885369492
 40
0.4295098154707951
 40
0.4831985424046473
 40
0.5368872693384719
 40
0.5905759962718026
 40
0.6442647232060021
 40
0.6979534501400414
 40
0.7516421770738964
 40
0.8053309040077419
 40
0.8590196309415473
 40
0.9127083578754416
 40
0.9663970848092884
 40
1.0
 40
1.0
 40
1.0
 40
1.0
 10
35.73000000000995
 20
72.47000000006884
 30
0.0
 10
35.65128630002371
 20
72.4622605214432
 30
0.0
 10
35.49385890005133
 20
72.44678156419195
 30
0.0
 10
35.28434091780305
 20
72.32611467367133
 30
0.0
 10
35.1250676164121
 20
72.14841625105005
 30
0.0
 10
35.03399585239639
 20
71.92653601871251
 30
0.0
 10
35.02139327631784
 20
71.68741435089264
 30
0.0
 10
35.08868073296497
 20
71.4574945838349
 30
0.0
 10
35.22827207226542
 20
71.2628366375219
 30
0.0
 10
35.42442942873117
 20
71.12534969520327
 30
0.0
 10
35.6550375517384
 20
71.06054425059492
 30
0.0
 10
35.89409711238201
 20
71.07572411389721
 30
0.0
 10
36.11465600482611
 20
71.16917803508333
 30
0.0
 10
36.29184771471927
 20
71.33037164789931
 30
0.0
 10
36.4056958640675
 20
71.54112401310573
 30
0.0
 10
36.44336253733768
 20
71.77770287448587
 30
0.0
 10
36.40061006095935
 20
72.013329445241
 30
0.0
 10
36.28222502021242
 20
72.22183540191463
 30
0.0
 10
36.10167920077814
 20
72.37823245441928
 30
0.0
 10
35.90664860252915
 20
72.45891893974749
 30
0.0
 10
35.77909987796005
 20
72.46691999433102
 30
0.0
 10
35.73000000000995
 20
72.47000000006884
 30
0.0
  0
SPLINE
  5
A3
330
1F
100
AcDbEntity
  8
0
  6
Continuous
 62
     7
370
    25
100
AcDbSpline
210
0.0
220
0.0
230
1.0
 70
    11
 71
     3
 72
    26
 73
    22
 74
     0
 42
0.00000001
 43
0.00000001
 40
0.0
 40
0.0
 40
0.0
 40
0.0
 40
0.0536887269338465
 40
0.1073774538676352
 40
0.1610661808015511
 40
0.2147549077353945
 40
0.268443634669239
 40
0.3221323616030957
 40
0.3758210885369467
 40
0.4295098154707934
 40
0.4831985424046517
 40
0.5368872693384699
 40
0.590575996271798
 40
0.6442647232060008
 40
0.6979534501400457
 40
0.7516421770738959
 40
0.8053309040077414
 40
0.8590196309415437
 40
0.9127083578754415
 40
0.9663970848092883
 40
1.0
 40
1.0
 40
1.0
 40
1.0
 10
38.27000000000994
 20
75.01000000006883
 30
0.0
 10
38.19128630002369
 20
75.0022605214432
 30
0.0
 10
38.03385890005131
 20
74.98678156419197
 30
0.0
 10
37.82434091780307
 20
74.86611467367132
 30
0.0
 10
37.66506761641197
 20
74.68841625105009
 30
0.0
 10
37.57399585239651
 20
74.46653601871253
 30
0.0
 10
37.56139327631772
 20
74.22741435089266
 30
0.0
 10
37.62868073296497
 20
73.99749458383492
 30
0.0
 10
37.7682720722654
 20
73.80283663752189
 30
0.0
 10
37.96442942873116
 20
73.66534969520326
 30
0.0
 10
38.19503755173842
 20
73.60054425059491
 30
0.0
 10
38.43409711238196
 20
73.6157241138972
 30
0.0
 10
38.65465600482615
 20
73.70917803508331
 30
0.0
 10
38.83184771471926
 20
73.8703716478993
 30
0.0
 10
38.94569586406752
 20
74.08112401310574
 30
0.0
 10
38.98336253733761
 20
74.31770287448587
 30
0.0
 10
38.94061006095937
 20
74.55332944524099
 30
0.0
 10
38.82222502021243
 20
74.76183540191464
 30
0.0
 10
38.64167920077813
 20
74.91823245441927
 30
0.0
 10
38.44664860252917
 20
74.99891893974748
 30
0.0
 10
38.31909987796006
 20
75.00691999433103
 30
0.0
 10
38.27000000000994
 20
75.01000000006883
 30
0.0
  0
SPLINE
  5
A4
330
1F
100
AcDbEntity
  8
0
  6
Continuous
 62
     7
370
    25
100
AcDbSpline
210
0.0
220
0.0
230
1.0
 70
    11
 71
     3
 72
    26
 73
    22
 74
     0
 42
0.00000001
 43
0.00000001
 40
0.0
 40
0.0
 40
0.0
 40
0.0
 40
0.0536887269338526
 40
0.10737745386764
 40
0.1610661808015441
 40
0.2147549077353998
 40
0.2684436346692418
 40
0.3221323616030994
 40
0.3758210885369372
 40
0.4295098154707975
 40
0.4831985424046492
 40
0.5368872693384795
 40
0.5905759962718008
 40
0.6442647232060005
 40
0.6979534501400368
 40
0.7516421770738896
 40
0.8053309040077367
 40
0.8590196309415388
 40
0.9127083578754357
 40
0.9663970848092885
 40
1.0
 40
1.0
 40
1.0
 40
1.0
 10
35.73000000000995
 20
75.01000000006883
 30
0.0
 10
35.65128630002368
 20
75.0022605214432
 30
0.0
 10
35.49385890005127
 20
74.98678156419197
 30
0.0
 10
35.28434091780314
 20
74.86611467367132
 30
0.0
 10
35.12506761641202
 20
74.6884162510501
 30
0.0
 10
35.03399585239644
 20
74.46653601871255
 30
0.0
 10
35.02139327631782
 20
74.22741435089266
 30
0.0
 10
35.0886807329649
 20
73.99749458383492
 30
0.0
 10
35.22827207226545
 20
73.8028366375219
 30
0.0
 10
35.42442942873114
 20
73.66534969520329
 30
0.0
 10
35.65503755173843
 20
73.60054425059492
 30
0.0
 10
35.89409711238203
 20
73.6157241138972
 30
0.0
 10
36.11465600482611
 20
73.7091780350833
 30
0.0
 10
36.29184771471927
 20
73.87037164789932
 30
0.0
 10
36.4056958640675
 20
74.0811240131057
 30
0.0
 10
36.44336253733763
 20
74.31770287448585
 30
0.0
 10
36.4006100609594
 20
74.55332944524098
 30
0.0
 10
36.28222502021244
 20
74.76183540191458
 30
0.0
 10
36.10167920077817
 20
74.91823245441928
 30
0.0
 10
35.90664860252921
 20
74.99891893974748
 30
0.0
 10
35.77909987796005
 20
75.00691999433103
 30
0.0
 10
35.73000000000995
 20
75.01000000006883
 30
0.0
  0
SPLINE
  5
A5
330
1F
100
AcDbEntity
  8
0
  6
Continuous
 62
     7
370
    25
100
AcDbSpline
210
0.0
220
0.0
230
1.0
 70
    11
 71
     3
 72
    26
 73
    22
 74
     0
 42
0.00000001
 43
0.00000001
 40
0.0
 40
0.0
 40
0.0
 40
0.0
 40
0.0536887269338472
 40
0.1073774538676345
 40
0.1610661808015474
 40
0.2147549077353934
 40
0.2684436346692395
 40
0.3221323616030888
 40
0.3758210885369475
 40
0.4295098154707952
 40
0.4831985424046413
 40
0.5368872693384661
 40
0.5905759962717938
 40
0.6442647232059977
 40
0.6979534501400356
 40
0.7516421770738906
 40
0.8053309040077336
 40
0.859019630941545
 40
0.9127083578754435
 40
0.9663970848092821
 40
1.0
 40
1.0
 40
1.0
 40
1.0
 10
38.27000000000994
 20
77.55000000006885
 30
0.0
 10
38.19128630002369
 20
77.54226052144321
 30
0.0
 10
38.03385890005131
 20
77.52678156419196
 30
0.0
 10
37.82434091780307
 20
77.40611467367134
 30
0.0
 10
37.66506761641203
 20
77.22841625105006
 30
0.0
 10
37.57399585239646
 20
77.00653601871254
 30
0.0
 10
37.56139327631774
 20
76.76741435089265
 30
0.0
 10
37.62868073296497
 20
76.53749458383493
 30
0.0
 10
37.76827207226546
 20
76.34283663752191
 30
0.0
 10
37.96442942873116
 20
76.20534969520327
 30
0.0
 10
38.19503755173837
 20
76.1405442505949
 30
0.0
 10
38.43409711238199
 20
76.15572411389722
 30
0.0
 10
38.65465600482609
 20
76.2491780350833
 30
0.0
 10
38.83184771471926
 20
76.41037164789931
 30
0.0
 10
38.94569586406752
 20
76.62112401310573
 30
0.0
 10
38.98336253733761
 20
76.85770287448584
 30
0.0
 10
38.94061006095937
 20
77.09332944524098
 30
0.0
 10
38.8222250202124
 20
77.30183540191462
 30
0.0
 10
38.6416792007781
 20
77.4582324544193
 30
0.0
 10
38.44664860252922
 20
77.53891893974749
 30
0.0
 10
38.31909987796006
 20
77.54691999433102
 30
0.0
 10
38.27000000000994
 20
77.55000000006885
 30
0.0
  0
SPLINE
  5
A6
330
1F
100
AcDbEntity
  8
0
  6
Continuous
 62
     7
370
    25
100
AcDbSpline
210
0.0
220
0.0
230
1.0
 70
    11
 71
     3
 72
    26
 73
    22
 74
     0
 42
0.00000001
 43
0.00000001
 40
0.0
 40
0.0
 40
0.0
 40
0.0
 40
0.0536887269338599
 40
0.1073774538676492
 40
0.1610661808015559
 40
0.2147549077354109
 40
0.2684436346692597
 40
0.3221323616031134
 40
0.3758210885369628
 40
0.4295098154708085
 40
0.4831985424046531
 40
0.5368872693384841
 40
0.5905759962718132
 40
0.6442647232060085
 40
0.6979534501400563
 40
0.7516421770739037
 40
0.8053309040077611
 40
0.859019630941558
 40
0.9127083578754578
 40
0.9663970848093145
 40
1.0
 40
1.0
 40
1.0
 40
1.0
 10
35.73000000000992
 20
77.55000000006885
 30
0.0
 10
35.65128630002368
 20
77.54226052144321
 30
0.0
 10
35.49385890005122
 20
77.52678156419196
 30
0.0
 10
35.28434091780305
 20
77.4061146736713
 30
0.0
 10
35.12506761641196
 20
77.22841625105006
 30
0.0
 10
35.03399585239647
 20
77.00653601871248
 30
0.0
 10
35.02139327631782
 20
76.76741435089257
 30
0.0
 10
35.08868073296495
 20
76.53749458383486
 30
0.0
 10
35.22827207226553
 20
76.34283663752187
 30
0.0
 10
35.42442942873119
 20
76.20534969520325
 30
0.0
 10
35.65503755173846
 20
76.1405442505949
 30
0.0
 10
35.89409711238209
 20
76.15572411389724
 30
0.0
 10
36.11465600482619
 20
76.24917803508333
 30
0.0
 10
36.29184771471922
 20
76.41037164789938
 30
0.0
 10
36.40569586406755
 20
76.62112401310577
 30
0.0
 10
36.44336253733768
 20
76.85770287448594
 30
0.0
 10
36.40061006095935
 20
77.09332944524105
 30
0.0
 10
36.28222502021233
 20
77.30183540191469
 30
0.0
 10
36.10167920077811
 20
77.45823245441935
 30
0.0
 10
35.9066486025291
 20
77.53891893974752
 30
0.0
 10
35.77909987796002
 20
77.54691999433102
 30
0.0
 10
35.73000000000995
 20
77.55000000006885
 30
0.0
  0
SPLINE
  5
A7
330
1F
100
AcDbEntity
  8
0
  6
Continuous
 62
     7
370
    25
100
AcDbSpline
210
0.0
220
0.0
230
1.0
 70
    11
 71
     3
 72
    26
 73
    22
 74
     0
 42
0.00000001
 43
0.00000001
 40
0.0
 40
0.0
 40
0.0
 40
0.0
 40
0.0536887269338528
 40
0.1073774538676381
 40
0.1610661808015454
 40
0.214754907735396
 40
0.2684436346692371
 40
0.3221323616030952
 40
0.3758210885369409
 40
0.42950981547079
 40
0.483198542404642
 40
0.5368872693384726
 40
0.5905759962718077
 40
0.6442647232059997
 40
0.6979534501400416
 40
0.7516421770738978
 40
0.8053309040077358
 40
0.8590196309415482
 40
0.9127083578754444
 40
0.9663970848092951
 40
1.0
 40
1.0
 40
1.0
 40
1.0
 10
38.27000000000994
 20
80.09000000006883
 30
0.0
 10
38.19128630002369
 20
80.08226052144322
 30
0.0
 10
38.03385890005129
 20
80.06678156419198
 30
0.0
 10
37.8243409178031
 20
79.94611467367127
 30
0.0
 10
37.665067616412
 20
79.76841625105011
 30
0.0
 10
37.57399585239649
 20
79.54653601871253
 30
0.0
 10
37.56139327631774
 20
79.30741435089264
 30
0.0
 10
37.62868073296494
 20
79.0774945838349
 30
0.0
 10
37.76827207226543
 20
78.88283663752192
 30
0.0
 10
37.96442942873116
 20
78.74534969520326
 30
0.0
 10
38.19503755173842
 20
78.6805442505949
 30
0.0
 10
38.43409711238208
 20
78.69572411389721
 30
0.0
 10
38.65465600482615
 20
78.7891780350833
 30
0.0
 10
38.83184771471932
 20
78.95037164789933
 30
0.0
 10
38.94569586406746
 20
79.16112401310573
 30
0.0
 10
38.98336253733764
 20
79.39770287448587
 30
0.0
 10
38.94061006095942
 20
79.63332944524102
 30
0.0
 10
38.82222502021237
 20
79.84183540191462
 30
0.0
 10
38.64167920077813
 20
79.99823245441934
 30
0.0
 10
38.44664860252914
 20
80.0789189397475
 30
0.0
 10
38.31909987795998
 20
80.08691999433103
 30
0.0
 10
38.27000000000994
 20
80.09000000006883
 30
0.0
  0
SPLINE
  5
A8
330
1F
100
AcDbEntity
  8
0
  6
Continuous
 62
     7
370
    25
100
AcDbSpline
210
0.0
220
0.0
230
1.0
 70
    11
 71
     3
 72
    26
 73
    22
 74
     0
 42
0.00000001
 43
0.00000001
 40
0.0
 40
0.0
 40
0.0
 40
0.0
 40
0.0536887269338529
 40
0.107377453867647
 40
0.1610661808015542
 40
0.2147549077354044
 40
0.2684436346692451
 40
0.3221323616030954
 40
0.3758210885369525
 40
0.4295098154708061
 40
0.4831985424046511
 40
0.5368872693384755
 40
0.590575996271803
 40
0.6442647232060019
 40
0.6979534501400481
 40
0.7516421770738975
 40
0.8053309040077398
 40
0.8590196309415591
 40
0.9127083578754432
 40
0.9663970848092881
 40
1.0
 40
1.0
 40
1.0
 40
1.0
 10
35.73000000000995
 20
80.09000000006883
 30
0.0
 10
35.65128630002368
 20
80.08226052144322
 30
0.0
 10
35.49385890005122
 20
80.06678156419197
 30
0.0
 10
35.28434091780308
 20
79.94611467367135
 30
0.0
 10
35.12506761641199
 20
79.76841625105006
 30
0.0
 10
35.03399585239639
 20
79.54653601871252
 30
0.0
 10
35.02139327631782
 20
79.30741435089264
 30
0.0
 10
35.08868073296492
 20
79.0774945838349
 30
0.0
 10
35.22827207226548
 20
78.88283663752189
 30
0.0
 10
35.42442942873114
 20
78.74534969520326
 30
0.0
 10
35.6550375517384
 20
78.68054425059489
 30
0.0
 10
35.89409711238206
 20
78.69572411389721
 30
0.0
 10
36.11465600482614
 20
78.78917803508328
 30
0.0
 10
36.29184771471927
 20
78.95037164789932
 30
0.0
 10
36.40569586406745
 20
79.16112401310575
 30
0.0
 10
36.44336253733771
 20
79.39770287448587
 30
0.0
 10
36.40061006095929
 20
79.633329445241
 30
0.0
 10
36.28222502021239
 20
79.84183540191464
 30
0.0
 10
36.10167920077814
 20
79.99823245441931
 30
0.0
 10
35.90664860252918
 20
80.07891893974747
 30
0.0
 10
35.77909987796005
 20
80.08691999433101
 30
0.0
 10
35.73000000000995
 20
80.09000000006883
 30
0.0
  0
SPLINE
  5
A9
330
1F
100
AcDbEntity
  8
0
  6
Continuous
 62
     7
370
    25
100
AcDbSpline
210
0.0
220
0.0
230
1.0
 70
    11
 71
     3
 72
    26
 73
    22
 74
     0
 42
0.00000001
 43
0.00000001
 40
0.0
 40
0.0
 40
0.0
 40
0.0
 40
0.05368872693386
 40
0.1073774538676577
 40
0.1610661808015659
 40
0.2147549077354091
 40
0.268443634669256
 40
0.3221323616031065
 40
0.3758210885369508
 40
0.429509815470806
 40
0.4831985424046492
 40
0.5368872693384926
 40
0.590575996271803
 40
0.6442647232059938
 40
0.6979534501400574
 40
0.7516421770739098
 40
0.8053309040077556
 40
0.8590196309415548
 40
0.9127083578754481
 40
0.9663970848093081
 40
1.0
 40
1.0
 40
1.0
 40
1.0
 10
260.7300000000197
 20
78.68999999993117
 30
0.0
 10
260.808713700006
 20
78.69773947855683
 30
0.0
 10
260.9661410999784
 20
78.71321843580807
 30
0.0
 10
261.1756590822267
 20
78.83388532632875
 30
0.0
 10
261.3349323836176
 20
79.01158374895002
 30
0.0
 10
261.4260041476333
 20
79.23346398128757
 30
0.0
 10
261.4386067237118
 20
79.47258564910744
 30
0.0
 10
261.3713192670647
 20
79.70250541616515
 30
0.0
 10
261.2317279277642
 20
79.89716336247815
 30
0.0
 10
261.0355705712985
 20
80.0346503047968
 30
0.0
 10
260.8049624482912
 20
80.09945574940511
 30
0.0
 10
260.5659028876476
 20
80.08427588610282
 30
0.0
 10
260.3453439952035
 20
79.99082196491669
 30
0.0
 10
260.1681522853104
 20
79.82962835210066
 30
0.0
 10
260.054304135962
 20
79.61887598689428
 30
0.0
 10
260.016637462692
 20
79.38229712551407
 30
0.0
 10
260.0593899390704
 20
79.146670554759
 30
0.0
 10
260.1777749798172
 20
78.93816459808534
 30
0.0
 10
260.3583207992516
 20
78.78176754558073
 30
0.0
 10
260.5533513975005
 20
78.7010810602525
 30
0.0
 10
260.6809001220697
 20
78.69308000566899
 30
0.0
 10
260.7300000000197
 20
78.68999999993117
 30
0.0
  0
SPLINE
  5
AA
330
1F
100
AcDbEntity
  8
0
  6
Continuous
 62
     7
370
    25
100
AcDbSpline
210
0.0
220
0.0
230
1.0
 70
    11
 71
     3
 72
    26
 73
    22
 74
     0
 42
0.00000001
 43
0.00000001
 40
0.0
 40
0.0
 40
0.0
 40
0.0
 40
0.0536887269338474
 40
0.1073774538676416
 40
0.1610661808015486
 40
0.214754907735398
 40
0.2684436346692393
 40
0.3221323616030961
 40
0.3758210885369432
 40
0.4295098154707989
 40
0.483198542404651
 40
0.5368872693384757
 40
0.590575996271804
 40
0.6442647232059996
 40
0.6979534501400447
 40
0.7516421770738996
 40
0.8053309040077421
 40
0.8590196309415575
 40
0.9127083578754428
 40
0.9663970848092884
 40
1.0
 40
1.0
 40
1.0
 40
1.0
 10
38.27000000000994
 20
62.31000000006886
 30
0.0
 10
38.19128630002372
 20
62.30226052144324
 30
0.0
 10
38.03385890005126
 20
62.28678156419197
 30
0.0
 10
37.8243409178031
 20
62.16611467367135
 30
0.0
 10
37.665067616412
 20
61.9884162510501
 30
0.0
 10
37.57399585239649
 20
61.76653601871254
 30
0.0
 10
37.5613932763178
 20
61.52741435089266
 30
0.0
 10
37.62868073296494
 20
61.29749458383493
 30
0.0
 10
37.76827207226546
 20
61.10283663752193
 30
0.0
 10
37.96442942873113
 20
60.96534969520329
 30
0.0
 10
38.19503755173842
 20
60.90054425059492
 30
0.0
 10
38.43409711238202
 20
60.91572411389724
 30
0.0
 10
38.65465600482618
 20
61.00917803508332
 30
0.0
 10
38.83184771471923
 20
61.17037164789937
 30
0.0
 10
38.94569586406752
 20
61.38112401310576
 30
0.0
 10
38.98336253733764
 20
61.61770287448591
 30
0.0
 10
38.94061006095934
 20
61.85332944524104
 30
0.0
 10
38.82222502021237
 20
62.06183540191467
 30
0.0
 10
38.6416792007781
 20
62.21823245441934
 30
0.0
 10
38.44664860252914
 20
62.29891893974751
 30
0.0
 10
38.31909987796006
 20
62.30691999433105
 30
0.0
 10
38.27000000000994
 20
62.31000000006886
 30
0.0
  0
SPLINE
  5
AB
330
1F
100
AcDbEntity
  8
0
  6
Continuous
 62
     7
370
    25
100
AcDbSpline
210
0.0
220
0.0
230
1.0
 70
    11
 71
     3
 72
    26
 73
    22
 74
     0
 42
0.00000001
 43
0.00000001
 40
0.0
 40
0.0
 40
0.0
 40
0.0
 40
0.0536887269338534
 40
0.1073774538676497
 40
0.1610661808015588
 40
0.2147549077354118
 40
0.2684436346692444
 40
0.3221323616031085
 40
0.3758210885369542
 40
0.429509815470805
 40
0.4831985424046505
 40
0.5368872693384878
 40
0.59057599627181
 40
0.6442647232060088
 40
0.6979534501400522
 40
0.7516421770739037
 40
0.8053309040077516
 40
0.8590196309415582
 40
0.9127083578754432
 40
0.9663970848093012
 40
0.9999999999999999
 40
0.9999999999999999
 40
0.9999999999999999
 40
0.9999999999999999
 10
35.73000000000995
 20
62.31000000006886
 30
0.0
 10
35.65128630002368
 20
62.30226052144323
 30
0.0
 10
35.49385890005127
 20
62.28678156419198
 30
0.0
 10
35.28434091780303
 20
62.16611467367132
 30
0.0
 10
35.12506761641199
 20
61.98841625105006
 30
0.0
 10
35.03399585239644
 20
61.76653601871253
 30
0.0
 10
35.02139327631784
 20
61.52741435089263
 30
0.0
 10
35.08868073296495
 20
61.2974945838349
 30
0.0
 10
35.22827207226542
 20
61.10283663752189
 30
0.0
 10
35.42442942873117
 20
60.96534969520329
 30
0.0
 10
35.65503755173849
 20
60.90054425059492
 30
0.0
 10
35.89409711238203
 20
60.91572411389724
 30
0.0
 10
36.11465600482616
 20
61.00917803508334
 30
0.0
 10
36.29184771471927
 20
61.17037164789936
 30
0.0
 10
36.40569586406755
 20
61.38112401310578
 30
0.0
 10
36.44336253733768
 20
61.61770287448592
 30
0.0
 10
36.40061006095935
 20
61.85332944524104
 30
0.0
 10
36.28222502021233
 20
62.06183540191466
 30
0.0
 10
36.10167920077814
 20
62.21823245441935
 30
0.0
 10
35.90664860252912
 20
62.29891893974749
 30
0.0
 10
35.77909987796002
 20
62.30691999433104
 30
0.0
 10
35.73000000000995
 20
62.31000000006886
 30
0.0
  0
SPLINE
  5
AC
330
1F
100
AcDbEntity
  8
0
  6
Continuous
 62
     7
370
    25
100
AcDbSpline
210
0.0
220
0.0
230
1.0
 70
    11
 71
     3
 72
    26
 73
    22
 74
     0
 42
0.00000001
 43
0.00000001
 40
0.0
 40
0.0
 40
0.0
 40
0.0
 40
0.0536887269338343
 40
0.1073774538676181
 40
0.1610661808015468
 40
0.2147549077353915
 40
0.2684436346692341
 40
0.3221323616030888
 40
0.3758210885369432
 40
0.4295098154707897
 40
0.4831985424046232
 40
0.5368872693384729
 40
0.5905759962718213
 40
0.644264723206004
 40
0.697953450140035
 40
0.7516421770738937
 40
0.8053309040077352
 40
0.8590196309415462
 40
0.9127083578754295
 40
0.966397084809276
 40
1.0
 40
1.0
 40
1.0
 40
1.0
 10
263.2700000000197
 20
60.90999999993122
 30
0.0
 10
263.3487137000059
 20
60.91773947855685
 30
0.0
 10
263.5061410999783
 20
60.93321843580809
 30
0.0
 10
263.7156590822265
 20
61.05388532632873
 30
0.0
 10
263.8749323836177
 20
61.23158374894993
 30
0.0
 10
263.9660041476332
 20
61.45346398128752
 30
0.0
 10
263.9786067237119
 20
61.69258564910739
 30
0.0
 10
263.9113192670648
 20
61.92250541616514
 30
0.0
 10
263.7717279277642
 20
62.11716336247814
 30
0.0
 10
263.5755705712986
 20
62.25465030479675
 30
0.0
 10
263.3449624482913
 20
62.31945574940515
 30
0.0
 10
263.1059028876476
 20
62.30427588610284
 30
0.0
 10
262.8853439952035
 20
62.21082196491675
 30
0.0
 10
262.7081522853104
 20
62.04962835210068
 30
0.0
 10
262.5943041359621
 20
61.83887598689434
 30
0.0
 10
262.5566374626921
 20
61.6022971255142
 30
0.0
 10
262.5993899390702
 20
61.36667055475905
 30
0.0
 10
262.7177749798172
 20
61.15816459808546
 30
0.0
 10
262.8983207992515
 20
61.00176754558075
 30
0.0
 10
263.0933513975004
 20
60.92108106025255
 30
0.0
 10
263.2209001220696
 20
60.91308000566902
 30
0.0
 10
263.2700000000197
 20
60.90999999993122
 30
0.0
  0
SPLINE
  5
AD
330
1F
100
AcDbEntity
  8
0
  6
Continuous
 62
     7
370
    25
100
AcDbSpline
210
0.0
220
0.0
230
1.0
 70
    11
 71
     3
 72
    26
 73
    22
 74
     0
 42
0.00000001
 43
0.00000001
 40
0.0
 40
0.0
 40
0.0
 40
0.0
 40
0.053688726933853
 40
0.107377453867641
 40
0.1610661808015407
 40
0.214754907735387
 40
0.2684436346692403
 40
0.3221323616030906
 40
0.3758210885369337
 40
0.4295098154707868
 40
0.483198542404644
 40
0.5368872693384676
 40
0.5905759962717992
 40
0.6442647232060066
 40
0.6979534501400323
 40
0.7516421770738806
 40
0.8053309040077395
 40
0.8590196309415389
 40
0.9127083578754366
 40
0.9663970848092887
 40
1.0
 40
1.0
 40
1.0
 40
1.0
 10
260.7300000000197
 20
60.90999999993122
 30
0.0
 10
260.808713700006
 20
60.91773947855685
 30
0.0
 10
260.9661410999784
 20
60.93321843580809
 30
0.0
 10
261.1756590822266
 20
61.05388532632873
 30
0.0
 10
261.3349323836176
 20
61.23158374894998
 30
0.0
 10
261.4260041476333
 20
61.45346398128749
 30
0.0
 10
261.4386067237119
 20
61.69258564910739
 30
0.0
 10
261.3713192670647
 20
61.9225054161651
 30
0.0
 10
261.2317279277643
 20
62.11716336247814
 30
0.0
 10
261.0355705712985
 20
62.25465030479678
 30
0.0
 10
260.8049624482913
 20
62.31945574940512
 30
0.0
 10
260.5659028876476
 20
62.30427588610284
 30
0.0
 10
260.3453439952036
 20
62.21082196491678
 30
0.0
 10
260.1681522853103
 20
62.04962835210076
 30
0.0
 10
260.0543041359623
 20
61.83887598689432
 30
0.0
 10
260.016637462692
 20
61.60229712551423
 30
0.0
 10
260.0593899390703
 20
61.36667055475908
 30
0.0
 10
260.1777749798172
 20
61.15816459808545
 30
0.0
 10
260.3583207992515
 20
61.00176754558075
 30
0.0
 10
260.5533513975005
 20
60.92108106025257
 30
0.0
 10
260.6809001220697
 20
60.91308000566902
 30
0.0
 10
260.7300000000197
 20
60.90999999993122
 30
0.0
  0
SPLINE
  5
AE
330
1F
100
AcDbEntity
  8
0
  6
Continuous
 62
     7
370
    25
100
AcDbSpline
210
0.0
220
0.0
230
1.0
 70
    11
 71
     3
 72
    26
 73
    22
 74
     0
 42
0.00000001
 43
0.00000001
 40
0.0
 40
0.0
 40
0.0
 40
0.0
 40
0.0536887269338531
 40
0.107377453867633
 40
0.1610661808015755
 40
0.2147549077354082
 40
0.2684436346692521
 40
0.3221323616031026
 40
0.3758210885369485
 40
0.429509815470795
 40
0.48319854240464
 40
0.536887269338477
 40
0.5905759962717908
 40
0.6442647232060127
 40
0.6979534501400472
 40
0.7516421770739029
 40
0.8053309040077551
 40
0.8590196309415513
 40
0.912708357875457
 40
0.9663970848093012
 40
1.0
 40
1.0
 40
1.0
 40
1.0
 10
263.2700000000197
 20
63.4499999999312
 30
0.0
 10
263.3487137000059
 20
63.45773947855683
 30
0.0
 10
263.5061410999783
 20
63.47321843580808
 30
0.0
 10
263.7156590822266
 20
63.59388532632875
 30
0.0
 10
263.8749323836177
 20
63.77158374894996
 30
0.0
 10
263.9660041476332
 20
63.99346398128758
 30
0.0
 10
263.9786067237119
 20
64.23258564910742
 30
0.0
 10
263.9113192670646
 20
64.46250541616513
 30
0.0
 10
263.7717279277643
 20
64.65716336247814
 30
0.0
 10
263.5755705712986
 20
64.79465030479678
 30
0.0
 10
263.3449624482913
 20
64.85945574940511
 30
0.0
 10
263.1059028876477
 20
64.84427588610285
 30
0.0
 10
262.8853439952036
 20
64.75082196491671
 30
0.0
 10
262.7081522853103
 20
64.58962835210077
 30
0.0
 10
262.5943041359622
 20
64.37887598689429
 30
0.0
 10
262.556637462692
 20
64.14229712551416
 30
0.0
 10
262.5993899390704
 20
63.90667055475906
 30
0.0
 10
262.7177749798172
 20
63.69816459808538
 30
0.0
 10
262.8983207992516
 20
63.54176754558073
 30
0.0
 10
263.0933513975006
 20
63.46108106025255
 30
0.0
 10
263.2209001220696
 20
63.45308000566902
 30
0.0
 10
263.2700000000197
 20
63.4499999999312
 30
0.0
  0
SPLINE
  5
AF
330
1F
100
AcDbEntity
  8
0
  6
Continuous
 62
     7
370
    25
100
AcDbSpline
210
0.0
220
0.0
230
1.0
 70
    11
 71
     3
 72
    26
 73
    22
 74
     0
 42
0.00000001
 43
0.00000001
 40
0.0
 40
0.0
 40
0.0
 40
0.0
 40
0.053688726933853
 40
0.107377453867643
 40
0.1610661808015418
 40
0.2147549077353874
 40
0.268443634669228
 40
0.3221323616030807
 40
0.3758210885369263
 40
0.4295098154707895
 40
0.4831985424046235
 40
0.5368872693384539
 40
0.590575996271794
 40
0.6442647232059849
 40
0.69795345014003
 40
0.7516421770738808
 40
0.8053309040077354
 40
0.8590196309415364
 40
0.9127083578754238
 40
0.9663970848092692
 40
1.0
 40
1.0
 40
1.0
 40
1.0
 10
260.7300000000197
 20
63.44999999993122
 30
0.0
 10
260.808713700006
 20
63.45773947855685
 30
0.0
 10
260.9661410999784
 20
63.47321843580808
 30
0.0
 10
261.1756590822266
 20
63.59388532632875
 30
0.0
 10
261.3349323836176
 20
63.77158374894996
 30
0.0
 10
261.4260041476333
 20
63.99346398128748
 30
0.0
 10
261.4386067237118
 20
64.23258564910736
 30
0.0
 10
261.3713192670648
 20
64.46250541616511
 30
0.0
 10
261.2317279277642
 20
64.6571633624781
 30
0.0
 10
261.0355705712985
 20
64.79465030479675
 30
0.0
 10
260.8049624482913
 20
64.85945574940514
 30
0.0
 10
260.5659028876477
 20
64.84427588610285
 30
0.0
 10
260.3453439952036
 20
64.75082196491677
 30
0.0
 10
260.1681522853104
 20
64.58962835210073
 30
0.0
 10
260.0543041359622
 20
64.37887598689437
 30
0.0
 10
260.016637462692
 20
64.1422971255142
 30
0.0
 10
260.0593899390703
 20
63.90667055475908
 30
0.0
 10
260.1777749798173
 20
63.69816459808547
 30
0.0
 10
260.3583207992514
 20
63.54176754558075
 30
0.0
 10
260.5533513975005
 20
63.46108106025257
 30
0.0
 10
260.6809001220695
 20
63.45308000566903
 30
0.0
 10
260.7300000000197
 20
63.44999999993122
 30
0.0
  0
SPLINE
  5
B0
330
1F
100
AcDbEntity
  8
0
  6
Continuous
 62
     7
370
    25
100
AcDbSpline
210
0.0
220
0.0
230
1.0
 70
    11
 71
     3
 72
    26
 73
    22
 74
     0
 42
0.00000001
 43
0.00000001
 40
0.0
 40
0.0
 40
0.0
 40
0.0
 40
0.0536887269338529
 40
0.1073774538676494
 40
0.1610661808015573
 40
0.2147549077353904
 40
0.2684436346692423
 40
0.3221323616030943
 40
0.3758210885369403
 40
0.4295098154707863
 40
0.483198542404644
 40
0.5368872693384745
 40
0.5905759962718026
 40
0.6442647232059919
 40
0.697953450140038
 40
0.7516421770738858
 40
0.8053309040077254
 40
0.8590196309415459
 40
0.9127083578754364
 40
0.9663970848092759
 40
1.0
 40
1.0
 40
1.0
 40
1.0
 10
263.2700000000197
 20
65.98999999993121
 30
0.0
 10
263.3487137000059
 20
65.99773947855684
 30
0.0
 10
263.5061410999784
 20
66.01321843580807
 30
0.0
 10
263.7156590822266
 20
66.13388532632874
 30
0.0
 10
263.8749323836177
 20
66.31158374894996
 30
0.0
 10
263.9660041476332
 20
66.5334639812875
 30
0.0
 10
263.9786067237119
 20
66.77258564910736
 30
0.0
 10
263.9113192670647
 20
67.00250541616509
 30
0.0
 10
263.7717279277642
 20
67.19716336247811
 30
0.0
 10
263.5755705712986
 20
67.3346503047968
 30
0.0
 10
263.3449624482913
 20
67.3994557494051
 30
0.0
 10
263.1059028876476
 20
67.38427588610286
 30
0.0
 10
262.8853439952036
 20
67.29082196491674
 30
0.0
 10
262.7081522853103
 20
67.1296283521008
 30
0.0
 10
262.5943041359623
 20
66.91887598689434
 30
0.0
 10
262.556637462692
 20
66.68229712551422
 30
0.0
 10
262.5993899390704
 20
66.4466705547591
 30
0.0
 10
262.7177749798172
 20
66.23816459808545
 30
0.0
 10
262.8983207992515
 20
66.08176754558073
 30
0.0
 10
263.0933513975004
 20
66.00108106025256
 30
0.0
 10
263.2209001220696
 20
65.99308000566901
 30
0.0
 10
263.2700000000197
 20
65.98999999993121
 30
0.0
  0
SPLINE
  5
B1
330
1F
100
AcDbEntity
  8
0
  6
Continuous
 62
     7
370
    25
100
AcDbSpline
210
0.0
220
0.0
230
1.0
 70
    11
 71
     3
 72
    26
 73
    22
 74
     0
 42
0.00000001
 43
0.00000001
 40
0.0
 40
0.0
 40
0.0
 40
0.0
 40
0.0536887269338406
 40
0.107377453867616
 40
0.161066180801532
 40
0.214754907735399
 40
0.2684436346692376
 40
0.3221323616030741
 40
0.3758210885369365
 40
0.4295098154707869
 40
0.4831985424046334
 40
0.5368872693384642
 40
0.5905759962717914
 40
0.6442647232060056
 40
0.6979534501400402
 40
0.7516421770738845
 40
0.8053309040077313
 40
0.8590196309415378
 40
0.9127083578754236
 40
0.9663970848092881
 40
1.0
 40
1.0
 40
1.0
 40
1.0
 10
260.7300000000197
 20
65.9899999999312
 30
0.0
 10
260.808713700006
 20
65.99773947855684
 30
0.0
 10
260.9661410999784
 20
66.01321843580807
 30
0.0
 10
261.1756590822265
 20
66.13388532632875
 30
0.0
 10
261.3349323836177
 20
66.31158374894989
 30
0.0
 10
261.4260041476331
 20
66.53346398128754
 30
0.0
 10
261.4386067237119
 20
66.77258564910737
 30
0.0
 10
261.3713192670647
 20
67.00250541616512
 30
0.0
 10
261.2317279277642
 20
67.1971633624781
 30
0.0
 10
261.0355705712985
 20
67.33465030479677
 30
0.0
 10
260.8049624482913
 20
67.39945574940513
 30
0.0
 10
260.5659028876476
 20
67.38427588610284
 30
0.0
 10
260.3453439952036
 20
67.29082196491673
 30
0.0
 10
260.1681522853103
 20
67.1296283521008
 30
0.0
 10
260.0543041359622
 20
66.91887598689429
 30
0.0
 10
260.016637462692
 20
66.68229712551421
 30
0.0
 10
260.0593899390704
 20
66.4466705547591
 30
0.0
 10
260.1777749798172
 20
66.23816459808546
 30
0.0
 10
260.3583207992515
 20
66.08176754558073
 30
0.0
 10
260.5533513975005
 20
66.0010810602526
 30
0.0
 10
260.6809001220696
 20
65.99308000566903
 30
0.0
 10
260.7300000000197
 20
65.98999999993121
 30
0.0
  0
SPLINE
  5
B2
330
1F
100
AcDbEntity
  8
0
  6
Continuous
 62
     7
370
    25
100
AcDbSpline
210
0.0
220
0.0
230
1.0
 70
    11
 71
     3
 72
    26
 73
    22
 74
     0
 42
0.00000001
 43
0.00000001
 40
0.0
 40
0.0
 40
0.0
 40
0.0
 40
0.0536887269338661
 40
0.1073774538676574
 40
0.1610661808015643
 40
0.2147549077354088
 40
0.2684436346692587
 40
0.3221323616030995
 40
0.3758210885369562
 40
0.4295098154708015
 40
0.4831985424046584
 40
0.5368872693384827
 40
0.5905759962718188
 40
0.6442647232059959
 40
0.697953450140052
 40
0.7516421770739085
 40
0.8053309040077578
 40
0.8590196309415481
 40
0.9127083578754367
 40
0.9663970848092953
 40
1.0
 40
1.0
 40
1.0
 40
1.0
 10
263.2700000000197
 20
68.5299999999312
 30
0.0
 10
263.348713700006
 20
68.53773947855684
 30
0.0
 10
263.5061410999784
 20
68.55321843580808
 30
0.0
 10
263.7156590822266
 20
68.67388532632877
 30
0.0
 10
263.8749323836176
 20
68.85158374895003
 30
0.0
 10
263.9660041476332
 20
69.07346398128759
 30
0.0
 10
263.9786067237119
 20
69.31258564910746
 30
0.0
 10
263.9113192670648
 20
69.5425054161652
 30
0.0
 10
263.7717279277642
 20
69.73716336247816
 30
0.0
 10
263.5755705712984
 20
69.87465030479682
 30
0.0
 10
263.3449624482913
 20
69.93945574940513
 30
0.0
 10
263.1059028876476
 20
69.9242758861028
 30
0.0
 10
262.8853439952035
 20
69.83082196491674
 30
0.0
 10
262.7081522853103
 20
69.66962835210067
 30
0.0
 10
262.5943041359621
 20
69.4588759868943
 30
0.0
 10
262.556637462692
 20
69.2222971255141
 30
0.0
 10
262.5993899390704
 20
68.98667055475902
 30
0.0
 10
262.7177749798172
 20
68.77816459808537
 30
0.0
 10
262.8983207992515
 20
68.62176754558075
 30
0.0
 10
263.0933513975005
 20
68.54108106025254
 30
0.0
 10
263.2209001220697
 20
68.53308000566902
 30
0.0
 10
263.2700000000197
 20
68.5299999999312
 30
0.0
  0
LINE
  5
B3
330
1F
100
AcDbEntity
  8
0
  6
Continuous
 62
     7
370
    25
100
AcDbLine
 10
3.5917166774
 20
56.785
 30
0.0
 11
3.5917166774
 21
55.215
 31
0.0
  0
LINE
  5
B4
330
1F
100
AcDbEntity
  8
0
  6
Continuous
 62
     7
370
    25
100
AcDbLine
 10
3.5917166774
 20
56.785
 30
0.0
 11
3.3032315484
 21
56.89
 31
0.0
  0
LINE
  5
B5
330
1F
100
AcDbEntity
  8
0
  6
Continuous
 62
     7
370
    25
100
AcDbLine
 10
3.3032315484
 20
56.89
 30
0.0
 11
0.0
 21
56.89
 31
0.0
  0
LINE
  5
B6
330
1F
100
AcDbEntity
  8
0
  6
Continuous
 62
     7
370
    25
100
AcDbLine
 10
0.0
 20
139.0
 30
0.0
 11
0.0
 21
56.89
 31
0.0
  0
LINE
  5
B7
330
1F
100
AcDbEntity
  8
0
  6
Continuous
 62
     7
370
    25
100
AcDbLine
 10
135.11
 20
139.0
 30
0.0
 11
0.0
 21
139.0
 31
0.0
  0
LINE
  5
B8
330
1F
100
AcDbEntity
  8
0
  6
Continuous
 62
     7
370
    25
100
AcDbLine
 10
135.11
 20
135.6967684516
 30
0.0
 11
135.11
 21
139.0
 31
0.0
  0
LINE
  5
B9
330
1F
100
AcDbEntity
  8
0
  6
Continuous
 62
     7
370
    25
100
AcDbLine
 10
135.215
 20
135.4082833226
 30
0.0
 11
135.11
 21
135.6967684516
 31
0.0
  0
LINE
  5
BA
330
1F
100
AcDbEntity
  8
0
  6
Continuous
 62
     7
370
    25
100
AcDbLine
 10
136.785
 20
135.4082833226
 30
0.0
 11
135.215
 21
135.4082833226
 31
0.0
  0
LINE
  5
BB
330
1F
100
AcDbEntity
  8
0
  6
Continuous
 62
     7
370
    25
100
AcDbLine
 10
136.785
 20
135.4082833226
 30
0.0
 11
136.89
 21
135.6967684516
 31
0.0
  0
LINE
  5
BC
330
1F
100
AcDbEntity
  8
0
  6
Continuous
 62
     7
370
    25
100
AcDbLine
 10
136.89
 20
135.6967684516
 30
0.0
 11
136.89
 21
139.0
 31
0.0
  0
LINE
  5
BD
330
1F
100
AcDbEntity
  8
0
  6
Continuous
 62
     7
370
    25
100
AcDbLine
 10
299.0
 20
139.0
 30
0.0
 11
136.89
 21
139.0
 31
0.0
  0
LINE
  5
BE
330
1F
100
AcDbEntity
  8
0
  6
Continuous
 62
     7
370
    25
100
AcDbLine
 10
299.0
 20
83.89
 30
0.0
 11
299.0
 21
139.0
 31
0.0
  0
LINE
  5
BF
330
1F
100
AcDbEntity
  8
0
  6
Continuous
 62
     7
370
    25
100
AcDbLine
 10
295.6967684516
 20
83.89
 30
0.0
 11
299.0
 21
83.89
 31
0.0
  0
LINE
  5
C0
330
1F
100
AcDbEntity
  8
0
  6
Continuous
 62
     7
370
    25
100
AcDbLine
 10
295.4082833226
 20
83.785
 30
0.0
 11
295.6967684516
 21
83.89
 31
0.0
  0
LINE
  5
C1
330
1F
100
AcDbEntity
  8
0
  6
Continuous
 62
     7
370
    25
100
AcDbLine
 10
295.4082833226
 20
82.215
 30
0.0
 11
295.4082833226
 21
83.785
 31
0.0
  0
LINE
  5
C2
330
1F
100
AcDbEntity
  8
0
  6
Continuous
 62
     7
370
    25
100
AcDbLine
 10
295.4082833226
 20
82.215
 30
0.0
 11
295.6967684516
 21
82.11
 31
0.0
  0
LINE
  5
C3
330
1F
100
AcDbEntity
  8
0
  6
Continuous
 62
     7
370
    25
100
AcDbLine
 10
295.6967684516
 20
82.11
 30
0.0
 11
299.0
 21
82.11
 31
0.0
  0
LINE
  5
C4
330
1F
100
AcDbEntity
  8
0
  6
Continuous
 62
     7
370
    25
100
AcDbLine
 10
299.0
 20
0.0
 30
0.0
 11
299.0
 21
82.11
 31
0.0
  0
LINE
  5
C5
330
1F
100
AcDbEntity
  8
0
  6
Continuous
 62
     7
370
    25
100
AcDbLine
 10
163.89
 20
0.0
 30
0.0
 11
299.0
 21
0.0
 31
0.0
  0
LINE
  5
C6
330
1F
100
AcDbEntity
  8
0
  6
Continuous
 62
     7
370
    25
100
AcDbLine
 10
163.89
 20
3.3032315484
 30
0.0
 11
163.89
 21
0.0
 31
0.0
  0
LINE
  5
C7
330
1F
100
AcDbEntity
  8
0
  6
Continuous
 62
     7
370
    25
100
AcDbLine
 10
163.785
 20
3.5917166774
 30
0.0
 11
163.89
 21
3.3032315484
 31
0.0
  0
LINE
  5
C8
330
1F
100
AcDbEntity
  8
0
  6
Continuous
 62
     7
370
    25
100
AcDbLine
 10
162.215
 20
3.5917166774
 30
0.0
 11
163.785
 21
3.5917166774
 31
0.0
  0
LINE
  5
C9
330
1F
100
AcDbEntity
  8
0
  6
Continuous
 62
     7
370
    25
100
AcDbLine
 10
162.215
 20
3.5917166774
 30
0.0
 11
162.11
 21
3.3032315484
 31
0.0
  0
LINE
  5
CA
330
1F
100
AcDbEntity
  8
0
  6
Continuous
 62
     7
370
    25
100
AcDbLine
 10
162.11
 20
3.3032315484
 30
0.0
 11
162.11
 21
0.0
 31
0.0
  0
LINE
  5
CB
330
1F
100
AcDbEntity
  8
0
  6
Continuous
 62
     7
370
    25
100
AcDbLine
 10
0.0
 20
0.0
 30
0.0
 11
162.11
 21
0.0
 31
0.0
  0
LINE
  5
CC
330
1F
100
AcDbEntity
  8
0
  6
Continuous
 62
     7
370
    25
100
AcDbLine
 10
0.0
 20
55.11
 30
0.0
 11
0.0
 21
0.0
 31
0.0
  0
LINE
  5
CD
330
1F
100
AcDbEntity
  8
0
  6
Continuous
 62
     7
370
    25
100
AcDbLine
 10
3.3032315484
 20
55.11
 30
0.0
 11
0.0
 21
55.11
 31
0.0
  0
LINE
  5
CE
330
1F
100
AcDbEntity
  8
0
  6
Continuous
 62
     7
370
    25
100
AcDbLine
 10
3.5917166774
 20
55.215
 30
0.0
 11
3.3032315484
 21
55.11
 31
0.0
  0
MTEXT
  5
D0
330
1F
100
AcDbEntity
  8
0
  6
Continuous
 62
     7
100
AcDbMText
 10
0.0
 20
-1.0195663917
 30
0.0
 40
4.83362
 41
0.0
 71
     1
 72
     1
  1
SOLIDWORKS Educational Product.
  7
SLDTEXTSTYLE0
 73
     1
 44
1.0
  0
MTEXT
  5
D1
330
1F
100
AcDbEntity
  8
0
  6
Continuous
 62
     7
100
AcDbMText
 10
0.0
 20
-8.2699963917
 30
0.0
 40
4.83362
 41
0.0
 71
     1
 72
     1
  1
For Instructional Use Only.
  7
SLDTEXTSTYLE0
 73
     1
 44
1.0
  0
ENDSEC
  0
SECTION
  2
OBJECTS
  0
DICTIONARY
  5
C
330
0
100
AcDbDictionary
281
     1
  3
ACAD_GROUP
350
D
  3
ACAD_LAYOUT
350
1A
  3
ACAD_MLINESTYLE
350
17
  3
ACAD_PLOTSETTINGS
350
19
  3
ACAD_PLOTSTYLENAME
350
E
  3
ACAD_SCALELIST
350
47
  3
DWGPROPS
350
D2
  0
DICTIONARY
  5
D
102
{ACAD_REACTORS
330
C
102
}
330
C
100
AcDbDictionary
281
     1
  0
DICTIONARY
  5
1A
102
{ACAD_REACTORS
330
C
102
}
330
C
100
AcDbDictionary
281
     1
  3
Layout1
350
1E
  3
Layout2
350
26
  3
Model
350
22
  0
DICTIONARY
  5
17
102
{ACAD_REACTORS
330
C
102
}
330
C
100
AcDbDictionary
281
     1
  3
Standard
350
18
  0
DICTIONARY
  5
19
102
{ACAD_REACTORS
330
C
102
}
330
C
100
AcDbDictionary
281
     1
  0
ACDBDICTIONARYWDFLT
  5
E
102
{ACAD_REACTORS
330
C
102
}
330
C
100
AcDbDictionary
281
     1
  3
Normal
350
F
100
AcDbDictionaryWithDefault
340
F
  0
DICTIONARY
  5
47
102
{ACAD_REACTORS
330
C
102
}
330
C
100
AcDbDictionary
281
     1
  3
A0
350
48
  3
A1
350
49
  3
A2
350
4A
  3
A3
350
4B
  3
A4
350
4C
  3
A5
350
4D
  3
A6
350
4E
  3
A7
350
4F
  3
A8
350
50
  3
A9
350
51
  3
B0
350
52
  3
B1
350
53
  3
B2
350
54
  3
B3
350
55
  3
B4
350
56
  3
B5
350
57
  3
B6
350
58
  0
XRECORD
  5
D2
102
{ACAD_REACTORS
330
C
102
}
330
C
100
AcDbXrecord
280
     1
  1
DWGPROPS COOKIE
  2

  3

  4

  6

  7

  8
karol
  9

300
=
301
=
302
=
303
=
304
=
305
=
306
=
307
=
308
=
309
=
 40
0.0
 41
2459912.074876806
 42
2459912.07493956
  1

 90
        0
  0
LAYOUT
  5
1E
102
{ACAD_REACTORS
330
1A
102
}
330
1A
100
AcDbPlotSettings
  1

  2
none_device
  4

  6

 40
0.0
 41
0.0
 42
0.0
 43
0.0
 44
0.0
 45
0.0
 46
0.0
 47
0.0
 48
0.0
 49
0.0
140
0.0
141
0.0
142
1.0
143
1.0
 70
   688
 72
     1
 73
     0
 74
     5
  7

 75
    16
147
1.0
148
0.0
149
0.0
100
AcDbLayout
  1
Layout1
 70
     1
 71
     1
 10
0.0
 20
0.0
 11
420.0
 21
297.0
 12
0.0
 22
0.0
 32
0.0
 14
1.0000000000E+20
 24
1.0000000000E+20
 34
1.0000000000E+20
 15
-1.0000000000E+20
 25
-1.0000000000E+20
 35
-1.0000000000E+20
146
0.0
 13
0.0
 23
0.0
 33
0.0
 16
1.0
 26
0.0
 36
0.0
 17
0.0
 27
1.0
 37
0.0
 76
     0
330
1B
  0
LAYOUT
  5
26
102
{ACAD_REACTORS
330
1A
102
}
330
1A
100
AcDbPlotSettings
  1

  2
none_device
  4

  6

 40
0.0
 41
0.0
 42
0.0
 43
0.0
 44
0.0
 45
0.0
 46
0.0
 47
0.0
 48
0.0
 49
0.0
140
0.0
141
0.0
142
1.0
143
1.0
 70
   688
 72
     1
 73
     0
 74
     5
  7

 75
    16
147
1.0
148
0.0
149
0.0
100
AcDbLayout
  1
Layout2
 70
     1
 71
     2
 10
0.0
 20
0.0
 11
0.0
 21
0.0
 12
0.0
 22
0.0
 32
0.0
 14
0.0
 24
0.0
 34
0.0
 15
0.0
 25
0.0
 35
0.0
146
0.0
 13
0.0
 23
0.0
 33
0.0
 16
1.0
 26
0.0
 36
0.0
 17
0.0
 27
1.0
 37
0.0
 76
     0
330
23
  0
LAYOUT
  5
22
102
{ACAD_REACTORS
330
1A
102
}
330
1A
100
AcDbPlotSettings
  1

  2
none_device
  4
ANSI_A_(11.00_x_8.50_Inches)
  6

 40
6.35
 41
19.05
 42
6.35000508
 43
19.05000254
 44
279.4
 45
215.9
 46
-4.95300254
 47
24.6052930444
 48
0.0
 49
0.0
140
0.0
141
0.0
142
0.0364214047
143
1.0
 70
  1696
 72
     0
 73
     0
 74
     0
  7

 75
     0
147
0.0179189148
148
-1300.4909072572
149
0.0
100
AcDbLayout
  1
Model
 70
     1
 71
     0
 10
0.0
 20
0.0
 11
420.0
 21
297.0
 12
0.0
 22
0.0
 32
0.0
 14
0.0
 24
0.0
 34
0.0
 15
299.0
 25
139.0
 35
0.0
146
0.0
 13
0.0
 23
0.0
 33
0.0
 16
1.0
 26
0.0
 36
0.0
 17
0.0
 27
1.0
 37
0.0
 76
     0
330
1F
331
29
  0
MLINESTYLE
  5
18
102
{ACAD_REACTORS
330
17
102
}
330
17
100
AcDbMlineStyle
  2
Standard
 70
     0
  3

 62
   256
 51
90.0
 52
90.0
 71
     2
 49
0.5
 62
   256
  6
BYLAYER
 49
-0.5
 62
   256
  6
BYLAYER
  0
ACDBPLACEHOLDER
  5
F
102
{ACAD_REACTORS
330
E
102
}
330
E
  0
SCALE
  5
48
102
{ACAD_REACTORS
330
47
102
}
330
47
100
AcDbScale
 70
     0
300
1:1
140
1.0
141
1.0
290
     1
  0
SCALE
  5
49
102
{ACAD_REACTORS
330
47
102
}
330
47
100
AcDbScale
 70
     0
300
1:2
140
1.0
141
2.0
290
     0
  0
SCALE
  5
4A
102
{ACAD_REACTORS
330
47
102
}
330
47
100
AcDbScale
 70
     0
300
1:4
140
1.0
141
4.0
290
     0
  0
SCALE
  5
4B
102
{ACAD_REACTORS
330
47
102
}
330
47
100
AcDbScale
 70
     0
300
1:5
140
1.0
141
5.0
290
     0
  0
SCALE
  5
4C
102
{ACAD_REACTORS
330
47
102
}
330
47
100
AcDbScale
 70
     0
300
1:8
140
1.0
141
8.0
290
     0
  0
SCALE
  5
4D
102
{ACAD_REACTORS
330
47
102
}
330
47
100
AcDbScale
 70
     0
300
1:10
140
1.0
141
10.0
290
     0
  0
SCALE
  5
4E
102
{ACAD_REACTORS
330
47
102
}
330
47
100
AcDbScale
 70
     0
300
1:16
140
1.0
141
16.0
290
     0
  0
SCALE
  5
4F
102
{ACAD_REACTORS
330
47
102
}
330
47
100
AcDbScale
 70
     0
300
1:20
140
1.0
141
20.0
290
     0
  0
SCALE
  5
50
102
{ACAD_REACTORS
330
47
102
}
330
47
100
AcDbScale
 70
     0
300
1:30
140
1.0
141
30.0
290
     0
  0
SCALE
  5
51
102
{ACAD_REACTORS
330
47
102
}
330
47
100
AcDbScale
 70
     0
300
1:40
140
1.0
141
40.0
290
     0
  0
SCALE
  5
52
102
{ACAD_REACTORS
330
47
102
}
330
47
100
AcDbScale
 70
     0
300
1:50
140
1.0
141
50.0
290
     0
  0
SCALE
  5
53
102
{ACAD_REACTORS
330
47
102
}
330
47
100
AcDbScale
 70
     0
300
1:100
140
1.0
141
100.0
290
     0
  0
SCALE
  5
54
102
{ACAD_REACTORS
330
47
102
}
330
47
100
AcDbScale
 70
     0
300
2:1
140
2.0
141
1.0
290
     0
  0
SCALE
  5
55
102
{ACAD_REACTORS
330
47
102
}
330
47
100
AcDbScale
 70
     0
300
4:1
140
4.0
141
1.0
290
     0
  0
SCALE
  5
56
102
{ACAD_REACTORS
330
47
102
}
330
47
100
AcDbScale
 70
     0
300
8:1
140
8.0
141
1.0
290
     0
  0
SCALE
  5
57
102
{ACAD_REACTORS
330
47
102
}
330
47
100
AcDbScale
 70
     0
300
10:1
140
10.0
141
1.0
290
     0
  0
SCALE
  5
58
102
{ACAD_REACTORS
330
47
102
}
330
47
100
AcDbScale
 70
     0
300
100:1
140
100.0
141
1.0
290
     0
  0
ENDSEC
  0
EOF
