G04*
G04 #@! TF.GenerationSoftware,Altium Limited,Altium Designer,22.11.1 (43)*
G04*
G04 Layer_Color=16711935*
%FSLAX25Y25*%
%MOIN*%
G70*
G04*
G04 #@! TF.SameCoordinates,87513E5D-72A9-4567-85CC-5DF515F27F8F*
G04*
G04*
G04 #@! TF.FilePolarity,Negative*
G04*
G01*
G75*
%ADD25R,0.03347X0.14764*%
%ADD26R,0.14764X0.03347*%
%ADD27R,0.28150X0.28150*%
%ADD28C,0.02559*%
%ADD29C,0.13583*%
%ADD30C,0.09646*%
%ADD31C,0.06496*%
%ADD32R,0.06496X0.06496*%
%ADD33R,0.06496X0.06496*%
%ADD34C,0.02953*%
%ADD45R,0.05709X0.10039*%
D25*
X526575Y71654D02*
D03*
X530512D02*
D03*
X534449D02*
D03*
X538386D02*
D03*
X542323D02*
D03*
X546260D02*
D03*
X550197D02*
D03*
X554134D02*
D03*
X558071D02*
D03*
X562008D02*
D03*
X565945D02*
D03*
X577756D02*
D03*
X581693D02*
D03*
X585630D02*
D03*
X589567D02*
D03*
X593504D02*
D03*
X597441D02*
D03*
X601378D02*
D03*
X605315D02*
D03*
X609252D02*
D03*
X613189D02*
D03*
X617126D02*
D03*
X621063D02*
D03*
X625000D02*
D03*
X628937D02*
D03*
X632874D02*
D03*
X636811D02*
D03*
X640748D02*
D03*
X644685D02*
D03*
X648622D02*
D03*
X652559D02*
D03*
X656496D02*
D03*
X660433D02*
D03*
X664370D02*
D03*
X668307D02*
D03*
X672244D02*
D03*
X676181D02*
D03*
X680118D02*
D03*
X684055D02*
D03*
X687992D02*
D03*
X691929D02*
D03*
X695866D02*
D03*
X699803D02*
D03*
X703740D02*
D03*
X707677D02*
D03*
X711614D02*
D03*
X715551D02*
D03*
X719488D02*
D03*
X723425D02*
D03*
Y548413D02*
D03*
X719488D02*
D03*
X715551D02*
D03*
X711614D02*
D03*
X707677D02*
D03*
X703740D02*
D03*
X699803D02*
D03*
X695866D02*
D03*
X691929D02*
D03*
X687992D02*
D03*
X684055D02*
D03*
X680118D02*
D03*
X676181D02*
D03*
X672244D02*
D03*
X668307D02*
D03*
X664370D02*
D03*
X660433D02*
D03*
X656496D02*
D03*
X652559D02*
D03*
X648622D02*
D03*
X644685D02*
D03*
X640748D02*
D03*
X636811D02*
D03*
X632874D02*
D03*
X628937D02*
D03*
X625000D02*
D03*
X621063D02*
D03*
X617126D02*
D03*
X613189D02*
D03*
X609252D02*
D03*
X605315D02*
D03*
X601378D02*
D03*
X597441D02*
D03*
X593504D02*
D03*
X589567D02*
D03*
X585630D02*
D03*
X581693D02*
D03*
X577756D02*
D03*
X565945D02*
D03*
X562008D02*
D03*
X558071D02*
D03*
X554134D02*
D03*
X550197D02*
D03*
X546260D02*
D03*
X542323D02*
D03*
X538386D02*
D03*
X534449D02*
D03*
X530512D02*
D03*
X526575D02*
D03*
D26*
X71654Y408477D02*
D03*
Y404540D02*
D03*
Y400603D02*
D03*
Y396666D02*
D03*
Y392729D02*
D03*
Y388792D02*
D03*
Y384855D02*
D03*
Y380918D02*
D03*
Y376981D02*
D03*
Y373044D02*
D03*
Y369107D02*
D03*
Y357296D02*
D03*
Y353359D02*
D03*
Y349422D02*
D03*
Y345485D02*
D03*
Y341548D02*
D03*
Y337611D02*
D03*
Y333674D02*
D03*
Y329737D02*
D03*
Y325800D02*
D03*
Y321863D02*
D03*
Y317926D02*
D03*
Y313989D02*
D03*
Y310052D02*
D03*
Y306115D02*
D03*
Y302178D02*
D03*
Y298241D02*
D03*
Y294304D02*
D03*
Y290367D02*
D03*
Y286430D02*
D03*
Y282493D02*
D03*
Y278556D02*
D03*
Y274619D02*
D03*
Y270682D02*
D03*
Y266745D02*
D03*
Y262808D02*
D03*
Y258871D02*
D03*
Y254934D02*
D03*
Y250997D02*
D03*
Y247060D02*
D03*
Y243123D02*
D03*
Y239186D02*
D03*
Y235249D02*
D03*
Y231312D02*
D03*
Y227375D02*
D03*
Y223438D02*
D03*
Y219501D02*
D03*
Y215564D02*
D03*
Y211627D02*
D03*
D27*
X526945Y435430D02*
D03*
X479000Y435500D02*
D03*
D28*
X303087Y528307D02*
D03*
X233008D02*
D03*
D29*
X315095Y535000D02*
D03*
X221000D02*
D03*
D30*
X507677Y68898D02*
D03*
X742323D02*
D03*
X742323Y551169D02*
D03*
X507677D02*
D03*
X68898Y427375D02*
D03*
Y192729D02*
D03*
D31*
X178071Y277992D02*
D03*
X188071D02*
D03*
X178071Y287992D02*
D03*
X188071D02*
D03*
X178071Y297992D02*
D03*
X188071D02*
D03*
X178071Y307992D02*
D03*
X188071D02*
D03*
X178071Y317992D02*
D03*
X188071D02*
D03*
X178071Y327992D02*
D03*
X188071D02*
D03*
X178071Y337992D02*
D03*
X188071D02*
D03*
X178071Y347992D02*
D03*
X1063898Y277992D02*
D03*
X1073898D02*
D03*
X1063898Y287992D02*
D03*
X1073898D02*
D03*
X1063898Y297992D02*
D03*
X1073898D02*
D03*
X1063898Y307992D02*
D03*
X1073898D02*
D03*
X1063898Y317992D02*
D03*
X1073898D02*
D03*
X1063898Y327992D02*
D03*
X1073898D02*
D03*
X1063898Y337992D02*
D03*
X1073898D02*
D03*
X1063898Y347992D02*
D03*
X932598Y221142D02*
D03*
X942598Y211142D02*
D03*
Y221142D02*
D03*
X952598Y211142D02*
D03*
Y221142D02*
D03*
X962598Y211142D02*
D03*
Y221142D02*
D03*
X972598Y211142D02*
D03*
Y221142D02*
D03*
X982598Y211142D02*
D03*
Y221142D02*
D03*
X992598Y211142D02*
D03*
Y221142D02*
D03*
X1002598Y211142D02*
D03*
Y221142D02*
D03*
X1012598Y211142D02*
D03*
Y221142D02*
D03*
X1022598Y211142D02*
D03*
Y221142D02*
D03*
X1032598Y211142D02*
D03*
Y221142D02*
D03*
X1042598Y211142D02*
D03*
Y221142D02*
D03*
X1052598Y211142D02*
D03*
Y221142D02*
D03*
X1062598Y211142D02*
D03*
Y221142D02*
D03*
X1072598Y211142D02*
D03*
Y221142D02*
D03*
X1082598Y211142D02*
D03*
Y221142D02*
D03*
X1092598Y211142D02*
D03*
Y221142D02*
D03*
X1102598Y211142D02*
D03*
Y221142D02*
D03*
X1112598Y211142D02*
D03*
Y221142D02*
D03*
X1122598Y211142D02*
D03*
Y221142D02*
D03*
D32*
X188071Y347992D02*
D03*
X1073898D02*
D03*
D33*
X932598Y211142D02*
D03*
D34*
X493714Y453609D02*
D03*
X488596D02*
D03*
X483478D02*
D03*
X478360D02*
D03*
X473241D02*
D03*
X468123D02*
D03*
X463005D02*
D03*
Y448490D02*
D03*
Y443372D02*
D03*
Y438254D02*
D03*
Y433136D02*
D03*
Y428018D02*
D03*
Y422900D02*
D03*
X457887Y453609D02*
D03*
Y448490D02*
D03*
Y443372D02*
D03*
Y438254D02*
D03*
Y433136D02*
D03*
Y428018D02*
D03*
Y422900D02*
D03*
X452769Y453609D02*
D03*
Y448490D02*
D03*
Y443372D02*
D03*
Y438254D02*
D03*
Y433136D02*
D03*
Y428018D02*
D03*
Y422900D02*
D03*
X447651Y453609D02*
D03*
Y448490D02*
D03*
Y443372D02*
D03*
Y438254D02*
D03*
Y433136D02*
D03*
Y428018D02*
D03*
Y422900D02*
D03*
X442533Y453609D02*
D03*
Y448490D02*
D03*
Y443372D02*
D03*
Y438254D02*
D03*
Y433136D02*
D03*
Y428018D02*
D03*
Y422900D02*
D03*
X437415Y453609D02*
D03*
Y448490D02*
D03*
Y443372D02*
D03*
Y438254D02*
D03*
Y433136D02*
D03*
Y428018D02*
D03*
Y422900D02*
D03*
X432297Y453609D02*
D03*
Y448490D02*
D03*
Y443372D02*
D03*
Y438254D02*
D03*
Y433136D02*
D03*
Y428018D02*
D03*
Y422900D02*
D03*
X427178Y453609D02*
D03*
Y448490D02*
D03*
Y443372D02*
D03*
Y438254D02*
D03*
Y433136D02*
D03*
Y428018D02*
D03*
Y422900D02*
D03*
X422060Y453609D02*
D03*
Y448490D02*
D03*
Y443372D02*
D03*
Y438254D02*
D03*
Y433136D02*
D03*
Y428018D02*
D03*
Y422900D02*
D03*
X416942Y453609D02*
D03*
Y448490D02*
D03*
Y443372D02*
D03*
Y438254D02*
D03*
Y433136D02*
D03*
Y428018D02*
D03*
Y422900D02*
D03*
X411824Y453609D02*
D03*
Y448490D02*
D03*
Y443372D02*
D03*
Y438254D02*
D03*
Y433136D02*
D03*
Y428018D02*
D03*
Y422900D02*
D03*
X406706Y453609D02*
D03*
Y448490D02*
D03*
Y443372D02*
D03*
Y438254D02*
D03*
Y433136D02*
D03*
Y428018D02*
D03*
Y422900D02*
D03*
X401588Y453609D02*
D03*
Y448490D02*
D03*
Y443372D02*
D03*
Y438254D02*
D03*
Y433136D02*
D03*
Y428018D02*
D03*
Y422900D02*
D03*
X396470Y453609D02*
D03*
Y448490D02*
D03*
Y443372D02*
D03*
Y438254D02*
D03*
Y433136D02*
D03*
Y428018D02*
D03*
X391352Y453609D02*
D03*
Y448490D02*
D03*
Y443372D02*
D03*
Y438254D02*
D03*
Y433136D02*
D03*
Y428018D02*
D03*
X386233Y453609D02*
D03*
Y448490D02*
D03*
Y443372D02*
D03*
Y438254D02*
D03*
Y433136D02*
D03*
X381115Y453609D02*
D03*
Y448490D02*
D03*
Y443372D02*
D03*
Y438254D02*
D03*
X375997Y453609D02*
D03*
Y448490D02*
D03*
Y443372D02*
D03*
X370879Y453609D02*
D03*
Y448490D02*
D03*
X365761Y453609D02*
D03*
X343000Y549500D02*
D03*
X862218Y90223D02*
D03*
X857100Y85105D02*
D03*
X851982Y100459D02*
D03*
Y79987D02*
D03*
X846863Y105577D02*
D03*
X841745Y95341D02*
D03*
X831509Y74869D02*
D03*
X826391Y79987D02*
D03*
Y74869D02*
D03*
X821273Y90223D02*
D03*
Y79987D02*
D03*
Y74869D02*
D03*
X816155Y110695D02*
D03*
Y90223D02*
D03*
Y79987D02*
D03*
Y74869D02*
D03*
X811037Y110695D02*
D03*
Y90223D02*
D03*
Y79987D02*
D03*
Y74869D02*
D03*
X805919Y110695D02*
D03*
Y95341D02*
D03*
Y85105D02*
D03*
Y79987D02*
D03*
Y74869D02*
D03*
X800800Y110695D02*
D03*
Y90223D02*
D03*
Y85105D02*
D03*
Y79987D02*
D03*
Y74869D02*
D03*
X795682Y110695D02*
D03*
Y95341D02*
D03*
Y90223D02*
D03*
Y85105D02*
D03*
Y79987D02*
D03*
Y74869D02*
D03*
X790564Y110695D02*
D03*
Y95341D02*
D03*
Y90223D02*
D03*
Y85105D02*
D03*
Y79987D02*
D03*
Y74869D02*
D03*
X785446Y85105D02*
D03*
Y79987D02*
D03*
X780328Y110695D02*
D03*
Y95341D02*
D03*
Y85105D02*
D03*
X775210Y110695D02*
D03*
Y95341D02*
D03*
X770092Y110695D02*
D03*
Y95341D02*
D03*
X764974Y110695D02*
D03*
X759856D02*
D03*
X754737D02*
D03*
X729147Y172113D02*
D03*
Y110695D02*
D03*
X724029Y172113D02*
D03*
Y110695D02*
D03*
X718911Y172113D02*
D03*
Y110695D02*
D03*
X713793Y172113D02*
D03*
Y110695D02*
D03*
X708674Y172113D02*
D03*
X703556D02*
D03*
X698438D02*
D03*
Y110695D02*
D03*
X688202Y172113D02*
D03*
X683084D02*
D03*
X677966D02*
D03*
X657493D02*
D03*
X652375D02*
D03*
X647257D02*
D03*
X642139D02*
D03*
Y126050D02*
D03*
Y110695D02*
D03*
X637021Y172113D02*
D03*
Y131168D02*
D03*
Y126050D02*
D03*
Y110695D02*
D03*
Y105577D02*
D03*
X631903Y172113D02*
D03*
Y136286D02*
D03*
Y131168D02*
D03*
Y126050D02*
D03*
Y110695D02*
D03*
Y105577D02*
D03*
Y100459D02*
D03*
X626785Y172113D02*
D03*
Y141404D02*
D03*
Y136286D02*
D03*
Y131168D02*
D03*
Y126050D02*
D03*
Y110695D02*
D03*
Y105577D02*
D03*
Y100459D02*
D03*
X616548Y172113D02*
D03*
Y166995D02*
D03*
X606312Y172113D02*
D03*
Y161876D02*
D03*
Y156758D02*
D03*
Y151640D02*
D03*
Y146522D02*
D03*
Y141404D02*
D03*
Y136286D02*
D03*
Y131168D02*
D03*
Y126050D02*
D03*
Y110695D02*
D03*
X601194Y166995D02*
D03*
Y161876D02*
D03*
Y156758D02*
D03*
Y151640D02*
D03*
Y146522D02*
D03*
Y141404D02*
D03*
Y136286D02*
D03*
X596076Y172113D02*
D03*
Y166995D02*
D03*
Y161876D02*
D03*
Y156758D02*
D03*
Y151640D02*
D03*
Y146522D02*
D03*
Y141404D02*
D03*
Y126050D02*
D03*
X590958Y172113D02*
D03*
Y166995D02*
D03*
Y161876D02*
D03*
Y156758D02*
D03*
Y151640D02*
D03*
Y146522D02*
D03*
Y131168D02*
D03*
Y126050D02*
D03*
X585840Y172113D02*
D03*
Y166995D02*
D03*
Y161876D02*
D03*
Y156758D02*
D03*
Y151640D02*
D03*
Y136286D02*
D03*
Y131168D02*
D03*
X580722Y172113D02*
D03*
Y166995D02*
D03*
Y161876D02*
D03*
Y156758D02*
D03*
Y141404D02*
D03*
Y136286D02*
D03*
X519304Y151640D02*
D03*
Y146522D02*
D03*
Y141404D02*
D03*
Y136286D02*
D03*
Y131168D02*
D03*
Y126050D02*
D03*
Y120931D02*
D03*
Y115813D02*
D03*
Y110695D02*
D03*
Y105577D02*
D03*
Y100459D02*
D03*
Y95341D02*
D03*
Y90223D02*
D03*
Y85105D02*
D03*
Y79987D02*
D03*
X514186Y156758D02*
D03*
Y151640D02*
D03*
Y146522D02*
D03*
Y141404D02*
D03*
Y136286D02*
D03*
Y131168D02*
D03*
Y126050D02*
D03*
Y120931D02*
D03*
Y115813D02*
D03*
Y110695D02*
D03*
Y105577D02*
D03*
Y100459D02*
D03*
Y95341D02*
D03*
Y90223D02*
D03*
Y85105D02*
D03*
Y79987D02*
D03*
X509068Y166995D02*
D03*
Y161876D02*
D03*
Y156758D02*
D03*
Y151640D02*
D03*
Y146522D02*
D03*
Y141404D02*
D03*
Y136286D02*
D03*
Y131168D02*
D03*
Y126050D02*
D03*
Y120931D02*
D03*
Y115813D02*
D03*
Y110695D02*
D03*
Y105577D02*
D03*
Y100459D02*
D03*
Y95341D02*
D03*
Y90223D02*
D03*
Y85105D02*
D03*
Y79987D02*
D03*
X503950Y172113D02*
D03*
Y166995D02*
D03*
Y161876D02*
D03*
Y156758D02*
D03*
Y151640D02*
D03*
Y146522D02*
D03*
Y141404D02*
D03*
Y136286D02*
D03*
Y131168D02*
D03*
Y126050D02*
D03*
Y120931D02*
D03*
Y115813D02*
D03*
Y110695D02*
D03*
Y105577D02*
D03*
Y100459D02*
D03*
Y95341D02*
D03*
Y90223D02*
D03*
Y85105D02*
D03*
Y79987D02*
D03*
X498832Y172113D02*
D03*
Y166995D02*
D03*
Y161876D02*
D03*
Y156758D02*
D03*
Y151640D02*
D03*
Y146522D02*
D03*
Y141404D02*
D03*
Y136286D02*
D03*
Y131168D02*
D03*
Y126050D02*
D03*
Y120931D02*
D03*
Y115813D02*
D03*
Y110695D02*
D03*
Y105577D02*
D03*
Y100459D02*
D03*
Y95341D02*
D03*
Y90223D02*
D03*
Y85105D02*
D03*
X493714Y172113D02*
D03*
Y166995D02*
D03*
Y161876D02*
D03*
Y156758D02*
D03*
Y151640D02*
D03*
Y146522D02*
D03*
Y141404D02*
D03*
Y136286D02*
D03*
Y131168D02*
D03*
Y126050D02*
D03*
Y120931D02*
D03*
Y115813D02*
D03*
Y110695D02*
D03*
Y105577D02*
D03*
Y100459D02*
D03*
Y95341D02*
D03*
Y90223D02*
D03*
Y85105D02*
D03*
X488596Y172113D02*
D03*
Y166995D02*
D03*
Y161876D02*
D03*
Y156758D02*
D03*
Y151640D02*
D03*
Y146522D02*
D03*
Y141404D02*
D03*
Y136286D02*
D03*
Y131168D02*
D03*
Y126050D02*
D03*
Y120931D02*
D03*
Y115813D02*
D03*
Y110695D02*
D03*
Y105577D02*
D03*
Y100459D02*
D03*
Y95341D02*
D03*
Y90223D02*
D03*
Y85105D02*
D03*
X483478Y172113D02*
D03*
Y166995D02*
D03*
Y161876D02*
D03*
Y156758D02*
D03*
Y151640D02*
D03*
Y146522D02*
D03*
Y141404D02*
D03*
Y136286D02*
D03*
Y131168D02*
D03*
Y126050D02*
D03*
Y120931D02*
D03*
Y115813D02*
D03*
Y110695D02*
D03*
Y105577D02*
D03*
Y100459D02*
D03*
Y95341D02*
D03*
Y90223D02*
D03*
Y85105D02*
D03*
X478360Y172113D02*
D03*
Y166995D02*
D03*
Y161876D02*
D03*
Y156758D02*
D03*
Y151640D02*
D03*
Y146522D02*
D03*
Y141404D02*
D03*
Y136286D02*
D03*
Y131168D02*
D03*
Y126050D02*
D03*
Y120931D02*
D03*
Y115813D02*
D03*
Y110695D02*
D03*
Y105577D02*
D03*
Y100459D02*
D03*
Y95341D02*
D03*
Y90223D02*
D03*
Y85105D02*
D03*
X473241Y172113D02*
D03*
Y166995D02*
D03*
Y161876D02*
D03*
Y156758D02*
D03*
Y151640D02*
D03*
Y146522D02*
D03*
Y141404D02*
D03*
Y136286D02*
D03*
Y131168D02*
D03*
Y126050D02*
D03*
Y120931D02*
D03*
Y115813D02*
D03*
Y110695D02*
D03*
Y105577D02*
D03*
Y100459D02*
D03*
Y95341D02*
D03*
Y90223D02*
D03*
Y85105D02*
D03*
X468123Y172113D02*
D03*
Y166995D02*
D03*
Y161876D02*
D03*
Y156758D02*
D03*
Y151640D02*
D03*
Y146522D02*
D03*
Y141404D02*
D03*
Y136286D02*
D03*
Y131168D02*
D03*
Y126050D02*
D03*
Y120931D02*
D03*
Y115813D02*
D03*
Y110695D02*
D03*
Y105577D02*
D03*
Y100459D02*
D03*
Y95341D02*
D03*
Y90223D02*
D03*
Y85105D02*
D03*
X463005Y172113D02*
D03*
Y166995D02*
D03*
Y161876D02*
D03*
Y156758D02*
D03*
Y151640D02*
D03*
Y146522D02*
D03*
Y141404D02*
D03*
Y136286D02*
D03*
Y131168D02*
D03*
Y126050D02*
D03*
Y120931D02*
D03*
Y115813D02*
D03*
Y110695D02*
D03*
Y105577D02*
D03*
Y100459D02*
D03*
Y95341D02*
D03*
Y90223D02*
D03*
Y85105D02*
D03*
X457887Y172113D02*
D03*
Y166995D02*
D03*
Y161876D02*
D03*
Y156758D02*
D03*
Y151640D02*
D03*
Y146522D02*
D03*
Y141404D02*
D03*
Y136286D02*
D03*
Y131168D02*
D03*
Y126050D02*
D03*
Y120931D02*
D03*
Y115813D02*
D03*
Y110695D02*
D03*
Y105577D02*
D03*
Y100459D02*
D03*
Y95341D02*
D03*
X452769Y172113D02*
D03*
Y166995D02*
D03*
Y161876D02*
D03*
Y156758D02*
D03*
Y151640D02*
D03*
Y146522D02*
D03*
Y141404D02*
D03*
Y136286D02*
D03*
Y131168D02*
D03*
Y126050D02*
D03*
Y120931D02*
D03*
Y115813D02*
D03*
X447651Y172113D02*
D03*
Y166995D02*
D03*
Y161876D02*
D03*
Y156758D02*
D03*
Y151640D02*
D03*
Y146522D02*
D03*
Y141404D02*
D03*
Y136286D02*
D03*
X442533Y172113D02*
D03*
Y166995D02*
D03*
Y161876D02*
D03*
Y156758D02*
D03*
X513500Y181500D02*
D03*
X574254Y137254D02*
D03*
X584000Y117000D02*
D03*
X525000Y188000D02*
D03*
X644500Y494500D02*
D03*
X624500Y508000D02*
D03*
X544500Y282500D02*
D03*
X763179Y337878D02*
D03*
X404500Y541000D02*
D03*
X597000Y303500D02*
D03*
X979934Y417782D02*
D03*
Y407546D02*
D03*
X974816Y417782D02*
D03*
X969698D02*
D03*
X964580Y284711D02*
D03*
X959462Y325656D02*
D03*
Y320538D02*
D03*
Y289829D02*
D03*
X949226Y387073D02*
D03*
Y300065D02*
D03*
X944108Y381955D02*
D03*
Y305183D02*
D03*
X938989Y387073D02*
D03*
X933871Y361483D02*
D03*
Y335892D02*
D03*
Y315420D02*
D03*
X928753Y397309D02*
D03*
Y361483D02*
D03*
Y330774D02*
D03*
Y320538D02*
D03*
X923635Y325656D02*
D03*
X918517Y407546D02*
D03*
X908281Y417782D02*
D03*
X903163Y392191D02*
D03*
X898044Y284711D02*
D03*
X892926Y289829D02*
D03*
Y284711D02*
D03*
X882690Y407546D02*
D03*
Y320538D02*
D03*
Y310301D02*
D03*
Y305183D02*
D03*
Y300065D02*
D03*
Y294947D02*
D03*
Y289829D02*
D03*
Y284711D02*
D03*
X877572Y341010D02*
D03*
Y325656D02*
D03*
Y320538D02*
D03*
Y310301D02*
D03*
Y305183D02*
D03*
Y300065D02*
D03*
Y294947D02*
D03*
Y289829D02*
D03*
Y284711D02*
D03*
X872454Y407546D02*
D03*
Y346128D02*
D03*
Y330774D02*
D03*
Y325656D02*
D03*
Y320538D02*
D03*
Y310301D02*
D03*
Y305183D02*
D03*
Y300065D02*
D03*
Y294947D02*
D03*
Y289829D02*
D03*
Y284711D02*
D03*
X867336Y407546D02*
D03*
Y351246D02*
D03*
Y335892D02*
D03*
Y330774D02*
D03*
Y325656D02*
D03*
Y320538D02*
D03*
Y310301D02*
D03*
Y305183D02*
D03*
Y300065D02*
D03*
Y294947D02*
D03*
Y289829D02*
D03*
Y284711D02*
D03*
X862218Y407546D02*
D03*
Y356364D02*
D03*
Y341010D02*
D03*
Y335892D02*
D03*
Y330774D02*
D03*
Y325656D02*
D03*
Y315420D02*
D03*
Y310301D02*
D03*
Y305183D02*
D03*
Y300065D02*
D03*
Y294947D02*
D03*
Y289829D02*
D03*
Y284711D02*
D03*
Y520144D02*
D03*
Y509908D02*
D03*
Y499672D02*
D03*
Y489435D02*
D03*
Y484317D02*
D03*
Y479199D02*
D03*
Y474081D02*
D03*
X857100Y520144D02*
D03*
Y509908D02*
D03*
Y499672D02*
D03*
Y489435D02*
D03*
Y484317D02*
D03*
Y479199D02*
D03*
X851982Y509908D02*
D03*
Y499672D02*
D03*
Y489435D02*
D03*
Y484317D02*
D03*
X846863Y489435D02*
D03*
X752920Y498708D02*
D03*
X796500Y492500D02*
D03*
X916000Y353500D02*
D03*
X920500Y361408D02*
D03*
X739481Y510500D02*
D03*
X723000Y276500D02*
D03*
X757519Y260519D02*
D03*
X759852Y402640D02*
D03*
X862500Y153209D02*
D03*
X864000Y136500D02*
D03*
X859520Y158608D02*
D03*
X826420Y128508D02*
D03*
X784020Y88208D02*
D03*
X599000Y98000D02*
D03*
X607500Y106500D02*
D03*
X664520Y126108D02*
D03*
X833000Y163500D02*
D03*
X649568Y528187D02*
D03*
X626500D02*
D03*
X631462Y529987D02*
D03*
Y526825D02*
D03*
X640500Y528187D02*
D03*
X691929Y536721D02*
D03*
X689500Y527405D02*
D03*
X714261Y531759D02*
D03*
X721835Y533909D02*
D03*
X619220Y180508D02*
D03*
X617004Y159004D02*
D03*
X669000Y466500D02*
D03*
X636504Y519004D02*
D03*
X788500Y401089D02*
D03*
X651722Y96281D02*
D03*
X687992Y98081D02*
D03*
X649082Y101908D02*
D03*
X750500Y519500D02*
D03*
X825500Y533000D02*
D03*
X731500Y502000D02*
D03*
X727500Y511500D02*
D03*
X657220Y527408D02*
D03*
X644500Y527500D02*
D03*
X698588Y529508D02*
D03*
X721500Y513719D02*
D03*
X692000Y515519D02*
D03*
X672500Y512500D02*
D03*
X658000Y508000D02*
D03*
X750841Y504583D02*
D03*
X944500Y392000D02*
D03*
X809000Y238500D02*
D03*
X816500Y234000D02*
D03*
X785000Y245500D02*
D03*
X880000Y121500D02*
D03*
X717500Y98000D02*
D03*
X679000Y146500D02*
D03*
X664270Y132058D02*
D03*
X168500Y266000D02*
D03*
X147500Y238500D02*
D03*
X1039974Y347974D02*
D03*
X867500Y538750D02*
D03*
X107767Y310046D02*
D03*
X100092Y306115D02*
D03*
X93839Y302339D02*
D03*
X691929Y82929D02*
D03*
X692228Y87599D02*
D03*
X729331Y85827D02*
D03*
X890500Y500208D02*
D03*
X930500Y463608D02*
D03*
X933520Y325108D02*
D03*
X840299Y183201D02*
D03*
X757000Y177000D02*
D03*
X826000Y219500D02*
D03*
X791500Y458500D02*
D03*
X895500Y316000D02*
D03*
X791500Y445500D02*
D03*
X796500Y462500D02*
D03*
X982598Y246902D02*
D03*
X910500Y329214D02*
D03*
X811500Y425860D02*
D03*
X1014281Y353500D02*
D03*
X905500Y364028D02*
D03*
X951800Y194200D02*
D03*
X939174Y202362D02*
D03*
X748820Y168608D02*
D03*
X874420Y212608D02*
D03*
X820263Y409441D02*
D03*
X749220Y195008D02*
D03*
X1030500Y332500D02*
D03*
X945020Y187808D02*
D03*
X843720Y358608D02*
D03*
X875020Y369008D02*
D03*
X900500D02*
D03*
X808000Y515500D02*
D03*
X770320Y90908D02*
D03*
X904720Y259208D02*
D03*
X865420Y202508D02*
D03*
X888020Y419608D02*
D03*
X708510Y502510D02*
D03*
X618000Y191325D02*
D03*
X686000Y112000D02*
D03*
X676000Y382500D02*
D03*
X910500Y382908D02*
D03*
X971520Y250508D02*
D03*
X1057220Y198508D02*
D03*
X1048620Y189908D02*
D03*
X984000Y177500D02*
D03*
X930500Y500208D02*
D03*
X730220Y135908D02*
D03*
X723720Y129408D02*
D03*
X664820Y80808D02*
D03*
X644685D02*
D03*
X1054000Y266500D02*
D03*
X895500Y400208D02*
D03*
X879920Y401208D02*
D03*
X876320Y503108D02*
D03*
X740620Y541808D02*
D03*
X932500Y438491D02*
D03*
X695420Y163208D02*
D03*
X806520Y500208D02*
D03*
X735620Y550408D02*
D03*
X893420Y511908D02*
D03*
X915520Y385408D02*
D03*
X756820Y167908D02*
D03*
X813720Y500208D02*
D03*
X969520Y178208D02*
D03*
X1055705Y253295D02*
D03*
X605820Y221708D02*
D03*
Y417708D02*
D03*
X843720Y158108D02*
D03*
X747020Y257908D02*
D03*
X415020Y251508D02*
D03*
X451720Y214808D02*
D03*
X845500Y100500D02*
D03*
X643048Y83908D02*
D03*
X996000Y371500D02*
D03*
X937000D02*
D03*
X816500Y367000D02*
D03*
X100239Y323739D02*
D03*
X119222Y353691D02*
D03*
X89259Y298241D02*
D03*
X116511Y313989D02*
D03*
X104750Y333000D02*
D03*
X837469Y115469D02*
D03*
X787700Y392500D02*
D03*
X885620Y512508D02*
D03*
X629420Y557608D02*
D03*
X876320Y177008D02*
D03*
X940325Y188825D02*
D03*
X746000Y101000D02*
D03*
X857500Y146000D02*
D03*
X114701Y170799D02*
D03*
X837181Y121681D02*
D03*
X728568Y530000D02*
D03*
X138520Y115908D02*
D03*
X699320Y118508D02*
D03*
X997000Y186500D02*
D03*
X869920Y202108D02*
D03*
X625500Y62508D02*
D03*
X1036000Y252008D02*
D03*
X913000Y284500D02*
D03*
X957500Y329000D02*
D03*
X1029620Y252508D02*
D03*
X826000Y497250D02*
D03*
X729331Y79557D02*
D03*
X806500Y394500D02*
D03*
X815908Y412481D02*
D03*
X782504Y412996D02*
D03*
X1024500Y347500D02*
D03*
X835500Y396000D02*
D03*
Y473000D02*
D03*
X789000Y486000D02*
D03*
X829775Y395225D02*
D03*
X788903Y107798D02*
D03*
X731792D02*
D03*
X998500Y362500D02*
D03*
X925500Y367000D02*
D03*
D45*
X299543Y536181D02*
D03*
X283795D02*
D03*
X275921D02*
D03*
X268047D02*
D03*
X260173D02*
D03*
X252299D02*
D03*
X244425D02*
D03*
X236551D02*
D03*
M02*
