G04*
G04 #@! TF.GenerationSoftware,Altium Limited,Altium Designer,22.11.1 (43)*
G04*
G04 Layer_Color=32768*
%FSLAX25Y25*%
%MOIN*%
G70*
G04*
G04 #@! TF.SameCoordinates,87513E5D-72A9-4567-85CC-5DF515F27F8F*
G04*
G04*
G04 #@! TF.FilePolarity,Positive*
G04*
G01*
G75*
%ADD11C,0.00787*%
%ADD46C,0.00394*%
%ADD48C,0.00197*%
D11*
X828110Y131181D02*
Y155819D01*
X841890D01*
Y131181D02*
Y155819D01*
X828110Y131181D02*
X841890D01*
X828610Y79681D02*
Y104319D01*
X842390D01*
Y79681D02*
Y104319D01*
X828610Y79681D02*
X842390D01*
X825338Y173260D02*
Y180740D01*
Y173260D02*
X842661D01*
Y180740D01*
X825338D02*
X842661D01*
X815740Y82339D02*
Y99661D01*
X808260Y82339D02*
X815740D01*
X808260D02*
Y99661D01*
X815740D01*
X760740Y500338D02*
Y517661D01*
X753260Y500338D02*
X760740D01*
X753260D02*
Y517661D01*
X760740D01*
X724553Y89338D02*
Y106661D01*
X732033D01*
Y89338D02*
Y106661D01*
X724553Y89338D02*
X732033D01*
X701913D02*
Y106661D01*
X709394D01*
Y89338D02*
Y106661D01*
X701913Y89338D02*
X709394D01*
X112338Y203740D02*
X129662D01*
Y196260D02*
Y203740D01*
X112338Y196260D02*
X129662D01*
X112338D02*
Y203740D01*
Y221740D02*
X129662D01*
Y214260D02*
Y221740D01*
X112338Y214260D02*
X129662D01*
X112338D02*
Y221740D01*
Y234260D02*
X129662D01*
X112338D02*
Y241740D01*
X129662D01*
Y234260D02*
Y241740D01*
X741245Y499839D02*
X748725D01*
Y517162D01*
X741245D02*
X748725D01*
X741245Y499839D02*
Y517162D01*
X767425Y464905D02*
X820575D01*
Y510181D01*
X767425D02*
X820575D01*
X767425Y464905D02*
Y510181D01*
X881425Y464905D02*
X934575D01*
Y510181D01*
X881425D02*
X934575D01*
X881425Y464905D02*
Y510181D01*
X767425Y336099D02*
Y381374D01*
X820575D01*
Y336099D02*
Y381374D01*
X767425Y336099D02*
X820575D01*
X881425Y336098D02*
Y381374D01*
X934575D01*
Y336098D02*
Y381374D01*
X881425Y336098D02*
X934575D01*
D46*
X867031Y99500D02*
X870969D01*
X869000Y97532D02*
Y101469D01*
X869000Y145531D02*
Y149468D01*
X867031Y147500D02*
X870969D01*
D48*
X872937Y91823D02*
Y107177D01*
X865063Y91823D02*
Y107177D01*
X872937D01*
X865063Y91823D02*
X872937D01*
X865063Y155177D02*
X872937D01*
X865063Y139823D02*
X872937D01*
Y155177D01*
X865063Y139823D02*
Y155177D01*
X492913Y58071D02*
X568110D01*
X575591D02*
X754528D01*
X568110D02*
Y82677D01*
X575591D01*
Y58071D02*
Y82677D01*
X492913Y58071D02*
Y87599D01*
X756693D01*
Y58071D02*
Y87599D01*
X754724Y58071D02*
X756693D01*
X754724Y561996D02*
X756693D01*
Y532468D02*
Y561996D01*
X492913Y532468D02*
X756693D01*
X492913D02*
Y561996D01*
X575590Y537389D02*
Y561996D01*
X568110Y537389D02*
X575590D01*
X568110D02*
Y561996D01*
X575590D02*
X754527D01*
X492913D02*
X568110D01*
X58071Y366942D02*
Y442139D01*
Y180525D02*
Y359462D01*
Y366942D02*
X82677D01*
Y359462D02*
Y366942D01*
X58071Y359462D02*
X82677D01*
X58071Y442139D02*
X87599D01*
Y178359D02*
Y442139D01*
X58071Y178359D02*
X87599D01*
X58071D02*
Y180328D01*
M02*
