G04*
G04 #@! TF.GenerationSoftware,Altium Limited,Altium Designer,22.11.1 (43)*
G04*
G04 Layer_Physical_Order=2*
G04 Layer_Color=16711680*
%FSLAX25Y25*%
%MOIN*%
G70*
G04*
G04 #@! TF.SameCoordinates,87513E5D-72A9-4567-85CC-5DF515F27F8F*
G04*
G04*
G04 #@! TF.FilePolarity,Positive*
G04*
G01*
G75*
%ADD14C,0.01000*%
%ADD21R,0.02756X0.14173*%
%ADD22R,0.14173X0.02756*%
%ADD36R,0.27559X0.27559*%
%ADD37C,0.01968*%
%ADD38C,0.12992*%
%ADD39C,0.09055*%
%ADD40C,0.05906*%
%ADD41R,0.05906X0.05906*%
%ADD42R,0.05906X0.05906*%
%ADD43C,0.02362*%
%ADD44R,0.05118X0.09449*%
G36*
X491109Y561011D02*
X491234Y560710D01*
X491536Y560585D01*
X567684D01*
Y537389D01*
X567809Y537088D01*
X567994Y537011D01*
Y534671D01*
X575474D01*
Y536963D01*
X575590D01*
X575892Y537088D01*
X576017Y537389D01*
Y540526D01*
X725603D01*
Y556283D01*
X739190D01*
X739320Y555800D01*
X738938Y555579D01*
X737912Y554553D01*
X737186Y553296D01*
X736975Y552508D01*
X736385Y552236D01*
X736014Y552389D01*
X735226D01*
X734498Y552087D01*
X733941Y551530D01*
X733639Y550802D01*
Y550014D01*
X733941Y549286D01*
X734295Y548932D01*
Y547908D01*
X734396Y547401D01*
X734683Y546971D01*
X737683Y543971D01*
X738113Y543683D01*
X738620Y543583D01*
X738886D01*
X739093Y543083D01*
X738941Y542930D01*
X738639Y542202D01*
Y541414D01*
X738941Y540686D01*
X739498Y540129D01*
X740226Y539827D01*
X741014D01*
X741742Y540129D01*
X742096Y540483D01*
X865724D01*
X865931Y539983D01*
X865820Y539872D01*
X865519Y539144D01*
Y538643D01*
X826106Y499231D01*
X825606D01*
X824878Y498930D01*
X824320Y498372D01*
X824019Y497644D01*
Y496856D01*
X824152Y496533D01*
X823818Y496033D01*
X811885D01*
X811822Y496214D01*
X811802Y496533D01*
X812157Y496771D01*
X813614Y498227D01*
X814114D01*
X814842Y498528D01*
X815400Y499086D01*
X815701Y499814D01*
Y500602D01*
X815400Y501330D01*
X814842Y501888D01*
X814114Y502189D01*
X813326D01*
X812598Y501888D01*
X812041Y501330D01*
X811739Y500602D01*
Y500101D01*
X810671Y499033D01*
X808719D01*
X808385Y499534D01*
X808501Y499814D01*
Y500602D01*
X808200Y501330D01*
X807642Y501888D01*
X806914Y502189D01*
X806413D01*
X806393Y502210D01*
X805963Y502497D01*
X805456Y502598D01*
X752365D01*
X752158Y503098D01*
X752521Y503460D01*
X752822Y504188D01*
Y504977D01*
X752521Y505705D01*
X751996Y506229D01*
Y518194D01*
X752179Y518378D01*
X752481Y519106D01*
Y519894D01*
X752179Y520622D01*
X751622Y521179D01*
X750894Y521481D01*
X750106D01*
X749378Y521179D01*
X749024Y520825D01*
X739617D01*
X730549Y529893D01*
Y530394D01*
X730247Y531122D01*
X729690Y531679D01*
X728962Y531981D01*
X728174D01*
X727446Y531679D01*
X726888Y531122D01*
X726587Y530394D01*
Y529606D01*
X726888Y528878D01*
X727446Y528321D01*
X728174Y528019D01*
X728674D01*
X738131Y518563D01*
X738560Y518275D01*
X739068Y518175D01*
X749024D01*
X749345Y517853D01*
Y505888D01*
X749162Y505705D01*
X748860Y504977D01*
Y504188D01*
X749162Y503460D01*
X749524Y503098D01*
X749317Y502598D01*
X738277D01*
X729481Y511393D01*
Y511894D01*
X729179Y512622D01*
X728622Y513179D01*
X727894Y513481D01*
X727106D01*
X726378Y513179D01*
X725820Y512622D01*
X725519Y511894D01*
Y511106D01*
X725820Y510378D01*
X726378Y509821D01*
X727106Y509519D01*
X727607D01*
X736791Y500335D01*
X737220Y500048D01*
X737728Y499947D01*
X750748D01*
X751082Y499447D01*
X750939Y499102D01*
Y498314D01*
X751097Y497933D01*
X750763Y497434D01*
X737941D01*
X733481Y501893D01*
Y502394D01*
X733180Y503122D01*
X732622Y503680D01*
X731894Y503981D01*
X731106D01*
X730378Y503680D01*
X729820Y503122D01*
X729519Y502394D01*
Y501606D01*
X729820Y500878D01*
X730378Y500320D01*
X731106Y500019D01*
X731607D01*
X736455Y495171D01*
X736885Y494883D01*
X737392Y494783D01*
X795527D01*
X795626Y494283D01*
X795378Y494179D01*
X794820Y493622D01*
X794519Y492894D01*
Y492106D01*
X794820Y491378D01*
X795378Y490821D01*
X795562Y490744D01*
X795462Y490244D01*
X738467D01*
X720713Y507999D01*
Y508708D01*
X720612Y509215D01*
X720325Y509646D01*
X709447Y520523D01*
X700569Y529401D01*
Y529902D01*
X700267Y530630D01*
X699710Y531187D01*
X698982Y531489D01*
X698194D01*
X697465Y531187D01*
X696908Y530630D01*
X696606Y529902D01*
Y529114D01*
X696414Y528826D01*
X690881D01*
X690622Y529084D01*
X689894Y529386D01*
X689106D01*
X688378Y529084D01*
X687820Y528527D01*
X687519Y527799D01*
Y527011D01*
X687820Y526283D01*
X688378Y525725D01*
X689106Y525424D01*
X689894D01*
X690622Y525725D01*
X691071Y526174D01*
X696479D01*
X699295Y523359D01*
Y503261D01*
X698833Y503070D01*
X670297Y531605D01*
X669867Y531893D01*
X669360Y531993D01*
X639472D01*
X638965Y531893D01*
X638535Y531605D01*
X638242Y531312D01*
X632938D01*
X632584Y531666D01*
X631856Y531968D01*
X631068D01*
X630340Y531666D01*
X629806Y531132D01*
X629332Y531605D01*
X628902Y531893D01*
X628395Y531993D01*
X621900D01*
X621393Y531893D01*
X620963Y531605D01*
X619683Y530326D01*
X534263D01*
X531183Y533405D01*
X530753Y533693D01*
X530246Y533793D01*
X484581D01*
X460937Y557437D01*
X460507Y557725D01*
X460000Y557826D01*
X272000D01*
X271493Y557725D01*
X271063Y557437D01*
X259236Y545611D01*
X258949Y545180D01*
X258848Y544673D01*
Y541705D01*
X256814D01*
Y530657D01*
X263532D01*
Y541705D01*
X261499D01*
Y544124D01*
X272549Y555174D01*
X459451D01*
X483095Y531531D01*
X483525Y531244D01*
X484032Y531143D01*
X529697D01*
X532776Y528063D01*
X533207Y527775D01*
X533714Y527674D01*
X533714Y527674D01*
X620232D01*
X620740Y527775D01*
X621170Y528063D01*
X622449Y529343D01*
X624293D01*
X624627Y528843D01*
X624519Y528581D01*
Y528080D01*
X623563Y527124D01*
X623275Y526694D01*
X623174Y526187D01*
Y509476D01*
X622821Y509122D01*
X622519Y508394D01*
Y507606D01*
X622821Y506878D01*
X623378Y506320D01*
X624106Y506019D01*
X624894D01*
X625622Y506320D01*
X626180Y506878D01*
X626481Y507606D01*
Y508394D01*
X626180Y509122D01*
X625826Y509476D01*
Y525638D01*
X626393Y526206D01*
X626894D01*
X627156Y526314D01*
X627656Y525980D01*
Y522633D01*
X627757Y522126D01*
X628044Y521696D01*
X628630Y521110D01*
X629060Y520823D01*
X629363Y520762D01*
X763550Y386575D01*
Y339914D01*
X763050Y339882D01*
X738143Y364789D01*
X737713Y365076D01*
X737206Y365177D01*
X737197D01*
X712260Y390114D01*
Y428074D01*
X712159Y428581D01*
X711872Y429011D01*
X646481Y494402D01*
Y494894D01*
X646179Y495622D01*
X645622Y496179D01*
X644894Y496481D01*
X644106D01*
X643378Y496179D01*
X642821Y495622D01*
X642519Y494894D01*
Y494106D01*
X642821Y493378D01*
X643378Y492821D01*
X644106Y492519D01*
X644615D01*
X668257Y468878D01*
X668139Y468288D01*
X667878Y468180D01*
X667320Y467622D01*
X667019Y466894D01*
Y466106D01*
X667320Y465378D01*
X667674Y465024D01*
Y389500D01*
X667775Y388993D01*
X668063Y388563D01*
X674019Y382607D01*
Y382106D01*
X674320Y381378D01*
X674675Y381024D01*
Y249874D01*
X618107Y193306D01*
X617606D01*
X616878Y193005D01*
X616320Y192447D01*
X616019Y191719D01*
Y190931D01*
X616320Y190203D01*
X616878Y189646D01*
X617606Y189344D01*
X618394D01*
X619122Y189646D01*
X619679Y190203D01*
X619981Y190931D01*
Y191432D01*
X676937Y248388D01*
X677224Y248818D01*
X677325Y249325D01*
Y381024D01*
X677679Y381378D01*
X677981Y382106D01*
Y382894D01*
X677679Y383622D01*
X677122Y384179D01*
X676394Y384481D01*
X675893D01*
X670326Y390049D01*
Y465024D01*
X670680Y465378D01*
X670788Y465639D01*
X671378Y465757D01*
X709609Y427525D01*
Y389565D01*
X709710Y389058D01*
X709998Y388628D01*
X735711Y362914D01*
X736141Y362627D01*
X736648Y362526D01*
X736657D01*
X761198Y337984D01*
Y337484D01*
X761500Y336756D01*
X762057Y336198D01*
X762785Y335897D01*
X763574D01*
X764302Y336198D01*
X764859Y336756D01*
X765022Y337148D01*
X765611Y337265D01*
X769107Y333769D01*
X769537Y333482D01*
X769600Y333470D01*
X769765Y332927D01*
X619327Y182489D01*
X618826D01*
X618098Y182187D01*
X617541Y181630D01*
X617239Y180902D01*
Y180114D01*
X617541Y179386D01*
X618098Y178829D01*
X618826Y178527D01*
X619614D01*
X620342Y178829D01*
X620900Y179386D01*
X621201Y180114D01*
Y180615D01*
X716713Y276126D01*
X717174Y275935D01*
Y215500D01*
X717275Y214993D01*
X717563Y214563D01*
X755019Y177107D01*
Y176606D01*
X755320Y175878D01*
X755878Y175320D01*
X756606Y175019D01*
X756939D01*
X757146Y174519D01*
X751301Y168674D01*
X750801Y168881D01*
Y169002D01*
X750500Y169730D01*
X749942Y170288D01*
X749214Y170589D01*
X748426D01*
X747698Y170288D01*
X747344Y169933D01*
X626608D01*
X626101Y169833D01*
X625671Y169545D01*
X617111Y160986D01*
X616610D01*
X615882Y160684D01*
X615325Y160127D01*
X615217Y159865D01*
X614627Y159748D01*
X579825Y194549D01*
Y277451D01*
X603937Y301563D01*
X603995Y301649D01*
X604495Y301497D01*
Y223184D01*
X604141Y222830D01*
X603839Y222102D01*
Y221314D01*
X604141Y220586D01*
X604698Y220028D01*
X605426Y219727D01*
X606214D01*
X606942Y220028D01*
X607500Y220586D01*
X607801Y221314D01*
Y222102D01*
X607500Y222830D01*
X607146Y223184D01*
Y416232D01*
X607500Y416586D01*
X607801Y417314D01*
Y418102D01*
X607500Y418830D01*
X606942Y419387D01*
X606214Y419689D01*
X605426D01*
X604698Y419387D01*
X604141Y418830D01*
X603839Y418102D01*
Y417314D01*
X604141Y416586D01*
X604495Y416232D01*
Y400022D01*
X603995Y399870D01*
X603937Y399956D01*
X585825Y418068D01*
Y447000D01*
X585725Y447507D01*
X585437Y447937D01*
X514937Y518437D01*
X514507Y518725D01*
X514000Y518825D01*
X428549D01*
X406481Y540893D01*
Y541394D01*
X406180Y542122D01*
X405622Y542680D01*
X404894Y542981D01*
X404106D01*
X403378Y542680D01*
X402820Y542122D01*
X402519Y541394D01*
Y540606D01*
X402820Y539878D01*
X403378Y539321D01*
X404106Y539019D01*
X404607D01*
X427063Y516563D01*
X427493Y516275D01*
X428000Y516175D01*
X513451D01*
X583175Y446451D01*
Y417519D01*
X583275Y417012D01*
X583563Y416582D01*
X601675Y398470D01*
Y303049D01*
X577563Y278937D01*
X577275Y278507D01*
X577175Y278000D01*
Y194000D01*
X577275Y193493D01*
X577563Y193063D01*
X647800Y122826D01*
X647593Y122326D01*
X590549D01*
X582068Y130807D01*
X582068Y130807D01*
X576170Y136704D01*
X576235Y136860D01*
Y137648D01*
X575934Y138376D01*
X575376Y138934D01*
X575325Y138955D01*
Y199708D01*
X575225Y200215D01*
X574937Y200645D01*
X534844Y240738D01*
Y275470D01*
X542019Y282644D01*
X542519Y282437D01*
Y282106D01*
X542821Y281378D01*
X543378Y280820D01*
X544106Y280519D01*
X544894D01*
X545622Y280820D01*
X545976Y281174D01*
X576000D01*
X576507Y281275D01*
X576937Y281563D01*
X596893Y301519D01*
X597394D01*
X598122Y301820D01*
X598679Y302378D01*
X598981Y303106D01*
Y303894D01*
X598679Y304622D01*
X598122Y305180D01*
X597394Y305481D01*
X596606D01*
X595878Y305180D01*
X595320Y304622D01*
X595019Y303894D01*
Y303393D01*
X575451Y283825D01*
X545976D01*
X545622Y284179D01*
X544894Y284481D01*
X544563D01*
X544356Y284981D01*
X570937Y311563D01*
X571225Y311993D01*
X571325Y312500D01*
Y452914D01*
X571225Y453421D01*
X570937Y453852D01*
X520852Y503937D01*
X520422Y504225D01*
X519914Y504325D01*
X306770D01*
X279306Y531790D01*
Y534122D01*
X279280Y534250D01*
Y541705D01*
X272562D01*
Y530657D01*
X276807D01*
X277043Y530304D01*
X305284Y502063D01*
X305714Y501775D01*
X306221Y501675D01*
X519365D01*
X568675Y452365D01*
Y313049D01*
X551969Y296344D01*
X551489Y296484D01*
X549566Y305176D01*
X549537Y305242D01*
X549523Y305312D01*
X549474Y305386D01*
X549438Y305468D01*
X549386Y305517D01*
X549346Y305577D01*
X549272Y305626D01*
X549208Y305688D01*
X549141Y305714D01*
X549082Y305754D01*
X548995Y305771D01*
X548912Y305803D01*
X548840Y305802D01*
X548770Y305816D01*
X451316D01*
Y409742D01*
X499499D01*
X499652Y409773D01*
X499805Y409802D01*
X499808Y409804D01*
X499811Y409804D01*
X499941Y409891D01*
X500071Y409976D01*
X500073Y409979D01*
X500076Y409981D01*
X500163Y410111D01*
X500250Y410239D01*
X500251Y410243D01*
X500253Y410246D01*
X500283Y410399D01*
X500315Y410551D01*
X500448Y426459D01*
X500446Y426465D01*
X500448Y426472D01*
X500177Y459187D01*
X500145Y459339D01*
X500115Y459492D01*
X500113Y459495D01*
X500112Y459499D01*
X500025Y459627D01*
X499938Y459757D01*
X499935Y459759D01*
X499933Y459762D01*
X499803Y459847D01*
X499674Y459934D01*
X499670Y459935D01*
X499667Y459937D01*
X499515Y459966D01*
X499361Y459996D01*
X327124D01*
X255674Y477639D01*
Y540905D01*
X255658Y540984D01*
Y541705D01*
X254937D01*
X254858Y541721D01*
X233992D01*
X233913Y541705D01*
X233192D01*
Y540984D01*
X233176Y540905D01*
Y531260D01*
X232619D01*
X231868Y531059D01*
X231195Y530670D01*
X230645Y530120D01*
X230256Y529447D01*
X230055Y528696D01*
Y527918D01*
X230256Y527167D01*
X230645Y526494D01*
X231195Y525944D01*
X231868Y525556D01*
X232619Y525354D01*
X233176D01*
Y411725D01*
X64609D01*
X64607Y411724D01*
X64605Y411725D01*
X64451Y411693D01*
X64297Y411662D01*
X64295Y411661D01*
X64293Y411661D01*
X64163Y411573D01*
X64032Y411486D01*
X64031Y411484D01*
X64029Y411482D01*
X63677Y411127D01*
X63676Y411125D01*
X63674Y411124D01*
X63588Y410992D01*
X63502Y410861D01*
X63502Y410859D01*
X63500Y410857D01*
X63471Y410703D01*
X63442Y410549D01*
X63442Y410547D01*
X63442Y410545D01*
X63767Y380235D01*
Y374803D01*
Y370866D01*
Y367368D01*
X59481D01*
Y443504D01*
X59356Y443805D01*
X59055Y443930D01*
X426D01*
Y619653D01*
X491109D01*
Y561011D01*
D02*
G37*
G36*
X1249574Y426D02*
X758891Y426D01*
Y59055D01*
X758766Y59357D01*
X758464Y59481D01*
X575780D01*
Y63767D01*
X623336D01*
X623670Y63267D01*
X623519Y62902D01*
Y62114D01*
X623820Y61386D01*
X624378Y60829D01*
X625106Y60527D01*
X625894D01*
X626622Y60829D01*
X626976Y61183D01*
X769652D01*
X774163Y56671D01*
X774593Y56384D01*
X775101Y56283D01*
X949720D01*
X950227Y56384D01*
X950657Y56671D01*
X1077857Y183871D01*
X1078145Y184301D01*
X1078246Y184808D01*
X1078246Y184808D01*
Y227408D01*
X1078145Y227915D01*
X1077857Y228345D01*
X1055694Y250508D01*
X1055861Y251049D01*
X1056042Y251084D01*
X1081273Y225853D01*
Y224672D01*
X1081150Y224639D01*
X1080294Y224145D01*
X1079595Y223446D01*
X1079101Y222590D01*
X1078846Y221636D01*
Y220648D01*
X1079101Y219693D01*
X1079595Y218838D01*
X1080294Y218139D01*
X1081150Y217645D01*
X1082104Y217389D01*
X1083092D01*
X1084047Y217645D01*
X1084903Y218139D01*
X1085601Y218838D01*
X1086095Y219693D01*
X1086351Y220648D01*
Y221636D01*
X1086095Y222590D01*
X1085601Y223446D01*
X1084903Y224145D01*
X1084047Y224639D01*
X1083924Y224672D01*
Y226402D01*
X1083823Y226909D01*
X1083536Y227339D01*
X1057686Y253189D01*
Y253689D01*
X1057384Y254417D01*
X1056827Y254975D01*
X1056099Y255276D01*
X1055311D01*
X1054583Y254975D01*
X1054025Y254417D01*
X1053724Y253689D01*
Y253186D01*
X1053224Y252979D01*
X1050246Y255957D01*
Y294866D01*
X1056369Y300989D01*
X1060934D01*
X1061125Y300527D01*
X1060895Y300296D01*
X1060401Y299441D01*
X1060145Y298486D01*
Y297498D01*
X1060401Y296544D01*
X1060895Y295688D01*
X1061594Y294989D01*
X1062449Y294495D01*
X1063404Y294239D01*
X1064392D01*
X1065346Y294495D01*
X1066202Y294989D01*
X1066901Y295688D01*
X1067395Y296544D01*
X1067651Y297498D01*
Y298486D01*
X1067395Y299441D01*
X1066901Y300296D01*
X1066670Y300527D01*
X1066861Y300989D01*
X1068220D01*
X1068727Y301090D01*
X1069157Y301377D01*
X1072339Y304559D01*
X1072449Y304495D01*
X1073404Y304240D01*
X1074392D01*
X1075346Y304495D01*
X1076202Y304989D01*
X1076901Y305688D01*
X1077395Y306544D01*
X1077651Y307498D01*
Y308486D01*
X1077395Y309441D01*
X1076901Y310297D01*
X1076202Y310995D01*
X1075346Y311489D01*
X1074392Y311745D01*
X1073404D01*
X1072449Y311489D01*
X1071593Y310995D01*
X1070895Y310297D01*
X1070401Y309441D01*
X1070145Y308486D01*
Y307498D01*
X1070401Y306544D01*
X1070464Y306433D01*
X1067671Y303640D01*
X1055820D01*
X1055313Y303539D01*
X1054883Y303252D01*
X1047983Y296352D01*
X1047696Y295922D01*
X1047595Y295415D01*
Y256118D01*
X1047133Y255926D01*
X1040351Y262708D01*
X1039921Y262995D01*
X1039414Y263096D01*
X850770D01*
X850263Y262995D01*
X849833Y262708D01*
X814951Y227825D01*
X804549D01*
X786981Y245393D01*
Y245894D01*
X786680Y246622D01*
X786122Y247180D01*
X785394Y247481D01*
X784606D01*
X783878Y247180D01*
X783321Y246622D01*
X783019Y245894D01*
Y245106D01*
X783321Y244378D01*
X783878Y243821D01*
X784606Y243519D01*
X785107D01*
X803063Y225563D01*
X803493Y225275D01*
X804000Y225174D01*
X815500D01*
X816007Y225275D01*
X816437Y225563D01*
X851320Y260445D01*
X864417D01*
X864608Y259983D01*
X826106Y221481D01*
X825606D01*
X824878Y221180D01*
X824320Y220622D01*
X824019Y219894D01*
Y219106D01*
X824320Y218378D01*
X824878Y217821D01*
X825606Y217519D01*
X826394D01*
X827122Y217821D01*
X827679Y218378D01*
X827981Y219106D01*
Y219607D01*
X868819Y260445D01*
X902547D01*
X902881Y259945D01*
X902739Y259602D01*
Y259101D01*
X864483Y220845D01*
X864196Y220415D01*
X864095Y219908D01*
Y203984D01*
X863741Y203630D01*
X863439Y202902D01*
Y202114D01*
X863741Y201386D01*
X864298Y200829D01*
X865026Y200527D01*
X865814D01*
X866542Y200829D01*
X867100Y201386D01*
X867401Y202114D01*
Y202902D01*
X867100Y203630D01*
X866746Y203984D01*
Y219359D01*
X904613Y257227D01*
X905114D01*
X905842Y257528D01*
X906400Y258086D01*
X906701Y258814D01*
Y259602D01*
X906559Y259945D01*
X906893Y260445D01*
X1038865D01*
X1061273Y238037D01*
Y224672D01*
X1061150Y224639D01*
X1060294Y224145D01*
X1059595Y223446D01*
X1059101Y222590D01*
X1058846Y221636D01*
Y220648D01*
X1059101Y219693D01*
X1059595Y218838D01*
X1060294Y218139D01*
X1061150Y217645D01*
X1062104Y217389D01*
X1063092D01*
X1064047Y217645D01*
X1064903Y218139D01*
X1065601Y218838D01*
X1066095Y219693D01*
X1066351Y220648D01*
Y221636D01*
X1066095Y222590D01*
X1065601Y223446D01*
X1064903Y224145D01*
X1064047Y224639D01*
X1063924Y224672D01*
Y237877D01*
X1064386Y238068D01*
X1075595Y226859D01*
Y214106D01*
X1075133Y213915D01*
X1074903Y214145D01*
X1074047Y214639D01*
X1073092Y214895D01*
X1072104D01*
X1071150Y214639D01*
X1070294Y214145D01*
X1069595Y213446D01*
X1069101Y212591D01*
X1068846Y211636D01*
Y210648D01*
X1069101Y209694D01*
X1069595Y208838D01*
X1070294Y208139D01*
X1071150Y207645D01*
X1072104Y207389D01*
X1073092D01*
X1074047Y207645D01*
X1074903Y208139D01*
X1075133Y208369D01*
X1075595Y208178D01*
Y185357D01*
X949171Y58934D01*
X775650D01*
X771138Y63445D01*
X770708Y63733D01*
X770201Y63833D01*
X745541D01*
X745411Y64316D01*
X745707Y64487D01*
X746734Y65513D01*
X747459Y66770D01*
X747835Y68172D01*
Y69624D01*
X747459Y71025D01*
X746734Y72282D01*
X745707Y73308D01*
X744450Y74034D01*
X743150Y74383D01*
X743216Y74883D01*
X766871D01*
X778883Y62871D01*
X779313Y62584D01*
X779820Y62483D01*
X852808D01*
X853315Y62584D01*
X853745Y62871D01*
X875937Y85063D01*
X876225Y85493D01*
X876326Y86000D01*
Y115951D01*
X879893Y119519D01*
X880394D01*
X881122Y119820D01*
X881680Y120378D01*
X881981Y121106D01*
Y121894D01*
X881680Y122622D01*
X881122Y123179D01*
X880394Y123481D01*
X879606D01*
X878878Y123179D01*
X878321Y122622D01*
X878019Y121894D01*
Y121393D01*
X874063Y117437D01*
X873775Y117007D01*
X873674Y116500D01*
Y86549D01*
X852259Y65134D01*
X840661D01*
X840470Y65595D01*
X846437Y71563D01*
X846725Y71993D01*
X846825Y72500D01*
Y99024D01*
X847179Y99378D01*
X847481Y100106D01*
Y100894D01*
X847179Y101622D01*
X846622Y102180D01*
X845894Y102481D01*
X845106D01*
X844378Y102180D01*
X843820Y101622D01*
X843519Y100894D01*
Y100106D01*
X843820Y99378D01*
X844174Y99024D01*
Y73049D01*
X838112Y66986D01*
X781888D01*
X760154Y88721D01*
X760345Y89183D01*
X761071D01*
X762983Y87271D01*
X763413Y86984D01*
X763920Y86883D01*
X782544D01*
X782898Y86528D01*
X783626Y86227D01*
X784414D01*
X785142Y86528D01*
X785700Y87086D01*
X786001Y87814D01*
Y88602D01*
X785700Y89330D01*
X785142Y89887D01*
X784414Y90189D01*
X783626D01*
X782898Y89887D01*
X782544Y89534D01*
X772401D01*
X772102Y90034D01*
X772301Y90514D01*
Y91302D01*
X772000Y92030D01*
X771442Y92588D01*
X770714Y92889D01*
X770214D01*
X769557Y93545D01*
X769127Y93833D01*
X768620Y93933D01*
X710269D01*
X688784Y115419D01*
X688354Y115706D01*
X687847Y115807D01*
X684893D01*
X684386Y115706D01*
X683956Y115419D01*
X671771Y103234D01*
X650558D01*
X650204Y103587D01*
X649476Y103889D01*
X648688D01*
X647960Y103587D01*
X647402Y103030D01*
X647101Y102302D01*
Y101514D01*
X647402Y100786D01*
X647960Y100229D01*
X648688Y99927D01*
X649476D01*
X650204Y100229D01*
X650558Y100583D01*
X672320D01*
X672827Y100683D01*
X673257Y100971D01*
X683599Y111313D01*
X684189Y111195D01*
X684320Y110878D01*
X684878Y110320D01*
X685606Y110019D01*
X686106D01*
X686667Y109459D01*
Y99557D01*
X686313Y99203D01*
X686011Y98475D01*
Y97687D01*
X685957Y97607D01*
X653198D01*
X652844Y97961D01*
X652116Y98262D01*
X651328D01*
X650600Y97961D01*
X650043Y97403D01*
X649741Y96675D01*
Y95887D01*
X649849Y95626D01*
X649515Y95126D01*
X619249D01*
X614556Y99819D01*
Y100770D01*
X614455Y101277D01*
X614168Y101707D01*
X609481Y106393D01*
Y106894D01*
X609179Y107622D01*
X608622Y108179D01*
X607894Y108481D01*
X607106D01*
X606378Y108179D01*
X605821Y107622D01*
X605519Y106894D01*
Y106106D01*
X605821Y105378D01*
X606378Y104821D01*
X607106Y104519D01*
X607607D01*
X611905Y100221D01*
Y99270D01*
X612006Y98762D01*
X612293Y98332D01*
X616838Y93787D01*
X616647Y93326D01*
X613049D01*
X600826Y105549D01*
Y108951D01*
X605749Y113874D01*
X676826D01*
X677333Y113975D01*
X677763Y114263D01*
X680256Y116756D01*
X694206D01*
X695946Y115016D01*
X696159Y114874D01*
X696372Y114730D01*
X696374Y114730D01*
X696376Y114729D01*
X696628Y114679D01*
X696879Y114628D01*
X835987Y114149D01*
X836346Y113789D01*
X837074Y113488D01*
X837406D01*
X837613Y112988D01*
X830451Y105825D01*
X790438D01*
X790231Y106325D01*
X790582Y106676D01*
X790884Y107404D01*
Y108193D01*
X790582Y108921D01*
X790025Y109478D01*
X789297Y109780D01*
X788509D01*
X787780Y109478D01*
X787426Y109124D01*
X733268D01*
X732914Y109478D01*
X732186Y109780D01*
X731398D01*
X730670Y109478D01*
X730113Y108921D01*
X729811Y108193D01*
Y107404D01*
X730113Y106676D01*
X730670Y106119D01*
X731398Y105817D01*
X732186D01*
X732914Y106119D01*
X733268Y106473D01*
X787094D01*
X787192Y106325D01*
X786926Y105825D01*
X749500D01*
X748993Y105725D01*
X748563Y105437D01*
X746106Y102981D01*
X745606D01*
X744878Y102680D01*
X744320Y102122D01*
X744019Y101394D01*
Y100606D01*
X744320Y99878D01*
X744411Y99787D01*
X744219Y99326D01*
X718976D01*
X718622Y99679D01*
X717894Y99981D01*
X717106D01*
X716378Y99679D01*
X715821Y99122D01*
X715519Y98394D01*
Y97606D01*
X715821Y96878D01*
X716378Y96320D01*
X717106Y96019D01*
X717894D01*
X718622Y96320D01*
X718976Y96675D01*
X833412D01*
X833919Y96775D01*
X834349Y97063D01*
X860957Y123671D01*
X861245Y124101D01*
X861346Y124608D01*
Y149608D01*
X861245Y150115D01*
X860957Y150545D01*
X858346Y153157D01*
Y156409D01*
X858846Y156743D01*
X859126Y156627D01*
X859914D01*
X860642Y156929D01*
X860996Y157283D01*
X1029020D01*
X1029527Y157384D01*
X1029957Y157671D01*
X1063536Y191249D01*
X1063823Y191679D01*
X1063924Y192186D01*
Y207612D01*
X1064047Y207645D01*
X1064903Y208139D01*
X1065601Y208838D01*
X1066095Y209694D01*
X1066351Y210648D01*
Y211636D01*
X1066095Y212591D01*
X1065601Y213446D01*
X1064903Y214145D01*
X1064047Y214639D01*
X1063092Y214895D01*
X1062104D01*
X1061150Y214639D01*
X1060294Y214145D01*
X1059595Y213446D01*
X1059101Y212591D01*
X1058846Y211636D01*
Y210648D01*
X1059101Y209694D01*
X1059595Y208838D01*
X1060294Y208139D01*
X1061150Y207645D01*
X1061273Y207612D01*
Y192735D01*
X1028471Y159933D01*
X919653D01*
X919502Y160433D01*
X919557Y160471D01*
X944913Y185827D01*
X945414D01*
X946142Y186128D01*
X946700Y186686D01*
X947001Y187414D01*
Y188202D01*
X946756Y188794D01*
X946958Y189193D01*
X947050Y189286D01*
X947337Y189321D01*
X953576Y183082D01*
X954006Y182794D01*
X954514Y182693D01*
X1001622D01*
X1001813Y182231D01*
X998407Y178825D01*
X985476D01*
X985122Y179180D01*
X984394Y179481D01*
X983606D01*
X982878Y179180D01*
X982320Y178622D01*
X982019Y177894D01*
Y177106D01*
X982132Y176833D01*
X981798Y176333D01*
X973269D01*
X971501Y178101D01*
Y178602D01*
X971200Y179330D01*
X970642Y179887D01*
X969914Y180189D01*
X969126D01*
X968398Y179887D01*
X967841Y179330D01*
X967539Y178602D01*
Y177814D01*
X967841Y177086D01*
X968398Y176529D01*
X969126Y176227D01*
X969627D01*
X971783Y174071D01*
X972213Y173784D01*
X972720Y173683D01*
X1006464D01*
X1006972Y173784D01*
X1007402Y174071D01*
X1041039Y207709D01*
X1041150Y207645D01*
X1042104Y207389D01*
X1043092D01*
X1044047Y207645D01*
X1044903Y208139D01*
X1045601Y208838D01*
X1046095Y209694D01*
X1046351Y210648D01*
Y211636D01*
X1046095Y212591D01*
X1045601Y213446D01*
X1044903Y214145D01*
X1044047Y214639D01*
X1043092Y214895D01*
X1042104D01*
X1041150Y214639D01*
X1040294Y214145D01*
X1039595Y213446D01*
X1039101Y212591D01*
X1038846Y211636D01*
Y210648D01*
X1039101Y209694D01*
X1039165Y209583D01*
X1005915Y176333D01*
X1000371D01*
X1000164Y176833D01*
X1031040Y207709D01*
X1031150Y207645D01*
X1032104Y207389D01*
X1033092D01*
X1034047Y207645D01*
X1034903Y208139D01*
X1035601Y208838D01*
X1036095Y209694D01*
X1036351Y210648D01*
Y211636D01*
X1036095Y212591D01*
X1035601Y213446D01*
X1034903Y214145D01*
X1034047Y214639D01*
X1033092Y214895D01*
X1032104D01*
X1031150Y214639D01*
X1030294Y214145D01*
X1029595Y213446D01*
X1029101Y212591D01*
X1028846Y211636D01*
Y210648D01*
X1029101Y209694D01*
X1029165Y209583D01*
X1014386Y194804D01*
X1013924Y194996D01*
Y207612D01*
X1014047Y207645D01*
X1014903Y208139D01*
X1015601Y208838D01*
X1016095Y209694D01*
X1016351Y210648D01*
Y211636D01*
X1016095Y212591D01*
X1015601Y213446D01*
X1014903Y214145D01*
X1014047Y214639D01*
X1013092Y214895D01*
X1012104D01*
X1011150Y214639D01*
X1011040Y214575D01*
X1009270Y216345D01*
X1008840Y216633D01*
X1008332Y216734D01*
X988651D01*
X988224Y216649D01*
X988117Y216742D01*
X988027Y216852D01*
X987916Y217058D01*
X988145Y217401D01*
X988246Y217908D01*
Y222459D01*
X989869Y224083D01*
X999578D01*
X999770Y223621D01*
X999595Y223446D01*
X999101Y222590D01*
X998846Y221636D01*
Y220648D01*
X999101Y219693D01*
X999595Y218838D01*
X1000294Y218139D01*
X1001150Y217645D01*
X1002104Y217389D01*
X1003092D01*
X1004047Y217645D01*
X1004903Y218139D01*
X1005601Y218838D01*
X1006095Y219693D01*
X1006351Y220648D01*
Y221636D01*
X1006095Y222590D01*
X1005601Y223446D01*
X1005427Y223621D01*
X1005618Y224083D01*
X1009578D01*
X1009770Y223621D01*
X1009595Y223446D01*
X1009101Y222590D01*
X1008846Y221636D01*
Y220648D01*
X1009101Y219693D01*
X1009595Y218838D01*
X1010294Y218139D01*
X1011150Y217645D01*
X1012104Y217389D01*
X1013092D01*
X1014047Y217645D01*
X1014903Y218139D01*
X1015601Y218838D01*
X1016095Y219693D01*
X1016351Y220648D01*
Y221636D01*
X1016095Y222590D01*
X1015601Y223446D01*
X1015427Y223621D01*
X1015618Y224083D01*
X1024871D01*
X1025595Y223359D01*
Y216013D01*
X1024157Y214575D01*
X1024047Y214639D01*
X1023092Y214895D01*
X1022104D01*
X1021150Y214639D01*
X1020294Y214145D01*
X1019595Y213446D01*
X1019101Y212591D01*
X1018846Y211636D01*
Y210648D01*
X1019101Y209694D01*
X1019595Y208838D01*
X1020294Y208139D01*
X1021150Y207645D01*
X1022104Y207389D01*
X1023092D01*
X1024047Y207645D01*
X1024903Y208139D01*
X1025601Y208838D01*
X1026095Y209694D01*
X1026351Y210648D01*
Y211636D01*
X1026095Y212591D01*
X1026032Y212701D01*
X1027857Y214527D01*
X1028145Y214957D01*
X1028246Y215464D01*
Y223908D01*
X1028145Y224415D01*
X1027857Y224845D01*
X1026357Y226345D01*
X1025927Y226633D01*
X1025420Y226733D01*
X989320D01*
X988813Y226633D01*
X988383Y226345D01*
X985983Y223945D01*
X985913Y223841D01*
X985276Y223772D01*
X984903Y224145D01*
X984047Y224639D01*
X983924Y224672D01*
Y245425D01*
X984278Y245779D01*
X984579Y246508D01*
Y247296D01*
X984278Y248024D01*
X983720Y248581D01*
X982992Y248883D01*
X982204D01*
X981476Y248581D01*
X980919Y248024D01*
X980617Y247296D01*
Y246508D01*
X980919Y245779D01*
X981273Y245425D01*
Y224672D01*
X981150Y224639D01*
X980294Y224145D01*
X979595Y223446D01*
X979101Y222590D01*
X978846Y221636D01*
Y220648D01*
X979101Y219693D01*
X979595Y218838D01*
X979757Y218677D01*
X979565Y218215D01*
X975632D01*
X975440Y218677D01*
X975601Y218838D01*
X976095Y219693D01*
X976351Y220648D01*
Y221636D01*
X976095Y222590D01*
X975601Y223446D01*
X974903Y224145D01*
X974047Y224639D01*
X973924Y224672D01*
Y249430D01*
X973924Y249430D01*
X973823Y249937D01*
X973536Y250367D01*
X973501Y250401D01*
Y250902D01*
X973200Y251630D01*
X972642Y252187D01*
X971914Y252489D01*
X971126D01*
X970398Y252187D01*
X969841Y251630D01*
X969539Y250902D01*
Y250114D01*
X969841Y249386D01*
X970398Y248829D01*
X971126Y248527D01*
X971273D01*
Y224672D01*
X971150Y224639D01*
X970294Y224145D01*
X969595Y223446D01*
X969101Y222590D01*
X968846Y221636D01*
Y220648D01*
X969101Y219693D01*
X969595Y218838D01*
X969757Y218677D01*
X969565Y218215D01*
X965631D01*
X965440Y218677D01*
X965601Y218838D01*
X966095Y219693D01*
X966351Y220648D01*
Y221636D01*
X966095Y222590D01*
X965601Y223446D01*
X964903Y224145D01*
X964047Y224639D01*
X963092Y224895D01*
X962104D01*
X961150Y224639D01*
X960294Y224145D01*
X959753Y223604D01*
X959425Y223499D01*
X959105Y223597D01*
X956357Y226345D01*
X955927Y226633D01*
X955420Y226733D01*
X887220D01*
X886713Y226633D01*
X886283Y226345D01*
X874527Y214589D01*
X874026D01*
X873298Y214287D01*
X872741Y213730D01*
X872439Y213002D01*
Y212214D01*
X872741Y211486D01*
X873298Y210929D01*
X874026Y210627D01*
X874814D01*
X875542Y210929D01*
X876100Y211486D01*
X876401Y212214D01*
Y212715D01*
X887769Y224083D01*
X929578D01*
X929770Y223621D01*
X929595Y223446D01*
X929101Y222590D01*
X928846Y221636D01*
Y220648D01*
X929101Y219693D01*
X929595Y218838D01*
X930294Y218139D01*
X931150Y217645D01*
X932104Y217389D01*
X933092D01*
X934047Y217645D01*
X934903Y218139D01*
X935601Y218838D01*
X936095Y219693D01*
X936351Y220648D01*
Y221636D01*
X936095Y222590D01*
X935601Y223446D01*
X935427Y223621D01*
X935618Y224083D01*
X939578D01*
X939770Y223621D01*
X939595Y223446D01*
X939101Y222590D01*
X938846Y221636D01*
Y220648D01*
X939101Y219693D01*
X939595Y218838D01*
X940294Y218139D01*
X941150Y217645D01*
X942104Y217389D01*
X943092D01*
X944047Y217645D01*
X944903Y218139D01*
X945601Y218838D01*
X946095Y219693D01*
X946351Y220648D01*
Y221636D01*
X946095Y222590D01*
X945601Y223446D01*
X945427Y223621D01*
X945618Y224083D01*
X954871D01*
X956995Y221959D01*
Y217889D01*
X957096Y217382D01*
X957383Y216952D01*
X958383Y215952D01*
X958813Y215665D01*
X959320Y215564D01*
X985901D01*
X986306Y215644D01*
X986562Y215318D01*
X986600Y215232D01*
X985914Y214545D01*
X985627Y214115D01*
X985086Y213961D01*
X984903Y214145D01*
X984047Y214639D01*
X983092Y214895D01*
X982104D01*
X981150Y214639D01*
X980294Y214145D01*
X979595Y213446D01*
X979101Y212591D01*
X978846Y211636D01*
Y210648D01*
X979101Y209694D01*
X979595Y208838D01*
X979757Y208677D01*
X979565Y208215D01*
X965631D01*
X965440Y208677D01*
X965601Y208838D01*
X966095Y209694D01*
X966351Y210648D01*
Y211636D01*
X966095Y212591D01*
X965601Y213446D01*
X964903Y214145D01*
X964047Y214639D01*
X963092Y214895D01*
X962104D01*
X961150Y214639D01*
X960294Y214145D01*
X960025Y213876D01*
X959437Y213995D01*
X959283Y214227D01*
X957164Y216345D01*
X956734Y216633D01*
X956227Y216734D01*
X936864D01*
X936864Y216734D01*
X936357Y216633D01*
X935927Y216345D01*
X934477Y214895D01*
X928846D01*
Y207389D01*
X936351D01*
Y213020D01*
X937413Y214083D01*
X939578D01*
X939770Y213621D01*
X939595Y213446D01*
X939101Y212591D01*
X938846Y211636D01*
Y210648D01*
X939101Y209694D01*
X939595Y208838D01*
X940294Y208139D01*
X941150Y207645D01*
X942104Y207389D01*
X943092D01*
X944047Y207645D01*
X944903Y208139D01*
X945601Y208838D01*
X946095Y209694D01*
X946351Y210648D01*
Y211636D01*
X946095Y212591D01*
X945601Y213446D01*
X945427Y213621D01*
X945618Y214083D01*
X949578D01*
X949770Y213621D01*
X949595Y213446D01*
X949101Y212591D01*
X948846Y211636D01*
Y210648D01*
X949101Y209694D01*
X949165Y209583D01*
X945915Y206333D01*
X872820D01*
X872313Y206233D01*
X871883Y205945D01*
X870027Y204089D01*
X869526D01*
X868798Y203787D01*
X868241Y203230D01*
X867939Y202502D01*
Y201714D01*
X868241Y200986D01*
X868798Y200429D01*
X869526Y200127D01*
X870314D01*
X871042Y200429D01*
X871600Y200986D01*
X871901Y201714D01*
Y202215D01*
X873369Y203683D01*
X878611D01*
X878641Y203644D01*
X878793Y203183D01*
X867363Y191752D01*
X830122D01*
X760679Y261195D01*
X760249Y261483D01*
X759742Y261584D01*
X759222D01*
X759198Y261641D01*
X758641Y262198D01*
X757913Y262500D01*
X757125D01*
X756397Y262198D01*
X755839Y261641D01*
X755538Y260913D01*
Y260125D01*
X755839Y259397D01*
X756397Y258839D01*
X757125Y258538D01*
X757913D01*
X758641Y258839D01*
X758735Y258933D01*
X759193D01*
X828636Y189490D01*
X829066Y189202D01*
X829573Y189101D01*
X829623Y189111D01*
X829673Y189101D01*
X832524D01*
X838318Y183307D01*
Y182807D01*
X838620Y182079D01*
X839177Y181521D01*
X839905Y181220D01*
X840693D01*
X841421Y181521D01*
X841979Y182079D01*
X842280Y182807D01*
Y183595D01*
X841979Y184323D01*
X841421Y184880D01*
X840693Y185182D01*
X840193D01*
X836735Y188639D01*
X836926Y189101D01*
X867912D01*
X868419Y189202D01*
X868849Y189490D01*
X880397Y201037D01*
X932436D01*
X943615Y189858D01*
X943675Y189779D01*
X943634Y189223D01*
X943341Y188930D01*
X943039Y188202D01*
Y187701D01*
X918071Y162733D01*
X858320D01*
X857813Y162633D01*
X857383Y162345D01*
X856083Y161045D01*
X855796Y160615D01*
X855695Y160108D01*
Y152608D01*
X855796Y152101D01*
X856083Y151671D01*
X858695Y149059D01*
Y148191D01*
X858195Y147857D01*
X857894Y147981D01*
X857106D01*
X856378Y147679D01*
X855820Y147122D01*
X855519Y146394D01*
Y145606D01*
X855820Y144878D01*
X856174Y144524D01*
Y131549D01*
X840351Y115726D01*
X839808Y115890D01*
X839801Y115927D01*
X852437Y128563D01*
X852724Y128993D01*
X852825Y129500D01*
Y157641D01*
X852724Y158148D01*
X852437Y158578D01*
X790888Y220127D01*
X790888Y220127D01*
X749689Y261326D01*
X749259Y261614D01*
X748752Y261715D01*
X739660D01*
X724981Y276393D01*
Y276894D01*
X724680Y277622D01*
X724122Y278180D01*
X723394Y278481D01*
X722606D01*
X722119Y278279D01*
X721835Y278703D01*
X798557Y355425D01*
X798845Y355855D01*
X798946Y356362D01*
Y392654D01*
X798845Y393161D01*
X798557Y393591D01*
X792603Y399545D01*
X792173Y399833D01*
X791666Y399934D01*
X790707D01*
X790373Y400433D01*
X790481Y400695D01*
Y401483D01*
X790179Y402211D01*
X789622Y402769D01*
X788894Y403070D01*
X788106D01*
X787378Y402769D01*
X787024Y402415D01*
X768414D01*
X763747Y407082D01*
X763938Y407544D01*
X786263D01*
X836137Y357671D01*
X836567Y357383D01*
X837074Y357283D01*
X842244D01*
X842598Y356928D01*
X843326Y356627D01*
X844114D01*
X844842Y356928D01*
X845400Y357486D01*
X845701Y358214D01*
Y359002D01*
X845400Y359730D01*
X844842Y360287D01*
X844114Y360589D01*
X843326D01*
X842598Y360287D01*
X842244Y359933D01*
X837623D01*
X805206Y392350D01*
X805489Y392774D01*
X806106Y392519D01*
X806894D01*
X807622Y392820D01*
X808180Y393378D01*
X808481Y394106D01*
Y394894D01*
X808180Y395622D01*
X807622Y396179D01*
X806894Y396481D01*
X806394D01*
X753437Y449437D01*
X753007Y449725D01*
X752500Y449825D01*
X737049D01*
X674481Y512393D01*
Y512894D01*
X674180Y513622D01*
X673622Y514180D01*
X672894Y514481D01*
X672106D01*
X671378Y514180D01*
X670821Y513622D01*
X670519Y512894D01*
Y512106D01*
X670821Y511378D01*
X671378Y510820D01*
X672106Y510519D01*
X672607D01*
X735563Y447563D01*
X735993Y447275D01*
X736500Y447175D01*
X751951D01*
X804519Y394606D01*
Y394106D01*
X804775Y393489D01*
X804351Y393205D01*
X787749Y409807D01*
X787319Y410094D01*
X786812Y410195D01*
X763179D01*
X705009Y468366D01*
X704920Y468812D01*
X704633Y469242D01*
X646481Y527393D01*
Y527894D01*
X646179Y528622D01*
X645959Y528843D01*
X646166Y529343D01*
X647362D01*
X647696Y528843D01*
X647587Y528581D01*
Y527793D01*
X647889Y527065D01*
X648446Y526507D01*
X649174Y526206D01*
X649675D01*
X763822Y412058D01*
X764252Y411771D01*
X764760Y411670D01*
X781028D01*
X781382Y411316D01*
X782110Y411015D01*
X782898D01*
X783627Y411316D01*
X784184Y411873D01*
X784485Y412602D01*
Y413390D01*
X784184Y414118D01*
X783627Y414675D01*
X782898Y414977D01*
X782110D01*
X781382Y414675D01*
X781028Y414321D01*
X765309D01*
X651549Y528080D01*
Y528581D01*
X651441Y528843D01*
X651775Y529343D01*
X655646D01*
X655853Y528843D01*
X655541Y528530D01*
X655239Y527802D01*
Y527014D01*
X655541Y526286D01*
X656098Y525729D01*
X656826Y525427D01*
X657327D01*
X665383Y517371D01*
X665813Y517084D01*
X666320Y516983D01*
X675643D01*
X728555Y464071D01*
X728985Y463784D01*
X729492Y463683D01*
X794304D01*
X794638Y463182D01*
X794519Y462894D01*
Y462106D01*
X794820Y461378D01*
X795175Y461024D01*
Y420064D01*
X795275Y419556D01*
X795563Y419126D01*
X804995Y409694D01*
Y406787D01*
X804892Y406701D01*
X804523Y406552D01*
X792825Y418250D01*
Y444024D01*
X793179Y444378D01*
X793481Y445106D01*
Y445894D01*
X793179Y446622D01*
X792825Y446976D01*
Y457024D01*
X793179Y457378D01*
X793481Y458106D01*
Y458894D01*
X793179Y459622D01*
X792622Y460180D01*
X791894Y460481D01*
X791106D01*
X790378Y460180D01*
X789820Y459622D01*
X789519Y458894D01*
Y458106D01*
X789820Y457378D01*
X790174Y457024D01*
Y446976D01*
X789820Y446622D01*
X789519Y445894D01*
Y445106D01*
X789820Y444378D01*
X790174Y444024D01*
Y417701D01*
X790275Y417193D01*
X790563Y416763D01*
X891982Y315344D01*
X891775Y314844D01*
X870530D01*
X818481Y366893D01*
Y367394D01*
X818180Y368122D01*
X817622Y368679D01*
X816894Y368981D01*
X816106D01*
X815378Y368679D01*
X814821Y368122D01*
X814519Y367394D01*
Y366606D01*
X814821Y365878D01*
X815378Y365320D01*
X816106Y365019D01*
X816607D01*
X869044Y312582D01*
X869474Y312294D01*
X869981Y312193D01*
X915473D01*
X915980Y312294D01*
X916410Y312582D01*
X916410Y312582D01*
X933984Y330156D01*
X955293D01*
X955627Y329656D01*
X955519Y329394D01*
Y328893D01*
X913107Y286481D01*
X912606D01*
X911878Y286179D01*
X911320Y285622D01*
X911019Y284894D01*
Y284106D01*
X911320Y283378D01*
X911878Y282821D01*
X912606Y282519D01*
X913394D01*
X914122Y282821D01*
X914679Y283378D01*
X914981Y284106D01*
Y284607D01*
X957393Y327019D01*
X957894D01*
X958622Y327321D01*
X959179Y327878D01*
X959481Y328606D01*
Y329394D01*
X959373Y329656D01*
X959707Y330156D01*
X989074D01*
X999667Y319563D01*
X1000097Y319275D01*
X1000604Y319175D01*
X1038264D01*
X1038771Y319275D01*
X1039201Y319563D01*
X1050558Y330920D01*
X1060865D01*
X1061056Y330458D01*
X1060895Y330296D01*
X1060401Y329441D01*
X1060145Y328486D01*
Y327498D01*
X1060401Y326544D01*
X1060895Y325688D01*
X1061594Y324989D01*
X1062449Y324495D01*
X1063404Y324239D01*
X1064392D01*
X1065346Y324495D01*
X1066202Y324989D01*
X1066901Y325688D01*
X1067395Y326544D01*
X1067651Y327498D01*
Y328486D01*
X1067395Y329441D01*
X1066901Y330296D01*
X1066202Y330995D01*
X1065755Y331253D01*
X1065672Y331878D01*
X1069994Y336200D01*
X1070599D01*
X1070895Y335688D01*
X1071593Y334989D01*
X1072449Y334495D01*
X1073404Y334240D01*
X1074392D01*
X1075346Y334495D01*
X1076202Y334989D01*
X1076901Y335688D01*
X1077395Y336544D01*
X1077651Y337498D01*
Y338486D01*
X1077395Y339441D01*
X1076901Y340297D01*
X1076202Y340995D01*
X1075346Y341489D01*
X1074392Y341745D01*
X1073404D01*
X1072449Y341489D01*
X1071593Y340995D01*
X1070895Y340297D01*
X1070401Y339441D01*
X1070243Y338851D01*
X1069445D01*
X1068938Y338750D01*
X1068508Y338462D01*
X1063616Y333571D01*
X1050009D01*
X1049502Y333470D01*
X1049072Y333182D01*
X1037715Y321826D01*
X1001153D01*
X990560Y332418D01*
X990130Y332706D01*
X989623Y332806D01*
X933436D01*
X932928Y332706D01*
X932498Y332418D01*
X914924Y314844D01*
X897707D01*
X897373Y315344D01*
X897481Y315606D01*
Y316394D01*
X897180Y317122D01*
X896622Y317679D01*
X895894Y317981D01*
X895106D01*
X894378Y317679D01*
X894024Y317325D01*
X893750D01*
X883658Y327417D01*
X883807Y327786D01*
X883893Y327889D01*
X909024D01*
X909378Y327535D01*
X910106Y327233D01*
X910894D01*
X911622Y327535D01*
X912180Y328092D01*
X912481Y328820D01*
Y329608D01*
X912180Y330337D01*
X911622Y330894D01*
X910894Y331195D01*
X910106D01*
X909378Y330894D01*
X909024Y330540D01*
X884398D01*
X817838Y397099D01*
X818046Y397599D01*
X829025D01*
X829124Y397099D01*
X828653Y396904D01*
X828096Y396347D01*
X827794Y395619D01*
Y394831D01*
X828096Y394102D01*
X828653Y393545D01*
X829381Y393244D01*
X829882D01*
X885544Y337582D01*
X885974Y337294D01*
X886481Y337193D01*
X1021105Y337193D01*
X1021344Y337241D01*
X1021585Y337283D01*
X1021597Y337291D01*
X1021612Y337294D01*
X1021815Y337430D01*
X1022021Y337561D01*
X1031518Y346648D01*
X1031520Y346648D01*
X1038497Y346648D01*
X1038851Y346294D01*
X1039579Y345992D01*
X1040368D01*
X1041096Y346294D01*
X1041495Y346693D01*
X1041995Y346486D01*
Y345869D01*
X1030606Y334481D01*
X1030106D01*
X1029378Y334179D01*
X1028820Y333622D01*
X1028519Y332894D01*
Y332106D01*
X1028820Y331378D01*
X1029378Y330820D01*
X1030106Y330519D01*
X1030894D01*
X1031622Y330820D01*
X1032179Y331378D01*
X1032481Y332106D01*
Y332607D01*
X1044257Y344383D01*
X1044545Y344813D01*
X1044646Y345320D01*
Y351680D01*
X1044545Y352187D01*
X1044257Y352617D01*
X1038437Y358437D01*
X1038007Y358725D01*
X1037500Y358825D01*
X924957D01*
X922481Y361301D01*
Y361802D01*
X922180Y362530D01*
X921622Y363088D01*
X920894Y363389D01*
X920106D01*
X919378Y363088D01*
X919024Y362734D01*
X907649D01*
X907315Y363233D01*
X907481Y363634D01*
Y364422D01*
X907180Y365150D01*
X906826Y365504D01*
Y370428D01*
X906725Y370935D01*
X906437Y371365D01*
X896682Y381121D01*
X896873Y381583D01*
X909024D01*
X909378Y381228D01*
X910106Y380927D01*
X910894D01*
X911622Y381228D01*
X912180Y381786D01*
X912481Y382514D01*
Y383302D01*
X912180Y384030D01*
X911622Y384588D01*
X910894Y384889D01*
X910106D01*
X909378Y384588D01*
X909024Y384233D01*
X896569D01*
X881553Y399249D01*
X881732Y399708D01*
X881869Y399883D01*
X893519D01*
Y399814D01*
X893821Y399086D01*
X894378Y398529D01*
X895106Y398227D01*
X895894D01*
X896622Y398529D01*
X897180Y399086D01*
X897481Y399814D01*
Y400602D01*
X897180Y401330D01*
X896622Y401888D01*
X895894Y402189D01*
X895372D01*
X895007Y402433D01*
X894832Y402467D01*
X894882Y402967D01*
X1042450Y402676D01*
X1111275Y333851D01*
Y224673D01*
X1111150Y224639D01*
X1110294Y224145D01*
X1109595Y223446D01*
X1109101Y222590D01*
X1108846Y221636D01*
Y220648D01*
X1109101Y219693D01*
X1109595Y218838D01*
X1110294Y218139D01*
X1111150Y217645D01*
X1112104Y217389D01*
X1113092D01*
X1114047Y217645D01*
X1114903Y218139D01*
X1115601Y218838D01*
X1116095Y219693D01*
X1116351Y220648D01*
Y221636D01*
X1116095Y222590D01*
X1115601Y223446D01*
X1114903Y224145D01*
X1114047Y224639D01*
X1113926Y224671D01*
Y334400D01*
X1113825Y334907D01*
X1113538Y335337D01*
X1043937Y404937D01*
X1043723Y405081D01*
X1043510Y405224D01*
X1043508Y405224D01*
X1043507Y405225D01*
X1043252Y405275D01*
X1043003Y405326D01*
X878825Y405650D01*
X878824Y405650D01*
X878822Y405650D01*
X834841D01*
X830112Y410378D01*
X829682Y410666D01*
X829175Y410767D01*
X821739D01*
X821385Y411121D01*
X820657Y411422D01*
X819869D01*
X819141Y411121D01*
X818584Y410563D01*
X818282Y409835D01*
Y409047D01*
X818584Y408319D01*
X819141Y407761D01*
X819869Y407460D01*
X820657D01*
X821385Y407761D01*
X821739Y408116D01*
X828626D01*
X832255Y404487D01*
X832047Y403987D01*
X820969D01*
X814632Y410324D01*
X814915Y410748D01*
X815514Y410500D01*
X816302D01*
X817030Y410802D01*
X817587Y411359D01*
X817889Y412087D01*
Y412588D01*
X818322Y413021D01*
X895812D01*
X895813Y413021D01*
X895814Y413021D01*
X1044952Y413174D01*
X1121275Y336851D01*
Y224673D01*
X1121150Y224639D01*
X1120294Y224145D01*
X1119595Y223446D01*
X1119101Y222590D01*
X1118846Y221636D01*
Y220648D01*
X1119101Y219693D01*
X1119595Y218838D01*
X1120294Y218139D01*
X1121150Y217645D01*
X1122104Y217389D01*
X1123092D01*
X1124047Y217645D01*
X1124903Y218139D01*
X1125601Y218838D01*
X1126095Y219693D01*
X1126351Y220648D01*
Y221636D01*
X1126095Y222590D01*
X1125601Y223446D01*
X1124903Y224145D01*
X1124047Y224639D01*
X1123926Y224671D01*
Y337400D01*
X1123825Y337907D01*
X1123538Y338337D01*
X1046437Y415437D01*
X1046437Y415438D01*
X1046436Y415438D01*
X1046223Y415580D01*
X1046007Y415725D01*
X1046006Y415725D01*
X1046006Y415725D01*
X1045757Y415774D01*
X1045500Y415826D01*
X1045499Y415825D01*
X1045499Y415826D01*
X895811Y415671D01*
X891305D01*
X891229Y415776D01*
X891117Y416172D01*
X891457Y416512D01*
X891745Y416942D01*
X891846Y417450D01*
Y436008D01*
X891745Y436515D01*
X891457Y436945D01*
X838547Y489856D01*
X838117Y490143D01*
X837609Y490244D01*
X797538D01*
X797438Y490744D01*
X797622Y490821D01*
X797976Y491175D01*
X838451D01*
X892072Y437554D01*
X892502Y437266D01*
X893009Y437166D01*
X931024D01*
X931378Y436811D01*
X932106Y436510D01*
X932894D01*
X933622Y436811D01*
X934179Y437369D01*
X934481Y438097D01*
Y438885D01*
X934179Y439613D01*
X933622Y440170D01*
X932894Y440472D01*
X932106D01*
X931378Y440170D01*
X931024Y439817D01*
X893558D01*
X840454Y492921D01*
X840645Y493383D01*
X881120D01*
X881627Y493483D01*
X882057Y493771D01*
X891469Y503183D01*
X925651D01*
X928519Y500315D01*
Y499814D01*
X928821Y499086D01*
X929378Y498528D01*
X930106Y498227D01*
X930894D01*
X931622Y498528D01*
X932180Y499086D01*
X932481Y499814D01*
Y500602D01*
X932180Y501330D01*
X931622Y501888D01*
X930894Y502189D01*
X930394D01*
X927137Y505445D01*
X926707Y505733D01*
X926200Y505833D01*
X890920D01*
X890413Y505733D01*
X889983Y505445D01*
X880571Y496033D01*
X828182D01*
X827847Y496533D01*
X827981Y496856D01*
Y497357D01*
X867393Y536769D01*
X867894D01*
X868622Y537071D01*
X869179Y537628D01*
X869481Y538356D01*
Y539144D01*
X869179Y539872D01*
X869069Y539983D01*
X869276Y540483D01*
X869871D01*
X874995Y535359D01*
Y504584D01*
X874641Y504230D01*
X874339Y503502D01*
Y502714D01*
X874641Y501986D01*
X875198Y501429D01*
X875926Y501127D01*
X876714D01*
X877442Y501429D01*
X878000Y501986D01*
X878301Y502714D01*
Y503502D01*
X878000Y504230D01*
X877646Y504584D01*
Y535908D01*
X877545Y536415D01*
X877257Y536845D01*
X871357Y542745D01*
X870927Y543033D01*
X870676Y543083D01*
X870726Y543583D01*
X873971D01*
X880395Y537159D01*
Y512508D01*
X880496Y512001D01*
X880783Y511571D01*
X883264Y509090D01*
X883694Y508802D01*
X884201Y508701D01*
X891539D01*
X892046Y508802D01*
X892476Y509090D01*
X893314Y509927D01*
X893814D01*
X894542Y510228D01*
X895100Y510786D01*
X895401Y511514D01*
Y512302D01*
X895100Y513030D01*
X894542Y513588D01*
X893814Y513889D01*
X893026D01*
X892298Y513588D01*
X891741Y513030D01*
X891439Y512302D01*
Y511801D01*
X890990Y511352D01*
X887827D01*
X887493Y511852D01*
X887601Y512114D01*
Y512902D01*
X887300Y513630D01*
X886946Y513984D01*
Y538308D01*
X886845Y538815D01*
X886557Y539245D01*
X867257Y558545D01*
X866827Y558833D01*
X866320Y558933D01*
X630896D01*
X630542Y559288D01*
X629814Y559589D01*
X629026D01*
X628298Y559288D01*
X627741Y558730D01*
X627439Y558002D01*
Y557214D01*
X627611Y556800D01*
X627277Y556300D01*
X576017D01*
Y560585D01*
X758464D01*
X758766Y560710D01*
X758891Y561011D01*
Y619653D01*
X1249574D01*
Y426D01*
D02*
G37*
G36*
X481517Y217785D02*
X494791Y195761D01*
X494545Y195326D01*
X137901D01*
X137394Y195225D01*
X136964Y194937D01*
X114807Y172780D01*
X114307D01*
X113578Y172479D01*
X113021Y171921D01*
X112720Y171193D01*
Y170405D01*
X113021Y169677D01*
X113578Y169120D01*
X114307Y168818D01*
X115095D01*
X115823Y169120D01*
X116380Y169677D01*
X116682Y170405D01*
Y170906D01*
X138451Y192675D01*
X496634D01*
X496799Y192585D01*
X496816Y192573D01*
X497013Y192381D01*
X497062Y192174D01*
X497060Y192118D01*
X497077Y192070D01*
X497080Y192021D01*
X497130Y191922D01*
X497168Y191818D01*
X502325Y183261D01*
X502079Y182826D01*
X360171D01*
X359559Y183437D01*
X359129Y183725D01*
X358622Y183826D01*
X205112D01*
X204605Y183725D01*
X204175Y183437D01*
X138627Y117889D01*
X138126D01*
X137398Y117587D01*
X136841Y117030D01*
X136539Y116302D01*
Y115514D01*
X136841Y114786D01*
X137398Y114228D01*
X138126Y113927D01*
X138914D01*
X139642Y114228D01*
X140200Y114786D01*
X140501Y115514D01*
Y116015D01*
X205661Y181175D01*
X358073D01*
X358684Y180563D01*
X359115Y180275D01*
X359622Y180175D01*
X504169D01*
X504333Y180085D01*
X504350Y180073D01*
X504547Y179881D01*
X504597Y179674D01*
X504594Y179618D01*
X504611Y179570D01*
X504615Y179521D01*
X504664Y179422D01*
X504702Y179318D01*
X522399Y149958D01*
Y64462D01*
X522429Y64312D01*
X522456Y64163D01*
X522460Y64157D01*
X522461Y64150D01*
X522545Y64023D01*
X522628Y63895D01*
X522634Y63891D01*
X522638Y63885D01*
X522764Y63801D01*
X522889Y63714D01*
X522896Y63712D01*
X522902Y63708D01*
X523052Y63679D01*
X523200Y63646D01*
X567308Y62885D01*
X567342Y62857D01*
X567631Y62550D01*
X567679Y62444D01*
X567678Y59481D01*
X491536D01*
X491234Y59357D01*
X491109Y59055D01*
Y426D01*
X426Y426D01*
Y176149D01*
X59055Y176149D01*
X59356Y176274D01*
X59481Y176575D01*
Y359035D01*
X63767D01*
Y355118D01*
Y351181D01*
Y347244D01*
Y343307D01*
Y339370D01*
Y335433D01*
Y331496D01*
Y327559D01*
Y323622D01*
Y319685D01*
Y315748D01*
Y311811D01*
Y307874D01*
Y303937D01*
Y300000D01*
Y296063D01*
Y292126D01*
Y288189D01*
Y284252D01*
Y280315D01*
Y276378D01*
Y272441D01*
Y268504D01*
Y264567D01*
Y260630D01*
Y256693D01*
Y252756D01*
Y248819D01*
Y244882D01*
Y240945D01*
Y237008D01*
Y233071D01*
Y229134D01*
Y225197D01*
Y221260D01*
Y217323D01*
Y213386D01*
Y209449D01*
X79540D01*
Y213386D01*
Y217323D01*
Y221260D01*
Y225197D01*
Y229134D01*
Y233071D01*
Y237008D01*
Y240945D01*
Y244882D01*
Y248819D01*
Y252756D01*
Y256693D01*
Y260630D01*
Y264567D01*
Y268504D01*
Y272441D01*
Y276378D01*
Y280315D01*
Y284252D01*
Y288189D01*
Y292126D01*
Y296063D01*
Y300000D01*
Y303937D01*
Y307874D01*
Y311811D01*
Y315748D01*
Y319685D01*
Y323622D01*
Y327559D01*
Y331496D01*
Y335433D01*
Y339370D01*
Y343307D01*
Y347244D01*
Y351181D01*
Y355118D01*
Y359035D01*
X82677D01*
X82979Y359160D01*
X83103Y359462D01*
Y366126D01*
X385092D01*
X481517Y217785D01*
D02*
G37*
G36*
X254858Y477000D02*
X327025Y459180D01*
X499361D01*
X499632Y426465D01*
X499499Y410558D01*
X450500D01*
Y305000D01*
X548770D01*
X550918Y295292D01*
X532582Y276956D01*
X532294Y276526D01*
X532193Y276019D01*
Y240189D01*
X532294Y239682D01*
X532582Y239251D01*
X567968Y203865D01*
X567962Y105437D01*
X567966Y83044D01*
X567809Y82979D01*
X567809Y82978D01*
X567809Y82978D01*
X567748Y82832D01*
X567684Y82677D01*
X567679Y64051D01*
X567322Y63700D01*
X523214Y64462D01*
Y150184D01*
X505401Y179739D01*
X505646Y180175D01*
X512024D01*
X512378Y179821D01*
X513106Y179519D01*
X513894D01*
X514622Y179821D01*
X515179Y180378D01*
X515481Y181106D01*
Y181894D01*
X515179Y182622D01*
X514622Y183179D01*
X513894Y183481D01*
X513106D01*
X512378Y183179D01*
X512024Y182826D01*
X503540D01*
X497866Y192239D01*
X498112Y192675D01*
X518451D01*
X523019Y188107D01*
Y187606D01*
X523320Y186878D01*
X523878Y186320D01*
X524606Y186019D01*
X525394D01*
X526122Y186320D01*
X526680Y186878D01*
X526981Y187606D01*
Y188394D01*
X526680Y189122D01*
X526122Y189680D01*
X525394Y189981D01*
X524893D01*
X519937Y194937D01*
X519507Y195225D01*
X519000Y195326D01*
X496006D01*
X482208Y218217D01*
X385535Y366942D01*
X83103D01*
X82979Y367243D01*
X82677Y367368D01*
X64721D01*
X64257Y410553D01*
X64609Y410909D01*
X233992D01*
Y525514D01*
X234148Y525556D01*
X234821Y525944D01*
X235371Y526494D01*
X235759Y527167D01*
X235961Y527918D01*
Y528696D01*
X235759Y529447D01*
X235371Y530120D01*
X234821Y530670D01*
X234148Y531059D01*
X233992Y531100D01*
Y540905D01*
X254858D01*
Y477000D01*
D02*
G37*
%LPC*%
G36*
X343394Y551481D02*
X342606D01*
X341878Y551180D01*
X341524Y550826D01*
X276445D01*
X275938Y550725D01*
X275508Y550437D01*
X267827Y542757D01*
X267540Y542327D01*
X267439Y541820D01*
Y541705D01*
X264688D01*
Y530657D01*
X271406D01*
Y541705D01*
X271178D01*
X270987Y542167D01*
X276994Y548174D01*
X341524D01*
X341878Y547821D01*
X342606Y547519D01*
X343394D01*
X344122Y547821D01*
X344679Y548378D01*
X344981Y549106D01*
Y549894D01*
X344679Y550622D01*
X344122Y551180D01*
X343394Y551481D01*
D02*
G37*
G36*
X508403Y556681D02*
X506952D01*
X505550Y556305D01*
X504293Y555579D01*
X503267Y554553D01*
X502541Y553296D01*
X502165Y551895D01*
Y550443D01*
X502541Y549041D01*
X503267Y547785D01*
X504293Y546758D01*
X505550Y546033D01*
X506952Y545657D01*
X508403D01*
X509805Y546033D01*
X511061Y546758D01*
X512088Y547785D01*
X512813Y549041D01*
X513189Y550443D01*
Y551895D01*
X512813Y553296D01*
X512088Y554553D01*
X511061Y555579D01*
X509805Y556305D01*
X508403Y556681D01*
D02*
G37*
G36*
X692323Y538702D02*
X691535D01*
X690807Y538400D01*
X690519Y538113D01*
X689849D01*
X689817Y538145D01*
X689387Y538433D01*
X688879Y538533D01*
X686899D01*
X686392Y538433D01*
X685962Y538145D01*
X684726Y536910D01*
X684439Y536480D01*
X684338Y535973D01*
Y522336D01*
X684439Y521829D01*
X684726Y521399D01*
X688683Y517443D01*
X688767Y517021D01*
X689054Y516590D01*
X690019Y515625D01*
Y515125D01*
X690320Y514397D01*
X690878Y513839D01*
X691606Y513538D01*
X692394D01*
X693122Y513839D01*
X693680Y514397D01*
X693981Y515125D01*
Y515913D01*
X693680Y516641D01*
X693122Y517198D01*
X692394Y517500D01*
X691893D01*
X691300Y518094D01*
X691216Y518516D01*
X690928Y518946D01*
X686989Y522886D01*
Y535424D01*
X687448Y535883D01*
X688330D01*
X688362Y535850D01*
X688792Y535563D01*
X689300Y535462D01*
X690386D01*
X690807Y535041D01*
X691535Y534740D01*
X692323D01*
X693051Y535041D01*
X693608Y535599D01*
X693910Y536327D01*
Y537115D01*
X693608Y537843D01*
X693051Y538400D01*
X692323Y538702D01*
D02*
G37*
G36*
X303475Y531260D02*
X302698D01*
X301947Y531059D01*
X301274Y530670D01*
X300724Y530120D01*
X300335Y529447D01*
X300134Y528696D01*
Y527918D01*
X300335Y527167D01*
X300724Y526494D01*
X301274Y525944D01*
X301947Y525556D01*
X302698Y525354D01*
X303475D01*
X304226Y525556D01*
X304900Y525944D01*
X305449Y526494D01*
X305838Y527167D01*
X306039Y527918D01*
Y528696D01*
X305838Y529447D01*
X305449Y530120D01*
X304900Y530670D01*
X304226Y531059D01*
X303475Y531260D01*
D02*
G37*
G36*
X825894Y534981D02*
X825106D01*
X824378Y534680D01*
X823820Y534122D01*
X823519Y533394D01*
Y532893D01*
X808107Y517481D01*
X807606D01*
X806878Y517179D01*
X806320Y516622D01*
X806019Y515894D01*
Y515106D01*
X806320Y514378D01*
X806878Y513821D01*
X807606Y513519D01*
X808394D01*
X809122Y513821D01*
X809679Y514378D01*
X809981Y515106D01*
Y515607D01*
X825393Y531019D01*
X825894D01*
X826622Y531320D01*
X827179Y531878D01*
X827481Y532606D01*
Y533394D01*
X827179Y534122D01*
X826622Y534680D01*
X825894Y534981D01*
D02*
G37*
G36*
X714655Y533740D02*
X713867D01*
X713138Y533438D01*
X712581Y532881D01*
X712280Y532153D01*
Y531365D01*
X712581Y530637D01*
X712935Y530282D01*
Y522739D01*
X713036Y522232D01*
X713323Y521802D01*
X718816Y516310D01*
Y515446D01*
X718917Y514939D01*
X719204Y514509D01*
X719543Y514170D01*
X719519Y514113D01*
Y513325D01*
X719820Y512597D01*
X720378Y512039D01*
X721106Y511738D01*
X721894D01*
X722622Y512039D01*
X723179Y512597D01*
X723481Y513325D01*
Y514113D01*
X723179Y514841D01*
X722622Y515398D01*
X721894Y515700D01*
X721762D01*
X721467Y515995D01*
Y516859D01*
X721366Y517366D01*
X721078Y517796D01*
X715586Y523288D01*
Y530282D01*
X715940Y530637D01*
X716242Y531365D01*
Y532153D01*
X715940Y532881D01*
X715383Y533438D01*
X714655Y533740D01*
D02*
G37*
G36*
X722229Y535890D02*
X721441D01*
X720713Y535589D01*
X720155Y535031D01*
X719854Y534303D01*
Y533997D01*
X718551Y532694D01*
X718264Y532264D01*
X718163Y531757D01*
Y528012D01*
X718264Y527505D01*
X718551Y527075D01*
X735863Y509763D01*
X736293Y509475D01*
X736800Y509375D01*
X737805D01*
X738359Y508820D01*
X739087Y508519D01*
X739875D01*
X740603Y508820D01*
X741161Y509378D01*
X741462Y510106D01*
Y510894D01*
X741161Y511622D01*
X740603Y512180D01*
X739875Y512481D01*
X739087D01*
X738359Y512180D01*
X738205Y512025D01*
X737349D01*
X720814Y528561D01*
Y531208D01*
X721533Y531928D01*
X722229D01*
X722957Y532230D01*
X723514Y532787D01*
X723816Y533515D01*
Y534303D01*
X723514Y535031D01*
X722957Y535589D01*
X722229Y535890D01*
D02*
G37*
G36*
X69623Y432887D02*
X68172D01*
X66770Y432511D01*
X65513Y431786D01*
X64487Y430759D01*
X63762Y429502D01*
X63386Y428101D01*
Y426649D01*
X63762Y425247D01*
X64487Y423991D01*
X65513Y422964D01*
X66770Y422239D01*
X68172Y421863D01*
X69623D01*
X71025Y422239D01*
X72282Y422964D01*
X73308Y423991D01*
X74034Y425247D01*
X74410Y426649D01*
Y428101D01*
X74034Y429502D01*
X73308Y430759D01*
X72282Y431786D01*
X71025Y432511D01*
X69623Y432887D01*
D02*
G37*
G36*
X551181Y404359D02*
X457677D01*
X457365Y404297D01*
X457100Y404120D01*
X456924Y403856D01*
X456861Y403544D01*
Y310039D01*
X456924Y309727D01*
X457100Y309463D01*
X457365Y309286D01*
X457677Y309224D01*
X551181D01*
X551493Y309286D01*
X551758Y309463D01*
X551935Y309727D01*
X551997Y310039D01*
Y403544D01*
X551935Y403856D01*
X551758Y404120D01*
X551493Y404297D01*
X551181Y404359D01*
D02*
G37*
G36*
X944894Y393981D02*
X944106D01*
X943378Y393679D01*
X943024Y393325D01*
X922112D01*
X921605Y393225D01*
X921175Y392937D01*
X915627Y387389D01*
X915126D01*
X914398Y387087D01*
X913841Y386530D01*
X913539Y385802D01*
Y385014D01*
X913841Y384286D01*
X914398Y383729D01*
X915126Y383427D01*
X915914D01*
X916642Y383729D01*
X917200Y384286D01*
X917501Y385014D01*
Y385515D01*
X922661Y390674D01*
X943024D01*
X943378Y390320D01*
X944106Y390019D01*
X944894D01*
X945622Y390320D01*
X946179Y390878D01*
X946481Y391606D01*
Y392394D01*
X946179Y393122D01*
X945622Y393679D01*
X944894Y393981D01*
D02*
G37*
G36*
X996394Y373481D02*
X995606D01*
X994878Y373180D01*
X994524Y372826D01*
X938476D01*
X938122Y373180D01*
X937394Y373481D01*
X936606D01*
X935878Y373180D01*
X935320Y372622D01*
X935019Y371894D01*
Y371106D01*
X935320Y370378D01*
X935878Y369820D01*
X936606Y369519D01*
X937394D01*
X938122Y369820D01*
X938476Y370175D01*
X994524D01*
X994878Y369820D01*
X995606Y369519D01*
X996394D01*
X997122Y369820D01*
X997679Y370378D01*
X997981Y371106D01*
Y371894D01*
X997679Y372622D01*
X997122Y373180D01*
X996394Y373481D01*
D02*
G37*
G36*
X925894Y368981D02*
X925106D01*
X924378Y368680D01*
X923821Y368122D01*
X923519Y367394D01*
Y366606D01*
X923821Y365878D01*
X924378Y365321D01*
X925106Y365019D01*
X925894D01*
X926622Y365321D01*
X926976Y365675D01*
X993451Y365675D01*
X996519Y362607D01*
Y362106D01*
X996820Y361378D01*
X997378Y360821D01*
X998106Y360519D01*
X998894D01*
X999622Y360821D01*
X1000179Y361378D01*
X1000481Y362106D01*
Y362894D01*
X1000179Y363622D01*
X999622Y364179D01*
X998894Y364481D01*
X998393D01*
X994937Y367937D01*
X994507Y368225D01*
X994000Y368325D01*
X926976Y368326D01*
X926622Y368680D01*
X925894Y368981D01*
D02*
G37*
G36*
X1077651Y351745D02*
X1070145D01*
Y344239D01*
X1077651D01*
Y351745D01*
D02*
G37*
G36*
X1064392D02*
X1063404D01*
X1062449Y351489D01*
X1061594Y350995D01*
X1060895Y350296D01*
X1060401Y349441D01*
X1060145Y348486D01*
Y347498D01*
X1060401Y346544D01*
X1060895Y345688D01*
X1061594Y344989D01*
X1062449Y344495D01*
X1063404Y344239D01*
X1064392D01*
X1065346Y344495D01*
X1066202Y344989D01*
X1066901Y345688D01*
X1067395Y346544D01*
X1067651Y347498D01*
Y348486D01*
X1067395Y349441D01*
X1066901Y350296D01*
X1066202Y350995D01*
X1065346Y351489D01*
X1064392Y351745D01*
D02*
G37*
G36*
X1074392Y331745D02*
X1073404D01*
X1072449Y331489D01*
X1071593Y330995D01*
X1070895Y330296D01*
X1070401Y329441D01*
X1070145Y328486D01*
Y327498D01*
X1070401Y326544D01*
X1070895Y325688D01*
X1071593Y324989D01*
X1072449Y324495D01*
X1073404Y324239D01*
X1074392D01*
X1075346Y324495D01*
X1076202Y324989D01*
X1076901Y325688D01*
X1077395Y326544D01*
X1077651Y327498D01*
Y328486D01*
X1077395Y329441D01*
X1076901Y330296D01*
X1076202Y330995D01*
X1075346Y331489D01*
X1074392Y331745D01*
D02*
G37*
G36*
Y321745D02*
X1073404D01*
X1072449Y321489D01*
X1071593Y320995D01*
X1070895Y320297D01*
X1070401Y319441D01*
X1070145Y318486D01*
Y317498D01*
X1070401Y316544D01*
X1070895Y315688D01*
X1071593Y314989D01*
X1072449Y314495D01*
X1073404Y314240D01*
X1074392D01*
X1075346Y314495D01*
X1076202Y314989D01*
X1076901Y315688D01*
X1077395Y316544D01*
X1077651Y317498D01*
Y318486D01*
X1077395Y319441D01*
X1076901Y320297D01*
X1076202Y320995D01*
X1075346Y321489D01*
X1074392Y321745D01*
D02*
G37*
G36*
X1064392Y311745D02*
X1063404D01*
X1062449Y311489D01*
X1061594Y310995D01*
X1060895Y310297D01*
X1060401Y309441D01*
X1060368Y309318D01*
X967704D01*
X967197Y309217D01*
X966767Y308929D01*
X925471Y267634D01*
X828808D01*
X828301Y267533D01*
X827871Y267245D01*
X808063Y247437D01*
X807775Y247007D01*
X807675Y246500D01*
Y239976D01*
X807320Y239622D01*
X807019Y238894D01*
Y238106D01*
X807320Y237378D01*
X807878Y236821D01*
X808606Y236519D01*
X809394D01*
X810122Y236821D01*
X810680Y237378D01*
X810981Y238106D01*
Y238894D01*
X810680Y239622D01*
X810326Y239976D01*
Y245951D01*
X829357Y264983D01*
X926020D01*
X926527Y265084D01*
X926957Y265371D01*
X968253Y306667D01*
X1060368D01*
X1060401Y306544D01*
X1060895Y305688D01*
X1061594Y304989D01*
X1062449Y304495D01*
X1063404Y304240D01*
X1064392D01*
X1065346Y304495D01*
X1066202Y304989D01*
X1066901Y305688D01*
X1067395Y306544D01*
X1067651Y307498D01*
Y308486D01*
X1067395Y309441D01*
X1066901Y310297D01*
X1066202Y310995D01*
X1065346Y311489D01*
X1064392Y311745D01*
D02*
G37*
G36*
X1074392Y301745D02*
X1073404D01*
X1072449Y301489D01*
X1071593Y300995D01*
X1070895Y300296D01*
X1070401Y299441D01*
X1070145Y298486D01*
Y297498D01*
X1070401Y296544D01*
X1070895Y295688D01*
X1071593Y294989D01*
X1072449Y294495D01*
X1073404Y294239D01*
X1074392D01*
X1075346Y294495D01*
X1076202Y294989D01*
X1076901Y295688D01*
X1077395Y296544D01*
X1077651Y297498D01*
Y298486D01*
X1077395Y299441D01*
X1076901Y300296D01*
X1076202Y300995D01*
X1075346Y301489D01*
X1074392Y301745D01*
D02*
G37*
G36*
Y291745D02*
X1073404D01*
X1072449Y291489D01*
X1071593Y290995D01*
X1070895Y290297D01*
X1070401Y289441D01*
X1070145Y288486D01*
Y287498D01*
X1070401Y286544D01*
X1070895Y285688D01*
X1071593Y284989D01*
X1072449Y284495D01*
X1073404Y284240D01*
X1074392D01*
X1075346Y284495D01*
X1076202Y284989D01*
X1076901Y285688D01*
X1077395Y286544D01*
X1077651Y287498D01*
Y288486D01*
X1077395Y289441D01*
X1076901Y290297D01*
X1076202Y290995D01*
X1075346Y291489D01*
X1074392Y291745D01*
D02*
G37*
G36*
X1064392D02*
X1063404D01*
X1062449Y291489D01*
X1061594Y290995D01*
X1060895Y290297D01*
X1060401Y289441D01*
X1060145Y288486D01*
Y287498D01*
X1060401Y286544D01*
X1060895Y285688D01*
X1061594Y284989D01*
X1062449Y284495D01*
X1063404Y284240D01*
X1064392D01*
X1065346Y284495D01*
X1066202Y284989D01*
X1066901Y285688D01*
X1067395Y286544D01*
X1067651Y287498D01*
Y288486D01*
X1067395Y289441D01*
X1066901Y290297D01*
X1066202Y290995D01*
X1065346Y291489D01*
X1064392Y291745D01*
D02*
G37*
G36*
X1074392Y281745D02*
X1073404D01*
X1072449Y281489D01*
X1071593Y280995D01*
X1070895Y280296D01*
X1070401Y279441D01*
X1070145Y278486D01*
Y277498D01*
X1070401Y276544D01*
X1070895Y275688D01*
X1071593Y274989D01*
X1072449Y274495D01*
X1073404Y274239D01*
X1074392D01*
X1075346Y274495D01*
X1076202Y274989D01*
X1076901Y275688D01*
X1077395Y276544D01*
X1077651Y277498D01*
Y278486D01*
X1077395Y279441D01*
X1076901Y280296D01*
X1076202Y280995D01*
X1075346Y281489D01*
X1074392Y281745D01*
D02*
G37*
G36*
X1054394Y268481D02*
X1053606D01*
X1052878Y268179D01*
X1052320Y267622D01*
X1052019Y266894D01*
Y266106D01*
X1052320Y265378D01*
X1052878Y264821D01*
X1053606Y264519D01*
X1054107D01*
X1098421Y220205D01*
X1098851Y219917D01*
X1099052Y219877D01*
X1099101Y219693D01*
X1099595Y218838D01*
X1100294Y218139D01*
X1101150Y217645D01*
X1102104Y217389D01*
X1103092D01*
X1104047Y217645D01*
X1104903Y218139D01*
X1105601Y218838D01*
X1106095Y219693D01*
X1106351Y220648D01*
Y221636D01*
X1106095Y222590D01*
X1105601Y223446D01*
X1104903Y224145D01*
X1104047Y224639D01*
X1103092Y224895D01*
X1102104D01*
X1101150Y224639D01*
X1100294Y224145D01*
X1099595Y223446D01*
X1099557Y223379D01*
X1099061Y223314D01*
X1055981Y266393D01*
Y266894D01*
X1055679Y267622D01*
X1055122Y268179D01*
X1054394Y268481D01*
D02*
G37*
G36*
X1036394Y253989D02*
X1035606D01*
X1034878Y253688D01*
X1034320Y253130D01*
X1034019Y252402D01*
Y251614D01*
X1034320Y250886D01*
X1034878Y250328D01*
X1035606Y250027D01*
X1036106D01*
X1051273Y234861D01*
Y224672D01*
X1051150Y224639D01*
X1050294Y224145D01*
X1049595Y223446D01*
X1049101Y222590D01*
X1048846Y221636D01*
Y220648D01*
X1049101Y219693D01*
X1049595Y218838D01*
X1050294Y218139D01*
X1051150Y217645D01*
X1052104Y217389D01*
X1053092D01*
X1054047Y217645D01*
X1054903Y218139D01*
X1055601Y218838D01*
X1056095Y219693D01*
X1056351Y220648D01*
Y221636D01*
X1056095Y222590D01*
X1055601Y223446D01*
X1054903Y224145D01*
X1054047Y224639D01*
X1053924Y224672D01*
Y235410D01*
X1053823Y235917D01*
X1053536Y236347D01*
X1037981Y251901D01*
Y252402D01*
X1037679Y253130D01*
X1037122Y253688D01*
X1036394Y253989D01*
D02*
G37*
G36*
X1030014Y254489D02*
X1029226D01*
X1028498Y254187D01*
X1027941Y253630D01*
X1027639Y252902D01*
Y252114D01*
X1027941Y251386D01*
X1028295Y251032D01*
Y234120D01*
X1028396Y233613D01*
X1028683Y233183D01*
X1039165Y222701D01*
X1039101Y222590D01*
X1038846Y221636D01*
Y220648D01*
X1039101Y219693D01*
X1039595Y218838D01*
X1040294Y218139D01*
X1041150Y217645D01*
X1042104Y217389D01*
X1043092D01*
X1044047Y217645D01*
X1044903Y218139D01*
X1045601Y218838D01*
X1046095Y219693D01*
X1046351Y220648D01*
Y221636D01*
X1046095Y222590D01*
X1045601Y223446D01*
X1044903Y224145D01*
X1044047Y224639D01*
X1043092Y224895D01*
X1042104D01*
X1041150Y224639D01*
X1041039Y224575D01*
X1030946Y234669D01*
Y251032D01*
X1031300Y251386D01*
X1031601Y252114D01*
Y252902D01*
X1031300Y253630D01*
X1030742Y254187D01*
X1030014Y254489D01*
D02*
G37*
G36*
X1033092Y224895D02*
X1032104D01*
X1031150Y224639D01*
X1030294Y224145D01*
X1029595Y223446D01*
X1029101Y222590D01*
X1028846Y221636D01*
Y220648D01*
X1029101Y219693D01*
X1029595Y218838D01*
X1030294Y218139D01*
X1031150Y217645D01*
X1032104Y217389D01*
X1033092D01*
X1034047Y217645D01*
X1034903Y218139D01*
X1035601Y218838D01*
X1036095Y219693D01*
X1036351Y220648D01*
Y221636D01*
X1036095Y222590D01*
X1035601Y223446D01*
X1034903Y224145D01*
X1034047Y224639D01*
X1033092Y224895D01*
D02*
G37*
G36*
X1113092Y214895D02*
X1112104D01*
X1111150Y214639D01*
X1110294Y214145D01*
X1109595Y213446D01*
X1109101Y212591D01*
X1108846Y211636D01*
Y210648D01*
X1109101Y209694D01*
X1109595Y208838D01*
X1110294Y208139D01*
X1111150Y207645D01*
X1112104Y207389D01*
X1113092D01*
X1114047Y207645D01*
X1114903Y208139D01*
X1115601Y208838D01*
X1116095Y209694D01*
X1116351Y210648D01*
Y211636D01*
X1116095Y212591D01*
X1115601Y213446D01*
X1114903Y214145D01*
X1114047Y214639D01*
X1113092Y214895D01*
D02*
G37*
G36*
X1103092D02*
X1102104D01*
X1101150Y214639D01*
X1100294Y214145D01*
X1099595Y213446D01*
X1099101Y212591D01*
X1098846Y211636D01*
Y210648D01*
X1099101Y209694D01*
X1099595Y208838D01*
X1100294Y208139D01*
X1101150Y207645D01*
X1102104Y207389D01*
X1103092D01*
X1104047Y207645D01*
X1104903Y208139D01*
X1105601Y208838D01*
X1106095Y209694D01*
X1106351Y210648D01*
Y211636D01*
X1106095Y212591D01*
X1105601Y213446D01*
X1104903Y214145D01*
X1104047Y214639D01*
X1103092Y214895D01*
D02*
G37*
G36*
X1093092D02*
X1092104D01*
X1091150Y214639D01*
X1090294Y214145D01*
X1089595Y213446D01*
X1089101Y212591D01*
X1088846Y211636D01*
Y210648D01*
X1089101Y209694D01*
X1089595Y208838D01*
X1090294Y208139D01*
X1091150Y207645D01*
X1092104Y207389D01*
X1093092D01*
X1094047Y207645D01*
X1094903Y208139D01*
X1095601Y208838D01*
X1096095Y209694D01*
X1096351Y210648D01*
Y211636D01*
X1096095Y212591D01*
X1095601Y213446D01*
X1094903Y214145D01*
X1094047Y214639D01*
X1093092Y214895D01*
D02*
G37*
G36*
X1083092D02*
X1082104D01*
X1081150Y214639D01*
X1080294Y214145D01*
X1079595Y213446D01*
X1079101Y212591D01*
X1078846Y211636D01*
Y210648D01*
X1079101Y209694D01*
X1079595Y208838D01*
X1080294Y208139D01*
X1081150Y207645D01*
X1082104Y207389D01*
X1083092D01*
X1084047Y207645D01*
X1084903Y208139D01*
X1085601Y208838D01*
X1086095Y209694D01*
X1086351Y210648D01*
Y211636D01*
X1086095Y212591D01*
X1085601Y213446D01*
X1084903Y214145D01*
X1084047Y214639D01*
X1083092Y214895D01*
D02*
G37*
G36*
X1057614Y200489D02*
X1056826D01*
X1056098Y200187D01*
X1055541Y199630D01*
X1055239Y198902D01*
Y198401D01*
X1048727Y191889D01*
X1048226D01*
X1047498Y191587D01*
X1046941Y191030D01*
X1046639Y190302D01*
Y189514D01*
X1046941Y188786D01*
X1047498Y188228D01*
X1048226Y187927D01*
X1049014D01*
X1049742Y188228D01*
X1050300Y188786D01*
X1050601Y189514D01*
Y190015D01*
X1057113Y196527D01*
X1057614D01*
X1058342Y196828D01*
X1058900Y197386D01*
X1059201Y198114D01*
Y198902D01*
X1058900Y199630D01*
X1058342Y200187D01*
X1057614Y200489D01*
D02*
G37*
G36*
X940719Y190806D02*
X939931D01*
X939203Y190505D01*
X938646Y189948D01*
X938344Y189219D01*
Y188719D01*
X927959Y178333D01*
X877796D01*
X877442Y178688D01*
X876714Y178989D01*
X875926D01*
X875198Y178688D01*
X874641Y178130D01*
X874339Y177402D01*
Y176614D01*
X874641Y175886D01*
X875198Y175329D01*
X875926Y175027D01*
X876714D01*
X877442Y175329D01*
X877796Y175683D01*
X928508D01*
X929015Y175784D01*
X929445Y176071D01*
X940219Y186844D01*
X940719D01*
X941448Y187146D01*
X942005Y187703D01*
X942306Y188431D01*
Y189219D01*
X942005Y189948D01*
X941448Y190505D01*
X940719Y190806D01*
D02*
G37*
G36*
X119616Y355672D02*
X118828D01*
X118100Y355370D01*
X117542Y354813D01*
X117241Y354085D01*
Y353297D01*
X117542Y352569D01*
X118100Y352011D01*
X118828Y351710D01*
X119616D01*
X120344Y352011D01*
X120698Y352365D01*
X181823D01*
X184318Y349870D01*
Y344239D01*
X191824D01*
Y351745D01*
X186193D01*
X183310Y354628D01*
X182880Y354915D01*
X182372Y355016D01*
X120698D01*
X120344Y355370D01*
X119616Y355672D01*
D02*
G37*
G36*
X178565Y351745D02*
X177577D01*
X176622Y351489D01*
X175767Y350995D01*
X175068Y350296D01*
X174574Y349441D01*
X174318Y348486D01*
Y347498D01*
X174574Y346544D01*
X175068Y345688D01*
X175767Y344989D01*
X176622Y344495D01*
X177577Y344239D01*
X178565D01*
X179519Y344495D01*
X180375Y344989D01*
X181074Y345688D01*
X181568Y346544D01*
X181824Y347498D01*
Y348486D01*
X181568Y349441D01*
X181074Y350296D01*
X180375Y350995D01*
X179519Y351489D01*
X178565Y351745D01*
D02*
G37*
G36*
X188565Y341745D02*
X187577D01*
X186622Y341489D01*
X185767Y340995D01*
X185068Y340297D01*
X184574Y339441D01*
X184318Y338486D01*
Y337498D01*
X184574Y336544D01*
X184638Y336433D01*
X182530Y334326D01*
X106226D01*
X105872Y334680D01*
X105144Y334981D01*
X104356D01*
X103628Y334680D01*
X103070Y334122D01*
X102769Y333394D01*
Y332606D01*
X103070Y331878D01*
X103628Y331321D01*
X104356Y331019D01*
X105144D01*
X105872Y331321D01*
X106226Y331675D01*
X175943D01*
X176077Y331175D01*
X175767Y330995D01*
X175068Y330296D01*
X174574Y329441D01*
X174318Y328486D01*
Y327498D01*
X174574Y326544D01*
X175068Y325688D01*
X175229Y325527D01*
X175038Y325065D01*
X101716D01*
X101362Y325419D01*
X100633Y325721D01*
X99845D01*
X99117Y325419D01*
X98560Y324862D01*
X98258Y324133D01*
Y323345D01*
X98560Y322617D01*
X99117Y322060D01*
X99845Y321758D01*
X100633D01*
X101362Y322060D01*
X101716Y322414D01*
X183818D01*
X184325Y322515D01*
X184755Y322802D01*
X186512Y324559D01*
X186622Y324495D01*
X187577Y324239D01*
X188565D01*
X189519Y324495D01*
X190375Y324989D01*
X191074Y325688D01*
X191568Y326544D01*
X191824Y327498D01*
Y328486D01*
X191568Y329441D01*
X191074Y330296D01*
X190375Y330995D01*
X189519Y331489D01*
X188565Y331745D01*
X187577D01*
X186622Y331489D01*
X185767Y330995D01*
X185068Y330296D01*
X184574Y329441D01*
X184318Y328486D01*
Y327498D01*
X184574Y326544D01*
X184638Y326433D01*
X183269Y325065D01*
X181104D01*
X180913Y325527D01*
X181074Y325688D01*
X181568Y326544D01*
X181824Y327498D01*
Y328486D01*
X181568Y329441D01*
X181074Y330296D01*
X180375Y330995D01*
X180064Y331175D01*
X180199Y331675D01*
X183079D01*
X183586Y331775D01*
X184016Y332063D01*
X186512Y334559D01*
X186622Y334495D01*
X187577Y334240D01*
X188565D01*
X189519Y334495D01*
X190375Y334989D01*
X191074Y335688D01*
X191568Y336544D01*
X191824Y337498D01*
Y338486D01*
X191568Y339441D01*
X191074Y340297D01*
X190375Y340995D01*
X189519Y341489D01*
X188565Y341745D01*
D02*
G37*
G36*
Y321745D02*
X187577D01*
X186622Y321489D01*
X185767Y320995D01*
X185068Y320297D01*
X184574Y319441D01*
X184318Y318486D01*
Y317498D01*
X184574Y316544D01*
X184638Y316433D01*
X183269Y315065D01*
X118210D01*
X118190Y315111D01*
X117633Y315669D01*
X116905Y315970D01*
X116117D01*
X115389Y315669D01*
X114831Y315111D01*
X114530Y314383D01*
Y313595D01*
X114831Y312867D01*
X115389Y312310D01*
X116117Y312008D01*
X116905D01*
X117633Y312310D01*
X117738Y312414D01*
X183818D01*
X184325Y312515D01*
X184755Y312802D01*
X186512Y314559D01*
X186622Y314495D01*
X187577Y314240D01*
X188565D01*
X189519Y314495D01*
X190375Y314989D01*
X191074Y315688D01*
X191568Y316544D01*
X191824Y317498D01*
Y318486D01*
X191568Y319441D01*
X191074Y320297D01*
X190375Y320995D01*
X189519Y321489D01*
X188565Y321745D01*
D02*
G37*
G36*
X108161Y312027D02*
X107373D01*
X106645Y311725D01*
X106088Y311168D01*
X105786Y310440D01*
Y309652D01*
X106088Y308924D01*
X106645Y308366D01*
X107373Y308065D01*
X107874D01*
X109876Y306063D01*
X110306Y305775D01*
X110813Y305675D01*
X162314D01*
X166487Y301502D01*
X166917Y301215D01*
X167213Y301156D01*
X167424Y301114D01*
X175178Y301114D01*
X175386Y300614D01*
X175068Y300296D01*
X174574Y299441D01*
X174318Y298486D01*
Y297498D01*
X174574Y296544D01*
X175068Y295688D01*
X175229Y295527D01*
X175038Y295065D01*
X116310D01*
X104322Y307052D01*
X103892Y307340D01*
X103385Y307440D01*
X101569D01*
X101215Y307794D01*
X100486Y308096D01*
X99698D01*
X98970Y307794D01*
X98413Y307237D01*
X98111Y306509D01*
Y305721D01*
X98413Y304993D01*
X98970Y304435D01*
X99236Y304326D01*
X99136Y303825D01*
X95154D01*
X94961Y304018D01*
X94233Y304320D01*
X93445D01*
X92717Y304018D01*
X92159Y303461D01*
X91858Y302733D01*
Y301945D01*
X92159Y301217D01*
X92717Y300659D01*
X93445Y300358D01*
X94233D01*
X94961Y300659D01*
X95476Y301175D01*
X102951D01*
X121323Y282802D01*
X121753Y282515D01*
X122260Y282414D01*
X183818D01*
X184325Y282515D01*
X184755Y282802D01*
X186512Y284559D01*
X186622Y284495D01*
X187577Y284240D01*
X188565D01*
X189519Y284495D01*
X190375Y284989D01*
X191074Y285688D01*
X191568Y286544D01*
X191824Y287498D01*
Y288486D01*
X191568Y289441D01*
X191074Y290297D01*
X190375Y290995D01*
X189519Y291489D01*
X188565Y291745D01*
X187577D01*
X186622Y291489D01*
X185767Y290995D01*
X185068Y290297D01*
X184574Y289441D01*
X184318Y288486D01*
Y287498D01*
X184574Y286544D01*
X184638Y286433D01*
X183269Y285065D01*
X181104D01*
X180913Y285527D01*
X181074Y285688D01*
X181568Y286544D01*
X181824Y287498D01*
Y288486D01*
X181568Y289441D01*
X181074Y290297D01*
X180375Y290995D01*
X179519Y291489D01*
X178565Y291745D01*
X177577D01*
X176622Y291489D01*
X175767Y290995D01*
X175068Y290297D01*
X174574Y289441D01*
X174318Y288486D01*
Y287498D01*
X174574Y286544D01*
X175068Y285688D01*
X175229Y285527D01*
X175038Y285065D01*
X122810D01*
X115961Y291914D01*
X116168Y292414D01*
X183818D01*
X184325Y292515D01*
X184755Y292802D01*
X186512Y294559D01*
X186622Y294495D01*
X187577Y294239D01*
X188565D01*
X189519Y294495D01*
X190375Y294989D01*
X191074Y295688D01*
X191568Y296544D01*
X191824Y297498D01*
Y298486D01*
X191568Y299441D01*
X191074Y300296D01*
X190375Y300995D01*
X189519Y301489D01*
X188565Y301745D01*
X187577D01*
X186622Y301489D01*
X186109Y301193D01*
X185802Y301593D01*
X188069Y303860D01*
X188070Y303860D01*
X188070Y303860D01*
X188197Y304051D01*
X188323Y304240D01*
X188565D01*
X189519Y304495D01*
X190375Y304989D01*
X191074Y305688D01*
X191568Y306544D01*
X191824Y307498D01*
Y308486D01*
X191568Y309441D01*
X191074Y310297D01*
X190375Y310995D01*
X189519Y311489D01*
X188565Y311745D01*
X187577D01*
X186622Y311489D01*
X185767Y310995D01*
X185068Y310297D01*
X184574Y309441D01*
X184318Y308486D01*
Y307498D01*
X184574Y306544D01*
X185068Y305688D01*
X185358Y305398D01*
X185358Y304898D01*
X184225Y303765D01*
X178726Y303765D01*
X178660Y304265D01*
X179519Y304495D01*
X180375Y304989D01*
X181074Y305688D01*
X181568Y306544D01*
X181824Y307498D01*
Y308486D01*
X181568Y309441D01*
X181074Y310297D01*
X180375Y310995D01*
X179519Y311489D01*
X178565Y311745D01*
X177577D01*
X176622Y311489D01*
X175767Y310995D01*
X175068Y310297D01*
X174574Y309441D01*
X174318Y308486D01*
Y307498D01*
X174574Y306544D01*
X175068Y305688D01*
X175767Y304989D01*
X176622Y304495D01*
X177482Y304265D01*
X177416Y303765D01*
X167973Y303765D01*
X163801Y307937D01*
X163371Y308225D01*
X162864Y308326D01*
X111362D01*
X109748Y309939D01*
Y310440D01*
X109447Y311168D01*
X108889Y311725D01*
X108161Y312027D01*
D02*
G37*
G36*
X89653Y300222D02*
X88865D01*
X88137Y299921D01*
X87579Y299363D01*
X87278Y298635D01*
Y297847D01*
X87579Y297119D01*
X88137Y296562D01*
X88865Y296260D01*
X89366D01*
X115063Y270563D01*
X115493Y270275D01*
X116000Y270175D01*
X181579D01*
X182086Y270275D01*
X182516Y270563D01*
X186512Y274559D01*
X186622Y274495D01*
X187577Y274239D01*
X188565D01*
X189519Y274495D01*
X190375Y274989D01*
X191074Y275688D01*
X191568Y276544D01*
X191824Y277498D01*
Y278486D01*
X191568Y279441D01*
X191074Y280296D01*
X190375Y280995D01*
X189519Y281489D01*
X188565Y281745D01*
X187577D01*
X186622Y281489D01*
X185767Y280995D01*
X185068Y280296D01*
X184574Y279441D01*
X184318Y278486D01*
Y277498D01*
X184574Y276544D01*
X184638Y276433D01*
X181030Y272826D01*
X116549D01*
X91240Y298134D01*
Y298635D01*
X90938Y299363D01*
X90381Y299921D01*
X89653Y300222D01*
D02*
G37*
G36*
X415414Y253489D02*
X414626D01*
X413898Y253187D01*
X413341Y252630D01*
X413039Y251902D01*
Y251114D01*
X413341Y250386D01*
X413898Y249829D01*
X414626Y249527D01*
X415127D01*
X449739Y214915D01*
Y214414D01*
X450041Y213686D01*
X450598Y213128D01*
X451326Y212827D01*
X452114D01*
X452842Y213128D01*
X453400Y213686D01*
X453701Y214414D01*
Y215202D01*
X453400Y215930D01*
X452842Y216488D01*
X452114Y216789D01*
X451614D01*
X417001Y251401D01*
Y251902D01*
X416700Y252630D01*
X416142Y253187D01*
X415414Y253489D01*
D02*
G37*
G36*
X69623Y198241D02*
X68172D01*
X66770Y197865D01*
X65513Y197140D01*
X64487Y196114D01*
X63762Y194857D01*
X63386Y193455D01*
Y192004D01*
X63762Y190602D01*
X64487Y189345D01*
X65513Y188319D01*
X66770Y187593D01*
X68172Y187217D01*
X69623D01*
X71025Y187593D01*
X72282Y188319D01*
X73308Y189345D01*
X74034Y190602D01*
X74410Y192004D01*
Y193455D01*
X74034Y194857D01*
X73308Y196114D01*
X72282Y197140D01*
X71025Y197865D01*
X69623Y198241D01*
D02*
G37*
G36*
X508403Y74410D02*
X506952D01*
X505550Y74034D01*
X504293Y73308D01*
X503267Y72282D01*
X502541Y71025D01*
X502165Y69624D01*
Y68172D01*
X502541Y66770D01*
X503267Y65513D01*
X504293Y64487D01*
X505550Y63762D01*
X506952Y63386D01*
X508403D01*
X509805Y63762D01*
X511061Y64487D01*
X512088Y65513D01*
X512813Y66770D01*
X513189Y68172D01*
Y69624D01*
X512813Y71025D01*
X512088Y72282D01*
X511061Y73308D01*
X509805Y74034D01*
X508403Y74410D01*
D02*
G37*
%LPD*%
D14*
X1031385Y347974D02*
G03*
X1030681Y347681I3J-1000D01*
G01*
X306221Y503000D02*
X519914D01*
X277980Y531241D02*
X306221Y503000D01*
X519914D02*
X570000Y452914D01*
X277980Y531241D02*
Y534122D01*
X275921Y536181D02*
X277980Y534122D01*
X272000Y556500D02*
X460000D01*
X484032Y532468D01*
X260173Y544673D02*
X272000Y556500D01*
X276445Y549500D02*
X343000D01*
X268765Y541820D02*
X276445Y549500D01*
X268765Y536898D02*
Y541820D01*
X268047Y536181D02*
X268765Y536898D01*
X260173Y536181D02*
Y544673D01*
X359622Y181500D02*
X513500D01*
X205112Y182500D02*
X358622D01*
X359622Y181500D01*
X574000Y137508D02*
X574254Y137254D01*
X574000Y137508D02*
Y199708D01*
X138520Y115908D02*
X205112Y182500D01*
X578500Y194000D02*
Y278000D01*
Y194000D02*
X648992Y123508D01*
X574000Y137000D02*
X581130Y129870D01*
X533519Y240189D02*
X574000Y199708D01*
X581130Y129870D02*
X590000Y121000D01*
X581130Y129870D02*
Y129870D01*
X590000Y121000D02*
X675426D01*
X584000Y117000D02*
X675026D01*
X648992Y123508D02*
X827620D01*
X578500Y278000D02*
X603000Y302500D01*
X137901Y194000D02*
X519000D01*
X525000Y188000D01*
X114701Y170799D02*
X137901Y194000D01*
X147500Y238500D02*
X168500Y259500D01*
Y266000D01*
X404500Y541000D02*
X428000Y517500D01*
X514000D01*
X644509Y494500D02*
X710935Y428074D01*
X644500Y494500D02*
X644509D01*
X624500Y508000D02*
Y526187D01*
X514000Y517500D02*
X584500Y447000D01*
Y417519D02*
Y447000D01*
Y417519D02*
X603000Y399019D01*
X570000Y312500D02*
Y452914D01*
X533519Y276019D02*
X570000Y312500D01*
X533519Y240189D02*
Y276019D01*
X544500Y282500D02*
X576000D01*
X597000Y303500D01*
X736648Y363852D02*
X737206D01*
X763179Y337878D01*
X710935Y389565D02*
X736648Y363852D01*
X710935Y389565D02*
Y428074D01*
X764876Y339876D02*
Y387124D01*
X770873Y334706D02*
X794020Y357854D01*
X764876Y339876D02*
X770045Y334706D01*
X770873D01*
X484032Y532468D02*
X530246D01*
X533714Y529000D01*
X620232D01*
X621900Y530668D01*
X628395D01*
X628981Y530082D01*
Y522633D02*
Y530082D01*
X603000Y302500D02*
Y399019D01*
X605820Y221708D02*
Y417708D01*
X805456Y501272D02*
X806520Y500208D01*
X737728Y501272D02*
X805456D01*
X727500Y511500D02*
X737728Y501272D01*
X753720Y497908D02*
X805220D01*
X737392Y496108D02*
X803864D01*
X805264Y494708D01*
X731500Y502000D02*
X737392Y496108D01*
X752920Y498708D02*
X753720Y497908D01*
X805420Y497708D02*
X811220D01*
X796500Y492500D02*
X839000D01*
X881120Y494708D02*
X890920Y504508D01*
X805264Y494708D02*
X881120D01*
X811220Y497708D02*
X813720Y500208D01*
X805220Y497908D02*
X805420Y497708D01*
X874820Y361408D02*
X920500D01*
X916000Y353500D02*
X1014281D01*
X837304Y398925D02*
X874820Y361408D01*
X781339Y65661D02*
X838661D01*
X779820Y63808D02*
X852808D01*
X949720Y57608D02*
X1076920Y184808D01*
X770201Y62508D02*
X775101Y57608D01*
X767420Y76208D02*
X779820Y63808D01*
X775101Y57608D02*
X949720D01*
X852808Y63808D02*
X875000Y86000D01*
X838661Y65661D02*
X845500Y72500D01*
X758692Y88308D02*
X781339Y65661D01*
X920500Y361408D02*
X924408Y357500D01*
X1037500D01*
X1043320Y351680D01*
X974811Y347019D02*
X975292Y347500D01*
X884481Y347019D02*
X974811D01*
X835500Y396000D02*
X884481Y347019D01*
X975292Y347500D02*
X1024500D01*
X817739Y398925D02*
X837304D01*
X736800Y510700D02*
X739281D01*
X739481Y510500D01*
X719488Y528012D02*
X736800Y510700D01*
X723000Y276500D02*
X739111Y260389D01*
X748752D01*
X669000Y389500D02*
X676000Y382500D01*
Y249325D02*
Y382500D01*
X669000Y389500D02*
Y466500D01*
X618000Y191325D02*
X676000Y249325D01*
X629953Y522047D02*
X764876Y387124D01*
X757780Y260258D02*
X759742D01*
X829573Y190427D01*
X757519Y260519D02*
X757780Y260258D01*
X763974Y395008D02*
X790174D01*
X640500Y515937D02*
Y528187D01*
X758824Y405121D02*
X760879D01*
X757371Y403667D02*
X758824Y405121D01*
X759852Y402640D02*
X765683Y396808D01*
X757371Y401612D02*
X763974Y395008D01*
X763937Y392500D02*
X787700D01*
X640500Y515937D02*
X763937Y392500D01*
X757371Y401612D02*
Y403667D01*
X760879Y405121D02*
X767392Y398608D01*
X862500Y138000D02*
X864000Y136500D01*
X862500Y138000D02*
Y153209D01*
X860020Y124608D02*
Y149608D01*
X857020Y152608D02*
X860020Y149608D01*
X833412Y98000D02*
X860020Y124608D01*
X859520Y158608D02*
X1029020D01*
X851500Y129500D02*
Y157641D01*
X857020Y160108D02*
X858320Y161408D01*
X918620D01*
X857020Y152608D02*
Y160108D01*
X867912Y190427D02*
X879848Y202362D01*
X833073Y190427D02*
X867912D01*
X763920Y88208D02*
X784020D01*
X747020Y207908D02*
X826420Y128508D01*
X696883Y115953D02*
X837469Y115469D01*
X717500Y98000D02*
X833412D01*
X827620Y123508D02*
X833000Y128888D01*
X697678Y88308D02*
X758692D01*
X746000Y101000D02*
X749500Y104500D01*
X833000Y128888D02*
Y148433D01*
X749500Y104500D02*
X831000D01*
X837469Y115469D02*
X851500Y129500D01*
X625500Y62508D02*
X770201D01*
X728120Y76208D02*
X767420D01*
X676826Y115200D02*
X679707Y118081D01*
X675026Y117000D02*
X677907Y119881D01*
X605200Y115200D02*
X676826D01*
X599500Y109500D02*
X605200Y115200D01*
X609688Y87312D02*
X680379D01*
X599000Y98000D02*
X609688Y87312D01*
X613230Y99270D02*
Y100770D01*
X607500Y106500D02*
X613230Y100770D01*
Y99270D02*
X618700Y93800D01*
X692186D01*
X664520Y126108D02*
X733020D01*
X756820Y149908D01*
X833000Y163500D02*
X838328D01*
X843720Y158108D01*
X833000Y148433D02*
X833000Y148433D01*
Y163500D01*
X631462Y524047D02*
X636504Y519004D01*
X764760Y412996D02*
X782504D01*
X631462Y524047D02*
Y526825D01*
X638791Y529987D02*
X639472Y530668D01*
X624500Y526187D02*
X626500Y528187D01*
X649568D02*
X764760Y412996D01*
X631462Y529987D02*
X638791D01*
X639472Y530668D02*
X669360D01*
X732620Y467408D01*
X629567Y522047D02*
X629953D01*
X628981Y522633D02*
X629567Y522047D01*
X689300Y536788D02*
X691862D01*
X685664Y522336D02*
Y535973D01*
X691862Y536788D02*
X691929Y536721D01*
X688879Y537208D02*
X689300Y536788D01*
X686899Y537208D02*
X688879D01*
X685664Y535973D02*
X686899Y537208D01*
X689595Y527500D02*
X697028D01*
X689500Y527405D02*
X689595Y527500D01*
X719488Y528012D02*
Y531757D01*
X721640Y533909D01*
X721835D01*
X714261Y522739D02*
Y531759D01*
X619220Y180508D02*
X795820Y357108D01*
X617004Y159004D02*
X626608Y168608D01*
X718500Y215500D02*
X757000Y177000D01*
X718500Y215500D02*
Y277242D01*
X797620Y356362D01*
Y392654D01*
X789951Y219190D02*
X851500Y157641D01*
X789951Y219190D02*
X789951D01*
X658000Y508000D02*
X660954D01*
X794020Y357854D02*
Y391162D01*
X791666Y398608D02*
X797620Y392654D01*
X767392Y398608D02*
X791666D01*
X748752Y260389D02*
X789951Y219190D01*
X767865Y401089D02*
X788500D01*
X790174Y395008D02*
X794020Y391162D01*
X660954Y508000D02*
X767865Y401089D01*
X612500Y92000D02*
X687827D01*
X599500Y105000D02*
Y109500D01*
Y105000D02*
X612500Y92000D01*
X680379Y87312D02*
X684761Y82929D01*
X691929D01*
X686964Y95600D02*
X704028D01*
X692186Y93800D02*
X697678Y88308D01*
X687992Y98081D02*
Y110008D01*
X704028Y95600D02*
X709120Y90508D01*
X651722Y96281D02*
X686283D01*
X686964Y95600D01*
X687827Y92000D02*
X692228Y87599D01*
X649082Y101908D02*
X672320D01*
X684893Y114481D01*
X750500Y519500D02*
X750671Y519329D01*
Y504753D02*
X750841Y504583D01*
X728568Y530000D02*
X739068Y519500D01*
X750500D01*
X750671Y504753D02*
Y519329D01*
X808000Y515500D02*
X825500Y533000D01*
X719387Y507449D02*
X737918Y488919D01*
X719387Y507449D02*
Y508708D01*
X737918Y488919D02*
X837609D01*
X708510Y519585D02*
X719387Y508708D01*
X644500Y527500D02*
X703695Y468305D01*
X657220Y527408D02*
X666320Y518308D01*
X698588Y529508D02*
X708510Y519585D01*
X703695Y467805D02*
Y468305D01*
Y467805D02*
X762630Y408870D01*
X689991Y517528D02*
Y518009D01*
Y517528D02*
X692000Y515519D01*
X720141Y515446D02*
Y516859D01*
X714261Y522739D02*
X720141Y516859D01*
Y515446D02*
X721500Y514087D01*
Y513719D02*
Y514087D01*
X685664Y522336D02*
X689991Y518009D01*
X732620Y467408D02*
X803520D01*
X672500Y512500D02*
X736500Y448500D01*
X752500D01*
X666320Y518308D02*
X676192D01*
X729492Y465008D01*
X799020D01*
X762630Y408870D02*
X786812D01*
X765683Y396808D02*
X790920D01*
X915520Y385408D02*
X922112Y392000D01*
X944500D01*
X1112598Y221142D02*
X1112601Y221129D01*
X878822Y404325D02*
X1043000Y404000D01*
X1112601Y334400D01*
Y221129D02*
Y334400D01*
X834291Y404325D02*
X878822D01*
X809000Y246500D02*
X828808Y266308D01*
X809000Y238500D02*
Y246500D01*
X806497Y230494D02*
X812994D01*
X800472Y236519D02*
X800472D01*
X812994Y230494D02*
X816500Y234000D01*
X800472Y236519D02*
X806497Y230494D01*
X799019Y237972D02*
X800472Y236519D01*
X799019Y237972D02*
Y240028D01*
X828808Y266308D02*
X926020D01*
X863899Y304908D02*
X913320D01*
X799019Y240028D02*
X863899Y304908D01*
X785000Y245500D02*
X804000Y226500D01*
X815500D01*
X850770Y261770D01*
X868270D01*
X829673Y190427D02*
X833073D01*
X875000Y86000D02*
Y116500D01*
X880000Y121500D01*
X674000Y155500D02*
X686524D01*
X693971Y162947D01*
X695159D02*
X695420Y163208D01*
X693971Y162947D02*
X695159D01*
X664270Y145770D02*
X674000Y155500D01*
X664270Y132058D02*
Y145770D01*
X696892Y128608D02*
X713109D01*
X679000Y146500D02*
X696892Y128608D01*
X626608Y168608D02*
X748820D01*
X713109Y128608D02*
X761320Y176819D01*
X116000Y271500D02*
X181579D01*
X188071Y277992D01*
X89259Y298241D02*
X116000Y271500D01*
X1031385Y347974D02*
X1039974Y347974D01*
X675426Y121000D02*
X676107Y121681D01*
X677907Y119881D02*
X697947D01*
X676107Y121681D02*
X837181D01*
X729331Y79557D02*
Y85827D01*
X697028Y527500D02*
X700620Y523908D01*
Y502350D02*
Y523908D01*
X833073Y190427D02*
X840299Y183201D01*
X791500Y445500D02*
Y458500D01*
Y417701D02*
Y445500D01*
X806320Y410243D02*
Y420680D01*
X1122600Y221129D02*
Y337400D01*
X1021105Y338519D02*
X1030681Y347681D01*
X886481Y338519D02*
X1021105Y338519D01*
X890500Y500208D02*
X927100Y463608D01*
X930500D01*
X913320Y304908D02*
X933520Y325108D01*
X826000Y219500D02*
X868270Y261770D01*
X1039414D01*
X1062598Y238586D01*
Y221142D02*
Y238586D01*
X791500Y417701D02*
X893201Y316000D01*
X895500D01*
X183818Y293739D02*
X188071Y297992D01*
X115761Y293739D02*
X183818D01*
X103385Y306115D02*
X115761Y293739D01*
X100092Y306115D02*
X103385D01*
X796500Y420064D02*
Y462500D01*
Y420064D02*
X806320Y410243D01*
Y406743D02*
Y410243D01*
X883849Y329214D02*
X910500D01*
X982598Y221142D02*
Y246902D01*
X806320Y406743D02*
X883849Y329214D01*
X806320Y420680D02*
X811500Y425860D01*
X905500Y364028D02*
Y370428D01*
X894598Y381330D02*
X905500Y370428D01*
X891007Y381330D02*
X894598D01*
X871612Y400725D02*
X891007Y381330D01*
X818642Y400725D02*
X871612D01*
X810830Y408537D02*
X818642Y400725D01*
X810830Y408537D02*
Y418077D01*
X815781Y423029D01*
Y455147D01*
X803520Y467408D02*
X815781Y455147D01*
X943638Y202362D02*
X951800Y194200D01*
X939174Y202362D02*
X943638D01*
X874420Y212608D02*
X887220Y225408D01*
X955420D01*
X958320Y222508D01*
Y217889D02*
Y222508D01*
Y217889D02*
X959320Y216889D01*
X985901D01*
X986920Y217908D01*
Y223008D01*
X989320Y225408D01*
X1025420D01*
X1026920Y223908D01*
Y215464D02*
Y223908D01*
X1022598Y211142D02*
X1026920Y215464D01*
X820263Y409441D02*
X829175D01*
X834291Y404325D01*
X749220Y195008D02*
X761320Y182908D01*
Y176819D02*
Y182908D01*
X808467Y408196D02*
X817739Y398925D01*
X808467Y408196D02*
Y418394D01*
X813981Y423908D01*
Y450047D01*
X799020Y465008D02*
X813981Y450047D01*
X1030500Y332500D02*
X1043320Y345320D01*
Y351680D01*
X918620Y161408D02*
X945020Y187808D01*
X786812Y408870D02*
X837074Y358608D01*
X843720D01*
X875020Y369008D02*
X900500D01*
X768620Y92608D02*
X770320Y90908D01*
X709720Y92608D02*
X768620D01*
X687847Y114481D02*
X709720Y92608D01*
X684893Y114481D02*
X687847D01*
X865420Y219908D02*
X904720Y259208D01*
X865420Y202508D02*
Y219908D01*
X700620Y502350D02*
X717862Y485108D01*
X767420D01*
X780920Y471608D01*
X816620D01*
X868620Y419608D01*
X888020D01*
X708510Y502510D02*
Y519585D01*
X686000Y112000D02*
X687992Y110008D01*
X837609Y488919D02*
X890520Y436008D01*
Y417450D02*
Y436008D01*
X890079Y417008D02*
X890520Y417450D01*
X815208Y417008D02*
X890079D01*
X812630Y414430D02*
X815208Y417008D01*
X812630Y410452D02*
Y414430D01*
Y410452D02*
X820420Y402662D01*
X832383D01*
X832520Y402525D01*
X873036D01*
X877249Y398312D01*
X880616D01*
X896020Y382908D01*
X910500D01*
X971520Y250508D02*
X972598Y249430D01*
Y221142D02*
Y249430D01*
X1048620Y189908D02*
X1057220Y198508D01*
X998956Y177500D02*
X1032598Y211142D01*
X984000Y177500D02*
X998956D01*
X926200Y504508D02*
X930500Y500208D01*
X890920Y504508D02*
X926200D01*
X723720Y129408D02*
X730220Y135908D01*
X644685Y80808D02*
X664820D01*
X1054000Y266500D02*
X1099358Y221142D01*
X1102598D01*
X894500Y401208D02*
X895500Y400208D01*
X879920Y401208D02*
X894500D01*
X876320Y503108D02*
Y535908D01*
X870420Y541808D02*
X876320Y535908D01*
X740620Y541808D02*
X870420D01*
X893009Y438491D02*
X932500D01*
X735620Y547908D02*
Y550408D01*
Y547908D02*
X738620Y544908D01*
X874520D01*
X881720Y537708D01*
Y512508D02*
Y537708D01*
Y512508D02*
X884201Y510027D01*
X891539D01*
X893420Y511908D01*
X756820Y149908D02*
Y167908D01*
X969520Y178208D02*
X972720Y175008D01*
X1006464D01*
X1042598Y211142D01*
X1055705Y253295D02*
X1082598Y226402D01*
Y221142D02*
Y226402D01*
X790920Y396808D02*
X795820Y391908D01*
Y357108D02*
Y391908D01*
X1062598Y192186D02*
Y211142D01*
X1029020Y158608D02*
X1062598Y192186D01*
X747020Y207908D02*
Y257908D01*
X415020Y251508D02*
X451720Y214808D01*
X845500Y72500D02*
Y100500D01*
X694755Y118081D02*
X696883Y115953D01*
X679707Y118081D02*
X694755D01*
X726420Y77908D02*
X728120Y76208D01*
X726420Y77908D02*
Y79108D01*
X725320Y80208D02*
X726420Y79108D01*
X678920Y80208D02*
X725320D01*
X675220Y83908D02*
X678920Y80208D01*
X643048Y83908D02*
X675220D01*
X937000Y371500D02*
X996000D01*
X816500Y367000D02*
X869981Y313519D01*
X915473D01*
X933436Y331481D01*
X989623D01*
X1000604Y320500D01*
X1038264D01*
X1050009Y332245D01*
X1064165D01*
X1069445Y337525D01*
X1073431D01*
X1073898Y337992D01*
X100239Y323739D02*
X183818D01*
X188071Y327992D01*
X119222Y353691D02*
X182372D01*
X188071Y347992D01*
X93839Y302339D02*
X94000Y302500D01*
X103500D01*
X122260Y283739D01*
X183818D01*
X188071Y287992D01*
X183818Y313739D02*
X188071Y317992D01*
X116761Y313739D02*
X183818D01*
X116511Y313989D02*
X116761Y313739D01*
X104750Y333000D02*
X183079D01*
X188071Y337992D01*
X107767Y310046D02*
X110813Y307000D01*
X162864D01*
X167424Y302439D01*
X184774Y302440D01*
X187132Y304798D01*
Y307054D01*
X188071Y307992D01*
X885620Y512508D02*
Y538308D01*
X866320Y557608D02*
X885620Y538308D01*
X629420Y557608D02*
X866320D01*
X1012598Y211142D02*
X1012599Y211142D01*
Y194099D02*
Y211142D01*
X1002519Y184019D02*
X1012599Y194099D01*
X954514Y184019D02*
X1002519D01*
X947799Y190734D02*
X954514Y184019D01*
X944613Y190734D02*
X947799D01*
X932985Y202362D02*
X944613Y190734D01*
X879848Y202362D02*
X932985D01*
X967704Y307992D02*
X1063898D01*
X926020Y266308D02*
X967704Y307992D01*
X761620Y90508D02*
X763920Y88208D01*
X709120Y90508D02*
X761620D01*
X876320Y177008D02*
X928508D01*
X940325Y188825D01*
X831000Y104500D02*
X857500Y131000D01*
Y146000D01*
X697947Y119881D02*
X699320Y118508D01*
X992598Y190902D02*
Y211142D01*
Y190902D02*
X997000Y186500D01*
X869920Y202108D02*
X872820Y205008D01*
X946464D01*
X952598Y211142D01*
X1076920Y184808D02*
Y227408D01*
X1048920Y255408D02*
X1076920Y227408D01*
X1048920Y255408D02*
Y295415D01*
X1055820Y302315D01*
X1068220D01*
X1073898Y307992D01*
X1052598Y221142D02*
Y235410D01*
X1036000Y252008D02*
X1052598Y235410D01*
X913000Y284500D02*
X957500Y329000D01*
X1029620Y234120D02*
Y252508D01*
Y234120D02*
X1042598Y221142D01*
X839000Y492500D02*
X893009Y438491D01*
X826000Y497250D02*
X867500Y538750D01*
X752500Y448500D02*
X806500Y394500D01*
X815908Y412481D02*
X817772Y414346D01*
X895812D01*
X1045500Y414500D01*
X1122600Y337400D01*
X1122598Y221142D02*
X1122600Y221129D01*
X822500Y486000D02*
X835500Y473000D01*
X789000Y486000D02*
X822500D01*
X829775Y395225D02*
X886481Y338519D01*
X932598Y211142D02*
X936864Y215408D01*
X956227D01*
X958346Y213289D01*
Y207908D02*
Y213289D01*
Y207908D02*
X959364Y206889D01*
X985832D01*
X986851Y207908D01*
Y213608D01*
X988651Y215408D01*
X1008332D01*
X1012598Y211142D01*
X731792Y107798D02*
X788903D01*
X994000Y367000D02*
X998500Y362500D01*
X925500Y367000D02*
X994000Y367000D01*
D21*
X526575Y71654D02*
D03*
X530512D02*
D03*
X534449D02*
D03*
X538386D02*
D03*
X542323D02*
D03*
X546260D02*
D03*
X550197D02*
D03*
X554134D02*
D03*
X558071D02*
D03*
X562008D02*
D03*
X565945D02*
D03*
X577756D02*
D03*
X581693D02*
D03*
X585630D02*
D03*
X589567D02*
D03*
X593504D02*
D03*
X597441D02*
D03*
X601378D02*
D03*
X605315D02*
D03*
X609252D02*
D03*
X613189D02*
D03*
X617126D02*
D03*
X621063D02*
D03*
X625000D02*
D03*
X628937D02*
D03*
X632874D02*
D03*
X636811D02*
D03*
X640748D02*
D03*
X644685D02*
D03*
X648622D02*
D03*
X652559D02*
D03*
X656496D02*
D03*
X660433D02*
D03*
X664370D02*
D03*
X668307D02*
D03*
X672244D02*
D03*
X676181D02*
D03*
X680118D02*
D03*
X684055D02*
D03*
X687992D02*
D03*
X691929D02*
D03*
X695866D02*
D03*
X699803D02*
D03*
X703740D02*
D03*
X707677D02*
D03*
X711614D02*
D03*
X715551D02*
D03*
X719488D02*
D03*
X723425D02*
D03*
Y548413D02*
D03*
X719488D02*
D03*
X715551D02*
D03*
X711614D02*
D03*
X707677D02*
D03*
X703740D02*
D03*
X699803D02*
D03*
X695866D02*
D03*
X691929D02*
D03*
X687992D02*
D03*
X684055D02*
D03*
X680118D02*
D03*
X676181D02*
D03*
X672244D02*
D03*
X668307D02*
D03*
X664370D02*
D03*
X660433D02*
D03*
X656496D02*
D03*
X652559D02*
D03*
X648622D02*
D03*
X644685D02*
D03*
X640748D02*
D03*
X636811D02*
D03*
X632874D02*
D03*
X628937D02*
D03*
X625000D02*
D03*
X621063D02*
D03*
X617126D02*
D03*
X613189D02*
D03*
X609252D02*
D03*
X605315D02*
D03*
X601378D02*
D03*
X597441D02*
D03*
X593504D02*
D03*
X589567D02*
D03*
X585630D02*
D03*
X581693D02*
D03*
X577756D02*
D03*
X565945D02*
D03*
X562008D02*
D03*
X558071D02*
D03*
X554134D02*
D03*
X550197D02*
D03*
X546260D02*
D03*
X542323D02*
D03*
X538386D02*
D03*
X534449D02*
D03*
X530512D02*
D03*
X526575D02*
D03*
D22*
X71654Y408477D02*
D03*
Y404540D02*
D03*
Y400603D02*
D03*
Y396666D02*
D03*
Y392729D02*
D03*
Y388792D02*
D03*
Y384855D02*
D03*
Y380918D02*
D03*
Y376981D02*
D03*
Y373044D02*
D03*
Y369107D02*
D03*
Y357296D02*
D03*
Y353359D02*
D03*
Y349422D02*
D03*
Y345485D02*
D03*
Y341548D02*
D03*
Y337611D02*
D03*
Y333674D02*
D03*
Y329737D02*
D03*
Y325800D02*
D03*
Y321863D02*
D03*
Y317926D02*
D03*
Y313989D02*
D03*
Y310052D02*
D03*
Y306115D02*
D03*
Y302178D02*
D03*
Y298241D02*
D03*
Y294304D02*
D03*
Y290367D02*
D03*
Y286430D02*
D03*
Y282493D02*
D03*
Y278556D02*
D03*
Y274619D02*
D03*
Y270682D02*
D03*
Y266745D02*
D03*
Y262808D02*
D03*
Y258871D02*
D03*
Y254934D02*
D03*
Y250997D02*
D03*
Y247060D02*
D03*
Y243123D02*
D03*
Y239186D02*
D03*
Y235249D02*
D03*
Y231312D02*
D03*
Y227375D02*
D03*
Y223438D02*
D03*
Y219501D02*
D03*
Y215564D02*
D03*
Y211627D02*
D03*
D36*
X526945Y435430D02*
D03*
X479000Y435500D02*
D03*
D37*
X303087Y528307D02*
D03*
X233008D02*
D03*
D38*
X315095Y535000D02*
D03*
X221000D02*
D03*
D39*
X507677Y68898D02*
D03*
X742323D02*
D03*
X742323Y551169D02*
D03*
X507677D02*
D03*
X68898Y427375D02*
D03*
Y192729D02*
D03*
D40*
X178071Y277992D02*
D03*
X188071D02*
D03*
X178071Y287992D02*
D03*
X188071D02*
D03*
X178071Y297992D02*
D03*
X188071D02*
D03*
X178071Y307992D02*
D03*
X188071D02*
D03*
X178071Y317992D02*
D03*
X188071D02*
D03*
X178071Y327992D02*
D03*
X188071D02*
D03*
X178071Y337992D02*
D03*
X188071D02*
D03*
X178071Y347992D02*
D03*
X1063898Y277992D02*
D03*
X1073898D02*
D03*
X1063898Y287992D02*
D03*
X1073898D02*
D03*
X1063898Y297992D02*
D03*
X1073898D02*
D03*
X1063898Y307992D02*
D03*
X1073898D02*
D03*
X1063898Y317992D02*
D03*
X1073898D02*
D03*
X1063898Y327992D02*
D03*
X1073898D02*
D03*
X1063898Y337992D02*
D03*
X1073898D02*
D03*
X1063898Y347992D02*
D03*
X932598Y221142D02*
D03*
X942598Y211142D02*
D03*
Y221142D02*
D03*
X952598Y211142D02*
D03*
Y221142D02*
D03*
X962598Y211142D02*
D03*
Y221142D02*
D03*
X972598Y211142D02*
D03*
Y221142D02*
D03*
X982598Y211142D02*
D03*
Y221142D02*
D03*
X992598Y211142D02*
D03*
Y221142D02*
D03*
X1002598Y211142D02*
D03*
Y221142D02*
D03*
X1012598Y211142D02*
D03*
Y221142D02*
D03*
X1022598Y211142D02*
D03*
Y221142D02*
D03*
X1032598Y211142D02*
D03*
Y221142D02*
D03*
X1042598Y211142D02*
D03*
Y221142D02*
D03*
X1052598Y211142D02*
D03*
Y221142D02*
D03*
X1062598Y211142D02*
D03*
Y221142D02*
D03*
X1072598Y211142D02*
D03*
Y221142D02*
D03*
X1082598Y211142D02*
D03*
Y221142D02*
D03*
X1092598Y211142D02*
D03*
Y221142D02*
D03*
X1102598Y211142D02*
D03*
Y221142D02*
D03*
X1112598Y211142D02*
D03*
Y221142D02*
D03*
X1122598Y211142D02*
D03*
Y221142D02*
D03*
D41*
X188071Y347992D02*
D03*
X1073898D02*
D03*
D42*
X932598Y211142D02*
D03*
D43*
X493714Y453609D02*
D03*
X488596D02*
D03*
X483478D02*
D03*
X478360D02*
D03*
X473241D02*
D03*
X468123D02*
D03*
X463005D02*
D03*
Y448490D02*
D03*
Y443372D02*
D03*
Y438254D02*
D03*
Y433136D02*
D03*
Y428018D02*
D03*
Y422900D02*
D03*
X457887Y453609D02*
D03*
Y448490D02*
D03*
Y443372D02*
D03*
Y438254D02*
D03*
Y433136D02*
D03*
Y428018D02*
D03*
Y422900D02*
D03*
X452769Y453609D02*
D03*
Y448490D02*
D03*
Y443372D02*
D03*
Y438254D02*
D03*
Y433136D02*
D03*
Y428018D02*
D03*
Y422900D02*
D03*
X447651Y453609D02*
D03*
Y448490D02*
D03*
Y443372D02*
D03*
Y438254D02*
D03*
Y433136D02*
D03*
Y428018D02*
D03*
Y422900D02*
D03*
X442533Y453609D02*
D03*
Y448490D02*
D03*
Y443372D02*
D03*
Y438254D02*
D03*
Y433136D02*
D03*
Y428018D02*
D03*
Y422900D02*
D03*
X437415Y453609D02*
D03*
Y448490D02*
D03*
Y443372D02*
D03*
Y438254D02*
D03*
Y433136D02*
D03*
Y428018D02*
D03*
Y422900D02*
D03*
X432297Y453609D02*
D03*
Y448490D02*
D03*
Y443372D02*
D03*
Y438254D02*
D03*
Y433136D02*
D03*
Y428018D02*
D03*
Y422900D02*
D03*
X427178Y453609D02*
D03*
Y448490D02*
D03*
Y443372D02*
D03*
Y438254D02*
D03*
Y433136D02*
D03*
Y428018D02*
D03*
Y422900D02*
D03*
X422060Y453609D02*
D03*
Y448490D02*
D03*
Y443372D02*
D03*
Y438254D02*
D03*
Y433136D02*
D03*
Y428018D02*
D03*
Y422900D02*
D03*
X416942Y453609D02*
D03*
Y448490D02*
D03*
Y443372D02*
D03*
Y438254D02*
D03*
Y433136D02*
D03*
Y428018D02*
D03*
Y422900D02*
D03*
X411824Y453609D02*
D03*
Y448490D02*
D03*
Y443372D02*
D03*
Y438254D02*
D03*
Y433136D02*
D03*
Y428018D02*
D03*
Y422900D02*
D03*
X406706Y453609D02*
D03*
Y448490D02*
D03*
Y443372D02*
D03*
Y438254D02*
D03*
Y433136D02*
D03*
Y428018D02*
D03*
Y422900D02*
D03*
X401588Y453609D02*
D03*
Y448490D02*
D03*
Y443372D02*
D03*
Y438254D02*
D03*
Y433136D02*
D03*
Y428018D02*
D03*
Y422900D02*
D03*
X396470Y453609D02*
D03*
Y448490D02*
D03*
Y443372D02*
D03*
Y438254D02*
D03*
Y433136D02*
D03*
Y428018D02*
D03*
X391352Y453609D02*
D03*
Y448490D02*
D03*
Y443372D02*
D03*
Y438254D02*
D03*
Y433136D02*
D03*
Y428018D02*
D03*
X386233Y453609D02*
D03*
Y448490D02*
D03*
Y443372D02*
D03*
Y438254D02*
D03*
Y433136D02*
D03*
X381115Y453609D02*
D03*
Y448490D02*
D03*
Y443372D02*
D03*
Y438254D02*
D03*
X375997Y453609D02*
D03*
Y448490D02*
D03*
Y443372D02*
D03*
X370879Y453609D02*
D03*
Y448490D02*
D03*
X365761Y453609D02*
D03*
X343000Y549500D02*
D03*
X862218Y90223D02*
D03*
X857100Y85105D02*
D03*
X851982Y100459D02*
D03*
Y79987D02*
D03*
X846863Y105577D02*
D03*
X841745Y95341D02*
D03*
X831509Y74869D02*
D03*
X826391Y79987D02*
D03*
Y74869D02*
D03*
X821273Y90223D02*
D03*
Y79987D02*
D03*
Y74869D02*
D03*
X816155Y110695D02*
D03*
Y90223D02*
D03*
Y79987D02*
D03*
Y74869D02*
D03*
X811037Y110695D02*
D03*
Y90223D02*
D03*
Y79987D02*
D03*
Y74869D02*
D03*
X805919Y110695D02*
D03*
Y95341D02*
D03*
Y85105D02*
D03*
Y79987D02*
D03*
Y74869D02*
D03*
X800800Y110695D02*
D03*
Y90223D02*
D03*
Y85105D02*
D03*
Y79987D02*
D03*
Y74869D02*
D03*
X795682Y110695D02*
D03*
Y95341D02*
D03*
Y90223D02*
D03*
Y85105D02*
D03*
Y79987D02*
D03*
Y74869D02*
D03*
X790564Y110695D02*
D03*
Y95341D02*
D03*
Y90223D02*
D03*
Y85105D02*
D03*
Y79987D02*
D03*
Y74869D02*
D03*
X785446Y85105D02*
D03*
Y79987D02*
D03*
X780328Y110695D02*
D03*
Y95341D02*
D03*
Y85105D02*
D03*
X775210Y110695D02*
D03*
Y95341D02*
D03*
X770092Y110695D02*
D03*
Y95341D02*
D03*
X764974Y110695D02*
D03*
X759856D02*
D03*
X754737D02*
D03*
X729147Y172113D02*
D03*
Y110695D02*
D03*
X724029Y172113D02*
D03*
Y110695D02*
D03*
X718911Y172113D02*
D03*
Y110695D02*
D03*
X713793Y172113D02*
D03*
Y110695D02*
D03*
X708674Y172113D02*
D03*
X703556D02*
D03*
X698438D02*
D03*
Y110695D02*
D03*
X688202Y172113D02*
D03*
X683084D02*
D03*
X677966D02*
D03*
X657493D02*
D03*
X652375D02*
D03*
X647257D02*
D03*
X642139D02*
D03*
Y126050D02*
D03*
Y110695D02*
D03*
X637021Y172113D02*
D03*
Y131168D02*
D03*
Y126050D02*
D03*
Y110695D02*
D03*
Y105577D02*
D03*
X631903Y172113D02*
D03*
Y136286D02*
D03*
Y131168D02*
D03*
Y126050D02*
D03*
Y110695D02*
D03*
Y105577D02*
D03*
Y100459D02*
D03*
X626785Y172113D02*
D03*
Y141404D02*
D03*
Y136286D02*
D03*
Y131168D02*
D03*
Y126050D02*
D03*
Y110695D02*
D03*
Y105577D02*
D03*
Y100459D02*
D03*
X616548Y172113D02*
D03*
Y166995D02*
D03*
X606312Y172113D02*
D03*
Y161876D02*
D03*
Y156758D02*
D03*
Y151640D02*
D03*
Y146522D02*
D03*
Y141404D02*
D03*
Y136286D02*
D03*
Y131168D02*
D03*
Y126050D02*
D03*
Y110695D02*
D03*
X601194Y166995D02*
D03*
Y161876D02*
D03*
Y156758D02*
D03*
Y151640D02*
D03*
Y146522D02*
D03*
Y141404D02*
D03*
Y136286D02*
D03*
X596076Y172113D02*
D03*
Y166995D02*
D03*
Y161876D02*
D03*
Y156758D02*
D03*
Y151640D02*
D03*
Y146522D02*
D03*
Y141404D02*
D03*
Y126050D02*
D03*
X590958Y172113D02*
D03*
Y166995D02*
D03*
Y161876D02*
D03*
Y156758D02*
D03*
Y151640D02*
D03*
Y146522D02*
D03*
Y131168D02*
D03*
Y126050D02*
D03*
X585840Y172113D02*
D03*
Y166995D02*
D03*
Y161876D02*
D03*
Y156758D02*
D03*
Y151640D02*
D03*
Y136286D02*
D03*
Y131168D02*
D03*
X580722Y172113D02*
D03*
Y166995D02*
D03*
Y161876D02*
D03*
Y156758D02*
D03*
Y141404D02*
D03*
Y136286D02*
D03*
X519304Y151640D02*
D03*
Y146522D02*
D03*
Y141404D02*
D03*
Y136286D02*
D03*
Y131168D02*
D03*
Y126050D02*
D03*
Y120931D02*
D03*
Y115813D02*
D03*
Y110695D02*
D03*
Y105577D02*
D03*
Y100459D02*
D03*
Y95341D02*
D03*
Y90223D02*
D03*
Y85105D02*
D03*
Y79987D02*
D03*
X514186Y156758D02*
D03*
Y151640D02*
D03*
Y146522D02*
D03*
Y141404D02*
D03*
Y136286D02*
D03*
Y131168D02*
D03*
Y126050D02*
D03*
Y120931D02*
D03*
Y115813D02*
D03*
Y110695D02*
D03*
Y105577D02*
D03*
Y100459D02*
D03*
Y95341D02*
D03*
Y90223D02*
D03*
Y85105D02*
D03*
Y79987D02*
D03*
X509068Y166995D02*
D03*
Y161876D02*
D03*
Y156758D02*
D03*
Y151640D02*
D03*
Y146522D02*
D03*
Y141404D02*
D03*
Y136286D02*
D03*
Y131168D02*
D03*
Y126050D02*
D03*
Y120931D02*
D03*
Y115813D02*
D03*
Y110695D02*
D03*
Y105577D02*
D03*
Y100459D02*
D03*
Y95341D02*
D03*
Y90223D02*
D03*
Y85105D02*
D03*
Y79987D02*
D03*
X503950Y172113D02*
D03*
Y166995D02*
D03*
Y161876D02*
D03*
Y156758D02*
D03*
Y151640D02*
D03*
Y146522D02*
D03*
Y141404D02*
D03*
Y136286D02*
D03*
Y131168D02*
D03*
Y126050D02*
D03*
Y120931D02*
D03*
Y115813D02*
D03*
Y110695D02*
D03*
Y105577D02*
D03*
Y100459D02*
D03*
Y95341D02*
D03*
Y90223D02*
D03*
Y85105D02*
D03*
Y79987D02*
D03*
X498832Y172113D02*
D03*
Y166995D02*
D03*
Y161876D02*
D03*
Y156758D02*
D03*
Y151640D02*
D03*
Y146522D02*
D03*
Y141404D02*
D03*
Y136286D02*
D03*
Y131168D02*
D03*
Y126050D02*
D03*
Y120931D02*
D03*
Y115813D02*
D03*
Y110695D02*
D03*
Y105577D02*
D03*
Y100459D02*
D03*
Y95341D02*
D03*
Y90223D02*
D03*
Y85105D02*
D03*
X493714Y172113D02*
D03*
Y166995D02*
D03*
Y161876D02*
D03*
Y156758D02*
D03*
Y151640D02*
D03*
Y146522D02*
D03*
Y141404D02*
D03*
Y136286D02*
D03*
Y131168D02*
D03*
Y126050D02*
D03*
Y120931D02*
D03*
Y115813D02*
D03*
Y110695D02*
D03*
Y105577D02*
D03*
Y100459D02*
D03*
Y95341D02*
D03*
Y90223D02*
D03*
Y85105D02*
D03*
X488596Y172113D02*
D03*
Y166995D02*
D03*
Y161876D02*
D03*
Y156758D02*
D03*
Y151640D02*
D03*
Y146522D02*
D03*
Y141404D02*
D03*
Y136286D02*
D03*
Y131168D02*
D03*
Y126050D02*
D03*
Y120931D02*
D03*
Y115813D02*
D03*
Y110695D02*
D03*
Y105577D02*
D03*
Y100459D02*
D03*
Y95341D02*
D03*
Y90223D02*
D03*
Y85105D02*
D03*
X483478Y172113D02*
D03*
Y166995D02*
D03*
Y161876D02*
D03*
Y156758D02*
D03*
Y151640D02*
D03*
Y146522D02*
D03*
Y141404D02*
D03*
Y136286D02*
D03*
Y131168D02*
D03*
Y126050D02*
D03*
Y120931D02*
D03*
Y115813D02*
D03*
Y110695D02*
D03*
Y105577D02*
D03*
Y100459D02*
D03*
Y95341D02*
D03*
Y90223D02*
D03*
Y85105D02*
D03*
X478360Y172113D02*
D03*
Y166995D02*
D03*
Y161876D02*
D03*
Y156758D02*
D03*
Y151640D02*
D03*
Y146522D02*
D03*
Y141404D02*
D03*
Y136286D02*
D03*
Y131168D02*
D03*
Y126050D02*
D03*
Y120931D02*
D03*
Y115813D02*
D03*
Y110695D02*
D03*
Y105577D02*
D03*
Y100459D02*
D03*
Y95341D02*
D03*
Y90223D02*
D03*
Y85105D02*
D03*
X473241Y172113D02*
D03*
Y166995D02*
D03*
Y161876D02*
D03*
Y156758D02*
D03*
Y151640D02*
D03*
Y146522D02*
D03*
Y141404D02*
D03*
Y136286D02*
D03*
Y131168D02*
D03*
Y126050D02*
D03*
Y120931D02*
D03*
Y115813D02*
D03*
Y110695D02*
D03*
Y105577D02*
D03*
Y100459D02*
D03*
Y95341D02*
D03*
Y90223D02*
D03*
Y85105D02*
D03*
X468123Y172113D02*
D03*
Y166995D02*
D03*
Y161876D02*
D03*
Y156758D02*
D03*
Y151640D02*
D03*
Y146522D02*
D03*
Y141404D02*
D03*
Y136286D02*
D03*
Y131168D02*
D03*
Y126050D02*
D03*
Y120931D02*
D03*
Y115813D02*
D03*
Y110695D02*
D03*
Y105577D02*
D03*
Y100459D02*
D03*
Y95341D02*
D03*
Y90223D02*
D03*
Y85105D02*
D03*
X463005Y172113D02*
D03*
Y166995D02*
D03*
Y161876D02*
D03*
Y156758D02*
D03*
Y151640D02*
D03*
Y146522D02*
D03*
Y141404D02*
D03*
Y136286D02*
D03*
Y131168D02*
D03*
Y126050D02*
D03*
Y120931D02*
D03*
Y115813D02*
D03*
Y110695D02*
D03*
Y105577D02*
D03*
Y100459D02*
D03*
Y95341D02*
D03*
Y90223D02*
D03*
Y85105D02*
D03*
X457887Y172113D02*
D03*
Y166995D02*
D03*
Y161876D02*
D03*
Y156758D02*
D03*
Y151640D02*
D03*
Y146522D02*
D03*
Y141404D02*
D03*
Y136286D02*
D03*
Y131168D02*
D03*
Y126050D02*
D03*
Y120931D02*
D03*
Y115813D02*
D03*
Y110695D02*
D03*
Y105577D02*
D03*
Y100459D02*
D03*
Y95341D02*
D03*
X452769Y172113D02*
D03*
Y166995D02*
D03*
Y161876D02*
D03*
Y156758D02*
D03*
Y151640D02*
D03*
Y146522D02*
D03*
Y141404D02*
D03*
Y136286D02*
D03*
Y131168D02*
D03*
Y126050D02*
D03*
Y120931D02*
D03*
Y115813D02*
D03*
X447651Y172113D02*
D03*
Y166995D02*
D03*
Y161876D02*
D03*
Y156758D02*
D03*
Y151640D02*
D03*
Y146522D02*
D03*
Y141404D02*
D03*
Y136286D02*
D03*
X442533Y172113D02*
D03*
Y166995D02*
D03*
Y161876D02*
D03*
Y156758D02*
D03*
X513500Y181500D02*
D03*
X574254Y137254D02*
D03*
X584000Y117000D02*
D03*
X525000Y188000D02*
D03*
X644500Y494500D02*
D03*
X624500Y508000D02*
D03*
X544500Y282500D02*
D03*
X763179Y337878D02*
D03*
X404500Y541000D02*
D03*
X597000Y303500D02*
D03*
X979934Y417782D02*
D03*
Y407546D02*
D03*
X974816Y417782D02*
D03*
X969698D02*
D03*
X964580Y284711D02*
D03*
X959462Y325656D02*
D03*
Y320538D02*
D03*
Y289829D02*
D03*
X949226Y387073D02*
D03*
Y300065D02*
D03*
X944108Y381955D02*
D03*
Y305183D02*
D03*
X938989Y387073D02*
D03*
X933871Y361483D02*
D03*
Y335892D02*
D03*
Y315420D02*
D03*
X928753Y397309D02*
D03*
Y361483D02*
D03*
Y330774D02*
D03*
Y320538D02*
D03*
X923635Y325656D02*
D03*
X918517Y407546D02*
D03*
X908281Y417782D02*
D03*
X903163Y392191D02*
D03*
X898044Y284711D02*
D03*
X892926Y289829D02*
D03*
Y284711D02*
D03*
X882690Y407546D02*
D03*
Y320538D02*
D03*
Y310301D02*
D03*
Y305183D02*
D03*
Y300065D02*
D03*
Y294947D02*
D03*
Y289829D02*
D03*
Y284711D02*
D03*
X877572Y341010D02*
D03*
Y325656D02*
D03*
Y320538D02*
D03*
Y310301D02*
D03*
Y305183D02*
D03*
Y300065D02*
D03*
Y294947D02*
D03*
Y289829D02*
D03*
Y284711D02*
D03*
X872454Y407546D02*
D03*
Y346128D02*
D03*
Y330774D02*
D03*
Y325656D02*
D03*
Y320538D02*
D03*
Y310301D02*
D03*
Y305183D02*
D03*
Y300065D02*
D03*
Y294947D02*
D03*
Y289829D02*
D03*
Y284711D02*
D03*
X867336Y407546D02*
D03*
Y351246D02*
D03*
Y335892D02*
D03*
Y330774D02*
D03*
Y325656D02*
D03*
Y320538D02*
D03*
Y310301D02*
D03*
Y305183D02*
D03*
Y300065D02*
D03*
Y294947D02*
D03*
Y289829D02*
D03*
Y284711D02*
D03*
X862218Y407546D02*
D03*
Y356364D02*
D03*
Y341010D02*
D03*
Y335892D02*
D03*
Y330774D02*
D03*
Y325656D02*
D03*
Y315420D02*
D03*
Y310301D02*
D03*
Y305183D02*
D03*
Y300065D02*
D03*
Y294947D02*
D03*
Y289829D02*
D03*
Y284711D02*
D03*
Y520144D02*
D03*
Y509908D02*
D03*
Y499672D02*
D03*
Y489435D02*
D03*
Y484317D02*
D03*
Y479199D02*
D03*
Y474081D02*
D03*
X857100Y520144D02*
D03*
Y509908D02*
D03*
Y499672D02*
D03*
Y489435D02*
D03*
Y484317D02*
D03*
Y479199D02*
D03*
X851982Y509908D02*
D03*
Y499672D02*
D03*
Y489435D02*
D03*
Y484317D02*
D03*
X846863Y489435D02*
D03*
X752920Y498708D02*
D03*
X796500Y492500D02*
D03*
X916000Y353500D02*
D03*
X920500Y361408D02*
D03*
X739481Y510500D02*
D03*
X723000Y276500D02*
D03*
X757519Y260519D02*
D03*
X759852Y402640D02*
D03*
X862500Y153209D02*
D03*
X864000Y136500D02*
D03*
X859520Y158608D02*
D03*
X826420Y128508D02*
D03*
X784020Y88208D02*
D03*
X599000Y98000D02*
D03*
X607500Y106500D02*
D03*
X664520Y126108D02*
D03*
X833000Y163500D02*
D03*
X649568Y528187D02*
D03*
X626500D02*
D03*
X631462Y529987D02*
D03*
Y526825D02*
D03*
X640500Y528187D02*
D03*
X691929Y536721D02*
D03*
X689500Y527405D02*
D03*
X714261Y531759D02*
D03*
X721835Y533909D02*
D03*
X619220Y180508D02*
D03*
X617004Y159004D02*
D03*
X669000Y466500D02*
D03*
X636504Y519004D02*
D03*
X788500Y401089D02*
D03*
X651722Y96281D02*
D03*
X687992Y98081D02*
D03*
X649082Y101908D02*
D03*
X750500Y519500D02*
D03*
X825500Y533000D02*
D03*
X731500Y502000D02*
D03*
X727500Y511500D02*
D03*
X657220Y527408D02*
D03*
X644500Y527500D02*
D03*
X698588Y529508D02*
D03*
X721500Y513719D02*
D03*
X692000Y515519D02*
D03*
X672500Y512500D02*
D03*
X658000Y508000D02*
D03*
X750841Y504583D02*
D03*
X944500Y392000D02*
D03*
X809000Y238500D02*
D03*
X816500Y234000D02*
D03*
X785000Y245500D02*
D03*
X880000Y121500D02*
D03*
X717500Y98000D02*
D03*
X679000Y146500D02*
D03*
X664270Y132058D02*
D03*
X168500Y266000D02*
D03*
X147500Y238500D02*
D03*
X1039974Y347974D02*
D03*
X867500Y538750D02*
D03*
X107767Y310046D02*
D03*
X100092Y306115D02*
D03*
X93839Y302339D02*
D03*
X691929Y82929D02*
D03*
X692228Y87599D02*
D03*
X729331Y85827D02*
D03*
X890500Y500208D02*
D03*
X930500Y463608D02*
D03*
X933520Y325108D02*
D03*
X840299Y183201D02*
D03*
X757000Y177000D02*
D03*
X826000Y219500D02*
D03*
X791500Y458500D02*
D03*
X895500Y316000D02*
D03*
X791500Y445500D02*
D03*
X796500Y462500D02*
D03*
X982598Y246902D02*
D03*
X910500Y329214D02*
D03*
X811500Y425860D02*
D03*
X1014281Y353500D02*
D03*
X905500Y364028D02*
D03*
X951800Y194200D02*
D03*
X939174Y202362D02*
D03*
X748820Y168608D02*
D03*
X874420Y212608D02*
D03*
X820263Y409441D02*
D03*
X749220Y195008D02*
D03*
X1030500Y332500D02*
D03*
X945020Y187808D02*
D03*
X843720Y358608D02*
D03*
X875020Y369008D02*
D03*
X900500D02*
D03*
X808000Y515500D02*
D03*
X770320Y90908D02*
D03*
X904720Y259208D02*
D03*
X865420Y202508D02*
D03*
X888020Y419608D02*
D03*
X708510Y502510D02*
D03*
X618000Y191325D02*
D03*
X686000Y112000D02*
D03*
X676000Y382500D02*
D03*
X910500Y382908D02*
D03*
X971520Y250508D02*
D03*
X1057220Y198508D02*
D03*
X1048620Y189908D02*
D03*
X984000Y177500D02*
D03*
X930500Y500208D02*
D03*
X730220Y135908D02*
D03*
X723720Y129408D02*
D03*
X664820Y80808D02*
D03*
X644685D02*
D03*
X1054000Y266500D02*
D03*
X895500Y400208D02*
D03*
X879920Y401208D02*
D03*
X876320Y503108D02*
D03*
X740620Y541808D02*
D03*
X932500Y438491D02*
D03*
X695420Y163208D02*
D03*
X806520Y500208D02*
D03*
X735620Y550408D02*
D03*
X893420Y511908D02*
D03*
X915520Y385408D02*
D03*
X756820Y167908D02*
D03*
X813720Y500208D02*
D03*
X969520Y178208D02*
D03*
X1055705Y253295D02*
D03*
X605820Y221708D02*
D03*
Y417708D02*
D03*
X843720Y158108D02*
D03*
X747020Y257908D02*
D03*
X415020Y251508D02*
D03*
X451720Y214808D02*
D03*
X845500Y100500D02*
D03*
X643048Y83908D02*
D03*
X996000Y371500D02*
D03*
X937000D02*
D03*
X816500Y367000D02*
D03*
X100239Y323739D02*
D03*
X119222Y353691D02*
D03*
X89259Y298241D02*
D03*
X116511Y313989D02*
D03*
X104750Y333000D02*
D03*
X837469Y115469D02*
D03*
X787700Y392500D02*
D03*
X885620Y512508D02*
D03*
X629420Y557608D02*
D03*
X876320Y177008D02*
D03*
X940325Y188825D02*
D03*
X746000Y101000D02*
D03*
X857500Y146000D02*
D03*
X114701Y170799D02*
D03*
X837181Y121681D02*
D03*
X728568Y530000D02*
D03*
X138520Y115908D02*
D03*
X699320Y118508D02*
D03*
X997000Y186500D02*
D03*
X869920Y202108D02*
D03*
X625500Y62508D02*
D03*
X1036000Y252008D02*
D03*
X913000Y284500D02*
D03*
X957500Y329000D02*
D03*
X1029620Y252508D02*
D03*
X826000Y497250D02*
D03*
X729331Y79557D02*
D03*
X806500Y394500D02*
D03*
X815908Y412481D02*
D03*
X782504Y412996D02*
D03*
X1024500Y347500D02*
D03*
X835500Y396000D02*
D03*
Y473000D02*
D03*
X789000Y486000D02*
D03*
X829775Y395225D02*
D03*
X788903Y107798D02*
D03*
X731792D02*
D03*
X998500Y362500D02*
D03*
X925500Y367000D02*
D03*
D44*
X299543Y536181D02*
D03*
X283795D02*
D03*
X275921D02*
D03*
X268047D02*
D03*
X260173D02*
D03*
X252299D02*
D03*
X244425D02*
D03*
X236551D02*
D03*
M02*
