M48
;Layer_Color=9474304
;FILE_FORMAT=2:5
INCH,TZ
;TYPE=PLATED
T1F00S00C0.01181
T2F00S00C0.03543
T3F00S00C0.08661
T4F00S00C0.15748
%
T01
X138520Y115908
X114701Y170799
X442533Y172113
X447651
X452769
X457887
X463005
X468123
X473241
X478360
X483478
Y166995
Y161876
Y156758
Y151640
Y146522
Y141404
Y136286
Y131168
Y126050
Y120931
Y115813
Y110695
Y105577
Y100459
Y95341
Y90223
Y85105
X478360
Y90223
Y95341
Y100459
Y105577
Y110695
Y115813
Y120931
Y126050
Y131168
Y136286
Y141404
Y146522
Y151640
Y156758
Y161876
Y166995
X473241
Y161876
Y156758
Y151640
Y146522
Y141404
Y136286
Y131168
Y126050
Y120931
Y115813
Y110695
Y105577
Y100459
Y95341
Y90223
Y85105
X468123
Y90223
Y95341
Y100459
Y105577
Y110695
Y115813
Y120931
Y126050
Y131168
Y136286
Y141404
Y146522
Y151640
Y156758
Y161876
Y166995
X463005
Y161876
Y156758
Y151640
Y146522
Y141404
Y136286
Y131168
Y126050
Y120931
Y115813
Y110695
Y105577
Y100459
Y95341
Y90223
Y85105
X457887Y95341
Y100459
Y105577
Y110695
Y115813
Y120931
Y126050
Y131168
Y136286
Y141404
Y146522
Y151640
Y156758
Y161876
Y166995
X452769
Y161876
Y156758
Y151640
Y146522
Y141404
Y136286
Y131168
Y126050
Y120931
Y115813
X447651Y136286
Y141404
Y146522
Y151640
Y156758
Y161876
Y166995
X442533
Y161876
Y156758
X488596
X493714
X498832
X503950
X509068
X514186
Y151640
X519304
Y146522
Y141404
Y136286
Y131168
Y126050
Y120931
Y115813
Y110695
Y105577
Y100459
Y95341
Y90223
Y85105
Y79987
X514186
Y85105
Y90223
Y95341
Y100459
Y105577
Y110695
Y115813
Y120931
Y126050
Y131168
Y136286
Y141404
Y146522
X509068
Y151640
X503950
Y146522
Y141404
X509068
Y136286
Y131168
Y126050
Y120931
Y115813
Y110695
Y105577
Y100459
Y95341
Y90223
Y85105
Y79987
X503950
Y85105
Y90223
Y95341
Y100459
Y105577
Y110695
Y115813
Y120931
Y126050
Y131168
Y136286
X498832
Y141404
Y146522
Y151640
X493714
Y146522
Y141404
Y136286
Y131168
X498832
Y126050
Y120931
Y115813
Y110695
Y105577
Y100459
Y95341
Y90223
Y85105
X493714
Y90223
Y95341
Y100459
Y105577
Y110695
Y115813
Y120931
Y126050
X488596
Y131168
Y136286
Y141404
Y146522
Y151640
Y161876
X493714
X498832
X503950
X509068
Y166995
X503950
Y172113
X498832
Y166995
X493714
Y172113
X488596
Y166995
Y120931
Y115813
Y110695
Y105577
Y100459
Y95341
Y90223
Y85105
X599000Y98000
X607500Y106500
X606312Y110695
Y126050
Y131168
Y136286
Y141404
Y146522
Y151640
Y156758
Y161876
X601194
Y166995
X596076
Y172113
X590958
Y166995
Y161876
X596076
Y156758
X601194
Y151640
Y146522
Y141404
Y136286
X596076Y141404
Y146522
Y151640
X590958
Y156758
X585840
Y161876
Y166995
Y172113
X580722
Y166995
Y161876
Y156758
X585840Y151640
X590958Y146522
Y131168
Y126050
X596076
X585840Y131168
Y136286
X580722
Y141404
X574254Y137254
X584000Y117000
X626785Y110695
X631903
X637021
X642139
X637021Y105577
X631903
Y100459
X626785
Y105577
Y126050
X631903
X637021
X642139
X637021Y131168
X631903
Y136286
X626785
Y141404
Y131168
X617004Y159004
X616548Y166995
Y172113
X626785
X631903
X637021
X642139
X606312
X643048Y83908
X625500Y62508
X644685Y80808
X664820
X651722Y96281
X649082Y101908
X664520Y126108
X664270Y132058
X679000Y146500
X677966Y172113
X683084
X688202
X698438
X703556
X708674
X713793
X718911
X724029
X729147
X748820Y168608
X756820Y167908
X757000Y177000
X730220Y135908
X723720Y129408
X724029Y110695
X729147
X731792Y107798
X718911Y110695
X713793
X698438
X699320Y118508
X686000Y112000
X687992Y98081
X692228Y87599
X691929Y82929
X729331Y85827
Y79557
X717500Y98000
X746000Y101000
X754737Y110695
X759856
X764974
X770092
X775210
X780328
X790564
X788903Y107798
X795682Y110695
Y95341
Y90223
Y85105
Y79987
Y74869
X790564
Y79987
Y85105
Y90223
Y95341
X780328
X775210
X770092
X770320Y90908
X780328Y85105
X785446
X784020Y88208
X785446Y79987
X695420Y163208
X657493Y172113
X652375
X647257
X833000Y163500
X843720Y158108
X859520Y158608
X862500Y153209
X857500Y146000
X864000Y136500
X880000Y121500
X837181Y121681
X837469Y115469
X846863Y105577
X845500Y100500
X851982Y100459
X841745Y95341
X862218Y90223
X857100Y85105
X851982Y79987
X831509Y74869
X826391
Y79987
X821273
Y74869
X816155
Y79987
X811037
Y74869
X805919
Y79987
Y85105
X800800
Y90223
X811037
X816155
X821273
X805919Y95341
Y110695
X811037
X816155
X800800
Y79987
Y74869
X826420Y128508
X876320Y177008
X969520Y178208
X984000Y177500
X997000Y186500
X1048620Y189908
X1057220Y198508
X1055705Y253295
X1054000Y266500
X1036000Y252008
X1029620Y252508
X982598Y246902
X971520Y250508
X964580Y284711
X959462Y289829
Y320538
Y325656
X957500Y329000
X1030500Y332500
X928753Y330774
Y320538
X933520Y325108
X933871Y315420
X944108Y305183
X949226Y300065
X923635Y325656
X910500Y329214
X895500Y316000
X882690Y320538
X877572
Y325656
X872454
Y330774
X867336
Y325656
Y320538
X872454
Y310301
X877572
X882690
Y305183
Y300065
Y294947
Y289829
Y284711
X877572
Y289829
Y294947
Y300065
Y305183
X872454
Y300065
Y294947
Y289829
Y284711
X867336
Y289829
Y294947
Y300065
Y305183
Y310301
X862218
Y315420
Y325656
Y330774
Y305183
Y300065
Y294947
Y289829
Y284711
X892926
X898044
X892926Y289829
X913000Y284500
X904720Y259208
X874420Y212608
X869920Y202108
X865420Y202508
X840299Y183201
X826000Y219500
X816500Y234000
X809000Y238500
X939174Y202362
X940325Y188825
X945020Y187808
X951800Y194200
X749220Y195008
X747020Y257908
X757519Y260519
X785000Y245500
X723000Y276500
X597000Y303500
X544500Y282500
X525000Y188000
X513500Y181500
X619220Y180508
X618000Y191325
X605820Y221708
X451720Y214808
X415020Y251508
X168500Y266000
X147500Y238500
X116511Y313989
X107767Y310046
X100092Y306115
X93839Y302339
X89259Y298241
X100239Y323739
X104750Y333000
X119222Y353691
X391352Y428018
X396470
X401588
X406706
X411824
X416942
X422060
X427178
X432297
X437415
X442533
X447651
X452769
X457887
X463005
Y433136
Y438254
Y443372
Y448490
Y453609
X468123
X473241
X478360
X483478
X457887
Y448490
Y443372
Y438254
Y433136
X452769
Y438254
Y443372
Y448490
Y453609
X447651
Y448490
Y443372
Y438254
Y433136
X442533
Y438254
Y443372
Y448490
Y453609
X437415
Y448490
Y443372
Y438254
Y433136
X432297
Y438254
Y443372
Y448490
Y453609
X427178
Y448490
Y443372
Y438254
Y433136
X422060
Y438254
Y443372
Y448490
Y453609
X416942
Y448490
Y443372
Y438254
Y433136
X411824
Y438254
Y443372
Y448490
Y453609
X406706
Y448490
Y443372
Y438254
Y433136
X401588
Y438254
Y443372
Y448490
Y453609
X396470
Y448490
Y443372
Y438254
Y433136
X391352
Y438254
Y443372
Y448490
Y453609
X386233
Y448490
Y443372
Y438254
Y433136
X381115Y438254
Y443372
Y448490
Y453609
X375997
Y448490
Y443372
X370879Y448490
Y453609
X365761
X401588Y422900
X406706
X411824
X416942
X422060
X427178
X432297
X437415
X442533
X447651
X452769
X457887
X463005
X488596Y453609
X493714
X605820Y417708
X676000Y382500
X669000Y466500
X791500Y458500
X796500Y462500
X791500Y445500
X782504Y412996
X788500Y401089
X787700Y392500
X759852Y402640
X763179Y337878
X789000Y486000
X835500Y473000
X862218Y474081
Y479199
Y484317
Y489435
X857100
Y484317
Y479199
X851982Y484317
Y489435
X846863
X862218Y407546
X867336
X872454
X882690
X879920Y401208
X895500Y400208
X903163Y392191
X910500Y382908
X915520Y385408
X938989Y387073
X949226
X944500Y392000
X944108Y381955
X937000Y371500
X933871Y361483
X928753
X920500Y361408
X925500Y367000
X905500Y364028
X900500Y369008
X875020
X872454Y346128
X877572Y341010
X867336Y335892
X862218
Y341010
X867336Y351246
X862218Y356364
X843720Y358608
X816500Y367000
X806500Y394500
X829775Y395225
X835500Y396000
X820263Y409441
X815908Y412481
X811500Y425860
X888020Y419608
X908281Y417782
X918517Y407546
X928753Y397309
X932500Y438491
X930500Y463608
X916000Y353500
X933871Y335892
X998500Y362500
X996000Y371500
X1014281Y353500
X1024500Y347500
X1039974Y347974
X979934Y407546
Y417782
X974816
X969698
X930500Y500208
X890500
X893420Y511908
X885620Y512508
X876320Y503108
X862218Y499672
X857100
X851982
Y509908
X857100
X862218
Y520144
X857100
X867500Y538750
X825500Y533000
X808000Y515500
X806520Y500208
X813720
X826000Y497250
X796500Y492500
X752920Y498708
X750841Y504583
X750500Y519500
X739481Y510500
X727500Y511500
X721500Y513719
X721835Y533909
X714261Y531759
X728568Y530000
X740620Y541808
X735620Y550408
X731500Y502000
X708510Y502510
X692000Y515519
X689500Y527405
X698588Y529508
X691929Y536721
X672500Y512500
X658000Y508000
X657220Y527408
X649568Y528187
X644500Y527500
Y494500
X636504Y519004
X631462Y526825
Y529987
X626500Y528187
X640500
X624500Y508000
X629420Y557608
X404500Y541000
X343000Y549500
T02
X1112598Y211142
Y221142
X1122598
Y211142
X1102598
X1092598
X1082598
X1072598
X1062598
X1052598
X1042598
X1032598
X1022598
X1012598
X1002598
X992598
X982598
X972598
X962598
Y221142
X972598
X982598
X992598
X1002598
X1012598
X1022598
X1032598
X1042598
X1052598
X1062598
X1072598
X1082598
X1092598
X1102598
X1073898Y277992
X1063898
Y287992
X1073898
Y297992
X1063898
Y307992
X1073898
Y317992
X1063898
Y327992
X1073898
X952598Y221142
X942598
X932598
Y211142
X942598
X952598
X188071Y277992
X178071
Y287992
X188071
Y297992
X178071
Y307992
X188071
Y317992
X178071
Y327992
X188071
Y337992
X178071
Y347992
X188071
X1063898
Y337992
X1073898
Y347992
T03
X221000Y535000
X315095
T04
X479000Y435500
X526945Y435430
M30
