G04*
G04 #@! TF.GenerationSoftware,Altium Limited,Altium Designer,22.11.1 (43)*
G04*
G04 Layer_Color=65280*
%FSLAX25Y25*%
%MOIN*%
G70*
G04*
G04 #@! TF.SameCoordinates,D8721490-EFAD-4B60-BC7D-2FE2E35DC6D6*
G04*
G04*
G04 #@! TF.FilePolarity,Positive*
G04*
G01*
G75*
%ADD36C,0.00050*%
%ADD37C,0.00025*%
D36*
X507677Y64567D02*
G03*
X503351Y69087I0J4331D01*
G01*
X742323Y64567D02*
G03*
X737996Y69087I0J4331D01*
G01*
X64567Y192717D02*
G03*
X69087Y197043I4331J0D01*
G01*
X64567Y427362D02*
G03*
X69087Y431689I4331J0D01*
G01*
X1180914Y197043D02*
G03*
X1185433Y192717I189J-4327D01*
G01*
X1180914Y431689D02*
G03*
X1185433Y427362I189J-4327D01*
G01*
X503351Y550992D02*
G03*
X507677Y555512I4327J189D01*
G01*
X742323D02*
G03*
X746650Y550992I0J-4331D01*
G01*
X178036Y350748D02*
G03*
X177914Y350744I35J-2671D01*
G01*
X177914Y350744D02*
G03*
X177792Y350734I159J-2695D01*
G01*
X177792D02*
G03*
X177654Y350716I284J-2714D01*
G01*
D02*
G03*
X177500Y350687I426J-2725D01*
G01*
D02*
G03*
X176725Y350395I593J-2748D01*
G01*
Y350395D02*
G03*
X176547Y350287I1357J-2436D01*
G01*
Y350287D02*
G03*
X176420Y350198I1518J-2302D01*
G01*
D02*
G03*
X176324Y350124I1627J-2189D01*
G01*
X176324Y350124D02*
G03*
X176232Y350045I1704J-2092D01*
G01*
Y350045D02*
G03*
X176095Y349914I1769J-1984D01*
G01*
Y349914D02*
G03*
X176013Y349825I1916J-1861D01*
G01*
D02*
G03*
X175935Y349733I2021J-1793D01*
G01*
X175935D02*
G03*
X175851Y349624I2122J-1719D01*
G01*
Y349624D02*
G03*
X175763Y349496I2230J-1627D01*
G01*
X175763D02*
G03*
X175436Y348792I2359J-1525D01*
G01*
X175436Y348792D02*
G03*
X175379Y348574I2667J-816D01*
G01*
D02*
G03*
X175347Y348404I2695J-592D01*
G01*
X175347Y348404D02*
G03*
X175329Y348266I2698J-416D01*
G01*
Y348266D02*
G03*
X175319Y348127I2686J-276D01*
G01*
D02*
G03*
X175315Y348006I2668J-135D01*
G01*
D02*
G03*
X175523Y346942I2755J-13D01*
G01*
X175530Y346926D02*
G03*
X175579Y346815I2512J1055D01*
G01*
D02*
G03*
X175918Y346272I2507J1188D01*
G01*
X175918D02*
G03*
X176030Y346141I2154J1718D01*
G01*
X176030D02*
G03*
X176113Y346053I2020J1830D01*
G01*
X176137Y346029D02*
G03*
X176200Y345969I1841J1871D01*
G01*
X176200Y345969D02*
G03*
X176264Y345912I1799J1953D01*
G01*
X176264Y345912D02*
G03*
X176330Y345856I1754J2032D01*
G01*
Y345856D02*
G03*
X176412Y345793I1707J2111D01*
G01*
X176412D02*
G03*
X176496Y345732I1643J2199D01*
G01*
D02*
G03*
X176597Y345666I1576J2284D01*
G01*
X176597Y345666D02*
G03*
X177322Y345343I1505J2401D01*
G01*
X177322D02*
G03*
X177473Y345304I771J2695D01*
G01*
D02*
G03*
X177592Y345280I614J2705D01*
G01*
Y345280D02*
G03*
X177694Y345263I490J2701D01*
G01*
X177694D02*
G03*
X177797Y345251I384J2688D01*
G01*
Y345251D02*
G03*
X177883Y345243I277J2671D01*
G01*
Y345243D02*
G03*
X177969Y345238I189J2649D01*
G01*
X177969D02*
G03*
X178056Y345236I102J2624D01*
G01*
X178090Y345236D02*
G03*
X178940Y345377I-21J2767D01*
G01*
D02*
G03*
X179119Y345443I-862J2599D01*
G01*
Y345443D02*
G03*
X180615Y346932I-1048J2549D01*
G01*
X180621Y346948D02*
G03*
X180670Y347077I-2525J1034D01*
G01*
X180670D02*
G03*
X180803Y347632I-2616J918D01*
G01*
D02*
G03*
X180823Y347839I-2736J362D01*
G01*
X180823Y347839D02*
G03*
X180827Y347977I-2726J154D01*
G01*
X180827Y348011D02*
G03*
X180825Y348098I-2625J-19D01*
G01*
X180825D02*
G03*
X180820Y348184I-2653J-107D01*
G01*
D02*
G03*
X180812Y348270I-2678J-195D01*
G01*
Y348270D02*
G03*
X180799Y348373I-2700J-284D01*
G01*
D02*
G03*
X180783Y348475I-2717J-391D01*
G01*
X180783D02*
G03*
X180758Y348593I-2729J-499D01*
G01*
D02*
G03*
X180475Y349335I-2762J-632D01*
G01*
Y349335D02*
G03*
X180395Y349469I-2452J-1359D01*
G01*
D02*
G03*
X180329Y349570I-2348J-1477D01*
G01*
X180329Y349570D02*
G03*
X180268Y349654I-2258J-1562D01*
G01*
D02*
G03*
X180204Y349736I-2173J-1628D01*
G01*
D02*
G03*
X180149Y349802I-2086J-1691D01*
G01*
Y349802D02*
G03*
X180091Y349866I-2008J-1738D01*
G01*
X180091Y349866D02*
G03*
X180032Y349929I-1928J-1782D01*
G01*
X180020Y349941D02*
G03*
X179907Y350048I-1931J-1931D01*
G01*
X179907D02*
G03*
X179519Y350337I-1844J-2067D01*
G01*
X179519Y350337D02*
G03*
X179276Y350471I-1453J-2351D01*
G01*
Y350471D02*
G03*
X179134Y350535I-1197J-2457D01*
G01*
Y350535D02*
G03*
X178071Y350748I-1062J-2538D01*
G01*
X188071D02*
G03*
X187949Y350745I0J-2663D01*
G01*
D02*
G03*
X187827Y350737I124J-2689D01*
G01*
D02*
G03*
X187689Y350721I248J-2710D01*
G01*
X187689Y350721D02*
G03*
X187534Y350694I391J-2723D01*
G01*
X187534D02*
G03*
X186679Y350369I558J-2754D01*
G01*
Y350369D02*
G03*
X186519Y350268I1399J-2405D01*
G01*
Y350268D02*
G03*
X186406Y350187I1543J-2279D01*
G01*
D02*
G03*
X186311Y350113I1639J-2176D01*
G01*
Y350113D02*
G03*
X186220Y350034I1715J-2078D01*
G01*
D02*
G03*
X186107Y349926I1781J-1972D01*
G01*
D02*
G03*
X186036Y349851I1899J-1869D01*
G01*
D02*
G03*
X185957Y349760I1991J-1813D01*
G01*
D02*
G03*
X185871Y349651I2094J-1741D01*
G01*
D02*
G03*
X185782Y349524I2204J-1651D01*
G01*
X185782Y349524D02*
G03*
X185421Y348742I2340J-1553D01*
G01*
D02*
G03*
X185371Y348540I2677J-765D01*
G01*
X185371D02*
G03*
X185344Y348387I2698J-557D01*
G01*
X185344D02*
G03*
X185327Y348249I2697J-399D01*
G01*
D02*
G03*
X185318Y348110I2684J-258D01*
G01*
D02*
G03*
X185315Y347988I2665J-118D01*
G01*
D02*
G03*
X185523Y346942I2755J4D01*
G01*
X185530Y346926D02*
G03*
X185579Y346815I2512J1055D01*
G01*
D02*
G03*
X185928Y346259I2507J1188D01*
G01*
Y346259D02*
G03*
X186041Y346128I2141J1729D01*
G01*
D02*
G03*
X186125Y346041I2005J1840D01*
G01*
D02*
G03*
X186187Y345981I1849J1855D01*
G01*
X186187Y345981D02*
G03*
X186251Y345923I1808J1937D01*
G01*
X186251Y345923D02*
G03*
X186317Y345867I1764J2017D01*
G01*
D02*
G03*
X186398Y345803I1717J2096D01*
G01*
Y345803D02*
G03*
X186482Y345742I1654J2185D01*
G01*
D02*
G03*
X186583Y345675I1588J2270D01*
G01*
D02*
G03*
X187339Y345338I1519J2391D01*
G01*
X187339Y345338D02*
G03*
X187490Y345300I754J2697D01*
G01*
X187490Y345300D02*
G03*
X187609Y345277I596J2705D01*
G01*
X187609Y345277D02*
G03*
X187711Y345261I472J2699D01*
G01*
X187711D02*
G03*
X187814Y345249I366J2685D01*
G01*
D02*
G03*
X187900Y345242I260J2667D01*
G01*
D02*
G03*
X187987Y345238I172J2644D01*
G01*
D02*
G03*
X188073Y345236I85J2618D01*
G01*
X188090Y345236D02*
G03*
X188940Y345377I-21J2767D01*
G01*
D02*
G03*
X189119Y345443I-862J2599D01*
G01*
Y345443D02*
G03*
X190021Y346045I-1046J2546D01*
G01*
D02*
G03*
X190665Y347061I-1948J1946D01*
G01*
D02*
G03*
X190807Y347667I-2610J934D01*
G01*
D02*
G03*
X190823Y347856I-2737J327D01*
G01*
D02*
G03*
X190827Y347994I-2723J136D01*
G01*
D02*
G03*
X190825Y348080I-2619J-2D01*
G01*
D02*
G03*
X190821Y348167I-2648J-89D01*
G01*
D02*
G03*
X190814Y348253I-2673J-177D01*
G01*
X190814D02*
G03*
X190802Y348356I-2696J-266D01*
G01*
D02*
G03*
X190786Y348458I-2715J-374D01*
G01*
X190786D02*
G03*
X190762Y348577I-2728J-481D01*
G01*
X190762D02*
G03*
X190466Y349350I-2765J-615D01*
G01*
Y349350D02*
G03*
X190386Y349483I-2441J-1372D01*
G01*
Y349483D02*
G03*
X190319Y349584I-2335J-1490D01*
G01*
D02*
G03*
X190258Y349668I-2244J-1573D01*
G01*
D02*
G03*
X190193Y349749I-2158J-1638D01*
G01*
X190193D02*
G03*
X190138Y349815I-2070J-1700D01*
G01*
X190138D02*
G03*
X190080Y349879I-1992J-1747D01*
G01*
D02*
G03*
X190020Y349941I-1912J-1790D01*
G01*
D02*
G03*
X189907Y350048I-1931J-1931D01*
G01*
X189907D02*
G03*
X189519Y350337I-1844J-2067D01*
G01*
X189519Y350337D02*
G03*
X189276Y350471I-1453J-2351D01*
G01*
Y350471D02*
G03*
X189134Y350535I-1197J-2457D01*
G01*
Y350535D02*
G03*
X188071Y350748I-1062J-2538D01*
G01*
X1073898D02*
G03*
X1073793Y350746I0J-2668D01*
G01*
D02*
G03*
X1073654Y350737I106J-2692D01*
G01*
Y350737D02*
G03*
X1073516Y350721I248J-2712D01*
G01*
X1073516D02*
G03*
X1073345Y350691I390J-2725D01*
G01*
D02*
G03*
X1072537Y350387I574J-2748D01*
G01*
D02*
G03*
X1072361Y350278I1369J-2424D01*
G01*
D02*
G03*
X1072234Y350188I1530J-2290D01*
G01*
D02*
G03*
X1072126Y350103I1638J-2176D01*
G01*
D02*
G03*
X1072035Y350023I1727J-2068D01*
G01*
Y350023D02*
G03*
X1071935Y349927I1796J-1964D01*
G01*
Y349927D02*
G03*
X1071864Y349852I1898J-1870D01*
G01*
X1071864Y349852D02*
G03*
X1071785Y349761I1990J-1814D01*
G01*
D02*
G03*
X1071699Y349653I2093J-1743D01*
G01*
D02*
G03*
X1071609Y349526I2203J-1653D01*
G01*
X1071609D02*
G03*
X1071248Y348744I2339J-1555D01*
G01*
D02*
G03*
X1071198Y348542I2676J-766D01*
G01*
X1071198D02*
G03*
X1071171Y348388I2698J-558D01*
G01*
X1071171Y348388D02*
G03*
X1071154Y348250I2697J-400D01*
G01*
D02*
G03*
X1071144Y348111I2684J-259D01*
G01*
D02*
G03*
X1071142Y347990I2665J-119D01*
G01*
D02*
G03*
X1071350Y346943I2755J3D01*
G01*
X1071356Y346927D02*
G03*
X1071406Y346816I2512J1053D01*
G01*
D02*
G03*
X1071755Y346260I2508J1187D01*
G01*
D02*
G03*
X1071867Y346129I2141J1729D01*
G01*
Y346129D02*
G03*
X1071951Y346042I2006J1839D01*
G01*
D02*
G03*
X1072013Y345982I1850J1854D01*
G01*
Y345982D02*
G03*
X1072077Y345924I1809J1936D01*
G01*
D02*
G03*
X1072143Y345868I1764J2016D01*
G01*
D02*
G03*
X1072224Y345804I1718J2096D01*
G01*
D02*
G03*
X1072308Y345743I1655J2184D01*
G01*
Y345743D02*
G03*
X1072408Y345676I1588J2270D01*
G01*
Y345676D02*
G03*
X1073165Y345338I1520J2390D01*
G01*
X1073165D02*
G03*
X1073316Y345301I755J2696D01*
G01*
D02*
G03*
X1073435Y345277I597J2705D01*
G01*
X1073435D02*
G03*
X1073537Y345261I473J2699D01*
G01*
Y345261D02*
G03*
X1073640Y345249I367J2685D01*
G01*
D02*
G03*
X1073726Y345242I261J2667D01*
G01*
Y345242D02*
G03*
X1073812Y345238I173J2644D01*
G01*
D02*
G03*
X1073899Y345236I85J2618D01*
G01*
X1073916Y345236D02*
G03*
X1074766Y345377I-20J2767D01*
G01*
X1074766Y345377D02*
G03*
X1074945Y345443I-861J2599D01*
G01*
D02*
G03*
X1075847Y346045I-1045J2546D01*
G01*
Y346045D02*
G03*
X1076491Y347061I-1947J1946D01*
G01*
D02*
G03*
X1076634Y347666I-2610J935D01*
G01*
D02*
G03*
X1076650Y347856I-2737J328D01*
G01*
X1076650D02*
G03*
X1076654Y347994I-2723J137D01*
G01*
X1076654D02*
G03*
X1076652Y348080I-2619J-1D01*
G01*
D02*
G03*
X1076648Y348166I-2648J-89D01*
G01*
X1076648D02*
G03*
X1076641Y348252I-2673J-177D01*
G01*
Y348252D02*
G03*
X1076629Y348355I-2697J-266D01*
G01*
D02*
G03*
X1076613Y348458I-2715J-373D01*
G01*
D02*
G03*
X1076589Y348576I-2728J-481D01*
G01*
X1076589Y348576D02*
G03*
X1076293Y349350I-2765J-614D01*
G01*
X1076293Y349350D02*
G03*
X1076213Y349483I-2441J-1372D01*
G01*
Y349483D02*
G03*
X1076146Y349584I-2335J-1489D01*
G01*
D02*
G03*
X1076085Y349668I-2244J-1573D01*
G01*
X1076085D02*
G03*
X1076020Y349749I-2158J-1638D01*
G01*
X1076020D02*
G03*
X1075965Y349815I-2070J-1700D01*
G01*
X1075965Y349815D02*
G03*
X1075907Y349879I-1993J-1747D01*
G01*
D02*
G03*
X1075847Y349941I-1912J-1790D01*
G01*
D02*
G03*
X1075734Y350048I-1931J-1931D01*
G01*
D02*
G03*
X1075346Y350337I-1844J-2067D01*
G01*
D02*
G03*
X1075103Y350471I-1453J-2351D01*
G01*
D02*
G03*
X1074961Y350535I-1197J-2457D01*
G01*
D02*
G03*
X1073898Y350748I-1062J-2538D01*
G01*
X1063863Y350748D02*
G03*
X1063741Y350744I35J-2671D01*
G01*
X1063741Y350744D02*
G03*
X1063619Y350734I159J-2695D01*
G01*
X1063619D02*
G03*
X1063481Y350716I284J-2714D01*
G01*
D02*
G03*
X1063327Y350687I426J-2725D01*
G01*
D02*
G03*
X1062551Y350395I593J-2748D01*
G01*
Y350395D02*
G03*
X1062374Y350287I1357J-2436D01*
G01*
Y350287D02*
G03*
X1062247Y350198I1518J-2302D01*
G01*
D02*
G03*
X1062151Y350124I1627J-2189D01*
G01*
X1062151Y350124D02*
G03*
X1062059Y350045I1704J-2092D01*
G01*
X1062059Y350045D02*
G03*
X1061922Y349914I1769J-1984D01*
G01*
X1061922Y349914D02*
G03*
X1061840Y349825I1916J-1861D01*
G01*
D02*
G03*
X1061762Y349733I2021J-1793D01*
G01*
X1061762D02*
G03*
X1061677Y349624I2122J-1719D01*
G01*
Y349624D02*
G03*
X1061590Y349496I2230J-1627D01*
G01*
D02*
G03*
X1061263Y348792I2359J-1525D01*
G01*
X1061263Y348792D02*
G03*
X1061205Y348574I2667J-816D01*
G01*
D02*
G03*
X1061174Y348404I2695J-592D01*
G01*
Y348404D02*
G03*
X1061156Y348266I2698J-416D01*
G01*
Y348266D02*
G03*
X1061145Y348127I2686J-276D01*
G01*
D02*
G03*
X1061142Y348006I2668J-135D01*
G01*
D02*
G03*
X1061350Y346942I2755J-13D01*
G01*
X1061357Y346926D02*
G03*
X1061406Y346815I2512J1055D01*
G01*
D02*
G03*
X1061744Y346272I2507J1188D01*
G01*
X1061744D02*
G03*
X1061856Y346141I2154J1718D01*
G01*
X1061856D02*
G03*
X1061940Y346053I2020J1830D01*
G01*
X1061952Y346041D02*
G03*
X1062014Y345981I1849J1855D01*
G01*
X1062014Y345981D02*
G03*
X1062078Y345923I1808J1937D01*
G01*
X1062078Y345923D02*
G03*
X1062144Y345867I1764J2017D01*
G01*
D02*
G03*
X1062225Y345803I1717J2096D01*
G01*
Y345803D02*
G03*
X1062309Y345742I1654J2185D01*
G01*
D02*
G03*
X1062409Y345675I1588J2270D01*
G01*
D02*
G03*
X1063166Y345338I1519J2391D01*
G01*
X1063166Y345338D02*
G03*
X1063317Y345300I754J2697D01*
G01*
X1063317Y345300D02*
G03*
X1063435Y345277I596J2705D01*
G01*
X1063435Y345277D02*
G03*
X1063538Y345261I472J2699D01*
G01*
D02*
G03*
X1063641Y345249I366J2685D01*
G01*
X1063641D02*
G03*
X1063727Y345242I260J2667D01*
G01*
D02*
G03*
X1063813Y345238I172J2644D01*
G01*
X1063813D02*
G03*
X1063900Y345236I85J2618D01*
G01*
X1063917Y345236D02*
G03*
X1064767Y345377I-21J2767D01*
G01*
D02*
G03*
X1064946Y345443I-862J2599D01*
G01*
Y345443D02*
G03*
X1066441Y346932I-1048J2549D01*
G01*
X1066448Y346948D02*
G03*
X1066497Y347077I-2525J1034D01*
G01*
X1066497D02*
G03*
X1066630Y347632I-2616J918D01*
G01*
D02*
G03*
X1066649Y347839I-2736J362D01*
G01*
X1066649Y347839D02*
G03*
X1066654Y347977I-2726J154D01*
G01*
X1066654Y348011D02*
G03*
X1066652Y348098I-2625J-19D01*
G01*
X1066652D02*
G03*
X1066647Y348184I-2653J-107D01*
G01*
X1066647D02*
G03*
X1066639Y348270I-2678J-195D01*
G01*
Y348270D02*
G03*
X1066626Y348373I-2700J-284D01*
G01*
X1066626D02*
G03*
X1066609Y348475I-2717J-391D01*
G01*
X1066609D02*
G03*
X1066585Y348593I-2729J-499D01*
G01*
D02*
G03*
X1066301Y349335I-2762J-632D01*
G01*
Y349335D02*
G03*
X1066222Y349469I-2452J-1359D01*
G01*
D02*
G03*
X1066156Y349570I-2348J-1477D01*
G01*
Y349570D02*
G03*
X1066095Y349654I-2258J-1562D01*
G01*
X1066095D02*
G03*
X1066031Y349736I-2173J-1628D01*
G01*
D02*
G03*
X1065976Y349802I-2086J-1691D01*
G01*
Y349802D02*
G03*
X1065918Y349866I-2008J-1738D01*
G01*
X1065918Y349866D02*
G03*
X1065859Y349929I-1928J-1782D01*
G01*
X1065846Y349941D02*
G03*
X1065734Y350048I-1931J-1931D01*
G01*
X1065734D02*
G03*
X1065346Y350337I-1844J-2067D01*
G01*
X1065346Y350337D02*
G03*
X1065103Y350471I-1453J-2351D01*
G01*
Y350471D02*
G03*
X1064961Y350535I-1197J-2457D01*
G01*
Y350535D02*
G03*
X1063898Y350748I-1062J-2538D01*
G01*
X188071Y340748D02*
G03*
X187966Y340746I0J-2668D01*
G01*
D02*
G03*
X187827Y340737I106J-2692D01*
G01*
Y340737D02*
G03*
X187689Y340721I248J-2712D01*
G01*
X187689D02*
G03*
X187518Y340691I390J-2725D01*
G01*
D02*
G03*
X186710Y340387I574J-2748D01*
G01*
D02*
G03*
X186534Y340278I1369J-2424D01*
G01*
D02*
G03*
X186407Y340188I1530J-2290D01*
G01*
D02*
G03*
X186299Y340103I1638J-2176D01*
G01*
D02*
G03*
X186208Y340023I1727J-2068D01*
G01*
Y340023D02*
G03*
X186109Y339927I1796J-1964D01*
G01*
Y339927D02*
G03*
X186037Y339852I1898J-1870D01*
G01*
X186037Y339852D02*
G03*
X185958Y339761I1990J-1814D01*
G01*
D02*
G03*
X185872Y339653I2093J-1743D01*
G01*
D02*
G03*
X185783Y339526I2203J-1653D01*
G01*
X185783D02*
G03*
X185421Y338744I2339J-1555D01*
G01*
D02*
G03*
X185372Y338542I2676J-766D01*
G01*
D02*
G03*
X185344Y338388I2698J-558D01*
G01*
Y338388D02*
G03*
X185327Y338250I2697J-400D01*
G01*
D02*
G03*
X185318Y338111I2684J-259D01*
G01*
D02*
G03*
X185315Y337989I2665J-119D01*
G01*
D02*
G03*
X185523Y336943I2755J3D01*
G01*
X185529Y336927D02*
G03*
X185579Y336816I2512J1053D01*
G01*
D02*
G03*
X185928Y336260I2508J1187D01*
G01*
D02*
G03*
X186040Y336129I2141J1729D01*
G01*
Y336129D02*
G03*
X186124Y336042I2006J1839D01*
G01*
D02*
G03*
X186186Y335982I1850J1854D01*
G01*
Y335982D02*
G03*
X186250Y335924I1809J1936D01*
G01*
X186250D02*
G03*
X186316Y335868I1764J2016D01*
G01*
X186316D02*
G03*
X186397Y335804I1718J2096D01*
G01*
D02*
G03*
X186481Y335743I1655J2184D01*
G01*
Y335743D02*
G03*
X186582Y335676I1588J2270D01*
G01*
Y335676D02*
G03*
X187338Y335338I1520J2390D01*
G01*
X187338D02*
G03*
X187489Y335301I755J2696D01*
G01*
D02*
G03*
X187608Y335277I597J2705D01*
G01*
D02*
G03*
X187710Y335261I473J2699D01*
G01*
X187710Y335261D02*
G03*
X187813Y335249I367J2685D01*
G01*
D02*
G03*
X187899Y335242I261J2667D01*
G01*
Y335242D02*
G03*
X187986Y335238I173J2644D01*
G01*
D02*
G03*
X188072Y335236I85J2618D01*
G01*
X188089Y335236D02*
G03*
X188939Y335377I-20J2767D01*
G01*
Y335377D02*
G03*
X189118Y335443I-861J2599D01*
G01*
X189118D02*
G03*
X190021Y336045I-1045J2546D01*
G01*
Y336045D02*
G03*
X190665Y337061I-1947J1946D01*
G01*
X190665D02*
G03*
X190807Y337666I-2610J935D01*
G01*
X190807D02*
G03*
X190823Y337856I-2737J328D01*
G01*
D02*
G03*
X190827Y337994I-2723J137D01*
G01*
D02*
G03*
X190825Y338080I-2619J-1D01*
G01*
D02*
G03*
X190821Y338166I-2648J-89D01*
G01*
X190821D02*
G03*
X190814Y338252I-2673J-177D01*
G01*
Y338252D02*
G03*
X190802Y338355I-2697J-266D01*
G01*
D02*
G03*
X190786Y338458I-2715J-373D01*
G01*
X190786D02*
G03*
X190762Y338576I-2728J-481D01*
G01*
X190762Y338576D02*
G03*
X190466Y339350I-2765J-614D01*
G01*
X190466Y339350D02*
G03*
X190386Y339483I-2441J-1372D01*
G01*
Y339483D02*
G03*
X190319Y339584I-2335J-1489D01*
G01*
D02*
G03*
X190258Y339668I-2244J-1573D01*
G01*
D02*
G03*
X190194Y339749I-2158J-1638D01*
G01*
D02*
G03*
X190138Y339815I-2070J-1700D01*
G01*
X190138Y339815D02*
G03*
X190080Y339879I-1993J-1747D01*
G01*
D02*
G03*
X190020Y339941I-1912J-1790D01*
G01*
D02*
G03*
X189907Y340048I-1931J-1931D01*
G01*
D02*
G03*
X189519Y340337I-1844J-2067D01*
G01*
D02*
G03*
X189276Y340471I-1453J-2351D01*
G01*
D02*
G03*
X189134Y340535I-1197J-2457D01*
G01*
D02*
G03*
X188071Y340748I-1062J-2538D01*
G01*
X1073898D02*
G03*
X1073793Y340746I0J-2668D01*
G01*
D02*
G03*
X1073654Y340737I106J-2692D01*
G01*
Y340737D02*
G03*
X1073516Y340721I248J-2712D01*
G01*
X1073516D02*
G03*
X1073345Y340691I390J-2725D01*
G01*
D02*
G03*
X1072537Y340387I574J-2748D01*
G01*
D02*
G03*
X1072361Y340278I1369J-2424D01*
G01*
D02*
G03*
X1072234Y340188I1530J-2290D01*
G01*
D02*
G03*
X1072126Y340103I1638J-2176D01*
G01*
D02*
G03*
X1072035Y340023I1727J-2068D01*
G01*
Y340023D02*
G03*
X1071935Y339927I1796J-1964D01*
G01*
Y339927D02*
G03*
X1071864Y339852I1898J-1870D01*
G01*
X1071864Y339852D02*
G03*
X1071785Y339761I1990J-1814D01*
G01*
D02*
G03*
X1071699Y339653I2093J-1743D01*
G01*
D02*
G03*
X1071609Y339526I2203J-1653D01*
G01*
X1071609D02*
G03*
X1071248Y338744I2339J-1555D01*
G01*
D02*
G03*
X1071198Y338542I2676J-766D01*
G01*
X1071198D02*
G03*
X1071171Y338388I2698J-558D01*
G01*
X1071171Y338388D02*
G03*
X1071154Y338250I2697J-400D01*
G01*
D02*
G03*
X1071144Y338111I2684J-259D01*
G01*
D02*
G03*
X1071142Y337989I2665J-119D01*
G01*
D02*
G03*
X1071350Y336943I2755J3D01*
G01*
X1071356Y336927D02*
G03*
X1071406Y336816I2512J1053D01*
G01*
D02*
G03*
X1071755Y336260I2508J1187D01*
G01*
D02*
G03*
X1071867Y336129I2141J1729D01*
G01*
Y336129D02*
G03*
X1071951Y336042I2006J1839D01*
G01*
D02*
G03*
X1072013Y335982I1850J1854D01*
G01*
Y335982D02*
G03*
X1072077Y335924I1809J1936D01*
G01*
D02*
G03*
X1072143Y335868I1764J2016D01*
G01*
D02*
G03*
X1072224Y335804I1718J2096D01*
G01*
D02*
G03*
X1072308Y335743I1655J2184D01*
G01*
Y335743D02*
G03*
X1072408Y335676I1588J2270D01*
G01*
Y335676D02*
G03*
X1073165Y335338I1520J2390D01*
G01*
X1073165D02*
G03*
X1073316Y335301I755J2696D01*
G01*
D02*
G03*
X1073435Y335277I597J2705D01*
G01*
X1073435D02*
G03*
X1073537Y335261I473J2699D01*
G01*
Y335261D02*
G03*
X1073640Y335249I367J2685D01*
G01*
D02*
G03*
X1073726Y335242I261J2667D01*
G01*
Y335242D02*
G03*
X1073812Y335238I173J2644D01*
G01*
D02*
G03*
X1073899Y335236I85J2618D01*
G01*
X1073916Y335236D02*
G03*
X1074766Y335377I-20J2767D01*
G01*
X1074766Y335377D02*
G03*
X1074945Y335443I-861J2599D01*
G01*
D02*
G03*
X1075847Y336045I-1045J2546D01*
G01*
Y336045D02*
G03*
X1076491Y337061I-1947J1946D01*
G01*
D02*
G03*
X1076634Y337666I-2610J935D01*
G01*
D02*
G03*
X1076650Y337856I-2737J328D01*
G01*
X1076650D02*
G03*
X1076654Y337994I-2723J137D01*
G01*
X1076654D02*
G03*
X1076652Y338080I-2619J-1D01*
G01*
D02*
G03*
X1076648Y338166I-2648J-89D01*
G01*
X1076648D02*
G03*
X1076641Y338252I-2673J-177D01*
G01*
Y338252D02*
G03*
X1076629Y338355I-2697J-266D01*
G01*
D02*
G03*
X1076613Y338458I-2715J-373D01*
G01*
D02*
G03*
X1076589Y338576I-2728J-481D01*
G01*
X1076589Y338576D02*
G03*
X1076293Y339350I-2765J-614D01*
G01*
X1076293Y339350D02*
G03*
X1076213Y339483I-2441J-1372D01*
G01*
Y339483D02*
G03*
X1076146Y339584I-2335J-1489D01*
G01*
D02*
G03*
X1076085Y339668I-2244J-1573D01*
G01*
X1076085D02*
G03*
X1076020Y339749I-2158J-1638D01*
G01*
X1076020D02*
G03*
X1075965Y339815I-2070J-1700D01*
G01*
X1075965Y339815D02*
G03*
X1075907Y339879I-1993J-1747D01*
G01*
D02*
G03*
X1075847Y339941I-1912J-1790D01*
G01*
D02*
G03*
X1075734Y340048I-1931J-1931D01*
G01*
D02*
G03*
X1075346Y340337I-1844J-2067D01*
G01*
D02*
G03*
X1075103Y340471I-1453J-2351D01*
G01*
D02*
G03*
X1074961Y340535I-1197J-2457D01*
G01*
D02*
G03*
X1073898Y340748I-1062J-2538D01*
G01*
X1063898D02*
G03*
X1063776Y340745I0J-2670D01*
G01*
Y340745D02*
G03*
X1063636Y340735I124J-2695D01*
G01*
X1063636Y340735D02*
G03*
X1063498Y340718I265J-2714D01*
G01*
D02*
G03*
X1063328Y340687I408J-2726D01*
G01*
X1063328Y340687D02*
G03*
X1062567Y340404I591J-2744D01*
G01*
X1062567D02*
G03*
X1062375Y340288I1341J-2444D01*
G01*
X1062375D02*
G03*
X1062248Y340199I1517J-2303D01*
G01*
D02*
G03*
X1062139Y340114I1627J-2190D01*
G01*
X1062139D02*
G03*
X1062047Y340035I1717J-2082D01*
G01*
Y340035D02*
G03*
X1061923Y339915I1784J-1976D01*
G01*
X1061923D02*
G03*
X1061841Y339826I1915J-1863D01*
G01*
X1061841D02*
G03*
X1061763Y339734I2020J-1794D01*
G01*
D02*
G03*
X1061678Y339625I2121J-1721D01*
G01*
D02*
G03*
X1061590Y339497I2229J-1629D01*
G01*
D02*
G03*
X1061263Y338794I2358J-1526D01*
G01*
D02*
G03*
X1061206Y338576I2667J-817D01*
G01*
X1061206Y338576D02*
G03*
X1061174Y338405I2695J-593D01*
G01*
X1061174D02*
G03*
X1061156Y338267I2698J-418D01*
G01*
D02*
G03*
X1061145Y338129I2686J-277D01*
G01*
D02*
G03*
X1061142Y338007I2668J-137D01*
G01*
D02*
G03*
X1061349Y336943I2755J-15D01*
G01*
X1061356Y336927D02*
G03*
X1061405Y336816I2512J1053D01*
G01*
D02*
G03*
X1061744Y336273I2508J1187D01*
G01*
D02*
G03*
X1061856Y336142I2154J1717D01*
G01*
X1061856Y336142D02*
G03*
X1061939Y336054I2021J1829D01*
G01*
X1061963Y336030D02*
G03*
X1062026Y335970I1842J1870D01*
G01*
D02*
G03*
X1062090Y335913I1800J1952D01*
G01*
X1062090D02*
G03*
X1062156Y335857I1755J2032D01*
G01*
Y335857D02*
G03*
X1062238Y335794I1708J2111D01*
G01*
X1062238Y335794D02*
G03*
X1062322Y335733I1644J2199D01*
G01*
D02*
G03*
X1062423Y335666I1576J2283D01*
G01*
X1062423D02*
G03*
X1063148Y335343I1505J2400D01*
G01*
D02*
G03*
X1063299Y335304I772J2695D01*
G01*
X1063299Y335304D02*
G03*
X1063418Y335280I615J2705D01*
G01*
X1063418Y335280D02*
G03*
X1063520Y335263I491J2701D01*
G01*
Y335263D02*
G03*
X1063623Y335251I384J2688D01*
G01*
Y335251D02*
G03*
X1063709Y335243I278J2670D01*
G01*
Y335243D02*
G03*
X1063795Y335238I190J2649D01*
G01*
D02*
G03*
X1063881Y335236I103J2624D01*
G01*
X1063916D02*
G03*
X1064766Y335377I-20J2767D01*
G01*
X1064766Y335377D02*
G03*
X1064945Y335443I-861J2599D01*
G01*
Y335443D02*
G03*
X1066441Y336931I-1047J2549D01*
G01*
X1066448Y336947D02*
G03*
X1066497Y337077I-2525J1034D01*
G01*
D02*
G03*
X1066630Y337632I-2616J919D01*
G01*
X1066630D02*
G03*
X1066649Y337838I-2736J362D01*
G01*
D02*
G03*
X1066654Y337977I-2726J154D01*
G01*
X1066654Y338011D02*
G03*
X1066652Y338097I-2625J-19D01*
G01*
X1066652Y338097D02*
G03*
X1066647Y338183I-2653J-106D01*
G01*
X1066647D02*
G03*
X1066639Y338269I-2678J-195D01*
G01*
D02*
G03*
X1066626Y338372I-2700J-284D01*
G01*
X1066626D02*
G03*
X1066609Y338475I-2717J-391D01*
G01*
D02*
G03*
X1066585Y338593I-2729J-499D01*
G01*
D02*
G03*
X1066302Y339335I-2762J-632D01*
G01*
Y339335D02*
G03*
X1066222Y339469I-2452J-1359D01*
G01*
D02*
G03*
X1066156Y339570I-2348J-1477D01*
G01*
Y339570D02*
G03*
X1066095Y339654I-2258J-1562D01*
G01*
X1066095D02*
G03*
X1066031Y339736I-2173J-1628D01*
G01*
Y339736D02*
G03*
X1065976Y339802I-2086J-1691D01*
G01*
X1065976D02*
G03*
X1065918Y339866I-2008J-1738D01*
G01*
Y339866D02*
G03*
X1065859Y339929I-1929J-1781D01*
G01*
X1065847Y339941D02*
G03*
X1065734Y340048I-1931J-1931D01*
G01*
D02*
G03*
X1065346Y340337I-1844J-2067D01*
G01*
D02*
G03*
X1065103Y340471I-1453J-2351D01*
G01*
D02*
G03*
X1064961Y340535I-1197J-2457D01*
G01*
D02*
G03*
X1063898Y340748I-1062J-2538D01*
G01*
X178036Y340748D02*
G03*
X177914Y340744I35J-2671D01*
G01*
X177914Y340744D02*
G03*
X177792Y340734I159J-2695D01*
G01*
X177792D02*
G03*
X177654Y340716I284J-2714D01*
G01*
D02*
G03*
X177500Y340687I426J-2725D01*
G01*
D02*
G03*
X176725Y340395I593J-2748D01*
G01*
Y340395D02*
G03*
X176547Y340287I1357J-2436D01*
G01*
Y340287D02*
G03*
X176420Y340198I1518J-2302D01*
G01*
D02*
G03*
X176324Y340124I1627J-2189D01*
G01*
X176324Y340124D02*
G03*
X176232Y340045I1704J-2092D01*
G01*
Y340045D02*
G03*
X176095Y339914I1769J-1984D01*
G01*
Y339914D02*
G03*
X176013Y339825I1916J-1861D01*
G01*
D02*
G03*
X175935Y339733I2021J-1793D01*
G01*
X175935D02*
G03*
X175851Y339624I2122J-1719D01*
G01*
Y339624D02*
G03*
X175763Y339496I2230J-1627D01*
G01*
X175763D02*
G03*
X175436Y338792I2359J-1525D01*
G01*
X175436Y338792D02*
G03*
X175379Y338574I2667J-816D01*
G01*
D02*
G03*
X175347Y338404I2695J-592D01*
G01*
X175347Y338404D02*
G03*
X175329Y338266I2698J-416D01*
G01*
Y338266D02*
G03*
X175319Y338127I2686J-276D01*
G01*
D02*
G03*
X175315Y338005I2668J-135D01*
G01*
D02*
G03*
X175523Y336942I2755J-13D01*
G01*
X175530Y336926D02*
G03*
X175579Y336815I2512J1055D01*
G01*
D02*
G03*
X175918Y336273I2507J1188D01*
G01*
X175918D02*
G03*
X176030Y336141I2154J1718D01*
G01*
X176030D02*
G03*
X176113Y336053I2020J1830D01*
G01*
X176137Y336029D02*
G03*
X176200Y335969I1841J1871D01*
G01*
X176200Y335969D02*
G03*
X176264Y335912I1799J1953D01*
G01*
X176264Y335912D02*
G03*
X176330Y335857I1754J2032D01*
G01*
Y335857D02*
G03*
X176412Y335793I1707J2111D01*
G01*
X176412D02*
G03*
X176496Y335733I1643J2199D01*
G01*
D02*
G03*
X176597Y335666I1576J2284D01*
G01*
X176597Y335666D02*
G03*
X177322Y335343I1505J2401D01*
G01*
X177322D02*
G03*
X177473Y335304I771J2695D01*
G01*
D02*
G03*
X177592Y335280I614J2705D01*
G01*
Y335280D02*
G03*
X177694Y335263I490J2701D01*
G01*
X177694D02*
G03*
X177797Y335251I384J2688D01*
G01*
Y335251D02*
G03*
X177883Y335243I277J2671D01*
G01*
Y335243D02*
G03*
X177969Y335238I189J2649D01*
G01*
X177969D02*
G03*
X178056Y335236I102J2624D01*
G01*
X178090Y335236D02*
G03*
X178940Y335377I-21J2767D01*
G01*
D02*
G03*
X179119Y335443I-862J2599D01*
G01*
Y335443D02*
G03*
X180615Y336932I-1048J2549D01*
G01*
X180621Y336948D02*
G03*
X180670Y337077I-2525J1034D01*
G01*
X180670D02*
G03*
X180803Y337632I-2616J918D01*
G01*
D02*
G03*
X180823Y337839I-2736J362D01*
G01*
X180823Y337839D02*
G03*
X180827Y337977I-2726J154D01*
G01*
X180827Y338012D02*
G03*
X180825Y338098I-2625J-19D01*
G01*
X180825D02*
G03*
X180820Y338184I-2653J-107D01*
G01*
D02*
G03*
X180812Y338270I-2678J-195D01*
G01*
Y338270D02*
G03*
X180799Y338373I-2700J-284D01*
G01*
D02*
G03*
X180783Y338475I-2717J-391D01*
G01*
X180783D02*
G03*
X180758Y338594I-2729J-499D01*
G01*
D02*
G03*
X180475Y339335I-2762J-632D01*
G01*
Y339335D02*
G03*
X180395Y339469I-2452J-1359D01*
G01*
D02*
G03*
X180329Y339570I-2348J-1477D01*
G01*
X180329Y339570D02*
G03*
X180268Y339654I-2258J-1562D01*
G01*
D02*
G03*
X180204Y339736I-2173J-1628D01*
G01*
D02*
G03*
X180149Y339802I-2086J-1691D01*
G01*
Y339802D02*
G03*
X180091Y339866I-2008J-1738D01*
G01*
X180091Y339866D02*
G03*
X180032Y339929I-1928J-1782D01*
G01*
X180020Y339941D02*
G03*
X179907Y340048I-1931J-1931D01*
G01*
X179907D02*
G03*
X179519Y340337I-1844J-2067D01*
G01*
X179519Y340337D02*
G03*
X179276Y340471I-1453J-2351D01*
G01*
Y340471D02*
G03*
X179134Y340535I-1197J-2457D01*
G01*
Y340535D02*
G03*
X178071Y340748I-1062J-2538D01*
G01*
X1073898Y330748D02*
G03*
X1073793Y330746I0J-2668D01*
G01*
D02*
G03*
X1073654Y330737I106J-2692D01*
G01*
Y330737D02*
G03*
X1073516Y330721I248J-2712D01*
G01*
X1073516D02*
G03*
X1073345Y330691I390J-2725D01*
G01*
D02*
G03*
X1072537Y330387I574J-2748D01*
G01*
D02*
G03*
X1072361Y330278I1369J-2424D01*
G01*
D02*
G03*
X1072234Y330188I1530J-2290D01*
G01*
D02*
G03*
X1072126Y330103I1638J-2176D01*
G01*
D02*
G03*
X1072035Y330023I1727J-2068D01*
G01*
Y330023D02*
G03*
X1071935Y329927I1796J-1964D01*
G01*
Y329927D02*
G03*
X1071864Y329852I1898J-1870D01*
G01*
X1071864Y329852D02*
G03*
X1071785Y329761I1990J-1814D01*
G01*
D02*
G03*
X1071699Y329653I2093J-1743D01*
G01*
D02*
G03*
X1071609Y329526I2203J-1653D01*
G01*
X1071609D02*
G03*
X1071248Y328744I2339J-1555D01*
G01*
D02*
G03*
X1071198Y328542I2676J-766D01*
G01*
X1071198D02*
G03*
X1071171Y328388I2698J-558D01*
G01*
X1071171Y328388D02*
G03*
X1071154Y328250I2697J-400D01*
G01*
D02*
G03*
X1071144Y328111I2684J-259D01*
G01*
D02*
G03*
X1071142Y327990I2665J-119D01*
G01*
D02*
G03*
X1071350Y326943I2755J3D01*
G01*
X1071356Y326927D02*
G03*
X1071406Y326816I2512J1053D01*
G01*
D02*
G03*
X1071755Y326260I2508J1187D01*
G01*
D02*
G03*
X1071867Y326129I2141J1729D01*
G01*
Y326129D02*
G03*
X1071951Y326042I2006J1839D01*
G01*
D02*
G03*
X1072013Y325982I1850J1854D01*
G01*
Y325982D02*
G03*
X1072077Y325924I1809J1936D01*
G01*
D02*
G03*
X1072143Y325868I1764J2016D01*
G01*
D02*
G03*
X1072224Y325804I1718J2096D01*
G01*
D02*
G03*
X1072308Y325743I1655J2184D01*
G01*
Y325743D02*
G03*
X1072408Y325676I1588J2270D01*
G01*
Y325676D02*
G03*
X1073165Y325338I1520J2390D01*
G01*
X1073165D02*
G03*
X1073316Y325301I755J2696D01*
G01*
D02*
G03*
X1073435Y325277I597J2705D01*
G01*
X1073435D02*
G03*
X1073537Y325261I473J2699D01*
G01*
Y325261D02*
G03*
X1073640Y325249I367J2685D01*
G01*
D02*
G03*
X1073726Y325242I261J2667D01*
G01*
Y325242D02*
G03*
X1073812Y325238I173J2644D01*
G01*
D02*
G03*
X1073899Y325236I85J2618D01*
G01*
X1073916Y325236D02*
G03*
X1074766Y325377I-20J2767D01*
G01*
X1074766Y325377D02*
G03*
X1074945Y325443I-861J2599D01*
G01*
D02*
G03*
X1075847Y326045I-1045J2546D01*
G01*
Y326045D02*
G03*
X1076491Y327061I-1947J1946D01*
G01*
D02*
G03*
X1076634Y327666I-2610J935D01*
G01*
D02*
G03*
X1076650Y327856I-2737J328D01*
G01*
X1076650D02*
G03*
X1076654Y327994I-2723J137D01*
G01*
X1076653Y328011D02*
G03*
X1076651Y328097I-2625J-19D01*
G01*
X1076651Y328097D02*
G03*
X1076647Y328183I-2653J-106D01*
G01*
X1076647D02*
G03*
X1076639Y328269I-2678J-195D01*
G01*
D02*
G03*
X1076626Y328372I-2700J-284D01*
G01*
X1076626D02*
G03*
X1076610Y328475I-2717J-391D01*
G01*
D02*
G03*
X1076585Y328593I-2729J-499D01*
G01*
D02*
G03*
X1076301Y329335I-2762J-632D01*
G01*
Y329335D02*
G03*
X1076222Y329469I-2452J-1359D01*
G01*
D02*
G03*
X1076156Y329570I-2348J-1477D01*
G01*
Y329570D02*
G03*
X1076095Y329654I-2258J-1562D01*
G01*
X1076095D02*
G03*
X1076031Y329736I-2173J-1628D01*
G01*
Y329736D02*
G03*
X1075976Y329802I-2086J-1691D01*
G01*
X1075976D02*
G03*
X1075918Y329866I-2008J-1738D01*
G01*
Y329866D02*
G03*
X1075859Y329929I-1929J-1781D01*
G01*
X1075847Y329941D02*
G03*
X1075734Y330048I-1931J-1931D01*
G01*
D02*
G03*
X1075346Y330337I-1844J-2067D01*
G01*
D02*
G03*
X1075103Y330471I-1453J-2351D01*
G01*
D02*
G03*
X1074961Y330535I-1197J-2457D01*
G01*
D02*
G03*
X1073898Y330748I-1062J-2538D01*
G01*
X1063898D02*
G03*
X1063776Y330745I0J-2670D01*
G01*
Y330745D02*
G03*
X1063636Y330735I124J-2695D01*
G01*
X1063636Y330735D02*
G03*
X1063498Y330718I265J-2714D01*
G01*
D02*
G03*
X1063328Y330687I408J-2726D01*
G01*
X1063328Y330687D02*
G03*
X1062567Y330404I591J-2744D01*
G01*
X1062567D02*
G03*
X1062375Y330288I1341J-2444D01*
G01*
X1062375D02*
G03*
X1062248Y330199I1517J-2303D01*
G01*
D02*
G03*
X1062139Y330114I1627J-2190D01*
G01*
X1062139D02*
G03*
X1062047Y330035I1717J-2082D01*
G01*
Y330035D02*
G03*
X1061923Y329915I1784J-1976D01*
G01*
X1061923D02*
G03*
X1061841Y329826I1915J-1863D01*
G01*
X1061841D02*
G03*
X1061763Y329734I2020J-1794D01*
G01*
D02*
G03*
X1061678Y329625I2121J-1721D01*
G01*
D02*
G03*
X1061590Y329497I2229J-1629D01*
G01*
D02*
G03*
X1061263Y328794I2358J-1526D01*
G01*
D02*
G03*
X1061206Y328576I2667J-817D01*
G01*
X1061206Y328576D02*
G03*
X1061174Y328405I2695J-593D01*
G01*
X1061174D02*
G03*
X1061156Y328268I2698J-418D01*
G01*
D02*
G03*
X1061145Y328129I2686J-277D01*
G01*
D02*
G03*
X1061142Y328007I2668J-137D01*
G01*
D02*
G03*
X1061349Y326943I2755J-15D01*
G01*
X1061356Y326927D02*
G03*
X1061405Y326816I2512J1053D01*
G01*
D02*
G03*
X1061744Y326273I2508J1187D01*
G01*
D02*
G03*
X1061856Y326142I2154J1717D01*
G01*
X1061856Y326142D02*
G03*
X1061939Y326054I2021J1829D01*
G01*
X1061963Y326029D02*
G03*
X1062026Y325970I1842J1870D01*
G01*
D02*
G03*
X1062090Y325913I1800J1952D01*
G01*
X1062090D02*
G03*
X1062156Y325857I1755J2032D01*
G01*
Y325857D02*
G03*
X1062238Y325794I1708J2111D01*
G01*
X1062238Y325794D02*
G03*
X1062322Y325733I1644J2199D01*
G01*
D02*
G03*
X1062423Y325666I1576J2283D01*
G01*
X1062423D02*
G03*
X1063148Y325343I1505J2400D01*
G01*
D02*
G03*
X1063299Y325304I772J2695D01*
G01*
X1063299Y325304D02*
G03*
X1063418Y325280I615J2705D01*
G01*
X1063418Y325280D02*
G03*
X1063520Y325264I491J2701D01*
G01*
Y325264D02*
G03*
X1063623Y325251I384J2688D01*
G01*
Y325251D02*
G03*
X1063709Y325243I278J2670D01*
G01*
Y325243D02*
G03*
X1063795Y325238I190J2649D01*
G01*
D02*
G03*
X1063881Y325236I103J2624D01*
G01*
X1063916D02*
G03*
X1064766Y325377I-20J2767D01*
G01*
X1064766Y325377D02*
G03*
X1064945Y325443I-861J2599D01*
G01*
Y325443D02*
G03*
X1066441Y326931I-1047J2549D01*
G01*
X1066448Y326947D02*
G03*
X1066497Y327077I-2525J1034D01*
G01*
D02*
G03*
X1066630Y327632I-2616J919D01*
G01*
X1066630D02*
G03*
X1066649Y327838I-2736J362D01*
G01*
D02*
G03*
X1066654Y327976I-2726J154D01*
G01*
X1066654Y328011D02*
G03*
X1066652Y328097I-2625J-19D01*
G01*
X1066652Y328097D02*
G03*
X1066647Y328183I-2653J-106D01*
G01*
X1066647D02*
G03*
X1066639Y328269I-2678J-195D01*
G01*
D02*
G03*
X1066626Y328372I-2700J-284D01*
G01*
X1066626D02*
G03*
X1066609Y328475I-2717J-391D01*
G01*
D02*
G03*
X1066585Y328593I-2729J-499D01*
G01*
D02*
G03*
X1066302Y329335I-2762J-632D01*
G01*
Y329335D02*
G03*
X1066222Y329469I-2452J-1359D01*
G01*
D02*
G03*
X1066156Y329570I-2348J-1477D01*
G01*
Y329570D02*
G03*
X1066095Y329654I-2258J-1562D01*
G01*
X1066095D02*
G03*
X1066031Y329736I-2173J-1628D01*
G01*
Y329736D02*
G03*
X1065976Y329802I-2086J-1691D01*
G01*
X1065976D02*
G03*
X1065918Y329866I-2008J-1738D01*
G01*
Y329866D02*
G03*
X1065859Y329929I-1929J-1781D01*
G01*
X1065847Y329941D02*
G03*
X1065734Y330048I-1931J-1931D01*
G01*
D02*
G03*
X1065346Y330337I-1844J-2067D01*
G01*
D02*
G03*
X1065103Y330471I-1453J-2351D01*
G01*
D02*
G03*
X1064961Y330535I-1197J-2457D01*
G01*
D02*
G03*
X1063898Y330748I-1062J-2538D01*
G01*
X178071D02*
G03*
X177949Y330745I0J-2663D01*
G01*
D02*
G03*
X177827Y330737I124J-2689D01*
G01*
D02*
G03*
X177689Y330721I248J-2710D01*
G01*
X177689Y330721D02*
G03*
X177534Y330694I391J-2723D01*
G01*
X177534D02*
G03*
X176680Y330369I558J-2754D01*
G01*
Y330369D02*
G03*
X176518Y330268I1399J-2405D01*
G01*
Y330268D02*
G03*
X176406Y330187I1543J-2279D01*
G01*
D02*
G03*
X176311Y330113I1639J-2176D01*
G01*
Y330113D02*
G03*
X176220Y330034I1715J-2078D01*
G01*
D02*
G03*
X176107Y329926I1781J-1972D01*
G01*
D02*
G03*
X176036Y329851I1899J-1869D01*
G01*
D02*
G03*
X175957Y329760I1991J-1813D01*
G01*
D02*
G03*
X175871Y329651I2094J-1741D01*
G01*
D02*
G03*
X175782Y329524I2204J-1651D01*
G01*
X175782Y329524D02*
G03*
X175421Y328742I2340J-1553D01*
G01*
D02*
G03*
X175371Y328540I2677J-765D01*
G01*
X175371D02*
G03*
X175344Y328387I2698J-557D01*
G01*
X175344D02*
G03*
X175327Y328249I2697J-399D01*
G01*
D02*
G03*
X175318Y328110I2684J-258D01*
G01*
D02*
G03*
X175315Y327988I2665J-118D01*
G01*
D02*
G03*
X175523Y326942I2755J4D01*
G01*
X175530Y326926D02*
G03*
X175579Y326815I2512J1055D01*
G01*
D02*
G03*
X175928Y326259I2507J1188D01*
G01*
Y326259D02*
G03*
X176041Y326128I2141J1729D01*
G01*
D02*
G03*
X176125Y326041I2005J1840D01*
G01*
D02*
G03*
X176187Y325981I1849J1855D01*
G01*
X176187Y325981D02*
G03*
X176251Y325923I1808J1937D01*
G01*
X176251Y325923D02*
G03*
X176317Y325867I1764J2017D01*
G01*
D02*
G03*
X176398Y325803I1717J2096D01*
G01*
Y325803D02*
G03*
X176482Y325742I1654J2185D01*
G01*
D02*
G03*
X176583Y325675I1588J2270D01*
G01*
D02*
G03*
X177339Y325338I1519J2391D01*
G01*
X177339Y325338D02*
G03*
X177490Y325300I754J2697D01*
G01*
X177490Y325300D02*
G03*
X177609Y325277I596J2705D01*
G01*
X177609Y325277D02*
G03*
X177711Y325261I472J2699D01*
G01*
X177711D02*
G03*
X177814Y325249I366J2685D01*
G01*
D02*
G03*
X177900Y325242I260J2667D01*
G01*
D02*
G03*
X177987Y325238I172J2644D01*
G01*
D02*
G03*
X178073Y325236I85J2618D01*
G01*
X178090Y325236D02*
G03*
X178940Y325377I-21J2767D01*
G01*
D02*
G03*
X179119Y325443I-862J2599D01*
G01*
Y325443D02*
G03*
X180615Y326932I-1048J2549D01*
G01*
X180621Y326948D02*
G03*
X180670Y327078I-2525J1034D01*
G01*
X180670D02*
G03*
X180803Y327632I-2616J918D01*
G01*
D02*
G03*
X180823Y327839I-2736J362D01*
G01*
X180823Y327839D02*
G03*
X180827Y327977I-2726J154D01*
G01*
X180827Y327994D02*
G03*
X180825Y328081I-2619J-2D01*
G01*
D02*
G03*
X180821Y328167I-2648J-89D01*
G01*
D02*
G03*
X180814Y328253I-2673J-177D01*
G01*
X180814D02*
G03*
X180802Y328356I-2696J-266D01*
G01*
D02*
G03*
X180786Y328458I-2715J-374D01*
G01*
X180786D02*
G03*
X180762Y328577I-2728J-481D01*
G01*
X180762D02*
G03*
X180466Y329350I-2765J-615D01*
G01*
Y329350D02*
G03*
X180386Y329484I-2441J-1372D01*
G01*
Y329484D02*
G03*
X180319Y329584I-2335J-1490D01*
G01*
D02*
G03*
X180258Y329668I-2244J-1573D01*
G01*
D02*
G03*
X180193Y329749I-2158J-1638D01*
G01*
X180193D02*
G03*
X180138Y329815I-2070J-1700D01*
G01*
X180138D02*
G03*
X180080Y329879I-1992J-1747D01*
G01*
D02*
G03*
X180020Y329941I-1912J-1790D01*
G01*
D02*
G03*
X179907Y330048I-1931J-1931D01*
G01*
X179907D02*
G03*
X179519Y330337I-1844J-2067D01*
G01*
X179519Y330337D02*
G03*
X179276Y330471I-1453J-2351D01*
G01*
Y330471D02*
G03*
X179134Y330535I-1197J-2457D01*
G01*
Y330535D02*
G03*
X178071Y330748I-1062J-2538D01*
G01*
X188071D02*
G03*
X187949Y330745I0J-2663D01*
G01*
D02*
G03*
X187827Y330737I124J-2689D01*
G01*
D02*
G03*
X187689Y330721I248J-2710D01*
G01*
X187689Y330721D02*
G03*
X187534Y330694I391J-2723D01*
G01*
X187534D02*
G03*
X186679Y330369I558J-2754D01*
G01*
Y330369D02*
G03*
X186519Y330268I1399J-2405D01*
G01*
Y330268D02*
G03*
X186406Y330187I1543J-2279D01*
G01*
D02*
G03*
X186311Y330113I1639J-2176D01*
G01*
Y330113D02*
G03*
X186220Y330034I1715J-2078D01*
G01*
D02*
G03*
X186107Y329926I1781J-1972D01*
G01*
D02*
G03*
X186036Y329851I1899J-1869D01*
G01*
D02*
G03*
X185957Y329760I1991J-1813D01*
G01*
D02*
G03*
X185871Y329651I2094J-1741D01*
G01*
D02*
G03*
X185782Y329524I2204J-1651D01*
G01*
X185782Y329524D02*
G03*
X185421Y328742I2340J-1553D01*
G01*
D02*
G03*
X185371Y328540I2677J-765D01*
G01*
X185371D02*
G03*
X185344Y328387I2698J-557D01*
G01*
X185344D02*
G03*
X185327Y328249I2697J-399D01*
G01*
D02*
G03*
X185318Y328110I2684J-258D01*
G01*
D02*
G03*
X185315Y327988I2665J-118D01*
G01*
D02*
G03*
X185523Y326942I2755J4D01*
G01*
X185530Y326926D02*
G03*
X185579Y326815I2512J1055D01*
G01*
D02*
G03*
X185928Y326259I2507J1188D01*
G01*
Y326259D02*
G03*
X186041Y326128I2141J1729D01*
G01*
D02*
G03*
X186125Y326041I2005J1840D01*
G01*
D02*
G03*
X186187Y325981I1849J1855D01*
G01*
X186187Y325981D02*
G03*
X186251Y325923I1808J1937D01*
G01*
X186251Y325923D02*
G03*
X186317Y325867I1764J2017D01*
G01*
D02*
G03*
X186398Y325803I1717J2096D01*
G01*
Y325803D02*
G03*
X186482Y325742I1654J2185D01*
G01*
D02*
G03*
X186583Y325675I1588J2270D01*
G01*
D02*
G03*
X187339Y325338I1519J2391D01*
G01*
X187339Y325338D02*
G03*
X187490Y325300I754J2697D01*
G01*
X187490Y325300D02*
G03*
X187609Y325277I596J2705D01*
G01*
X187609Y325277D02*
G03*
X187711Y325261I472J2699D01*
G01*
X187711D02*
G03*
X187814Y325249I366J2685D01*
G01*
D02*
G03*
X187900Y325242I260J2667D01*
G01*
D02*
G03*
X187987Y325238I172J2644D01*
G01*
D02*
G03*
X188073Y325236I85J2618D01*
G01*
X188090Y325236D02*
G03*
X188940Y325377I-21J2767D01*
G01*
D02*
G03*
X189119Y325443I-862J2599D01*
G01*
Y325443D02*
G03*
X190021Y326045I-1046J2546D01*
G01*
D02*
G03*
X190665Y327061I-1948J1946D01*
G01*
D02*
G03*
X190807Y327667I-2610J934D01*
G01*
D02*
G03*
X190823Y327856I-2737J327D01*
G01*
D02*
G03*
X190827Y327994I-2723J136D01*
G01*
D02*
G03*
X190825Y328081I-2619J-2D01*
G01*
D02*
G03*
X190821Y328167I-2648J-89D01*
G01*
D02*
G03*
X190814Y328253I-2673J-177D01*
G01*
X190814D02*
G03*
X190802Y328356I-2696J-266D01*
G01*
D02*
G03*
X190786Y328458I-2715J-374D01*
G01*
X190786D02*
G03*
X190762Y328577I-2728J-481D01*
G01*
X190762D02*
G03*
X190466Y329350I-2765J-615D01*
G01*
Y329350D02*
G03*
X190386Y329484I-2441J-1372D01*
G01*
Y329484D02*
G03*
X190319Y329584I-2335J-1490D01*
G01*
D02*
G03*
X190258Y329668I-2244J-1573D01*
G01*
D02*
G03*
X190193Y329749I-2158J-1638D01*
G01*
X190193D02*
G03*
X190138Y329815I-2070J-1700D01*
G01*
X190138D02*
G03*
X190080Y329879I-1992J-1747D01*
G01*
D02*
G03*
X190020Y329941I-1912J-1790D01*
G01*
D02*
G03*
X189907Y330048I-1931J-1931D01*
G01*
X189907D02*
G03*
X189519Y330337I-1844J-2067D01*
G01*
X189519Y330337D02*
G03*
X189276Y330471I-1453J-2351D01*
G01*
Y330471D02*
G03*
X189134Y330535I-1197J-2457D01*
G01*
Y330535D02*
G03*
X188071Y330748I-1062J-2538D01*
G01*
X1073898Y320748D02*
G03*
X1073793Y320746I0J-2668D01*
G01*
D02*
G03*
X1073654Y320737I106J-2692D01*
G01*
Y320737D02*
G03*
X1073516Y320721I248J-2712D01*
G01*
X1073516D02*
G03*
X1073345Y320691I390J-2725D01*
G01*
D02*
G03*
X1072537Y320387I574J-2748D01*
G01*
D02*
G03*
X1072361Y320278I1369J-2424D01*
G01*
D02*
G03*
X1072234Y320188I1530J-2290D01*
G01*
D02*
G03*
X1072126Y320103I1638J-2176D01*
G01*
D02*
G03*
X1072035Y320023I1727J-2068D01*
G01*
Y320023D02*
G03*
X1071935Y319927I1796J-1964D01*
G01*
Y319927D02*
G03*
X1071864Y319852I1898J-1870D01*
G01*
X1071864Y319852D02*
G03*
X1071785Y319761I1990J-1814D01*
G01*
D02*
G03*
X1071699Y319653I2093J-1743D01*
G01*
D02*
G03*
X1071609Y319526I2203J-1653D01*
G01*
X1071609D02*
G03*
X1071248Y318744I2339J-1555D01*
G01*
D02*
G03*
X1071198Y318542I2676J-766D01*
G01*
X1071198D02*
G03*
X1071171Y318388I2698J-558D01*
G01*
X1071171Y318388D02*
G03*
X1071154Y318250I2697J-400D01*
G01*
D02*
G03*
X1071144Y318111I2684J-259D01*
G01*
D02*
G03*
X1071142Y317989I2665J-119D01*
G01*
D02*
G03*
X1071350Y316943I2755J3D01*
G01*
X1071356Y316927D02*
G03*
X1071406Y316816I2512J1053D01*
G01*
D02*
G03*
X1071755Y316260I2508J1187D01*
G01*
D02*
G03*
X1071867Y316129I2141J1729D01*
G01*
Y316129D02*
G03*
X1071951Y316042I2006J1839D01*
G01*
D02*
G03*
X1072013Y315982I1850J1854D01*
G01*
Y315982D02*
G03*
X1072077Y315924I1809J1936D01*
G01*
D02*
G03*
X1072143Y315868I1764J2016D01*
G01*
D02*
G03*
X1072224Y315804I1718J2096D01*
G01*
D02*
G03*
X1072308Y315743I1655J2184D01*
G01*
Y315743D02*
G03*
X1072408Y315676I1588J2270D01*
G01*
Y315676D02*
G03*
X1073165Y315338I1520J2390D01*
G01*
X1073165D02*
G03*
X1073316Y315301I755J2696D01*
G01*
D02*
G03*
X1073435Y315277I597J2705D01*
G01*
X1073435D02*
G03*
X1073537Y315261I473J2699D01*
G01*
Y315261D02*
G03*
X1073640Y315249I367J2685D01*
G01*
D02*
G03*
X1073726Y315242I261J2667D01*
G01*
Y315242D02*
G03*
X1073812Y315238I173J2644D01*
G01*
D02*
G03*
X1073899Y315236I85J2618D01*
G01*
X1073916Y315236D02*
G03*
X1074766Y315377I-20J2767D01*
G01*
X1074766Y315377D02*
G03*
X1074945Y315443I-861J2599D01*
G01*
D02*
G03*
X1075847Y316045I-1045J2546D01*
G01*
Y316045D02*
G03*
X1076491Y317061I-1947J1946D01*
G01*
D02*
G03*
X1076634Y317666I-2610J935D01*
G01*
D02*
G03*
X1076650Y317856I-2737J328D01*
G01*
X1076650D02*
G03*
X1076654Y317994I-2723J137D01*
G01*
X1076653Y318011D02*
G03*
X1076651Y318097I-2625J-19D01*
G01*
X1076651Y318097D02*
G03*
X1076647Y318183I-2653J-106D01*
G01*
X1076647D02*
G03*
X1076639Y318269I-2678J-195D01*
G01*
D02*
G03*
X1076626Y318372I-2700J-284D01*
G01*
X1076626D02*
G03*
X1076610Y318475I-2717J-391D01*
G01*
D02*
G03*
X1076585Y318593I-2729J-499D01*
G01*
D02*
G03*
X1076301Y319335I-2762J-632D01*
G01*
Y319335D02*
G03*
X1076222Y319469I-2452J-1359D01*
G01*
D02*
G03*
X1076156Y319570I-2348J-1477D01*
G01*
Y319570D02*
G03*
X1076095Y319654I-2258J-1562D01*
G01*
X1076095D02*
G03*
X1076031Y319736I-2173J-1628D01*
G01*
Y319736D02*
G03*
X1075976Y319802I-2086J-1691D01*
G01*
X1075976D02*
G03*
X1075918Y319866I-2008J-1738D01*
G01*
Y319866D02*
G03*
X1075859Y319929I-1929J-1781D01*
G01*
X1075847Y319941D02*
G03*
X1075734Y320048I-1931J-1931D01*
G01*
D02*
G03*
X1075346Y320337I-1844J-2067D01*
G01*
D02*
G03*
X1075103Y320471I-1453J-2351D01*
G01*
D02*
G03*
X1074961Y320535I-1197J-2457D01*
G01*
D02*
G03*
X1073898Y320748I-1062J-2538D01*
G01*
X178071D02*
G03*
X177949Y320745I0J-2663D01*
G01*
D02*
G03*
X177827Y320737I124J-2689D01*
G01*
D02*
G03*
X177689Y320721I248J-2710D01*
G01*
X177689Y320721D02*
G03*
X177534Y320694I391J-2723D01*
G01*
X177534D02*
G03*
X176680Y320369I558J-2754D01*
G01*
Y320369D02*
G03*
X176518Y320268I1399J-2405D01*
G01*
Y320268D02*
G03*
X176406Y320187I1543J-2279D01*
G01*
D02*
G03*
X176311Y320113I1639J-2176D01*
G01*
Y320113D02*
G03*
X176220Y320034I1715J-2078D01*
G01*
D02*
G03*
X176107Y319926I1781J-1972D01*
G01*
D02*
G03*
X176036Y319851I1899J-1869D01*
G01*
D02*
G03*
X175957Y319760I1991J-1813D01*
G01*
D02*
G03*
X175871Y319651I2094J-1741D01*
G01*
D02*
G03*
X175782Y319524I2204J-1651D01*
G01*
X175782Y319524D02*
G03*
X175421Y318742I2340J-1553D01*
G01*
D02*
G03*
X175371Y318541I2677J-765D01*
G01*
X175371D02*
G03*
X175344Y318387I2698J-557D01*
G01*
X175344D02*
G03*
X175327Y318249I2697J-399D01*
G01*
D02*
G03*
X175318Y318110I2684J-258D01*
G01*
D02*
G03*
X175315Y317988I2665J-118D01*
G01*
D02*
G03*
X175523Y316942I2755J4D01*
G01*
X175530Y316926D02*
G03*
X175579Y316815I2512J1055D01*
G01*
D02*
G03*
X175928Y316259I2507J1188D01*
G01*
Y316259D02*
G03*
X176041Y316128I2141J1729D01*
G01*
D02*
G03*
X176125Y316041I2005J1840D01*
G01*
X176137Y316029D02*
G03*
X176200Y315969I1841J1871D01*
G01*
X176200Y315969D02*
G03*
X176264Y315912I1799J1953D01*
G01*
X176264Y315912D02*
G03*
X176330Y315857I1754J2032D01*
G01*
Y315857D02*
G03*
X176412Y315793I1707J2111D01*
G01*
X176412D02*
G03*
X176496Y315733I1643J2199D01*
G01*
D02*
G03*
X176597Y315666I1576J2284D01*
G01*
X176597Y315666D02*
G03*
X177322Y315343I1505J2401D01*
G01*
X177322D02*
G03*
X177473Y315304I771J2695D01*
G01*
D02*
G03*
X177592Y315280I614J2705D01*
G01*
Y315280D02*
G03*
X177694Y315263I490J2701D01*
G01*
X177694D02*
G03*
X177797Y315251I384J2688D01*
G01*
Y315251D02*
G03*
X177883Y315243I277J2671D01*
G01*
Y315243D02*
G03*
X177969Y315238I189J2649D01*
G01*
X177969D02*
G03*
X178056Y315236I102J2624D01*
G01*
X178090Y315236D02*
G03*
X178940Y315377I-21J2767D01*
G01*
D02*
G03*
X179119Y315443I-862J2599D01*
G01*
Y315443D02*
G03*
X180615Y316932I-1048J2549D01*
G01*
X180621Y316948D02*
G03*
X180670Y317077I-2525J1034D01*
G01*
X180670D02*
G03*
X180803Y317632I-2616J918D01*
G01*
D02*
G03*
X180823Y317839I-2736J362D01*
G01*
X180823Y317839D02*
G03*
X180827Y317977I-2726J154D01*
G01*
X180827Y318011D02*
G03*
X180825Y318098I-2625J-19D01*
G01*
X180825D02*
G03*
X180820Y318184I-2653J-107D01*
G01*
D02*
G03*
X180812Y318270I-2678J-195D01*
G01*
Y318270D02*
G03*
X180799Y318373I-2700J-284D01*
G01*
D02*
G03*
X180783Y318475I-2717J-391D01*
G01*
X180783D02*
G03*
X180758Y318594I-2729J-499D01*
G01*
D02*
G03*
X180475Y319335I-2762J-632D01*
G01*
Y319335D02*
G03*
X180395Y319469I-2452J-1359D01*
G01*
D02*
G03*
X180329Y319570I-2348J-1477D01*
G01*
X180329Y319570D02*
G03*
X180268Y319654I-2258J-1562D01*
G01*
D02*
G03*
X180204Y319736I-2173J-1628D01*
G01*
D02*
G03*
X180149Y319802I-2086J-1691D01*
G01*
Y319802D02*
G03*
X180091Y319866I-2008J-1738D01*
G01*
X180091Y319866D02*
G03*
X180032Y319929I-1928J-1782D01*
G01*
X180020Y319941D02*
G03*
X179907Y320048I-1931J-1931D01*
G01*
X179907D02*
G03*
X179519Y320337I-1844J-2067D01*
G01*
X179519Y320337D02*
G03*
X179276Y320471I-1453J-2351D01*
G01*
Y320471D02*
G03*
X179134Y320535I-1197J-2457D01*
G01*
Y320535D02*
G03*
X178071Y320748I-1062J-2538D01*
G01*
X188071D02*
G03*
X187949Y320745I0J-2663D01*
G01*
D02*
G03*
X187827Y320737I124J-2689D01*
G01*
D02*
G03*
X187689Y320721I248J-2710D01*
G01*
X187689Y320721D02*
G03*
X187534Y320694I391J-2723D01*
G01*
X187534D02*
G03*
X186679Y320369I558J-2754D01*
G01*
Y320369D02*
G03*
X186519Y320268I1399J-2405D01*
G01*
Y320268D02*
G03*
X186406Y320187I1543J-2279D01*
G01*
D02*
G03*
X186311Y320113I1639J-2176D01*
G01*
Y320113D02*
G03*
X186220Y320034I1715J-2078D01*
G01*
D02*
G03*
X186107Y319926I1781J-1972D01*
G01*
D02*
G03*
X186036Y319851I1899J-1869D01*
G01*
D02*
G03*
X185957Y319760I1991J-1813D01*
G01*
D02*
G03*
X185871Y319651I2094J-1741D01*
G01*
D02*
G03*
X185782Y319524I2204J-1651D01*
G01*
X185782Y319524D02*
G03*
X185421Y318742I2340J-1553D01*
G01*
D02*
G03*
X185371Y318541I2677J-765D01*
G01*
X185371D02*
G03*
X185344Y318387I2698J-557D01*
G01*
X185344D02*
G03*
X185327Y318249I2697J-399D01*
G01*
D02*
G03*
X185318Y318110I2684J-258D01*
G01*
D02*
G03*
X185315Y317988I2665J-118D01*
G01*
D02*
G03*
X185523Y316942I2755J4D01*
G01*
X185530Y316926D02*
G03*
X185579Y316815I2512J1055D01*
G01*
D02*
G03*
X185928Y316259I2507J1188D01*
G01*
Y316259D02*
G03*
X186041Y316128I2141J1729D01*
G01*
D02*
G03*
X186125Y316041I2005J1840D01*
G01*
D02*
G03*
X186187Y315981I1849J1855D01*
G01*
X186187Y315981D02*
G03*
X186251Y315923I1808J1937D01*
G01*
X186251Y315923D02*
G03*
X186317Y315867I1764J2017D01*
G01*
D02*
G03*
X186398Y315803I1717J2096D01*
G01*
Y315803D02*
G03*
X186482Y315742I1654J2185D01*
G01*
D02*
G03*
X186583Y315675I1588J2270D01*
G01*
D02*
G03*
X187339Y315338I1519J2391D01*
G01*
X187339Y315338D02*
G03*
X187490Y315300I754J2697D01*
G01*
X187490Y315300D02*
G03*
X187609Y315277I596J2705D01*
G01*
X187609Y315277D02*
G03*
X187711Y315261I472J2699D01*
G01*
X187711D02*
G03*
X187814Y315249I366J2685D01*
G01*
D02*
G03*
X187900Y315242I260J2667D01*
G01*
D02*
G03*
X187987Y315238I172J2644D01*
G01*
D02*
G03*
X188073Y315236I85J2618D01*
G01*
X188090Y315236D02*
G03*
X188940Y315377I-21J2767D01*
G01*
D02*
G03*
X189119Y315443I-862J2599D01*
G01*
Y315443D02*
G03*
X190021Y316045I-1046J2546D01*
G01*
D02*
G03*
X190665Y317061I-1948J1946D01*
G01*
D02*
G03*
X190807Y317667I-2610J934D01*
G01*
D02*
G03*
X190823Y317856I-2737J327D01*
G01*
D02*
G03*
X190827Y317994I-2723J136D01*
G01*
D02*
G03*
X190825Y318080I-2619J-2D01*
G01*
D02*
G03*
X190821Y318167I-2648J-89D01*
G01*
D02*
G03*
X190814Y318253I-2673J-177D01*
G01*
X190814D02*
G03*
X190802Y318355I-2696J-266D01*
G01*
D02*
G03*
X190786Y318458I-2715J-374D01*
G01*
X190786D02*
G03*
X190762Y318577I-2728J-481D01*
G01*
X190762D02*
G03*
X190466Y319350I-2765J-615D01*
G01*
Y319350D02*
G03*
X190386Y319483I-2441J-1372D01*
G01*
Y319483D02*
G03*
X190319Y319584I-2335J-1490D01*
G01*
D02*
G03*
X190258Y319668I-2244J-1573D01*
G01*
D02*
G03*
X190193Y319749I-2158J-1638D01*
G01*
X190193D02*
G03*
X190138Y319815I-2070J-1700D01*
G01*
X190138D02*
G03*
X190080Y319879I-1992J-1747D01*
G01*
D02*
G03*
X190020Y319941I-1912J-1790D01*
G01*
D02*
G03*
X189907Y320048I-1931J-1931D01*
G01*
X189907D02*
G03*
X189519Y320337I-1844J-2067D01*
G01*
X189519Y320337D02*
G03*
X189276Y320471I-1453J-2351D01*
G01*
Y320471D02*
G03*
X189134Y320535I-1197J-2457D01*
G01*
Y320535D02*
G03*
X188071Y320748I-1062J-2538D01*
G01*
X1063898D02*
G03*
X1063793Y320746I0J-2668D01*
G01*
D02*
G03*
X1063654Y320737I106J-2692D01*
G01*
Y320737D02*
G03*
X1063516Y320721I248J-2712D01*
G01*
X1063516D02*
G03*
X1063344Y320691I390J-2725D01*
G01*
D02*
G03*
X1062537Y320387I574J-2748D01*
G01*
D02*
G03*
X1062361Y320278I1369J-2424D01*
G01*
D02*
G03*
X1062234Y320188I1530J-2290D01*
G01*
D02*
G03*
X1062126Y320103I1638J-2176D01*
G01*
D02*
G03*
X1062035Y320023I1727J-2068D01*
G01*
Y320023D02*
G03*
X1061935Y319927I1796J-1964D01*
G01*
Y319927D02*
G03*
X1061864Y319852I1898J-1870D01*
G01*
X1061864Y319852D02*
G03*
X1061785Y319761I1990J-1814D01*
G01*
D02*
G03*
X1061699Y319653I2093J-1743D01*
G01*
D02*
G03*
X1061609Y319526I2203J-1653D01*
G01*
X1061609D02*
G03*
X1061248Y318744I2339J-1555D01*
G01*
D02*
G03*
X1061198Y318542I2676J-766D01*
G01*
X1061199D02*
G03*
X1061171Y318388I2698J-558D01*
G01*
X1061171Y318388D02*
G03*
X1061154Y318250I2697J-400D01*
G01*
D02*
G03*
X1061144Y318111I2684J-259D01*
G01*
D02*
G03*
X1061142Y317989I2665J-119D01*
G01*
D02*
G03*
X1061349Y316943I2755J3D01*
G01*
X1061356Y316927D02*
G03*
X1061405Y316816I2512J1053D01*
G01*
D02*
G03*
X1061755Y316260I2508J1187D01*
G01*
D02*
G03*
X1061867Y316129I2141J1729D01*
G01*
Y316129D02*
G03*
X1061951Y316042I2006J1839D01*
G01*
D02*
G03*
X1062013Y315982I1850J1854D01*
G01*
Y315982D02*
G03*
X1062077Y315924I1809J1936D01*
G01*
D02*
G03*
X1062143Y315868I1764J2016D01*
G01*
D02*
G03*
X1062224Y315804I1718J2096D01*
G01*
D02*
G03*
X1062308Y315743I1655J2184D01*
G01*
Y315743D02*
G03*
X1062409Y315676I1588J2270D01*
G01*
Y315676D02*
G03*
X1063165Y315338I1520J2390D01*
G01*
X1063165D02*
G03*
X1063316Y315301I755J2696D01*
G01*
D02*
G03*
X1063435Y315277I597J2705D01*
G01*
X1063435D02*
G03*
X1063537Y315261I473J2699D01*
G01*
Y315261D02*
G03*
X1063640Y315249I367J2685D01*
G01*
D02*
G03*
X1063726Y315242I261J2667D01*
G01*
Y315242D02*
G03*
X1063812Y315238I173J2644D01*
G01*
D02*
G03*
X1063899Y315236I85J2618D01*
G01*
X1063916Y315236D02*
G03*
X1064766Y315377I-20J2767D01*
G01*
X1064766Y315377D02*
G03*
X1064945Y315443I-861J2599D01*
G01*
D02*
G03*
X1065847Y316045I-1045J2546D01*
G01*
Y316045D02*
G03*
X1066491Y317061I-1947J1946D01*
G01*
D02*
G03*
X1066634Y317666I-2610J935D01*
G01*
D02*
G03*
X1066650Y317856I-2737J328D01*
G01*
X1066650D02*
G03*
X1066654Y317994I-2723J137D01*
G01*
X1066654Y318011D02*
G03*
X1066652Y318097I-2625J-19D01*
G01*
X1066652Y318097D02*
G03*
X1066647Y318183I-2653J-106D01*
G01*
X1066647D02*
G03*
X1066639Y318269I-2678J-195D01*
G01*
D02*
G03*
X1066626Y318372I-2700J-284D01*
G01*
X1066626D02*
G03*
X1066609Y318475I-2717J-391D01*
G01*
D02*
G03*
X1066585Y318593I-2729J-499D01*
G01*
D02*
G03*
X1066302Y319335I-2762J-632D01*
G01*
Y319335D02*
G03*
X1066222Y319469I-2452J-1359D01*
G01*
D02*
G03*
X1066156Y319570I-2348J-1477D01*
G01*
Y319570D02*
G03*
X1066095Y319654I-2258J-1562D01*
G01*
X1066095D02*
G03*
X1066031Y319736I-2173J-1628D01*
G01*
Y319736D02*
G03*
X1065976Y319802I-2086J-1691D01*
G01*
X1065976D02*
G03*
X1065918Y319866I-2008J-1738D01*
G01*
Y319866D02*
G03*
X1065859Y319929I-1929J-1781D01*
G01*
X1065847Y319941D02*
G03*
X1065734Y320048I-1931J-1931D01*
G01*
D02*
G03*
X1065346Y320337I-1844J-2067D01*
G01*
D02*
G03*
X1065103Y320471I-1453J-2351D01*
G01*
D02*
G03*
X1064961Y320535I-1197J-2457D01*
G01*
D02*
G03*
X1063898Y320748I-1062J-2538D01*
G01*
X1063898Y310748D02*
G03*
X1063793Y310746I0J-2668D01*
G01*
D02*
G03*
X1063654Y310737I106J-2692D01*
G01*
Y310737D02*
G03*
X1063516Y310721I248J-2712D01*
G01*
X1063516D02*
G03*
X1063344Y310691I390J-2725D01*
G01*
D02*
G03*
X1062537Y310387I574J-2748D01*
G01*
D02*
G03*
X1062361Y310278I1369J-2424D01*
G01*
D02*
G03*
X1062234Y310188I1530J-2290D01*
G01*
D02*
G03*
X1062126Y310103I1638J-2176D01*
G01*
D02*
G03*
X1062035Y310023I1727J-2068D01*
G01*
Y310023D02*
G03*
X1061935Y309927I1796J-1964D01*
G01*
Y309927D02*
G03*
X1061864Y309852I1898J-1870D01*
G01*
X1061864Y309852D02*
G03*
X1061785Y309761I1990J-1814D01*
G01*
D02*
G03*
X1061699Y309653I2093J-1743D01*
G01*
D02*
G03*
X1061609Y309526I2203J-1653D01*
G01*
X1061609D02*
G03*
X1061248Y308744I2339J-1555D01*
G01*
D02*
G03*
X1061198Y308542I2676J-766D01*
G01*
X1061199D02*
G03*
X1061171Y308388I2698J-558D01*
G01*
X1061171Y308388D02*
G03*
X1061154Y308250I2697J-400D01*
G01*
D02*
G03*
X1061144Y308111I2684J-259D01*
G01*
D02*
G03*
X1061142Y307990I2665J-119D01*
G01*
D02*
G03*
X1061349Y306943I2755J3D01*
G01*
X1061356Y306927D02*
G03*
X1061405Y306816I2512J1053D01*
G01*
D02*
G03*
X1061755Y306260I2508J1187D01*
G01*
D02*
G03*
X1061867Y306129I2141J1729D01*
G01*
Y306129D02*
G03*
X1061951Y306042I2006J1839D01*
G01*
D02*
G03*
X1062013Y305982I1850J1854D01*
G01*
Y305982D02*
G03*
X1062077Y305924I1809J1936D01*
G01*
D02*
G03*
X1062143Y305868I1764J2016D01*
G01*
D02*
G03*
X1062224Y305804I1718J2096D01*
G01*
D02*
G03*
X1062308Y305743I1655J2184D01*
G01*
Y305743D02*
G03*
X1062409Y305676I1588J2270D01*
G01*
Y305676D02*
G03*
X1063165Y305338I1520J2390D01*
G01*
X1063165D02*
G03*
X1063316Y305301I755J2696D01*
G01*
D02*
G03*
X1063435Y305277I597J2705D01*
G01*
X1063435D02*
G03*
X1063537Y305261I473J2699D01*
G01*
Y305261D02*
G03*
X1063640Y305249I367J2685D01*
G01*
D02*
G03*
X1063726Y305242I261J2667D01*
G01*
Y305242D02*
G03*
X1063812Y305238I173J2644D01*
G01*
D02*
G03*
X1063899Y305236I85J2618D01*
G01*
X1063916Y305236D02*
G03*
X1064766Y305377I-20J2767D01*
G01*
X1064766Y305377D02*
G03*
X1064945Y305443I-861J2599D01*
G01*
D02*
G03*
X1065847Y306045I-1045J2546D01*
G01*
Y306045D02*
G03*
X1066491Y307061I-1947J1946D01*
G01*
D02*
G03*
X1066634Y307666I-2610J935D01*
G01*
D02*
G03*
X1066650Y307856I-2737J328D01*
G01*
X1066650D02*
G03*
X1066654Y307994I-2723J137D01*
G01*
X1066654D02*
G03*
X1066652Y308080I-2619J-1D01*
G01*
D02*
G03*
X1066648Y308166I-2648J-89D01*
G01*
X1066648D02*
G03*
X1066641Y308252I-2673J-177D01*
G01*
Y308252D02*
G03*
X1066629Y308355I-2697J-266D01*
G01*
D02*
G03*
X1066613Y308458I-2715J-373D01*
G01*
D02*
G03*
X1066589Y308576I-2728J-481D01*
G01*
X1066589Y308576D02*
G03*
X1066293Y309350I-2765J-614D01*
G01*
X1066293Y309350D02*
G03*
X1066213Y309483I-2441J-1372D01*
G01*
Y309483D02*
G03*
X1066146Y309584I-2335J-1489D01*
G01*
D02*
G03*
X1066085Y309668I-2244J-1573D01*
G01*
X1066085D02*
G03*
X1066020Y309749I-2158J-1638D01*
G01*
X1066020D02*
G03*
X1065965Y309815I-2070J-1700D01*
G01*
X1065965Y309815D02*
G03*
X1065907Y309879I-1993J-1747D01*
G01*
D02*
G03*
X1065847Y309941I-1912J-1790D01*
G01*
D02*
G03*
X1065734Y310048I-1931J-1931D01*
G01*
D02*
G03*
X1065346Y310337I-1844J-2067D01*
G01*
D02*
G03*
X1065103Y310471I-1453J-2351D01*
G01*
D02*
G03*
X1064961Y310535I-1197J-2457D01*
G01*
D02*
G03*
X1063898Y310748I-1062J-2538D01*
G01*
X1073898D02*
G03*
X1073793Y310746I0J-2668D01*
G01*
D02*
G03*
X1073654Y310737I106J-2692D01*
G01*
Y310737D02*
G03*
X1073516Y310721I248J-2712D01*
G01*
X1073516D02*
G03*
X1073345Y310691I390J-2725D01*
G01*
D02*
G03*
X1072537Y310387I574J-2748D01*
G01*
D02*
G03*
X1072361Y310278I1369J-2424D01*
G01*
D02*
G03*
X1072234Y310188I1530J-2290D01*
G01*
D02*
G03*
X1072126Y310103I1638J-2176D01*
G01*
D02*
G03*
X1072035Y310023I1727J-2068D01*
G01*
Y310023D02*
G03*
X1071935Y309927I1796J-1964D01*
G01*
Y309927D02*
G03*
X1071864Y309852I1898J-1870D01*
G01*
X1071864Y309852D02*
G03*
X1071785Y309761I1990J-1814D01*
G01*
D02*
G03*
X1071699Y309653I2093J-1743D01*
G01*
D02*
G03*
X1071609Y309526I2203J-1653D01*
G01*
X1071609D02*
G03*
X1071248Y308744I2339J-1555D01*
G01*
D02*
G03*
X1071198Y308542I2676J-766D01*
G01*
X1071198D02*
G03*
X1071171Y308388I2698J-558D01*
G01*
X1071171Y308388D02*
G03*
X1071154Y308250I2697J-400D01*
G01*
D02*
G03*
X1071144Y308111I2684J-259D01*
G01*
D02*
G03*
X1071142Y307990I2665J-119D01*
G01*
D02*
G03*
X1071350Y306943I2755J3D01*
G01*
X1071356Y306927D02*
G03*
X1071406Y306816I2512J1053D01*
G01*
D02*
G03*
X1071755Y306260I2508J1187D01*
G01*
D02*
G03*
X1071867Y306129I2141J1729D01*
G01*
Y306129D02*
G03*
X1071951Y306042I2006J1839D01*
G01*
D02*
G03*
X1072013Y305982I1850J1854D01*
G01*
Y305982D02*
G03*
X1072077Y305924I1809J1936D01*
G01*
D02*
G03*
X1072143Y305868I1764J2016D01*
G01*
D02*
G03*
X1072224Y305804I1718J2096D01*
G01*
D02*
G03*
X1072308Y305743I1655J2184D01*
G01*
Y305743D02*
G03*
X1072408Y305676I1588J2270D01*
G01*
Y305676D02*
G03*
X1073165Y305338I1520J2390D01*
G01*
X1073165D02*
G03*
X1073316Y305301I755J2696D01*
G01*
D02*
G03*
X1073435Y305277I597J2705D01*
G01*
X1073435D02*
G03*
X1073537Y305261I473J2699D01*
G01*
Y305261D02*
G03*
X1073640Y305249I367J2685D01*
G01*
D02*
G03*
X1073726Y305242I261J2667D01*
G01*
Y305242D02*
G03*
X1073812Y305238I173J2644D01*
G01*
D02*
G03*
X1073899Y305236I85J2618D01*
G01*
X1073916Y305236D02*
G03*
X1074766Y305377I-20J2767D01*
G01*
X1074766Y305377D02*
G03*
X1074945Y305443I-861J2599D01*
G01*
D02*
G03*
X1075847Y306045I-1045J2546D01*
G01*
Y306045D02*
G03*
X1076491Y307061I-1947J1946D01*
G01*
D02*
G03*
X1076634Y307666I-2610J935D01*
G01*
D02*
G03*
X1076650Y307856I-2737J328D01*
G01*
X1076650D02*
G03*
X1076654Y307994I-2723J137D01*
G01*
X1076653Y308011D02*
G03*
X1076651Y308097I-2625J-19D01*
G01*
X1076651Y308097D02*
G03*
X1076647Y308183I-2653J-106D01*
G01*
X1076647D02*
G03*
X1076639Y308269I-2678J-195D01*
G01*
D02*
G03*
X1076626Y308372I-2700J-284D01*
G01*
X1076626D02*
G03*
X1076610Y308475I-2717J-391D01*
G01*
D02*
G03*
X1076585Y308593I-2729J-499D01*
G01*
D02*
G03*
X1076301Y309335I-2762J-632D01*
G01*
Y309335D02*
G03*
X1076222Y309469I-2452J-1359D01*
G01*
D02*
G03*
X1076156Y309570I-2348J-1477D01*
G01*
Y309570D02*
G03*
X1076095Y309654I-2258J-1562D01*
G01*
X1076095D02*
G03*
X1076031Y309736I-2173J-1628D01*
G01*
Y309736D02*
G03*
X1075976Y309802I-2086J-1691D01*
G01*
X1075976D02*
G03*
X1075918Y309866I-2008J-1738D01*
G01*
Y309866D02*
G03*
X1075859Y309929I-1929J-1781D01*
G01*
X1075847Y309941D02*
G03*
X1075734Y310048I-1931J-1931D01*
G01*
D02*
G03*
X1075346Y310337I-1844J-2067D01*
G01*
D02*
G03*
X1075103Y310471I-1453J-2351D01*
G01*
D02*
G03*
X1074961Y310535I-1197J-2457D01*
G01*
D02*
G03*
X1073898Y310748I-1062J-2538D01*
G01*
X188071D02*
G03*
X187949Y310745I0J-2663D01*
G01*
D02*
G03*
X187827Y310737I124J-2689D01*
G01*
D02*
G03*
X187689Y310721I248J-2710D01*
G01*
X187689Y310721D02*
G03*
X187534Y310694I391J-2723D01*
G01*
X187534D02*
G03*
X186679Y310369I558J-2754D01*
G01*
Y310369D02*
G03*
X186519Y310268I1399J-2405D01*
G01*
Y310268D02*
G03*
X186406Y310187I1543J-2279D01*
G01*
D02*
G03*
X186311Y310113I1639J-2176D01*
G01*
Y310113D02*
G03*
X186220Y310034I1715J-2078D01*
G01*
D02*
G03*
X186107Y309926I1781J-1972D01*
G01*
D02*
G03*
X186036Y309851I1899J-1869D01*
G01*
D02*
G03*
X185957Y309760I1991J-1813D01*
G01*
D02*
G03*
X185871Y309651I2094J-1741D01*
G01*
D02*
G03*
X185782Y309524I2204J-1651D01*
G01*
X185782Y309524D02*
G03*
X185421Y308742I2340J-1553D01*
G01*
D02*
G03*
X185371Y308541I2677J-765D01*
G01*
X185371D02*
G03*
X185344Y308387I2698J-557D01*
G01*
X185344D02*
G03*
X185327Y308249I2697J-399D01*
G01*
D02*
G03*
X185318Y308110I2684J-258D01*
G01*
D02*
G03*
X185315Y307988I2665J-118D01*
G01*
D02*
G03*
X185523Y306942I2755J4D01*
G01*
X185530Y306926D02*
G03*
X185579Y306815I2512J1055D01*
G01*
D02*
G03*
X185928Y306259I2507J1188D01*
G01*
Y306259D02*
G03*
X186041Y306128I2141J1729D01*
G01*
D02*
G03*
X186125Y306041I2005J1840D01*
G01*
D02*
G03*
X186187Y305981I1849J1855D01*
G01*
X186187Y305981D02*
G03*
X186251Y305923I1808J1937D01*
G01*
X186251Y305923D02*
G03*
X186317Y305867I1764J2017D01*
G01*
D02*
G03*
X186398Y305803I1717J2096D01*
G01*
Y305803D02*
G03*
X186482Y305742I1654J2185D01*
G01*
D02*
G03*
X186583Y305675I1588J2270D01*
G01*
D02*
G03*
X187339Y305338I1519J2391D01*
G01*
X187339Y305338D02*
G03*
X187490Y305300I754J2697D01*
G01*
X187490Y305300D02*
G03*
X187609Y305277I596J2705D01*
G01*
X187609Y305277D02*
G03*
X187711Y305261I472J2699D01*
G01*
X187711D02*
G03*
X187814Y305249I366J2685D01*
G01*
D02*
G03*
X187900Y305242I260J2667D01*
G01*
D02*
G03*
X187987Y305238I172J2644D01*
G01*
D02*
G03*
X188073Y305236I85J2618D01*
G01*
X188090Y305236D02*
G03*
X188940Y305377I-21J2767D01*
G01*
D02*
G03*
X189119Y305443I-862J2599D01*
G01*
Y305443D02*
G03*
X190021Y306045I-1046J2546D01*
G01*
D02*
G03*
X190665Y307061I-1948J1946D01*
G01*
D02*
G03*
X190807Y307667I-2610J934D01*
G01*
D02*
G03*
X190823Y307856I-2737J327D01*
G01*
D02*
G03*
X190827Y307994I-2723J136D01*
G01*
D02*
G03*
X190825Y308081I-2619J-2D01*
G01*
D02*
G03*
X190821Y308167I-2648J-89D01*
G01*
D02*
G03*
X190814Y308253I-2673J-177D01*
G01*
X190814D02*
G03*
X190802Y308355I-2696J-266D01*
G01*
D02*
G03*
X190786Y308458I-2715J-374D01*
G01*
X190786D02*
G03*
X190762Y308577I-2728J-481D01*
G01*
X190762D02*
G03*
X190466Y309350I-2765J-615D01*
G01*
Y309350D02*
G03*
X190386Y309484I-2441J-1372D01*
G01*
Y309484D02*
G03*
X190319Y309584I-2335J-1490D01*
G01*
D02*
G03*
X190258Y309668I-2244J-1573D01*
G01*
D02*
G03*
X190193Y309749I-2158J-1638D01*
G01*
X190193D02*
G03*
X190138Y309815I-2070J-1700D01*
G01*
X190138D02*
G03*
X190080Y309879I-1992J-1747D01*
G01*
D02*
G03*
X190020Y309941I-1912J-1790D01*
G01*
D02*
G03*
X189907Y310048I-1931J-1931D01*
G01*
X189907D02*
G03*
X189519Y310337I-1844J-2067D01*
G01*
X189519Y310337D02*
G03*
X189276Y310471I-1453J-2351D01*
G01*
Y310471D02*
G03*
X189134Y310535I-1197J-2457D01*
G01*
Y310535D02*
G03*
X188071Y310748I-1062J-2538D01*
G01*
X178036Y310748D02*
G03*
X177914Y310744I35J-2671D01*
G01*
X177914Y310744D02*
G03*
X177792Y310734I159J-2695D01*
G01*
X177792D02*
G03*
X177654Y310716I284J-2714D01*
G01*
D02*
G03*
X177500Y310687I426J-2725D01*
G01*
D02*
G03*
X176725Y310395I593J-2748D01*
G01*
Y310395D02*
G03*
X176547Y310287I1357J-2436D01*
G01*
Y310287D02*
G03*
X176420Y310198I1518J-2302D01*
G01*
D02*
G03*
X176324Y310123I1627J-2189D01*
G01*
X176324Y310123D02*
G03*
X176232Y310045I1704J-2092D01*
G01*
Y310045D02*
G03*
X176095Y309914I1769J-1984D01*
G01*
Y309914D02*
G03*
X176013Y309825I1916J-1861D01*
G01*
D02*
G03*
X175935Y309733I2021J-1793D01*
G01*
X175935D02*
G03*
X175851Y309624I2122J-1719D01*
G01*
Y309624D02*
G03*
X175763Y309496I2230J-1627D01*
G01*
X175763D02*
G03*
X175436Y308792I2359J-1525D01*
G01*
X175436Y308792D02*
G03*
X175379Y308574I2667J-816D01*
G01*
D02*
G03*
X175347Y308404I2695J-592D01*
G01*
X175347Y308404D02*
G03*
X175329Y308266I2698J-416D01*
G01*
Y308266D02*
G03*
X175319Y308127I2686J-276D01*
G01*
D02*
G03*
X175315Y308005I2668J-135D01*
G01*
D02*
G03*
X175523Y306942I2755J-13D01*
G01*
X175530Y306926D02*
G03*
X175579Y306815I2512J1055D01*
G01*
D02*
G03*
X175918Y306273I2507J1188D01*
G01*
X175918D02*
G03*
X176030Y306141I2154J1718D01*
G01*
X176030D02*
G03*
X176113Y306053I2020J1830D01*
G01*
X176137Y306029D02*
G03*
X176200Y305969I1841J1871D01*
G01*
X176200Y305969D02*
G03*
X176264Y305912I1799J1953D01*
G01*
X176264Y305912D02*
G03*
X176330Y305856I1754J2032D01*
G01*
Y305856D02*
G03*
X176412Y305793I1707J2111D01*
G01*
X176412D02*
G03*
X176496Y305732I1643J2199D01*
G01*
D02*
G03*
X176597Y305666I1576J2284D01*
G01*
X176597Y305666D02*
G03*
X177322Y305343I1505J2401D01*
G01*
X177322D02*
G03*
X177473Y305304I771J2695D01*
G01*
D02*
G03*
X177592Y305280I614J2705D01*
G01*
Y305280D02*
G03*
X177694Y305263I490J2701D01*
G01*
X177694D02*
G03*
X177797Y305251I384J2688D01*
G01*
Y305251D02*
G03*
X177883Y305243I277J2671D01*
G01*
Y305243D02*
G03*
X177969Y305238I189J2649D01*
G01*
X177969D02*
G03*
X178056Y305236I102J2624D01*
G01*
X178090Y305236D02*
G03*
X178940Y305377I-21J2767D01*
G01*
D02*
G03*
X179119Y305443I-862J2599D01*
G01*
Y305443D02*
G03*
X180615Y306932I-1048J2549D01*
G01*
X180621Y306948D02*
G03*
X180670Y307078I-2525J1034D01*
G01*
X180670D02*
G03*
X180803Y307632I-2616J918D01*
G01*
D02*
G03*
X180823Y307839I-2736J362D01*
G01*
X180823Y307839D02*
G03*
X180827Y307977I-2726J154D01*
G01*
X180827Y308012D02*
G03*
X180825Y308098I-2625J-19D01*
G01*
X180825D02*
G03*
X180820Y308184I-2653J-107D01*
G01*
D02*
G03*
X180812Y308270I-2678J-195D01*
G01*
Y308270D02*
G03*
X180799Y308373I-2700J-284D01*
G01*
D02*
G03*
X180783Y308475I-2717J-391D01*
G01*
X180783D02*
G03*
X180758Y308594I-2729J-499D01*
G01*
D02*
G03*
X180475Y309335I-2762J-632D01*
G01*
Y309335D02*
G03*
X180395Y309469I-2452J-1359D01*
G01*
D02*
G03*
X180329Y309570I-2348J-1477D01*
G01*
X180329Y309570D02*
G03*
X180268Y309654I-2258J-1562D01*
G01*
D02*
G03*
X180204Y309736I-2173J-1628D01*
G01*
D02*
G03*
X180149Y309802I-2086J-1691D01*
G01*
Y309802D02*
G03*
X180091Y309866I-2008J-1738D01*
G01*
X180091Y309866D02*
G03*
X180032Y309929I-1928J-1782D01*
G01*
X180020Y309941D02*
G03*
X179907Y310048I-1931J-1931D01*
G01*
X179907D02*
G03*
X179519Y310337I-1844J-2067D01*
G01*
X179519Y310337D02*
G03*
X179276Y310471I-1453J-2351D01*
G01*
Y310471D02*
G03*
X179134Y310535I-1197J-2457D01*
G01*
Y310535D02*
G03*
X178071Y310748I-1062J-2538D01*
G01*
X1073898Y300748D02*
G03*
X1073775Y300745I0J-2670D01*
G01*
Y300745D02*
G03*
X1073637Y300735I124J-2695D01*
G01*
X1073637Y300735D02*
G03*
X1073498Y300718I265J-2714D01*
G01*
D02*
G03*
X1073328Y300687I408J-2726D01*
G01*
X1073328Y300687D02*
G03*
X1072567Y300404I591J-2744D01*
G01*
X1072567D02*
G03*
X1072375Y300288I1341J-2444D01*
G01*
X1072375D02*
G03*
X1072248Y300199I1517J-2303D01*
G01*
D02*
G03*
X1072139Y300114I1627J-2190D01*
G01*
X1072139D02*
G03*
X1072048Y300035I1717J-2082D01*
G01*
Y300035D02*
G03*
X1071923Y299915I1784J-1976D01*
G01*
X1071923D02*
G03*
X1071841Y299826I1915J-1863D01*
G01*
X1071841D02*
G03*
X1071763Y299734I2020J-1794D01*
G01*
D02*
G03*
X1071678Y299625I2121J-1721D01*
G01*
D02*
G03*
X1071590Y299497I2229J-1629D01*
G01*
D02*
G03*
X1071263Y298794I2358J-1526D01*
G01*
D02*
G03*
X1071206Y298576I2667J-817D01*
G01*
X1071206Y298576D02*
G03*
X1071174Y298405I2695J-593D01*
G01*
X1071174D02*
G03*
X1071156Y298268I2698J-418D01*
G01*
D02*
G03*
X1071145Y298129I2686J-277D01*
G01*
D02*
G03*
X1071142Y298007I2668J-137D01*
G01*
D02*
G03*
X1071350Y296943I2755J-15D01*
G01*
X1071356Y296927D02*
G03*
X1071406Y296816I2512J1053D01*
G01*
D02*
G03*
X1071744Y296273I2508J1187D01*
G01*
D02*
G03*
X1071856Y296142I2154J1717D01*
G01*
X1071856Y296142D02*
G03*
X1071939Y296054I2021J1829D01*
G01*
X1071963Y296029D02*
G03*
X1072025Y295970I1842J1870D01*
G01*
D02*
G03*
X1072090Y295913I1800J1952D01*
G01*
X1072090D02*
G03*
X1072156Y295857I1755J2032D01*
G01*
Y295857D02*
G03*
X1072238Y295794I1708J2111D01*
G01*
X1072238Y295794D02*
G03*
X1072322Y295733I1644J2199D01*
G01*
D02*
G03*
X1072423Y295667I1576J2283D01*
G01*
X1072423D02*
G03*
X1073148Y295343I1505J2400D01*
G01*
D02*
G03*
X1073299Y295304I772J2695D01*
G01*
X1073299Y295304D02*
G03*
X1073418Y295280I615J2705D01*
G01*
X1073417Y295280D02*
G03*
X1073520Y295264I491J2701D01*
G01*
Y295264D02*
G03*
X1073623Y295251I384J2688D01*
G01*
Y295251D02*
G03*
X1073709Y295243I278J2670D01*
G01*
Y295243D02*
G03*
X1073795Y295238I190J2649D01*
G01*
D02*
G03*
X1073881Y295236I103J2624D01*
G01*
X1073916D02*
G03*
X1074766Y295377I-20J2767D01*
G01*
X1074766Y295377D02*
G03*
X1074945Y295443I-861J2599D01*
G01*
Y295443D02*
G03*
X1076441Y296931I-1047J2549D01*
G01*
X1076448Y296947D02*
G03*
X1076497Y297077I-2525J1034D01*
G01*
D02*
G03*
X1076630Y297632I-2616J919D01*
G01*
X1076630D02*
G03*
X1076649Y297838I-2736J362D01*
G01*
D02*
G03*
X1076653Y297976I-2726J154D01*
G01*
X1076653Y298011D02*
G03*
X1076651Y298097I-2625J-19D01*
G01*
X1076651Y298097D02*
G03*
X1076647Y298183I-2653J-106D01*
G01*
X1076647D02*
G03*
X1076639Y298269I-2678J-195D01*
G01*
D02*
G03*
X1076626Y298372I-2700J-284D01*
G01*
X1076626D02*
G03*
X1076610Y298475I-2717J-391D01*
G01*
D02*
G03*
X1076585Y298593I-2729J-499D01*
G01*
D02*
G03*
X1076301Y299335I-2762J-632D01*
G01*
Y299335D02*
G03*
X1076222Y299469I-2452J-1359D01*
G01*
D02*
G03*
X1076156Y299570I-2348J-1477D01*
G01*
Y299570D02*
G03*
X1076095Y299654I-2258J-1562D01*
G01*
X1076095D02*
G03*
X1076031Y299736I-2173J-1628D01*
G01*
Y299736D02*
G03*
X1075976Y299802I-2086J-1691D01*
G01*
X1075976D02*
G03*
X1075918Y299866I-2008J-1738D01*
G01*
Y299866D02*
G03*
X1075859Y299929I-1929J-1781D01*
G01*
X1075847Y299941D02*
G03*
X1075734Y300048I-1931J-1931D01*
G01*
D02*
G03*
X1075346Y300337I-1844J-2067D01*
G01*
D02*
G03*
X1075103Y300471I-1453J-2351D01*
G01*
D02*
G03*
X1074961Y300535I-1197J-2457D01*
G01*
D02*
G03*
X1073898Y300748I-1062J-2538D01*
G01*
X1063898D02*
G03*
X1063776Y300745I0J-2670D01*
G01*
Y300745D02*
G03*
X1063636Y300735I124J-2695D01*
G01*
X1063636Y300735D02*
G03*
X1063498Y300718I265J-2714D01*
G01*
D02*
G03*
X1063328Y300687I408J-2726D01*
G01*
X1063328Y300687D02*
G03*
X1062567Y300404I591J-2744D01*
G01*
X1062567D02*
G03*
X1062375Y300288I1341J-2444D01*
G01*
X1062375D02*
G03*
X1062248Y300199I1517J-2303D01*
G01*
D02*
G03*
X1062139Y300114I1627J-2190D01*
G01*
X1062139D02*
G03*
X1062047Y300035I1717J-2082D01*
G01*
Y300035D02*
G03*
X1061923Y299915I1784J-1976D01*
G01*
X1061923D02*
G03*
X1061841Y299826I1915J-1863D01*
G01*
X1061841D02*
G03*
X1061763Y299734I2020J-1794D01*
G01*
D02*
G03*
X1061678Y299625I2121J-1721D01*
G01*
D02*
G03*
X1061590Y299497I2229J-1629D01*
G01*
D02*
G03*
X1061263Y298794I2358J-1526D01*
G01*
D02*
G03*
X1061206Y298576I2667J-817D01*
G01*
X1061206Y298576D02*
G03*
X1061174Y298405I2695J-593D01*
G01*
X1061174D02*
G03*
X1061156Y298268I2698J-418D01*
G01*
D02*
G03*
X1061145Y298129I2686J-277D01*
G01*
D02*
G03*
X1061142Y298007I2668J-137D01*
G01*
D02*
G03*
X1061349Y296943I2755J-15D01*
G01*
X1061356Y296927D02*
G03*
X1061405Y296816I2512J1053D01*
G01*
D02*
G03*
X1061744Y296273I2508J1187D01*
G01*
D02*
G03*
X1061856Y296142I2154J1717D01*
G01*
X1061856Y296142D02*
G03*
X1061939Y296054I2021J1829D01*
G01*
X1061963Y296029D02*
G03*
X1062026Y295970I1842J1870D01*
G01*
D02*
G03*
X1062090Y295913I1800J1952D01*
G01*
X1062090D02*
G03*
X1062156Y295857I1755J2032D01*
G01*
Y295857D02*
G03*
X1062238Y295794I1708J2111D01*
G01*
X1062238Y295794D02*
G03*
X1062322Y295733I1644J2199D01*
G01*
D02*
G03*
X1062423Y295667I1576J2283D01*
G01*
X1062423D02*
G03*
X1063148Y295343I1505J2400D01*
G01*
D02*
G03*
X1063299Y295304I772J2695D01*
G01*
X1063299Y295304D02*
G03*
X1063418Y295280I615J2705D01*
G01*
X1063418Y295280D02*
G03*
X1063520Y295264I491J2701D01*
G01*
Y295264D02*
G03*
X1063623Y295251I384J2688D01*
G01*
Y295251D02*
G03*
X1063709Y295243I278J2670D01*
G01*
Y295243D02*
G03*
X1063795Y295238I190J2649D01*
G01*
D02*
G03*
X1063881Y295236I103J2624D01*
G01*
X1063916D02*
G03*
X1064766Y295377I-20J2767D01*
G01*
X1064766Y295377D02*
G03*
X1064945Y295443I-861J2599D01*
G01*
Y295443D02*
G03*
X1066441Y296931I-1047J2549D01*
G01*
X1066448Y296947D02*
G03*
X1066497Y297077I-2525J1034D01*
G01*
D02*
G03*
X1066630Y297632I-2616J919D01*
G01*
X1066630D02*
G03*
X1066649Y297838I-2736J362D01*
G01*
D02*
G03*
X1066654Y297976I-2726J154D01*
G01*
X1066654Y297994D02*
G03*
X1066652Y298080I-2619J-1D01*
G01*
D02*
G03*
X1066648Y298166I-2648J-89D01*
G01*
X1066648D02*
G03*
X1066641Y298252I-2673J-177D01*
G01*
Y298252D02*
G03*
X1066629Y298355I-2697J-266D01*
G01*
D02*
G03*
X1066613Y298458I-2715J-373D01*
G01*
D02*
G03*
X1066589Y298576I-2728J-481D01*
G01*
X1066589Y298576D02*
G03*
X1066293Y299350I-2765J-614D01*
G01*
X1066293Y299350D02*
G03*
X1066213Y299483I-2441J-1372D01*
G01*
Y299483D02*
G03*
X1066146Y299584I-2335J-1489D01*
G01*
D02*
G03*
X1066085Y299668I-2244J-1573D01*
G01*
X1066085D02*
G03*
X1066020Y299749I-2158J-1638D01*
G01*
X1066020D02*
G03*
X1065965Y299815I-2070J-1700D01*
G01*
X1065965Y299815D02*
G03*
X1065907Y299879I-1993J-1747D01*
G01*
D02*
G03*
X1065847Y299941I-1912J-1790D01*
G01*
D02*
G03*
X1065734Y300048I-1931J-1931D01*
G01*
D02*
G03*
X1065346Y300337I-1844J-2067D01*
G01*
D02*
G03*
X1065103Y300471I-1453J-2351D01*
G01*
D02*
G03*
X1064961Y300535I-1197J-2457D01*
G01*
D02*
G03*
X1063898Y300748I-1062J-2538D01*
G01*
X178071D02*
G03*
X177949Y300745I0J-2663D01*
G01*
D02*
G03*
X177827Y300737I124J-2689D01*
G01*
D02*
G03*
X177689Y300721I248J-2710D01*
G01*
X177689Y300721D02*
G03*
X177534Y300694I391J-2723D01*
G01*
X177534D02*
G03*
X176680Y300369I558J-2754D01*
G01*
Y300369D02*
G03*
X176518Y300268I1399J-2405D01*
G01*
Y300268D02*
G03*
X176406Y300187I1543J-2279D01*
G01*
D02*
G03*
X176311Y300113I1639J-2176D01*
G01*
Y300113D02*
G03*
X176220Y300034I1715J-2078D01*
G01*
D02*
G03*
X176107Y299926I1781J-1972D01*
G01*
D02*
G03*
X176036Y299851I1899J-1869D01*
G01*
D02*
G03*
X175957Y299760I1991J-1813D01*
G01*
D02*
G03*
X175871Y299651I2094J-1741D01*
G01*
D02*
G03*
X175782Y299524I2204J-1651D01*
G01*
X175782Y299524D02*
G03*
X175421Y298742I2340J-1553D01*
G01*
D02*
G03*
X175371Y298540I2677J-765D01*
G01*
X175371D02*
G03*
X175344Y298387I2698J-557D01*
G01*
X175344D02*
G03*
X175327Y298249I2697J-399D01*
G01*
D02*
G03*
X175318Y298110I2684J-258D01*
G01*
D02*
G03*
X175315Y297988I2665J-118D01*
G01*
D02*
G03*
X175523Y296942I2755J4D01*
G01*
X175530Y296926D02*
G03*
X175579Y296815I2512J1055D01*
G01*
D02*
G03*
X175928Y296259I2507J1188D01*
G01*
Y296259D02*
G03*
X176041Y296128I2141J1729D01*
G01*
D02*
G03*
X176125Y296041I2005J1840D01*
G01*
D02*
G03*
X176187Y295981I1849J1855D01*
G01*
X176187Y295981D02*
G03*
X176251Y295923I1808J1937D01*
G01*
X176251Y295923D02*
G03*
X176317Y295867I1764J2017D01*
G01*
D02*
G03*
X176398Y295803I1717J2096D01*
G01*
Y295803D02*
G03*
X176482Y295742I1654J2185D01*
G01*
D02*
G03*
X176583Y295675I1588J2270D01*
G01*
D02*
G03*
X177339Y295338I1519J2391D01*
G01*
X177339Y295338D02*
G03*
X177490Y295300I754J2697D01*
G01*
X177490Y295300D02*
G03*
X177609Y295277I596J2705D01*
G01*
X177609Y295277D02*
G03*
X177711Y295261I472J2699D01*
G01*
X177711D02*
G03*
X177814Y295249I366J2685D01*
G01*
D02*
G03*
X177900Y295242I260J2667D01*
G01*
D02*
G03*
X177987Y295238I172J2644D01*
G01*
D02*
G03*
X178073Y295236I85J2618D01*
G01*
X178090Y295236D02*
G03*
X178940Y295377I-21J2767D01*
G01*
D02*
G03*
X179119Y295443I-862J2599D01*
G01*
Y295443D02*
G03*
X180021Y296045I-1046J2546D01*
G01*
D02*
G03*
X180665Y297061I-1948J1946D01*
G01*
D02*
G03*
X180807Y297667I-2610J934D01*
G01*
D02*
G03*
X180823Y297856I-2737J327D01*
G01*
D02*
G03*
X180827Y297994I-2723J136D01*
G01*
D02*
G03*
X180825Y298080I-2619J-2D01*
G01*
D02*
G03*
X180821Y298167I-2648J-89D01*
G01*
D02*
G03*
X180814Y298253I-2673J-177D01*
G01*
X180814D02*
G03*
X180802Y298356I-2696J-266D01*
G01*
D02*
G03*
X180786Y298458I-2715J-374D01*
G01*
X180786D02*
G03*
X180762Y298577I-2728J-481D01*
G01*
X180762D02*
G03*
X180466Y299350I-2765J-615D01*
G01*
Y299350D02*
G03*
X180386Y299483I-2441J-1372D01*
G01*
Y299483D02*
G03*
X180319Y299584I-2335J-1490D01*
G01*
D02*
G03*
X180258Y299668I-2244J-1573D01*
G01*
D02*
G03*
X180193Y299749I-2158J-1638D01*
G01*
X180193D02*
G03*
X180138Y299815I-2070J-1700D01*
G01*
X180138D02*
G03*
X180080Y299879I-1992J-1747D01*
G01*
D02*
G03*
X180020Y299941I-1912J-1790D01*
G01*
D02*
G03*
X179907Y300048I-1931J-1931D01*
G01*
X179907D02*
G03*
X179519Y300337I-1844J-2067D01*
G01*
X179519Y300337D02*
G03*
X179276Y300471I-1453J-2351D01*
G01*
Y300471D02*
G03*
X179134Y300535I-1197J-2457D01*
G01*
Y300535D02*
G03*
X178071Y300748I-1062J-2538D01*
G01*
X188071D02*
G03*
X187949Y300745I0J-2663D01*
G01*
D02*
G03*
X187827Y300737I124J-2689D01*
G01*
D02*
G03*
X187689Y300721I248J-2710D01*
G01*
X187689Y300721D02*
G03*
X187534Y300694I391J-2723D01*
G01*
X187534D02*
G03*
X186679Y300369I558J-2754D01*
G01*
Y300369D02*
G03*
X186519Y300268I1399J-2405D01*
G01*
Y300268D02*
G03*
X186406Y300187I1543J-2279D01*
G01*
D02*
G03*
X186311Y300113I1639J-2176D01*
G01*
Y300113D02*
G03*
X186220Y300034I1715J-2078D01*
G01*
D02*
G03*
X186107Y299926I1781J-1972D01*
G01*
D02*
G03*
X186036Y299851I1899J-1869D01*
G01*
D02*
G03*
X185957Y299760I1991J-1813D01*
G01*
D02*
G03*
X185871Y299651I2094J-1741D01*
G01*
D02*
G03*
X185782Y299524I2204J-1651D01*
G01*
X185782Y299524D02*
G03*
X185421Y298742I2340J-1553D01*
G01*
D02*
G03*
X185371Y298540I2677J-765D01*
G01*
X185371D02*
G03*
X185344Y298387I2698J-557D01*
G01*
X185344D02*
G03*
X185327Y298249I2697J-399D01*
G01*
D02*
G03*
X185318Y298110I2684J-258D01*
G01*
D02*
G03*
X185315Y297988I2665J-118D01*
G01*
D02*
G03*
X185523Y296942I2755J4D01*
G01*
X185530Y296926D02*
G03*
X185579Y296815I2512J1055D01*
G01*
D02*
G03*
X185928Y296259I2507J1188D01*
G01*
Y296259D02*
G03*
X186041Y296128I2141J1729D01*
G01*
D02*
G03*
X186125Y296041I2005J1840D01*
G01*
D02*
G03*
X186187Y295981I1849J1855D01*
G01*
X186187Y295981D02*
G03*
X186251Y295923I1808J1937D01*
G01*
X186251Y295923D02*
G03*
X186317Y295867I1764J2017D01*
G01*
D02*
G03*
X186398Y295803I1717J2096D01*
G01*
Y295803D02*
G03*
X186482Y295742I1654J2185D01*
G01*
D02*
G03*
X186583Y295675I1588J2270D01*
G01*
D02*
G03*
X187339Y295338I1519J2391D01*
G01*
X187339Y295338D02*
G03*
X187490Y295300I754J2697D01*
G01*
X187490Y295300D02*
G03*
X187609Y295277I596J2705D01*
G01*
X187609Y295277D02*
G03*
X187711Y295261I472J2699D01*
G01*
X187711D02*
G03*
X187814Y295249I366J2685D01*
G01*
D02*
G03*
X187900Y295242I260J2667D01*
G01*
D02*
G03*
X187987Y295238I172J2644D01*
G01*
D02*
G03*
X188073Y295236I85J2618D01*
G01*
X188090Y295236D02*
G03*
X188940Y295377I-21J2767D01*
G01*
D02*
G03*
X189119Y295443I-862J2599D01*
G01*
Y295443D02*
G03*
X190615Y296932I-1048J2549D01*
G01*
X190621Y296948D02*
G03*
X190671Y297077I-2525J1034D01*
G01*
X190671D02*
G03*
X190803Y297632I-2616J918D01*
G01*
D02*
G03*
X190823Y297839I-2736J362D01*
G01*
X190823Y297839D02*
G03*
X190827Y297977I-2726J154D01*
G01*
X190827Y298011D02*
G03*
X190825Y298098I-2625J-19D01*
G01*
X190825D02*
G03*
X190820Y298184I-2653J-107D01*
G01*
D02*
G03*
X190812Y298270I-2678J-195D01*
G01*
Y298270D02*
G03*
X190799Y298373I-2700J-284D01*
G01*
D02*
G03*
X190783Y298475I-2717J-391D01*
G01*
X190783D02*
G03*
X190758Y298593I-2729J-499D01*
G01*
D02*
G03*
X190475Y299335I-2762J-632D01*
G01*
Y299335D02*
G03*
X190395Y299469I-2452J-1359D01*
G01*
D02*
G03*
X190329Y299570I-2348J-1477D01*
G01*
X190329Y299570D02*
G03*
X190268Y299654I-2258J-1562D01*
G01*
D02*
G03*
X190204Y299736I-2173J-1628D01*
G01*
D02*
G03*
X190149Y299802I-2086J-1691D01*
G01*
Y299802D02*
G03*
X190091Y299866I-2008J-1738D01*
G01*
X190091Y299866D02*
G03*
X190032Y299929I-1928J-1782D01*
G01*
X190020Y299941D02*
G03*
X189907Y300048I-1931J-1931D01*
G01*
X189907D02*
G03*
X189519Y300337I-1844J-2067D01*
G01*
X189519Y300337D02*
G03*
X189276Y300471I-1453J-2351D01*
G01*
Y300471D02*
G03*
X189134Y300535I-1197J-2457D01*
G01*
Y300535D02*
G03*
X188071Y300748I-1062J-2538D01*
G01*
X1073898Y290748D02*
G03*
X1073775Y290745I0J-2670D01*
G01*
Y290745D02*
G03*
X1073637Y290735I124J-2695D01*
G01*
X1073637Y290735D02*
G03*
X1073498Y290718I265J-2714D01*
G01*
D02*
G03*
X1073328Y290687I408J-2726D01*
G01*
X1073328Y290687D02*
G03*
X1072567Y290404I591J-2744D01*
G01*
X1072567D02*
G03*
X1072375Y290288I1341J-2444D01*
G01*
X1072375D02*
G03*
X1072248Y290199I1517J-2303D01*
G01*
D02*
G03*
X1072139Y290114I1627J-2190D01*
G01*
X1072139D02*
G03*
X1072048Y290035I1717J-2082D01*
G01*
Y290035D02*
G03*
X1071923Y289915I1784J-1976D01*
G01*
X1071923D02*
G03*
X1071841Y289826I1915J-1863D01*
G01*
X1071841D02*
G03*
X1071763Y289734I2020J-1794D01*
G01*
D02*
G03*
X1071678Y289625I2121J-1721D01*
G01*
D02*
G03*
X1071590Y289497I2229J-1629D01*
G01*
D02*
G03*
X1071263Y288794I2358J-1526D01*
G01*
D02*
G03*
X1071206Y288576I2667J-817D01*
G01*
X1071206Y288576D02*
G03*
X1071174Y288405I2695J-593D01*
G01*
X1071174D02*
G03*
X1071156Y288267I2698J-418D01*
G01*
D02*
G03*
X1071145Y288129I2686J-277D01*
G01*
D02*
G03*
X1071142Y288007I2668J-137D01*
G01*
D02*
G03*
X1071350Y286943I2755J-15D01*
G01*
X1071356Y286927D02*
G03*
X1071406Y286816I2512J1053D01*
G01*
D02*
G03*
X1071744Y286273I2508J1187D01*
G01*
D02*
G03*
X1071856Y286142I2154J1717D01*
G01*
X1071856Y286142D02*
G03*
X1071939Y286054I2021J1829D01*
G01*
X1071963Y286030D02*
G03*
X1072025Y285970I1842J1870D01*
G01*
D02*
G03*
X1072090Y285913I1800J1952D01*
G01*
X1072090D02*
G03*
X1072156Y285857I1755J2032D01*
G01*
Y285857D02*
G03*
X1072238Y285794I1708J2111D01*
G01*
X1072238Y285794D02*
G03*
X1072322Y285733I1644J2199D01*
G01*
D02*
G03*
X1072423Y285666I1576J2283D01*
G01*
X1072423D02*
G03*
X1073148Y285343I1505J2400D01*
G01*
D02*
G03*
X1073299Y285304I772J2695D01*
G01*
X1073299Y285304D02*
G03*
X1073418Y285280I615J2705D01*
G01*
X1073417Y285280D02*
G03*
X1073520Y285263I491J2701D01*
G01*
Y285263D02*
G03*
X1073623Y285251I384J2688D01*
G01*
Y285251D02*
G03*
X1073709Y285243I278J2670D01*
G01*
Y285243D02*
G03*
X1073795Y285238I190J2649D01*
G01*
D02*
G03*
X1073881Y285236I103J2624D01*
G01*
X1073916D02*
G03*
X1074766Y285377I-20J2767D01*
G01*
X1074766Y285377D02*
G03*
X1074945Y285443I-861J2599D01*
G01*
Y285443D02*
G03*
X1076441Y286931I-1047J2549D01*
G01*
X1076448Y286947D02*
G03*
X1076497Y287077I-2525J1034D01*
G01*
D02*
G03*
X1076630Y287632I-2616J919D01*
G01*
X1076630D02*
G03*
X1076649Y287838I-2736J362D01*
G01*
D02*
G03*
X1076653Y287977I-2726J154D01*
G01*
X1076653Y288011D02*
G03*
X1076651Y288097I-2625J-19D01*
G01*
X1076651Y288097D02*
G03*
X1076647Y288183I-2653J-106D01*
G01*
X1076647D02*
G03*
X1076639Y288269I-2678J-195D01*
G01*
D02*
G03*
X1076626Y288372I-2700J-284D01*
G01*
X1076626D02*
G03*
X1076610Y288475I-2717J-391D01*
G01*
D02*
G03*
X1076585Y288593I-2729J-499D01*
G01*
D02*
G03*
X1076301Y289335I-2762J-632D01*
G01*
Y289335D02*
G03*
X1076222Y289469I-2452J-1359D01*
G01*
D02*
G03*
X1076156Y289570I-2348J-1477D01*
G01*
Y289570D02*
G03*
X1076095Y289654I-2258J-1562D01*
G01*
X1076095D02*
G03*
X1076031Y289736I-2173J-1628D01*
G01*
Y289736D02*
G03*
X1075976Y289802I-2086J-1691D01*
G01*
X1075976D02*
G03*
X1075918Y289866I-2008J-1738D01*
G01*
Y289866D02*
G03*
X1075859Y289929I-1929J-1781D01*
G01*
X1075847Y289941D02*
G03*
X1075734Y290048I-1931J-1931D01*
G01*
D02*
G03*
X1075346Y290337I-1844J-2067D01*
G01*
D02*
G03*
X1075103Y290471I-1453J-2351D01*
G01*
D02*
G03*
X1074961Y290535I-1197J-2457D01*
G01*
D02*
G03*
X1073898Y290748I-1062J-2538D01*
G01*
X188071D02*
G03*
X187949Y290745I0J-2663D01*
G01*
D02*
G03*
X187827Y290737I124J-2689D01*
G01*
D02*
G03*
X187689Y290721I248J-2710D01*
G01*
X187689Y290721D02*
G03*
X187534Y290694I391J-2723D01*
G01*
X187534D02*
G03*
X186679Y290369I558J-2754D01*
G01*
Y290369D02*
G03*
X186519Y290268I1399J-2405D01*
G01*
Y290268D02*
G03*
X186406Y290187I1543J-2279D01*
G01*
D02*
G03*
X186311Y290113I1639J-2176D01*
G01*
Y290113D02*
G03*
X186220Y290034I1715J-2078D01*
G01*
D02*
G03*
X186107Y289926I1781J-1972D01*
G01*
D02*
G03*
X186036Y289851I1899J-1869D01*
G01*
D02*
G03*
X185957Y289760I1991J-1813D01*
G01*
D02*
G03*
X185871Y289651I2094J-1741D01*
G01*
D02*
G03*
X185782Y289524I2204J-1651D01*
G01*
X185782Y289524D02*
G03*
X185421Y288742I2340J-1553D01*
G01*
D02*
G03*
X185371Y288541I2677J-765D01*
G01*
X185371D02*
G03*
X185344Y288387I2698J-557D01*
G01*
X185344D02*
G03*
X185327Y288249I2697J-399D01*
G01*
D02*
G03*
X185318Y288110I2684J-258D01*
G01*
D02*
G03*
X185315Y287988I2665J-118D01*
G01*
D02*
G03*
X185523Y286942I2755J4D01*
G01*
X185530Y286926D02*
G03*
X185579Y286815I2512J1055D01*
G01*
D02*
G03*
X185928Y286259I2507J1188D01*
G01*
Y286259D02*
G03*
X186041Y286128I2141J1729D01*
G01*
D02*
G03*
X186125Y286041I2005J1840D01*
G01*
D02*
G03*
X186187Y285981I1849J1855D01*
G01*
X186187Y285981D02*
G03*
X186251Y285923I1808J1937D01*
G01*
X186251Y285923D02*
G03*
X186317Y285867I1764J2017D01*
G01*
D02*
G03*
X186398Y285803I1717J2096D01*
G01*
Y285803D02*
G03*
X186482Y285742I1654J2185D01*
G01*
D02*
G03*
X186583Y285675I1588J2270D01*
G01*
D02*
G03*
X187339Y285338I1519J2391D01*
G01*
X187339Y285338D02*
G03*
X187490Y285300I754J2697D01*
G01*
X187490Y285300D02*
G03*
X187609Y285277I596J2705D01*
G01*
X187609Y285277D02*
G03*
X187711Y285261I472J2699D01*
G01*
X187711D02*
G03*
X187814Y285249I366J2685D01*
G01*
D02*
G03*
X187900Y285242I260J2667D01*
G01*
D02*
G03*
X187987Y285238I172J2644D01*
G01*
D02*
G03*
X188073Y285236I85J2618D01*
G01*
X188090Y285236D02*
G03*
X188940Y285377I-21J2767D01*
G01*
D02*
G03*
X189119Y285443I-862J2599D01*
G01*
Y285443D02*
G03*
X190021Y286045I-1046J2546D01*
G01*
D02*
G03*
X190665Y287061I-1948J1946D01*
G01*
D02*
G03*
X190807Y287667I-2610J934D01*
G01*
D02*
G03*
X190823Y287856I-2737J327D01*
G01*
D02*
G03*
X190827Y287994I-2723J136D01*
G01*
D02*
G03*
X190825Y288081I-2619J-2D01*
G01*
D02*
G03*
X190821Y288167I-2648J-89D01*
G01*
D02*
G03*
X190814Y288253I-2673J-177D01*
G01*
X190814D02*
G03*
X190802Y288355I-2696J-266D01*
G01*
D02*
G03*
X190786Y288458I-2715J-374D01*
G01*
X190786D02*
G03*
X190762Y288577I-2728J-481D01*
G01*
X190762D02*
G03*
X190466Y289350I-2765J-615D01*
G01*
Y289350D02*
G03*
X190386Y289483I-2441J-1372D01*
G01*
Y289483D02*
G03*
X190319Y289584I-2335J-1490D01*
G01*
D02*
G03*
X190258Y289668I-2244J-1573D01*
G01*
D02*
G03*
X190193Y289749I-2158J-1638D01*
G01*
X190193D02*
G03*
X190138Y289815I-2070J-1700D01*
G01*
X190138D02*
G03*
X190080Y289879I-1992J-1747D01*
G01*
D02*
G03*
X190020Y289941I-1912J-1790D01*
G01*
D02*
G03*
X189907Y290048I-1931J-1931D01*
G01*
X189907D02*
G03*
X189519Y290337I-1844J-2067D01*
G01*
X189519Y290337D02*
G03*
X189276Y290471I-1453J-2351D01*
G01*
Y290471D02*
G03*
X189134Y290535I-1197J-2457D01*
G01*
Y290535D02*
G03*
X188071Y290748I-1062J-2538D01*
G01*
X178036Y290748D02*
G03*
X177914Y290744I35J-2671D01*
G01*
X177914Y290744D02*
G03*
X177792Y290734I159J-2695D01*
G01*
X177792D02*
G03*
X177654Y290716I284J-2714D01*
G01*
D02*
G03*
X177500Y290687I426J-2725D01*
G01*
D02*
G03*
X176725Y290395I593J-2748D01*
G01*
Y290395D02*
G03*
X176547Y290287I1357J-2436D01*
G01*
Y290287D02*
G03*
X176420Y290198I1518J-2302D01*
G01*
D02*
G03*
X176324Y290124I1627J-2189D01*
G01*
X176324Y290124D02*
G03*
X176232Y290045I1704J-2092D01*
G01*
Y290045D02*
G03*
X176095Y289914I1769J-1984D01*
G01*
Y289914D02*
G03*
X176013Y289825I1916J-1861D01*
G01*
D02*
G03*
X175935Y289733I2021J-1793D01*
G01*
X175935D02*
G03*
X175851Y289624I2122J-1719D01*
G01*
Y289624D02*
G03*
X175763Y289496I2230J-1627D01*
G01*
X175763D02*
G03*
X175436Y288792I2359J-1525D01*
G01*
X175436Y288792D02*
G03*
X175379Y288574I2667J-816D01*
G01*
D02*
G03*
X175347Y288404I2695J-592D01*
G01*
X175347Y288404D02*
G03*
X175329Y288266I2698J-416D01*
G01*
Y288266D02*
G03*
X175319Y288127I2686J-276D01*
G01*
D02*
G03*
X175315Y288005I2668J-135D01*
G01*
D02*
G03*
X175523Y286942I2755J-13D01*
G01*
X175530Y286926D02*
G03*
X175579Y286815I2512J1055D01*
G01*
D02*
G03*
X175918Y286273I2507J1188D01*
G01*
X175918D02*
G03*
X176030Y286141I2154J1718D01*
G01*
X176030D02*
G03*
X176113Y286053I2020J1830D01*
G01*
X176137Y286029D02*
G03*
X176200Y285969I1841J1871D01*
G01*
X176200Y285969D02*
G03*
X176264Y285912I1799J1953D01*
G01*
X176264Y285912D02*
G03*
X176330Y285857I1754J2032D01*
G01*
Y285857D02*
G03*
X176412Y285793I1707J2111D01*
G01*
X176412D02*
G03*
X176496Y285733I1643J2199D01*
G01*
D02*
G03*
X176597Y285666I1576J2284D01*
G01*
X176597Y285666D02*
G03*
X177322Y285343I1505J2401D01*
G01*
X177322D02*
G03*
X177473Y285304I771J2695D01*
G01*
D02*
G03*
X177592Y285280I614J2705D01*
G01*
Y285280D02*
G03*
X177694Y285263I490J2701D01*
G01*
X177694D02*
G03*
X177797Y285251I384J2688D01*
G01*
Y285251D02*
G03*
X177883Y285243I277J2671D01*
G01*
Y285243D02*
G03*
X177969Y285238I189J2649D01*
G01*
X177969D02*
G03*
X178056Y285236I102J2624D01*
G01*
X178090Y285236D02*
G03*
X178940Y285377I-21J2767D01*
G01*
D02*
G03*
X179119Y285443I-862J2599D01*
G01*
Y285443D02*
G03*
X180615Y286932I-1048J2549D01*
G01*
X180621Y286948D02*
G03*
X180670Y287077I-2525J1034D01*
G01*
X180670D02*
G03*
X180803Y287632I-2616J918D01*
G01*
D02*
G03*
X180823Y287839I-2736J362D01*
G01*
X180823Y287839D02*
G03*
X180827Y287977I-2726J154D01*
G01*
X180827Y288012D02*
G03*
X180825Y288098I-2625J-19D01*
G01*
X180825D02*
G03*
X180820Y288184I-2653J-107D01*
G01*
D02*
G03*
X180812Y288270I-2678J-195D01*
G01*
Y288270D02*
G03*
X180799Y288373I-2700J-284D01*
G01*
D02*
G03*
X180783Y288475I-2717J-391D01*
G01*
X180783D02*
G03*
X180758Y288594I-2729J-499D01*
G01*
D02*
G03*
X180475Y289335I-2762J-632D01*
G01*
Y289335D02*
G03*
X180395Y289469I-2452J-1359D01*
G01*
D02*
G03*
X180329Y289570I-2348J-1477D01*
G01*
X180329Y289570D02*
G03*
X180268Y289654I-2258J-1562D01*
G01*
D02*
G03*
X180204Y289736I-2173J-1628D01*
G01*
D02*
G03*
X180149Y289802I-2086J-1691D01*
G01*
Y289802D02*
G03*
X180091Y289866I-2008J-1738D01*
G01*
X180091Y289866D02*
G03*
X180032Y289929I-1928J-1782D01*
G01*
X180020Y289941D02*
G03*
X179907Y290048I-1931J-1931D01*
G01*
X179907D02*
G03*
X179519Y290337I-1844J-2067D01*
G01*
X179519Y290337D02*
G03*
X179276Y290471I-1453J-2351D01*
G01*
Y290471D02*
G03*
X179134Y290535I-1197J-2457D01*
G01*
Y290535D02*
G03*
X178071Y290748I-1062J-2538D01*
G01*
X1063898D02*
G03*
X1063793Y290746I0J-2668D01*
G01*
D02*
G03*
X1063654Y290737I106J-2692D01*
G01*
Y290737D02*
G03*
X1063516Y290721I248J-2712D01*
G01*
X1063516D02*
G03*
X1063344Y290691I390J-2725D01*
G01*
D02*
G03*
X1062537Y290387I574J-2748D01*
G01*
D02*
G03*
X1062361Y290278I1369J-2424D01*
G01*
D02*
G03*
X1062234Y290188I1530J-2290D01*
G01*
D02*
G03*
X1062126Y290103I1638J-2176D01*
G01*
D02*
G03*
X1062035Y290023I1727J-2068D01*
G01*
Y290023D02*
G03*
X1061935Y289927I1796J-1964D01*
G01*
Y289927D02*
G03*
X1061864Y289852I1898J-1870D01*
G01*
X1061864Y289852D02*
G03*
X1061785Y289761I1990J-1814D01*
G01*
D02*
G03*
X1061699Y289653I2093J-1743D01*
G01*
D02*
G03*
X1061609Y289526I2203J-1653D01*
G01*
X1061609D02*
G03*
X1061248Y288744I2339J-1555D01*
G01*
D02*
G03*
X1061198Y288542I2676J-766D01*
G01*
X1061199D02*
G03*
X1061171Y288388I2698J-558D01*
G01*
X1061171Y288388D02*
G03*
X1061154Y288250I2697J-400D01*
G01*
D02*
G03*
X1061144Y288111I2684J-259D01*
G01*
D02*
G03*
X1061142Y287989I2665J-119D01*
G01*
D02*
G03*
X1061349Y286943I2755J3D01*
G01*
X1061356Y286927D02*
G03*
X1061405Y286816I2512J1053D01*
G01*
D02*
G03*
X1061755Y286260I2508J1187D01*
G01*
D02*
G03*
X1061867Y286129I2141J1729D01*
G01*
Y286129D02*
G03*
X1061951Y286042I2006J1839D01*
G01*
D02*
G03*
X1062013Y285982I1850J1854D01*
G01*
Y285982D02*
G03*
X1062077Y285924I1809J1936D01*
G01*
D02*
G03*
X1062143Y285868I1764J2016D01*
G01*
D02*
G03*
X1062224Y285804I1718J2096D01*
G01*
D02*
G03*
X1062308Y285743I1655J2184D01*
G01*
Y285743D02*
G03*
X1062409Y285676I1588J2270D01*
G01*
Y285676D02*
G03*
X1063165Y285338I1520J2390D01*
G01*
X1063165D02*
G03*
X1063316Y285301I755J2696D01*
G01*
D02*
G03*
X1063435Y285277I597J2705D01*
G01*
X1063435D02*
G03*
X1063537Y285261I473J2699D01*
G01*
Y285261D02*
G03*
X1063640Y285249I367J2685D01*
G01*
D02*
G03*
X1063726Y285242I261J2667D01*
G01*
Y285242D02*
G03*
X1063812Y285238I173J2644D01*
G01*
D02*
G03*
X1063899Y285236I85J2618D01*
G01*
X1063916Y285236D02*
G03*
X1064766Y285377I-20J2767D01*
G01*
X1064766Y285377D02*
G03*
X1064945Y285443I-861J2599D01*
G01*
D02*
G03*
X1065847Y286045I-1045J2546D01*
G01*
Y286045D02*
G03*
X1066491Y287061I-1947J1946D01*
G01*
D02*
G03*
X1066634Y287666I-2610J935D01*
G01*
D02*
G03*
X1066650Y287856I-2737J328D01*
G01*
X1066650D02*
G03*
X1066654Y287994I-2723J137D01*
G01*
X1066654Y288011D02*
G03*
X1066652Y288097I-2625J-19D01*
G01*
X1066652Y288097D02*
G03*
X1066647Y288183I-2653J-106D01*
G01*
X1066647D02*
G03*
X1066639Y288269I-2678J-195D01*
G01*
D02*
G03*
X1066626Y288372I-2700J-284D01*
G01*
X1066626D02*
G03*
X1066609Y288475I-2717J-391D01*
G01*
D02*
G03*
X1066585Y288593I-2729J-499D01*
G01*
D02*
G03*
X1066302Y289335I-2762J-632D01*
G01*
Y289335D02*
G03*
X1066222Y289469I-2452J-1359D01*
G01*
D02*
G03*
X1066156Y289570I-2348J-1477D01*
G01*
Y289570D02*
G03*
X1066095Y289654I-2258J-1562D01*
G01*
X1066095D02*
G03*
X1066031Y289736I-2173J-1628D01*
G01*
Y289736D02*
G03*
X1065976Y289802I-2086J-1691D01*
G01*
X1065976D02*
G03*
X1065918Y289866I-2008J-1738D01*
G01*
Y289866D02*
G03*
X1065859Y289929I-1929J-1781D01*
G01*
X1065847Y289941D02*
G03*
X1065734Y290048I-1931J-1931D01*
G01*
D02*
G03*
X1065346Y290337I-1844J-2067D01*
G01*
D02*
G03*
X1065103Y290471I-1453J-2351D01*
G01*
D02*
G03*
X1064961Y290535I-1197J-2457D01*
G01*
D02*
G03*
X1063898Y290748I-1062J-2538D01*
G01*
X188071Y280748D02*
G03*
X187949Y280745I0J-2663D01*
G01*
D02*
G03*
X187827Y280737I124J-2689D01*
G01*
D02*
G03*
X187689Y280721I248J-2710D01*
G01*
X187689Y280721D02*
G03*
X187534Y280694I391J-2723D01*
G01*
X187534D02*
G03*
X186679Y280369I558J-2754D01*
G01*
Y280369D02*
G03*
X186519Y280268I1399J-2405D01*
G01*
Y280268D02*
G03*
X186406Y280187I1543J-2279D01*
G01*
D02*
G03*
X186311Y280113I1639J-2176D01*
G01*
Y280113D02*
G03*
X186220Y280034I1715J-2078D01*
G01*
D02*
G03*
X186107Y279926I1781J-1972D01*
G01*
D02*
G03*
X186036Y279851I1899J-1869D01*
G01*
D02*
G03*
X185957Y279760I1991J-1813D01*
G01*
D02*
G03*
X185871Y279651I2094J-1741D01*
G01*
D02*
G03*
X185782Y279524I2204J-1651D01*
G01*
X185782Y279524D02*
G03*
X185421Y278742I2340J-1553D01*
G01*
D02*
G03*
X185371Y278540I2677J-765D01*
G01*
X185371D02*
G03*
X185344Y278387I2698J-557D01*
G01*
X185344D02*
G03*
X185327Y278249I2697J-399D01*
G01*
D02*
G03*
X185318Y278110I2684J-258D01*
G01*
D02*
G03*
X185315Y277988I2665J-118D01*
G01*
D02*
G03*
X185523Y276942I2755J4D01*
G01*
X185530Y276926D02*
G03*
X185579Y276815I2512J1055D01*
G01*
D02*
G03*
X185928Y276259I2507J1188D01*
G01*
Y276259D02*
G03*
X186041Y276128I2141J1729D01*
G01*
D02*
G03*
X186125Y276041I2005J1840D01*
G01*
D02*
G03*
X186187Y275981I1849J1855D01*
G01*
X186187Y275981D02*
G03*
X186251Y275923I1808J1937D01*
G01*
X186251Y275923D02*
G03*
X186317Y275867I1764J2017D01*
G01*
D02*
G03*
X186398Y275803I1717J2096D01*
G01*
Y275803D02*
G03*
X186482Y275742I1654J2185D01*
G01*
D02*
G03*
X186583Y275675I1588J2270D01*
G01*
D02*
G03*
X187339Y275338I1519J2391D01*
G01*
X187339Y275338D02*
G03*
X187490Y275300I754J2697D01*
G01*
X187490Y275300D02*
G03*
X187609Y275277I596J2705D01*
G01*
X187609Y275277D02*
G03*
X187711Y275261I472J2699D01*
G01*
X187711D02*
G03*
X187814Y275249I366J2685D01*
G01*
D02*
G03*
X187900Y275242I260J2667D01*
G01*
D02*
G03*
X187987Y275238I172J2644D01*
G01*
D02*
G03*
X188073Y275236I85J2618D01*
G01*
X188090Y275236D02*
G03*
X188940Y275377I-21J2767D01*
G01*
D02*
G03*
X189119Y275443I-862J2599D01*
G01*
Y275443D02*
G03*
X190021Y276045I-1046J2546D01*
G01*
D02*
G03*
X190665Y277061I-1948J1946D01*
G01*
D02*
G03*
X190807Y277667I-2610J934D01*
G01*
D02*
G03*
X190823Y277856I-2737J327D01*
G01*
D02*
G03*
X190827Y277994I-2723J136D01*
G01*
D02*
G03*
X190825Y278081I-2619J-2D01*
G01*
D02*
G03*
X190821Y278167I-2648J-89D01*
G01*
D02*
G03*
X190814Y278253I-2673J-177D01*
G01*
X190814D02*
G03*
X190802Y278356I-2696J-266D01*
G01*
D02*
G03*
X190786Y278458I-2715J-374D01*
G01*
X190786D02*
G03*
X190762Y278577I-2728J-481D01*
G01*
X190762D02*
G03*
X190466Y279350I-2765J-615D01*
G01*
Y279350D02*
G03*
X190386Y279484I-2441J-1372D01*
G01*
Y279484D02*
G03*
X190319Y279584I-2335J-1490D01*
G01*
D02*
G03*
X190258Y279668I-2244J-1573D01*
G01*
D02*
G03*
X190193Y279749I-2158J-1638D01*
G01*
X190193D02*
G03*
X190138Y279815I-2070J-1700D01*
G01*
X190138D02*
G03*
X190080Y279879I-1992J-1747D01*
G01*
D02*
G03*
X190020Y279941I-1912J-1790D01*
G01*
D02*
G03*
X189907Y280048I-1931J-1931D01*
G01*
X189907D02*
G03*
X189519Y280337I-1844J-2067D01*
G01*
X189519Y280337D02*
G03*
X189276Y280471I-1453J-2351D01*
G01*
Y280471D02*
G03*
X189134Y280535I-1197J-2457D01*
G01*
Y280535D02*
G03*
X188071Y280748I-1062J-2538D01*
G01*
X178071D02*
G03*
X177949Y280745I0J-2663D01*
G01*
D02*
G03*
X177827Y280737I124J-2689D01*
G01*
D02*
G03*
X177689Y280721I248J-2710D01*
G01*
X177689Y280721D02*
G03*
X177534Y280694I391J-2723D01*
G01*
X177534D02*
G03*
X176680Y280369I558J-2754D01*
G01*
Y280369D02*
G03*
X176518Y280268I1399J-2405D01*
G01*
Y280268D02*
G03*
X176406Y280187I1543J-2279D01*
G01*
D02*
G03*
X176311Y280113I1639J-2176D01*
G01*
Y280113D02*
G03*
X176220Y280034I1715J-2078D01*
G01*
D02*
G03*
X176107Y279926I1781J-1972D01*
G01*
D02*
G03*
X176036Y279851I1899J-1869D01*
G01*
D02*
G03*
X175957Y279760I1991J-1813D01*
G01*
D02*
G03*
X175871Y279651I2094J-1741D01*
G01*
D02*
G03*
X175782Y279524I2204J-1651D01*
G01*
X175782Y279524D02*
G03*
X175421Y278742I2340J-1553D01*
G01*
D02*
G03*
X175371Y278540I2677J-765D01*
G01*
X175371D02*
G03*
X175344Y278387I2698J-557D01*
G01*
X175344D02*
G03*
X175327Y278249I2697J-399D01*
G01*
D02*
G03*
X175318Y278110I2684J-258D01*
G01*
D02*
G03*
X175315Y277988I2665J-118D01*
G01*
D02*
G03*
X175523Y276942I2755J4D01*
G01*
X175530Y276926D02*
G03*
X175579Y276815I2512J1055D01*
G01*
D02*
G03*
X175928Y276259I2507J1188D01*
G01*
Y276259D02*
G03*
X176041Y276128I2141J1729D01*
G01*
D02*
G03*
X176125Y276041I2005J1840D01*
G01*
D02*
G03*
X176187Y275981I1849J1855D01*
G01*
X176187Y275981D02*
G03*
X176251Y275923I1808J1937D01*
G01*
X176251Y275923D02*
G03*
X176317Y275867I1764J2017D01*
G01*
D02*
G03*
X176398Y275803I1717J2096D01*
G01*
Y275803D02*
G03*
X176482Y275742I1654J2185D01*
G01*
D02*
G03*
X176583Y275675I1588J2270D01*
G01*
D02*
G03*
X177339Y275338I1519J2391D01*
G01*
X177339Y275338D02*
G03*
X177490Y275300I754J2697D01*
G01*
X177490Y275300D02*
G03*
X177609Y275277I596J2705D01*
G01*
X177609Y275277D02*
G03*
X177711Y275261I472J2699D01*
G01*
X177711D02*
G03*
X177814Y275249I366J2685D01*
G01*
D02*
G03*
X177900Y275242I260J2667D01*
G01*
D02*
G03*
X177987Y275238I172J2644D01*
G01*
D02*
G03*
X178073Y275236I85J2618D01*
G01*
X178090Y275236D02*
G03*
X178940Y275377I-21J2767D01*
G01*
D02*
G03*
X179119Y275443I-862J2599D01*
G01*
Y275443D02*
G03*
X180021Y276045I-1046J2546D01*
G01*
D02*
G03*
X180665Y277061I-1948J1946D01*
G01*
D02*
G03*
X180807Y277667I-2610J934D01*
G01*
D02*
G03*
X180823Y277856I-2737J327D01*
G01*
D02*
G03*
X180827Y277994I-2723J136D01*
G01*
D02*
G03*
X180825Y278081I-2619J-2D01*
G01*
D02*
G03*
X180821Y278167I-2648J-89D01*
G01*
D02*
G03*
X180814Y278253I-2673J-177D01*
G01*
X180814D02*
G03*
X180802Y278356I-2696J-266D01*
G01*
D02*
G03*
X180786Y278458I-2715J-374D01*
G01*
X180786D02*
G03*
X180762Y278577I-2728J-481D01*
G01*
X180762D02*
G03*
X180466Y279350I-2765J-615D01*
G01*
Y279350D02*
G03*
X180386Y279484I-2441J-1372D01*
G01*
Y279484D02*
G03*
X180319Y279584I-2335J-1490D01*
G01*
D02*
G03*
X180258Y279668I-2244J-1573D01*
G01*
D02*
G03*
X180193Y279749I-2158J-1638D01*
G01*
X180193D02*
G03*
X180138Y279815I-2070J-1700D01*
G01*
X180138D02*
G03*
X180080Y279879I-1992J-1747D01*
G01*
D02*
G03*
X180020Y279941I-1912J-1790D01*
G01*
D02*
G03*
X179907Y280048I-1931J-1931D01*
G01*
X179907D02*
G03*
X179519Y280337I-1844J-2067D01*
G01*
X179519Y280337D02*
G03*
X179276Y280471I-1453J-2351D01*
G01*
Y280471D02*
G03*
X179134Y280535I-1197J-2457D01*
G01*
Y280535D02*
G03*
X178071Y280748I-1062J-2538D01*
G01*
X1073898D02*
G03*
X1073793Y280746I0J-2668D01*
G01*
D02*
G03*
X1073654Y280737I106J-2692D01*
G01*
Y280737D02*
G03*
X1073516Y280721I248J-2712D01*
G01*
X1073516D02*
G03*
X1073345Y280691I390J-2725D01*
G01*
D02*
G03*
X1072537Y280387I574J-2748D01*
G01*
D02*
G03*
X1072361Y280278I1369J-2424D01*
G01*
D02*
G03*
X1072234Y280188I1530J-2290D01*
G01*
D02*
G03*
X1072126Y280103I1638J-2176D01*
G01*
D02*
G03*
X1072035Y280023I1727J-2068D01*
G01*
Y280023D02*
G03*
X1071935Y279927I1796J-1964D01*
G01*
Y279927D02*
G03*
X1071864Y279852I1898J-1870D01*
G01*
X1071864Y279852D02*
G03*
X1071785Y279761I1990J-1814D01*
G01*
D02*
G03*
X1071699Y279653I2093J-1743D01*
G01*
D02*
G03*
X1071609Y279526I2203J-1653D01*
G01*
X1071609D02*
G03*
X1071248Y278744I2339J-1555D01*
G01*
D02*
G03*
X1071198Y278542I2676J-766D01*
G01*
X1071198D02*
G03*
X1071171Y278388I2698J-558D01*
G01*
X1071171Y278388D02*
G03*
X1071154Y278250I2697J-400D01*
G01*
D02*
G03*
X1071144Y278111I2684J-259D01*
G01*
D02*
G03*
X1071142Y277990I2665J-119D01*
G01*
D02*
G03*
X1071350Y276943I2755J3D01*
G01*
X1071356Y276927D02*
G03*
X1071406Y276816I2512J1053D01*
G01*
D02*
G03*
X1071755Y276260I2508J1187D01*
G01*
D02*
G03*
X1071867Y276129I2141J1729D01*
G01*
Y276129D02*
G03*
X1071951Y276042I2006J1839D01*
G01*
D02*
G03*
X1072013Y275982I1850J1854D01*
G01*
Y275982D02*
G03*
X1072077Y275924I1809J1936D01*
G01*
D02*
G03*
X1072143Y275868I1764J2016D01*
G01*
D02*
G03*
X1072224Y275804I1718J2096D01*
G01*
D02*
G03*
X1072308Y275743I1655J2184D01*
G01*
Y275743D02*
G03*
X1072408Y275676I1588J2270D01*
G01*
Y275676D02*
G03*
X1073165Y275338I1520J2390D01*
G01*
X1073165D02*
G03*
X1073316Y275301I755J2696D01*
G01*
D02*
G03*
X1073435Y275277I597J2705D01*
G01*
X1073435D02*
G03*
X1073537Y275261I473J2699D01*
G01*
Y275261D02*
G03*
X1073640Y275249I367J2685D01*
G01*
D02*
G03*
X1073726Y275242I261J2667D01*
G01*
Y275242D02*
G03*
X1073812Y275238I173J2644D01*
G01*
D02*
G03*
X1073899Y275236I85J2618D01*
G01*
X1073916Y275236D02*
G03*
X1074766Y275377I-20J2767D01*
G01*
X1074766Y275377D02*
G03*
X1074945Y275443I-861J2599D01*
G01*
D02*
G03*
X1075847Y276045I-1045J2546D01*
G01*
Y276045D02*
G03*
X1076491Y277061I-1947J1946D01*
G01*
D02*
G03*
X1076634Y277666I-2610J935D01*
G01*
D02*
G03*
X1076650Y277856I-2737J328D01*
G01*
X1076650D02*
G03*
X1076654Y277994I-2723J137D01*
G01*
X1076654D02*
G03*
X1076652Y278080I-2619J-1D01*
G01*
D02*
G03*
X1076648Y278166I-2648J-89D01*
G01*
X1076648D02*
G03*
X1076641Y278252I-2673J-177D01*
G01*
Y278252D02*
G03*
X1076629Y278355I-2697J-266D01*
G01*
D02*
G03*
X1076613Y278458I-2715J-373D01*
G01*
D02*
G03*
X1076589Y278576I-2728J-481D01*
G01*
X1076589Y278576D02*
G03*
X1076293Y279350I-2765J-614D01*
G01*
X1076293Y279350D02*
G03*
X1076213Y279483I-2441J-1372D01*
G01*
Y279483D02*
G03*
X1076146Y279584I-2335J-1489D01*
G01*
D02*
G03*
X1076085Y279668I-2244J-1573D01*
G01*
X1076085D02*
G03*
X1076020Y279749I-2158J-1638D01*
G01*
X1076020D02*
G03*
X1075965Y279815I-2070J-1700D01*
G01*
X1075965Y279815D02*
G03*
X1075907Y279879I-1993J-1747D01*
G01*
D02*
G03*
X1075847Y279941I-1912J-1790D01*
G01*
D02*
G03*
X1075734Y280048I-1931J-1931D01*
G01*
D02*
G03*
X1075346Y280337I-1844J-2067D01*
G01*
D02*
G03*
X1075103Y280471I-1453J-2351D01*
G01*
D02*
G03*
X1074961Y280535I-1197J-2457D01*
G01*
D02*
G03*
X1073898Y280748I-1062J-2538D01*
G01*
X1063898D02*
G03*
X1063793Y280746I0J-2668D01*
G01*
D02*
G03*
X1063654Y280737I106J-2692D01*
G01*
Y280737D02*
G03*
X1063516Y280721I248J-2712D01*
G01*
X1063516D02*
G03*
X1063344Y280691I390J-2725D01*
G01*
D02*
G03*
X1062537Y280387I574J-2748D01*
G01*
D02*
G03*
X1062361Y280278I1369J-2424D01*
G01*
D02*
G03*
X1062234Y280188I1530J-2290D01*
G01*
D02*
G03*
X1062126Y280103I1638J-2176D01*
G01*
D02*
G03*
X1062035Y280023I1727J-2068D01*
G01*
Y280023D02*
G03*
X1061935Y279927I1796J-1964D01*
G01*
Y279927D02*
G03*
X1061864Y279852I1898J-1870D01*
G01*
X1061864Y279852D02*
G03*
X1061785Y279761I1990J-1814D01*
G01*
D02*
G03*
X1061699Y279653I2093J-1743D01*
G01*
D02*
G03*
X1061609Y279526I2203J-1653D01*
G01*
X1061609D02*
G03*
X1061248Y278744I2339J-1555D01*
G01*
D02*
G03*
X1061198Y278542I2676J-766D01*
G01*
X1061199D02*
G03*
X1061171Y278388I2698J-558D01*
G01*
X1061171Y278388D02*
G03*
X1061154Y278250I2697J-400D01*
G01*
D02*
G03*
X1061144Y278111I2684J-259D01*
G01*
D02*
G03*
X1061142Y277990I2665J-119D01*
G01*
D02*
G03*
X1061349Y276943I2755J3D01*
G01*
X1061356Y276927D02*
G03*
X1061405Y276816I2512J1053D01*
G01*
D02*
G03*
X1061755Y276260I2508J1187D01*
G01*
D02*
G03*
X1061867Y276129I2141J1729D01*
G01*
Y276129D02*
G03*
X1061951Y276042I2006J1839D01*
G01*
D02*
G03*
X1062013Y275982I1850J1854D01*
G01*
Y275982D02*
G03*
X1062077Y275924I1809J1936D01*
G01*
D02*
G03*
X1062143Y275868I1764J2016D01*
G01*
D02*
G03*
X1062224Y275804I1718J2096D01*
G01*
D02*
G03*
X1062308Y275743I1655J2184D01*
G01*
Y275743D02*
G03*
X1062409Y275676I1588J2270D01*
G01*
Y275676D02*
G03*
X1063165Y275338I1520J2390D01*
G01*
X1063165D02*
G03*
X1063316Y275301I755J2696D01*
G01*
D02*
G03*
X1063435Y275277I597J2705D01*
G01*
X1063435D02*
G03*
X1063537Y275261I473J2699D01*
G01*
Y275261D02*
G03*
X1063640Y275249I367J2685D01*
G01*
D02*
G03*
X1063726Y275242I261J2667D01*
G01*
Y275242D02*
G03*
X1063812Y275238I173J2644D01*
G01*
D02*
G03*
X1063899Y275236I85J2618D01*
G01*
X1063916Y275236D02*
G03*
X1064766Y275377I-20J2767D01*
G01*
X1064766Y275377D02*
G03*
X1064945Y275443I-861J2599D01*
G01*
D02*
G03*
X1065847Y276045I-1045J2546D01*
G01*
Y276045D02*
G03*
X1066491Y277061I-1947J1946D01*
G01*
D02*
G03*
X1066634Y277666I-2610J935D01*
G01*
D02*
G03*
X1066650Y277856I-2737J328D01*
G01*
X1066650D02*
G03*
X1066654Y277994I-2723J137D01*
G01*
X1066654D02*
G03*
X1066652Y278080I-2619J-1D01*
G01*
D02*
G03*
X1066648Y278166I-2648J-89D01*
G01*
X1066648D02*
G03*
X1066641Y278252I-2673J-177D01*
G01*
Y278252D02*
G03*
X1066629Y278355I-2697J-266D01*
G01*
D02*
G03*
X1066613Y278458I-2715J-373D01*
G01*
D02*
G03*
X1066589Y278576I-2728J-481D01*
G01*
X1066589Y278576D02*
G03*
X1066293Y279350I-2765J-614D01*
G01*
X1066293Y279350D02*
G03*
X1066213Y279483I-2441J-1372D01*
G01*
Y279483D02*
G03*
X1066146Y279584I-2335J-1489D01*
G01*
D02*
G03*
X1066085Y279668I-2244J-1573D01*
G01*
X1066085D02*
G03*
X1066020Y279749I-2158J-1638D01*
G01*
X1066020D02*
G03*
X1065965Y279815I-2070J-1700D01*
G01*
X1065965Y279815D02*
G03*
X1065907Y279879I-1993J-1747D01*
G01*
D02*
G03*
X1065847Y279941I-1912J-1790D01*
G01*
D02*
G03*
X1065734Y280048I-1931J-1931D01*
G01*
D02*
G03*
X1065346Y280337I-1844J-2067D01*
G01*
D02*
G03*
X1065103Y280471I-1453J-2351D01*
G01*
D02*
G03*
X1064961Y280535I-1197J-2457D01*
G01*
D02*
G03*
X1063898Y280748I-1062J-2538D01*
G01*
X1066142Y605118D02*
G03*
X1066142Y605118I-7087J0D01*
G01*
Y14961D02*
G03*
X1066142Y14961I-7087J0D01*
G01*
X198031D02*
G03*
X198031Y14961I-7087J0D01*
G01*
Y605118D02*
G03*
X198031Y605118I-7087J0D01*
G01*
X1231496Y594488D02*
G03*
X1231496Y594488I-7087J0D01*
G01*
Y25591D02*
G03*
X1231496Y25591I-7087J0D01*
G01*
X32677D02*
G03*
X32677Y25591I-7087J0D01*
G01*
Y594488D02*
G03*
X32677Y594488I-7087J0D01*
G01*
X391929Y523229D02*
G03*
X391929Y523229I-7087J0D01*
G01*
X297835D02*
G03*
X297835Y523229I-7087J0D01*
G01*
X652018Y544882D02*
X653100D01*
X652018Y545413D02*
X653100D01*
X652018Y547090D02*
X653100D01*
X652018Y550785D02*
X653100D01*
X648081Y544882D02*
X649163D01*
X648081Y545413D02*
X649163D01*
X648081Y547090D02*
X649163D01*
X648081Y550785D02*
X649163D01*
X551181Y310040D02*
Y403543D01*
X457677Y310040D02*
X551181D01*
X457677D02*
Y403543D01*
X551181D01*
X568760Y73196D02*
X574941D01*
X754528Y59055D02*
X758464D01*
Y0D02*
Y59055D01*
Y0D02*
X1250000D01*
Y176575D01*
X1190945D02*
X1250000D01*
X1190945D02*
Y180512D01*
X1176804Y360099D02*
Y366280D01*
X1190945Y439567D02*
Y443504D01*
X1250000D01*
Y620079D01*
X758464D02*
X1250000D01*
X758464Y561024D02*
Y620079D01*
X754528Y561024D02*
X758464D01*
X568760Y546883D02*
X574941D01*
X491536Y561024D02*
X495472D01*
X491536D02*
Y620079D01*
X0D02*
X491536D01*
X0Y443504D02*
Y620079D01*
Y443504D02*
X59055D01*
Y439567D02*
Y443504D01*
X73196Y360099D02*
Y366280D01*
X59055Y176575D02*
Y180512D01*
X0Y176575D02*
X59055D01*
X0Y0D02*
Y176575D01*
Y0D02*
X491536D01*
Y59055D01*
X495472D01*
X75197Y258317D02*
Y259400D01*
X59055D02*
X75197D01*
X59055Y258317D02*
X75197D01*
X72989D02*
Y259400D01*
X74666Y258317D02*
Y259400D01*
X69294Y258317D02*
Y259400D01*
X675640Y72989D02*
X676722D01*
Y59055D02*
Y75197D01*
X675640Y59055D02*
Y75197D01*
Y74666D02*
X676722D01*
X675640Y75197D02*
X676722D01*
X675640Y69294D02*
X676722D01*
X72989Y305561D02*
Y306644D01*
X59055D02*
X75197D01*
X59055Y305561D02*
X75197D01*
X74666D02*
Y306644D01*
X75197Y305561D02*
Y306644D01*
X69294Y305561D02*
Y306644D01*
X628396Y72989D02*
X629478D01*
Y59055D02*
Y75197D01*
X628396Y59055D02*
Y75197D01*
Y74666D02*
X629478D01*
X628396Y75197D02*
X629478D01*
X628396Y69294D02*
X629478D01*
X1174803Y218947D02*
Y220030D01*
X1190945D01*
X1174803Y218947D02*
X1190945D01*
X1175334D02*
Y220030D01*
X1177011Y218947D02*
Y220030D01*
X1180706Y218947D02*
Y220030D01*
X715010Y544882D02*
X716092D01*
X715010D02*
Y561024D01*
X716092Y544882D02*
Y561024D01*
X715010Y545413D02*
X716092D01*
X715010Y547090D02*
X716092D01*
X715010Y550785D02*
X716092D01*
X529971Y72989D02*
X531053D01*
X529971Y59055D02*
Y75197D01*
X531053Y59055D02*
Y75197D01*
X529971Y74666D02*
X531053D01*
X529971Y75197D02*
X531053D01*
X529971Y69294D02*
X531053D01*
X75197Y403986D02*
Y405069D01*
X59055D02*
X75197D01*
X59055Y403986D02*
X75197D01*
X72989D02*
Y405069D01*
X74666Y403986D02*
Y405069D01*
X69294Y403986D02*
Y405069D01*
X616585Y544882D02*
X617667D01*
Y561024D01*
X616585Y544882D02*
Y561024D01*
Y545413D02*
X617667D01*
X616585Y547090D02*
X617667D01*
X616585Y550785D02*
X617667D01*
X1177011Y317372D02*
Y318455D01*
X1174803D02*
X1190945D01*
X1174803Y317372D02*
X1190945D01*
X1174803D02*
Y318455D01*
X1175334Y317372D02*
Y318455D01*
X1180706Y317372D02*
Y318455D01*
X644144Y544882D02*
X645226D01*
Y561024D01*
X644144Y544882D02*
Y561024D01*
Y545413D02*
X645226D01*
X644144Y547090D02*
X645226D01*
X644144Y550785D02*
X645226D01*
X1177011Y289813D02*
Y290896D01*
X1174803D02*
X1190945D01*
X1174803Y289813D02*
X1190945D01*
X1174803D02*
Y290896D01*
X1175334Y289813D02*
Y290896D01*
X1180706Y289813D02*
Y290896D01*
X667766Y72989D02*
X668849D01*
Y59055D02*
Y75197D01*
X667766Y59055D02*
Y75197D01*
Y74666D02*
X668849D01*
X667766Y75197D02*
X668849D01*
X667766Y69294D02*
X668849D01*
X75197Y266191D02*
Y267274D01*
X59055D02*
X75197D01*
X59055Y266191D02*
X75197D01*
X72989D02*
Y267274D01*
X74666Y266191D02*
Y267274D01*
X69294Y266191D02*
Y267274D01*
X1174803Y356742D02*
Y357825D01*
X1190945D01*
X1174803Y356742D02*
X1190945D01*
X1175334D02*
Y357825D01*
X1177011Y356742D02*
Y357825D01*
X1180706Y356742D02*
Y357825D01*
X577214Y544882D02*
X578297D01*
X577214D02*
Y561024D01*
X578297Y544882D02*
Y561024D01*
X577214Y545413D02*
X578297D01*
X577214Y547090D02*
X578297D01*
X577214Y550785D02*
X578297D01*
X541782Y544882D02*
X542864D01*
Y561024D01*
X541782Y544882D02*
Y561024D01*
Y545413D02*
X542864D01*
X541782Y547090D02*
X542864D01*
X541782Y550785D02*
X542864D01*
X1177011Y392175D02*
Y393258D01*
X1174803D02*
X1190945D01*
X1174803Y392175D02*
X1190945D01*
X1174803D02*
Y393258D01*
X1175334Y392175D02*
Y393258D01*
X1180706Y392175D02*
Y393258D01*
X72989Y309498D02*
Y310581D01*
X59055D02*
X75197D01*
X59055Y309498D02*
X75197D01*
X74666D02*
Y310581D01*
X75197Y309498D02*
Y310581D01*
X69294Y309498D02*
Y310581D01*
X624459Y72989D02*
X625541D01*
X624459Y59055D02*
Y75197D01*
X625541Y59055D02*
Y75197D01*
X624459Y74666D02*
X625541D01*
X624459Y75197D02*
X625541D01*
X624459Y69294D02*
X625541D01*
X596900Y544882D02*
X597982D01*
Y561024D01*
X596900Y544882D02*
Y561024D01*
Y545413D02*
X597982D01*
X596900Y547090D02*
X597982D01*
X596900Y550785D02*
X597982D01*
X1174803Y337057D02*
Y338140D01*
X1190945D01*
X1174803Y337057D02*
X1190945D01*
X1175334D02*
Y338140D01*
X1177011Y337057D02*
Y338140D01*
X1180706Y337057D02*
Y338140D01*
X1177011Y344931D02*
Y346014D01*
X1174803D02*
X1190945D01*
X1174803Y344931D02*
X1190945D01*
X1174803D02*
Y346014D01*
X1175334Y344931D02*
Y346014D01*
X1180706Y344931D02*
Y346014D01*
X589026Y544882D02*
X590108D01*
X589026D02*
Y561024D01*
X590108Y544882D02*
Y561024D01*
X589026Y545413D02*
X590108D01*
X589026Y547090D02*
X590108D01*
X589026Y550785D02*
X590108D01*
X533908Y544882D02*
X534990D01*
Y561024D01*
X533908Y544882D02*
Y561024D01*
Y545413D02*
X534990D01*
X533908Y547090D02*
X534990D01*
X533908Y550785D02*
X534990D01*
X1177011Y400049D02*
Y401132D01*
X1174803D02*
X1190945D01*
X1174803Y400049D02*
X1190945D01*
X1174803D02*
Y401132D01*
X1175334Y400049D02*
Y401132D01*
X1180706Y400049D02*
Y401132D01*
X1177011Y388238D02*
Y389321D01*
X1174803D02*
X1190945D01*
X1174803Y388238D02*
X1190945D01*
X1174803D02*
Y389321D01*
X1175334Y388238D02*
Y389321D01*
X1180706Y388238D02*
Y389321D01*
X545718Y544882D02*
X546801D01*
Y561024D01*
X545718Y544882D02*
Y561024D01*
Y545413D02*
X546801D01*
X545718Y547090D02*
X546801D01*
X545718Y550785D02*
X546801D01*
X620522Y72989D02*
X621604D01*
Y59055D02*
Y75197D01*
X620522Y59055D02*
Y75197D01*
Y74666D02*
X621604D01*
X620522Y75197D02*
X621604D01*
X620522Y69294D02*
X621604D01*
X75197Y313435D02*
Y314518D01*
X59055D02*
X75197D01*
X59055Y313435D02*
X75197D01*
X72989D02*
Y314518D01*
X74666Y313435D02*
Y314518D01*
X69294Y313435D02*
Y314518D01*
X575354Y59055D02*
Y72060D01*
X568347Y59055D02*
Y72060D01*
X574941Y73196D02*
X575354Y72060D01*
X568347D02*
X568760Y73196D01*
X568347Y72060D02*
X575354D01*
X495472Y50000D02*
Y83858D01*
X502517Y50000D02*
X503351Y69087D01*
X512004D02*
X512837Y50000D01*
X495472D02*
X514764D01*
X521063Y59055D02*
Y83858D01*
X495472D02*
X521063D01*
X754528Y50000D02*
Y83858D01*
X737163Y50000D02*
X737996Y69087D01*
X746650D02*
X747483Y50000D01*
X735236D02*
X754528D01*
X728937Y83858D02*
X754528D01*
X728937Y59055D02*
Y83858D01*
X520807Y22047D02*
X522579D01*
Y19685D02*
Y22047D01*
X514764Y19685D02*
X735236D01*
Y59055D01*
X514764D02*
X735236D01*
X514764Y19685D02*
Y59055D01*
X520807Y19685D02*
Y22047D01*
X59055Y366693D02*
X72060D01*
X59055Y359685D02*
X72060D01*
X73196Y360099D01*
X72060Y366693D02*
X73196Y366280D01*
X72060Y359685D02*
Y366693D01*
X50000Y197877D02*
X69086Y197043D01*
X50000Y187557D02*
X69086Y188390D01*
X50000Y180512D02*
Y199803D01*
Y180512D02*
X83858D01*
Y206102D01*
X59055D02*
X83858D01*
X50000Y439567D02*
X83858D01*
X50000Y432522D02*
X69086Y431689D01*
X50000Y422202D02*
X69086Y423036D01*
X50000Y420276D02*
Y439567D01*
X59055Y413977D02*
X83858D01*
Y439567D01*
X59055Y199803D02*
Y420276D01*
X22047Y412461D02*
Y414232D01*
X19685Y412461D02*
X22047D01*
X19685Y199803D02*
Y420276D01*
Y199803D02*
X59055D01*
X19685Y420276D02*
X59055D01*
X19685Y414232D02*
X22047D01*
X1177940Y366693D02*
X1190945D01*
X1177940Y359685D02*
X1190945D01*
X1176804Y366280D02*
X1177940Y366693D01*
X1176804Y360099D02*
X1177940Y359685D01*
Y366693D01*
X1166142Y180512D02*
Y206102D01*
X1190945D01*
X1180914Y188390D02*
X1200000Y187557D01*
X1180914Y197043D02*
X1200000Y197877D01*
Y180512D02*
Y199803D01*
X1166142Y180512D02*
X1200000D01*
X1166142Y413977D02*
Y439567D01*
X1180914Y423036D02*
X1200000Y422202D01*
X1180914Y431689D02*
X1200000Y432522D01*
Y420276D02*
Y439567D01*
X1166142D02*
X1200000D01*
X1166142Y413977D02*
X1190945D01*
Y199803D02*
Y420276D01*
X1230315Y199803D02*
Y420276D01*
X1218701Y202165D02*
X1230315D01*
X1215551Y199803D02*
Y213046D01*
X1190945Y199803D02*
X1230315D01*
X1218701D02*
Y213046D01*
Y210684D02*
X1230315D01*
X1215551Y213046D02*
X1230315D01*
X1218701Y222101D02*
X1230315D01*
X1218701Y230619D02*
X1230315D01*
X1215551Y233769D02*
X1230315D01*
X1215551Y218951D02*
Y233769D01*
Y218951D02*
X1230315D01*
X1218701D02*
Y233769D01*
Y242824D02*
X1230315D01*
X1218701Y251342D02*
X1230315D01*
X1215551Y254492D02*
X1230315D01*
X1215551Y239674D02*
Y254492D01*
Y239674D02*
X1230315D01*
X1218701D02*
Y254492D01*
Y263547D02*
X1230315D01*
X1218701Y272065D02*
X1230315D01*
X1215551Y275215D02*
X1230315D01*
X1215551Y260397D02*
Y275215D01*
Y260397D02*
X1230315D01*
X1218701D02*
Y275215D01*
Y284270D02*
X1230315D01*
X1215551Y281120D02*
Y295938D01*
Y281120D02*
X1230315D01*
X1218701D02*
Y295938D01*
Y292788D02*
X1230315D01*
X1215551Y295938D02*
X1230315D01*
X1218701Y304993D02*
X1230315D01*
X1218701Y313511D02*
X1230315D01*
X1215551Y301843D02*
Y316661D01*
X1230315D01*
X1215551Y301843D02*
X1230315D01*
X1218701D02*
Y316661D01*
Y325716D02*
X1230315D01*
X1215551Y322566D02*
Y337384D01*
Y322566D02*
X1230315D01*
X1218701D02*
Y337384D01*
Y334234D02*
X1230315D01*
X1215551Y337384D02*
X1230315D01*
X1218701Y346439D02*
X1230315D01*
X1215551Y343289D02*
Y358107D01*
Y343289D02*
X1230315D01*
X1215551Y358107D02*
X1230315D01*
X1218701Y343289D02*
Y358107D01*
Y354957D02*
X1230315D01*
X1218701Y367162D02*
X1230315D01*
X1215551Y364012D02*
Y378830D01*
Y364012D02*
X1230315D01*
X1215551Y378830D02*
X1230315D01*
X1218701Y364012D02*
Y378830D01*
Y375680D02*
X1230315D01*
X1218701Y387885D02*
X1230315D01*
X1218701Y396403D02*
X1230315D01*
X1215551Y384735D02*
Y399553D01*
Y384735D02*
X1230315D01*
X1218701D02*
Y399553D01*
X1215551D02*
X1230315D01*
X1218701Y408608D02*
X1230315D01*
X1215551Y405458D02*
Y420276D01*
Y405458D02*
X1230315D01*
X1190945Y420276D02*
X1230315D01*
X1218701Y405458D02*
Y420276D01*
Y417126D02*
X1230315D01*
X568347Y548019D02*
X568760Y546883D01*
X574941D02*
X575354Y548019D01*
X568347D02*
Y561024D01*
Y548019D02*
X575354D01*
Y561024D01*
X512004Y550992D02*
X512837Y570079D01*
X502517D02*
X503351Y550992D01*
X495472Y570079D02*
X514764D01*
X495472Y536221D02*
Y570079D01*
Y536221D02*
X521063D01*
Y561024D01*
X735236Y570079D02*
X754528D01*
X746650Y550992D02*
X747483Y570079D01*
X737163D02*
X737996Y550992D01*
X754528Y536221D02*
Y570079D01*
X728937Y536221D02*
Y561024D01*
Y536221D02*
X754528D01*
X514764Y561024D02*
X735236D01*
X514764Y585630D02*
X529581D01*
X556210D02*
X571027D01*
X576933D02*
X591750D01*
X535487D02*
X550304D01*
X639102D02*
X653919D01*
X618379D02*
X633196D01*
X597656D02*
X612473D01*
X701271D02*
X716088D01*
X659825D02*
X674642D01*
X680548D02*
X695365D01*
X721993D02*
X735236D01*
X517913Y588780D02*
Y600394D01*
X514764Y561024D02*
Y600394D01*
Y588780D02*
X529581D01*
X514764Y600394D02*
X735236D01*
X529581Y585630D02*
Y600394D01*
X526432Y588780D02*
Y600394D01*
X591750Y585630D02*
Y600394D01*
X588600Y588780D02*
Y600394D01*
X576933Y588780D02*
X591750D01*
X547155D02*
Y600394D01*
X535487Y588780D02*
X550304D01*
Y585630D02*
Y600394D01*
X538636Y588780D02*
Y600394D01*
X535487Y585630D02*
Y600394D01*
X567878Y588780D02*
Y600394D01*
X571027Y585630D02*
Y600394D01*
X556210Y588780D02*
X571027D01*
X556210Y585630D02*
Y600394D01*
X559359Y588780D02*
Y600394D01*
X576933Y585630D02*
Y600394D01*
X580082Y588780D02*
Y600394D01*
X621528Y588780D02*
Y600394D01*
X618379Y585630D02*
Y600394D01*
Y588780D02*
X633196D01*
X609324D02*
Y600394D01*
X612473Y585630D02*
Y600394D01*
X597656Y588780D02*
X612473D01*
X630047D02*
Y600394D01*
X633196Y585630D02*
Y600394D01*
X639102Y588780D02*
X653919D01*
X642251D02*
Y600394D01*
X639102Y585630D02*
Y600394D01*
X597656Y585630D02*
Y600394D01*
X600805Y588780D02*
Y600394D01*
X650770Y588780D02*
Y600394D01*
X653919Y585630D02*
Y600394D01*
X680548Y585630D02*
Y600394D01*
X683697Y588780D02*
Y600394D01*
X680548Y588780D02*
X695365D01*
X671492D02*
Y600394D01*
X659825Y588780D02*
X674642D01*
Y585630D02*
Y600394D01*
X662974Y588780D02*
Y600394D01*
X659825Y585630D02*
Y600394D01*
X704420Y588780D02*
Y600394D01*
X701271Y585630D02*
Y600394D01*
Y588780D02*
X716088D01*
X695365Y585630D02*
Y600394D01*
X692215Y588780D02*
Y600394D01*
X716088Y585630D02*
Y600394D01*
X712938Y588780D02*
Y600394D01*
X735236Y561024D02*
Y600394D01*
X732874Y588780D02*
Y600394D01*
X721993Y588780D02*
X735236D01*
X721993Y585630D02*
Y600394D01*
X724356Y588780D02*
Y600394D01*
X1174803Y266191D02*
Y267274D01*
X1190945D01*
X1174803Y266191D02*
X1190945D01*
X1175334D02*
Y267274D01*
X1177011Y266191D02*
Y267274D01*
X1180706Y266191D02*
Y267274D01*
X667766Y544882D02*
X668849D01*
Y561024D01*
X667766Y544882D02*
Y561024D01*
Y545413D02*
X668849D01*
X667766Y547090D02*
X668849D01*
X667766Y550785D02*
X668849D01*
X652018Y544882D02*
Y561024D01*
X653100Y544882D02*
Y561024D01*
X1174803Y281939D02*
Y283022D01*
X1190945D01*
X1174803Y281939D02*
X1190945D01*
X1175334D02*
Y283022D01*
X1177011Y281939D02*
Y283022D01*
X1180706Y281939D02*
Y283022D01*
X75197Y242569D02*
Y243652D01*
X59055D02*
X75197D01*
X59055Y242569D02*
X75197D01*
X72989D02*
Y243652D01*
X74666Y242569D02*
Y243652D01*
X69294Y242569D02*
Y243652D01*
X691388Y72989D02*
X692471D01*
Y59055D02*
Y75197D01*
X691388Y59055D02*
Y75197D01*
Y74666D02*
X692471D01*
X691388Y75197D02*
X692471D01*
X691388Y69294D02*
X692471D01*
X695325Y544882D02*
X696408D01*
Y561024D01*
X695325Y544882D02*
Y561024D01*
Y545413D02*
X696408D01*
X695325Y547090D02*
X696408D01*
X695325Y550785D02*
X696408D01*
X1174803Y238632D02*
Y239715D01*
X1190945D01*
X1174803Y238632D02*
X1190945D01*
X1175334D02*
Y239715D01*
X1177011Y238632D02*
Y239715D01*
X1180706Y238632D02*
Y239715D01*
X675640Y544882D02*
X676722D01*
Y561024D01*
X675640Y544882D02*
Y561024D01*
Y545413D02*
X676722D01*
X675640Y547090D02*
X676722D01*
X675640Y550785D02*
X676722D01*
X1177011Y258317D02*
Y259400D01*
X1174803D02*
X1190945D01*
X1174803Y258317D02*
X1190945D01*
X1174803D02*
Y259400D01*
X1175334Y258317D02*
Y259400D01*
X1180706Y258317D02*
Y259400D01*
X715010Y72989D02*
X716092D01*
Y59055D02*
Y75197D01*
X715010Y59055D02*
Y75197D01*
Y74666D02*
X716092D01*
X715010Y75197D02*
X716092D01*
X715010Y69294D02*
X716092D01*
X75197Y218947D02*
Y220030D01*
X59055D02*
X75197D01*
X59055Y218947D02*
X75197D01*
X72989D02*
Y220030D01*
X74666Y218947D02*
Y220030D01*
X69294Y218947D02*
Y220030D01*
X72989Y321309D02*
Y322392D01*
X59055D02*
X75197D01*
X59055Y321309D02*
X75197D01*
X74666D02*
Y322392D01*
X75197Y321309D02*
Y322392D01*
X69294Y321309D02*
Y322392D01*
X612648Y72989D02*
X613730D01*
X612648Y59055D02*
Y75197D01*
X613730Y59055D02*
Y75197D01*
X612648Y74666D02*
X613730D01*
X612648Y75197D02*
X613730D01*
X612648Y69294D02*
X613730D01*
X632333Y544882D02*
X633415D01*
X632333D02*
Y561024D01*
X633415Y544882D02*
Y561024D01*
X632333Y545413D02*
X633415D01*
X632333Y547090D02*
X633415D01*
X632333Y550785D02*
X633415D01*
X1177011Y301624D02*
Y302707D01*
X1174803D02*
X1190945D01*
X1174803Y301624D02*
X1190945D01*
X1174803D02*
Y302707D01*
X1175334Y301624D02*
Y302707D01*
X1180706Y301624D02*
Y302707D01*
X592963Y72989D02*
X594045D01*
Y59055D02*
Y75197D01*
X592963Y59055D02*
Y75197D01*
Y74666D02*
X594045D01*
X592963Y75197D02*
X594045D01*
X592963Y69294D02*
X594045D01*
X72989Y340994D02*
Y342077D01*
X59055D02*
X75197D01*
X59055Y340994D02*
X75197D01*
X74666D02*
Y342077D01*
X75197Y340994D02*
Y342077D01*
X69294Y340994D02*
Y342077D01*
X711073Y72989D02*
X712155D01*
X711073Y59055D02*
Y75197D01*
X712155Y59055D02*
Y75197D01*
X711073Y74666D02*
X712155D01*
X711073Y75197D02*
X712155D01*
X711073Y69294D02*
X712155D01*
X75197Y222884D02*
Y223967D01*
X59055D02*
X75197D01*
X59055Y222884D02*
X75197D01*
X72989D02*
Y223967D01*
X74666Y222884D02*
Y223967D01*
X69294Y222884D02*
Y223967D01*
X679577Y72989D02*
X680659D01*
X679577Y59055D02*
Y75197D01*
X680659Y59055D02*
Y75197D01*
X679577Y74666D02*
X680659D01*
X679577Y75197D02*
X680659D01*
X679577Y69294D02*
X680659D01*
X72989Y254380D02*
Y255463D01*
X59055D02*
X75197D01*
X59055Y254380D02*
X75197D01*
X74666D02*
Y255463D01*
X75197Y254380D02*
Y255463D01*
X69294Y254380D02*
Y255463D01*
X1177011Y380364D02*
Y381447D01*
X1174803D02*
X1190945D01*
X1174803Y380364D02*
X1190945D01*
X1174803D02*
Y381447D01*
X1175334Y380364D02*
Y381447D01*
X1180706Y380364D02*
Y381447D01*
X553592Y544882D02*
X554675D01*
Y561024D01*
X553592Y544882D02*
Y561024D01*
Y545413D02*
X554675D01*
X553592Y547090D02*
X554675D01*
X553592Y550785D02*
X554675D01*
X722884Y544882D02*
X723967D01*
X722884D02*
Y561024D01*
X723967Y544882D02*
Y561024D01*
X722884Y545413D02*
X723967D01*
X722884Y547090D02*
X723967D01*
X722884Y550785D02*
X723967D01*
X1174803Y211073D02*
Y212156D01*
X1190945D01*
X1174803Y211073D02*
X1190945D01*
X1175334D02*
Y212156D01*
X1177011Y211073D02*
Y212156D01*
X1180706Y211073D02*
Y212156D01*
X75197Y344931D02*
Y346014D01*
X59055D02*
X75197D01*
X59055Y344931D02*
X75197D01*
X72989D02*
Y346014D01*
X74666Y344931D02*
Y346014D01*
X69294Y344931D02*
Y346014D01*
X589026Y72989D02*
X590108D01*
X589026Y59055D02*
Y75197D01*
X590108Y59055D02*
Y75197D01*
X589026Y74666D02*
X590108D01*
X589026Y75197D02*
X590108D01*
X589026Y69294D02*
X590108D01*
X526033Y544882D02*
X527116D01*
Y561024D01*
X526033Y544882D02*
Y561024D01*
Y545413D02*
X527116D01*
X526033Y547090D02*
X527116D01*
X526033Y550785D02*
X527116D01*
X1174803Y407923D02*
Y409006D01*
X1190945D01*
X1174803Y407923D02*
X1190945D01*
X1175334D02*
Y409006D01*
X1177011Y407923D02*
Y409006D01*
X1180706Y407923D02*
Y409006D01*
X1177011Y242569D02*
Y243652D01*
X1174803D02*
X1190945D01*
X1174803Y242569D02*
X1190945D01*
X1174803D02*
Y243652D01*
X1175334Y242569D02*
Y243652D01*
X1180706Y242569D02*
Y243652D01*
X691388Y544882D02*
X692471D01*
X691388D02*
Y561024D01*
X692471Y544882D02*
Y561024D01*
X691388Y545413D02*
X692471D01*
X691388Y547090D02*
X692471D01*
X691388Y550785D02*
X692471D01*
X1174803Y270128D02*
Y271211D01*
X1190945D01*
X1174803Y270128D02*
X1190945D01*
X1175334D02*
Y271211D01*
X1177011Y270128D02*
Y271211D01*
X1180706Y270128D02*
Y271211D01*
X663829Y544882D02*
X664912D01*
Y561024D01*
X663829Y544882D02*
Y561024D01*
Y545413D02*
X664912D01*
X663829Y547090D02*
X664912D01*
X663829Y550785D02*
X664912D01*
X687451Y72989D02*
X688533D01*
X687451Y59055D02*
Y75197D01*
X688533Y59055D02*
Y75197D01*
X687451Y74666D02*
X688533D01*
X687451Y75197D02*
X688533D01*
X687451Y69294D02*
X688533D01*
X72989Y246506D02*
Y247589D01*
X59055D02*
X75197D01*
X59055Y246506D02*
X75197D01*
X74666D02*
Y247589D01*
X75197Y246506D02*
Y247589D01*
X69294Y246506D02*
Y247589D01*
X72989Y289813D02*
Y290896D01*
X59055D02*
X75197D01*
X59055Y289813D02*
X75197D01*
X74666D02*
Y290896D01*
X75197Y289813D02*
Y290896D01*
X69294Y289813D02*
Y290896D01*
X644144Y72989D02*
X645226D01*
X644144Y59055D02*
Y75197D01*
X645226Y59055D02*
Y75197D01*
X644144Y74666D02*
X645226D01*
X644144Y75197D02*
X645226D01*
X644144Y69294D02*
X645226D01*
X699262Y544882D02*
X700345D01*
Y561024D01*
X699262Y544882D02*
Y561024D01*
Y545413D02*
X700345D01*
X699262Y547090D02*
X700345D01*
X699262Y550785D02*
X700345D01*
X1174803Y234695D02*
Y235778D01*
X1190945D01*
X1174803Y234695D02*
X1190945D01*
X1175334D02*
Y235778D01*
X1177011Y234695D02*
Y235778D01*
X1180706Y234695D02*
Y235778D01*
X72989Y285876D02*
Y286959D01*
X59055D02*
X75197D01*
X59055Y285876D02*
X75197D01*
X74666D02*
Y286959D01*
X75197Y285876D02*
Y286959D01*
X69294Y285876D02*
Y286959D01*
X648081Y72989D02*
X649163D01*
X648081Y59055D02*
Y75197D01*
X649163Y59055D02*
Y75197D01*
X648081Y74666D02*
X649163D01*
X648081Y75197D02*
X649163D01*
X648081Y69294D02*
X649163D01*
X652018Y72989D02*
X653100D01*
X652018Y59055D02*
Y75197D01*
X653100Y59055D02*
Y75197D01*
X652018Y74666D02*
X653100D01*
X652018Y75197D02*
X653100D01*
X652018Y69294D02*
X653100D01*
X72989Y281939D02*
Y283022D01*
X59055D02*
X75197D01*
X59055Y281939D02*
X75197D01*
X74666D02*
Y283022D01*
X75197Y281939D02*
Y283022D01*
X69294Y281939D02*
Y283022D01*
X683514Y544882D02*
X684596D01*
X683514D02*
Y561024D01*
X684596Y544882D02*
Y561024D01*
X683514Y545413D02*
X684596D01*
X683514Y547090D02*
X684596D01*
X683514Y550785D02*
X684596D01*
X1174803Y250443D02*
Y251526D01*
X1190945D01*
X1174803Y250443D02*
X1190945D01*
X1175334D02*
Y251526D01*
X1177011Y250443D02*
Y251526D01*
X1180706Y250443D02*
Y251526D01*
X636270Y72989D02*
X637352D01*
Y59055D02*
Y75197D01*
X636270Y59055D02*
Y75197D01*
Y74666D02*
X637352D01*
X636270Y75197D02*
X637352D01*
X636270Y69294D02*
X637352D01*
X72989Y297687D02*
Y298770D01*
X59055D02*
X75197D01*
X59055Y297687D02*
X75197D01*
X74666D02*
Y298770D01*
X75197Y297687D02*
Y298770D01*
X69294Y297687D02*
Y298770D01*
X561467Y72989D02*
X562549D01*
X561467Y59055D02*
Y75197D01*
X562549Y59055D02*
Y75197D01*
X561467Y74666D02*
X562549D01*
X561467Y75197D02*
X562549D01*
X561467Y69294D02*
X562549D01*
X75197Y372490D02*
Y373573D01*
X59055D02*
X75197D01*
X59055Y372490D02*
X75197D01*
X72989D02*
Y373573D01*
X74666Y372490D02*
Y373573D01*
X69294Y372490D02*
Y373573D01*
X679577Y544882D02*
X680659D01*
X679577D02*
Y561024D01*
X680659Y544882D02*
Y561024D01*
X679577Y545413D02*
X680659D01*
X679577Y547090D02*
X680659D01*
X679577Y550785D02*
X680659D01*
X1177011Y254380D02*
Y255463D01*
X1174803D02*
X1190945D01*
X1174803Y254380D02*
X1190945D01*
X1174803D02*
Y255463D01*
X1175334Y254380D02*
Y255463D01*
X1180706Y254380D02*
Y255463D01*
X655955Y544882D02*
X657037D01*
X655955D02*
Y561024D01*
X657037Y544882D02*
Y561024D01*
X655955Y545413D02*
X657037D01*
X655955Y547090D02*
X657037D01*
X655955Y550785D02*
X657037D01*
X1174803Y278002D02*
Y279085D01*
X1190945D01*
X1174803Y278002D02*
X1190945D01*
X1175334D02*
Y279085D01*
X1177011Y278002D02*
Y279085D01*
X1180706Y278002D02*
Y279085D01*
X600837Y544882D02*
X601919D01*
Y561024D01*
X600837Y544882D02*
Y561024D01*
Y545413D02*
X601919D01*
X600837Y547090D02*
X601919D01*
X600837Y550785D02*
X601919D01*
X1174803Y333120D02*
Y334203D01*
X1190945D01*
X1174803Y333120D02*
X1190945D01*
X1175334D02*
Y334203D01*
X1177011Y333120D02*
Y334203D01*
X1180706Y333120D02*
Y334203D01*
X1174803Y297687D02*
Y298770D01*
X1190945D01*
X1174803Y297687D02*
X1190945D01*
X1175334D02*
Y298770D01*
X1177011Y297687D02*
Y298770D01*
X1180706Y297687D02*
Y298770D01*
X636270Y544882D02*
X637352D01*
Y561024D01*
X636270Y544882D02*
Y561024D01*
Y545413D02*
X637352D01*
X636270Y547090D02*
X637352D01*
X636270Y550785D02*
X637352D01*
X1174803Y340994D02*
Y342077D01*
X1190945D01*
X1174803Y340994D02*
X1190945D01*
X1175334D02*
Y342077D01*
X1177011Y340994D02*
Y342077D01*
X1180706Y340994D02*
Y342077D01*
X592963Y544882D02*
X594045D01*
X592963D02*
Y561024D01*
X594045Y544882D02*
Y561024D01*
X592963Y545413D02*
X594045D01*
X592963Y547090D02*
X594045D01*
X592963Y550785D02*
X594045D01*
X699262Y72989D02*
X700345D01*
Y59055D02*
Y75197D01*
X699262Y59055D02*
Y75197D01*
Y74666D02*
X700345D01*
X699262Y75197D02*
X700345D01*
X699262Y69294D02*
X700345D01*
X75197Y234695D02*
Y235778D01*
X59055D02*
X75197D01*
X59055Y234695D02*
X75197D01*
X72989D02*
Y235778D01*
X74666Y234695D02*
Y235778D01*
X69294Y234695D02*
Y235778D01*
X1174803Y215010D02*
Y216093D01*
X1190945D01*
X1174803Y215010D02*
X1190945D01*
X1175334D02*
Y216093D01*
X1177011Y215010D02*
Y216093D01*
X1180706Y215010D02*
Y216093D01*
X718947Y544882D02*
X720029D01*
Y561024D01*
X718947Y544882D02*
Y561024D01*
Y545413D02*
X720029D01*
X718947Y547090D02*
X720029D01*
X718947Y550785D02*
X720029D01*
X703199Y544882D02*
X704282D01*
Y561024D01*
X703199Y544882D02*
Y561024D01*
Y545413D02*
X704282D01*
X703199Y547090D02*
X704282D01*
X703199Y550785D02*
X704282D01*
X1177011Y230758D02*
Y231841D01*
X1174803D02*
X1190945D01*
X1174803Y230758D02*
X1190945D01*
X1174803D02*
Y231841D01*
X1175334Y230758D02*
Y231841D01*
X1180706Y230758D02*
Y231841D01*
X1177011Y372490D02*
Y373573D01*
X1174803D02*
X1190945D01*
X1174803Y372490D02*
X1190945D01*
X1174803D02*
Y373573D01*
X1175334Y372490D02*
Y373573D01*
X1180706Y372490D02*
Y373573D01*
X561467Y544882D02*
X562549D01*
Y561024D01*
X561467Y544882D02*
Y561024D01*
Y545413D02*
X562549D01*
X561467Y547090D02*
X562549D01*
X561467Y550785D02*
X562549D01*
X75197Y293750D02*
Y294833D01*
X59055D02*
X75197D01*
X59055Y293750D02*
X75197D01*
X72989D02*
Y294833D01*
X74666Y293750D02*
Y294833D01*
X69294Y293750D02*
Y294833D01*
X640207Y72989D02*
X641289D01*
Y59055D02*
Y75197D01*
X640207Y59055D02*
Y75197D01*
Y74666D02*
X641289D01*
X640207Y75197D02*
X641289D01*
X640207Y69294D02*
X641289D01*
X683514Y72989D02*
X684596D01*
X683514Y59055D02*
Y75197D01*
X684596Y59055D02*
Y75197D01*
X683514Y74666D02*
X684596D01*
X683514Y75197D02*
X684596D01*
X683514Y69294D02*
X684596D01*
X72989Y250443D02*
Y251526D01*
X59055D02*
X75197D01*
X59055Y250443D02*
X75197D01*
X74666D02*
Y251526D01*
X75197Y250443D02*
Y251526D01*
X69294Y250443D02*
Y251526D01*
X612648Y544882D02*
X613730D01*
Y561024D01*
X612648Y544882D02*
Y561024D01*
Y545413D02*
X613730D01*
X612648Y547090D02*
X613730D01*
X612648Y550785D02*
X613730D01*
X1174803Y321309D02*
Y322392D01*
X1190945D01*
X1174803Y321309D02*
X1190945D01*
X1175334D02*
Y322392D01*
X1177011Y321309D02*
Y322392D01*
X1180706Y321309D02*
Y322392D01*
X648081Y544882D02*
Y561024D01*
X649163Y544882D02*
Y561024D01*
X1177011Y285876D02*
Y286959D01*
X1174803D02*
X1190945D01*
X1174803Y285876D02*
X1190945D01*
X1174803D02*
Y286959D01*
X1175334Y285876D02*
Y286959D01*
X1180706Y285876D02*
Y286959D01*
X72989Y301624D02*
Y302707D01*
X59055D02*
X75197D01*
X59055Y301624D02*
X75197D01*
X74666D02*
Y302707D01*
X75197Y301624D02*
Y302707D01*
X69294Y301624D02*
Y302707D01*
X632333Y72989D02*
X633415D01*
X632333Y59055D02*
Y75197D01*
X633415Y59055D02*
Y75197D01*
X632333Y74666D02*
X633415D01*
X632333Y75197D02*
X633415D01*
X632333Y69294D02*
X633415D01*
X600837Y72989D02*
X601919D01*
Y59055D02*
Y75197D01*
X600837Y59055D02*
Y75197D01*
Y74666D02*
X601919D01*
X600837Y75197D02*
X601919D01*
X600837Y69294D02*
X601919D01*
X72989Y333120D02*
Y334203D01*
X59055D02*
X75197D01*
X59055Y333120D02*
X75197D01*
X74666D02*
Y334203D01*
X75197Y333120D02*
Y334203D01*
X69294Y333120D02*
Y334203D01*
X72989Y262254D02*
Y263337D01*
X59055D02*
X75197D01*
X59055Y262254D02*
X75197D01*
X74666D02*
Y263337D01*
X75197Y262254D02*
Y263337D01*
X69294Y262254D02*
Y263337D01*
X671703Y72989D02*
X672786D01*
X671703Y59055D02*
Y75197D01*
X672786Y59055D02*
Y75197D01*
X671703Y74666D02*
X672786D01*
X671703Y75197D02*
X672786D01*
X671703Y69294D02*
X672786D01*
X75197Y230758D02*
Y231841D01*
X59055D02*
X75197D01*
X59055Y230758D02*
X75197D01*
X72989D02*
Y231841D01*
X74666Y230758D02*
Y231841D01*
X69294Y230758D02*
Y231841D01*
X703199Y72989D02*
X704282D01*
X703199Y59055D02*
Y75197D01*
X704282Y59055D02*
Y75197D01*
X703199Y74666D02*
X704282D01*
X703199Y75197D02*
X704282D01*
X703199Y69294D02*
X704282D01*
X604774Y544882D02*
X605856D01*
Y561024D01*
X604774Y544882D02*
Y561024D01*
Y545413D02*
X605856D01*
X604774Y547090D02*
X605856D01*
X604774Y550785D02*
X605856D01*
X1177011Y329183D02*
Y330266D01*
X1174803D02*
X1190945D01*
X1174803Y329183D02*
X1190945D01*
X1174803D02*
Y330266D01*
X1175334Y329183D02*
Y330266D01*
X1180706Y329183D02*
Y330266D01*
X72989Y348868D02*
Y349951D01*
X59055D02*
X75197D01*
X59055Y348868D02*
X75197D01*
X74666D02*
Y349951D01*
X75197Y348868D02*
Y349951D01*
X69294Y348868D02*
Y349951D01*
X585089Y72989D02*
X586171D01*
X585089Y59055D02*
Y75197D01*
X586171Y59055D02*
Y75197D01*
X585089Y74666D02*
X586171D01*
X585089Y75197D02*
X586171D01*
X585089Y69294D02*
X586171D01*
X75197Y337057D02*
Y338140D01*
X59055D02*
X75197D01*
X59055Y337057D02*
X75197D01*
X72989D02*
Y338140D01*
X74666Y337057D02*
Y338140D01*
X69294Y337057D02*
Y338140D01*
X596900Y72989D02*
X597982D01*
X596900Y59055D02*
Y75197D01*
X597982Y59055D02*
Y75197D01*
X596900Y74666D02*
X597982D01*
X596900Y75197D02*
X597982D01*
X596900Y69294D02*
X597982D01*
X557529Y544882D02*
X558612D01*
Y561024D01*
X557529Y544882D02*
Y561024D01*
Y545413D02*
X558612D01*
X557529Y547090D02*
X558612D01*
X557529Y550785D02*
X558612D01*
X1174803Y376427D02*
Y377510D01*
X1190945D01*
X1174803Y376427D02*
X1190945D01*
X1175334D02*
Y377510D01*
X1177011Y376427D02*
Y377510D01*
X1180706Y376427D02*
Y377510D01*
X608711Y72989D02*
X609793D01*
X608711Y59055D02*
Y75197D01*
X609793Y59055D02*
Y75197D01*
X608711Y74666D02*
X609793D01*
X608711Y75197D02*
X609793D01*
X608711Y69294D02*
X609793D01*
X72989Y325246D02*
Y326329D01*
X59055D02*
X75197D01*
X59055Y325246D02*
X75197D01*
X74666D02*
Y326329D01*
X75197Y325246D02*
Y326329D01*
X69294Y325246D02*
Y326329D01*
X72989Y317372D02*
Y318455D01*
X59055D02*
X75197D01*
X59055Y317372D02*
X75197D01*
X74666D02*
Y318455D01*
X75197Y317372D02*
Y318455D01*
X69294Y317372D02*
Y318455D01*
X616585Y72989D02*
X617667D01*
Y59055D02*
Y75197D01*
X616585Y59055D02*
Y75197D01*
Y74666D02*
X617667D01*
X616585Y75197D02*
X617667D01*
X616585Y69294D02*
X617667D01*
X1174803Y262254D02*
Y263337D01*
X1190945D01*
X1174803Y262254D02*
X1190945D01*
X1175334D02*
Y263337D01*
X1177011Y262254D02*
Y263337D01*
X1180706Y262254D02*
Y263337D01*
X671703Y544882D02*
X672786D01*
Y561024D01*
X671703Y544882D02*
Y561024D01*
Y545413D02*
X672786D01*
X671703Y547090D02*
X672786D01*
X671703Y550785D02*
X672786D01*
X1177011Y222884D02*
Y223967D01*
X1174803D02*
X1190945D01*
X1174803Y222884D02*
X1190945D01*
X1174803D02*
Y223967D01*
X1175334Y222884D02*
Y223967D01*
X1180706Y222884D02*
Y223967D01*
X711073Y544882D02*
X712155D01*
Y561024D01*
X711073Y544882D02*
Y561024D01*
Y545413D02*
X712155D01*
X711073Y547090D02*
X712155D01*
X711073Y550785D02*
X712155D01*
X72989Y388238D02*
Y389321D01*
X59055D02*
X75197D01*
X59055Y388238D02*
X75197D01*
X74666D02*
Y389321D01*
X75197Y388238D02*
Y389321D01*
X69294Y388238D02*
Y389321D01*
X545718Y72989D02*
X546801D01*
Y59055D02*
Y75197D01*
X545718Y59055D02*
Y75197D01*
Y74666D02*
X546801D01*
X545718Y75197D02*
X546801D01*
X545718Y69294D02*
X546801D01*
X533908Y72989D02*
X534990D01*
Y59055D02*
Y75197D01*
X533908Y59055D02*
Y75197D01*
Y74666D02*
X534990D01*
X533908Y75197D02*
X534990D01*
X533908Y69294D02*
X534990D01*
X75197Y400049D02*
Y401132D01*
X59055D02*
X75197D01*
X59055Y400049D02*
X75197D01*
X72989D02*
Y401132D01*
X74666Y400049D02*
Y401132D01*
X69294Y400049D02*
Y401132D01*
X628396Y544882D02*
X629478D01*
Y561024D01*
X628396Y544882D02*
Y561024D01*
Y545413D02*
X629478D01*
X628396Y547090D02*
X629478D01*
X628396Y550785D02*
X629478D01*
X1174803Y305561D02*
Y306644D01*
X1190945D01*
X1174803Y305561D02*
X1190945D01*
X1175334D02*
Y306644D01*
X1177011Y305561D02*
Y306644D01*
X1180706Y305561D02*
Y306644D01*
X695325Y72989D02*
X696408D01*
Y59055D02*
Y75197D01*
X695325Y59055D02*
Y75197D01*
Y74666D02*
X696408D01*
X695325Y75197D02*
X696408D01*
X695325Y69294D02*
X696408D01*
X72989Y238632D02*
Y239715D01*
X59055D02*
X75197D01*
X59055Y238632D02*
X75197D01*
X74666D02*
Y239715D01*
X75197Y238632D02*
Y239715D01*
X69294Y238632D02*
Y239715D01*
X1174803Y348868D02*
Y349951D01*
X1190945D01*
X1174803Y348868D02*
X1190945D01*
X1175334D02*
Y349951D01*
X1177011Y348868D02*
Y349951D01*
X1180706Y348868D02*
Y349951D01*
X585089Y544882D02*
X586171D01*
Y561024D01*
X585089Y544882D02*
Y561024D01*
Y545413D02*
X586171D01*
X585089Y547090D02*
X586171D01*
X585089Y550785D02*
X586171D01*
X1174803Y226821D02*
Y227904D01*
X1190945D01*
X1174803Y226821D02*
X1190945D01*
X1175334D02*
Y227904D01*
X1177011Y226821D02*
Y227904D01*
X1180706Y226821D02*
Y227904D01*
X707136Y544882D02*
X708218D01*
X707136D02*
Y561024D01*
X708218Y544882D02*
Y561024D01*
X707136Y545413D02*
X708218D01*
X707136Y547090D02*
X708218D01*
X707136Y550785D02*
X708218D01*
X565404Y72989D02*
X566486D01*
X565404Y59055D02*
Y75197D01*
X566486Y59055D02*
Y75197D01*
X565404Y74666D02*
X566486D01*
X565404Y75197D02*
X566486D01*
X565404Y69294D02*
X566486D01*
X75197Y368553D02*
Y369636D01*
X59055D02*
X75197D01*
X59055Y368553D02*
X75197D01*
X72989D02*
Y369636D01*
X74666Y368553D02*
Y369636D01*
X69294Y368553D02*
Y369636D01*
X557529Y72989D02*
X558612D01*
X557529Y59055D02*
Y75197D01*
X558612Y59055D02*
Y75197D01*
X557529Y74666D02*
X558612D01*
X557529Y75197D02*
X558612D01*
X557529Y69294D02*
X558612D01*
X75197Y376427D02*
Y377510D01*
X59055D02*
X75197D01*
X59055Y376427D02*
X75197D01*
X72989D02*
Y377510D01*
X74666Y376427D02*
Y377510D01*
X69294Y376427D02*
Y377510D01*
X75197Y226821D02*
Y227904D01*
X59055D02*
X75197D01*
X59055Y226821D02*
X75197D01*
X72989D02*
Y227904D01*
X74666Y226821D02*
Y227904D01*
X69294Y226821D02*
Y227904D01*
X707136Y72989D02*
X708218D01*
Y59055D02*
Y75197D01*
X707136Y59055D02*
Y75197D01*
Y74666D02*
X708218D01*
X707136Y75197D02*
X708218D01*
X707136Y69294D02*
X708218D01*
X608711Y544882D02*
X609793D01*
Y561024D01*
X608711Y544882D02*
Y561024D01*
Y545413D02*
X609793D01*
X608711Y547090D02*
X609793D01*
X608711Y550785D02*
X609793D01*
X1174803Y325246D02*
Y326329D01*
X1190945D01*
X1174803Y325246D02*
X1190945D01*
X1175334D02*
Y326329D01*
X1177011Y325246D02*
Y326329D01*
X1180706Y325246D02*
Y326329D01*
X75197Y380364D02*
Y381447D01*
X59055D02*
X75197D01*
X59055Y380364D02*
X75197D01*
X72989D02*
Y381447D01*
X74666Y380364D02*
Y381447D01*
X69294Y380364D02*
Y381447D01*
X553592Y72989D02*
X554675D01*
Y59055D02*
Y75197D01*
X553592Y59055D02*
Y75197D01*
Y74666D02*
X554675D01*
X553592Y75197D02*
X554675D01*
X553592Y69294D02*
X554675D01*
X655955Y72989D02*
X657037D01*
X655955Y59055D02*
Y75197D01*
X657037Y59055D02*
Y75197D01*
X655955Y74666D02*
X657037D01*
X655955Y75197D02*
X657037D01*
X655955Y69294D02*
X657037D01*
X72989Y278002D02*
Y279085D01*
X59055D02*
X75197D01*
X59055Y278002D02*
X75197D01*
X74666D02*
Y279085D01*
X75197Y278002D02*
Y279085D01*
X69294Y278002D02*
Y279085D01*
X75197Y396112D02*
Y397195D01*
X59055D02*
X75197D01*
X59055Y396112D02*
X75197D01*
X72989D02*
Y397195D01*
X74666Y396112D02*
Y397195D01*
X69294Y396112D02*
Y397195D01*
X537845Y72989D02*
X538927D01*
X537845Y59055D02*
Y75197D01*
X538927Y59055D02*
Y75197D01*
X537845Y74666D02*
X538927D01*
X537845Y75197D02*
X538927D01*
X537845Y69294D02*
X538927D01*
X75197Y356742D02*
Y357825D01*
X59055D02*
X75197D01*
X59055Y356742D02*
X75197D01*
X72989D02*
Y357825D01*
X74666Y356742D02*
Y357825D01*
X69294Y356742D02*
Y357825D01*
X577214Y72989D02*
X578297D01*
X577214Y59055D02*
Y75197D01*
X578297Y59055D02*
Y75197D01*
X577214Y74666D02*
X578297D01*
X577214Y75197D02*
X578297D01*
X577214Y69294D02*
X578297D01*
X565404Y544882D02*
X566486D01*
X565404D02*
Y561024D01*
X566486Y544882D02*
Y561024D01*
X565404Y545413D02*
X566486D01*
X565404Y547090D02*
X566486D01*
X565404Y550785D02*
X566486D01*
X1177011Y368553D02*
Y369636D01*
X1174803D02*
X1190945D01*
X1174803Y368553D02*
X1190945D01*
X1174803D02*
Y369636D01*
X1175334Y368553D02*
Y369636D01*
X1180706Y368553D02*
Y369636D01*
X722884Y72989D02*
X723967D01*
X722884Y59055D02*
Y75197D01*
X723967Y59055D02*
Y75197D01*
X722884Y74666D02*
X723967D01*
X722884Y75197D02*
X723967D01*
X722884Y69294D02*
X723967D01*
X75197Y211073D02*
Y212156D01*
X59055D02*
X75197D01*
X59055Y211073D02*
X75197D01*
X72989D02*
Y212156D01*
X74666Y211073D02*
Y212156D01*
X69294Y211073D02*
Y212156D01*
X1174803Y384301D02*
Y385384D01*
X1190945D01*
X1174803Y384301D02*
X1190945D01*
X1175334D02*
Y385384D01*
X1177011Y384301D02*
Y385384D01*
X1180706Y384301D02*
Y385384D01*
X549655Y544882D02*
X550738D01*
Y561024D01*
X549655Y544882D02*
Y561024D01*
Y545413D02*
X550738D01*
X549655Y547090D02*
X550738D01*
X549655Y550785D02*
X550738D01*
X620522Y544882D02*
X621604D01*
Y561024D01*
X620522Y544882D02*
Y561024D01*
Y545413D02*
X621604D01*
X620522Y547090D02*
X621604D01*
X620522Y550785D02*
X621604D01*
X1177011Y313435D02*
Y314518D01*
X1174803D02*
X1190945D01*
X1174803Y313435D02*
X1190945D01*
X1174803D02*
Y314518D01*
X1175334Y313435D02*
Y314518D01*
X1180706Y313435D02*
Y314518D01*
X541782Y72989D02*
X542864D01*
X541782Y59055D02*
Y75197D01*
X542864Y59055D02*
Y75197D01*
X541782Y74666D02*
X542864D01*
X541782Y75197D02*
X542864D01*
X541782Y69294D02*
X542864D01*
X75197Y392175D02*
Y393258D01*
X59055D02*
X75197D01*
X59055Y392175D02*
X75197D01*
X72989D02*
Y393258D01*
X74666Y392175D02*
Y393258D01*
X69294Y392175D02*
Y393258D01*
X1177011Y396112D02*
Y397195D01*
X1174803D02*
X1190945D01*
X1174803Y396112D02*
X1190945D01*
X1174803D02*
Y397195D01*
X1175334Y396112D02*
Y397195D01*
X1180706Y396112D02*
Y397195D01*
X537845Y544882D02*
X538927D01*
X537845D02*
Y561024D01*
X538927Y544882D02*
Y561024D01*
X537845Y545413D02*
X538927D01*
X537845Y547090D02*
X538927D01*
X537845Y550785D02*
X538927D01*
X624459Y544882D02*
X625541D01*
Y561024D01*
X624459Y544882D02*
Y561024D01*
Y545413D02*
X625541D01*
X624459Y547090D02*
X625541D01*
X624459Y550785D02*
X625541D01*
X1177011Y309498D02*
Y310581D01*
X1174803D02*
X1190945D01*
X1174803Y309498D02*
X1190945D01*
X1174803D02*
Y310581D01*
X1175334Y309498D02*
Y310581D01*
X1180706Y309498D02*
Y310581D01*
X72989Y352805D02*
Y353888D01*
X59055D02*
X75197D01*
X59055Y352805D02*
X75197D01*
X74666D02*
Y353888D01*
X75197Y352805D02*
Y353888D01*
X69294Y352805D02*
Y353888D01*
X581151Y72989D02*
X582234D01*
Y59055D02*
Y75197D01*
X581151Y59055D02*
Y75197D01*
Y74666D02*
X582234D01*
X581151Y75197D02*
X582234D01*
X581151Y69294D02*
X582234D01*
X1177011Y246506D02*
Y247589D01*
X1174803D02*
X1190945D01*
X1174803Y246506D02*
X1190945D01*
X1174803D02*
Y247589D01*
X1175334Y246506D02*
Y247589D01*
X1180706Y246506D02*
Y247589D01*
X687451Y544882D02*
X688533D01*
X687451D02*
Y561024D01*
X688533Y544882D02*
Y561024D01*
X687451Y545413D02*
X688533D01*
X687451Y547090D02*
X688533D01*
X687451Y550785D02*
X688533D01*
X1174803Y274065D02*
Y275148D01*
X1190945D01*
X1174803Y274065D02*
X1190945D01*
X1175334D02*
Y275148D01*
X1177011Y274065D02*
Y275148D01*
X1180706Y274065D02*
Y275148D01*
X659892Y544882D02*
X660975D01*
Y561024D01*
X659892Y544882D02*
Y561024D01*
Y545413D02*
X660975D01*
X659892Y547090D02*
X660975D01*
X659892Y550785D02*
X660975D01*
X549655Y72989D02*
X550738D01*
X549655Y59055D02*
Y75197D01*
X550738Y59055D02*
Y75197D01*
X549655Y74666D02*
X550738D01*
X549655Y75197D02*
X550738D01*
X549655Y69294D02*
X550738D01*
X75197Y384301D02*
Y385384D01*
X59055D02*
X75197D01*
X59055Y384301D02*
X75197D01*
X72989D02*
Y385384D01*
X74666Y384301D02*
Y385384D01*
X69294Y384301D02*
Y385384D01*
X663829Y72989D02*
X664912D01*
Y59055D02*
Y75197D01*
X663829Y59055D02*
Y75197D01*
Y74666D02*
X664912D01*
X663829Y75197D02*
X664912D01*
X663829Y69294D02*
X664912D01*
X75197Y270128D02*
Y271211D01*
X59055D02*
X75197D01*
X59055Y270128D02*
X75197D01*
X72989D02*
Y271211D01*
X74666Y270128D02*
Y271211D01*
X69294Y270128D02*
Y271211D01*
X75197Y274065D02*
Y275148D01*
X59055D02*
X75197D01*
X59055Y274065D02*
X75197D01*
X72989D02*
Y275148D01*
X74666Y274065D02*
Y275148D01*
X69294Y274065D02*
Y275148D01*
X659892Y72989D02*
X660975D01*
X659892Y59055D02*
Y75197D01*
X660975Y59055D02*
Y75197D01*
X659892Y74666D02*
X660975D01*
X659892Y75197D02*
X660975D01*
X659892Y69294D02*
X660975D01*
X529971Y544882D02*
X531053D01*
Y561024D01*
X529971Y544882D02*
Y561024D01*
Y545413D02*
X531053D01*
X529971Y547090D02*
X531053D01*
X529971Y550785D02*
X531053D01*
X1174803Y403986D02*
Y405069D01*
X1190945D01*
X1174803Y403986D02*
X1190945D01*
X1175334D02*
Y405069D01*
X1177011Y403986D02*
Y405069D01*
X1180706Y403986D02*
Y405069D01*
X581151Y544882D02*
X582234D01*
X581151D02*
Y561024D01*
X582234Y544882D02*
Y561024D01*
X581151Y545413D02*
X582234D01*
X581151Y547090D02*
X582234D01*
X581151Y550785D02*
X582234D01*
X1174803Y352805D02*
Y353888D01*
X1190945D01*
X1174803Y352805D02*
X1190945D01*
X1175334D02*
Y353888D01*
X1177011Y352805D02*
Y353888D01*
X1180706Y352805D02*
Y353888D01*
X640207Y544882D02*
X641289D01*
Y561024D01*
X640207Y544882D02*
Y561024D01*
Y545413D02*
X641289D01*
X640207Y547090D02*
X641289D01*
X640207Y550785D02*
X641289D01*
X1177011Y293750D02*
Y294833D01*
X1174803D02*
X1190945D01*
X1174803Y293750D02*
X1190945D01*
X1174803D02*
Y294833D01*
X1175334Y293750D02*
Y294833D01*
X1180706Y293750D02*
Y294833D01*
X75197Y329183D02*
Y330266D01*
X59055D02*
X75197D01*
X59055Y329183D02*
X75197D01*
X72989D02*
Y330266D01*
X74666Y329183D02*
Y330266D01*
X69294Y329183D02*
Y330266D01*
X604774Y72989D02*
X605856D01*
X604774Y59055D02*
Y75197D01*
X605856Y59055D02*
Y75197D01*
X604774Y74666D02*
X605856D01*
X604774Y75197D02*
X605856D01*
X604774Y69294D02*
X605856D01*
X718947Y72989D02*
X720029D01*
Y59055D02*
Y75197D01*
X718947Y59055D02*
Y75197D01*
Y74666D02*
X720029D01*
X718947Y75197D02*
X720029D01*
X718947Y69294D02*
X720029D01*
X72989Y215010D02*
Y216093D01*
X59055D02*
X75197D01*
X59055Y215010D02*
X75197D01*
X74666D02*
Y216093D01*
X75197Y215010D02*
Y216093D01*
X69294Y215010D02*
Y216093D01*
X72989Y407923D02*
Y409006D01*
X59055D02*
X75197D01*
X59055Y407923D02*
X75197D01*
X74666D02*
Y409006D01*
X75197Y407923D02*
Y409006D01*
X69294Y407923D02*
Y409006D01*
X526033Y72989D02*
X527116D01*
X526033Y59055D02*
Y75197D01*
X527116Y59055D02*
Y75197D01*
X526033Y74666D02*
X527116D01*
X526033Y75197D02*
X527116D01*
X526033Y69294D02*
X527116D01*
X178036Y350748D02*
X178071Y350748D01*
X175523Y346942D02*
X175530Y346926D01*
X176113Y346053D02*
X176137Y346029D01*
X178056Y345236D02*
X178090D01*
X180615Y346932D02*
X180621Y346948D01*
X180827Y347977D02*
Y348011D01*
X180020Y349941D02*
X180032Y349929D01*
X185523Y346942D02*
X185530Y346926D01*
X188073Y345236D02*
X188090D01*
X1071350Y346943D02*
X1071356Y346927D01*
X1073899Y345236D02*
X1073916D01*
X1063863Y350748D02*
X1063898Y350748D01*
X1061350Y346942D02*
X1061357Y346926D01*
X1061940Y346053D02*
X1061952Y346041D01*
X1063900Y345236D02*
X1063917D01*
X1066442Y346932D02*
X1066448Y346948D01*
X1066654Y347977D02*
Y348011D01*
X1065846Y349941D02*
X1065858Y349929D01*
X185523Y336943D02*
X185529Y336927D01*
X188072Y335236D02*
X188089D01*
X1071350Y336943D02*
X1071356Y336927D01*
X1073899Y335236D02*
X1073916D01*
X1061349Y336943D02*
X1061356Y336927D01*
X1061939Y336054D02*
X1061963Y336030D01*
X1063881Y335236D02*
X1063916D01*
X1066441Y336931D02*
X1066448Y336947D01*
X1066654Y337976D02*
Y338011D01*
X1065847Y339941D02*
X1065859Y339929D01*
X178036Y340748D02*
X178071Y340748D01*
X175523Y336942D02*
X175530Y336926D01*
X176113Y336053D02*
X176137Y336029D01*
X178056Y335236D02*
X178090D01*
X180615Y336932D02*
X180621Y336948D01*
X180827Y337977D02*
Y338011D01*
X180020Y339941D02*
X180032Y339929D01*
X1071350Y326943D02*
X1071356Y326927D01*
X1073899Y325236D02*
X1073916D01*
X1076653Y327994D02*
Y328011D01*
X1075846Y329941D02*
X1075859Y329929D01*
X1061349Y326943D02*
X1061356Y326927D01*
X1061939Y326054D02*
X1061963Y326030D01*
X1063881Y325236D02*
X1063916D01*
X1066441Y326931D02*
X1066448Y326947D01*
X1066654Y327976D02*
Y328011D01*
X1065847Y329941D02*
X1065859Y329929D01*
X175523Y326942D02*
X175530Y326926D01*
X178073Y325236D02*
X178090D01*
X180615Y326932D02*
X180621Y326948D01*
X180827Y327977D02*
Y327994D01*
X185523Y326942D02*
X185530Y326926D01*
X188073Y325236D02*
X188090D01*
X1071350Y316943D02*
X1071356Y316927D01*
X1073899Y315236D02*
X1073916D01*
X1076653Y317994D02*
Y318011D01*
X1075846Y319941D02*
X1075859Y319929D01*
X175523Y316942D02*
X175530Y316926D01*
X176125Y316041D02*
X176137Y316029D01*
X178056Y315236D02*
X178090D01*
X180615Y316932D02*
X180621Y316948D01*
X180827Y317977D02*
Y318011D01*
X180020Y319941D02*
X180032Y319929D01*
X185523Y316942D02*
X185530Y316926D01*
X188073Y315236D02*
X188090D01*
X1061349Y316943D02*
X1061356Y316927D01*
X1063899Y315236D02*
X1063916D01*
X1066654Y317994D02*
Y318011D01*
X1065847Y319941D02*
X1065859Y319929D01*
X1061349Y306943D02*
X1061356Y306927D01*
X1063899Y305236D02*
X1063916D01*
X1071350Y306943D02*
X1071356Y306927D01*
X1073899Y305236D02*
X1073916D01*
X1076653Y307994D02*
Y308011D01*
X1075846Y309941D02*
X1075859Y309929D01*
X185523Y306942D02*
X185530Y306926D01*
X188073Y305236D02*
X188090D01*
X178036Y310748D02*
X178071Y310748D01*
X175523Y306942D02*
X175530Y306926D01*
X176113Y306053D02*
X176137Y306029D01*
X178056Y305236D02*
X178090D01*
X180615Y306932D02*
X180621Y306948D01*
X180827Y307977D02*
Y308011D01*
X180020Y309941D02*
X180032Y309929D01*
X1071350Y296943D02*
X1071356Y296927D01*
X1071939Y296054D02*
X1071963Y296030D01*
X1073881Y295236D02*
X1073916D01*
X1076441Y296931D02*
X1076448Y296947D01*
X1076653Y297976D02*
Y298011D01*
X1075846Y299941D02*
X1075859Y299929D01*
X1061349Y296943D02*
X1061356Y296927D01*
X1061939Y296054D02*
X1061963Y296030D01*
X1063881Y295236D02*
X1063916D01*
X1066441Y296931D02*
X1066448Y296947D01*
X1066654Y297976D02*
Y297994D01*
X175523Y296942D02*
X175530Y296926D01*
X178073Y295236D02*
X178090D01*
X185523Y296942D02*
X185530Y296926D01*
X188073Y295236D02*
X188090D01*
X190615Y296932D02*
X190621Y296948D01*
X190827Y297977D02*
Y298011D01*
X190020Y299941D02*
X190032Y299929D01*
X1071350Y286943D02*
X1071356Y286927D01*
X1071939Y286054D02*
X1071963Y286030D01*
X1073881Y285236D02*
X1073916D01*
X1076441Y286931D02*
X1076448Y286947D01*
X1076653Y287976D02*
Y288011D01*
X1075846Y289941D02*
X1075859Y289929D01*
X185523Y286942D02*
X185530Y286926D01*
X188073Y285236D02*
X188090D01*
X178036Y290748D02*
X178071Y290748D01*
X175523Y286942D02*
X175530Y286926D01*
X176113Y286053D02*
X176137Y286029D01*
X178056Y285236D02*
X178090D01*
X180615Y286932D02*
X180621Y286948D01*
X180827Y287977D02*
Y288011D01*
X180020Y289941D02*
X180032Y289929D01*
X1061349Y286943D02*
X1061356Y286927D01*
X1063899Y285236D02*
X1063916D01*
X1066654Y287994D02*
Y288011D01*
X1065847Y289941D02*
X1065859Y289929D01*
X185523Y276942D02*
X185530Y276926D01*
X188073Y275236D02*
X188090D01*
X175523Y276942D02*
X175530Y276926D01*
X178073Y275236D02*
X178090D01*
X1071350Y276943D02*
X1071356Y276927D01*
X1073899Y275236D02*
X1073916D01*
X1061349Y276943D02*
X1061356Y276927D01*
X1063899Y275236D02*
X1063916D01*
X1061142Y277992D02*
X1066654D01*
X1063898Y275236D02*
Y280748D01*
X175315Y277992D02*
X180827D01*
X178071Y275236D02*
Y280748D01*
X393110Y59055D02*
Y620079D01*
Y59055D02*
X491536D01*
X1086614Y0D02*
Y620079D01*
X165354Y0D02*
Y620079D01*
X1086614Y368110D02*
Y620079D01*
X1250000D01*
X165354Y368110D02*
Y620079D01*
X0D02*
X165354D01*
X59055Y310040D02*
X1190945D01*
X507677Y68898D02*
Y551181D01*
X68898Y192717D02*
X1181102D01*
Y427362D01*
X68898D02*
X1181102D01*
X68898Y192717D02*
Y427362D01*
X507677Y551181D02*
X742323D01*
Y68898D02*
Y551181D01*
X507677Y68898D02*
X742323D01*
X290748Y523228D02*
X384842D01*
X1059055Y14961D02*
Y605118D01*
X190945Y14961D02*
X1059055D01*
X190945D02*
Y605118D01*
X1059055D01*
X25591Y0D02*
X190945D01*
Y14961D01*
X1059055Y0D02*
Y14961D01*
Y0D02*
X1224409D01*
X1059055Y620079D02*
X1224409D01*
X1059055Y605118D02*
Y620079D01*
X0Y310040D02*
X1250000D01*
X190945Y605118D02*
Y620079D01*
X25591D02*
X190945D01*
X25591Y594488D02*
X1224409D01*
Y25591D02*
Y594488D01*
X25591Y25591D02*
X1224409D01*
X25591D02*
Y594488D01*
D37*
X178083Y277992D02*
G03*
X178083Y277992I-13J0D01*
G01*
X1063910D02*
G03*
X1063910Y277992I-13J0D01*
G01*
X1181115Y192717D02*
G03*
X1181115Y192717I-13J0D01*
G01*
Y427362D02*
G03*
X1181115Y427362I-13J0D01*
G01*
X742335Y68898D02*
G03*
X742335Y68898I-13J0D01*
G01*
X507690D02*
G03*
X507690Y68898I-13J0D01*
G01*
X68910Y192717D02*
G03*
X68910Y192717I-13J0D01*
G01*
Y427362D02*
G03*
X68910Y427362I-13J0D01*
G01*
X507690Y551181D02*
G03*
X507690Y551181I-13J0D01*
G01*
D02*
G03*
X507690Y551181I-13J0D01*
G01*
X290761Y523229D02*
G03*
X290761Y523229I-13J0D01*
G01*
X384855D02*
G03*
X384855Y523229I-13J0D01*
G01*
M02*
