G04*
G04 #@! TF.GenerationSoftware,Altium Limited,Altium Designer,22.11.1 (43)*
G04*
G04 Layer_Color=16711935*
%FSLAX25Y25*%
%MOIN*%
G70*
G04*
G04 #@! TF.SameCoordinates,D8721490-EFAD-4B60-BC7D-2FE2E35DC6D6*
G04*
G04*
G04 #@! TF.FilePolarity,Positive*
G04*
G01*
G75*
%ADD10C,0.00787*%
G36*
X921543Y154500D02*
X921233D01*
Y156469D01*
X921230Y156465D01*
X921212Y156451D01*
X921190Y156429D01*
X921153Y156404D01*
X921113Y156371D01*
X921062Y156334D01*
X921004Y156294D01*
X920938Y156254D01*
X920935D01*
X920931Y156251D01*
X920909Y156236D01*
X920873Y156218D01*
X920829Y156196D01*
X920778Y156171D01*
X920724Y156145D01*
X920669Y156120D01*
X920615Y156098D01*
Y156396D01*
X920618D01*
X920625Y156404D01*
X920640Y156407D01*
X920658Y156418D01*
X920680Y156429D01*
X920706Y156444D01*
X920767Y156480D01*
X920840Y156520D01*
X920913Y156571D01*
X920990Y156629D01*
X921066Y156691D01*
X921070Y156695D01*
X921073Y156699D01*
X921084Y156709D01*
X921099Y156720D01*
X921132Y156757D01*
X921175Y156800D01*
X921219Y156851D01*
X921266Y156910D01*
X921306Y156968D01*
X921343Y157030D01*
X921543D01*
Y154500D01*
D02*
G37*
G36*
X919166Y157015D02*
X919199D01*
X919275Y157011D01*
X919355Y157001D01*
X919442Y156990D01*
X919523Y156972D01*
X919563Y156960D01*
X919595Y156950D01*
X919599D01*
X919603Y156946D01*
X919625Y156935D01*
X919657Y156921D01*
X919697Y156895D01*
X919741Y156862D01*
X919788Y156819D01*
X919832Y156768D01*
X919876Y156709D01*
Y156706D01*
X919879Y156702D01*
X919894Y156680D01*
X919908Y156644D01*
X919930Y156597D01*
X919948Y156542D01*
X919967Y156476D01*
X919978Y156407D01*
X919981Y156331D01*
Y156327D01*
Y156320D01*
Y156305D01*
X919978Y156287D01*
Y156262D01*
X919974Y156236D01*
X919959Y156174D01*
X919938Y156102D01*
X919908Y156025D01*
X919865Y155949D01*
X919836Y155912D01*
X919806Y155876D01*
X919803Y155872D01*
X919799Y155868D01*
X919788Y155858D01*
X919774Y155847D01*
X919755Y155832D01*
X919734Y155818D01*
X919705Y155799D01*
X919675Y155778D01*
X919639Y155759D01*
X919599Y155741D01*
X919555Y155719D01*
X919508Y155701D01*
X919453Y155686D01*
X919399Y155668D01*
X919337Y155657D01*
X919271Y155647D01*
X919279Y155643D01*
X919293Y155636D01*
X919315Y155621D01*
X919344Y155606D01*
X919410Y155566D01*
X919442Y155541D01*
X919472Y155519D01*
X919479Y155512D01*
X919497Y155494D01*
X919526Y155464D01*
X919563Y155428D01*
X919603Y155377D01*
X919650Y155323D01*
X919697Y155257D01*
X919748Y155184D01*
X920181Y154500D01*
X919767D01*
X919435Y155024D01*
Y155028D01*
X919428Y155035D01*
X919421Y155046D01*
X919410Y155060D01*
X919384Y155101D01*
X919351Y155151D01*
X919311Y155206D01*
X919271Y155264D01*
X919231Y155319D01*
X919195Y155370D01*
X919191Y155374D01*
X919180Y155388D01*
X919162Y155410D01*
X919137Y155435D01*
X919082Y155490D01*
X919053Y155516D01*
X919024Y155537D01*
X919020Y155541D01*
X919013Y155545D01*
X918998Y155552D01*
X918977Y155563D01*
X918955Y155574D01*
X918929Y155585D01*
X918871Y155603D01*
X918867D01*
X918860Y155606D01*
X918845D01*
X918827Y155610D01*
X918802Y155614D01*
X918773D01*
X918733Y155617D01*
X918303D01*
Y154500D01*
X917968D01*
Y157019D01*
X919137D01*
X919166Y157015D01*
D02*
G37*
G36*
X921274Y133026D02*
X921303Y133022D01*
X921339Y133019D01*
X921379Y133011D01*
X921419Y133004D01*
X921514Y132979D01*
X921608Y132942D01*
X921656Y132920D01*
X921703Y132895D01*
X921747Y132862D01*
X921787Y132826D01*
X921790Y132822D01*
X921798Y132818D01*
X921805Y132804D01*
X921819Y132789D01*
X921838Y132771D01*
X921856Y132746D01*
X921874Y132720D01*
X921896Y132687D01*
X921932Y132618D01*
X921969Y132531D01*
X921983Y132487D01*
X921991Y132436D01*
X921998Y132385D01*
X922001Y132331D01*
Y132323D01*
Y132305D01*
X921998Y132276D01*
X921994Y132236D01*
X921987Y132192D01*
X921972Y132141D01*
X921958Y132087D01*
X921936Y132032D01*
X921932Y132025D01*
X921925Y132007D01*
X921910Y131978D01*
X921889Y131938D01*
X921859Y131894D01*
X921823Y131839D01*
X921780Y131785D01*
X921729Y131723D01*
X921721Y131716D01*
X921703Y131694D01*
X921685Y131675D01*
X921667Y131657D01*
X921645Y131635D01*
X921616Y131606D01*
X921587Y131577D01*
X921550Y131544D01*
X921514Y131508D01*
X921470Y131468D01*
X921423Y131428D01*
X921372Y131381D01*
X921313Y131333D01*
X921255Y131282D01*
X921252Y131279D01*
X921244Y131271D01*
X921230Y131261D01*
X921212Y131246D01*
X921190Y131224D01*
X921164Y131202D01*
X921106Y131155D01*
X921044Y131100D01*
X920986Y131046D01*
X920935Y130998D01*
X920913Y130980D01*
X920895Y130962D01*
X920891Y130958D01*
X920880Y130947D01*
X920866Y130933D01*
X920848Y130911D01*
X920829Y130886D01*
X920808Y130860D01*
X920764Y130798D01*
X922005D01*
Y130500D01*
X920334D01*
Y130503D01*
Y130518D01*
Y130540D01*
X920338Y130569D01*
X920342Y130602D01*
X920349Y130638D01*
X920356Y130674D01*
X920371Y130714D01*
Y130718D01*
X920374Y130722D01*
X920382Y130744D01*
X920396Y130776D01*
X920418Y130820D01*
X920447Y130871D01*
X920484Y130929D01*
X920524Y130988D01*
X920575Y131049D01*
Y131053D01*
X920582Y131057D01*
X920600Y131079D01*
X920633Y131111D01*
X920680Y131159D01*
X920735Y131213D01*
X920804Y131279D01*
X920888Y131351D01*
X920979Y131428D01*
X920982Y131432D01*
X920997Y131442D01*
X921019Y131461D01*
X921044Y131483D01*
X921077Y131512D01*
X921117Y131544D01*
X921157Y131581D01*
X921204Y131621D01*
X921295Y131708D01*
X921386Y131796D01*
X921430Y131839D01*
X921470Y131883D01*
X921507Y131923D01*
X921536Y131963D01*
Y131967D01*
X921543Y131970D01*
X921550Y131981D01*
X921557Y131996D01*
X921583Y132036D01*
X921612Y132083D01*
X921638Y132141D01*
X921663Y132203D01*
X921677Y132272D01*
X921685Y132338D01*
Y132342D01*
Y132345D01*
X921681Y132367D01*
X921677Y132403D01*
X921667Y132443D01*
X921652Y132494D01*
X921627Y132545D01*
X921594Y132596D01*
X921550Y132647D01*
X921543Y132655D01*
X921525Y132669D01*
X921499Y132687D01*
X921459Y132713D01*
X921408Y132735D01*
X921350Y132756D01*
X921281Y132771D01*
X921204Y132775D01*
X921183D01*
X921168Y132771D01*
X921124Y132767D01*
X921073Y132756D01*
X921019Y132742D01*
X920957Y132717D01*
X920899Y132684D01*
X920844Y132640D01*
X920837Y132633D01*
X920822Y132615D01*
X920800Y132585D01*
X920778Y132542D01*
X920753Y132491D01*
X920731Y132425D01*
X920717Y132352D01*
X920709Y132269D01*
X920393Y132301D01*
Y132305D01*
X920396Y132316D01*
Y132334D01*
X920400Y132360D01*
X920407Y132389D01*
X920415Y132422D01*
X920425Y132462D01*
X920436Y132502D01*
X920465Y132589D01*
X920509Y132676D01*
X920535Y132720D01*
X920567Y132764D01*
X920600Y132804D01*
X920636Y132840D01*
X920640Y132844D01*
X920647Y132847D01*
X920658Y132858D01*
X920677Y132869D01*
X920698Y132884D01*
X920724Y132898D01*
X920753Y132917D01*
X920789Y132935D01*
X920829Y132953D01*
X920873Y132971D01*
X920920Y132986D01*
X920971Y133000D01*
X921026Y133011D01*
X921084Y133022D01*
X921146Y133026D01*
X921212Y133029D01*
X921248D01*
X921274Y133026D01*
D02*
G37*
G36*
X919166Y133015D02*
X919199D01*
X919275Y133011D01*
X919355Y133000D01*
X919443Y132990D01*
X919523Y132971D01*
X919563Y132960D01*
X919596Y132949D01*
X919599D01*
X919603Y132946D01*
X919625Y132935D01*
X919657Y132920D01*
X919697Y132895D01*
X919741Y132862D01*
X919788Y132818D01*
X919832Y132767D01*
X919876Y132709D01*
Y132706D01*
X919879Y132702D01*
X919894Y132680D01*
X919909Y132644D01*
X919930Y132596D01*
X919948Y132542D01*
X919967Y132476D01*
X919978Y132407D01*
X919981Y132331D01*
Y132327D01*
Y132320D01*
Y132305D01*
X919978Y132287D01*
Y132262D01*
X919974Y132236D01*
X919960Y132174D01*
X919938Y132101D01*
X919909Y132025D01*
X919865Y131948D01*
X919836Y131912D01*
X919807Y131876D01*
X919803Y131872D01*
X919799Y131868D01*
X919788Y131857D01*
X919774Y131846D01*
X919756Y131832D01*
X919734Y131817D01*
X919705Y131799D01*
X919676Y131777D01*
X919639Y131759D01*
X919599Y131741D01*
X919555Y131719D01*
X919508Y131701D01*
X919454Y131686D01*
X919399Y131668D01*
X919337Y131657D01*
X919271Y131646D01*
X919279Y131643D01*
X919293Y131635D01*
X919315Y131621D01*
X919344Y131606D01*
X919410Y131566D01*
X919443Y131541D01*
X919472Y131519D01*
X919479Y131512D01*
X919497Y131493D01*
X919526Y131464D01*
X919563Y131428D01*
X919603Y131377D01*
X919650Y131322D01*
X919697Y131257D01*
X919748Y131184D01*
X920181Y130500D01*
X919767D01*
X919435Y131024D01*
Y131027D01*
X919428Y131035D01*
X919421Y131046D01*
X919410Y131060D01*
X919384Y131100D01*
X919352Y131151D01*
X919312Y131206D01*
X919271Y131264D01*
X919232Y131319D01*
X919195Y131370D01*
X919191Y131373D01*
X919180Y131388D01*
X919162Y131410D01*
X919137Y131435D01*
X919082Y131490D01*
X919053Y131515D01*
X919024Y131537D01*
X919020Y131541D01*
X919013Y131544D01*
X918999Y131552D01*
X918977Y131563D01*
X918955Y131573D01*
X918929Y131584D01*
X918871Y131603D01*
X918867D01*
X918860Y131606D01*
X918846D01*
X918827Y131610D01*
X918802Y131614D01*
X918773D01*
X918733Y131617D01*
X918303D01*
Y130500D01*
X917968D01*
Y133019D01*
X919137D01*
X919166Y133015D01*
D02*
G37*
%LPC*%
G36*
X919097Y156738D02*
X918303D01*
Y155905D01*
X919053D01*
X919097Y155909D01*
X919148Y155912D01*
X919206Y155916D01*
X919264Y155923D01*
X919322Y155934D01*
X919373Y155949D01*
X919381Y155952D01*
X919395Y155959D01*
X919417Y155971D01*
X919446Y155985D01*
X919479Y156007D01*
X919512Y156032D01*
X919544Y156065D01*
X919570Y156102D01*
X919573Y156105D01*
X919581Y156120D01*
X919592Y156141D01*
X919606Y156171D01*
X919617Y156203D01*
X919628Y156240D01*
X919635Y156283D01*
X919639Y156327D01*
Y156331D01*
Y156334D01*
X919635Y156356D01*
X919632Y156389D01*
X919625Y156433D01*
X919606Y156476D01*
X919584Y156527D01*
X919552Y156575D01*
X919508Y156622D01*
X919501Y156626D01*
X919483Y156640D01*
X919453Y156658D01*
X919406Y156680D01*
X919351Y156702D01*
X919279Y156720D01*
X919195Y156735D01*
X919097Y156738D01*
D02*
G37*
G36*
X919097Y132738D02*
X918303D01*
Y131905D01*
X919053D01*
X919097Y131908D01*
X919148Y131912D01*
X919206Y131916D01*
X919264Y131923D01*
X919322Y131934D01*
X919373Y131948D01*
X919381Y131952D01*
X919395Y131959D01*
X919417Y131970D01*
X919446Y131985D01*
X919479Y132007D01*
X919512Y132032D01*
X919545Y132065D01*
X919570Y132101D01*
X919574Y132105D01*
X919581Y132120D01*
X919592Y132141D01*
X919606Y132170D01*
X919617Y132203D01*
X919628Y132240D01*
X919635Y132283D01*
X919639Y132327D01*
Y132331D01*
Y132334D01*
X919635Y132356D01*
X919632Y132389D01*
X919625Y132433D01*
X919606Y132476D01*
X919584Y132527D01*
X919552Y132574D01*
X919508Y132622D01*
X919501Y132625D01*
X919483Y132640D01*
X919454Y132658D01*
X919406Y132680D01*
X919352Y132702D01*
X919279Y132720D01*
X919195Y132735D01*
X919097Y132738D01*
D02*
G37*
%LPD*%
D10*
X909307Y150760D02*
Y158240D01*
Y150760D02*
X926630D01*
Y158240D01*
X909307D02*
X926630D01*
X909307Y126760D02*
Y134240D01*
Y126760D02*
X926630D01*
Y134240D01*
X909307D02*
X926630D01*
M02*
