G04*
G04 #@! TF.GenerationSoftware,Altium Limited,Altium Designer,22.11.1 (43)*
G04*
G04 Layer_Color=32768*
%FSLAX25Y25*%
%MOIN*%
G70*
G04*
G04 #@! TF.SameCoordinates,F1E40A5C-0621-48A3-8FA6-9D6C7DDBF0E7*
G04*
G04*
G04 #@! TF.FilePolarity,Positive*
G04*
G01*
G75*
%ADD15C,0.00394*%
%ADD72C,0.00197*%
D15*
X353795Y452213D02*
X403205D01*
X353795D02*
Y509299D01*
X403205D01*
Y452213D02*
Y509299D01*
X440032Y190000D02*
X443969D01*
X442000Y188032D02*
Y191969D01*
X506031Y178000D02*
X509968D01*
X508000Y176031D02*
Y179968D01*
X354390Y130705D02*
X358327D01*
X356358Y128736D02*
Y132673D01*
X577090Y370996D02*
X600909D01*
X577090D02*
Y410909D01*
X600909D01*
Y370996D02*
Y410909D01*
X480531Y390000D02*
X484468D01*
X482500Y388032D02*
Y391969D01*
X550008Y358764D02*
X625992D01*
Y279236D02*
Y358764D01*
X550008Y279236D02*
X625992D01*
X550008D02*
Y358764D01*
X567823Y208563D02*
Y242437D01*
X514673Y208563D02*
X567823D01*
X514673D02*
Y242437D01*
X567823D01*
X331532Y180500D02*
X335469D01*
X333500Y178531D02*
Y182468D01*
D72*
X310838Y174204D02*
G03*
X314405Y170953I3445J197D01*
G01*
X314479Y190047D02*
G03*
X310838Y186799I-197J-3445D01*
G01*
X356236D02*
G03*
X352594Y190047I-3445J-197D01*
G01*
X352668Y170953D02*
G03*
X356236Y174204I123J3448D01*
G01*
X506173Y105169D02*
Y138831D01*
X477827Y105169D02*
X506173D01*
X477827D02*
Y138831D01*
X506173D01*
X434323Y186063D02*
Y193937D01*
X449677Y186063D02*
Y193937D01*
X434323D02*
X449677D01*
X434323Y186063D02*
X449677D01*
X515677Y174063D02*
Y181937D01*
X500323Y174063D02*
Y181937D01*
Y174063D02*
X515677D01*
X500323Y181937D02*
X515677D01*
X470335Y279173D02*
X499665D01*
X470335D02*
Y300827D01*
X499665D01*
Y279173D02*
Y300827D01*
X490177Y386063D02*
Y393937D01*
X474823Y386063D02*
Y393937D01*
Y386063D02*
X490177D01*
X474823Y393937D02*
X490177D01*
X433764Y434134D02*
Y448898D01*
X419000Y434134D02*
X433764D01*
X419000D02*
Y448898D01*
X433764D01*
X210173Y324335D02*
Y353665D01*
X231827D01*
Y324335D02*
Y353665D01*
X210173Y324335D02*
X231827D01*
X310838Y174204D02*
Y186799D01*
X356236Y174204D02*
Y186799D01*
X314406Y170953D02*
X352595D01*
X314406Y190047D02*
X352595D01*
X159173Y324335D02*
Y353666D01*
X180827D01*
Y324335D02*
Y353666D01*
X159173Y324335D02*
X180827D01*
M02*
