G04*
G04 #@! TF.GenerationSoftware,Altium Limited,Altium Designer,22.11.1 (43)*
G04*
G04 Layer_Color=16711935*
%FSLAX25Y25*%
%MOIN*%
G70*
G04*
G04 #@! TF.SameCoordinates,F1E40A5C-0621-48A3-8FA6-9D6C7DDBF0E7*
G04*
G04*
G04 #@! TF.FilePolarity,Negative*
G04*
G01*
G75*
%ADD46R,0.06706X0.06706*%
%ADD50C,0.06706*%
%ADD51R,0.06706X0.06706*%
%ADD52C,0.03556*%
%ADD53C,0.08713*%
%ADD54C,0.06063*%
%ADD55R,0.06063X0.06063*%
%ADD56R,0.40170X0.40170*%
G04:AMPARAMS|DCode=57|XSize=94.49mil|YSize=196.85mil|CornerRadius=47.24mil|HoleSize=0mil|Usage=FLASHONLY|Rotation=0.000|XOffset=0mil|YOffset=0mil|HoleType=Round|Shape=RoundedRectangle|*
%AMROUNDEDRECTD57*
21,1,0.09449,0.10236,0,0,0.0*
21,1,0.00000,0.19685,0,0,0.0*
1,1,0.09449,0.00000,-0.05118*
1,1,0.09449,0.00000,-0.05118*
1,1,0.09449,0.00000,0.05118*
1,1,0.09449,0.00000,0.05118*
%
%ADD57ROUNDEDRECTD57*%
%ADD58C,0.06102*%
%ADD59R,0.06102X0.06102*%
%ADD60R,0.05524X0.05524*%
%ADD61C,0.05524*%
%ADD62C,0.05800*%
D46*
X352000Y332000D02*
D03*
D50*
X458000Y427500D02*
D03*
X382000Y332000D02*
D03*
X372000D02*
D03*
X362000D02*
D03*
X231000Y115500D02*
D03*
X241000Y125500D02*
D03*
X231000D02*
D03*
X241000Y135500D02*
D03*
X231000D02*
D03*
X291358Y115705D02*
D03*
X301358D02*
D03*
X311358D02*
D03*
X321358D02*
D03*
X331358D02*
D03*
X341358D02*
D03*
X351358D02*
D03*
X361358D02*
D03*
X371358D02*
D03*
X381358D02*
D03*
X391358D02*
D03*
X401358D02*
D03*
X411358D02*
D03*
X421358D02*
D03*
X291358Y145705D02*
D03*
X301358D02*
D03*
X311358D02*
D03*
X321358D02*
D03*
X331358D02*
D03*
X341358D02*
D03*
X351358D02*
D03*
X361358D02*
D03*
X371358D02*
D03*
X381358D02*
D03*
X391358D02*
D03*
X401358D02*
D03*
X411358D02*
D03*
X450500Y141000D02*
D03*
Y131000D02*
D03*
Y121000D02*
D03*
D51*
X458000Y417500D02*
D03*
X241000Y115500D02*
D03*
X421358Y145705D02*
D03*
X450500Y111000D02*
D03*
D52*
X367476Y464890D02*
D03*
X369051Y467646D02*
D03*
X372201D02*
D03*
X373776Y464890D02*
D03*
X375350Y467646D02*
D03*
X376925Y464890D02*
D03*
X380075D02*
D03*
X381650Y467646D02*
D03*
X383224Y464890D02*
D03*
X384799Y467646D02*
D03*
X387949D02*
D03*
X389524Y464890D02*
D03*
X386374D02*
D03*
X370626D02*
D03*
D53*
X395311Y469417D02*
D03*
X361689D02*
D03*
X395311Y488039D02*
D03*
X361689D02*
D03*
D54*
X548142Y115705D02*
D03*
Y141295D02*
D03*
X565858Y115705D02*
D03*
D55*
Y141295D02*
D03*
D56*
X648500Y468000D02*
D03*
X255000Y473000D02*
D03*
X147000Y472500D02*
D03*
X555000Y469500D02*
D03*
D57*
X185941Y184000D02*
D03*
X141059D02*
D03*
X664441Y186000D02*
D03*
X619559D02*
D03*
D58*
X163500Y154472D02*
D03*
X173342D02*
D03*
Y211559D02*
D03*
X153657D02*
D03*
X642000Y156473D02*
D03*
X651843D02*
D03*
Y213559D02*
D03*
X632158D02*
D03*
D59*
X153657Y154472D02*
D03*
X632158Y156473D02*
D03*
D60*
X323894Y180500D02*
D03*
D61*
X343106D02*
D03*
D62*
X472199Y333099D02*
D03*
X433800Y474600D02*
D03*
X402800Y458900D02*
D03*
X296400Y290700D02*
D03*
X214421Y452421D02*
D03*
X426382Y455000D02*
D03*
X596900Y490700D02*
D03*
X572700Y396000D02*
D03*
X236072Y323800D02*
D03*
X390400Y444400D02*
D03*
X247500Y327000D02*
D03*
X588000Y315100D02*
D03*
X502882Y229982D02*
D03*
X575600Y393100D02*
D03*
X386900Y162000D02*
D03*
X382053Y156400D02*
D03*
X398000Y444200D02*
D03*
X401358Y131000D02*
D03*
X416700Y444000D02*
D03*
M02*
